G04 #@! TF.GenerationSoftware,KiCad,Pcbnew,5.0.2-bee76a0~70~ubuntu18.04.1*
G04 #@! TF.CreationDate,2019-03-14T10:40:12+05:30*
G04 #@! TF.ProjectId,occupancy,6f636375-7061-46e6-9379-2e6b69636164,rev?*
G04 #@! TF.SameCoordinates,Original*
G04 #@! TF.FileFunction,Copper,L1,Top*
G04 #@! TF.FilePolarity,Positive*
%FSLAX46Y46*%
G04 Gerber Fmt 4.6, Leading zero omitted, Abs format (unit mm)*
G04 Created by KiCad (PCBNEW 5.0.2-bee76a0~70~ubuntu18.04.1) date Thu Mar 14 10:40:12 2019*
%MOMM*%
%LPD*%
G01*
G04 APERTURE LIST*
G04 #@! TA.AperFunction,ComponentPad*
%ADD10C,1.600000*%
G04 #@! TD*
G04 #@! TA.AperFunction,ComponentPad*
%ADD11R,1.600000X1.600000*%
G04 #@! TD*
G04 #@! TA.AperFunction,ComponentPad*
%ADD12C,1.200000*%
G04 #@! TD*
G04 #@! TA.AperFunction,ComponentPad*
%ADD13R,1.200000X1.200000*%
G04 #@! TD*
G04 #@! TA.AperFunction,ComponentPad*
%ADD14O,2.200000X2.200000*%
G04 #@! TD*
G04 #@! TA.AperFunction,ComponentPad*
%ADD15R,2.200000X2.200000*%
G04 #@! TD*
G04 #@! TA.AperFunction,ComponentPad*
%ADD16O,1.700000X1.700000*%
G04 #@! TD*
G04 #@! TA.AperFunction,ComponentPad*
%ADD17R,1.700000X1.700000*%
G04 #@! TD*
G04 #@! TA.AperFunction,ComponentPad*
%ADD18C,3.000000*%
G04 #@! TD*
G04 #@! TA.AperFunction,ComponentPad*
%ADD19C,2.500000*%
G04 #@! TD*
G04 #@! TA.AperFunction,ComponentPad*
%ADD20R,1.100000X1.800000*%
G04 #@! TD*
G04 #@! TA.AperFunction,Conductor*
%ADD21C,0.100000*%
G04 #@! TD*
G04 #@! TA.AperFunction,ComponentPad*
%ADD22C,1.100000*%
G04 #@! TD*
G04 #@! TA.AperFunction,ComponentPad*
%ADD23C,1.440000*%
G04 #@! TD*
G04 #@! TA.AperFunction,ComponentPad*
%ADD24O,1.600000X2.400000*%
G04 #@! TD*
G04 #@! TA.AperFunction,ComponentPad*
%ADD25R,1.600000X2.400000*%
G04 #@! TD*
G04 #@! TA.AperFunction,ComponentPad*
%ADD26O,1.600000X1.600000*%
G04 #@! TD*
G04 #@! TA.AperFunction,ComponentPad*
%ADD27O,1.400000X1.400000*%
G04 #@! TD*
G04 #@! TA.AperFunction,ComponentPad*
%ADD28C,1.400000*%
G04 #@! TD*
G04 #@! TA.AperFunction,ComponentPad*
%ADD29C,2.000000*%
G04 #@! TD*
G04 #@! TA.AperFunction,ComponentPad*
%ADD30C,2.540000*%
G04 #@! TD*
G04 APERTURE END LIST*
D10*
G04 #@! TO.P,C1,2*
G04 #@! TO.N,GNDREF*
X150000000Y-78500000D03*
D11*
G04 #@! TO.P,C1,1*
G04 #@! TO.N,VCC*
X146500000Y-78500000D03*
G04 #@! TD*
D10*
G04 #@! TO.P,C2,2*
G04 #@! TO.N,GNDREF*
X134500000Y-57500000D03*
G04 #@! TO.P,C2,1*
G04 #@! TO.N,Net-(C2-Pad1)*
X132000000Y-57500000D03*
G04 #@! TD*
D12*
G04 #@! TO.P,C3,2*
G04 #@! TO.N,GNDREF*
X157000000Y-67500000D03*
D13*
G04 #@! TO.P,C3,1*
G04 #@! TO.N,Net-(C3-Pad1)*
X155500000Y-67500000D03*
G04 #@! TD*
D14*
G04 #@! TO.P,D1,2*
G04 #@! TO.N,Net-(D1-Pad2)*
X146840000Y-85500000D03*
D15*
G04 #@! TO.P,D1,1*
G04 #@! TO.N,VCC*
X157000000Y-85500000D03*
G04 #@! TD*
D16*
G04 #@! TO.P,J2,3*
G04 #@! TO.N,VCC*
X127040000Y-72000000D03*
G04 #@! TO.P,J2,2*
G04 #@! TO.N,Net-(J2-Pad2)*
X124500000Y-72000000D03*
D17*
G04 #@! TO.P,J2,1*
G04 #@! TO.N,GNDREF*
X121960000Y-72000000D03*
G04 #@! TD*
D18*
G04 #@! TO.P,K1,1*
G04 #@! TO.N,Net-(J1-Pad2)*
X152000000Y-92000000D03*
D19*
G04 #@! TO.P,K1,5*
G04 #@! TO.N,VCC*
X157950000Y-93950000D03*
D18*
G04 #@! TO.P,K1,4*
G04 #@! TO.N,Net-(J3-Pad2)*
X158000000Y-106200000D03*
G04 #@! TO.P,K1,3*
G04 #@! TO.N,Net-(J3-Pad1)*
X145950000Y-106150000D03*
D19*
G04 #@! TO.P,K1,2*
G04 #@! TO.N,Net-(D1-Pad2)*
X145950000Y-93950000D03*
G04 #@! TD*
D20*
G04 #@! TO.P,Q1,1*
G04 #@! TO.N,Net-(D1-Pad2)*
X155000000Y-79900000D03*
D21*
G04 #@! TD*
G04 #@! TO.N,GNDREF*
G04 #@! TO.C,Q1*
G36*
X157841955Y-79001324D02*
X157868650Y-79005284D01*
X157894828Y-79011841D01*
X157920238Y-79020933D01*
X157944634Y-79032472D01*
X157967782Y-79046346D01*
X157989458Y-79062422D01*
X158009454Y-79080546D01*
X158027578Y-79100542D01*
X158043654Y-79122218D01*
X158057528Y-79145366D01*
X158069067Y-79169762D01*
X158078159Y-79195172D01*
X158084716Y-79221350D01*
X158088676Y-79248045D01*
X158090000Y-79275000D01*
X158090000Y-80525000D01*
X158088676Y-80551955D01*
X158084716Y-80578650D01*
X158078159Y-80604828D01*
X158069067Y-80630238D01*
X158057528Y-80654634D01*
X158043654Y-80677782D01*
X158027578Y-80699458D01*
X158009454Y-80719454D01*
X157989458Y-80737578D01*
X157967782Y-80753654D01*
X157944634Y-80767528D01*
X157920238Y-80779067D01*
X157894828Y-80788159D01*
X157868650Y-80794716D01*
X157841955Y-80798676D01*
X157815000Y-80800000D01*
X157265000Y-80800000D01*
X157238045Y-80798676D01*
X157211350Y-80794716D01*
X157185172Y-80788159D01*
X157159762Y-80779067D01*
X157135366Y-80767528D01*
X157112218Y-80753654D01*
X157090542Y-80737578D01*
X157070546Y-80719454D01*
X157052422Y-80699458D01*
X157036346Y-80677782D01*
X157022472Y-80654634D01*
X157010933Y-80630238D01*
X157001841Y-80604828D01*
X156995284Y-80578650D01*
X156991324Y-80551955D01*
X156990000Y-80525000D01*
X156990000Y-79275000D01*
X156991324Y-79248045D01*
X156995284Y-79221350D01*
X157001841Y-79195172D01*
X157010933Y-79169762D01*
X157022472Y-79145366D01*
X157036346Y-79122218D01*
X157052422Y-79100542D01*
X157070546Y-79080546D01*
X157090542Y-79062422D01*
X157112218Y-79046346D01*
X157135366Y-79032472D01*
X157159762Y-79020933D01*
X157185172Y-79011841D01*
X157211350Y-79005284D01*
X157238045Y-79001324D01*
X157265000Y-79000000D01*
X157815000Y-79000000D01*
X157841955Y-79001324D01*
X157841955Y-79001324D01*
G37*
D22*
G04 #@! TO.P,Q1,3*
G04 #@! TO.N,GNDREF*
X157540000Y-79900000D03*
D21*
G04 #@! TD*
G04 #@! TO.N,Net-(C3-Pad1)*
G04 #@! TO.C,Q1*
G36*
X156571955Y-76931324D02*
X156598650Y-76935284D01*
X156624828Y-76941841D01*
X156650238Y-76950933D01*
X156674634Y-76962472D01*
X156697782Y-76976346D01*
X156719458Y-76992422D01*
X156739454Y-77010546D01*
X156757578Y-77030542D01*
X156773654Y-77052218D01*
X156787528Y-77075366D01*
X156799067Y-77099762D01*
X156808159Y-77125172D01*
X156814716Y-77151350D01*
X156818676Y-77178045D01*
X156820000Y-77205000D01*
X156820000Y-78455000D01*
X156818676Y-78481955D01*
X156814716Y-78508650D01*
X156808159Y-78534828D01*
X156799067Y-78560238D01*
X156787528Y-78584634D01*
X156773654Y-78607782D01*
X156757578Y-78629458D01*
X156739454Y-78649454D01*
X156719458Y-78667578D01*
X156697782Y-78683654D01*
X156674634Y-78697528D01*
X156650238Y-78709067D01*
X156624828Y-78718159D01*
X156598650Y-78724716D01*
X156571955Y-78728676D01*
X156545000Y-78730000D01*
X155995000Y-78730000D01*
X155968045Y-78728676D01*
X155941350Y-78724716D01*
X155915172Y-78718159D01*
X155889762Y-78709067D01*
X155865366Y-78697528D01*
X155842218Y-78683654D01*
X155820542Y-78667578D01*
X155800546Y-78649454D01*
X155782422Y-78629458D01*
X155766346Y-78607782D01*
X155752472Y-78584634D01*
X155740933Y-78560238D01*
X155731841Y-78534828D01*
X155725284Y-78508650D01*
X155721324Y-78481955D01*
X155720000Y-78455000D01*
X155720000Y-77205000D01*
X155721324Y-77178045D01*
X155725284Y-77151350D01*
X155731841Y-77125172D01*
X155740933Y-77099762D01*
X155752472Y-77075366D01*
X155766346Y-77052218D01*
X155782422Y-77030542D01*
X155800546Y-77010546D01*
X155820542Y-76992422D01*
X155842218Y-76976346D01*
X155865366Y-76962472D01*
X155889762Y-76950933D01*
X155915172Y-76941841D01*
X155941350Y-76935284D01*
X155968045Y-76931324D01*
X155995000Y-76930000D01*
X156545000Y-76930000D01*
X156571955Y-76931324D01*
X156571955Y-76931324D01*
G37*
D22*
G04 #@! TO.P,Q1,2*
G04 #@! TO.N,Net-(C3-Pad1)*
X156270000Y-77830000D03*
G04 #@! TD*
D23*
G04 #@! TO.P,RV1,3*
G04 #@! TO.N,GNDREF*
X156080000Y-59000000D03*
G04 #@! TO.P,RV1,2*
G04 #@! TO.N,Net-(R1-Pad2)*
X153540000Y-59000000D03*
G04 #@! TO.P,RV1,1*
G04 #@! TO.N,Net-(RV1-Pad1)*
X151000000Y-59000000D03*
G04 #@! TD*
D24*
G04 #@! TO.P,U2,8*
G04 #@! TO.N,VCC*
X120650000Y-57880000D03*
G04 #@! TO.P,U2,4*
G04 #@! TO.N,Net-(J2-Pad2)*
X128270000Y-65500000D03*
G04 #@! TO.P,U2,7*
G04 #@! TO.N,Net-(U2-Pad7)*
X123190000Y-57880000D03*
G04 #@! TO.P,U2,3*
G04 #@! TO.N,Net-(R2-Pad2)*
X125730000Y-65500000D03*
G04 #@! TO.P,U2,6*
G04 #@! TO.N,GNDREF*
X125730000Y-57880000D03*
G04 #@! TO.P,U2,2*
G04 #@! TO.N,Net-(R1-Pad2)*
X123190000Y-65500000D03*
G04 #@! TO.P,U2,5*
G04 #@! TO.N,Net-(C2-Pad1)*
X128270000Y-57880000D03*
D25*
G04 #@! TO.P,U2,1*
G04 #@! TO.N,GNDREF*
X120650000Y-65500000D03*
G04 #@! TD*
D26*
G04 #@! TO.P,R2,2*
G04 #@! TO.N,Net-(R2-Pad2)*
X146340000Y-72000000D03*
D10*
G04 #@! TO.P,R2,1*
G04 #@! TO.N,Net-(C3-Pad1)*
X156500000Y-72000000D03*
G04 #@! TD*
D27*
G04 #@! TO.P,R1,2*
G04 #@! TO.N,Net-(R1-Pad2)*
X149500000Y-63420000D03*
D28*
G04 #@! TO.P,R1,1*
G04 #@! TO.N,VCC*
X149500000Y-68500000D03*
G04 #@! TD*
D29*
G04 #@! TO.P,J1,1*
G04 #@! TO.N,Net-(J1-Pad1)*
X119500000Y-108500000D03*
G04 #@! TO.P,J1,2*
G04 #@! TO.N,Net-(J1-Pad2)*
X124500000Y-108500000D03*
G04 #@! TD*
G04 #@! TO.P,J3,1*
G04 #@! TO.N,Net-(J3-Pad1)*
X131500000Y-108500000D03*
G04 #@! TO.P,J3,2*
G04 #@! TO.N,Net-(J3-Pad2)*
X136500000Y-108500000D03*
G04 #@! TD*
D30*
G04 #@! TO.P,U1,2*
G04 #@! TO.N,Net-(J1-Pad1)*
X109300000Y-91500000D03*
G04 #@! TO.P,U1,1*
G04 #@! TO.N,Net-(J1-Pad2)*
X109300000Y-86500000D03*
G04 #@! TO.P,U1,3*
G04 #@! TO.N,GNDREF*
X138700000Y-81300000D03*
G04 #@! TO.P,U1,4*
G04 #@! TO.N,VCC*
X138700000Y-96700000D03*
G04 #@! TD*
M02*
