M48
;DRILL file {KiCad 5.0.2-bee76a0~70~ubuntu18.04.1} date Thu Mar 14 10:42:15 2019
;FORMAT={-:-/ absolute / inch / decimal}
FMAT,2
INCH,TZ
T1C0.0236
T2C0.0276
T3C0.0295
T4C0.0315
T5C0.0394
T6C0.0433
T7C0.0500
T8C0.0512
T9C0.0866
%
G90
G05
T1
X6.122Y-2.6575
X6.1811Y-2.6575
T2
X5.8858Y-2.4969
X5.8858Y-2.6969
T3
X6.1024Y-3.1299
X6.1524Y-3.0799
X6.2024Y-3.1299
T4
X5.7614Y-2.8346
X6.1614Y-2.8346
X4.75Y-2.2787
X4.75Y-2.5787
X4.85Y-2.2787
X4.85Y-2.5787
X4.95Y-2.2787
X4.95Y-2.5787
X5.05Y-2.2787
X5.05Y-2.5787
X5.7677Y-3.0906
X5.9055Y-3.0906
X5.1969Y-2.2638
X5.2953Y-2.2638
X5.9449Y-2.3228
X6.0449Y-2.3228
X6.1449Y-2.3228
T5
X5.7461Y-3.6988
X6.2185Y-3.6988
X4.8016Y-2.8346
X4.9016Y-2.8346
X5.0016Y-2.8346
X4.7047Y-4.2717
X4.9016Y-4.2717
X5.1772Y-4.2717
X5.374Y-4.2717
T6
X5.7811Y-3.3661
X6.1811Y-3.3661
T7
X4.3031Y-3.4055
X4.3031Y-3.6024
X5.4606Y-3.2008
X5.4606Y-3.8071
T8
X5.7461Y-4.1791
X5.9843Y-3.622
X6.2205Y-4.1811
T9
X6.4764Y-3.2874
X4.0354Y-3.2874
T0
M30
