G04 #@! TF.GenerationSoftware,KiCad,Pcbnew,5.0.2-bee76a0~70~ubuntu18.04.1*
G04 #@! TF.CreationDate,2019-03-14T10:40:12+05:30*
G04 #@! TF.ProjectId,occupancy,6f636375-7061-46e6-9379-2e6b69636164,rev?*
G04 #@! TF.SameCoordinates,Original*
G04 #@! TF.FileFunction,Copper,L2,Bot*
G04 #@! TF.FilePolarity,Positive*
%FSLAX46Y46*%
G04 Gerber Fmt 4.6, Leading zero omitted, Abs format (unit mm)*
G04 Created by KiCad (PCBNEW 5.0.2-bee76a0~70~ubuntu18.04.1) date Thu Mar 14 10:40:12 2019*
%MOMM*%
%LPD*%
G01*
G04 APERTURE LIST*
G04 #@! TA.AperFunction,ComponentPad*
%ADD10C,1.600000*%
G04 #@! TD*
G04 #@! TA.AperFunction,ComponentPad*
%ADD11R,1.600000X1.600000*%
G04 #@! TD*
G04 #@! TA.AperFunction,ComponentPad*
%ADD12C,1.200000*%
G04 #@! TD*
G04 #@! TA.AperFunction,ComponentPad*
%ADD13R,1.200000X1.200000*%
G04 #@! TD*
G04 #@! TA.AperFunction,ComponentPad*
%ADD14O,2.200000X2.200000*%
G04 #@! TD*
G04 #@! TA.AperFunction,ComponentPad*
%ADD15R,2.200000X2.200000*%
G04 #@! TD*
G04 #@! TA.AperFunction,ComponentPad*
%ADD16O,1.700000X1.700000*%
G04 #@! TD*
G04 #@! TA.AperFunction,ComponentPad*
%ADD17R,1.700000X1.700000*%
G04 #@! TD*
G04 #@! TA.AperFunction,ComponentPad*
%ADD18C,3.000000*%
G04 #@! TD*
G04 #@! TA.AperFunction,ComponentPad*
%ADD19C,2.500000*%
G04 #@! TD*
G04 #@! TA.AperFunction,ComponentPad*
%ADD20R,1.100000X1.800000*%
G04 #@! TD*
G04 #@! TA.AperFunction,Conductor*
%ADD21C,0.100000*%
G04 #@! TD*
G04 #@! TA.AperFunction,ComponentPad*
%ADD22C,1.100000*%
G04 #@! TD*
G04 #@! TA.AperFunction,ComponentPad*
%ADD23C,1.440000*%
G04 #@! TD*
G04 #@! TA.AperFunction,ComponentPad*
%ADD24O,1.600000X2.400000*%
G04 #@! TD*
G04 #@! TA.AperFunction,ComponentPad*
%ADD25R,1.600000X2.400000*%
G04 #@! TD*
G04 #@! TA.AperFunction,ComponentPad*
%ADD26O,1.600000X1.600000*%
G04 #@! TD*
G04 #@! TA.AperFunction,ComponentPad*
%ADD27O,1.400000X1.400000*%
G04 #@! TD*
G04 #@! TA.AperFunction,ComponentPad*
%ADD28C,1.400000*%
G04 #@! TD*
G04 #@! TA.AperFunction,ComponentPad*
%ADD29C,2.000000*%
G04 #@! TD*
G04 #@! TA.AperFunction,ComponentPad*
%ADD30C,2.540000*%
G04 #@! TD*
G04 #@! TA.AperFunction,Conductor*
%ADD31C,1.000000*%
G04 #@! TD*
G04 #@! TA.AperFunction,Conductor*
%ADD32C,0.500000*%
G04 #@! TD*
G04 #@! TA.AperFunction,Conductor*
%ADD33C,2.000000*%
G04 #@! TD*
G04 #@! TA.AperFunction,Conductor*
%ADD34C,0.254000*%
G04 #@! TD*
G04 APERTURE END LIST*
D10*
G04 #@! TO.P,C1,2*
G04 #@! TO.N,GNDREF*
X150000000Y-78500000D03*
D11*
G04 #@! TO.P,C1,1*
G04 #@! TO.N,VCC*
X146500000Y-78500000D03*
G04 #@! TD*
D10*
G04 #@! TO.P,C2,2*
G04 #@! TO.N,GNDREF*
X134500000Y-57500000D03*
G04 #@! TO.P,C2,1*
G04 #@! TO.N,Net-(C2-Pad1)*
X132000000Y-57500000D03*
G04 #@! TD*
D12*
G04 #@! TO.P,C3,2*
G04 #@! TO.N,GNDREF*
X157000000Y-67500000D03*
D13*
G04 #@! TO.P,C3,1*
G04 #@! TO.N,Net-(C3-Pad1)*
X155500000Y-67500000D03*
G04 #@! TD*
D14*
G04 #@! TO.P,D1,2*
G04 #@! TO.N,Net-(D1-Pad2)*
X146840000Y-85500000D03*
D15*
G04 #@! TO.P,D1,1*
G04 #@! TO.N,VCC*
X157000000Y-85500000D03*
G04 #@! TD*
D16*
G04 #@! TO.P,J2,3*
G04 #@! TO.N,VCC*
X127040000Y-72000000D03*
G04 #@! TO.P,J2,2*
G04 #@! TO.N,Net-(J2-Pad2)*
X124500000Y-72000000D03*
D17*
G04 #@! TO.P,J2,1*
G04 #@! TO.N,GNDREF*
X121960000Y-72000000D03*
G04 #@! TD*
D18*
G04 #@! TO.P,K1,1*
G04 #@! TO.N,Net-(J1-Pad2)*
X152000000Y-92000000D03*
D19*
G04 #@! TO.P,K1,5*
G04 #@! TO.N,VCC*
X157950000Y-93950000D03*
D18*
G04 #@! TO.P,K1,4*
G04 #@! TO.N,Net-(J3-Pad2)*
X158000000Y-106200000D03*
G04 #@! TO.P,K1,3*
G04 #@! TO.N,Net-(J3-Pad1)*
X145950000Y-106150000D03*
D19*
G04 #@! TO.P,K1,2*
G04 #@! TO.N,Net-(D1-Pad2)*
X145950000Y-93950000D03*
G04 #@! TD*
D20*
G04 #@! TO.P,Q1,1*
G04 #@! TO.N,Net-(D1-Pad2)*
X155000000Y-79900000D03*
D21*
G04 #@! TD*
G04 #@! TO.N,GNDREF*
G04 #@! TO.C,Q1*
G36*
X157841955Y-79001324D02*
X157868650Y-79005284D01*
X157894828Y-79011841D01*
X157920238Y-79020933D01*
X157944634Y-79032472D01*
X157967782Y-79046346D01*
X157989458Y-79062422D01*
X158009454Y-79080546D01*
X158027578Y-79100542D01*
X158043654Y-79122218D01*
X158057528Y-79145366D01*
X158069067Y-79169762D01*
X158078159Y-79195172D01*
X158084716Y-79221350D01*
X158088676Y-79248045D01*
X158090000Y-79275000D01*
X158090000Y-80525000D01*
X158088676Y-80551955D01*
X158084716Y-80578650D01*
X158078159Y-80604828D01*
X158069067Y-80630238D01*
X158057528Y-80654634D01*
X158043654Y-80677782D01*
X158027578Y-80699458D01*
X158009454Y-80719454D01*
X157989458Y-80737578D01*
X157967782Y-80753654D01*
X157944634Y-80767528D01*
X157920238Y-80779067D01*
X157894828Y-80788159D01*
X157868650Y-80794716D01*
X157841955Y-80798676D01*
X157815000Y-80800000D01*
X157265000Y-80800000D01*
X157238045Y-80798676D01*
X157211350Y-80794716D01*
X157185172Y-80788159D01*
X157159762Y-80779067D01*
X157135366Y-80767528D01*
X157112218Y-80753654D01*
X157090542Y-80737578D01*
X157070546Y-80719454D01*
X157052422Y-80699458D01*
X157036346Y-80677782D01*
X157022472Y-80654634D01*
X157010933Y-80630238D01*
X157001841Y-80604828D01*
X156995284Y-80578650D01*
X156991324Y-80551955D01*
X156990000Y-80525000D01*
X156990000Y-79275000D01*
X156991324Y-79248045D01*
X156995284Y-79221350D01*
X157001841Y-79195172D01*
X157010933Y-79169762D01*
X157022472Y-79145366D01*
X157036346Y-79122218D01*
X157052422Y-79100542D01*
X157070546Y-79080546D01*
X157090542Y-79062422D01*
X157112218Y-79046346D01*
X157135366Y-79032472D01*
X157159762Y-79020933D01*
X157185172Y-79011841D01*
X157211350Y-79005284D01*
X157238045Y-79001324D01*
X157265000Y-79000000D01*
X157815000Y-79000000D01*
X157841955Y-79001324D01*
X157841955Y-79001324D01*
G37*
D22*
G04 #@! TO.P,Q1,3*
G04 #@! TO.N,GNDREF*
X157540000Y-79900000D03*
D21*
G04 #@! TD*
G04 #@! TO.N,Net-(C3-Pad1)*
G04 #@! TO.C,Q1*
G36*
X156571955Y-76931324D02*
X156598650Y-76935284D01*
X156624828Y-76941841D01*
X156650238Y-76950933D01*
X156674634Y-76962472D01*
X156697782Y-76976346D01*
X156719458Y-76992422D01*
X156739454Y-77010546D01*
X156757578Y-77030542D01*
X156773654Y-77052218D01*
X156787528Y-77075366D01*
X156799067Y-77099762D01*
X156808159Y-77125172D01*
X156814716Y-77151350D01*
X156818676Y-77178045D01*
X156820000Y-77205000D01*
X156820000Y-78455000D01*
X156818676Y-78481955D01*
X156814716Y-78508650D01*
X156808159Y-78534828D01*
X156799067Y-78560238D01*
X156787528Y-78584634D01*
X156773654Y-78607782D01*
X156757578Y-78629458D01*
X156739454Y-78649454D01*
X156719458Y-78667578D01*
X156697782Y-78683654D01*
X156674634Y-78697528D01*
X156650238Y-78709067D01*
X156624828Y-78718159D01*
X156598650Y-78724716D01*
X156571955Y-78728676D01*
X156545000Y-78730000D01*
X155995000Y-78730000D01*
X155968045Y-78728676D01*
X155941350Y-78724716D01*
X155915172Y-78718159D01*
X155889762Y-78709067D01*
X155865366Y-78697528D01*
X155842218Y-78683654D01*
X155820542Y-78667578D01*
X155800546Y-78649454D01*
X155782422Y-78629458D01*
X155766346Y-78607782D01*
X155752472Y-78584634D01*
X155740933Y-78560238D01*
X155731841Y-78534828D01*
X155725284Y-78508650D01*
X155721324Y-78481955D01*
X155720000Y-78455000D01*
X155720000Y-77205000D01*
X155721324Y-77178045D01*
X155725284Y-77151350D01*
X155731841Y-77125172D01*
X155740933Y-77099762D01*
X155752472Y-77075366D01*
X155766346Y-77052218D01*
X155782422Y-77030542D01*
X155800546Y-77010546D01*
X155820542Y-76992422D01*
X155842218Y-76976346D01*
X155865366Y-76962472D01*
X155889762Y-76950933D01*
X155915172Y-76941841D01*
X155941350Y-76935284D01*
X155968045Y-76931324D01*
X155995000Y-76930000D01*
X156545000Y-76930000D01*
X156571955Y-76931324D01*
X156571955Y-76931324D01*
G37*
D22*
G04 #@! TO.P,Q1,2*
G04 #@! TO.N,Net-(C3-Pad1)*
X156270000Y-77830000D03*
G04 #@! TD*
D23*
G04 #@! TO.P,RV1,3*
G04 #@! TO.N,GNDREF*
X156080000Y-59000000D03*
G04 #@! TO.P,RV1,2*
G04 #@! TO.N,Net-(R1-Pad2)*
X153540000Y-59000000D03*
G04 #@! TO.P,RV1,1*
G04 #@! TO.N,Net-(RV1-Pad1)*
X151000000Y-59000000D03*
G04 #@! TD*
D24*
G04 #@! TO.P,U2,8*
G04 #@! TO.N,VCC*
X120650000Y-57880000D03*
G04 #@! TO.P,U2,4*
G04 #@! TO.N,Net-(J2-Pad2)*
X128270000Y-65500000D03*
G04 #@! TO.P,U2,7*
G04 #@! TO.N,Net-(U2-Pad7)*
X123190000Y-57880000D03*
G04 #@! TO.P,U2,3*
G04 #@! TO.N,Net-(R2-Pad2)*
X125730000Y-65500000D03*
G04 #@! TO.P,U2,6*
G04 #@! TO.N,GNDREF*
X125730000Y-57880000D03*
G04 #@! TO.P,U2,2*
G04 #@! TO.N,Net-(R1-Pad2)*
X123190000Y-65500000D03*
G04 #@! TO.P,U2,5*
G04 #@! TO.N,Net-(C2-Pad1)*
X128270000Y-57880000D03*
D25*
G04 #@! TO.P,U2,1*
G04 #@! TO.N,GNDREF*
X120650000Y-65500000D03*
G04 #@! TD*
D26*
G04 #@! TO.P,R2,2*
G04 #@! TO.N,Net-(R2-Pad2)*
X146340000Y-72000000D03*
D10*
G04 #@! TO.P,R2,1*
G04 #@! TO.N,Net-(C3-Pad1)*
X156500000Y-72000000D03*
G04 #@! TD*
D27*
G04 #@! TO.P,R1,2*
G04 #@! TO.N,Net-(R1-Pad2)*
X149500000Y-63420000D03*
D28*
G04 #@! TO.P,R1,1*
G04 #@! TO.N,VCC*
X149500000Y-68500000D03*
G04 #@! TD*
D29*
G04 #@! TO.P,J1,1*
G04 #@! TO.N,Net-(J1-Pad1)*
X119500000Y-108500000D03*
G04 #@! TO.P,J1,2*
G04 #@! TO.N,Net-(J1-Pad2)*
X124500000Y-108500000D03*
G04 #@! TD*
G04 #@! TO.P,J3,1*
G04 #@! TO.N,Net-(J3-Pad1)*
X131500000Y-108500000D03*
G04 #@! TO.P,J3,2*
G04 #@! TO.N,Net-(J3-Pad2)*
X136500000Y-108500000D03*
G04 #@! TD*
D30*
G04 #@! TO.P,U1,2*
G04 #@! TO.N,Net-(J1-Pad1)*
X109300000Y-91500000D03*
G04 #@! TO.P,U1,1*
G04 #@! TO.N,Net-(J1-Pad2)*
X109300000Y-86500000D03*
G04 #@! TO.P,U1,3*
G04 #@! TO.N,GNDREF*
X138700000Y-81300000D03*
G04 #@! TO.P,U1,4*
G04 #@! TO.N,VCC*
X138700000Y-96700000D03*
G04 #@! TD*
D31*
G04 #@! TO.N,VCC*
X120650000Y-58280000D02*
X120650000Y-57880000D01*
X118850000Y-57880000D02*
X116500000Y-60230000D01*
X120650000Y-57880000D02*
X118850000Y-57880000D01*
X116500000Y-60230000D02*
X116500000Y-72500000D01*
X116500000Y-72500000D02*
X119500000Y-75500000D01*
X127040000Y-73202081D02*
X127040000Y-72000000D01*
X124742081Y-75500000D02*
X127040000Y-73202081D01*
X119500000Y-75500000D02*
X124742081Y-75500000D01*
X149500000Y-75500000D02*
X146500000Y-78500000D01*
X149500000Y-68500000D02*
X149500000Y-75500000D01*
X143200000Y-78500000D02*
X146500000Y-78500000D01*
X127040000Y-72000000D02*
X136700000Y-72000000D01*
X136700000Y-72000000D02*
X143200000Y-78500000D01*
X157000000Y-93000000D02*
X157950000Y-93950000D01*
X157000000Y-85500000D02*
X157000000Y-93000000D01*
X138700000Y-98496051D02*
X141203949Y-101000000D01*
X138700000Y-96700000D02*
X138700000Y-98496051D01*
X150900000Y-101000000D02*
X157950000Y-93950000D01*
X141203949Y-101000000D02*
X150900000Y-101000000D01*
X161500000Y-83100000D02*
X159100000Y-85500000D01*
X159100000Y-85500000D02*
X157000000Y-85500000D01*
X161500000Y-66000000D02*
X161500000Y-83100000D01*
X160000000Y-64500000D02*
X161500000Y-66000000D01*
X149500000Y-68500000D02*
X153500000Y-64500000D01*
X153500000Y-64500000D02*
X160000000Y-64500000D01*
D32*
G04 #@! TO.N,Net-(C2-Pad1)*
X131620000Y-57880000D02*
X132000000Y-57500000D01*
X128270000Y-57880000D02*
X131620000Y-57880000D01*
G04 #@! TO.N,Net-(C3-Pad1)*
X155500000Y-71000000D02*
X156500000Y-72000000D01*
X155500000Y-67500000D02*
X155500000Y-71000000D01*
X156270000Y-73361370D02*
X156270000Y-78230000D01*
X156500000Y-73131370D02*
X156270000Y-73361370D01*
X156500000Y-72000000D02*
X156500000Y-73131370D01*
G04 #@! TO.N,Net-(D1-Pad2)*
X147199999Y-95199999D02*
X145950000Y-93950000D01*
X150310002Y-85500000D02*
X155250001Y-90439999D01*
X146840000Y-85500000D02*
X150310002Y-85500000D01*
X155250001Y-90439999D02*
X155250001Y-93560001D01*
X155250001Y-93560001D02*
X153560001Y-95250001D01*
X147250001Y-95250001D02*
X147199999Y-95199999D01*
X153560001Y-95250001D02*
X147250001Y-95250001D01*
X152840000Y-79500000D02*
X146840000Y-85500000D01*
X155000000Y-79500000D02*
X152840000Y-79500000D01*
D33*
G04 #@! TO.N,Net-(J1-Pad1)*
X109300000Y-98300000D02*
X119500000Y-108500000D01*
X109300000Y-91500000D02*
X109300000Y-98300000D01*
G04 #@! TO.N,Net-(J1-Pad2)*
X114500000Y-86500000D02*
X124500000Y-96500000D01*
X109300000Y-86500000D02*
X114500000Y-86500000D01*
X124500000Y-96500000D02*
X124500000Y-108500000D01*
X111096051Y-86500000D02*
X109300000Y-86500000D01*
X150199999Y-90199999D02*
X150500001Y-90500001D01*
X150500001Y-90500001D02*
X152000000Y-92000000D01*
X146211997Y-90199999D02*
X150199999Y-90199999D01*
X142511998Y-86500000D02*
X146211997Y-90199999D01*
X109300000Y-86500000D02*
X142511998Y-86500000D01*
D32*
G04 #@! TO.N,Net-(J2-Pad2)*
X124500000Y-72000000D02*
X128270000Y-68230000D01*
X128270000Y-65500000D02*
X128270000Y-68230000D01*
D33*
G04 #@! TO.N,Net-(J3-Pad2)*
X154049999Y-110150001D02*
X156500001Y-107699999D01*
X156500001Y-107699999D02*
X158000000Y-106200000D01*
X139564214Y-110150001D02*
X154049999Y-110150001D01*
X137914213Y-108500000D02*
X139564214Y-110150001D01*
X136500000Y-108500000D02*
X137914213Y-108500000D01*
G04 #@! TO.N,Net-(J3-Pad1)*
X144300000Y-104500000D02*
X145950000Y-106150000D01*
X131500000Y-108500000D02*
X131500000Y-106500000D01*
X133500000Y-104500000D02*
X144300000Y-104500000D01*
X131500000Y-106500000D02*
X133500000Y-104500000D01*
D32*
G04 #@! TO.N,Net-(R1-Pad2)*
X126490000Y-60500000D02*
X146580000Y-60500000D01*
X123190000Y-65500000D02*
X123190000Y-63800000D01*
X146580000Y-60500000D02*
X149500000Y-63420000D01*
X123190000Y-63800000D02*
X126490000Y-60500000D01*
X153540000Y-60018233D02*
X153540000Y-59000000D01*
X153540000Y-60369949D02*
X153540000Y-60018233D01*
X150489949Y-63420000D02*
X153540000Y-60369949D01*
X149500000Y-63420000D02*
X150489949Y-63420000D01*
G04 #@! TO.N,Net-(R2-Pad2)*
X136840000Y-62500000D02*
X146340000Y-72000000D01*
X127030000Y-62500000D02*
X136840000Y-62500000D01*
X125730000Y-65500000D02*
X125730000Y-63800000D01*
X125730000Y-63800000D02*
X127030000Y-62500000D01*
G04 #@! TD*
D34*
G04 #@! TO.N,GNDREF*
G36*
X165884023Y-82441676D02*
X165478267Y-82035920D01*
X164843522Y-81773000D01*
X164156478Y-81773000D01*
X163521733Y-82035920D01*
X163035920Y-82521733D01*
X162773000Y-83156478D01*
X162773000Y-83843522D01*
X163035920Y-84478267D01*
X163521733Y-84964080D01*
X164156478Y-85227000D01*
X164843522Y-85227000D01*
X165478267Y-84964080D01*
X165884829Y-84557518D01*
X165886452Y-88817818D01*
X158127000Y-88837300D01*
X158127000Y-87233912D01*
X158344643Y-87190620D01*
X158552041Y-87052041D01*
X158690620Y-86844643D01*
X158733912Y-86627000D01*
X158989002Y-86627000D01*
X159100000Y-86649079D01*
X159210998Y-86627000D01*
X159210999Y-86627000D01*
X159539733Y-86561611D01*
X159912522Y-86312522D01*
X159975400Y-86218418D01*
X162218418Y-83975400D01*
X162312522Y-83912522D01*
X162561611Y-83539733D01*
X162627000Y-83210999D01*
X162627000Y-83210998D01*
X162649079Y-83100000D01*
X162627000Y-82989002D01*
X162627000Y-66110997D01*
X162649079Y-65999999D01*
X162606462Y-65785750D01*
X162561611Y-65560267D01*
X162312522Y-65187478D01*
X162218421Y-65124602D01*
X160875400Y-63781582D01*
X160812522Y-63687478D01*
X160439733Y-63438389D01*
X160110999Y-63373000D01*
X160110998Y-63373000D01*
X160000000Y-63350921D01*
X159889002Y-63373000D01*
X153610997Y-63373000D01*
X153499999Y-63350921D01*
X153389001Y-63373000D01*
X153060267Y-63438389D01*
X153060266Y-63438390D01*
X153060265Y-63438390D01*
X153031198Y-63457812D01*
X152687478Y-63687478D01*
X152624602Y-63781579D01*
X149231159Y-67175023D01*
X148748315Y-67375024D01*
X148375024Y-67748315D01*
X148173000Y-68236043D01*
X148173000Y-68763957D01*
X148373000Y-69246799D01*
X148373001Y-75033181D01*
X146345465Y-77060717D01*
X145700000Y-77060717D01*
X145455357Y-77109380D01*
X145247959Y-77247959D01*
X145164409Y-77373000D01*
X143666819Y-77373000D01*
X137575400Y-71281582D01*
X137512522Y-71187478D01*
X137139733Y-70938389D01*
X136810999Y-70873000D01*
X136810998Y-70873000D01*
X136700000Y-70850921D01*
X136589002Y-70873000D01*
X128011856Y-70873000D01*
X127616297Y-70608697D01*
X127211990Y-70528275D01*
X128829057Y-68911208D01*
X128902281Y-68862281D01*
X129096116Y-68572188D01*
X129147000Y-68316375D01*
X129147000Y-68316371D01*
X129164180Y-68230001D01*
X129147000Y-68143631D01*
X129147000Y-67030245D01*
X129298809Y-66928809D01*
X129614204Y-66456788D01*
X129697000Y-66040543D01*
X129697000Y-64959456D01*
X129614204Y-64543212D01*
X129298808Y-64071191D01*
X128826787Y-63755796D01*
X128270000Y-63645044D01*
X127713212Y-63755796D01*
X127241191Y-64071192D01*
X127000000Y-64432159D01*
X126758808Y-64071191D01*
X126723000Y-64047265D01*
X127393266Y-63377000D01*
X136476736Y-63377000D01*
X144920663Y-71820929D01*
X144885044Y-72000000D01*
X144995796Y-72556788D01*
X145311191Y-73028809D01*
X145783212Y-73344204D01*
X146199456Y-73427000D01*
X146480544Y-73427000D01*
X146896788Y-73344204D01*
X147368809Y-73028809D01*
X147684204Y-72556788D01*
X147794956Y-72000000D01*
X147684204Y-71443212D01*
X147368809Y-70971191D01*
X146896788Y-70655796D01*
X146480544Y-70573000D01*
X146199456Y-70573000D01*
X146160929Y-70580663D01*
X137521210Y-61940946D01*
X137472281Y-61867719D01*
X137182188Y-61673884D01*
X136926375Y-61623000D01*
X136926370Y-61623000D01*
X136840000Y-61605820D01*
X136753630Y-61623000D01*
X127116370Y-61623000D01*
X127030000Y-61605820D01*
X126943630Y-61623000D01*
X126943625Y-61623000D01*
X126687812Y-61673884D01*
X126687810Y-61673885D01*
X126687811Y-61673885D01*
X126470943Y-61818791D01*
X126470940Y-61818794D01*
X126397719Y-61867719D01*
X126348794Y-61940940D01*
X125170943Y-63118792D01*
X125097720Y-63167719D01*
X125048793Y-63240943D01*
X125048792Y-63240944D01*
X124903885Y-63457812D01*
X124835820Y-63800000D01*
X124853001Y-63886375D01*
X124853001Y-63969755D01*
X124701191Y-64071192D01*
X124460000Y-64432159D01*
X124218808Y-64071191D01*
X124183000Y-64047265D01*
X126853266Y-61377000D01*
X146216736Y-61377000D01*
X148165706Y-63325972D01*
X148147003Y-63420000D01*
X148249994Y-63937770D01*
X148543287Y-64376713D01*
X148982230Y-64670006D01*
X149369304Y-64747000D01*
X149630696Y-64747000D01*
X150017770Y-64670006D01*
X150456713Y-64376713D01*
X150499806Y-64312219D01*
X150576319Y-64297000D01*
X150576324Y-64297000D01*
X150832137Y-64246116D01*
X151122230Y-64052281D01*
X151171159Y-63979054D01*
X154099057Y-61051157D01*
X154172281Y-61002230D01*
X154221208Y-60929006D01*
X154366115Y-60712139D01*
X154366115Y-60712138D01*
X154366116Y-60712137D01*
X154417000Y-60456324D01*
X154417000Y-60456320D01*
X154434180Y-60369950D01*
X154417000Y-60283580D01*
X154417000Y-60027945D01*
X154495171Y-59949774D01*
X155309831Y-59949774D01*
X155374131Y-60187611D01*
X155882342Y-60367333D01*
X156420644Y-60338892D01*
X156785869Y-60187611D01*
X156850169Y-59949774D01*
X156080000Y-59179605D01*
X155309831Y-59949774D01*
X154495171Y-59949774D01*
X154681931Y-59763014D01*
X154798995Y-59480396D01*
X154892389Y-59705869D01*
X155130226Y-59770169D01*
X155900395Y-59000000D01*
X156259605Y-59000000D01*
X157029774Y-59770169D01*
X157267611Y-59705869D01*
X157447333Y-59197658D01*
X157418892Y-58659356D01*
X157267611Y-58294131D01*
X157029774Y-58229831D01*
X156259605Y-59000000D01*
X155900395Y-59000000D01*
X155130226Y-58229831D01*
X154892389Y-58294131D01*
X154806363Y-58537391D01*
X154681931Y-58236986D01*
X154495171Y-58050226D01*
X155309831Y-58050226D01*
X156080000Y-58820395D01*
X156850169Y-58050226D01*
X156785869Y-57812389D01*
X156277658Y-57632667D01*
X155739356Y-57661108D01*
X155374131Y-57812389D01*
X155309831Y-58050226D01*
X154495171Y-58050226D01*
X154303014Y-57858069D01*
X153807935Y-57653000D01*
X153272065Y-57653000D01*
X152776986Y-57858069D01*
X152398069Y-58236986D01*
X152270000Y-58546171D01*
X152141931Y-58236986D01*
X151763014Y-57858069D01*
X151267935Y-57653000D01*
X150732065Y-57653000D01*
X150236986Y-57858069D01*
X149858069Y-58236986D01*
X149653000Y-58732065D01*
X149653000Y-59267935D01*
X149858069Y-59763014D01*
X150236986Y-60141931D01*
X150732065Y-60347000D01*
X151267935Y-60347000D01*
X151763014Y-60141931D01*
X152141931Y-59763014D01*
X152270000Y-59453829D01*
X152398069Y-59763014D01*
X152652370Y-60017315D01*
X150306660Y-62363025D01*
X150017770Y-62169994D01*
X149630696Y-62093000D01*
X149413265Y-62093000D01*
X147261210Y-59940946D01*
X147212281Y-59867719D01*
X146922188Y-59673884D01*
X146666375Y-59623000D01*
X146666370Y-59623000D01*
X146580000Y-59605820D01*
X146493630Y-59623000D01*
X128828590Y-59623000D01*
X129298809Y-59308809D01*
X129614204Y-58836788D01*
X129630075Y-58757000D01*
X131305734Y-58757000D01*
X131716152Y-58927000D01*
X132283848Y-58927000D01*
X132808331Y-58709753D01*
X133010339Y-58507745D01*
X133671861Y-58507745D01*
X133745995Y-58753864D01*
X134283223Y-58946965D01*
X134853454Y-58919778D01*
X135254005Y-58753864D01*
X135328139Y-58507745D01*
X134500000Y-57679605D01*
X133671861Y-58507745D01*
X133010339Y-58507745D01*
X133209753Y-58308331D01*
X133239196Y-58237250D01*
X133246136Y-58254005D01*
X133492255Y-58328139D01*
X134320395Y-57500000D01*
X134679605Y-57500000D01*
X135507745Y-58328139D01*
X135753864Y-58254005D01*
X135946965Y-57716777D01*
X135919778Y-57146546D01*
X135753864Y-56745995D01*
X135507745Y-56671861D01*
X134679605Y-57500000D01*
X134320395Y-57500000D01*
X133492255Y-56671861D01*
X133246136Y-56745995D01*
X133239687Y-56763937D01*
X133209753Y-56691669D01*
X133010339Y-56492255D01*
X133671861Y-56492255D01*
X134500000Y-57320395D01*
X135328139Y-56492255D01*
X135254005Y-56246136D01*
X134716777Y-56053035D01*
X134146546Y-56080222D01*
X133745995Y-56246136D01*
X133671861Y-56492255D01*
X133010339Y-56492255D01*
X132808331Y-56290247D01*
X132283848Y-56073000D01*
X131716152Y-56073000D01*
X131191669Y-56290247D01*
X130790247Y-56691669D01*
X130661290Y-57003000D01*
X129630075Y-57003000D01*
X129614204Y-56923212D01*
X129298808Y-56451191D01*
X128826787Y-56135796D01*
X128270000Y-56025044D01*
X127713212Y-56135796D01*
X127241191Y-56451192D01*
X127002756Y-56808034D01*
X126654896Y-56375500D01*
X126161819Y-56105633D01*
X126079039Y-56088096D01*
X125857000Y-56210085D01*
X125857000Y-57753000D01*
X125877000Y-57753000D01*
X125877000Y-58007000D01*
X125857000Y-58007000D01*
X125857000Y-59549915D01*
X126079039Y-59671904D01*
X126161819Y-59654367D01*
X126654896Y-59384500D01*
X127002756Y-58951966D01*
X127241192Y-59308809D01*
X127711411Y-59623000D01*
X126576370Y-59623000D01*
X126490000Y-59605820D01*
X126403630Y-59623000D01*
X126403625Y-59623000D01*
X126147812Y-59673884D01*
X126147810Y-59673885D01*
X126147811Y-59673885D01*
X125930943Y-59818791D01*
X125930940Y-59818794D01*
X125857719Y-59867719D01*
X125808794Y-59940940D01*
X122630944Y-63118792D01*
X122557720Y-63167719D01*
X122508793Y-63240943D01*
X122508792Y-63240944D01*
X122363885Y-63457812D01*
X122295820Y-63800000D01*
X122313001Y-63886375D01*
X122313001Y-63969755D01*
X122161191Y-64071192D01*
X122085000Y-64185220D01*
X122085000Y-64173691D01*
X121988327Y-63940302D01*
X121809699Y-63761673D01*
X121576310Y-63665000D01*
X120935750Y-63665000D01*
X120777000Y-63823750D01*
X120777000Y-65373000D01*
X120797000Y-65373000D01*
X120797000Y-65627000D01*
X120777000Y-65627000D01*
X120777000Y-67176250D01*
X120935750Y-67335000D01*
X121576310Y-67335000D01*
X121809699Y-67238327D01*
X121988327Y-67059698D01*
X122085000Y-66826309D01*
X122085000Y-66814780D01*
X122161192Y-66928809D01*
X122633213Y-67244204D01*
X123190000Y-67354956D01*
X123746788Y-67244204D01*
X124218809Y-66928809D01*
X124460000Y-66567842D01*
X124701192Y-66928809D01*
X125173213Y-67244204D01*
X125730000Y-67354956D01*
X126286788Y-67244204D01*
X126758809Y-66928809D01*
X127000000Y-66567842D01*
X127241192Y-66928809D01*
X127393001Y-67030244D01*
X127393001Y-67866734D01*
X124721594Y-70538142D01*
X124645471Y-70523000D01*
X124354529Y-70523000D01*
X123923703Y-70608697D01*
X123435142Y-70935142D01*
X123418585Y-70959921D01*
X123348327Y-70790302D01*
X123169699Y-70611673D01*
X122936310Y-70515000D01*
X122245750Y-70515000D01*
X122087000Y-70673750D01*
X122087000Y-71873000D01*
X122107000Y-71873000D01*
X122107000Y-72127000D01*
X122087000Y-72127000D01*
X122087000Y-73326250D01*
X122245750Y-73485000D01*
X122936310Y-73485000D01*
X123169699Y-73388327D01*
X123348327Y-73209698D01*
X123418585Y-73040079D01*
X123435142Y-73064858D01*
X123923703Y-73391303D01*
X124354529Y-73477000D01*
X124645471Y-73477000D01*
X125076297Y-73391303D01*
X125564858Y-73064858D01*
X125770000Y-72757840D01*
X125818234Y-72830028D01*
X124275263Y-74373000D01*
X119966818Y-74373000D01*
X117879568Y-72285750D01*
X120475000Y-72285750D01*
X120475000Y-72976309D01*
X120571673Y-73209698D01*
X120750301Y-73388327D01*
X120983690Y-73485000D01*
X121674250Y-73485000D01*
X121833000Y-73326250D01*
X121833000Y-72127000D01*
X120633750Y-72127000D01*
X120475000Y-72285750D01*
X117879568Y-72285750D01*
X117627000Y-72033182D01*
X117627000Y-71023691D01*
X120475000Y-71023691D01*
X120475000Y-71714250D01*
X120633750Y-71873000D01*
X121833000Y-71873000D01*
X121833000Y-70673750D01*
X121674250Y-70515000D01*
X120983690Y-70515000D01*
X120750301Y-70611673D01*
X120571673Y-70790302D01*
X120475000Y-71023691D01*
X117627000Y-71023691D01*
X117627000Y-65785750D01*
X119215000Y-65785750D01*
X119215000Y-66826309D01*
X119311673Y-67059698D01*
X119490301Y-67238327D01*
X119723690Y-67335000D01*
X120364250Y-67335000D01*
X120523000Y-67176250D01*
X120523000Y-65627000D01*
X119373750Y-65627000D01*
X119215000Y-65785750D01*
X117627000Y-65785750D01*
X117627000Y-64173691D01*
X119215000Y-64173691D01*
X119215000Y-65214250D01*
X119373750Y-65373000D01*
X120523000Y-65373000D01*
X120523000Y-63823750D01*
X120364250Y-63665000D01*
X119723690Y-63665000D01*
X119490301Y-63761673D01*
X119311673Y-63940302D01*
X119215000Y-64173691D01*
X117627000Y-64173691D01*
X117627000Y-60696818D01*
X119316819Y-59007000D01*
X119419529Y-59007000D01*
X119621192Y-59308809D01*
X120093213Y-59624204D01*
X120650000Y-59734956D01*
X121206788Y-59624204D01*
X121678809Y-59308809D01*
X121920000Y-58947842D01*
X122161192Y-59308809D01*
X122633213Y-59624204D01*
X123190000Y-59734956D01*
X123746788Y-59624204D01*
X124218809Y-59308809D01*
X124457244Y-58951966D01*
X124805104Y-59384500D01*
X125298181Y-59654367D01*
X125380961Y-59671904D01*
X125603000Y-59549915D01*
X125603000Y-58007000D01*
X125583000Y-58007000D01*
X125583000Y-57753000D01*
X125603000Y-57753000D01*
X125603000Y-56210085D01*
X125380961Y-56088096D01*
X125298181Y-56105633D01*
X124805104Y-56375500D01*
X124457244Y-56808034D01*
X124218808Y-56451191D01*
X123746787Y-56135796D01*
X123190000Y-56025044D01*
X122633212Y-56135796D01*
X122161191Y-56451192D01*
X121920000Y-56812159D01*
X121678808Y-56451191D01*
X121206787Y-56135796D01*
X120650000Y-56025044D01*
X120093212Y-56135796D01*
X119621191Y-56451192D01*
X119419529Y-56753000D01*
X118960998Y-56753000D01*
X118850000Y-56730921D01*
X118739002Y-56753000D01*
X118739001Y-56753000D01*
X118410267Y-56818389D01*
X118410266Y-56818390D01*
X118410265Y-56818390D01*
X118336439Y-56867719D01*
X118037478Y-57067478D01*
X117974602Y-57161580D01*
X115781582Y-59354600D01*
X115687478Y-59417478D01*
X115549349Y-59624204D01*
X115451819Y-59770169D01*
X115438389Y-59790268D01*
X115391149Y-60027761D01*
X115350921Y-60230000D01*
X115373000Y-60340998D01*
X115373001Y-72388997D01*
X115350921Y-72500000D01*
X115438390Y-72939734D01*
X115563517Y-73127000D01*
X115687479Y-73312522D01*
X115781580Y-73375398D01*
X118624600Y-76218418D01*
X118687478Y-76312522D01*
X119060267Y-76561611D01*
X119389001Y-76627000D01*
X119389002Y-76627000D01*
X119500000Y-76649079D01*
X119610998Y-76627000D01*
X124631083Y-76627000D01*
X124742081Y-76649079D01*
X124853079Y-76627000D01*
X124853080Y-76627000D01*
X125181814Y-76561611D01*
X125554603Y-76312522D01*
X125617481Y-76218418D01*
X127758421Y-74077479D01*
X127852522Y-74014603D01*
X128101611Y-73641814D01*
X128167000Y-73313080D01*
X128167000Y-73313079D01*
X128189079Y-73202082D01*
X128174144Y-73127000D01*
X136233182Y-73127000D01*
X142324602Y-79218421D01*
X142387478Y-79312522D01*
X142526726Y-79405564D01*
X142760265Y-79561610D01*
X142760266Y-79561610D01*
X142760267Y-79561611D01*
X143089001Y-79627000D01*
X143199999Y-79649079D01*
X143310997Y-79627000D01*
X145164409Y-79627000D01*
X145247959Y-79752041D01*
X145455357Y-79890620D01*
X145700000Y-79939283D01*
X147300000Y-79939283D01*
X147544643Y-79890620D01*
X147752041Y-79752041D01*
X147890620Y-79544643D01*
X147897959Y-79507745D01*
X149171861Y-79507745D01*
X149245995Y-79753864D01*
X149783223Y-79946965D01*
X150353454Y-79919778D01*
X150754005Y-79753864D01*
X150828139Y-79507745D01*
X150000000Y-78679605D01*
X149171861Y-79507745D01*
X147897959Y-79507745D01*
X147939283Y-79300000D01*
X147939283Y-78654535D01*
X148689076Y-77904742D01*
X148553035Y-78283223D01*
X148580222Y-78853454D01*
X148746136Y-79254005D01*
X148992255Y-79328139D01*
X149820395Y-78500000D01*
X150179605Y-78500000D01*
X151007745Y-79328139D01*
X151253864Y-79254005D01*
X151446965Y-78716777D01*
X151419778Y-78146546D01*
X151253864Y-77745995D01*
X151007745Y-77671861D01*
X150179605Y-78500000D01*
X149820395Y-78500000D01*
X149806252Y-78485858D01*
X149985858Y-78306252D01*
X150000000Y-78320395D01*
X150828139Y-77492255D01*
X150754005Y-77246136D01*
X150216777Y-77053035D01*
X149646546Y-77080222D01*
X149419586Y-77174232D01*
X150218418Y-76375400D01*
X150312522Y-76312522D01*
X150561611Y-75939733D01*
X150627000Y-75610999D01*
X150627000Y-75610998D01*
X150649079Y-75500000D01*
X150627000Y-75389002D01*
X150627000Y-69246799D01*
X150824977Y-68768841D01*
X153966819Y-65627000D01*
X159533182Y-65627000D01*
X160373000Y-66466819D01*
X160373001Y-82633181D01*
X158717200Y-84288982D01*
X158690620Y-84155357D01*
X158552041Y-83947959D01*
X158344643Y-83809380D01*
X158100000Y-83760717D01*
X155900000Y-83760717D01*
X155655357Y-83809380D01*
X155447959Y-83947959D01*
X155309380Y-84155357D01*
X155260717Y-84400000D01*
X155260717Y-86600000D01*
X155309380Y-86844643D01*
X155447959Y-87052041D01*
X155655357Y-87190620D01*
X155873000Y-87233912D01*
X155873001Y-88842959D01*
X154895681Y-88845413D01*
X150991212Y-84940946D01*
X150942283Y-84867719D01*
X150652190Y-84673884D01*
X150396377Y-84623000D01*
X150396372Y-84623000D01*
X150310002Y-84605820D01*
X150223632Y-84623000D01*
X148957264Y-84623000D01*
X153203265Y-80377000D01*
X153810717Y-80377000D01*
X153810717Y-80800000D01*
X153859380Y-81044643D01*
X153997959Y-81252041D01*
X154205357Y-81390620D01*
X154450000Y-81439283D01*
X155550000Y-81439283D01*
X155794643Y-81390620D01*
X156002041Y-81252041D01*
X156140620Y-81044643D01*
X156189283Y-80800000D01*
X156189283Y-80185750D01*
X156355000Y-80185750D01*
X156355000Y-80926310D01*
X156451673Y-81159699D01*
X156630302Y-81338327D01*
X156863691Y-81435000D01*
X157254250Y-81435000D01*
X157413000Y-81276250D01*
X157413000Y-80027000D01*
X157667000Y-80027000D01*
X157667000Y-81276250D01*
X157825750Y-81435000D01*
X158216309Y-81435000D01*
X158449698Y-81338327D01*
X158628327Y-81159699D01*
X158725000Y-80926310D01*
X158725000Y-80185750D01*
X158566250Y-80027000D01*
X157667000Y-80027000D01*
X157413000Y-80027000D01*
X156513750Y-80027000D01*
X156355000Y-80185750D01*
X156189283Y-80185750D01*
X156189283Y-79369283D01*
X156355000Y-79369283D01*
X156355000Y-79614250D01*
X156513750Y-79773000D01*
X157413000Y-79773000D01*
X157413000Y-78687679D01*
X157445607Y-78523750D01*
X157667000Y-78523750D01*
X157667000Y-79773000D01*
X158566250Y-79773000D01*
X158725000Y-79614250D01*
X158725000Y-78873690D01*
X158628327Y-78640301D01*
X158449698Y-78461673D01*
X158216309Y-78365000D01*
X157825750Y-78365000D01*
X157667000Y-78523750D01*
X157445607Y-78523750D01*
X157459283Y-78455000D01*
X157459283Y-77205000D01*
X157389687Y-76855119D01*
X157191496Y-76558504D01*
X157147000Y-76528773D01*
X157147000Y-73741623D01*
X157326116Y-73473558D01*
X157377000Y-73217745D01*
X157377000Y-73217741D01*
X157394180Y-73131371D01*
X157392941Y-73125143D01*
X157709753Y-72808331D01*
X157927000Y-72283848D01*
X157927000Y-71716152D01*
X157709753Y-71191669D01*
X157308331Y-70790247D01*
X156783848Y-70573000D01*
X156377000Y-70573000D01*
X156377000Y-68669000D01*
X156453291Y-68618023D01*
X156831036Y-68747807D01*
X157321413Y-68717482D01*
X157633617Y-68588164D01*
X157683130Y-68362735D01*
X157000000Y-67679605D01*
X156985858Y-67693748D01*
X156806253Y-67514143D01*
X156820395Y-67500000D01*
X157179605Y-67500000D01*
X157862735Y-68183130D01*
X158088164Y-68133617D01*
X158247807Y-67668964D01*
X158217482Y-67178587D01*
X158088164Y-66866383D01*
X157862735Y-66816870D01*
X157179605Y-67500000D01*
X156820395Y-67500000D01*
X156806253Y-67485858D01*
X156985858Y-67306253D01*
X157000000Y-67320395D01*
X157683130Y-66637265D01*
X157633617Y-66411836D01*
X157168964Y-66252193D01*
X156678587Y-66282518D01*
X156447620Y-66378187D01*
X156344643Y-66309380D01*
X156100000Y-66260717D01*
X154900000Y-66260717D01*
X154655357Y-66309380D01*
X154447959Y-66447959D01*
X154309380Y-66655357D01*
X154260717Y-66900000D01*
X154260717Y-68100000D01*
X154309380Y-68344643D01*
X154447959Y-68552041D01*
X154623000Y-68669000D01*
X154623001Y-70913625D01*
X154605820Y-71000000D01*
X154623001Y-71086375D01*
X154673885Y-71342188D01*
X154867720Y-71632281D01*
X154940944Y-71681208D01*
X155073000Y-71813264D01*
X155073000Y-72283848D01*
X155290247Y-72808331D01*
X155466801Y-72984885D01*
X155443884Y-73019183D01*
X155393000Y-73274996D01*
X155393000Y-73275000D01*
X155375820Y-73361370D01*
X155393000Y-73447740D01*
X155393001Y-76528772D01*
X155348504Y-76558504D01*
X155150313Y-76855119D01*
X155080717Y-77205000D01*
X155080717Y-78360717D01*
X154450000Y-78360717D01*
X154205357Y-78409380D01*
X153997959Y-78547959D01*
X153947818Y-78623000D01*
X152926369Y-78623000D01*
X152839999Y-78605820D01*
X152753629Y-78623000D01*
X152753625Y-78623000D01*
X152497812Y-78673884D01*
X152497811Y-78673885D01*
X152497810Y-78673885D01*
X152301762Y-78804881D01*
X152207719Y-78867719D01*
X152158792Y-78940943D01*
X147274201Y-83825535D01*
X147010091Y-83773000D01*
X146669909Y-83773000D01*
X146166158Y-83873202D01*
X145594903Y-84254903D01*
X145213202Y-84826158D01*
X145103717Y-85376580D01*
X144552521Y-84825385D01*
X144405959Y-84606039D01*
X143537002Y-84025421D01*
X142770730Y-83873000D01*
X142770729Y-83873000D01*
X142511998Y-83821535D01*
X142253267Y-83873000D01*
X138552606Y-83873000D01*
X137429607Y-82750001D01*
X137531829Y-82647779D01*
X137663520Y-82942657D01*
X138371036Y-83214261D01*
X139128632Y-83194436D01*
X139736480Y-82942657D01*
X139868172Y-82647777D01*
X138700000Y-81479605D01*
X138685858Y-81493748D01*
X138506253Y-81314143D01*
X138520395Y-81300000D01*
X138879605Y-81300000D01*
X140047777Y-82468172D01*
X140342657Y-82336480D01*
X140614261Y-81628964D01*
X140594436Y-80871368D01*
X140342657Y-80263520D01*
X140047777Y-80131828D01*
X138879605Y-81300000D01*
X138520395Y-81300000D01*
X137352223Y-80131828D01*
X137057343Y-80263520D01*
X136785739Y-80971036D01*
X136805564Y-81728632D01*
X137057343Y-82336480D01*
X137352221Y-82468171D01*
X137249999Y-82570393D01*
X137089803Y-82410197D01*
X137048601Y-82382667D01*
X137000000Y-82373000D01*
X103815347Y-82373000D01*
X103478267Y-82035920D01*
X102843522Y-81773000D01*
X102156478Y-81773000D01*
X101521733Y-82035920D01*
X101184653Y-82373000D01*
X101127007Y-82373000D01*
X101127132Y-79952223D01*
X137531828Y-79952223D01*
X138700000Y-81120395D01*
X139868172Y-79952223D01*
X139736480Y-79657343D01*
X139028964Y-79385739D01*
X138271368Y-79405564D01*
X137663520Y-79657343D01*
X137531828Y-79952223D01*
X101127132Y-79952223D01*
X101128490Y-53702000D01*
X165873077Y-53702000D01*
X165884023Y-82441676D01*
X165884023Y-82441676D01*
G37*
X165884023Y-82441676D02*
X165478267Y-82035920D01*
X164843522Y-81773000D01*
X164156478Y-81773000D01*
X163521733Y-82035920D01*
X163035920Y-82521733D01*
X162773000Y-83156478D01*
X162773000Y-83843522D01*
X163035920Y-84478267D01*
X163521733Y-84964080D01*
X164156478Y-85227000D01*
X164843522Y-85227000D01*
X165478267Y-84964080D01*
X165884829Y-84557518D01*
X165886452Y-88817818D01*
X158127000Y-88837300D01*
X158127000Y-87233912D01*
X158344643Y-87190620D01*
X158552041Y-87052041D01*
X158690620Y-86844643D01*
X158733912Y-86627000D01*
X158989002Y-86627000D01*
X159100000Y-86649079D01*
X159210998Y-86627000D01*
X159210999Y-86627000D01*
X159539733Y-86561611D01*
X159912522Y-86312522D01*
X159975400Y-86218418D01*
X162218418Y-83975400D01*
X162312522Y-83912522D01*
X162561611Y-83539733D01*
X162627000Y-83210999D01*
X162627000Y-83210998D01*
X162649079Y-83100000D01*
X162627000Y-82989002D01*
X162627000Y-66110997D01*
X162649079Y-65999999D01*
X162606462Y-65785750D01*
X162561611Y-65560267D01*
X162312522Y-65187478D01*
X162218421Y-65124602D01*
X160875400Y-63781582D01*
X160812522Y-63687478D01*
X160439733Y-63438389D01*
X160110999Y-63373000D01*
X160110998Y-63373000D01*
X160000000Y-63350921D01*
X159889002Y-63373000D01*
X153610997Y-63373000D01*
X153499999Y-63350921D01*
X153389001Y-63373000D01*
X153060267Y-63438389D01*
X153060266Y-63438390D01*
X153060265Y-63438390D01*
X153031198Y-63457812D01*
X152687478Y-63687478D01*
X152624602Y-63781579D01*
X149231159Y-67175023D01*
X148748315Y-67375024D01*
X148375024Y-67748315D01*
X148173000Y-68236043D01*
X148173000Y-68763957D01*
X148373000Y-69246799D01*
X148373001Y-75033181D01*
X146345465Y-77060717D01*
X145700000Y-77060717D01*
X145455357Y-77109380D01*
X145247959Y-77247959D01*
X145164409Y-77373000D01*
X143666819Y-77373000D01*
X137575400Y-71281582D01*
X137512522Y-71187478D01*
X137139733Y-70938389D01*
X136810999Y-70873000D01*
X136810998Y-70873000D01*
X136700000Y-70850921D01*
X136589002Y-70873000D01*
X128011856Y-70873000D01*
X127616297Y-70608697D01*
X127211990Y-70528275D01*
X128829057Y-68911208D01*
X128902281Y-68862281D01*
X129096116Y-68572188D01*
X129147000Y-68316375D01*
X129147000Y-68316371D01*
X129164180Y-68230001D01*
X129147000Y-68143631D01*
X129147000Y-67030245D01*
X129298809Y-66928809D01*
X129614204Y-66456788D01*
X129697000Y-66040543D01*
X129697000Y-64959456D01*
X129614204Y-64543212D01*
X129298808Y-64071191D01*
X128826787Y-63755796D01*
X128270000Y-63645044D01*
X127713212Y-63755796D01*
X127241191Y-64071192D01*
X127000000Y-64432159D01*
X126758808Y-64071191D01*
X126723000Y-64047265D01*
X127393266Y-63377000D01*
X136476736Y-63377000D01*
X144920663Y-71820929D01*
X144885044Y-72000000D01*
X144995796Y-72556788D01*
X145311191Y-73028809D01*
X145783212Y-73344204D01*
X146199456Y-73427000D01*
X146480544Y-73427000D01*
X146896788Y-73344204D01*
X147368809Y-73028809D01*
X147684204Y-72556788D01*
X147794956Y-72000000D01*
X147684204Y-71443212D01*
X147368809Y-70971191D01*
X146896788Y-70655796D01*
X146480544Y-70573000D01*
X146199456Y-70573000D01*
X146160929Y-70580663D01*
X137521210Y-61940946D01*
X137472281Y-61867719D01*
X137182188Y-61673884D01*
X136926375Y-61623000D01*
X136926370Y-61623000D01*
X136840000Y-61605820D01*
X136753630Y-61623000D01*
X127116370Y-61623000D01*
X127030000Y-61605820D01*
X126943630Y-61623000D01*
X126943625Y-61623000D01*
X126687812Y-61673884D01*
X126687810Y-61673885D01*
X126687811Y-61673885D01*
X126470943Y-61818791D01*
X126470940Y-61818794D01*
X126397719Y-61867719D01*
X126348794Y-61940940D01*
X125170943Y-63118792D01*
X125097720Y-63167719D01*
X125048793Y-63240943D01*
X125048792Y-63240944D01*
X124903885Y-63457812D01*
X124835820Y-63800000D01*
X124853001Y-63886375D01*
X124853001Y-63969755D01*
X124701191Y-64071192D01*
X124460000Y-64432159D01*
X124218808Y-64071191D01*
X124183000Y-64047265D01*
X126853266Y-61377000D01*
X146216736Y-61377000D01*
X148165706Y-63325972D01*
X148147003Y-63420000D01*
X148249994Y-63937770D01*
X148543287Y-64376713D01*
X148982230Y-64670006D01*
X149369304Y-64747000D01*
X149630696Y-64747000D01*
X150017770Y-64670006D01*
X150456713Y-64376713D01*
X150499806Y-64312219D01*
X150576319Y-64297000D01*
X150576324Y-64297000D01*
X150832137Y-64246116D01*
X151122230Y-64052281D01*
X151171159Y-63979054D01*
X154099057Y-61051157D01*
X154172281Y-61002230D01*
X154221208Y-60929006D01*
X154366115Y-60712139D01*
X154366115Y-60712138D01*
X154366116Y-60712137D01*
X154417000Y-60456324D01*
X154417000Y-60456320D01*
X154434180Y-60369950D01*
X154417000Y-60283580D01*
X154417000Y-60027945D01*
X154495171Y-59949774D01*
X155309831Y-59949774D01*
X155374131Y-60187611D01*
X155882342Y-60367333D01*
X156420644Y-60338892D01*
X156785869Y-60187611D01*
X156850169Y-59949774D01*
X156080000Y-59179605D01*
X155309831Y-59949774D01*
X154495171Y-59949774D01*
X154681931Y-59763014D01*
X154798995Y-59480396D01*
X154892389Y-59705869D01*
X155130226Y-59770169D01*
X155900395Y-59000000D01*
X156259605Y-59000000D01*
X157029774Y-59770169D01*
X157267611Y-59705869D01*
X157447333Y-59197658D01*
X157418892Y-58659356D01*
X157267611Y-58294131D01*
X157029774Y-58229831D01*
X156259605Y-59000000D01*
X155900395Y-59000000D01*
X155130226Y-58229831D01*
X154892389Y-58294131D01*
X154806363Y-58537391D01*
X154681931Y-58236986D01*
X154495171Y-58050226D01*
X155309831Y-58050226D01*
X156080000Y-58820395D01*
X156850169Y-58050226D01*
X156785869Y-57812389D01*
X156277658Y-57632667D01*
X155739356Y-57661108D01*
X155374131Y-57812389D01*
X155309831Y-58050226D01*
X154495171Y-58050226D01*
X154303014Y-57858069D01*
X153807935Y-57653000D01*
X153272065Y-57653000D01*
X152776986Y-57858069D01*
X152398069Y-58236986D01*
X152270000Y-58546171D01*
X152141931Y-58236986D01*
X151763014Y-57858069D01*
X151267935Y-57653000D01*
X150732065Y-57653000D01*
X150236986Y-57858069D01*
X149858069Y-58236986D01*
X149653000Y-58732065D01*
X149653000Y-59267935D01*
X149858069Y-59763014D01*
X150236986Y-60141931D01*
X150732065Y-60347000D01*
X151267935Y-60347000D01*
X151763014Y-60141931D01*
X152141931Y-59763014D01*
X152270000Y-59453829D01*
X152398069Y-59763014D01*
X152652370Y-60017315D01*
X150306660Y-62363025D01*
X150017770Y-62169994D01*
X149630696Y-62093000D01*
X149413265Y-62093000D01*
X147261210Y-59940946D01*
X147212281Y-59867719D01*
X146922188Y-59673884D01*
X146666375Y-59623000D01*
X146666370Y-59623000D01*
X146580000Y-59605820D01*
X146493630Y-59623000D01*
X128828590Y-59623000D01*
X129298809Y-59308809D01*
X129614204Y-58836788D01*
X129630075Y-58757000D01*
X131305734Y-58757000D01*
X131716152Y-58927000D01*
X132283848Y-58927000D01*
X132808331Y-58709753D01*
X133010339Y-58507745D01*
X133671861Y-58507745D01*
X133745995Y-58753864D01*
X134283223Y-58946965D01*
X134853454Y-58919778D01*
X135254005Y-58753864D01*
X135328139Y-58507745D01*
X134500000Y-57679605D01*
X133671861Y-58507745D01*
X133010339Y-58507745D01*
X133209753Y-58308331D01*
X133239196Y-58237250D01*
X133246136Y-58254005D01*
X133492255Y-58328139D01*
X134320395Y-57500000D01*
X134679605Y-57500000D01*
X135507745Y-58328139D01*
X135753864Y-58254005D01*
X135946965Y-57716777D01*
X135919778Y-57146546D01*
X135753864Y-56745995D01*
X135507745Y-56671861D01*
X134679605Y-57500000D01*
X134320395Y-57500000D01*
X133492255Y-56671861D01*
X133246136Y-56745995D01*
X133239687Y-56763937D01*
X133209753Y-56691669D01*
X133010339Y-56492255D01*
X133671861Y-56492255D01*
X134500000Y-57320395D01*
X135328139Y-56492255D01*
X135254005Y-56246136D01*
X134716777Y-56053035D01*
X134146546Y-56080222D01*
X133745995Y-56246136D01*
X133671861Y-56492255D01*
X133010339Y-56492255D01*
X132808331Y-56290247D01*
X132283848Y-56073000D01*
X131716152Y-56073000D01*
X131191669Y-56290247D01*
X130790247Y-56691669D01*
X130661290Y-57003000D01*
X129630075Y-57003000D01*
X129614204Y-56923212D01*
X129298808Y-56451191D01*
X128826787Y-56135796D01*
X128270000Y-56025044D01*
X127713212Y-56135796D01*
X127241191Y-56451192D01*
X127002756Y-56808034D01*
X126654896Y-56375500D01*
X126161819Y-56105633D01*
X126079039Y-56088096D01*
X125857000Y-56210085D01*
X125857000Y-57753000D01*
X125877000Y-57753000D01*
X125877000Y-58007000D01*
X125857000Y-58007000D01*
X125857000Y-59549915D01*
X126079039Y-59671904D01*
X126161819Y-59654367D01*
X126654896Y-59384500D01*
X127002756Y-58951966D01*
X127241192Y-59308809D01*
X127711411Y-59623000D01*
X126576370Y-59623000D01*
X126490000Y-59605820D01*
X126403630Y-59623000D01*
X126403625Y-59623000D01*
X126147812Y-59673884D01*
X126147810Y-59673885D01*
X126147811Y-59673885D01*
X125930943Y-59818791D01*
X125930940Y-59818794D01*
X125857719Y-59867719D01*
X125808794Y-59940940D01*
X122630944Y-63118792D01*
X122557720Y-63167719D01*
X122508793Y-63240943D01*
X122508792Y-63240944D01*
X122363885Y-63457812D01*
X122295820Y-63800000D01*
X122313001Y-63886375D01*
X122313001Y-63969755D01*
X122161191Y-64071192D01*
X122085000Y-64185220D01*
X122085000Y-64173691D01*
X121988327Y-63940302D01*
X121809699Y-63761673D01*
X121576310Y-63665000D01*
X120935750Y-63665000D01*
X120777000Y-63823750D01*
X120777000Y-65373000D01*
X120797000Y-65373000D01*
X120797000Y-65627000D01*
X120777000Y-65627000D01*
X120777000Y-67176250D01*
X120935750Y-67335000D01*
X121576310Y-67335000D01*
X121809699Y-67238327D01*
X121988327Y-67059698D01*
X122085000Y-66826309D01*
X122085000Y-66814780D01*
X122161192Y-66928809D01*
X122633213Y-67244204D01*
X123190000Y-67354956D01*
X123746788Y-67244204D01*
X124218809Y-66928809D01*
X124460000Y-66567842D01*
X124701192Y-66928809D01*
X125173213Y-67244204D01*
X125730000Y-67354956D01*
X126286788Y-67244204D01*
X126758809Y-66928809D01*
X127000000Y-66567842D01*
X127241192Y-66928809D01*
X127393001Y-67030244D01*
X127393001Y-67866734D01*
X124721594Y-70538142D01*
X124645471Y-70523000D01*
X124354529Y-70523000D01*
X123923703Y-70608697D01*
X123435142Y-70935142D01*
X123418585Y-70959921D01*
X123348327Y-70790302D01*
X123169699Y-70611673D01*
X122936310Y-70515000D01*
X122245750Y-70515000D01*
X122087000Y-70673750D01*
X122087000Y-71873000D01*
X122107000Y-71873000D01*
X122107000Y-72127000D01*
X122087000Y-72127000D01*
X122087000Y-73326250D01*
X122245750Y-73485000D01*
X122936310Y-73485000D01*
X123169699Y-73388327D01*
X123348327Y-73209698D01*
X123418585Y-73040079D01*
X123435142Y-73064858D01*
X123923703Y-73391303D01*
X124354529Y-73477000D01*
X124645471Y-73477000D01*
X125076297Y-73391303D01*
X125564858Y-73064858D01*
X125770000Y-72757840D01*
X125818234Y-72830028D01*
X124275263Y-74373000D01*
X119966818Y-74373000D01*
X117879568Y-72285750D01*
X120475000Y-72285750D01*
X120475000Y-72976309D01*
X120571673Y-73209698D01*
X120750301Y-73388327D01*
X120983690Y-73485000D01*
X121674250Y-73485000D01*
X121833000Y-73326250D01*
X121833000Y-72127000D01*
X120633750Y-72127000D01*
X120475000Y-72285750D01*
X117879568Y-72285750D01*
X117627000Y-72033182D01*
X117627000Y-71023691D01*
X120475000Y-71023691D01*
X120475000Y-71714250D01*
X120633750Y-71873000D01*
X121833000Y-71873000D01*
X121833000Y-70673750D01*
X121674250Y-70515000D01*
X120983690Y-70515000D01*
X120750301Y-70611673D01*
X120571673Y-70790302D01*
X120475000Y-71023691D01*
X117627000Y-71023691D01*
X117627000Y-65785750D01*
X119215000Y-65785750D01*
X119215000Y-66826309D01*
X119311673Y-67059698D01*
X119490301Y-67238327D01*
X119723690Y-67335000D01*
X120364250Y-67335000D01*
X120523000Y-67176250D01*
X120523000Y-65627000D01*
X119373750Y-65627000D01*
X119215000Y-65785750D01*
X117627000Y-65785750D01*
X117627000Y-64173691D01*
X119215000Y-64173691D01*
X119215000Y-65214250D01*
X119373750Y-65373000D01*
X120523000Y-65373000D01*
X120523000Y-63823750D01*
X120364250Y-63665000D01*
X119723690Y-63665000D01*
X119490301Y-63761673D01*
X119311673Y-63940302D01*
X119215000Y-64173691D01*
X117627000Y-64173691D01*
X117627000Y-60696818D01*
X119316819Y-59007000D01*
X119419529Y-59007000D01*
X119621192Y-59308809D01*
X120093213Y-59624204D01*
X120650000Y-59734956D01*
X121206788Y-59624204D01*
X121678809Y-59308809D01*
X121920000Y-58947842D01*
X122161192Y-59308809D01*
X122633213Y-59624204D01*
X123190000Y-59734956D01*
X123746788Y-59624204D01*
X124218809Y-59308809D01*
X124457244Y-58951966D01*
X124805104Y-59384500D01*
X125298181Y-59654367D01*
X125380961Y-59671904D01*
X125603000Y-59549915D01*
X125603000Y-58007000D01*
X125583000Y-58007000D01*
X125583000Y-57753000D01*
X125603000Y-57753000D01*
X125603000Y-56210085D01*
X125380961Y-56088096D01*
X125298181Y-56105633D01*
X124805104Y-56375500D01*
X124457244Y-56808034D01*
X124218808Y-56451191D01*
X123746787Y-56135796D01*
X123190000Y-56025044D01*
X122633212Y-56135796D01*
X122161191Y-56451192D01*
X121920000Y-56812159D01*
X121678808Y-56451191D01*
X121206787Y-56135796D01*
X120650000Y-56025044D01*
X120093212Y-56135796D01*
X119621191Y-56451192D01*
X119419529Y-56753000D01*
X118960998Y-56753000D01*
X118850000Y-56730921D01*
X118739002Y-56753000D01*
X118739001Y-56753000D01*
X118410267Y-56818389D01*
X118410266Y-56818390D01*
X118410265Y-56818390D01*
X118336439Y-56867719D01*
X118037478Y-57067478D01*
X117974602Y-57161580D01*
X115781582Y-59354600D01*
X115687478Y-59417478D01*
X115549349Y-59624204D01*
X115451819Y-59770169D01*
X115438389Y-59790268D01*
X115391149Y-60027761D01*
X115350921Y-60230000D01*
X115373000Y-60340998D01*
X115373001Y-72388997D01*
X115350921Y-72500000D01*
X115438390Y-72939734D01*
X115563517Y-73127000D01*
X115687479Y-73312522D01*
X115781580Y-73375398D01*
X118624600Y-76218418D01*
X118687478Y-76312522D01*
X119060267Y-76561611D01*
X119389001Y-76627000D01*
X119389002Y-76627000D01*
X119500000Y-76649079D01*
X119610998Y-76627000D01*
X124631083Y-76627000D01*
X124742081Y-76649079D01*
X124853079Y-76627000D01*
X124853080Y-76627000D01*
X125181814Y-76561611D01*
X125554603Y-76312522D01*
X125617481Y-76218418D01*
X127758421Y-74077479D01*
X127852522Y-74014603D01*
X128101611Y-73641814D01*
X128167000Y-73313080D01*
X128167000Y-73313079D01*
X128189079Y-73202082D01*
X128174144Y-73127000D01*
X136233182Y-73127000D01*
X142324602Y-79218421D01*
X142387478Y-79312522D01*
X142526726Y-79405564D01*
X142760265Y-79561610D01*
X142760266Y-79561610D01*
X142760267Y-79561611D01*
X143089001Y-79627000D01*
X143199999Y-79649079D01*
X143310997Y-79627000D01*
X145164409Y-79627000D01*
X145247959Y-79752041D01*
X145455357Y-79890620D01*
X145700000Y-79939283D01*
X147300000Y-79939283D01*
X147544643Y-79890620D01*
X147752041Y-79752041D01*
X147890620Y-79544643D01*
X147897959Y-79507745D01*
X149171861Y-79507745D01*
X149245995Y-79753864D01*
X149783223Y-79946965D01*
X150353454Y-79919778D01*
X150754005Y-79753864D01*
X150828139Y-79507745D01*
X150000000Y-78679605D01*
X149171861Y-79507745D01*
X147897959Y-79507745D01*
X147939283Y-79300000D01*
X147939283Y-78654535D01*
X148689076Y-77904742D01*
X148553035Y-78283223D01*
X148580222Y-78853454D01*
X148746136Y-79254005D01*
X148992255Y-79328139D01*
X149820395Y-78500000D01*
X150179605Y-78500000D01*
X151007745Y-79328139D01*
X151253864Y-79254005D01*
X151446965Y-78716777D01*
X151419778Y-78146546D01*
X151253864Y-77745995D01*
X151007745Y-77671861D01*
X150179605Y-78500000D01*
X149820395Y-78500000D01*
X149806252Y-78485858D01*
X149985858Y-78306252D01*
X150000000Y-78320395D01*
X150828139Y-77492255D01*
X150754005Y-77246136D01*
X150216777Y-77053035D01*
X149646546Y-77080222D01*
X149419586Y-77174232D01*
X150218418Y-76375400D01*
X150312522Y-76312522D01*
X150561611Y-75939733D01*
X150627000Y-75610999D01*
X150627000Y-75610998D01*
X150649079Y-75500000D01*
X150627000Y-75389002D01*
X150627000Y-69246799D01*
X150824977Y-68768841D01*
X153966819Y-65627000D01*
X159533182Y-65627000D01*
X160373000Y-66466819D01*
X160373001Y-82633181D01*
X158717200Y-84288982D01*
X158690620Y-84155357D01*
X158552041Y-83947959D01*
X158344643Y-83809380D01*
X158100000Y-83760717D01*
X155900000Y-83760717D01*
X155655357Y-83809380D01*
X155447959Y-83947959D01*
X155309380Y-84155357D01*
X155260717Y-84400000D01*
X155260717Y-86600000D01*
X155309380Y-86844643D01*
X155447959Y-87052041D01*
X155655357Y-87190620D01*
X155873000Y-87233912D01*
X155873001Y-88842959D01*
X154895681Y-88845413D01*
X150991212Y-84940946D01*
X150942283Y-84867719D01*
X150652190Y-84673884D01*
X150396377Y-84623000D01*
X150396372Y-84623000D01*
X150310002Y-84605820D01*
X150223632Y-84623000D01*
X148957264Y-84623000D01*
X153203265Y-80377000D01*
X153810717Y-80377000D01*
X153810717Y-80800000D01*
X153859380Y-81044643D01*
X153997959Y-81252041D01*
X154205357Y-81390620D01*
X154450000Y-81439283D01*
X155550000Y-81439283D01*
X155794643Y-81390620D01*
X156002041Y-81252041D01*
X156140620Y-81044643D01*
X156189283Y-80800000D01*
X156189283Y-80185750D01*
X156355000Y-80185750D01*
X156355000Y-80926310D01*
X156451673Y-81159699D01*
X156630302Y-81338327D01*
X156863691Y-81435000D01*
X157254250Y-81435000D01*
X157413000Y-81276250D01*
X157413000Y-80027000D01*
X157667000Y-80027000D01*
X157667000Y-81276250D01*
X157825750Y-81435000D01*
X158216309Y-81435000D01*
X158449698Y-81338327D01*
X158628327Y-81159699D01*
X158725000Y-80926310D01*
X158725000Y-80185750D01*
X158566250Y-80027000D01*
X157667000Y-80027000D01*
X157413000Y-80027000D01*
X156513750Y-80027000D01*
X156355000Y-80185750D01*
X156189283Y-80185750D01*
X156189283Y-79369283D01*
X156355000Y-79369283D01*
X156355000Y-79614250D01*
X156513750Y-79773000D01*
X157413000Y-79773000D01*
X157413000Y-78687679D01*
X157445607Y-78523750D01*
X157667000Y-78523750D01*
X157667000Y-79773000D01*
X158566250Y-79773000D01*
X158725000Y-79614250D01*
X158725000Y-78873690D01*
X158628327Y-78640301D01*
X158449698Y-78461673D01*
X158216309Y-78365000D01*
X157825750Y-78365000D01*
X157667000Y-78523750D01*
X157445607Y-78523750D01*
X157459283Y-78455000D01*
X157459283Y-77205000D01*
X157389687Y-76855119D01*
X157191496Y-76558504D01*
X157147000Y-76528773D01*
X157147000Y-73741623D01*
X157326116Y-73473558D01*
X157377000Y-73217745D01*
X157377000Y-73217741D01*
X157394180Y-73131371D01*
X157392941Y-73125143D01*
X157709753Y-72808331D01*
X157927000Y-72283848D01*
X157927000Y-71716152D01*
X157709753Y-71191669D01*
X157308331Y-70790247D01*
X156783848Y-70573000D01*
X156377000Y-70573000D01*
X156377000Y-68669000D01*
X156453291Y-68618023D01*
X156831036Y-68747807D01*
X157321413Y-68717482D01*
X157633617Y-68588164D01*
X157683130Y-68362735D01*
X157000000Y-67679605D01*
X156985858Y-67693748D01*
X156806253Y-67514143D01*
X156820395Y-67500000D01*
X157179605Y-67500000D01*
X157862735Y-68183130D01*
X158088164Y-68133617D01*
X158247807Y-67668964D01*
X158217482Y-67178587D01*
X158088164Y-66866383D01*
X157862735Y-66816870D01*
X157179605Y-67500000D01*
X156820395Y-67500000D01*
X156806253Y-67485858D01*
X156985858Y-67306253D01*
X157000000Y-67320395D01*
X157683130Y-66637265D01*
X157633617Y-66411836D01*
X157168964Y-66252193D01*
X156678587Y-66282518D01*
X156447620Y-66378187D01*
X156344643Y-66309380D01*
X156100000Y-66260717D01*
X154900000Y-66260717D01*
X154655357Y-66309380D01*
X154447959Y-66447959D01*
X154309380Y-66655357D01*
X154260717Y-66900000D01*
X154260717Y-68100000D01*
X154309380Y-68344643D01*
X154447959Y-68552041D01*
X154623000Y-68669000D01*
X154623001Y-70913625D01*
X154605820Y-71000000D01*
X154623001Y-71086375D01*
X154673885Y-71342188D01*
X154867720Y-71632281D01*
X154940944Y-71681208D01*
X155073000Y-71813264D01*
X155073000Y-72283848D01*
X155290247Y-72808331D01*
X155466801Y-72984885D01*
X155443884Y-73019183D01*
X155393000Y-73274996D01*
X155393000Y-73275000D01*
X155375820Y-73361370D01*
X155393000Y-73447740D01*
X155393001Y-76528772D01*
X155348504Y-76558504D01*
X155150313Y-76855119D01*
X155080717Y-77205000D01*
X155080717Y-78360717D01*
X154450000Y-78360717D01*
X154205357Y-78409380D01*
X153997959Y-78547959D01*
X153947818Y-78623000D01*
X152926369Y-78623000D01*
X152839999Y-78605820D01*
X152753629Y-78623000D01*
X152753625Y-78623000D01*
X152497812Y-78673884D01*
X152497811Y-78673885D01*
X152497810Y-78673885D01*
X152301762Y-78804881D01*
X152207719Y-78867719D01*
X152158792Y-78940943D01*
X147274201Y-83825535D01*
X147010091Y-83773000D01*
X146669909Y-83773000D01*
X146166158Y-83873202D01*
X145594903Y-84254903D01*
X145213202Y-84826158D01*
X145103717Y-85376580D01*
X144552521Y-84825385D01*
X144405959Y-84606039D01*
X143537002Y-84025421D01*
X142770730Y-83873000D01*
X142770729Y-83873000D01*
X142511998Y-83821535D01*
X142253267Y-83873000D01*
X138552606Y-83873000D01*
X137429607Y-82750001D01*
X137531829Y-82647779D01*
X137663520Y-82942657D01*
X138371036Y-83214261D01*
X139128632Y-83194436D01*
X139736480Y-82942657D01*
X139868172Y-82647777D01*
X138700000Y-81479605D01*
X138685858Y-81493748D01*
X138506253Y-81314143D01*
X138520395Y-81300000D01*
X138879605Y-81300000D01*
X140047777Y-82468172D01*
X140342657Y-82336480D01*
X140614261Y-81628964D01*
X140594436Y-80871368D01*
X140342657Y-80263520D01*
X140047777Y-80131828D01*
X138879605Y-81300000D01*
X138520395Y-81300000D01*
X137352223Y-80131828D01*
X137057343Y-80263520D01*
X136785739Y-80971036D01*
X136805564Y-81728632D01*
X137057343Y-82336480D01*
X137352221Y-82468171D01*
X137249999Y-82570393D01*
X137089803Y-82410197D01*
X137048601Y-82382667D01*
X137000000Y-82373000D01*
X103815347Y-82373000D01*
X103478267Y-82035920D01*
X102843522Y-81773000D01*
X102156478Y-81773000D01*
X101521733Y-82035920D01*
X101184653Y-82373000D01*
X101127007Y-82373000D01*
X101127132Y-79952223D01*
X137531828Y-79952223D01*
X138700000Y-81120395D01*
X139868172Y-79952223D01*
X139736480Y-79657343D01*
X139028964Y-79385739D01*
X138271368Y-79405564D01*
X137663520Y-79657343D01*
X137531828Y-79952223D01*
X101127132Y-79952223D01*
X101128490Y-53702000D01*
X165873077Y-53702000D01*
X165884023Y-82441676D01*
G04 #@! TD*
M02*
