G04 #@! TF.GenerationSoftware,KiCad,Pcbnew,5.0.2-bee76a0~70~ubuntu18.04.1*
G04 #@! TF.CreationDate,2019-03-14T10:40:12+05:30*
G04 #@! TF.ProjectId,occupancy,6f636375-7061-46e6-9379-2e6b69636164,rev?*
G04 #@! TF.SameCoordinates,Original*
G04 #@! TF.FileFunction,Legend,Top*
G04 #@! TF.FilePolarity,Positive*
%FSLAX46Y46*%
G04 Gerber Fmt 4.6, Leading zero omitted, Abs format (unit mm)*
G04 Created by KiCad (PCBNEW 5.0.2-bee76a0~70~ubuntu18.04.1) date Thu Mar 14 10:40:12 2019*
%MOMM*%
%LPD*%
G01*
G04 APERTURE LIST*
%ADD10C,0.300000*%
%ADD11C,0.120000*%
%ADD12C,0.150000*%
G04 APERTURE END LIST*
D10*
X101571428Y-112178571D02*
X101571428Y-110678571D01*
X102428571Y-112178571D01*
X102428571Y-110678571D01*
X103142857Y-110678571D02*
X103142857Y-111892857D01*
X103214285Y-112035714D01*
X103285714Y-112107142D01*
X103428571Y-112178571D01*
X103714285Y-112178571D01*
X103857142Y-112107142D01*
X103928571Y-112035714D01*
X104000000Y-111892857D01*
X104000000Y-110678571D01*
X106142857Y-110678571D02*
X106428571Y-110678571D01*
X106571428Y-110750000D01*
X106714285Y-110892857D01*
X106785714Y-111178571D01*
X106785714Y-111678571D01*
X106714285Y-111964285D01*
X106571428Y-112107142D01*
X106428571Y-112178571D01*
X106142857Y-112178571D01*
X106000000Y-112107142D01*
X105857142Y-111964285D01*
X105785714Y-111678571D01*
X105785714Y-111178571D01*
X105857142Y-110892857D01*
X106000000Y-110750000D01*
X106142857Y-110678571D01*
X108285714Y-112035714D02*
X108214285Y-112107142D01*
X108000000Y-112178571D01*
X107857142Y-112178571D01*
X107642857Y-112107142D01*
X107500000Y-111964285D01*
X107428571Y-111821428D01*
X107357142Y-111535714D01*
X107357142Y-111321428D01*
X107428571Y-111035714D01*
X107500000Y-110892857D01*
X107642857Y-110750000D01*
X107857142Y-110678571D01*
X108000000Y-110678571D01*
X108214285Y-110750000D01*
X108285714Y-110821428D01*
X109785714Y-112035714D02*
X109714285Y-112107142D01*
X109500000Y-112178571D01*
X109357142Y-112178571D01*
X109142857Y-112107142D01*
X109000000Y-111964285D01*
X108928571Y-111821428D01*
X108857142Y-111535714D01*
X108857142Y-111321428D01*
X108928571Y-111035714D01*
X109000000Y-110892857D01*
X109142857Y-110750000D01*
X109357142Y-110678571D01*
X109500000Y-110678571D01*
X109714285Y-110750000D01*
X109785714Y-110821428D01*
X112357142Y-112178571D02*
X111500000Y-112178571D01*
X111928571Y-112178571D02*
X111928571Y-110678571D01*
X111785714Y-110892857D01*
X111642857Y-111035714D01*
X111500000Y-111107142D01*
X113000000Y-112035714D02*
X113071428Y-112107142D01*
X113000000Y-112178571D01*
X112928571Y-112107142D01*
X113000000Y-112035714D01*
X113000000Y-112178571D01*
X114000000Y-110678571D02*
X114142857Y-110678571D01*
X114285714Y-110750000D01*
X114357142Y-110821428D01*
X114428571Y-110964285D01*
X114500000Y-111250000D01*
X114500000Y-111607142D01*
X114428571Y-111892857D01*
X114357142Y-112035714D01*
X114285714Y-112107142D01*
X114142857Y-112178571D01*
X114000000Y-112178571D01*
X113857142Y-112107142D01*
X113785714Y-112035714D01*
X113714285Y-111892857D01*
X113642857Y-111607142D01*
X113642857Y-111250000D01*
X113714285Y-110964285D01*
X113785714Y-110821428D01*
X113857142Y-110750000D01*
X114000000Y-110678571D01*
X135371428Y-113248571D02*
X135371428Y-111748571D01*
X136228571Y-113248571D01*
X136228571Y-111748571D01*
X137800000Y-113105714D02*
X137728571Y-113177142D01*
X137514285Y-113248571D01*
X137371428Y-113248571D01*
X137157142Y-113177142D01*
X137014285Y-113034285D01*
X136942857Y-112891428D01*
X136871428Y-112605714D01*
X136871428Y-112391428D01*
X136942857Y-112105714D01*
X137014285Y-111962857D01*
X137157142Y-111820000D01*
X137371428Y-111748571D01*
X137514285Y-111748571D01*
X137728571Y-111820000D01*
X137800000Y-111891428D01*
X130435714Y-113248571D02*
X130435714Y-111748571D01*
X131292857Y-113248571D01*
X131292857Y-111748571D01*
X132292857Y-111748571D02*
X132578571Y-111748571D01*
X132721428Y-111820000D01*
X132864285Y-111962857D01*
X132935714Y-112248571D01*
X132935714Y-112748571D01*
X132864285Y-113034285D01*
X132721428Y-113177142D01*
X132578571Y-113248571D01*
X132292857Y-113248571D01*
X132150000Y-113177142D01*
X132007142Y-113034285D01*
X131935714Y-112748571D01*
X131935714Y-112248571D01*
X132007142Y-111962857D01*
X132150000Y-111820000D01*
X132292857Y-111748571D01*
X119031428Y-113248571D02*
X119031428Y-111748571D01*
X119888571Y-113248571D01*
X119888571Y-111748571D01*
X124954285Y-113248571D02*
X124240000Y-113248571D01*
X124240000Y-111748571D01*
D11*
G04 #@! TO.C,C1*
X144240302Y-75785000D02*
X144240302Y-76585000D01*
X143840302Y-76185000D02*
X144640302Y-76185000D01*
X152331000Y-77967000D02*
X152331000Y-79033000D01*
X152291000Y-77732000D02*
X152291000Y-79268000D01*
X152251000Y-77552000D02*
X152251000Y-79448000D01*
X152211000Y-77402000D02*
X152211000Y-79598000D01*
X152171000Y-77271000D02*
X152171000Y-79729000D01*
X152131000Y-77154000D02*
X152131000Y-79846000D01*
X152091000Y-77047000D02*
X152091000Y-79953000D01*
X152051000Y-76948000D02*
X152051000Y-80052000D01*
X152011000Y-76855000D02*
X152011000Y-80145000D01*
X151971000Y-76769000D02*
X151971000Y-80231000D01*
X151931000Y-76687000D02*
X151931000Y-80313000D01*
X151891000Y-76610000D02*
X151891000Y-80390000D01*
X151851000Y-76536000D02*
X151851000Y-80464000D01*
X151811000Y-76466000D02*
X151811000Y-80534000D01*
X151771000Y-76398000D02*
X151771000Y-80602000D01*
X151731000Y-76334000D02*
X151731000Y-80666000D01*
X151691000Y-76272000D02*
X151691000Y-80728000D01*
X151651000Y-76213000D02*
X151651000Y-80787000D01*
X151611000Y-76155000D02*
X151611000Y-80845000D01*
X151571000Y-76100000D02*
X151571000Y-80900000D01*
X151531000Y-76046000D02*
X151531000Y-80954000D01*
X151491000Y-75995000D02*
X151491000Y-81005000D01*
X151451000Y-75944000D02*
X151451000Y-81056000D01*
X151411000Y-75896000D02*
X151411000Y-81104000D01*
X151371000Y-75849000D02*
X151371000Y-81151000D01*
X151331000Y-75803000D02*
X151331000Y-81197000D01*
X151291000Y-75759000D02*
X151291000Y-81241000D01*
X151251000Y-75716000D02*
X151251000Y-81284000D01*
X151211000Y-75674000D02*
X151211000Y-81326000D01*
X151171000Y-75633000D02*
X151171000Y-81367000D01*
X151131000Y-75593000D02*
X151131000Y-81407000D01*
X151091000Y-75555000D02*
X151091000Y-81445000D01*
X151051000Y-75517000D02*
X151051000Y-81483000D01*
X151011000Y-79540000D02*
X151011000Y-81519000D01*
X151011000Y-75481000D02*
X151011000Y-77460000D01*
X150971000Y-79540000D02*
X150971000Y-81555000D01*
X150971000Y-75445000D02*
X150971000Y-77460000D01*
X150931000Y-79540000D02*
X150931000Y-81590000D01*
X150931000Y-75410000D02*
X150931000Y-77460000D01*
X150891000Y-79540000D02*
X150891000Y-81624000D01*
X150891000Y-75376000D02*
X150891000Y-77460000D01*
X150851000Y-79540000D02*
X150851000Y-81656000D01*
X150851000Y-75344000D02*
X150851000Y-77460000D01*
X150811000Y-79540000D02*
X150811000Y-81689000D01*
X150811000Y-75311000D02*
X150811000Y-77460000D01*
X150771000Y-79540000D02*
X150771000Y-81720000D01*
X150771000Y-75280000D02*
X150771000Y-77460000D01*
X150731000Y-79540000D02*
X150731000Y-81750000D01*
X150731000Y-75250000D02*
X150731000Y-77460000D01*
X150691000Y-79540000D02*
X150691000Y-81780000D01*
X150691000Y-75220000D02*
X150691000Y-77460000D01*
X150651000Y-79540000D02*
X150651000Y-81809000D01*
X150651000Y-75191000D02*
X150651000Y-77460000D01*
X150611000Y-79540000D02*
X150611000Y-81838000D01*
X150611000Y-75162000D02*
X150611000Y-77460000D01*
X150571000Y-79540000D02*
X150571000Y-81865000D01*
X150571000Y-75135000D02*
X150571000Y-77460000D01*
X150531000Y-79540000D02*
X150531000Y-81892000D01*
X150531000Y-75108000D02*
X150531000Y-77460000D01*
X150491000Y-79540000D02*
X150491000Y-81918000D01*
X150491000Y-75082000D02*
X150491000Y-77460000D01*
X150451000Y-79540000D02*
X150451000Y-81944000D01*
X150451000Y-75056000D02*
X150451000Y-77460000D01*
X150411000Y-79540000D02*
X150411000Y-81969000D01*
X150411000Y-75031000D02*
X150411000Y-77460000D01*
X150371000Y-79540000D02*
X150371000Y-81993000D01*
X150371000Y-75007000D02*
X150371000Y-77460000D01*
X150331000Y-79540000D02*
X150331000Y-82017000D01*
X150331000Y-74983000D02*
X150331000Y-77460000D01*
X150291000Y-79540000D02*
X150291000Y-82040000D01*
X150291000Y-74960000D02*
X150291000Y-77460000D01*
X150251000Y-79540000D02*
X150251000Y-82062000D01*
X150251000Y-74938000D02*
X150251000Y-77460000D01*
X150211000Y-79540000D02*
X150211000Y-82084000D01*
X150211000Y-74916000D02*
X150211000Y-77460000D01*
X150171000Y-79540000D02*
X150171000Y-82106000D01*
X150171000Y-74894000D02*
X150171000Y-77460000D01*
X150131000Y-79540000D02*
X150131000Y-82127000D01*
X150131000Y-74873000D02*
X150131000Y-77460000D01*
X150091000Y-79540000D02*
X150091000Y-82147000D01*
X150091000Y-74853000D02*
X150091000Y-77460000D01*
X150051000Y-79540000D02*
X150051000Y-82166000D01*
X150051000Y-74834000D02*
X150051000Y-77460000D01*
X150011000Y-79540000D02*
X150011000Y-82186000D01*
X150011000Y-74814000D02*
X150011000Y-77460000D01*
X149971000Y-79540000D02*
X149971000Y-82204000D01*
X149971000Y-74796000D02*
X149971000Y-77460000D01*
X149931000Y-79540000D02*
X149931000Y-82222000D01*
X149931000Y-74778000D02*
X149931000Y-77460000D01*
X149891000Y-79540000D02*
X149891000Y-82240000D01*
X149891000Y-74760000D02*
X149891000Y-77460000D01*
X149851000Y-79540000D02*
X149851000Y-82257000D01*
X149851000Y-74743000D02*
X149851000Y-77460000D01*
X149811000Y-79540000D02*
X149811000Y-82274000D01*
X149811000Y-74726000D02*
X149811000Y-77460000D01*
X149771000Y-79540000D02*
X149771000Y-82290000D01*
X149771000Y-74710000D02*
X149771000Y-77460000D01*
X149731000Y-79540000D02*
X149731000Y-82305000D01*
X149731000Y-74695000D02*
X149731000Y-77460000D01*
X149691000Y-79540000D02*
X149691000Y-82321000D01*
X149691000Y-74679000D02*
X149691000Y-77460000D01*
X149651000Y-79540000D02*
X149651000Y-82335000D01*
X149651000Y-74665000D02*
X149651000Y-77460000D01*
X149611000Y-79540000D02*
X149611000Y-82350000D01*
X149611000Y-74650000D02*
X149611000Y-77460000D01*
X149571000Y-79540000D02*
X149571000Y-82363000D01*
X149571000Y-74637000D02*
X149571000Y-77460000D01*
X149531000Y-79540000D02*
X149531000Y-82377000D01*
X149531000Y-74623000D02*
X149531000Y-77460000D01*
X149491000Y-79540000D02*
X149491000Y-82389000D01*
X149491000Y-74611000D02*
X149491000Y-77460000D01*
X149451000Y-79540000D02*
X149451000Y-82402000D01*
X149451000Y-74598000D02*
X149451000Y-77460000D01*
X149411000Y-79540000D02*
X149411000Y-82414000D01*
X149411000Y-74586000D02*
X149411000Y-77460000D01*
X149371000Y-79540000D02*
X149371000Y-82425000D01*
X149371000Y-74575000D02*
X149371000Y-77460000D01*
X149331000Y-79540000D02*
X149331000Y-82436000D01*
X149331000Y-74564000D02*
X149331000Y-77460000D01*
X149291000Y-79540000D02*
X149291000Y-82447000D01*
X149291000Y-74553000D02*
X149291000Y-77460000D01*
X149251000Y-79540000D02*
X149251000Y-82457000D01*
X149251000Y-74543000D02*
X149251000Y-77460000D01*
X149211000Y-79540000D02*
X149211000Y-82467000D01*
X149211000Y-74533000D02*
X149211000Y-77460000D01*
X149171000Y-79540000D02*
X149171000Y-82476000D01*
X149171000Y-74524000D02*
X149171000Y-77460000D01*
X149131000Y-79540000D02*
X149131000Y-82485000D01*
X149131000Y-74515000D02*
X149131000Y-77460000D01*
X149091000Y-79540000D02*
X149091000Y-82494000D01*
X149091000Y-74506000D02*
X149091000Y-77460000D01*
X149051000Y-79540000D02*
X149051000Y-82502000D01*
X149051000Y-74498000D02*
X149051000Y-77460000D01*
X149011000Y-79540000D02*
X149011000Y-82510000D01*
X149011000Y-74490000D02*
X149011000Y-77460000D01*
X148971000Y-79540000D02*
X148971000Y-82517000D01*
X148971000Y-74483000D02*
X148971000Y-77460000D01*
X148930000Y-74476000D02*
X148930000Y-82524000D01*
X148890000Y-74470000D02*
X148890000Y-82530000D01*
X148850000Y-74463000D02*
X148850000Y-82537000D01*
X148810000Y-74458000D02*
X148810000Y-82542000D01*
X148770000Y-74452000D02*
X148770000Y-82548000D01*
X148730000Y-74448000D02*
X148730000Y-82552000D01*
X148690000Y-74443000D02*
X148690000Y-82557000D01*
X148650000Y-74439000D02*
X148650000Y-82561000D01*
X148610000Y-74435000D02*
X148610000Y-82565000D01*
X148570000Y-74432000D02*
X148570000Y-82568000D01*
X148530000Y-74429000D02*
X148530000Y-82571000D01*
X148490000Y-74426000D02*
X148490000Y-82574000D01*
X148450000Y-74424000D02*
X148450000Y-82576000D01*
X148410000Y-74423000D02*
X148410000Y-82577000D01*
X148370000Y-74421000D02*
X148370000Y-82579000D01*
X148330000Y-74420000D02*
X148330000Y-82580000D01*
X148290000Y-74420000D02*
X148290000Y-82580000D01*
X148250000Y-74420000D02*
X148250000Y-82580000D01*
X152370000Y-78500000D02*
G75*
G03X152370000Y-78500000I-4120000J0D01*
G01*
G04 #@! TO.C,C2*
X132621000Y-58420000D02*
X133879000Y-58420000D01*
X132621000Y-56580000D02*
X133879000Y-56580000D01*
G04 #@! TO.C,C3*
X154180199Y-66105000D02*
X154180199Y-66505000D01*
X153980199Y-66305000D02*
X154380199Y-66305000D01*
X158331000Y-67130000D02*
X158331000Y-67870000D01*
X158291000Y-66963000D02*
X158291000Y-68037000D01*
X158251000Y-66836000D02*
X158251000Y-68164000D01*
X158211000Y-66732000D02*
X158211000Y-68268000D01*
X158171000Y-66641000D02*
X158171000Y-68359000D01*
X158131000Y-66560000D02*
X158131000Y-68440000D01*
X158091000Y-66487000D02*
X158091000Y-68513000D01*
X158051000Y-66420000D02*
X158051000Y-68580000D01*
X158011000Y-66358000D02*
X158011000Y-68642000D01*
X157971000Y-66300000D02*
X157971000Y-68700000D01*
X157931000Y-66246000D02*
X157931000Y-68754000D01*
X157891000Y-66196000D02*
X157891000Y-68804000D01*
X157851000Y-66149000D02*
X157851000Y-68851000D01*
X157811000Y-68340000D02*
X157811000Y-68896000D01*
X157811000Y-66104000D02*
X157811000Y-66660000D01*
X157771000Y-68340000D02*
X157771000Y-68938000D01*
X157771000Y-66062000D02*
X157771000Y-66660000D01*
X157731000Y-68340000D02*
X157731000Y-68978000D01*
X157731000Y-66022000D02*
X157731000Y-66660000D01*
X157691000Y-68340000D02*
X157691000Y-69016000D01*
X157691000Y-65984000D02*
X157691000Y-66660000D01*
X157651000Y-68340000D02*
X157651000Y-69052000D01*
X157651000Y-65948000D02*
X157651000Y-66660000D01*
X157611000Y-68340000D02*
X157611000Y-69087000D01*
X157611000Y-65913000D02*
X157611000Y-66660000D01*
X157571000Y-68340000D02*
X157571000Y-69119000D01*
X157571000Y-65881000D02*
X157571000Y-66660000D01*
X157531000Y-68340000D02*
X157531000Y-69150000D01*
X157531000Y-65850000D02*
X157531000Y-66660000D01*
X157491000Y-68340000D02*
X157491000Y-69180000D01*
X157491000Y-65820000D02*
X157491000Y-66660000D01*
X157451000Y-68340000D02*
X157451000Y-69208000D01*
X157451000Y-65792000D02*
X157451000Y-66660000D01*
X157411000Y-68340000D02*
X157411000Y-69235000D01*
X157411000Y-65765000D02*
X157411000Y-66660000D01*
X157371000Y-68340000D02*
X157371000Y-69260000D01*
X157371000Y-65740000D02*
X157371000Y-66660000D01*
X157331000Y-68340000D02*
X157331000Y-69285000D01*
X157331000Y-65715000D02*
X157331000Y-66660000D01*
X157291000Y-68340000D02*
X157291000Y-69308000D01*
X157291000Y-65692000D02*
X157291000Y-66660000D01*
X157251000Y-68340000D02*
X157251000Y-69330000D01*
X157251000Y-65670000D02*
X157251000Y-66660000D01*
X157211000Y-68340000D02*
X157211000Y-69351000D01*
X157211000Y-65649000D02*
X157211000Y-66660000D01*
X157171000Y-68340000D02*
X157171000Y-69370000D01*
X157171000Y-65630000D02*
X157171000Y-66660000D01*
X157131000Y-68340000D02*
X157131000Y-69389000D01*
X157131000Y-65611000D02*
X157131000Y-66660000D01*
X157091000Y-68340000D02*
X157091000Y-69407000D01*
X157091000Y-65593000D02*
X157091000Y-66660000D01*
X157051000Y-68340000D02*
X157051000Y-69424000D01*
X157051000Y-65576000D02*
X157051000Y-66660000D01*
X157011000Y-68340000D02*
X157011000Y-69440000D01*
X157011000Y-65560000D02*
X157011000Y-66660000D01*
X156971000Y-68340000D02*
X156971000Y-69454000D01*
X156971000Y-65546000D02*
X156971000Y-66660000D01*
X156930000Y-68340000D02*
X156930000Y-69468000D01*
X156930000Y-65532000D02*
X156930000Y-66660000D01*
X156890000Y-68340000D02*
X156890000Y-69482000D01*
X156890000Y-65518000D02*
X156890000Y-66660000D01*
X156850000Y-68340000D02*
X156850000Y-69494000D01*
X156850000Y-65506000D02*
X156850000Y-66660000D01*
X156810000Y-68340000D02*
X156810000Y-69505000D01*
X156810000Y-65495000D02*
X156810000Y-66660000D01*
X156770000Y-68340000D02*
X156770000Y-69516000D01*
X156770000Y-65484000D02*
X156770000Y-66660000D01*
X156730000Y-68340000D02*
X156730000Y-69525000D01*
X156730000Y-65475000D02*
X156730000Y-66660000D01*
X156690000Y-68340000D02*
X156690000Y-69534000D01*
X156690000Y-65466000D02*
X156690000Y-66660000D01*
X156650000Y-68340000D02*
X156650000Y-69542000D01*
X156650000Y-65458000D02*
X156650000Y-66660000D01*
X156610000Y-68340000D02*
X156610000Y-69550000D01*
X156610000Y-65450000D02*
X156610000Y-66660000D01*
X156570000Y-68340000D02*
X156570000Y-69556000D01*
X156570000Y-65444000D02*
X156570000Y-66660000D01*
X156530000Y-68340000D02*
X156530000Y-69562000D01*
X156530000Y-65438000D02*
X156530000Y-66660000D01*
X156490000Y-68340000D02*
X156490000Y-69567000D01*
X156490000Y-65433000D02*
X156490000Y-66660000D01*
X156450000Y-68340000D02*
X156450000Y-69571000D01*
X156450000Y-65429000D02*
X156450000Y-66660000D01*
X156410000Y-68340000D02*
X156410000Y-69574000D01*
X156410000Y-65426000D02*
X156410000Y-66660000D01*
X156370000Y-68340000D02*
X156370000Y-69577000D01*
X156370000Y-65423000D02*
X156370000Y-66660000D01*
X156330000Y-65421000D02*
X156330000Y-66660000D01*
X156330000Y-68340000D02*
X156330000Y-69579000D01*
X156290000Y-65420000D02*
X156290000Y-66660000D01*
X156290000Y-68340000D02*
X156290000Y-69580000D01*
X156250000Y-65420000D02*
X156250000Y-66660000D01*
X156250000Y-68340000D02*
X156250000Y-69580000D01*
X158370000Y-67500000D02*
G75*
G03X158370000Y-67500000I-2120000J0D01*
G01*
G04 #@! TO.C,D1*
X153860000Y-86970000D02*
X153860000Y-84030000D01*
X153620000Y-86970000D02*
X153620000Y-84030000D01*
X153740000Y-86970000D02*
X153740000Y-84030000D01*
X148180000Y-85500000D02*
X149200000Y-85500000D01*
X155660000Y-85500000D02*
X154640000Y-85500000D01*
X149200000Y-86970000D02*
X154640000Y-86970000D01*
X149200000Y-84030000D02*
X149200000Y-86970000D01*
X154640000Y-84030000D02*
X149200000Y-84030000D01*
X154640000Y-86970000D02*
X154640000Y-84030000D01*
G04 #@! TO.C,J2*
X120630000Y-73330000D02*
X120630000Y-72000000D01*
X121960000Y-73330000D02*
X120630000Y-73330000D01*
X123230000Y-73330000D02*
X123230000Y-70670000D01*
X123230000Y-70670000D02*
X128370000Y-70670000D01*
X123230000Y-73330000D02*
X128370000Y-73330000D01*
X128370000Y-73330000D02*
X128370000Y-70670000D01*
G04 #@! TO.C,K1*
X150150000Y-100050000D02*
X150150000Y-96050000D01*
X153750000Y-100050000D02*
X150150000Y-100050000D01*
X153750000Y-96050000D02*
X153750000Y-100050000D01*
X150150000Y-96050000D02*
X153750000Y-96050000D01*
X150150000Y-100050000D02*
X153750000Y-96050000D01*
X150150000Y-98050000D02*
X145950000Y-98050000D01*
X157950000Y-98050000D02*
X153750000Y-98050000D01*
X151950000Y-94650000D02*
X148350000Y-94650000D01*
X151950000Y-101450000D02*
X148350000Y-101450000D01*
X148350000Y-101450000D02*
X148350000Y-94650000D01*
X151950000Y-102950000D02*
X154450000Y-107550000D01*
X151950000Y-101450000D02*
X151950000Y-102950000D01*
X157950000Y-98050000D02*
X157950000Y-95550000D01*
X151950000Y-94650000D02*
X151950000Y-93850000D01*
X145950000Y-95550000D02*
X145950000Y-98050000D01*
X156200000Y-106150000D02*
X153700000Y-106150000D01*
X147800000Y-106150000D02*
X150250000Y-106150000D01*
X144200000Y-110400000D02*
X144200000Y-90600000D01*
X159800000Y-110400000D02*
X144200000Y-110400000D01*
X159800000Y-90600000D02*
X159800000Y-110400000D01*
X159800000Y-90600000D02*
X153200000Y-90600000D01*
X150800000Y-90600000D02*
X144200000Y-90600000D01*
G04 #@! TO.C,Q1*
X158078445Y-81327684D02*
G75*
G03X157050000Y-77050000I-1808445J1827684D01*
G01*
X154458125Y-81341741D02*
G75*
G02X155450000Y-77050000I1811875J1841741D01*
G01*
X154470000Y-81350000D02*
X158070000Y-81350000D01*
G04 #@! TO.C,RV1*
X148655000Y-61530000D02*
X148655000Y-56460000D01*
X158425000Y-61530000D02*
X158425000Y-56460000D01*
X158425000Y-56460000D02*
X148655000Y-56460000D01*
X158425000Y-61530000D02*
X148655000Y-61530000D01*
G04 #@! TO.C,U2*
X119320000Y-59440000D02*
X119320000Y-60690000D01*
X129600000Y-59440000D02*
X119320000Y-59440000D01*
X129600000Y-63940000D02*
X129600000Y-59440000D01*
X119320000Y-63940000D02*
X129600000Y-63940000D01*
X119320000Y-62690000D02*
X119320000Y-63940000D01*
X119320000Y-60690000D02*
G75*
G02X119320000Y-62690000I0J-1000000D01*
G01*
G04 #@! TO.C,R2*
X147380000Y-72000000D02*
X148150000Y-72000000D01*
X155460000Y-72000000D02*
X154690000Y-72000000D01*
X148150000Y-73370000D02*
X154690000Y-73370000D01*
X148150000Y-70630000D02*
X148150000Y-73370000D01*
X154690000Y-70630000D02*
X148150000Y-70630000D01*
X154690000Y-73370000D02*
X154690000Y-70630000D01*
G04 #@! TO.C,R1*
X150420000Y-67880000D02*
X150420000Y-64040000D01*
X148580000Y-67880000D02*
X148580000Y-64040000D01*
D12*
G04 #@! TO.C,J1*
X125000000Y-111000000D02*
X125500000Y-111500000D01*
X124000000Y-111000000D02*
X125000000Y-111000000D01*
X123500000Y-111500000D02*
X124000000Y-111000000D01*
X120000000Y-111000000D02*
X120500000Y-111500000D01*
X119000000Y-111000000D02*
X120000000Y-111000000D01*
X118500000Y-111500000D02*
X119000000Y-111000000D01*
X117000000Y-113500000D02*
X117000000Y-102500000D01*
X117000000Y-102500000D02*
X127000000Y-102500000D01*
X127000000Y-102500000D02*
X127000000Y-113500000D01*
X127000000Y-113500000D02*
X117000000Y-113500000D01*
X117000000Y-111500000D02*
X127000000Y-111500000D01*
X117000000Y-105000000D02*
X127000000Y-105000000D01*
X127000000Y-103500000D02*
X128000000Y-103500000D01*
X128000000Y-103500000D02*
X128000000Y-104000000D01*
X128000000Y-104000000D02*
X127000000Y-104000000D01*
X117000000Y-103500000D02*
X118000000Y-103500000D01*
X118000000Y-103500000D02*
X118000000Y-104000000D01*
X118000000Y-104000000D02*
X117000000Y-104000000D01*
X127000000Y-112500000D02*
X128000000Y-112500000D01*
X128000000Y-112500000D02*
X128000000Y-113000000D01*
X128000000Y-113000000D02*
X127000000Y-113000000D01*
X117000000Y-112500000D02*
X118000000Y-112500000D01*
X118000000Y-112500000D02*
X118000000Y-113000000D01*
X118000000Y-113000000D02*
X117000000Y-113000000D01*
G04 #@! TO.C,J3*
X137000000Y-111000000D02*
X137500000Y-111500000D01*
X136000000Y-111000000D02*
X137000000Y-111000000D01*
X135500000Y-111500000D02*
X136000000Y-111000000D01*
X132000000Y-111000000D02*
X132500000Y-111500000D01*
X131000000Y-111000000D02*
X132000000Y-111000000D01*
X130500000Y-111500000D02*
X131000000Y-111000000D01*
X129000000Y-113500000D02*
X129000000Y-102500000D01*
X129000000Y-102500000D02*
X139000000Y-102500000D01*
X139000000Y-102500000D02*
X139000000Y-113500000D01*
X139000000Y-113500000D02*
X129000000Y-113500000D01*
X129000000Y-111500000D02*
X139000000Y-111500000D01*
X129000000Y-105000000D02*
X139000000Y-105000000D01*
X139000000Y-103500000D02*
X140000000Y-103500000D01*
X140000000Y-103500000D02*
X140000000Y-104000000D01*
X140000000Y-104000000D02*
X139000000Y-104000000D01*
X129000000Y-103500000D02*
X130000000Y-103500000D01*
X130000000Y-103500000D02*
X130000000Y-104000000D01*
X130000000Y-104000000D02*
X129000000Y-104000000D01*
X139000000Y-112500000D02*
X140000000Y-112500000D01*
X140000000Y-112500000D02*
X140000000Y-113000000D01*
X140000000Y-113000000D02*
X139000000Y-113000000D01*
X129000000Y-112500000D02*
X130000000Y-112500000D01*
X130000000Y-112500000D02*
X130000000Y-113000000D01*
X130000000Y-113000000D02*
X129000000Y-113000000D01*
G04 #@! TO.C,U1*
X105500000Y-101000000D02*
X142500000Y-101000000D01*
X142500000Y-101000000D02*
X142500000Y-77000000D01*
X142500000Y-77000000D02*
X105500000Y-77000000D01*
X105500000Y-77000000D02*
X105500000Y-101000000D01*
G04 #@! TO.C,C1*
X142523333Y-77587142D02*
X142475714Y-77634761D01*
X142332857Y-77682380D01*
X142237619Y-77682380D01*
X142094761Y-77634761D01*
X141999523Y-77539523D01*
X141951904Y-77444285D01*
X141904285Y-77253809D01*
X141904285Y-77110952D01*
X141951904Y-76920476D01*
X141999523Y-76825238D01*
X142094761Y-76730000D01*
X142237619Y-76682380D01*
X142332857Y-76682380D01*
X142475714Y-76730000D01*
X142523333Y-76777619D01*
X143475714Y-77682380D02*
X142904285Y-77682380D01*
X143190000Y-77682380D02*
X143190000Y-76682380D01*
X143094761Y-76825238D01*
X142999523Y-76920476D01*
X142904285Y-76968095D01*
G04 #@! TO.C,C2*
X133083333Y-55807142D02*
X133035714Y-55854761D01*
X132892857Y-55902380D01*
X132797619Y-55902380D01*
X132654761Y-55854761D01*
X132559523Y-55759523D01*
X132511904Y-55664285D01*
X132464285Y-55473809D01*
X132464285Y-55330952D01*
X132511904Y-55140476D01*
X132559523Y-55045238D01*
X132654761Y-54950000D01*
X132797619Y-54902380D01*
X132892857Y-54902380D01*
X133035714Y-54950000D01*
X133083333Y-54997619D01*
X133464285Y-54997619D02*
X133511904Y-54950000D01*
X133607142Y-54902380D01*
X133845238Y-54902380D01*
X133940476Y-54950000D01*
X133988095Y-54997619D01*
X134035714Y-55092857D01*
X134035714Y-55188095D01*
X133988095Y-55330952D01*
X133416666Y-55902380D01*
X134035714Y-55902380D01*
G04 #@! TO.C,C3*
X159143333Y-67857142D02*
X159095714Y-67904761D01*
X158952857Y-67952380D01*
X158857619Y-67952380D01*
X158714761Y-67904761D01*
X158619523Y-67809523D01*
X158571904Y-67714285D01*
X158524285Y-67523809D01*
X158524285Y-67380952D01*
X158571904Y-67190476D01*
X158619523Y-67095238D01*
X158714761Y-67000000D01*
X158857619Y-66952380D01*
X158952857Y-66952380D01*
X159095714Y-67000000D01*
X159143333Y-67047619D01*
X159476666Y-66952380D02*
X160095714Y-66952380D01*
X159762380Y-67333333D01*
X159905238Y-67333333D01*
X160000476Y-67380952D01*
X160048095Y-67428571D01*
X160095714Y-67523809D01*
X160095714Y-67761904D01*
X160048095Y-67857142D01*
X160000476Y-67904761D01*
X159905238Y-67952380D01*
X159619523Y-67952380D01*
X159524285Y-67904761D01*
X159476666Y-67857142D01*
G04 #@! TO.C,D1*
X151181904Y-88422380D02*
X151181904Y-87422380D01*
X151420000Y-87422380D01*
X151562857Y-87470000D01*
X151658095Y-87565238D01*
X151705714Y-87660476D01*
X151753333Y-87850952D01*
X151753333Y-87993809D01*
X151705714Y-88184285D01*
X151658095Y-88279523D01*
X151562857Y-88374761D01*
X151420000Y-88422380D01*
X151181904Y-88422380D01*
X152705714Y-88422380D02*
X152134285Y-88422380D01*
X152420000Y-88422380D02*
X152420000Y-87422380D01*
X152324761Y-87565238D01*
X152229523Y-87660476D01*
X152134285Y-87708095D01*
X156738095Y-88052380D02*
X156738095Y-87052380D01*
X157309523Y-88052380D02*
X156880952Y-87480952D01*
X157309523Y-87052380D02*
X156738095Y-87623809D01*
G04 #@! TO.C,J2*
X119082380Y-72333333D02*
X119796666Y-72333333D01*
X119939523Y-72380952D01*
X120034761Y-72476190D01*
X120082380Y-72619047D01*
X120082380Y-72714285D01*
X119177619Y-71904761D02*
X119130000Y-71857142D01*
X119082380Y-71761904D01*
X119082380Y-71523809D01*
X119130000Y-71428571D01*
X119177619Y-71380952D01*
X119272857Y-71333333D01*
X119368095Y-71333333D01*
X119510952Y-71380952D01*
X120082380Y-71952380D01*
X120082380Y-71333333D01*
G04 #@! TO.C,K1*
X143252380Y-100838095D02*
X142252380Y-100838095D01*
X143252380Y-100266666D02*
X142680952Y-100695238D01*
X142252380Y-100266666D02*
X142823809Y-100838095D01*
X143252380Y-99314285D02*
X143252380Y-99885714D01*
X143252380Y-99600000D02*
X142252380Y-99600000D01*
X142395238Y-99695238D01*
X142490476Y-99790476D01*
X142538095Y-99885714D01*
G04 #@! TO.C,Q1*
X159984761Y-80047619D02*
X159889523Y-80000000D01*
X159794285Y-79904761D01*
X159651428Y-79761904D01*
X159556190Y-79714285D01*
X159460952Y-79714285D01*
X159508571Y-79952380D02*
X159413333Y-79904761D01*
X159318095Y-79809523D01*
X159270476Y-79619047D01*
X159270476Y-79285714D01*
X159318095Y-79095238D01*
X159413333Y-79000000D01*
X159508571Y-78952380D01*
X159699047Y-78952380D01*
X159794285Y-79000000D01*
X159889523Y-79095238D01*
X159937142Y-79285714D01*
X159937142Y-79619047D01*
X159889523Y-79809523D01*
X159794285Y-79904761D01*
X159699047Y-79952380D01*
X159508571Y-79952380D01*
X160889523Y-79952380D02*
X160318095Y-79952380D01*
X160603809Y-79952380D02*
X160603809Y-78952380D01*
X160508571Y-79095238D01*
X160413333Y-79190476D01*
X160318095Y-79238095D01*
G04 #@! TO.C,RV1*
X152944761Y-63112380D02*
X152611428Y-62636190D01*
X152373333Y-63112380D02*
X152373333Y-62112380D01*
X152754285Y-62112380D01*
X152849523Y-62160000D01*
X152897142Y-62207619D01*
X152944761Y-62302857D01*
X152944761Y-62445714D01*
X152897142Y-62540952D01*
X152849523Y-62588571D01*
X152754285Y-62636190D01*
X152373333Y-62636190D01*
X153230476Y-62112380D02*
X153563809Y-63112380D01*
X153897142Y-62112380D01*
X154754285Y-63112380D02*
X154182857Y-63112380D01*
X154468571Y-63112380D02*
X154468571Y-62112380D01*
X154373333Y-62255238D01*
X154278095Y-62350476D01*
X154182857Y-62398095D01*
G04 #@! TO.C,U2*
X117772380Y-62451904D02*
X118581904Y-62451904D01*
X118677142Y-62404285D01*
X118724761Y-62356666D01*
X118772380Y-62261428D01*
X118772380Y-62070952D01*
X118724761Y-61975714D01*
X118677142Y-61928095D01*
X118581904Y-61880476D01*
X117772380Y-61880476D01*
X117867619Y-61451904D02*
X117820000Y-61404285D01*
X117772380Y-61309047D01*
X117772380Y-61070952D01*
X117820000Y-60975714D01*
X117867619Y-60928095D01*
X117962857Y-60880476D01*
X118058095Y-60880476D01*
X118200952Y-60928095D01*
X118772380Y-61499523D01*
X118772380Y-60880476D01*
G04 #@! TO.C,R2*
X151253333Y-74822380D02*
X150920000Y-74346190D01*
X150681904Y-74822380D02*
X150681904Y-73822380D01*
X151062857Y-73822380D01*
X151158095Y-73870000D01*
X151205714Y-73917619D01*
X151253333Y-74012857D01*
X151253333Y-74155714D01*
X151205714Y-74250952D01*
X151158095Y-74298571D01*
X151062857Y-74346190D01*
X150681904Y-74346190D01*
X151634285Y-73917619D02*
X151681904Y-73870000D01*
X151777142Y-73822380D01*
X152015238Y-73822380D01*
X152110476Y-73870000D01*
X152158095Y-73917619D01*
X152205714Y-74012857D01*
X152205714Y-74108095D01*
X152158095Y-74250952D01*
X151586666Y-74822380D01*
X152205714Y-74822380D01*
G04 #@! TO.C,R1*
X148032380Y-66126666D02*
X147556190Y-66460000D01*
X148032380Y-66698095D02*
X147032380Y-66698095D01*
X147032380Y-66317142D01*
X147080000Y-66221904D01*
X147127619Y-66174285D01*
X147222857Y-66126666D01*
X147365714Y-66126666D01*
X147460952Y-66174285D01*
X147508571Y-66221904D01*
X147556190Y-66317142D01*
X147556190Y-66698095D01*
X148032380Y-65174285D02*
X148032380Y-65745714D01*
X148032380Y-65460000D02*
X147032380Y-65460000D01*
X147175238Y-65555238D01*
X147270476Y-65650476D01*
X147318095Y-65745714D01*
G04 #@! TO.C,J1*
X116666666Y-113452380D02*
X116666666Y-114166666D01*
X116619047Y-114309523D01*
X116523809Y-114404761D01*
X116380952Y-114452380D01*
X116285714Y-114452380D01*
X117666666Y-114452380D02*
X117095238Y-114452380D01*
X117380952Y-114452380D02*
X117380952Y-113452380D01*
X117285714Y-113595238D01*
X117190476Y-113690476D01*
X117095238Y-113738095D01*
G04 #@! TO.C,J3*
X128666666Y-113452380D02*
X128666666Y-114166666D01*
X128619047Y-114309523D01*
X128523809Y-114404761D01*
X128380952Y-114452380D01*
X128285714Y-114452380D01*
X129047619Y-113452380D02*
X129666666Y-113452380D01*
X129333333Y-113833333D01*
X129476190Y-113833333D01*
X129571428Y-113880952D01*
X129619047Y-113928571D01*
X129666666Y-114023809D01*
X129666666Y-114261904D01*
X129619047Y-114357142D01*
X129571428Y-114404761D01*
X129476190Y-114452380D01*
X129190476Y-114452380D01*
X129095238Y-114404761D01*
X129047619Y-114357142D01*
G04 #@! TO.C,U1*
X105738095Y-74952380D02*
X105738095Y-75761904D01*
X105785714Y-75857142D01*
X105833333Y-75904761D01*
X105928571Y-75952380D01*
X106119047Y-75952380D01*
X106214285Y-75904761D01*
X106261904Y-75857142D01*
X106309523Y-75761904D01*
X106309523Y-74952380D01*
X107309523Y-75952380D02*
X106738095Y-75952380D01*
X107023809Y-75952380D02*
X107023809Y-74952380D01*
X106928571Y-75095238D01*
X106833333Y-75190476D01*
X106738095Y-75238095D01*
G04 #@! TO.C,REF\002A\002A*
X163166666Y-80752380D02*
X162833333Y-80276190D01*
X162595238Y-80752380D02*
X162595238Y-79752380D01*
X162976190Y-79752380D01*
X163071428Y-79800000D01*
X163119047Y-79847619D01*
X163166666Y-79942857D01*
X163166666Y-80085714D01*
X163119047Y-80180952D01*
X163071428Y-80228571D01*
X162976190Y-80276190D01*
X162595238Y-80276190D01*
X163595238Y-80228571D02*
X163928571Y-80228571D01*
X164071428Y-80752380D02*
X163595238Y-80752380D01*
X163595238Y-79752380D01*
X164071428Y-79752380D01*
X164833333Y-80228571D02*
X164500000Y-80228571D01*
X164500000Y-80752380D02*
X164500000Y-79752380D01*
X164976190Y-79752380D01*
X165500000Y-79752380D02*
X165500000Y-79990476D01*
X165261904Y-79895238D02*
X165500000Y-79990476D01*
X165738095Y-79895238D01*
X165357142Y-80180952D02*
X165500000Y-79990476D01*
X165642857Y-80180952D01*
X166261904Y-79752380D02*
X166261904Y-79990476D01*
X166023809Y-79895238D02*
X166261904Y-79990476D01*
X166500000Y-79895238D01*
X166119047Y-80180952D02*
X166261904Y-79990476D01*
X166404761Y-80180952D01*
X101166666Y-80752380D02*
X100833333Y-80276190D01*
X100595238Y-80752380D02*
X100595238Y-79752380D01*
X100976190Y-79752380D01*
X101071428Y-79800000D01*
X101119047Y-79847619D01*
X101166666Y-79942857D01*
X101166666Y-80085714D01*
X101119047Y-80180952D01*
X101071428Y-80228571D01*
X100976190Y-80276190D01*
X100595238Y-80276190D01*
X101595238Y-80228571D02*
X101928571Y-80228571D01*
X102071428Y-80752380D02*
X101595238Y-80752380D01*
X101595238Y-79752380D01*
X102071428Y-79752380D01*
X102833333Y-80228571D02*
X102500000Y-80228571D01*
X102500000Y-80752380D02*
X102500000Y-79752380D01*
X102976190Y-79752380D01*
X103500000Y-79752380D02*
X103500000Y-79990476D01*
X103261904Y-79895238D02*
X103500000Y-79990476D01*
X103738095Y-79895238D01*
X103357142Y-80180952D02*
X103500000Y-79990476D01*
X103642857Y-80180952D01*
X104261904Y-79752380D02*
X104261904Y-79990476D01*
X104023809Y-79895238D02*
X104261904Y-79990476D01*
X104500000Y-79895238D01*
X104119047Y-80180952D02*
X104261904Y-79990476D01*
X104404761Y-80180952D01*
G04 #@! TD*
M02*
