G04 #@! TF.GenerationSoftware,KiCad,Pcbnew,5.0.2-bee76a0~70~ubuntu18.04.1*
G04 #@! TF.CreationDate,2019-03-14T10:40:12+05:30*
G04 #@! TF.ProjectId,occupancy,6f636375-7061-46e6-9379-2e6b69636164,rev?*
G04 #@! TF.SameCoordinates,Original*
G04 #@! TF.FileFunction,Soldermask,Bot*
G04 #@! TF.FilePolarity,Negative*
%FSLAX46Y46*%
G04 Gerber Fmt 4.6, Leading zero omitted, Abs format (unit mm)*
G04 Created by KiCad (PCBNEW 5.0.2-bee76a0~70~ubuntu18.04.1) date Thu Mar 14 10:40:12 2019*
%MOMM*%
%LPD*%
G01*
G04 APERTURE LIST*
%ADD10C,0.100000*%
G04 APERTURE END LIST*
D10*
G36*
X124806565Y-107489389D02*
X124997834Y-107568615D01*
X125169976Y-107683637D01*
X125316363Y-107830024D01*
X125431385Y-108002166D01*
X125510611Y-108193435D01*
X125551000Y-108396484D01*
X125551000Y-108603516D01*
X125510611Y-108806565D01*
X125431385Y-108997834D01*
X125316363Y-109169976D01*
X125169976Y-109316363D01*
X124997834Y-109431385D01*
X124806565Y-109510611D01*
X124603516Y-109551000D01*
X124396484Y-109551000D01*
X124193435Y-109510611D01*
X124002166Y-109431385D01*
X123830024Y-109316363D01*
X123683637Y-109169976D01*
X123568615Y-108997834D01*
X123489389Y-108806565D01*
X123449000Y-108603516D01*
X123449000Y-108396484D01*
X123489389Y-108193435D01*
X123568615Y-108002166D01*
X123683637Y-107830024D01*
X123830024Y-107683637D01*
X124002166Y-107568615D01*
X124193435Y-107489389D01*
X124396484Y-107449000D01*
X124603516Y-107449000D01*
X124806565Y-107489389D01*
X124806565Y-107489389D01*
G37*
G36*
X119806565Y-107489389D02*
X119997834Y-107568615D01*
X120169976Y-107683637D01*
X120316363Y-107830024D01*
X120431385Y-108002166D01*
X120510611Y-108193435D01*
X120551000Y-108396484D01*
X120551000Y-108603516D01*
X120510611Y-108806565D01*
X120431385Y-108997834D01*
X120316363Y-109169976D01*
X120169976Y-109316363D01*
X119997834Y-109431385D01*
X119806565Y-109510611D01*
X119603516Y-109551000D01*
X119396484Y-109551000D01*
X119193435Y-109510611D01*
X119002166Y-109431385D01*
X118830024Y-109316363D01*
X118683637Y-109169976D01*
X118568615Y-108997834D01*
X118489389Y-108806565D01*
X118449000Y-108603516D01*
X118449000Y-108396484D01*
X118489389Y-108193435D01*
X118568615Y-108002166D01*
X118683637Y-107830024D01*
X118830024Y-107683637D01*
X119002166Y-107568615D01*
X119193435Y-107489389D01*
X119396484Y-107449000D01*
X119603516Y-107449000D01*
X119806565Y-107489389D01*
X119806565Y-107489389D01*
G37*
G36*
X136806565Y-107489389D02*
X136997834Y-107568615D01*
X137169976Y-107683637D01*
X137316363Y-107830024D01*
X137431385Y-108002166D01*
X137510611Y-108193435D01*
X137551000Y-108396484D01*
X137551000Y-108603516D01*
X137510611Y-108806565D01*
X137431385Y-108997834D01*
X137316363Y-109169976D01*
X137169976Y-109316363D01*
X136997834Y-109431385D01*
X136806565Y-109510611D01*
X136603516Y-109551000D01*
X136396484Y-109551000D01*
X136193435Y-109510611D01*
X136002166Y-109431385D01*
X135830024Y-109316363D01*
X135683637Y-109169976D01*
X135568615Y-108997834D01*
X135489389Y-108806565D01*
X135449000Y-108603516D01*
X135449000Y-108396484D01*
X135489389Y-108193435D01*
X135568615Y-108002166D01*
X135683637Y-107830024D01*
X135830024Y-107683637D01*
X136002166Y-107568615D01*
X136193435Y-107489389D01*
X136396484Y-107449000D01*
X136603516Y-107449000D01*
X136806565Y-107489389D01*
X136806565Y-107489389D01*
G37*
G36*
X131806565Y-107489389D02*
X131997834Y-107568615D01*
X132169976Y-107683637D01*
X132316363Y-107830024D01*
X132431385Y-108002166D01*
X132510611Y-108193435D01*
X132551000Y-108396484D01*
X132551000Y-108603516D01*
X132510611Y-108806565D01*
X132431385Y-108997834D01*
X132316363Y-109169976D01*
X132169976Y-109316363D01*
X131997834Y-109431385D01*
X131806565Y-109510611D01*
X131603516Y-109551000D01*
X131396484Y-109551000D01*
X131193435Y-109510611D01*
X131002166Y-109431385D01*
X130830024Y-109316363D01*
X130683637Y-109169976D01*
X130568615Y-108997834D01*
X130489389Y-108806565D01*
X130449000Y-108603516D01*
X130449000Y-108396484D01*
X130489389Y-108193435D01*
X130568615Y-108002166D01*
X130683637Y-107830024D01*
X130830024Y-107683637D01*
X131002166Y-107568615D01*
X131193435Y-107489389D01*
X131396484Y-107449000D01*
X131603516Y-107449000D01*
X131806565Y-107489389D01*
X131806565Y-107489389D01*
G37*
G36*
X158352527Y-104688736D02*
X158452410Y-104708604D01*
X158734674Y-104825521D01*
X158988705Y-104995259D01*
X159204741Y-105211295D01*
X159374479Y-105465326D01*
X159491396Y-105747590D01*
X159491396Y-105747591D01*
X159541055Y-105997240D01*
X159551000Y-106047240D01*
X159551000Y-106352760D01*
X159491396Y-106652410D01*
X159374479Y-106934674D01*
X159204741Y-107188705D01*
X158988705Y-107404741D01*
X158734674Y-107574479D01*
X158452410Y-107691396D01*
X158404127Y-107701000D01*
X158152762Y-107751000D01*
X157847238Y-107751000D01*
X157595873Y-107701000D01*
X157547590Y-107691396D01*
X157265326Y-107574479D01*
X157011295Y-107404741D01*
X156795259Y-107188705D01*
X156625521Y-106934674D01*
X156508604Y-106652410D01*
X156449000Y-106352760D01*
X156449000Y-106047240D01*
X156458946Y-105997240D01*
X156508604Y-105747591D01*
X156508604Y-105747590D01*
X156625521Y-105465326D01*
X156795259Y-105211295D01*
X157011295Y-104995259D01*
X157265326Y-104825521D01*
X157547590Y-104708604D01*
X157647473Y-104688736D01*
X157847238Y-104649000D01*
X158152762Y-104649000D01*
X158352527Y-104688736D01*
X158352527Y-104688736D01*
G37*
G36*
X146302527Y-104638736D02*
X146402410Y-104658604D01*
X146684674Y-104775521D01*
X146938705Y-104945259D01*
X147154741Y-105161295D01*
X147324479Y-105415326D01*
X147345190Y-105465328D01*
X147441396Y-105697591D01*
X147501000Y-105997238D01*
X147501000Y-106302762D01*
X147491054Y-106352762D01*
X147441396Y-106602410D01*
X147324479Y-106884674D01*
X147154741Y-107138705D01*
X146938705Y-107354741D01*
X146684674Y-107524479D01*
X146402410Y-107641396D01*
X146302527Y-107661264D01*
X146102762Y-107701000D01*
X145797238Y-107701000D01*
X145597473Y-107661264D01*
X145497590Y-107641396D01*
X145215326Y-107524479D01*
X144961295Y-107354741D01*
X144745259Y-107138705D01*
X144575521Y-106884674D01*
X144458604Y-106602410D01*
X144408946Y-106352762D01*
X144399000Y-106302762D01*
X144399000Y-105997238D01*
X144458604Y-105697591D01*
X144554810Y-105465328D01*
X144575521Y-105415326D01*
X144745259Y-105161295D01*
X144961295Y-104945259D01*
X145215326Y-104775521D01*
X145497590Y-104658604D01*
X145597473Y-104638736D01*
X145797238Y-104599000D01*
X146102762Y-104599000D01*
X146302527Y-104638736D01*
X146302527Y-104638736D01*
G37*
G36*
X139000250Y-95412843D02*
X139085322Y-95429765D01*
X139155735Y-95458931D01*
X139325728Y-95529344D01*
X139542092Y-95673914D01*
X139726086Y-95857908D01*
X139870656Y-96074272D01*
X139970235Y-96314679D01*
X140021000Y-96569891D01*
X140021000Y-96830109D01*
X139970235Y-97085321D01*
X139870656Y-97325728D01*
X139726086Y-97542092D01*
X139542092Y-97726086D01*
X139325728Y-97870656D01*
X139155735Y-97941069D01*
X139085322Y-97970235D01*
X139000250Y-97987157D01*
X138830109Y-98021000D01*
X138569891Y-98021000D01*
X138399750Y-97987157D01*
X138314678Y-97970235D01*
X138244265Y-97941069D01*
X138074272Y-97870656D01*
X137857908Y-97726086D01*
X137673914Y-97542092D01*
X137529344Y-97325728D01*
X137429765Y-97085321D01*
X137379000Y-96830109D01*
X137379000Y-96569891D01*
X137429765Y-96314679D01*
X137529344Y-96074272D01*
X137673914Y-95857908D01*
X137857908Y-95673914D01*
X138074272Y-95529344D01*
X138244265Y-95458931D01*
X138314678Y-95429765D01*
X138399750Y-95412843D01*
X138569891Y-95379000D01*
X138830109Y-95379000D01*
X139000250Y-95412843D01*
X139000250Y-95412843D01*
G37*
G36*
X146329485Y-92698996D02*
X146329487Y-92698997D01*
X146329488Y-92698997D01*
X146415615Y-92734672D01*
X146566255Y-92797069D01*
X146779342Y-92939449D01*
X146960551Y-93120658D01*
X147102931Y-93333745D01*
X147201004Y-93570515D01*
X147251000Y-93821861D01*
X147251000Y-94078139D01*
X147201004Y-94329485D01*
X147102931Y-94566255D01*
X146960551Y-94779342D01*
X146779342Y-94960551D01*
X146779339Y-94960553D01*
X146566255Y-95102931D01*
X146329488Y-95201003D01*
X146329487Y-95201003D01*
X146329485Y-95201004D01*
X146078139Y-95251000D01*
X145821861Y-95251000D01*
X145570515Y-95201004D01*
X145570513Y-95201003D01*
X145570512Y-95201003D01*
X145333745Y-95102931D01*
X145120661Y-94960553D01*
X145120658Y-94960551D01*
X144939449Y-94779342D01*
X144797069Y-94566255D01*
X144698996Y-94329485D01*
X144649000Y-94078139D01*
X144649000Y-93821861D01*
X144698996Y-93570515D01*
X144797069Y-93333745D01*
X144939449Y-93120658D01*
X145120658Y-92939449D01*
X145333745Y-92797069D01*
X145484385Y-92734672D01*
X145570512Y-92698997D01*
X145570513Y-92698997D01*
X145570515Y-92698996D01*
X145821861Y-92649000D01*
X146078139Y-92649000D01*
X146329485Y-92698996D01*
X146329485Y-92698996D01*
G37*
G36*
X158329485Y-92698996D02*
X158329487Y-92698997D01*
X158329488Y-92698997D01*
X158415615Y-92734672D01*
X158566255Y-92797069D01*
X158779342Y-92939449D01*
X158960551Y-93120658D01*
X159102931Y-93333745D01*
X159201004Y-93570515D01*
X159251000Y-93821861D01*
X159251000Y-94078139D01*
X159201004Y-94329485D01*
X159102931Y-94566255D01*
X158960551Y-94779342D01*
X158779342Y-94960551D01*
X158779339Y-94960553D01*
X158566255Y-95102931D01*
X158329488Y-95201003D01*
X158329487Y-95201003D01*
X158329485Y-95201004D01*
X158078139Y-95251000D01*
X157821861Y-95251000D01*
X157570515Y-95201004D01*
X157570513Y-95201003D01*
X157570512Y-95201003D01*
X157333745Y-95102931D01*
X157120661Y-94960553D01*
X157120658Y-94960551D01*
X156939449Y-94779342D01*
X156797069Y-94566255D01*
X156698996Y-94329485D01*
X156649000Y-94078139D01*
X156649000Y-93821861D01*
X156698996Y-93570515D01*
X156797069Y-93333745D01*
X156939449Y-93120658D01*
X157120658Y-92939449D01*
X157333745Y-92797069D01*
X157484385Y-92734672D01*
X157570512Y-92698997D01*
X157570513Y-92698997D01*
X157570515Y-92698996D01*
X157821861Y-92649000D01*
X158078139Y-92649000D01*
X158329485Y-92698996D01*
X158329485Y-92698996D01*
G37*
G36*
X152352527Y-90488736D02*
X152452410Y-90508604D01*
X152734674Y-90625521D01*
X152988705Y-90795259D01*
X153204741Y-91011295D01*
X153374479Y-91265326D01*
X153491396Y-91547590D01*
X153551000Y-91847240D01*
X153551000Y-92152760D01*
X153491396Y-92452410D01*
X153374479Y-92734674D01*
X153204741Y-92988705D01*
X152988705Y-93204741D01*
X152734674Y-93374479D01*
X152452410Y-93491396D01*
X152352527Y-93511264D01*
X152152762Y-93551000D01*
X151847238Y-93551000D01*
X151647473Y-93511264D01*
X151547590Y-93491396D01*
X151265326Y-93374479D01*
X151011295Y-93204741D01*
X150795259Y-92988705D01*
X150625521Y-92734674D01*
X150508604Y-92452410D01*
X150449000Y-92152760D01*
X150449000Y-91847240D01*
X150508604Y-91547590D01*
X150625521Y-91265326D01*
X150795259Y-91011295D01*
X151011295Y-90795259D01*
X151265326Y-90625521D01*
X151547590Y-90508604D01*
X151647473Y-90488736D01*
X151847238Y-90449000D01*
X152152762Y-90449000D01*
X152352527Y-90488736D01*
X152352527Y-90488736D01*
G37*
G36*
X109600250Y-90212843D02*
X109685322Y-90229765D01*
X109755735Y-90258931D01*
X109925728Y-90329344D01*
X110142092Y-90473914D01*
X110326086Y-90657908D01*
X110470656Y-90874272D01*
X110570235Y-91114679D01*
X110621000Y-91369891D01*
X110621000Y-91630109D01*
X110570235Y-91885321D01*
X110470656Y-92125728D01*
X110326086Y-92342092D01*
X110142092Y-92526086D01*
X109925728Y-92670656D01*
X109755735Y-92741069D01*
X109685322Y-92770235D01*
X109600250Y-92787157D01*
X109430109Y-92821000D01*
X109169891Y-92821000D01*
X108999750Y-92787157D01*
X108914678Y-92770235D01*
X108844265Y-92741069D01*
X108674272Y-92670656D01*
X108457908Y-92526086D01*
X108273914Y-92342092D01*
X108129344Y-92125728D01*
X108029765Y-91885321D01*
X107979000Y-91630109D01*
X107979000Y-91369891D01*
X108029765Y-91114679D01*
X108129344Y-90874272D01*
X108273914Y-90657908D01*
X108457908Y-90473914D01*
X108674272Y-90329344D01*
X108844265Y-90258931D01*
X108914678Y-90229765D01*
X108999750Y-90212843D01*
X109169891Y-90179000D01*
X109430109Y-90179000D01*
X109600250Y-90212843D01*
X109600250Y-90212843D01*
G37*
G36*
X109600250Y-85212843D02*
X109685322Y-85229765D01*
X109755735Y-85258931D01*
X109925728Y-85329344D01*
X110142092Y-85473914D01*
X110326086Y-85657908D01*
X110470656Y-85874272D01*
X110570235Y-86114679D01*
X110621000Y-86369891D01*
X110621000Y-86630109D01*
X110570235Y-86885321D01*
X110470656Y-87125728D01*
X110326086Y-87342092D01*
X110142092Y-87526086D01*
X109925728Y-87670656D01*
X109755735Y-87741069D01*
X109685322Y-87770235D01*
X109600250Y-87787157D01*
X109430109Y-87821000D01*
X109169891Y-87821000D01*
X108999750Y-87787157D01*
X108914678Y-87770235D01*
X108844265Y-87741069D01*
X108674272Y-87670656D01*
X108457908Y-87526086D01*
X108273914Y-87342092D01*
X108129344Y-87125728D01*
X108029765Y-86885321D01*
X107979000Y-86630109D01*
X107979000Y-86369891D01*
X108029765Y-86114679D01*
X108129344Y-85874272D01*
X108273914Y-85657908D01*
X108457908Y-85473914D01*
X108674272Y-85329344D01*
X108844265Y-85258931D01*
X108914678Y-85229765D01*
X108999750Y-85212843D01*
X109169891Y-85179000D01*
X109430109Y-85179000D01*
X109600250Y-85212843D01*
X109600250Y-85212843D01*
G37*
G36*
X158151000Y-86651000D02*
X155849000Y-86651000D01*
X155849000Y-84349000D01*
X158151000Y-84349000D01*
X158151000Y-86651000D01*
X158151000Y-86651000D01*
G37*
G36*
X146964180Y-84355662D02*
X147065635Y-84365654D01*
X147282600Y-84431470D01*
X147282602Y-84431471D01*
X147282605Y-84431472D01*
X147482556Y-84538347D01*
X147657818Y-84682182D01*
X147801653Y-84857444D01*
X147908528Y-85057395D01*
X147908529Y-85057398D01*
X147908530Y-85057400D01*
X147974346Y-85274365D01*
X147996569Y-85500000D01*
X147974346Y-85725635D01*
X147929257Y-85874272D01*
X147908528Y-85942605D01*
X147801653Y-86142556D01*
X147657818Y-86317818D01*
X147482556Y-86461653D01*
X147282605Y-86568528D01*
X147282602Y-86568529D01*
X147282600Y-86568530D01*
X147065635Y-86634346D01*
X146964180Y-86644338D01*
X146896545Y-86651000D01*
X146783455Y-86651000D01*
X146715820Y-86644338D01*
X146614365Y-86634346D01*
X146397400Y-86568530D01*
X146397398Y-86568529D01*
X146397395Y-86568528D01*
X146197444Y-86461653D01*
X146022182Y-86317818D01*
X145878347Y-86142556D01*
X145771472Y-85942605D01*
X145750743Y-85874272D01*
X145705654Y-85725635D01*
X145683431Y-85500000D01*
X145705654Y-85274365D01*
X145771470Y-85057400D01*
X145771471Y-85057398D01*
X145771472Y-85057395D01*
X145878347Y-84857444D01*
X146022182Y-84682182D01*
X146197444Y-84538347D01*
X146397395Y-84431472D01*
X146397398Y-84431471D01*
X146397400Y-84431470D01*
X146614365Y-84365654D01*
X146715820Y-84355662D01*
X146783455Y-84349000D01*
X146896545Y-84349000D01*
X146964180Y-84355662D01*
X146964180Y-84355662D01*
G37*
G36*
X164835734Y-82393232D02*
X165045202Y-82479996D01*
X165233723Y-82605962D01*
X165394038Y-82766277D01*
X165520004Y-82954798D01*
X165606768Y-83164266D01*
X165651000Y-83386635D01*
X165651000Y-83613365D01*
X165606768Y-83835734D01*
X165520004Y-84045202D01*
X165394038Y-84233723D01*
X165233723Y-84394038D01*
X165045202Y-84520004D01*
X164835734Y-84606768D01*
X164613365Y-84651000D01*
X164386635Y-84651000D01*
X164164266Y-84606768D01*
X163954798Y-84520004D01*
X163766277Y-84394038D01*
X163605962Y-84233723D01*
X163479996Y-84045202D01*
X163393232Y-83835734D01*
X163349000Y-83613365D01*
X163349000Y-83386635D01*
X163393232Y-83164266D01*
X163479996Y-82954798D01*
X163605962Y-82766277D01*
X163766277Y-82605962D01*
X163954798Y-82479996D01*
X164164266Y-82393232D01*
X164386635Y-82349000D01*
X164613365Y-82349000D01*
X164835734Y-82393232D01*
X164835734Y-82393232D01*
G37*
G36*
X102835734Y-82393232D02*
X103045202Y-82479996D01*
X103233723Y-82605962D01*
X103394038Y-82766277D01*
X103520004Y-82954798D01*
X103606768Y-83164266D01*
X103651000Y-83386635D01*
X103651000Y-83613365D01*
X103606768Y-83835734D01*
X103520004Y-84045202D01*
X103394038Y-84233723D01*
X103233723Y-84394038D01*
X103045202Y-84520004D01*
X102835734Y-84606768D01*
X102613365Y-84651000D01*
X102386635Y-84651000D01*
X102164266Y-84606768D01*
X101954798Y-84520004D01*
X101766277Y-84394038D01*
X101605962Y-84233723D01*
X101479996Y-84045202D01*
X101393232Y-83835734D01*
X101349000Y-83613365D01*
X101349000Y-83386635D01*
X101393232Y-83164266D01*
X101479996Y-82954798D01*
X101605962Y-82766277D01*
X101766277Y-82605962D01*
X101954798Y-82479996D01*
X102164266Y-82393232D01*
X102386635Y-82349000D01*
X102613365Y-82349000D01*
X102835734Y-82393232D01*
X102835734Y-82393232D01*
G37*
G36*
X139000250Y-80012843D02*
X139085322Y-80029765D01*
X139155735Y-80058931D01*
X139325728Y-80129344D01*
X139542092Y-80273914D01*
X139726086Y-80457908D01*
X139870656Y-80674272D01*
X139970235Y-80914679D01*
X140021000Y-81169891D01*
X140021000Y-81430109D01*
X139970235Y-81685321D01*
X139870656Y-81925728D01*
X139726086Y-82142092D01*
X139542092Y-82326086D01*
X139325728Y-82470656D01*
X139155735Y-82541069D01*
X139085322Y-82570235D01*
X139000250Y-82587157D01*
X138830109Y-82621000D01*
X138569891Y-82621000D01*
X138399750Y-82587157D01*
X138314678Y-82570235D01*
X138244265Y-82541069D01*
X138074272Y-82470656D01*
X137857908Y-82326086D01*
X137673914Y-82142092D01*
X137529344Y-81925728D01*
X137429765Y-81685321D01*
X137379000Y-81430109D01*
X137379000Y-81169891D01*
X137429765Y-80914679D01*
X137529344Y-80674272D01*
X137673914Y-80457908D01*
X137857908Y-80273914D01*
X138074272Y-80129344D01*
X138244265Y-80058931D01*
X138314678Y-80029765D01*
X138399750Y-80012843D01*
X138569891Y-79979000D01*
X138830109Y-79979000D01*
X139000250Y-80012843D01*
X139000250Y-80012843D01*
G37*
G36*
X157949315Y-78954166D02*
X157993845Y-78967675D01*
X158034891Y-78989614D01*
X158070864Y-79019136D01*
X158100386Y-79055109D01*
X158122325Y-79096155D01*
X158135834Y-79140685D01*
X158141000Y-79193140D01*
X158141000Y-80606860D01*
X158135834Y-80659315D01*
X158122325Y-80703845D01*
X158100386Y-80744891D01*
X158070864Y-80780864D01*
X158034891Y-80810386D01*
X157993845Y-80832325D01*
X157949315Y-80845834D01*
X157896860Y-80851000D01*
X157183140Y-80851000D01*
X157130685Y-80845834D01*
X157086155Y-80832325D01*
X157045109Y-80810386D01*
X157009136Y-80780864D01*
X156979614Y-80744891D01*
X156957675Y-80703845D01*
X156944166Y-80659315D01*
X156939000Y-80606860D01*
X156939000Y-79193140D01*
X156944166Y-79140685D01*
X156957675Y-79096155D01*
X156979614Y-79055109D01*
X157009136Y-79019136D01*
X157045109Y-78989614D01*
X157086155Y-78967675D01*
X157130685Y-78954166D01*
X157183140Y-78949000D01*
X157896860Y-78949000D01*
X157949315Y-78954166D01*
X157949315Y-78954166D01*
G37*
G36*
X155601000Y-80851000D02*
X154399000Y-80851000D01*
X154399000Y-78949000D01*
X155601000Y-78949000D01*
X155601000Y-80851000D01*
X155601000Y-80851000D01*
G37*
G36*
X147351000Y-79351000D02*
X145649000Y-79351000D01*
X145649000Y-77649000D01*
X147351000Y-77649000D01*
X147351000Y-79351000D01*
X147351000Y-79351000D01*
G37*
G36*
X150248228Y-77681703D02*
X150403100Y-77745853D01*
X150542481Y-77838985D01*
X150661015Y-77957519D01*
X150754147Y-78096900D01*
X150818297Y-78251772D01*
X150851000Y-78416184D01*
X150851000Y-78583816D01*
X150818297Y-78748228D01*
X150754147Y-78903100D01*
X150661015Y-79042481D01*
X150542481Y-79161015D01*
X150403100Y-79254147D01*
X150248228Y-79318297D01*
X150083816Y-79351000D01*
X149916184Y-79351000D01*
X149751772Y-79318297D01*
X149596900Y-79254147D01*
X149457519Y-79161015D01*
X149338985Y-79042481D01*
X149245853Y-78903100D01*
X149181703Y-78748228D01*
X149149000Y-78583816D01*
X149149000Y-78416184D01*
X149181703Y-78251772D01*
X149245853Y-78096900D01*
X149338985Y-77957519D01*
X149457519Y-77838985D01*
X149596900Y-77745853D01*
X149751772Y-77681703D01*
X149916184Y-77649000D01*
X150083816Y-77649000D01*
X150248228Y-77681703D01*
X150248228Y-77681703D01*
G37*
G36*
X156679315Y-76884166D02*
X156723845Y-76897675D01*
X156764891Y-76919614D01*
X156800864Y-76949136D01*
X156830386Y-76985109D01*
X156852325Y-77026155D01*
X156865834Y-77070685D01*
X156871000Y-77123140D01*
X156871000Y-78536860D01*
X156865834Y-78589315D01*
X156852325Y-78633845D01*
X156830386Y-78674891D01*
X156800864Y-78710864D01*
X156764891Y-78740386D01*
X156723845Y-78762325D01*
X156679315Y-78775834D01*
X156626860Y-78781000D01*
X155913140Y-78781000D01*
X155860685Y-78775834D01*
X155816158Y-78762326D01*
X155784926Y-78745632D01*
X155772261Y-78740386D01*
X155768343Y-78735612D01*
X155759253Y-78727372D01*
X155739133Y-78710861D01*
X155709614Y-78674891D01*
X155687675Y-78633845D01*
X155674166Y-78589315D01*
X155669000Y-78536860D01*
X155669000Y-77123140D01*
X155674166Y-77070685D01*
X155687675Y-77026155D01*
X155709614Y-76985109D01*
X155739136Y-76949136D01*
X155775109Y-76919614D01*
X155816155Y-76897675D01*
X155860685Y-76884166D01*
X155913140Y-76879000D01*
X156626860Y-76879000D01*
X156679315Y-76884166D01*
X156679315Y-76884166D01*
G37*
G36*
X122861000Y-72901000D02*
X121059000Y-72901000D01*
X121059000Y-71099000D01*
X122861000Y-71099000D01*
X122861000Y-72901000D01*
X122861000Y-72901000D01*
G37*
G36*
X127150443Y-71105519D02*
X127216627Y-71112037D01*
X127329853Y-71146384D01*
X127386467Y-71163557D01*
X127473311Y-71209977D01*
X127542991Y-71247222D01*
X127578729Y-71276552D01*
X127680186Y-71359814D01*
X127760369Y-71457519D01*
X127792778Y-71497009D01*
X127792779Y-71497011D01*
X127876443Y-71653533D01*
X127893616Y-71710147D01*
X127927963Y-71823373D01*
X127945359Y-72000000D01*
X127927963Y-72176627D01*
X127906243Y-72248228D01*
X127876443Y-72346467D01*
X127807698Y-72475078D01*
X127792778Y-72502991D01*
X127763448Y-72538729D01*
X127680186Y-72640186D01*
X127578729Y-72723448D01*
X127542991Y-72752778D01*
X127542989Y-72752779D01*
X127386467Y-72836443D01*
X127379069Y-72838687D01*
X127216627Y-72887963D01*
X127150443Y-72894481D01*
X127084260Y-72901000D01*
X126995740Y-72901000D01*
X126929557Y-72894481D01*
X126863373Y-72887963D01*
X126700931Y-72838687D01*
X126693533Y-72836443D01*
X126537011Y-72752779D01*
X126537009Y-72752778D01*
X126501271Y-72723448D01*
X126399814Y-72640186D01*
X126316552Y-72538729D01*
X126287222Y-72502991D01*
X126272302Y-72475078D01*
X126203557Y-72346467D01*
X126173757Y-72248228D01*
X126152037Y-72176627D01*
X126134641Y-72000000D01*
X126152037Y-71823373D01*
X126186384Y-71710147D01*
X126203557Y-71653533D01*
X126287221Y-71497011D01*
X126287222Y-71497009D01*
X126319631Y-71457519D01*
X126399814Y-71359814D01*
X126501271Y-71276552D01*
X126537009Y-71247222D01*
X126606689Y-71209977D01*
X126693533Y-71163557D01*
X126750147Y-71146384D01*
X126863373Y-71112037D01*
X126929557Y-71105519D01*
X126995740Y-71099000D01*
X127084260Y-71099000D01*
X127150443Y-71105519D01*
X127150443Y-71105519D01*
G37*
G36*
X124610443Y-71105519D02*
X124676627Y-71112037D01*
X124789853Y-71146384D01*
X124846467Y-71163557D01*
X124933311Y-71209977D01*
X125002991Y-71247222D01*
X125038729Y-71276552D01*
X125140186Y-71359814D01*
X125220369Y-71457519D01*
X125252778Y-71497009D01*
X125252779Y-71497011D01*
X125336443Y-71653533D01*
X125353616Y-71710147D01*
X125387963Y-71823373D01*
X125405359Y-72000000D01*
X125387963Y-72176627D01*
X125366243Y-72248228D01*
X125336443Y-72346467D01*
X125267698Y-72475078D01*
X125252778Y-72502991D01*
X125223448Y-72538729D01*
X125140186Y-72640186D01*
X125038729Y-72723448D01*
X125002991Y-72752778D01*
X125002989Y-72752779D01*
X124846467Y-72836443D01*
X124839069Y-72838687D01*
X124676627Y-72887963D01*
X124610443Y-72894481D01*
X124544260Y-72901000D01*
X124455740Y-72901000D01*
X124389557Y-72894481D01*
X124323373Y-72887963D01*
X124160931Y-72838687D01*
X124153533Y-72836443D01*
X123997011Y-72752779D01*
X123997009Y-72752778D01*
X123961271Y-72723448D01*
X123859814Y-72640186D01*
X123776552Y-72538729D01*
X123747222Y-72502991D01*
X123732302Y-72475078D01*
X123663557Y-72346467D01*
X123633757Y-72248228D01*
X123612037Y-72176627D01*
X123594641Y-72000000D01*
X123612037Y-71823373D01*
X123646384Y-71710147D01*
X123663557Y-71653533D01*
X123747221Y-71497011D01*
X123747222Y-71497009D01*
X123779631Y-71457519D01*
X123859814Y-71359814D01*
X123961271Y-71276552D01*
X123997009Y-71247222D01*
X124066689Y-71209977D01*
X124153533Y-71163557D01*
X124210147Y-71146384D01*
X124323373Y-71112037D01*
X124389557Y-71105519D01*
X124455740Y-71099000D01*
X124544260Y-71099000D01*
X124610443Y-71105519D01*
X124610443Y-71105519D01*
G37*
G36*
X146506821Y-71161313D02*
X146506824Y-71161314D01*
X146506825Y-71161314D01*
X146667239Y-71209975D01*
X146667241Y-71209976D01*
X146667244Y-71209977D01*
X146815078Y-71288995D01*
X146944659Y-71395341D01*
X147051005Y-71524922D01*
X147130023Y-71672756D01*
X147130024Y-71672759D01*
X147130025Y-71672761D01*
X147175713Y-71823375D01*
X147178687Y-71833179D01*
X147195117Y-72000000D01*
X147178687Y-72166821D01*
X147178686Y-72166824D01*
X147178686Y-72166825D01*
X147153993Y-72248228D01*
X147130023Y-72327244D01*
X147051005Y-72475078D01*
X146944659Y-72604659D01*
X146815078Y-72711005D01*
X146667244Y-72790023D01*
X146667241Y-72790024D01*
X146667239Y-72790025D01*
X146506825Y-72838686D01*
X146506824Y-72838686D01*
X146506821Y-72838687D01*
X146381804Y-72851000D01*
X146298196Y-72851000D01*
X146173179Y-72838687D01*
X146173176Y-72838686D01*
X146173175Y-72838686D01*
X146012761Y-72790025D01*
X146012759Y-72790024D01*
X146012756Y-72790023D01*
X145864922Y-72711005D01*
X145735341Y-72604659D01*
X145628995Y-72475078D01*
X145549977Y-72327244D01*
X145526008Y-72248228D01*
X145501314Y-72166825D01*
X145501314Y-72166824D01*
X145501313Y-72166821D01*
X145484883Y-72000000D01*
X145501313Y-71833179D01*
X145504287Y-71823375D01*
X145549975Y-71672761D01*
X145549976Y-71672759D01*
X145549977Y-71672756D01*
X145628995Y-71524922D01*
X145735341Y-71395341D01*
X145864922Y-71288995D01*
X146012756Y-71209977D01*
X146012759Y-71209976D01*
X146012761Y-71209975D01*
X146173175Y-71161314D01*
X146173176Y-71161314D01*
X146173179Y-71161313D01*
X146298196Y-71149000D01*
X146381804Y-71149000D01*
X146506821Y-71161313D01*
X146506821Y-71161313D01*
G37*
G36*
X156748228Y-71181703D02*
X156903100Y-71245853D01*
X157042481Y-71338985D01*
X157161015Y-71457519D01*
X157254147Y-71596900D01*
X157318297Y-71751772D01*
X157351000Y-71916184D01*
X157351000Y-72083816D01*
X157318297Y-72248228D01*
X157254147Y-72403100D01*
X157161015Y-72542481D01*
X157042481Y-72661015D01*
X156903100Y-72754147D01*
X156748228Y-72818297D01*
X156583816Y-72851000D01*
X156416184Y-72851000D01*
X156251772Y-72818297D01*
X156096900Y-72754147D01*
X155957519Y-72661015D01*
X155838985Y-72542481D01*
X155745853Y-72403100D01*
X155681703Y-72248228D01*
X155649000Y-72083816D01*
X155649000Y-71916184D01*
X155681703Y-71751772D01*
X155745853Y-71596900D01*
X155838985Y-71457519D01*
X155957519Y-71338985D01*
X156096900Y-71245853D01*
X156251772Y-71181703D01*
X156416184Y-71149000D01*
X156583816Y-71149000D01*
X156748228Y-71181703D01*
X156748228Y-71181703D01*
G37*
G36*
X149606691Y-67755509D02*
X149719059Y-67777860D01*
X149855732Y-67834472D01*
X149855733Y-67834473D01*
X149978738Y-67916662D01*
X150083338Y-68021262D01*
X150083340Y-68021265D01*
X150165528Y-68144268D01*
X150222140Y-68280941D01*
X150251000Y-68426033D01*
X150251000Y-68573967D01*
X150222140Y-68719059D01*
X150165528Y-68855732D01*
X150165527Y-68855733D01*
X150083338Y-68978738D01*
X149978738Y-69083338D01*
X149978735Y-69083340D01*
X149855732Y-69165528D01*
X149719059Y-69222140D01*
X149632004Y-69239456D01*
X149573969Y-69251000D01*
X149426031Y-69251000D01*
X149367996Y-69239456D01*
X149280941Y-69222140D01*
X149144268Y-69165528D01*
X149021265Y-69083340D01*
X149021262Y-69083338D01*
X148916662Y-68978738D01*
X148834473Y-68855733D01*
X148834472Y-68855732D01*
X148777860Y-68719059D01*
X148749000Y-68573967D01*
X148749000Y-68426033D01*
X148777860Y-68280941D01*
X148834472Y-68144268D01*
X148916660Y-68021265D01*
X148916662Y-68021262D01*
X149021262Y-67916662D01*
X149144267Y-67834473D01*
X149144268Y-67834472D01*
X149280941Y-67777860D01*
X149393309Y-67755509D01*
X149426031Y-67749000D01*
X149573969Y-67749000D01*
X149606691Y-67755509D01*
X149606691Y-67755509D01*
G37*
G36*
X156151000Y-67220104D02*
X156153402Y-67244490D01*
X156160515Y-67267939D01*
X156172066Y-67289550D01*
X156187612Y-67308492D01*
X156206554Y-67324038D01*
X156228165Y-67335589D01*
X156251614Y-67342702D01*
X156276000Y-67345104D01*
X156300386Y-67342702D01*
X156323835Y-67335589D01*
X156345446Y-67324038D01*
X156364388Y-67308492D01*
X156379934Y-67289550D01*
X156391485Y-67267939D01*
X156423089Y-67191639D01*
X156494338Y-67085008D01*
X156585008Y-66994338D01*
X156691639Y-66923089D01*
X156810110Y-66874017D01*
X156935881Y-66849000D01*
X157064119Y-66849000D01*
X157189890Y-66874017D01*
X157308361Y-66923089D01*
X157414992Y-66994338D01*
X157505662Y-67085008D01*
X157576911Y-67191639D01*
X157625983Y-67310110D01*
X157651000Y-67435881D01*
X157651000Y-67564119D01*
X157625983Y-67689890D01*
X157576911Y-67808361D01*
X157505662Y-67914992D01*
X157414992Y-68005662D01*
X157308361Y-68076911D01*
X157189890Y-68125983D01*
X157064119Y-68151000D01*
X156935881Y-68151000D01*
X156810110Y-68125983D01*
X156691639Y-68076911D01*
X156585008Y-68005662D01*
X156494338Y-67914992D01*
X156423089Y-67808361D01*
X156391485Y-67732061D01*
X156379934Y-67710450D01*
X156364389Y-67691508D01*
X156345447Y-67675963D01*
X156323836Y-67664411D01*
X156300387Y-67657298D01*
X156276001Y-67654896D01*
X156251614Y-67657298D01*
X156228165Y-67664411D01*
X156206554Y-67675962D01*
X156187612Y-67691507D01*
X156172067Y-67710449D01*
X156160515Y-67732060D01*
X156153402Y-67755509D01*
X156151000Y-67779896D01*
X156151000Y-68151000D01*
X154849000Y-68151000D01*
X154849000Y-66849000D01*
X156151000Y-66849000D01*
X156151000Y-67220104D01*
X156151000Y-67220104D01*
G37*
G36*
X125896820Y-64261313D02*
X125896823Y-64261314D01*
X125896824Y-64261314D01*
X126057238Y-64309975D01*
X126057240Y-64309976D01*
X126057243Y-64309977D01*
X126205078Y-64388995D01*
X126334659Y-64495341D01*
X126441005Y-64624922D01*
X126520023Y-64772756D01*
X126568687Y-64933179D01*
X126581000Y-65058196D01*
X126581000Y-65941803D01*
X126568687Y-66066820D01*
X126568686Y-66066822D01*
X126568686Y-66066825D01*
X126520025Y-66227239D01*
X126520023Y-66227244D01*
X126441005Y-66375078D01*
X126334659Y-66504659D01*
X126205078Y-66611005D01*
X126057244Y-66690023D01*
X126057241Y-66690024D01*
X126057239Y-66690025D01*
X125896825Y-66738686D01*
X125896824Y-66738686D01*
X125896821Y-66738687D01*
X125730000Y-66755117D01*
X125563180Y-66738687D01*
X125563177Y-66738686D01*
X125563176Y-66738686D01*
X125402762Y-66690025D01*
X125402760Y-66690024D01*
X125402757Y-66690023D01*
X125254923Y-66611005D01*
X125125342Y-66504659D01*
X125018996Y-66375078D01*
X124939978Y-66227244D01*
X124891314Y-66066821D01*
X124879000Y-65941803D01*
X124879000Y-65058197D01*
X124891313Y-64933180D01*
X124891314Y-64933176D01*
X124939975Y-64772762D01*
X124939976Y-64772760D01*
X124939977Y-64772757D01*
X125018995Y-64624922D01*
X125125341Y-64495341D01*
X125254922Y-64388995D01*
X125402756Y-64309977D01*
X125402759Y-64309976D01*
X125402761Y-64309975D01*
X125563175Y-64261314D01*
X125563176Y-64261314D01*
X125563179Y-64261313D01*
X125730000Y-64244883D01*
X125896820Y-64261313D01*
X125896820Y-64261313D01*
G37*
G36*
X128436820Y-64261313D02*
X128436823Y-64261314D01*
X128436824Y-64261314D01*
X128597238Y-64309975D01*
X128597240Y-64309976D01*
X128597243Y-64309977D01*
X128745078Y-64388995D01*
X128874659Y-64495341D01*
X128981005Y-64624922D01*
X129060023Y-64772756D01*
X129108687Y-64933179D01*
X129121000Y-65058196D01*
X129121000Y-65941803D01*
X129108687Y-66066820D01*
X129108686Y-66066822D01*
X129108686Y-66066825D01*
X129060025Y-66227239D01*
X129060023Y-66227244D01*
X128981005Y-66375078D01*
X128874659Y-66504659D01*
X128745078Y-66611005D01*
X128597244Y-66690023D01*
X128597241Y-66690024D01*
X128597239Y-66690025D01*
X128436825Y-66738686D01*
X128436824Y-66738686D01*
X128436821Y-66738687D01*
X128270000Y-66755117D01*
X128103180Y-66738687D01*
X128103177Y-66738686D01*
X128103176Y-66738686D01*
X127942762Y-66690025D01*
X127942760Y-66690024D01*
X127942757Y-66690023D01*
X127794923Y-66611005D01*
X127665342Y-66504659D01*
X127558996Y-66375078D01*
X127479978Y-66227244D01*
X127431314Y-66066821D01*
X127419000Y-65941803D01*
X127419000Y-65058197D01*
X127431313Y-64933180D01*
X127431314Y-64933176D01*
X127479975Y-64772762D01*
X127479976Y-64772760D01*
X127479977Y-64772757D01*
X127558995Y-64624922D01*
X127665341Y-64495341D01*
X127794922Y-64388995D01*
X127942756Y-64309977D01*
X127942759Y-64309976D01*
X127942761Y-64309975D01*
X128103175Y-64261314D01*
X128103176Y-64261314D01*
X128103179Y-64261313D01*
X128270000Y-64244883D01*
X128436820Y-64261313D01*
X128436820Y-64261313D01*
G37*
G36*
X123356820Y-64261313D02*
X123356823Y-64261314D01*
X123356824Y-64261314D01*
X123517238Y-64309975D01*
X123517240Y-64309976D01*
X123517243Y-64309977D01*
X123665078Y-64388995D01*
X123794659Y-64495341D01*
X123901005Y-64624922D01*
X123980023Y-64772756D01*
X124028687Y-64933179D01*
X124041000Y-65058196D01*
X124041000Y-65941803D01*
X124028687Y-66066820D01*
X124028686Y-66066822D01*
X124028686Y-66066825D01*
X123980025Y-66227239D01*
X123980023Y-66227244D01*
X123901005Y-66375078D01*
X123794659Y-66504659D01*
X123665078Y-66611005D01*
X123517244Y-66690023D01*
X123517241Y-66690024D01*
X123517239Y-66690025D01*
X123356825Y-66738686D01*
X123356824Y-66738686D01*
X123356821Y-66738687D01*
X123190000Y-66755117D01*
X123023180Y-66738687D01*
X123023177Y-66738686D01*
X123023176Y-66738686D01*
X122862762Y-66690025D01*
X122862760Y-66690024D01*
X122862757Y-66690023D01*
X122714923Y-66611005D01*
X122585342Y-66504659D01*
X122478996Y-66375078D01*
X122399978Y-66227244D01*
X122351314Y-66066821D01*
X122339000Y-65941803D01*
X122339000Y-65058197D01*
X122351313Y-64933180D01*
X122351314Y-64933176D01*
X122399975Y-64772762D01*
X122399976Y-64772760D01*
X122399977Y-64772757D01*
X122478995Y-64624922D01*
X122585341Y-64495341D01*
X122714922Y-64388995D01*
X122862756Y-64309977D01*
X122862759Y-64309976D01*
X122862761Y-64309975D01*
X123023175Y-64261314D01*
X123023176Y-64261314D01*
X123023179Y-64261313D01*
X123190000Y-64244883D01*
X123356820Y-64261313D01*
X123356820Y-64261313D01*
G37*
G36*
X121501000Y-66751000D02*
X119799000Y-66751000D01*
X119799000Y-64249000D01*
X121501000Y-64249000D01*
X121501000Y-66751000D01*
X121501000Y-66751000D01*
G37*
G36*
X149573665Y-62672622D02*
X149647222Y-62679867D01*
X149788786Y-62722810D01*
X149919252Y-62792546D01*
X150033606Y-62886394D01*
X150127454Y-63000748D01*
X150197190Y-63131214D01*
X150240133Y-63272778D01*
X150254633Y-63420000D01*
X150240133Y-63567222D01*
X150197190Y-63708786D01*
X150127454Y-63839252D01*
X150033606Y-63953606D01*
X149919252Y-64047454D01*
X149788786Y-64117190D01*
X149647222Y-64160133D01*
X149573665Y-64167378D01*
X149536888Y-64171000D01*
X149463112Y-64171000D01*
X149426335Y-64167378D01*
X149352778Y-64160133D01*
X149211214Y-64117190D01*
X149080748Y-64047454D01*
X148966394Y-63953606D01*
X148872546Y-63839252D01*
X148802810Y-63708786D01*
X148759867Y-63567222D01*
X148745367Y-63420000D01*
X148759867Y-63272778D01*
X148802810Y-63131214D01*
X148872546Y-63000748D01*
X148966394Y-62886394D01*
X149080748Y-62792546D01*
X149211214Y-62722810D01*
X149352778Y-62679867D01*
X149426335Y-62672622D01*
X149463112Y-62669000D01*
X149536888Y-62669000D01*
X149573665Y-62672622D01*
X149573665Y-62672622D01*
G37*
G36*
X151125589Y-58238876D02*
X151224893Y-58258629D01*
X151365206Y-58316748D01*
X151491484Y-58401125D01*
X151598875Y-58508516D01*
X151683252Y-58634794D01*
X151741371Y-58775107D01*
X151771000Y-58924063D01*
X151771000Y-59075937D01*
X151741371Y-59224893D01*
X151683252Y-59365206D01*
X151598875Y-59491484D01*
X151491484Y-59598875D01*
X151365206Y-59683252D01*
X151224893Y-59741371D01*
X151125589Y-59761124D01*
X151075938Y-59771000D01*
X150924062Y-59771000D01*
X150874411Y-59761124D01*
X150775107Y-59741371D01*
X150634794Y-59683252D01*
X150508516Y-59598875D01*
X150401125Y-59491484D01*
X150316748Y-59365206D01*
X150258629Y-59224893D01*
X150229000Y-59075937D01*
X150229000Y-58924063D01*
X150258629Y-58775107D01*
X150316748Y-58634794D01*
X150401125Y-58508516D01*
X150508516Y-58401125D01*
X150634794Y-58316748D01*
X150775107Y-58258629D01*
X150874411Y-58238876D01*
X150924062Y-58229000D01*
X151075938Y-58229000D01*
X151125589Y-58238876D01*
X151125589Y-58238876D01*
G37*
G36*
X156205589Y-58238876D02*
X156304893Y-58258629D01*
X156445206Y-58316748D01*
X156571484Y-58401125D01*
X156678875Y-58508516D01*
X156763252Y-58634794D01*
X156821371Y-58775107D01*
X156851000Y-58924063D01*
X156851000Y-59075937D01*
X156821371Y-59224893D01*
X156763252Y-59365206D01*
X156678875Y-59491484D01*
X156571484Y-59598875D01*
X156445206Y-59683252D01*
X156304893Y-59741371D01*
X156205589Y-59761124D01*
X156155938Y-59771000D01*
X156004062Y-59771000D01*
X155954411Y-59761124D01*
X155855107Y-59741371D01*
X155714794Y-59683252D01*
X155588516Y-59598875D01*
X155481125Y-59491484D01*
X155396748Y-59365206D01*
X155338629Y-59224893D01*
X155309000Y-59075937D01*
X155309000Y-58924063D01*
X155338629Y-58775107D01*
X155396748Y-58634794D01*
X155481125Y-58508516D01*
X155588516Y-58401125D01*
X155714794Y-58316748D01*
X155855107Y-58258629D01*
X155954411Y-58238876D01*
X156004062Y-58229000D01*
X156155938Y-58229000D01*
X156205589Y-58238876D01*
X156205589Y-58238876D01*
G37*
G36*
X153665589Y-58238876D02*
X153764893Y-58258629D01*
X153905206Y-58316748D01*
X154031484Y-58401125D01*
X154138875Y-58508516D01*
X154223252Y-58634794D01*
X154281371Y-58775107D01*
X154311000Y-58924063D01*
X154311000Y-59075937D01*
X154281371Y-59224893D01*
X154223252Y-59365206D01*
X154138875Y-59491484D01*
X154031484Y-59598875D01*
X153905206Y-59683252D01*
X153764893Y-59741371D01*
X153665589Y-59761124D01*
X153615938Y-59771000D01*
X153464062Y-59771000D01*
X153414411Y-59761124D01*
X153315107Y-59741371D01*
X153174794Y-59683252D01*
X153048516Y-59598875D01*
X152941125Y-59491484D01*
X152856748Y-59365206D01*
X152798629Y-59224893D01*
X152769000Y-59075937D01*
X152769000Y-58924063D01*
X152798629Y-58775107D01*
X152856748Y-58634794D01*
X152941125Y-58508516D01*
X153048516Y-58401125D01*
X153174794Y-58316748D01*
X153315107Y-58258629D01*
X153414411Y-58238876D01*
X153464062Y-58229000D01*
X153615938Y-58229000D01*
X153665589Y-58238876D01*
X153665589Y-58238876D01*
G37*
G36*
X125896820Y-56641313D02*
X125896823Y-56641314D01*
X125896824Y-56641314D01*
X126057238Y-56689975D01*
X126057240Y-56689976D01*
X126057243Y-56689977D01*
X126205078Y-56768995D01*
X126334659Y-56875341D01*
X126441005Y-57004922D01*
X126520023Y-57152756D01*
X126520023Y-57152757D01*
X126520025Y-57152761D01*
X126568686Y-57313175D01*
X126568687Y-57313179D01*
X126581000Y-57438196D01*
X126581000Y-58321803D01*
X126568687Y-58446820D01*
X126568686Y-58446822D01*
X126568686Y-58446825D01*
X126549972Y-58508516D01*
X126520023Y-58607244D01*
X126441005Y-58755078D01*
X126334659Y-58884659D01*
X126205078Y-58991005D01*
X126057244Y-59070023D01*
X126057241Y-59070024D01*
X126057239Y-59070025D01*
X125896825Y-59118686D01*
X125896824Y-59118686D01*
X125896821Y-59118687D01*
X125730000Y-59135117D01*
X125563180Y-59118687D01*
X125563177Y-59118686D01*
X125563176Y-59118686D01*
X125402762Y-59070025D01*
X125402760Y-59070024D01*
X125402757Y-59070023D01*
X125254923Y-58991005D01*
X125125342Y-58884659D01*
X125018996Y-58755078D01*
X124939978Y-58607244D01*
X124891314Y-58446821D01*
X124879000Y-58321803D01*
X124879000Y-57438197D01*
X124891313Y-57313180D01*
X124891314Y-57313176D01*
X124939975Y-57152762D01*
X124939976Y-57152760D01*
X124939977Y-57152757D01*
X125018995Y-57004922D01*
X125125341Y-56875341D01*
X125254922Y-56768995D01*
X125402756Y-56689977D01*
X125402759Y-56689976D01*
X125402761Y-56689975D01*
X125563175Y-56641314D01*
X125563176Y-56641314D01*
X125563179Y-56641313D01*
X125730000Y-56624883D01*
X125896820Y-56641313D01*
X125896820Y-56641313D01*
G37*
G36*
X128436820Y-56641313D02*
X128436823Y-56641314D01*
X128436824Y-56641314D01*
X128597238Y-56689975D01*
X128597240Y-56689976D01*
X128597243Y-56689977D01*
X128745078Y-56768995D01*
X128874659Y-56875341D01*
X128981005Y-57004922D01*
X129060023Y-57152756D01*
X129060023Y-57152757D01*
X129060025Y-57152761D01*
X129108686Y-57313175D01*
X129108687Y-57313179D01*
X129121000Y-57438196D01*
X129121000Y-58321803D01*
X129108687Y-58446820D01*
X129108686Y-58446822D01*
X129108686Y-58446825D01*
X129089972Y-58508516D01*
X129060023Y-58607244D01*
X128981005Y-58755078D01*
X128874659Y-58884659D01*
X128745078Y-58991005D01*
X128597244Y-59070023D01*
X128597241Y-59070024D01*
X128597239Y-59070025D01*
X128436825Y-59118686D01*
X128436824Y-59118686D01*
X128436821Y-59118687D01*
X128270000Y-59135117D01*
X128103180Y-59118687D01*
X128103177Y-59118686D01*
X128103176Y-59118686D01*
X127942762Y-59070025D01*
X127942760Y-59070024D01*
X127942757Y-59070023D01*
X127794923Y-58991005D01*
X127665342Y-58884659D01*
X127558996Y-58755078D01*
X127479978Y-58607244D01*
X127431314Y-58446821D01*
X127419000Y-58321803D01*
X127419000Y-57438197D01*
X127431313Y-57313180D01*
X127431314Y-57313176D01*
X127479975Y-57152762D01*
X127479976Y-57152760D01*
X127479977Y-57152757D01*
X127558995Y-57004922D01*
X127665341Y-56875341D01*
X127794922Y-56768995D01*
X127942756Y-56689977D01*
X127942759Y-56689976D01*
X127942761Y-56689975D01*
X128103175Y-56641314D01*
X128103176Y-56641314D01*
X128103179Y-56641313D01*
X128270000Y-56624883D01*
X128436820Y-56641313D01*
X128436820Y-56641313D01*
G37*
G36*
X120816820Y-56641313D02*
X120816823Y-56641314D01*
X120816824Y-56641314D01*
X120977238Y-56689975D01*
X120977240Y-56689976D01*
X120977243Y-56689977D01*
X121125078Y-56768995D01*
X121254659Y-56875341D01*
X121361005Y-57004922D01*
X121440023Y-57152756D01*
X121440023Y-57152757D01*
X121440025Y-57152761D01*
X121488686Y-57313175D01*
X121488687Y-57313179D01*
X121501000Y-57438196D01*
X121501000Y-58321803D01*
X121488687Y-58446820D01*
X121488686Y-58446822D01*
X121488686Y-58446825D01*
X121469972Y-58508516D01*
X121440023Y-58607244D01*
X121361005Y-58755078D01*
X121254659Y-58884659D01*
X121125078Y-58991005D01*
X120977244Y-59070023D01*
X120977241Y-59070024D01*
X120977239Y-59070025D01*
X120816825Y-59118686D01*
X120816824Y-59118686D01*
X120816821Y-59118687D01*
X120650000Y-59135117D01*
X120483180Y-59118687D01*
X120483177Y-59118686D01*
X120483176Y-59118686D01*
X120322762Y-59070025D01*
X120322760Y-59070024D01*
X120322757Y-59070023D01*
X120174923Y-58991005D01*
X120045342Y-58884659D01*
X119938996Y-58755078D01*
X119859978Y-58607244D01*
X119811314Y-58446821D01*
X119799000Y-58321803D01*
X119799000Y-57438197D01*
X119811313Y-57313180D01*
X119811314Y-57313176D01*
X119859975Y-57152762D01*
X119859976Y-57152760D01*
X119859977Y-57152757D01*
X119938995Y-57004922D01*
X120045341Y-56875341D01*
X120174922Y-56768995D01*
X120322756Y-56689977D01*
X120322759Y-56689976D01*
X120322761Y-56689975D01*
X120483175Y-56641314D01*
X120483176Y-56641314D01*
X120483179Y-56641313D01*
X120650000Y-56624883D01*
X120816820Y-56641313D01*
X120816820Y-56641313D01*
G37*
G36*
X123356820Y-56641313D02*
X123356823Y-56641314D01*
X123356824Y-56641314D01*
X123517238Y-56689975D01*
X123517240Y-56689976D01*
X123517243Y-56689977D01*
X123665078Y-56768995D01*
X123794659Y-56875341D01*
X123901005Y-57004922D01*
X123980023Y-57152756D01*
X123980023Y-57152757D01*
X123980025Y-57152761D01*
X124028686Y-57313175D01*
X124028687Y-57313179D01*
X124041000Y-57438196D01*
X124041000Y-58321803D01*
X124028687Y-58446820D01*
X124028686Y-58446822D01*
X124028686Y-58446825D01*
X124009972Y-58508516D01*
X123980023Y-58607244D01*
X123901005Y-58755078D01*
X123794659Y-58884659D01*
X123665078Y-58991005D01*
X123517244Y-59070023D01*
X123517241Y-59070024D01*
X123517239Y-59070025D01*
X123356825Y-59118686D01*
X123356824Y-59118686D01*
X123356821Y-59118687D01*
X123190000Y-59135117D01*
X123023180Y-59118687D01*
X123023177Y-59118686D01*
X123023176Y-59118686D01*
X122862762Y-59070025D01*
X122862760Y-59070024D01*
X122862757Y-59070023D01*
X122714923Y-58991005D01*
X122585342Y-58884659D01*
X122478996Y-58755078D01*
X122399978Y-58607244D01*
X122351314Y-58446821D01*
X122339000Y-58321803D01*
X122339000Y-57438197D01*
X122351313Y-57313180D01*
X122351314Y-57313176D01*
X122399975Y-57152762D01*
X122399976Y-57152760D01*
X122399977Y-57152757D01*
X122478995Y-57004922D01*
X122585341Y-56875341D01*
X122714922Y-56768995D01*
X122862756Y-56689977D01*
X122862759Y-56689976D01*
X122862761Y-56689975D01*
X123023175Y-56641314D01*
X123023176Y-56641314D01*
X123023179Y-56641313D01*
X123190000Y-56624883D01*
X123356820Y-56641313D01*
X123356820Y-56641313D01*
G37*
G36*
X132248228Y-56681703D02*
X132403100Y-56745853D01*
X132542481Y-56838985D01*
X132661015Y-56957519D01*
X132754147Y-57096900D01*
X132818297Y-57251772D01*
X132851000Y-57416184D01*
X132851000Y-57583816D01*
X132818297Y-57748228D01*
X132754147Y-57903100D01*
X132661015Y-58042481D01*
X132542481Y-58161015D01*
X132403100Y-58254147D01*
X132248228Y-58318297D01*
X132083816Y-58351000D01*
X131916184Y-58351000D01*
X131751772Y-58318297D01*
X131596900Y-58254147D01*
X131457519Y-58161015D01*
X131338985Y-58042481D01*
X131245853Y-57903100D01*
X131181703Y-57748228D01*
X131149000Y-57583816D01*
X131149000Y-57416184D01*
X131181703Y-57251772D01*
X131245853Y-57096900D01*
X131338985Y-56957519D01*
X131457519Y-56838985D01*
X131596900Y-56745853D01*
X131751772Y-56681703D01*
X131916184Y-56649000D01*
X132083816Y-56649000D01*
X132248228Y-56681703D01*
X132248228Y-56681703D01*
G37*
G36*
X134748228Y-56681703D02*
X134903100Y-56745853D01*
X135042481Y-56838985D01*
X135161015Y-56957519D01*
X135254147Y-57096900D01*
X135318297Y-57251772D01*
X135351000Y-57416184D01*
X135351000Y-57583816D01*
X135318297Y-57748228D01*
X135254147Y-57903100D01*
X135161015Y-58042481D01*
X135042481Y-58161015D01*
X134903100Y-58254147D01*
X134748228Y-58318297D01*
X134583816Y-58351000D01*
X134416184Y-58351000D01*
X134251772Y-58318297D01*
X134096900Y-58254147D01*
X133957519Y-58161015D01*
X133838985Y-58042481D01*
X133745853Y-57903100D01*
X133681703Y-57748228D01*
X133649000Y-57583816D01*
X133649000Y-57416184D01*
X133681703Y-57251772D01*
X133745853Y-57096900D01*
X133838985Y-56957519D01*
X133957519Y-56838985D01*
X134096900Y-56745853D01*
X134251772Y-56681703D01*
X134416184Y-56649000D01*
X134583816Y-56649000D01*
X134748228Y-56681703D01*
X134748228Y-56681703D01*
G37*
M02*
