G04 #@! TF.GenerationSoftware,KiCad,Pcbnew,5.0.2-bee76a0~70~ubuntu18.04.1*
G04 #@! TF.CreationDate,2020-07-21T15:58:49+05:30*
G04 #@! TF.ProjectId,switch_board_v1.1,73776974-6368-45f6-926f-6172645f7631,rev?*
G04 #@! TF.SameCoordinates,Original*
G04 #@! TF.FileFunction,Legend,Bot*
G04 #@! TF.FilePolarity,Positive*
%FSLAX46Y46*%
G04 Gerber Fmt 4.6, Leading zero omitted, Abs format (unit mm)*
G04 Created by KiCad (PCBNEW 5.0.2-bee76a0~70~ubuntu18.04.1) date Tue Jul 21 15:58:49 2020*
%MOMM*%
%LPD*%
G01*
G04 APERTURE LIST*
%ADD10C,0.250000*%
G04 APERTURE END LIST*
D10*
X101267857Y-58052380D02*
X101267857Y-57052380D01*
X101029761Y-57052380D01*
X100886904Y-57100000D01*
X100791666Y-57195238D01*
X100744047Y-57290476D01*
X100696428Y-57480952D01*
X100696428Y-57623809D01*
X100744047Y-57814285D01*
X100791666Y-57909523D01*
X100886904Y-58004761D01*
X101029761Y-58052380D01*
X101267857Y-58052380D01*
X100267857Y-58052380D02*
X100267857Y-57052380D01*
X99791666Y-58052380D02*
X99791666Y-57052380D01*
X99458333Y-57766666D01*
X99125000Y-57052380D01*
X99125000Y-58052380D01*
X97315476Y-58052380D02*
X97648809Y-57576190D01*
X97886904Y-58052380D02*
X97886904Y-57052380D01*
X97505952Y-57052380D01*
X97410714Y-57100000D01*
X97363095Y-57147619D01*
X97315476Y-57242857D01*
X97315476Y-57385714D01*
X97363095Y-57480952D01*
X97410714Y-57528571D01*
X97505952Y-57576190D01*
X97886904Y-57576190D01*
X96363095Y-58052380D02*
X96934523Y-58052380D01*
X96648809Y-58052380D02*
X96648809Y-57052380D01*
X96744047Y-57195238D01*
X96839285Y-57290476D01*
X96934523Y-57338095D01*
X94601190Y-58052380D02*
X94934523Y-57576190D01*
X95172619Y-58052380D02*
X95172619Y-57052380D01*
X94791666Y-57052380D01*
X94696428Y-57100000D01*
X94648809Y-57147619D01*
X94601190Y-57242857D01*
X94601190Y-57385714D01*
X94648809Y-57480952D01*
X94696428Y-57528571D01*
X94791666Y-57576190D01*
X95172619Y-57576190D01*
X94220238Y-57147619D02*
X94172619Y-57100000D01*
X94077380Y-57052380D01*
X93839285Y-57052380D01*
X93744047Y-57100000D01*
X93696428Y-57147619D01*
X93648809Y-57242857D01*
X93648809Y-57338095D01*
X93696428Y-57480952D01*
X94267857Y-58052380D01*
X93648809Y-58052380D01*
X91886904Y-58052380D02*
X92220238Y-57576190D01*
X92458333Y-58052380D02*
X92458333Y-57052380D01*
X92077380Y-57052380D01*
X91982142Y-57100000D01*
X91934523Y-57147619D01*
X91886904Y-57242857D01*
X91886904Y-57385714D01*
X91934523Y-57480952D01*
X91982142Y-57528571D01*
X92077380Y-57576190D01*
X92458333Y-57576190D01*
X91553571Y-57052380D02*
X90934523Y-57052380D01*
X91267857Y-57433333D01*
X91125000Y-57433333D01*
X91029761Y-57480952D01*
X90982142Y-57528571D01*
X90934523Y-57623809D01*
X90934523Y-57861904D01*
X90982142Y-57957142D01*
X91029761Y-58004761D01*
X91125000Y-58052380D01*
X91410714Y-58052380D01*
X91505952Y-58004761D01*
X91553571Y-57957142D01*
X107902380Y-57052380D02*
X107283333Y-57052380D01*
X107616666Y-57433333D01*
X107473809Y-57433333D01*
X107378571Y-57480952D01*
X107330952Y-57528571D01*
X107283333Y-57623809D01*
X107283333Y-57861904D01*
X107330952Y-57957142D01*
X107378571Y-58004761D01*
X107473809Y-58052380D01*
X107759523Y-58052380D01*
X107854761Y-58004761D01*
X107902380Y-57957142D01*
X106854761Y-57957142D02*
X106807142Y-58004761D01*
X106854761Y-58052380D01*
X106902380Y-58004761D01*
X106854761Y-57957142D01*
X106854761Y-58052380D01*
X106473809Y-57052380D02*
X105854761Y-57052380D01*
X106188095Y-57433333D01*
X106045238Y-57433333D01*
X105950000Y-57480952D01*
X105902380Y-57528571D01*
X105854761Y-57623809D01*
X105854761Y-57861904D01*
X105902380Y-57957142D01*
X105950000Y-58004761D01*
X106045238Y-58052380D01*
X106330952Y-58052380D01*
X106426190Y-58004761D01*
X106473809Y-57957142D01*
X104140476Y-57100000D02*
X104235714Y-57052380D01*
X104378571Y-57052380D01*
X104521428Y-57100000D01*
X104616666Y-57195238D01*
X104664285Y-57290476D01*
X104711904Y-57480952D01*
X104711904Y-57623809D01*
X104664285Y-57814285D01*
X104616666Y-57909523D01*
X104521428Y-58004761D01*
X104378571Y-58052380D01*
X104283333Y-58052380D01*
X104140476Y-58004761D01*
X104092857Y-57957142D01*
X104092857Y-57623809D01*
X104283333Y-57623809D01*
X103664285Y-58052380D02*
X103664285Y-57052380D01*
X103092857Y-58052380D01*
X103092857Y-57052380D01*
X102616666Y-58052380D02*
X102616666Y-57052380D01*
X102378571Y-57052380D01*
X102235714Y-57100000D01*
X102140476Y-57195238D01*
X102092857Y-57290476D01*
X102045238Y-57480952D01*
X102045238Y-57623809D01*
X102092857Y-57814285D01*
X102140476Y-57909523D01*
X102235714Y-58004761D01*
X102378571Y-58052380D01*
X102616666Y-58052380D01*
X115516666Y-57528571D02*
X115183333Y-57528571D01*
X115040476Y-58052380D02*
X115516666Y-58052380D01*
X115516666Y-57052380D01*
X115040476Y-57052380D01*
X114707142Y-57052380D02*
X114040476Y-58052380D01*
X114040476Y-57052380D02*
X114707142Y-58052380D01*
X113802380Y-57052380D02*
X113230952Y-57052380D01*
X113516666Y-58052380D02*
X113516666Y-57052380D01*
X112897619Y-57671428D02*
X112135714Y-57671428D01*
X112516666Y-58052380D02*
X112516666Y-57290476D01*
X111230952Y-57385714D02*
X111230952Y-58052380D01*
X111469047Y-57004761D02*
X111707142Y-57719047D01*
X111088095Y-57719047D01*
X126725000Y-57766666D02*
X126248809Y-57766666D01*
X126820238Y-58052380D02*
X126486904Y-57052380D01*
X126153571Y-58052380D01*
X125248809Y-57957142D02*
X125296428Y-58004761D01*
X125439285Y-58052380D01*
X125534523Y-58052380D01*
X125677380Y-58004761D01*
X125772619Y-57909523D01*
X125820238Y-57814285D01*
X125867857Y-57623809D01*
X125867857Y-57480952D01*
X125820238Y-57290476D01*
X125772619Y-57195238D01*
X125677380Y-57100000D01*
X125534523Y-57052380D01*
X125439285Y-57052380D01*
X125296428Y-57100000D01*
X125248809Y-57147619D01*
X124820238Y-58052380D02*
X124820238Y-57052380D01*
X124344047Y-58052380D02*
X124344047Y-57052380D01*
X123772619Y-58052380D01*
X123772619Y-57052380D01*
M02*
