G04 #@! TF.GenerationSoftware,KiCad,Pcbnew,5.0.2-bee76a0~70~ubuntu18.04.1*
G04 #@! TF.CreationDate,2020-07-21T15:58:49+05:30*
G04 #@! TF.ProjectId,switch_board_v1.1,73776974-6368-45f6-926f-6172645f7631,rev?*
G04 #@! TF.SameCoordinates,Original*
G04 #@! TF.FileFunction,Copper,L2,Bot*
G04 #@! TF.FilePolarity,Positive*
%FSLAX46Y46*%
G04 Gerber Fmt 4.6, Leading zero omitted, Abs format (unit mm)*
G04 Created by KiCad (PCBNEW 5.0.2-bee76a0~70~ubuntu18.04.1) date Tue Jul 21 15:58:49 2020*
%MOMM*%
%LPD*%
G01*
G04 APERTURE LIST*
G04 #@! TA.AperFunction,ComponentPad*
%ADD10R,1.700000X1.700000*%
G04 #@! TD*
G04 #@! TA.AperFunction,ComponentPad*
%ADD11O,1.700000X1.700000*%
G04 #@! TD*
G04 #@! TA.AperFunction,ComponentPad*
%ADD12C,3.000000*%
G04 #@! TD*
G04 #@! TA.AperFunction,ComponentPad*
%ADD13R,3.000000X3.000000*%
G04 #@! TD*
G04 #@! TA.AperFunction,ViaPad*
%ADD14C,0.800000*%
G04 #@! TD*
G04 #@! TA.AperFunction,Conductor*
%ADD15C,0.250000*%
G04 #@! TD*
G04 #@! TA.AperFunction,Conductor*
%ADD16C,1.000000*%
G04 #@! TD*
G04 APERTURE END LIST*
D10*
G04 #@! TO.P,J1,1*
G04 #@! TO.N,/ACIN4*
X109950000Y-66675000D03*
D11*
G04 #@! TO.P,J1,2*
G04 #@! TO.N,/ACIN3*
X112490000Y-66675000D03*
G04 #@! TO.P,J1,3*
G04 #@! TO.N,/ACIN2*
X115030000Y-66675000D03*
G04 #@! TO.P,J1,4*
G04 #@! TO.N,/ACIN1*
X117570000Y-66675000D03*
G04 #@! TD*
D10*
G04 #@! TO.P,J2,1*
G04 #@! TO.N,N/C*
X103650000Y-66675000D03*
D11*
G04 #@! TO.P,J2,2*
G04 #@! TO.N,/Relay_1/3.3V*
X106190000Y-66675000D03*
G04 #@! TD*
G04 #@! TO.P,J4,4*
G04 #@! TO.N,/dimmer_1/DIN*
X99845000Y-66675000D03*
G04 #@! TO.P,J4,3*
G04 #@! TO.N,/Relay_1/DIN*
X97305000Y-66675000D03*
G04 #@! TO.P,J4,2*
G04 #@! TO.N,/Relay_2/DIN*
X94765000Y-66675000D03*
D10*
G04 #@! TO.P,J4,1*
G04 #@! TO.N,/Relay_3/DIN*
X92225000Y-66675000D03*
G04 #@! TD*
D11*
G04 #@! TO.P,J5,4*
G04 #@! TO.N,/ACIN4*
X128945000Y-66675000D03*
G04 #@! TO.P,J5,3*
G04 #@! TO.N,/ACIN3*
X126405000Y-66675000D03*
G04 #@! TO.P,J5,2*
G04 #@! TO.N,/ACIN2*
X123865000Y-66675000D03*
D10*
G04 #@! TO.P,J5,1*
G04 #@! TO.N,/ACIN1*
X121325000Y-66675000D03*
G04 #@! TD*
D12*
G04 #@! TO.P,J3,2*
G04 #@! TO.N,/ACO2*
X126700000Y-90900000D03*
G04 #@! TO.P,J3,3*
G04 #@! TO.N,/ACO3*
X126700000Y-95980000D03*
D13*
G04 #@! TO.P,J3,1*
G04 #@! TO.N,/ACO1*
X126700000Y-85820000D03*
D12*
G04 #@! TO.P,J3,4*
G04 #@! TO.N,/ACO4*
X126700000Y-101060000D03*
G04 #@! TD*
D14*
G04 #@! TO.N,/Relay_1/DIN*
X99572500Y-85800000D03*
G04 #@! TO.N,/Relay_2/DIN*
X99575834Y-96666666D03*
G04 #@! TO.N,/dimmer_1/DIN*
X99682500Y-75050000D03*
G04 #@! TO.N,/ACIN1*
X117600000Y-76920000D03*
G04 #@! TO.N,/ACIN3*
X123100000Y-96700000D03*
G04 #@! TO.N,/ACIN2*
X117250000Y-85800000D03*
G04 #@! TO.N,/ACIN4*
X122900000Y-106600000D03*
G04 #@! TD*
D15*
G04 #@! TO.N,/Relay_1/DIN*
X99460000Y-85800000D02*
X99572500Y-85800000D01*
X99172501Y-85400001D02*
X99572500Y-85800000D01*
X96455001Y-82682501D02*
X99172501Y-85400001D01*
X96455001Y-67524999D02*
X96455001Y-82682501D01*
X97305000Y-66675000D02*
X96455001Y-67524999D01*
G04 #@! TO.N,/Relay_2/DIN*
X94765000Y-91855832D02*
X99575834Y-96666666D01*
X94765000Y-66675000D02*
X94765000Y-91855832D01*
G04 #@! TO.N,/dimmer_1/DIN*
X99845000Y-74887500D02*
X99682500Y-75050000D01*
X99845000Y-66675000D02*
X99845000Y-74887500D01*
D16*
G04 #@! TO.N,/ACIN1*
X117600000Y-76354315D02*
X117600000Y-76920000D01*
X117600000Y-72250000D02*
X117600000Y-76354315D01*
X121325000Y-68525000D02*
X117600000Y-72250000D01*
X121325000Y-66675000D02*
X121325000Y-68525000D01*
X117570000Y-66675000D02*
X121325000Y-66675000D01*
G04 #@! TO.N,/ACIN3*
X112522000Y-66712402D02*
X112522000Y-66937919D01*
X123100000Y-96134315D02*
X123100000Y-96700000D01*
X123100000Y-84079998D02*
X123100000Y-96134315D01*
X126405000Y-80774998D02*
X123100000Y-84079998D01*
X126405000Y-66675000D02*
X126405000Y-80774998D01*
X112490000Y-65472919D02*
X112490000Y-66675000D01*
X115232331Y-62724990D02*
X112490000Y-65467321D01*
X112490000Y-65467321D02*
X112490000Y-65472919D01*
X126405000Y-65169400D02*
X123960589Y-62724989D01*
X123960589Y-62724989D02*
X115232331Y-62724990D01*
X126405000Y-66675000D02*
X126405000Y-65169400D01*
G04 #@! TO.N,/ACIN2*
X115062000Y-66718000D02*
X115062000Y-66937919D01*
X123865000Y-79185000D02*
X117250000Y-85800000D01*
X123865000Y-66675000D02*
X123865000Y-79185000D01*
X123865000Y-65472919D02*
X123865000Y-66675000D01*
X123865000Y-65174998D02*
X123865000Y-65472919D01*
X123215001Y-64524999D02*
X123865000Y-65174998D01*
X115977920Y-64524999D02*
X123215001Y-64524999D01*
X115030000Y-65472919D02*
X115977920Y-64524999D01*
X115030000Y-66675000D02*
X115030000Y-65472919D01*
G04 #@! TO.N,/ACIN4*
X125304002Y-106600000D02*
X122900000Y-106600000D01*
X129500001Y-102404001D02*
X125304002Y-106600000D01*
X129500001Y-68432082D02*
X129500001Y-102404001D01*
X128945000Y-67877081D02*
X129500001Y-68432082D01*
X128945000Y-66675000D02*
X128945000Y-67877081D01*
X109950000Y-64825000D02*
X109950000Y-66675000D01*
X113850019Y-60924981D02*
X109950000Y-64825000D01*
X124706177Y-60924981D02*
X113850019Y-60924981D01*
X128945000Y-65163802D02*
X124706177Y-60924981D01*
X128945000Y-66675000D02*
X128945000Y-65163802D01*
G04 #@! TD*
M02*
