G04 #@! TF.GenerationSoftware,KiCad,Pcbnew,5.0.2-bee76a0~70~ubuntu18.04.1*
G04 #@! TF.CreationDate,2020-07-21T15:58:49+05:30*
G04 #@! TF.ProjectId,switch_board_v1.1,73776974-6368-45f6-926f-6172645f7631,rev?*
G04 #@! TF.SameCoordinates,Original*
G04 #@! TF.FileFunction,Soldermask,Top*
G04 #@! TF.FilePolarity,Negative*
%FSLAX46Y46*%
G04 Gerber Fmt 4.6, Leading zero omitted, Abs format (unit mm)*
G04 Created by KiCad (PCBNEW 5.0.2-bee76a0~70~ubuntu18.04.1) date Tue Jul 21 15:58:49 2020*
%MOMM*%
%LPD*%
G01*
G04 APERTURE LIST*
%ADD10C,0.100000*%
G04 APERTURE END LIST*
D10*
G36*
X107526000Y-111014332D02*
X105424000Y-111014332D01*
X105424000Y-109132332D01*
X107526000Y-109132332D01*
X107526000Y-111014332D01*
X107526000Y-111014332D01*
G37*
G36*
X97996000Y-111014332D02*
X95894000Y-111014332D01*
X95894000Y-109132332D01*
X97996000Y-109132332D01*
X97996000Y-111014332D01*
X97996000Y-111014332D01*
G37*
G36*
X124284466Y-109841065D02*
X124323137Y-109852796D01*
X124358779Y-109871848D01*
X124390017Y-109897483D01*
X124415652Y-109928721D01*
X124434704Y-109964363D01*
X124446435Y-110003034D01*
X124451000Y-110049388D01*
X124451000Y-110700612D01*
X124446435Y-110746966D01*
X124434704Y-110785637D01*
X124415652Y-110821279D01*
X124390017Y-110852517D01*
X124358779Y-110878152D01*
X124323137Y-110897204D01*
X124284466Y-110908935D01*
X124238112Y-110913500D01*
X123161888Y-110913500D01*
X123115534Y-110908935D01*
X123076863Y-110897204D01*
X123041221Y-110878152D01*
X123009983Y-110852517D01*
X122984348Y-110821279D01*
X122965296Y-110785637D01*
X122953565Y-110746966D01*
X122949000Y-110700612D01*
X122949000Y-110049388D01*
X122953565Y-110003034D01*
X122965296Y-109964363D01*
X122984348Y-109928721D01*
X123009983Y-109897483D01*
X123041221Y-109871848D01*
X123076863Y-109852796D01*
X123115534Y-109841065D01*
X123161888Y-109836500D01*
X124238112Y-109836500D01*
X124284466Y-109841065D01*
X124284466Y-109841065D01*
G37*
G36*
X115121000Y-110634332D02*
X113019000Y-110634332D01*
X113019000Y-109032332D01*
X115121000Y-109032332D01*
X115121000Y-110634332D01*
X115121000Y-110634332D01*
G37*
G36*
X121421000Y-109484332D02*
X119319000Y-109484332D01*
X119319000Y-105582332D01*
X121421000Y-105582332D01*
X121421000Y-109484332D01*
X121421000Y-109484332D01*
G37*
G36*
X124284466Y-107966065D02*
X124323137Y-107977796D01*
X124358779Y-107996848D01*
X124390017Y-108022483D01*
X124415652Y-108053721D01*
X124434704Y-108089363D01*
X124446435Y-108128034D01*
X124451000Y-108174388D01*
X124451000Y-108825612D01*
X124446435Y-108871966D01*
X124434704Y-108910637D01*
X124415652Y-108946279D01*
X124390017Y-108977517D01*
X124358779Y-109003152D01*
X124323137Y-109022204D01*
X124284466Y-109033935D01*
X124238112Y-109038500D01*
X123161888Y-109038500D01*
X123115534Y-109033935D01*
X123076863Y-109022204D01*
X123041221Y-109003152D01*
X123009983Y-108977517D01*
X122984348Y-108946279D01*
X122965296Y-108910637D01*
X122953565Y-108871966D01*
X122949000Y-108825612D01*
X122949000Y-108174388D01*
X122953565Y-108128034D01*
X122965296Y-108089363D01*
X122984348Y-108053721D01*
X123009983Y-108022483D01*
X123041221Y-107996848D01*
X123076863Y-107977796D01*
X123115534Y-107966065D01*
X123161888Y-107961500D01*
X124238112Y-107961500D01*
X124284466Y-107966065D01*
X124284466Y-107966065D01*
G37*
G36*
X107526000Y-108474332D02*
X105424000Y-108474332D01*
X105424000Y-106592332D01*
X107526000Y-106592332D01*
X107526000Y-108474332D01*
X107526000Y-108474332D01*
G37*
G36*
X97996000Y-108474332D02*
X95894000Y-108474332D01*
X95894000Y-106592332D01*
X97996000Y-106592332D01*
X97996000Y-108474332D01*
X97996000Y-108474332D01*
G37*
G36*
X115121000Y-108334332D02*
X113019000Y-108334332D01*
X113019000Y-106732332D01*
X115121000Y-106732332D01*
X115121000Y-108334332D01*
X115121000Y-108334332D01*
G37*
G36*
X110434466Y-106181065D02*
X110473137Y-106192796D01*
X110508779Y-106211848D01*
X110540017Y-106237483D01*
X110565652Y-106268721D01*
X110584704Y-106304363D01*
X110596435Y-106343034D01*
X110601000Y-106389388D01*
X110601000Y-107040612D01*
X110596435Y-107086966D01*
X110584704Y-107125637D01*
X110565652Y-107161279D01*
X110540017Y-107192517D01*
X110508779Y-107218152D01*
X110473137Y-107237204D01*
X110434466Y-107248935D01*
X110388112Y-107253500D01*
X109311888Y-107253500D01*
X109265534Y-107248935D01*
X109226863Y-107237204D01*
X109191221Y-107218152D01*
X109159983Y-107192517D01*
X109134348Y-107161279D01*
X109115296Y-107125637D01*
X109103565Y-107086966D01*
X109099000Y-107040612D01*
X109099000Y-106389388D01*
X109103565Y-106343034D01*
X109115296Y-106304363D01*
X109134348Y-106268721D01*
X109159983Y-106237483D01*
X109191221Y-106211848D01*
X109226863Y-106192796D01*
X109265534Y-106181065D01*
X109311888Y-106176500D01*
X110388112Y-106176500D01*
X110434466Y-106181065D01*
X110434466Y-106181065D01*
G37*
G36*
X115121000Y-106034332D02*
X113019000Y-106034332D01*
X113019000Y-104432332D01*
X115121000Y-104432332D01*
X115121000Y-106034332D01*
X115121000Y-106034332D01*
G37*
G36*
X107526000Y-105934332D02*
X105424000Y-105934332D01*
X105424000Y-104052332D01*
X107526000Y-104052332D01*
X107526000Y-105934332D01*
X107526000Y-105934332D01*
G37*
G36*
X97996000Y-105934332D02*
X95894000Y-105934332D01*
X95894000Y-104052332D01*
X97996000Y-104052332D01*
X97996000Y-105934332D01*
X97996000Y-105934332D01*
G37*
G36*
X110434466Y-104306065D02*
X110473137Y-104317796D01*
X110508779Y-104336848D01*
X110540017Y-104362483D01*
X110565652Y-104393721D01*
X110584704Y-104429363D01*
X110596435Y-104468034D01*
X110601000Y-104514388D01*
X110601000Y-105165612D01*
X110596435Y-105211966D01*
X110584704Y-105250637D01*
X110565652Y-105286279D01*
X110540017Y-105317517D01*
X110508779Y-105343152D01*
X110473137Y-105362204D01*
X110434466Y-105373935D01*
X110388112Y-105378500D01*
X109311888Y-105378500D01*
X109265534Y-105373935D01*
X109226863Y-105362204D01*
X109191221Y-105343152D01*
X109159983Y-105317517D01*
X109134348Y-105286279D01*
X109115296Y-105250637D01*
X109103565Y-105211966D01*
X109099000Y-105165612D01*
X109099000Y-104514388D01*
X109103565Y-104468034D01*
X109115296Y-104429363D01*
X109134348Y-104393721D01*
X109159983Y-104362483D01*
X109191221Y-104336848D01*
X109226863Y-104317796D01*
X109265534Y-104306065D01*
X109311888Y-104301500D01*
X110388112Y-104301500D01*
X110434466Y-104306065D01*
X110434466Y-104306065D01*
G37*
G36*
X105114591Y-101778085D02*
X105148569Y-101788393D01*
X105179887Y-101805133D01*
X105207339Y-101827661D01*
X105229867Y-101855113D01*
X105246607Y-101886431D01*
X105256915Y-101920409D01*
X105261000Y-101961890D01*
X105261000Y-102638110D01*
X105256915Y-102679591D01*
X105246607Y-102713569D01*
X105229867Y-102744887D01*
X105207339Y-102772339D01*
X105179887Y-102794867D01*
X105148569Y-102811607D01*
X105114591Y-102821915D01*
X105073110Y-102826000D01*
X104471890Y-102826000D01*
X104430409Y-102821915D01*
X104396431Y-102811607D01*
X104365113Y-102794867D01*
X104337661Y-102772339D01*
X104315133Y-102744887D01*
X104298393Y-102713569D01*
X104288085Y-102679591D01*
X104284000Y-102638110D01*
X104284000Y-101961890D01*
X104288085Y-101920409D01*
X104298393Y-101886431D01*
X104315133Y-101855113D01*
X104337661Y-101827661D01*
X104365113Y-101805133D01*
X104396431Y-101788393D01*
X104430409Y-101778085D01*
X104471890Y-101774000D01*
X105073110Y-101774000D01*
X105114591Y-101778085D01*
X105114591Y-101778085D01*
G37*
G36*
X103539591Y-101778085D02*
X103573569Y-101788393D01*
X103604887Y-101805133D01*
X103632339Y-101827661D01*
X103654867Y-101855113D01*
X103671607Y-101886431D01*
X103681915Y-101920409D01*
X103686000Y-101961890D01*
X103686000Y-102638110D01*
X103681915Y-102679591D01*
X103671607Y-102713569D01*
X103654867Y-102744887D01*
X103632339Y-102772339D01*
X103604887Y-102794867D01*
X103573569Y-102811607D01*
X103539591Y-102821915D01*
X103498110Y-102826000D01*
X102896890Y-102826000D01*
X102855409Y-102821915D01*
X102821431Y-102811607D01*
X102790113Y-102794867D01*
X102762661Y-102772339D01*
X102740133Y-102744887D01*
X102723393Y-102713569D01*
X102713085Y-102679591D01*
X102709000Y-102638110D01*
X102709000Y-101961890D01*
X102713085Y-101920409D01*
X102723393Y-101886431D01*
X102740133Y-101855113D01*
X102762661Y-101827661D01*
X102790113Y-101805133D01*
X102821431Y-101788393D01*
X102855409Y-101778085D01*
X102896890Y-101774000D01*
X103498110Y-101774000D01*
X103539591Y-101778085D01*
X103539591Y-101778085D01*
G37*
G36*
X98352091Y-101738085D02*
X98386069Y-101748393D01*
X98417387Y-101765133D01*
X98444839Y-101787661D01*
X98467367Y-101815113D01*
X98484107Y-101846431D01*
X98494415Y-101880409D01*
X98498500Y-101921890D01*
X98498500Y-102598110D01*
X98494415Y-102639591D01*
X98484107Y-102673569D01*
X98467367Y-102704887D01*
X98444839Y-102732339D01*
X98417387Y-102754867D01*
X98386069Y-102771607D01*
X98352091Y-102781915D01*
X98310610Y-102786000D01*
X97709390Y-102786000D01*
X97667909Y-102781915D01*
X97633931Y-102771607D01*
X97602613Y-102754867D01*
X97575161Y-102732339D01*
X97552633Y-102704887D01*
X97535893Y-102673569D01*
X97525585Y-102639591D01*
X97521500Y-102598110D01*
X97521500Y-101921890D01*
X97525585Y-101880409D01*
X97535893Y-101846431D01*
X97552633Y-101815113D01*
X97575161Y-101787661D01*
X97602613Y-101765133D01*
X97633931Y-101748393D01*
X97667909Y-101738085D01*
X97709390Y-101734000D01*
X98310610Y-101734000D01*
X98352091Y-101738085D01*
X98352091Y-101738085D01*
G37*
G36*
X100158341Y-101738085D02*
X100192319Y-101748393D01*
X100223637Y-101765133D01*
X100251089Y-101787661D01*
X100273617Y-101815113D01*
X100290357Y-101846431D01*
X100300665Y-101880409D01*
X100304750Y-101921890D01*
X100304750Y-102598110D01*
X100300665Y-102639591D01*
X100290357Y-102673569D01*
X100273617Y-102704887D01*
X100251089Y-102732339D01*
X100223637Y-102754867D01*
X100192319Y-102771607D01*
X100158341Y-102781915D01*
X100116860Y-102786000D01*
X99515640Y-102786000D01*
X99474159Y-102781915D01*
X99440181Y-102771607D01*
X99408863Y-102754867D01*
X99381411Y-102732339D01*
X99358883Y-102704887D01*
X99342143Y-102673569D01*
X99331835Y-102639591D01*
X99327750Y-102598110D01*
X99327750Y-101921890D01*
X99331835Y-101880409D01*
X99342143Y-101846431D01*
X99358883Y-101815113D01*
X99381411Y-101787661D01*
X99408863Y-101765133D01*
X99440181Y-101748393D01*
X99474159Y-101738085D01*
X99515640Y-101734000D01*
X100116860Y-101734000D01*
X100158341Y-101738085D01*
X100158341Y-101738085D01*
G37*
G36*
X101733341Y-101738085D02*
X101767319Y-101748393D01*
X101798637Y-101765133D01*
X101826089Y-101787661D01*
X101848617Y-101815113D01*
X101865357Y-101846431D01*
X101875665Y-101880409D01*
X101879750Y-101921890D01*
X101879750Y-102598110D01*
X101875665Y-102639591D01*
X101865357Y-102673569D01*
X101848617Y-102704887D01*
X101826089Y-102732339D01*
X101798637Y-102754867D01*
X101767319Y-102771607D01*
X101733341Y-102781915D01*
X101691860Y-102786000D01*
X101090640Y-102786000D01*
X101049159Y-102781915D01*
X101015181Y-102771607D01*
X100983863Y-102754867D01*
X100956411Y-102732339D01*
X100933883Y-102704887D01*
X100917143Y-102673569D01*
X100906835Y-102639591D01*
X100902750Y-102598110D01*
X100902750Y-101921890D01*
X100906835Y-101880409D01*
X100917143Y-101846431D01*
X100933883Y-101815113D01*
X100956411Y-101787661D01*
X100983863Y-101765133D01*
X101015181Y-101748393D01*
X101049159Y-101738085D01*
X101090640Y-101734000D01*
X101691860Y-101734000D01*
X101733341Y-101738085D01*
X101733341Y-101738085D01*
G37*
G36*
X96777091Y-101738085D02*
X96811069Y-101748393D01*
X96842387Y-101765133D01*
X96869839Y-101787661D01*
X96892367Y-101815113D01*
X96909107Y-101846431D01*
X96919415Y-101880409D01*
X96923500Y-101921890D01*
X96923500Y-102598110D01*
X96919415Y-102639591D01*
X96909107Y-102673569D01*
X96892367Y-102704887D01*
X96869839Y-102732339D01*
X96842387Y-102754867D01*
X96811069Y-102771607D01*
X96777091Y-102781915D01*
X96735610Y-102786000D01*
X96134390Y-102786000D01*
X96092909Y-102781915D01*
X96058931Y-102771607D01*
X96027613Y-102754867D01*
X96000161Y-102732339D01*
X95977633Y-102704887D01*
X95960893Y-102673569D01*
X95950585Y-102639591D01*
X95946500Y-102598110D01*
X95946500Y-101921890D01*
X95950585Y-101880409D01*
X95960893Y-101846431D01*
X95977633Y-101815113D01*
X96000161Y-101787661D01*
X96027613Y-101765133D01*
X96058931Y-101748393D01*
X96092909Y-101738085D01*
X96134390Y-101734000D01*
X96735610Y-101734000D01*
X96777091Y-101738085D01*
X96777091Y-101738085D01*
G37*
G36*
X127052527Y-99548736D02*
X127152410Y-99568604D01*
X127434674Y-99685521D01*
X127688705Y-99855259D01*
X127904741Y-100071295D01*
X128074479Y-100325326D01*
X128191396Y-100607590D01*
X128191396Y-100607591D01*
X128238764Y-100845722D01*
X128251000Y-100907240D01*
X128251000Y-101212760D01*
X128191396Y-101512410D01*
X128074479Y-101794674D01*
X127904741Y-102048705D01*
X127688705Y-102264741D01*
X127434674Y-102434479D01*
X127152410Y-102551396D01*
X127052527Y-102571264D01*
X126852762Y-102611000D01*
X126547238Y-102611000D01*
X126347473Y-102571264D01*
X126247590Y-102551396D01*
X125965326Y-102434479D01*
X125711295Y-102264741D01*
X125495259Y-102048705D01*
X125325521Y-101794674D01*
X125208604Y-101512410D01*
X125149000Y-101212760D01*
X125149000Y-100907240D01*
X125161237Y-100845722D01*
X125208604Y-100607591D01*
X125208604Y-100607590D01*
X125325521Y-100325326D01*
X125495259Y-100071295D01*
X125711295Y-99855259D01*
X125965326Y-99685521D01*
X126247590Y-99568604D01*
X126347473Y-99548736D01*
X126547238Y-99509000D01*
X126852762Y-99509000D01*
X127052527Y-99548736D01*
X127052527Y-99548736D01*
G37*
G36*
X119574466Y-100633565D02*
X119613137Y-100645296D01*
X119648779Y-100664348D01*
X119680017Y-100689983D01*
X119705652Y-100721221D01*
X119724704Y-100756863D01*
X119736435Y-100795534D01*
X119741000Y-100841888D01*
X119741000Y-101918112D01*
X119736435Y-101964466D01*
X119724704Y-102003137D01*
X119705652Y-102038779D01*
X119680017Y-102070017D01*
X119648779Y-102095652D01*
X119613137Y-102114704D01*
X119574466Y-102126435D01*
X119528112Y-102131000D01*
X118876888Y-102131000D01*
X118830534Y-102126435D01*
X118791863Y-102114704D01*
X118756221Y-102095652D01*
X118724983Y-102070017D01*
X118699348Y-102038779D01*
X118680296Y-102003137D01*
X118668565Y-101964466D01*
X118664000Y-101918112D01*
X118664000Y-100841888D01*
X118668565Y-100795534D01*
X118680296Y-100756863D01*
X118699348Y-100721221D01*
X118724983Y-100689983D01*
X118756221Y-100664348D01*
X118791863Y-100645296D01*
X118830534Y-100633565D01*
X118876888Y-100629000D01*
X119528112Y-100629000D01*
X119574466Y-100633565D01*
X119574466Y-100633565D01*
G37*
G36*
X121449466Y-100633565D02*
X121488137Y-100645296D01*
X121523779Y-100664348D01*
X121555017Y-100689983D01*
X121580652Y-100721221D01*
X121599704Y-100756863D01*
X121611435Y-100795534D01*
X121616000Y-100841888D01*
X121616000Y-101918112D01*
X121611435Y-101964466D01*
X121599704Y-102003137D01*
X121580652Y-102038779D01*
X121555017Y-102070017D01*
X121523779Y-102095652D01*
X121488137Y-102114704D01*
X121449466Y-102126435D01*
X121403112Y-102131000D01*
X120751888Y-102131000D01*
X120705534Y-102126435D01*
X120666863Y-102114704D01*
X120631221Y-102095652D01*
X120599983Y-102070017D01*
X120574348Y-102038779D01*
X120555296Y-102003137D01*
X120543565Y-101964466D01*
X120539000Y-101918112D01*
X120539000Y-100841888D01*
X120543565Y-100795534D01*
X120555296Y-100756863D01*
X120574348Y-100721221D01*
X120599983Y-100689983D01*
X120631221Y-100664348D01*
X120666863Y-100645296D01*
X120705534Y-100633565D01*
X120751888Y-100629000D01*
X121403112Y-100629000D01*
X121449466Y-100633565D01*
X121449466Y-100633565D01*
G37*
G36*
X97996000Y-100147666D02*
X95894000Y-100147666D01*
X95894000Y-98265666D01*
X97996000Y-98265666D01*
X97996000Y-100147666D01*
X97996000Y-100147666D01*
G37*
G36*
X107526000Y-100147666D02*
X105424000Y-100147666D01*
X105424000Y-98265666D01*
X107526000Y-98265666D01*
X107526000Y-100147666D01*
X107526000Y-100147666D01*
G37*
G36*
X115121000Y-99767666D02*
X113019000Y-99767666D01*
X113019000Y-98165666D01*
X115121000Y-98165666D01*
X115121000Y-99767666D01*
X115121000Y-99767666D01*
G37*
G36*
X121421000Y-98617666D02*
X119319000Y-98617666D01*
X119319000Y-94715666D01*
X121421000Y-94715666D01*
X121421000Y-98617666D01*
X121421000Y-98617666D01*
G37*
G36*
X107526000Y-97607666D02*
X105424000Y-97607666D01*
X105424000Y-95725666D01*
X107526000Y-95725666D01*
X107526000Y-97607666D01*
X107526000Y-97607666D01*
G37*
G36*
X97996000Y-97607666D02*
X95894000Y-97607666D01*
X95894000Y-95725666D01*
X97996000Y-95725666D01*
X97996000Y-97607666D01*
X97996000Y-97607666D01*
G37*
G36*
X127052527Y-94468736D02*
X127152410Y-94488604D01*
X127434674Y-94605521D01*
X127688705Y-94775259D01*
X127904741Y-94991295D01*
X128074479Y-95245326D01*
X128191396Y-95527590D01*
X128203462Y-95588250D01*
X128251000Y-95827238D01*
X128251000Y-96132762D01*
X128231764Y-96229466D01*
X128191396Y-96432410D01*
X128074479Y-96714674D01*
X127904741Y-96968705D01*
X127688705Y-97184741D01*
X127434674Y-97354479D01*
X127152410Y-97471396D01*
X127052527Y-97491264D01*
X126852762Y-97531000D01*
X126547238Y-97531000D01*
X126347473Y-97491264D01*
X126247590Y-97471396D01*
X125965326Y-97354479D01*
X125711295Y-97184741D01*
X125495259Y-96968705D01*
X125325521Y-96714674D01*
X125208604Y-96432410D01*
X125168236Y-96229466D01*
X125149000Y-96132762D01*
X125149000Y-95827238D01*
X125196538Y-95588250D01*
X125208604Y-95527590D01*
X125325521Y-95245326D01*
X125495259Y-94991295D01*
X125711295Y-94775259D01*
X125965326Y-94605521D01*
X126247590Y-94488604D01*
X126347473Y-94468736D01*
X126547238Y-94429000D01*
X126852762Y-94429000D01*
X127052527Y-94468736D01*
X127052527Y-94468736D01*
G37*
G36*
X115121000Y-97467666D02*
X113019000Y-97467666D01*
X113019000Y-95865666D01*
X115121000Y-95865666D01*
X115121000Y-97467666D01*
X115121000Y-97467666D01*
G37*
G36*
X110424466Y-95323565D02*
X110463137Y-95335296D01*
X110498779Y-95354348D01*
X110530017Y-95379983D01*
X110555652Y-95411221D01*
X110574704Y-95446863D01*
X110586435Y-95485534D01*
X110591000Y-95531888D01*
X110591000Y-96183112D01*
X110586435Y-96229466D01*
X110574704Y-96268137D01*
X110555652Y-96303779D01*
X110530017Y-96335017D01*
X110498779Y-96360652D01*
X110463137Y-96379704D01*
X110424466Y-96391435D01*
X110378112Y-96396000D01*
X109301888Y-96396000D01*
X109255534Y-96391435D01*
X109216863Y-96379704D01*
X109181221Y-96360652D01*
X109149983Y-96335017D01*
X109124348Y-96303779D01*
X109105296Y-96268137D01*
X109093565Y-96229466D01*
X109089000Y-96183112D01*
X109089000Y-95531888D01*
X109093565Y-95485534D01*
X109105296Y-95446863D01*
X109124348Y-95411221D01*
X109149983Y-95379983D01*
X109181221Y-95354348D01*
X109216863Y-95335296D01*
X109255534Y-95323565D01*
X109301888Y-95319000D01*
X110378112Y-95319000D01*
X110424466Y-95323565D01*
X110424466Y-95323565D01*
G37*
G36*
X115121000Y-95167666D02*
X113019000Y-95167666D01*
X113019000Y-93565666D01*
X115121000Y-93565666D01*
X115121000Y-95167666D01*
X115121000Y-95167666D01*
G37*
G36*
X107526000Y-95067666D02*
X105424000Y-95067666D01*
X105424000Y-93185666D01*
X107526000Y-93185666D01*
X107526000Y-95067666D01*
X107526000Y-95067666D01*
G37*
G36*
X97996000Y-95067666D02*
X95894000Y-95067666D01*
X95894000Y-93185666D01*
X97996000Y-93185666D01*
X97996000Y-95067666D01*
X97996000Y-95067666D01*
G37*
G36*
X110424466Y-93448565D02*
X110463137Y-93460296D01*
X110498779Y-93479348D01*
X110530017Y-93504983D01*
X110555652Y-93536221D01*
X110574704Y-93571863D01*
X110586435Y-93610534D01*
X110591000Y-93656888D01*
X110591000Y-94308112D01*
X110586435Y-94354466D01*
X110574704Y-94393137D01*
X110555652Y-94428779D01*
X110530017Y-94460017D01*
X110498779Y-94485652D01*
X110463137Y-94504704D01*
X110424466Y-94516435D01*
X110378112Y-94521000D01*
X109301888Y-94521000D01*
X109255534Y-94516435D01*
X109216863Y-94504704D01*
X109181221Y-94485652D01*
X109149983Y-94460017D01*
X109124348Y-94428779D01*
X109105296Y-94393137D01*
X109093565Y-94354466D01*
X109089000Y-94308112D01*
X109089000Y-93656888D01*
X109093565Y-93610534D01*
X109105296Y-93571863D01*
X109124348Y-93536221D01*
X109149983Y-93504983D01*
X109181221Y-93479348D01*
X109216863Y-93460296D01*
X109255534Y-93448565D01*
X109301888Y-93444000D01*
X110378112Y-93444000D01*
X110424466Y-93448565D01*
X110424466Y-93448565D01*
G37*
G36*
X127052527Y-89388736D02*
X127152410Y-89408604D01*
X127434674Y-89525521D01*
X127688705Y-89695259D01*
X127904741Y-89911295D01*
X128074479Y-90165326D01*
X128191396Y-90447590D01*
X128191396Y-90447591D01*
X128251000Y-90747238D01*
X128251000Y-91052762D01*
X128211264Y-91252527D01*
X128191396Y-91352410D01*
X128074479Y-91634674D01*
X127904741Y-91888705D01*
X127688705Y-92104741D01*
X127434674Y-92274479D01*
X127152410Y-92391396D01*
X127052527Y-92411264D01*
X126852762Y-92451000D01*
X126547238Y-92451000D01*
X126347473Y-92411264D01*
X126247590Y-92391396D01*
X125965326Y-92274479D01*
X125711295Y-92104741D01*
X125495259Y-91888705D01*
X125325521Y-91634674D01*
X125208604Y-91352410D01*
X125188736Y-91252527D01*
X125149000Y-91052762D01*
X125149000Y-90747238D01*
X125208604Y-90447591D01*
X125208604Y-90447590D01*
X125325521Y-90165326D01*
X125495259Y-89911295D01*
X125711295Y-89695259D01*
X125965326Y-89525521D01*
X126247590Y-89408604D01*
X126347473Y-89388736D01*
X126547238Y-89349000D01*
X126852762Y-89349000D01*
X127052527Y-89388736D01*
X127052527Y-89388736D01*
G37*
G36*
X103539591Y-90948085D02*
X103573569Y-90958393D01*
X103604887Y-90975133D01*
X103632339Y-90997661D01*
X103654867Y-91025113D01*
X103671607Y-91056431D01*
X103681915Y-91090409D01*
X103686000Y-91131890D01*
X103686000Y-91808110D01*
X103681915Y-91849591D01*
X103671607Y-91883569D01*
X103654867Y-91914887D01*
X103632339Y-91942339D01*
X103604887Y-91964867D01*
X103573569Y-91981607D01*
X103539591Y-91991915D01*
X103498110Y-91996000D01*
X102896890Y-91996000D01*
X102855409Y-91991915D01*
X102821431Y-91981607D01*
X102790113Y-91964867D01*
X102762661Y-91942339D01*
X102740133Y-91914887D01*
X102723393Y-91883569D01*
X102713085Y-91849591D01*
X102709000Y-91808110D01*
X102709000Y-91131890D01*
X102713085Y-91090409D01*
X102723393Y-91056431D01*
X102740133Y-91025113D01*
X102762661Y-90997661D01*
X102790113Y-90975133D01*
X102821431Y-90958393D01*
X102855409Y-90948085D01*
X102896890Y-90944000D01*
X103498110Y-90944000D01*
X103539591Y-90948085D01*
X103539591Y-90948085D01*
G37*
G36*
X105114591Y-90948085D02*
X105148569Y-90958393D01*
X105179887Y-90975133D01*
X105207339Y-90997661D01*
X105229867Y-91025113D01*
X105246607Y-91056431D01*
X105256915Y-91090409D01*
X105261000Y-91131890D01*
X105261000Y-91808110D01*
X105256915Y-91849591D01*
X105246607Y-91883569D01*
X105229867Y-91914887D01*
X105207339Y-91942339D01*
X105179887Y-91964867D01*
X105148569Y-91981607D01*
X105114591Y-91991915D01*
X105073110Y-91996000D01*
X104471890Y-91996000D01*
X104430409Y-91991915D01*
X104396431Y-91981607D01*
X104365113Y-91964867D01*
X104337661Y-91942339D01*
X104315133Y-91914887D01*
X104298393Y-91883569D01*
X104288085Y-91849591D01*
X104284000Y-91808110D01*
X104284000Y-91131890D01*
X104288085Y-91090409D01*
X104298393Y-91056431D01*
X104315133Y-91025113D01*
X104337661Y-90997661D01*
X104365113Y-90975133D01*
X104396431Y-90958393D01*
X104430409Y-90948085D01*
X104471890Y-90944000D01*
X105073110Y-90944000D01*
X105114591Y-90948085D01*
X105114591Y-90948085D01*
G37*
G36*
X98352091Y-90908085D02*
X98386069Y-90918393D01*
X98417387Y-90935133D01*
X98444839Y-90957661D01*
X98467367Y-90985113D01*
X98484107Y-91016431D01*
X98494415Y-91050409D01*
X98498500Y-91091890D01*
X98498500Y-91768110D01*
X98494415Y-91809591D01*
X98484107Y-91843569D01*
X98467367Y-91874887D01*
X98444839Y-91902339D01*
X98417387Y-91924867D01*
X98386069Y-91941607D01*
X98352091Y-91951915D01*
X98310610Y-91956000D01*
X97709390Y-91956000D01*
X97667909Y-91951915D01*
X97633931Y-91941607D01*
X97602613Y-91924867D01*
X97575161Y-91902339D01*
X97552633Y-91874887D01*
X97535893Y-91843569D01*
X97525585Y-91809591D01*
X97521500Y-91768110D01*
X97521500Y-91091890D01*
X97525585Y-91050409D01*
X97535893Y-91016431D01*
X97552633Y-90985113D01*
X97575161Y-90957661D01*
X97602613Y-90935133D01*
X97633931Y-90918393D01*
X97667909Y-90908085D01*
X97709390Y-90904000D01*
X98310610Y-90904000D01*
X98352091Y-90908085D01*
X98352091Y-90908085D01*
G37*
G36*
X100158341Y-90908085D02*
X100192319Y-90918393D01*
X100223637Y-90935133D01*
X100251089Y-90957661D01*
X100273617Y-90985113D01*
X100290357Y-91016431D01*
X100300665Y-91050409D01*
X100304750Y-91091890D01*
X100304750Y-91768110D01*
X100300665Y-91809591D01*
X100290357Y-91843569D01*
X100273617Y-91874887D01*
X100251089Y-91902339D01*
X100223637Y-91924867D01*
X100192319Y-91941607D01*
X100158341Y-91951915D01*
X100116860Y-91956000D01*
X99515640Y-91956000D01*
X99474159Y-91951915D01*
X99440181Y-91941607D01*
X99408863Y-91924867D01*
X99381411Y-91902339D01*
X99358883Y-91874887D01*
X99342143Y-91843569D01*
X99331835Y-91809591D01*
X99327750Y-91768110D01*
X99327750Y-91091890D01*
X99331835Y-91050409D01*
X99342143Y-91016431D01*
X99358883Y-90985113D01*
X99381411Y-90957661D01*
X99408863Y-90935133D01*
X99440181Y-90918393D01*
X99474159Y-90908085D01*
X99515640Y-90904000D01*
X100116860Y-90904000D01*
X100158341Y-90908085D01*
X100158341Y-90908085D01*
G37*
G36*
X101733341Y-90908085D02*
X101767319Y-90918393D01*
X101798637Y-90935133D01*
X101826089Y-90957661D01*
X101848617Y-90985113D01*
X101865357Y-91016431D01*
X101875665Y-91050409D01*
X101879750Y-91091890D01*
X101879750Y-91768110D01*
X101875665Y-91809591D01*
X101865357Y-91843569D01*
X101848617Y-91874887D01*
X101826089Y-91902339D01*
X101798637Y-91924867D01*
X101767319Y-91941607D01*
X101733341Y-91951915D01*
X101691860Y-91956000D01*
X101090640Y-91956000D01*
X101049159Y-91951915D01*
X101015181Y-91941607D01*
X100983863Y-91924867D01*
X100956411Y-91902339D01*
X100933883Y-91874887D01*
X100917143Y-91843569D01*
X100906835Y-91809591D01*
X100902750Y-91768110D01*
X100902750Y-91091890D01*
X100906835Y-91050409D01*
X100917143Y-91016431D01*
X100933883Y-90985113D01*
X100956411Y-90957661D01*
X100983863Y-90935133D01*
X101015181Y-90918393D01*
X101049159Y-90908085D01*
X101090640Y-90904000D01*
X101691860Y-90904000D01*
X101733341Y-90908085D01*
X101733341Y-90908085D01*
G37*
G36*
X96777091Y-90908085D02*
X96811069Y-90918393D01*
X96842387Y-90935133D01*
X96869839Y-90957661D01*
X96892367Y-90985113D01*
X96909107Y-91016431D01*
X96919415Y-91050409D01*
X96923500Y-91091890D01*
X96923500Y-91768110D01*
X96919415Y-91809591D01*
X96909107Y-91843569D01*
X96892367Y-91874887D01*
X96869839Y-91902339D01*
X96842387Y-91924867D01*
X96811069Y-91941607D01*
X96777091Y-91951915D01*
X96735610Y-91956000D01*
X96134390Y-91956000D01*
X96092909Y-91951915D01*
X96058931Y-91941607D01*
X96027613Y-91924867D01*
X96000161Y-91902339D01*
X95977633Y-91874887D01*
X95960893Y-91843569D01*
X95950585Y-91809591D01*
X95946500Y-91768110D01*
X95946500Y-91091890D01*
X95950585Y-91050409D01*
X95960893Y-91016431D01*
X95977633Y-90985113D01*
X96000161Y-90957661D01*
X96027613Y-90935133D01*
X96058931Y-90918393D01*
X96092909Y-90908085D01*
X96134390Y-90904000D01*
X96735610Y-90904000D01*
X96777091Y-90908085D01*
X96777091Y-90908085D01*
G37*
G36*
X121451966Y-89613565D02*
X121490637Y-89625296D01*
X121526279Y-89644348D01*
X121557517Y-89669983D01*
X121583152Y-89701221D01*
X121602204Y-89736863D01*
X121613935Y-89775534D01*
X121618500Y-89821888D01*
X121618500Y-90898112D01*
X121613935Y-90944466D01*
X121602204Y-90983137D01*
X121583152Y-91018779D01*
X121557517Y-91050017D01*
X121526279Y-91075652D01*
X121490637Y-91094704D01*
X121451966Y-91106435D01*
X121405612Y-91111000D01*
X120754388Y-91111000D01*
X120708034Y-91106435D01*
X120669363Y-91094704D01*
X120633721Y-91075652D01*
X120602483Y-91050017D01*
X120576848Y-91018779D01*
X120557796Y-90983137D01*
X120546065Y-90944466D01*
X120541500Y-90898112D01*
X120541500Y-89821888D01*
X120546065Y-89775534D01*
X120557796Y-89736863D01*
X120576848Y-89701221D01*
X120602483Y-89669983D01*
X120633721Y-89644348D01*
X120669363Y-89625296D01*
X120708034Y-89613565D01*
X120754388Y-89609000D01*
X121405612Y-89609000D01*
X121451966Y-89613565D01*
X121451966Y-89613565D01*
G37*
G36*
X119576966Y-89613565D02*
X119615637Y-89625296D01*
X119651279Y-89644348D01*
X119682517Y-89669983D01*
X119708152Y-89701221D01*
X119727204Y-89736863D01*
X119738935Y-89775534D01*
X119743500Y-89821888D01*
X119743500Y-90898112D01*
X119738935Y-90944466D01*
X119727204Y-90983137D01*
X119708152Y-91018779D01*
X119682517Y-91050017D01*
X119651279Y-91075652D01*
X119615637Y-91094704D01*
X119576966Y-91106435D01*
X119530612Y-91111000D01*
X118879388Y-91111000D01*
X118833034Y-91106435D01*
X118794363Y-91094704D01*
X118758721Y-91075652D01*
X118727483Y-91050017D01*
X118701848Y-91018779D01*
X118682796Y-90983137D01*
X118671065Y-90944466D01*
X118666500Y-90898112D01*
X118666500Y-89821888D01*
X118671065Y-89775534D01*
X118682796Y-89736863D01*
X118701848Y-89701221D01*
X118727483Y-89669983D01*
X118758721Y-89644348D01*
X118794363Y-89625296D01*
X118833034Y-89613565D01*
X118879388Y-89609000D01*
X119530612Y-89609000D01*
X119576966Y-89613565D01*
X119576966Y-89613565D01*
G37*
G36*
X107526000Y-89281000D02*
X105424000Y-89281000D01*
X105424000Y-87399000D01*
X107526000Y-87399000D01*
X107526000Y-89281000D01*
X107526000Y-89281000D01*
G37*
G36*
X97996000Y-89281000D02*
X95894000Y-89281000D01*
X95894000Y-87399000D01*
X97996000Y-87399000D01*
X97996000Y-89281000D01*
X97996000Y-89281000D01*
G37*
G36*
X115121000Y-88901000D02*
X113019000Y-88901000D01*
X113019000Y-87299000D01*
X115121000Y-87299000D01*
X115121000Y-88901000D01*
X115121000Y-88901000D01*
G37*
G36*
X121421000Y-87751000D02*
X119319000Y-87751000D01*
X119319000Y-83849000D01*
X121421000Y-83849000D01*
X121421000Y-87751000D01*
X121421000Y-87751000D01*
G37*
G36*
X128251000Y-87371000D02*
X125149000Y-87371000D01*
X125149000Y-84269000D01*
X128251000Y-84269000D01*
X128251000Y-87371000D01*
X128251000Y-87371000D01*
G37*
G36*
X97996000Y-86741000D02*
X95894000Y-86741000D01*
X95894000Y-84859000D01*
X97996000Y-84859000D01*
X97996000Y-86741000D01*
X97996000Y-86741000D01*
G37*
G36*
X107526000Y-86741000D02*
X105424000Y-86741000D01*
X105424000Y-84859000D01*
X107526000Y-84859000D01*
X107526000Y-86741000D01*
X107526000Y-86741000D01*
G37*
G36*
X115121000Y-86601000D02*
X113019000Y-86601000D01*
X113019000Y-84999000D01*
X115121000Y-84999000D01*
X115121000Y-86601000D01*
X115121000Y-86601000D01*
G37*
G36*
X110384466Y-84423565D02*
X110423137Y-84435296D01*
X110458779Y-84454348D01*
X110490017Y-84479983D01*
X110515652Y-84511221D01*
X110534704Y-84546863D01*
X110546435Y-84585534D01*
X110551000Y-84631888D01*
X110551000Y-85283112D01*
X110546435Y-85329466D01*
X110534704Y-85368137D01*
X110515652Y-85403779D01*
X110490017Y-85435017D01*
X110458779Y-85460652D01*
X110423137Y-85479704D01*
X110384466Y-85491435D01*
X110338112Y-85496000D01*
X109261888Y-85496000D01*
X109215534Y-85491435D01*
X109176863Y-85479704D01*
X109141221Y-85460652D01*
X109109983Y-85435017D01*
X109084348Y-85403779D01*
X109065296Y-85368137D01*
X109053565Y-85329466D01*
X109049000Y-85283112D01*
X109049000Y-84631888D01*
X109053565Y-84585534D01*
X109065296Y-84546863D01*
X109084348Y-84511221D01*
X109109983Y-84479983D01*
X109141221Y-84454348D01*
X109176863Y-84435296D01*
X109215534Y-84423565D01*
X109261888Y-84419000D01*
X110338112Y-84419000D01*
X110384466Y-84423565D01*
X110384466Y-84423565D01*
G37*
G36*
X115121000Y-84301000D02*
X113019000Y-84301000D01*
X113019000Y-82699000D01*
X115121000Y-82699000D01*
X115121000Y-84301000D01*
X115121000Y-84301000D01*
G37*
G36*
X97996000Y-84201000D02*
X95894000Y-84201000D01*
X95894000Y-82319000D01*
X97996000Y-82319000D01*
X97996000Y-84201000D01*
X97996000Y-84201000D01*
G37*
G36*
X107526000Y-84201000D02*
X105424000Y-84201000D01*
X105424000Y-82319000D01*
X107526000Y-82319000D01*
X107526000Y-84201000D01*
X107526000Y-84201000D01*
G37*
G36*
X110384466Y-82548565D02*
X110423137Y-82560296D01*
X110458779Y-82579348D01*
X110490017Y-82604983D01*
X110515652Y-82636221D01*
X110534704Y-82671863D01*
X110546435Y-82710534D01*
X110551000Y-82756888D01*
X110551000Y-83408112D01*
X110546435Y-83454466D01*
X110534704Y-83493137D01*
X110515652Y-83528779D01*
X110490017Y-83560017D01*
X110458779Y-83585652D01*
X110423137Y-83604704D01*
X110384466Y-83616435D01*
X110338112Y-83621000D01*
X109261888Y-83621000D01*
X109215534Y-83616435D01*
X109176863Y-83604704D01*
X109141221Y-83585652D01*
X109109983Y-83560017D01*
X109084348Y-83528779D01*
X109065296Y-83493137D01*
X109053565Y-83454466D01*
X109049000Y-83408112D01*
X109049000Y-82756888D01*
X109053565Y-82710534D01*
X109065296Y-82671863D01*
X109084348Y-82636221D01*
X109109983Y-82604983D01*
X109141221Y-82579348D01*
X109176863Y-82560296D01*
X109215534Y-82548565D01*
X109261888Y-82544000D01*
X110338112Y-82544000D01*
X110384466Y-82548565D01*
X110384466Y-82548565D01*
G37*
G36*
X101733341Y-80078085D02*
X101767319Y-80088393D01*
X101798637Y-80105133D01*
X101826089Y-80127661D01*
X101848617Y-80155113D01*
X101865357Y-80186431D01*
X101875665Y-80220409D01*
X101879750Y-80261890D01*
X101879750Y-80938110D01*
X101875665Y-80979591D01*
X101865357Y-81013569D01*
X101848617Y-81044887D01*
X101826089Y-81072339D01*
X101798637Y-81094867D01*
X101767319Y-81111607D01*
X101733341Y-81121915D01*
X101691860Y-81126000D01*
X101090640Y-81126000D01*
X101049159Y-81121915D01*
X101015181Y-81111607D01*
X100983863Y-81094867D01*
X100956411Y-81072339D01*
X100933883Y-81044887D01*
X100917143Y-81013569D01*
X100906835Y-80979591D01*
X100902750Y-80938110D01*
X100902750Y-80261890D01*
X100906835Y-80220409D01*
X100917143Y-80186431D01*
X100933883Y-80155113D01*
X100956411Y-80127661D01*
X100983863Y-80105133D01*
X101015181Y-80088393D01*
X101049159Y-80078085D01*
X101090640Y-80074000D01*
X101691860Y-80074000D01*
X101733341Y-80078085D01*
X101733341Y-80078085D01*
G37*
G36*
X103539591Y-80078085D02*
X103573569Y-80088393D01*
X103604887Y-80105133D01*
X103632339Y-80127661D01*
X103654867Y-80155113D01*
X103671607Y-80186431D01*
X103681915Y-80220409D01*
X103686000Y-80261890D01*
X103686000Y-80938110D01*
X103681915Y-80979591D01*
X103671607Y-81013569D01*
X103654867Y-81044887D01*
X103632339Y-81072339D01*
X103604887Y-81094867D01*
X103573569Y-81111607D01*
X103539591Y-81121915D01*
X103498110Y-81126000D01*
X102896890Y-81126000D01*
X102855409Y-81121915D01*
X102821431Y-81111607D01*
X102790113Y-81094867D01*
X102762661Y-81072339D01*
X102740133Y-81044887D01*
X102723393Y-81013569D01*
X102713085Y-80979591D01*
X102709000Y-80938110D01*
X102709000Y-80261890D01*
X102713085Y-80220409D01*
X102723393Y-80186431D01*
X102740133Y-80155113D01*
X102762661Y-80127661D01*
X102790113Y-80105133D01*
X102821431Y-80088393D01*
X102855409Y-80078085D01*
X102896890Y-80074000D01*
X103498110Y-80074000D01*
X103539591Y-80078085D01*
X103539591Y-80078085D01*
G37*
G36*
X100158341Y-80078085D02*
X100192319Y-80088393D01*
X100223637Y-80105133D01*
X100251089Y-80127661D01*
X100273617Y-80155113D01*
X100290357Y-80186431D01*
X100300665Y-80220409D01*
X100304750Y-80261890D01*
X100304750Y-80938110D01*
X100300665Y-80979591D01*
X100290357Y-81013569D01*
X100273617Y-81044887D01*
X100251089Y-81072339D01*
X100223637Y-81094867D01*
X100192319Y-81111607D01*
X100158341Y-81121915D01*
X100116860Y-81126000D01*
X99515640Y-81126000D01*
X99474159Y-81121915D01*
X99440181Y-81111607D01*
X99408863Y-81094867D01*
X99381411Y-81072339D01*
X99358883Y-81044887D01*
X99342143Y-81013569D01*
X99331835Y-80979591D01*
X99327750Y-80938110D01*
X99327750Y-80261890D01*
X99331835Y-80220409D01*
X99342143Y-80186431D01*
X99358883Y-80155113D01*
X99381411Y-80127661D01*
X99408863Y-80105133D01*
X99440181Y-80088393D01*
X99474159Y-80078085D01*
X99515640Y-80074000D01*
X100116860Y-80074000D01*
X100158341Y-80078085D01*
X100158341Y-80078085D01*
G37*
G36*
X98352091Y-80078085D02*
X98386069Y-80088393D01*
X98417387Y-80105133D01*
X98444839Y-80127661D01*
X98467367Y-80155113D01*
X98484107Y-80186431D01*
X98494415Y-80220409D01*
X98498500Y-80261890D01*
X98498500Y-80938110D01*
X98494415Y-80979591D01*
X98484107Y-81013569D01*
X98467367Y-81044887D01*
X98444839Y-81072339D01*
X98417387Y-81094867D01*
X98386069Y-81111607D01*
X98352091Y-81121915D01*
X98310610Y-81126000D01*
X97709390Y-81126000D01*
X97667909Y-81121915D01*
X97633931Y-81111607D01*
X97602613Y-81094867D01*
X97575161Y-81072339D01*
X97552633Y-81044887D01*
X97535893Y-81013569D01*
X97525585Y-80979591D01*
X97521500Y-80938110D01*
X97521500Y-80261890D01*
X97525585Y-80220409D01*
X97535893Y-80186431D01*
X97552633Y-80155113D01*
X97575161Y-80127661D01*
X97602613Y-80105133D01*
X97633931Y-80088393D01*
X97667909Y-80078085D01*
X97709390Y-80074000D01*
X98310610Y-80074000D01*
X98352091Y-80078085D01*
X98352091Y-80078085D01*
G37*
G36*
X96777091Y-80078085D02*
X96811069Y-80088393D01*
X96842387Y-80105133D01*
X96869839Y-80127661D01*
X96892367Y-80155113D01*
X96909107Y-80186431D01*
X96919415Y-80220409D01*
X96923500Y-80261890D01*
X96923500Y-80938110D01*
X96919415Y-80979591D01*
X96909107Y-81013569D01*
X96892367Y-81044887D01*
X96869839Y-81072339D01*
X96842387Y-81094867D01*
X96811069Y-81111607D01*
X96777091Y-81121915D01*
X96735610Y-81126000D01*
X96134390Y-81126000D01*
X96092909Y-81121915D01*
X96058931Y-81111607D01*
X96027613Y-81094867D01*
X96000161Y-81072339D01*
X95977633Y-81044887D01*
X95960893Y-81013569D01*
X95950585Y-80979591D01*
X95946500Y-80938110D01*
X95946500Y-80261890D01*
X95950585Y-80220409D01*
X95960893Y-80186431D01*
X95977633Y-80155113D01*
X96000161Y-80127661D01*
X96027613Y-80105133D01*
X96058931Y-80088393D01*
X96092909Y-80078085D01*
X96134390Y-80074000D01*
X96735610Y-80074000D01*
X96777091Y-80078085D01*
X96777091Y-80078085D01*
G37*
G36*
X105114591Y-80078085D02*
X105148569Y-80088393D01*
X105179887Y-80105133D01*
X105207339Y-80127661D01*
X105229867Y-80155113D01*
X105246607Y-80186431D01*
X105256915Y-80220409D01*
X105261000Y-80261890D01*
X105261000Y-80938110D01*
X105256915Y-80979591D01*
X105246607Y-81013569D01*
X105229867Y-81044887D01*
X105207339Y-81072339D01*
X105179887Y-81094867D01*
X105148569Y-81111607D01*
X105114591Y-81121915D01*
X105073110Y-81126000D01*
X104471890Y-81126000D01*
X104430409Y-81121915D01*
X104396431Y-81111607D01*
X104365113Y-81094867D01*
X104337661Y-81072339D01*
X104315133Y-81044887D01*
X104298393Y-81013569D01*
X104288085Y-80979591D01*
X104284000Y-80938110D01*
X104284000Y-80261890D01*
X104288085Y-80220409D01*
X104298393Y-80186431D01*
X104315133Y-80155113D01*
X104337661Y-80127661D01*
X104365113Y-80105133D01*
X104396431Y-80088393D01*
X104430409Y-80078085D01*
X104471890Y-80074000D01*
X105073110Y-80074000D01*
X105114591Y-80078085D01*
X105114591Y-80078085D01*
G37*
G36*
X115121000Y-80021000D02*
X113019000Y-80021000D01*
X113019000Y-78419000D01*
X115121000Y-78419000D01*
X115121000Y-80021000D01*
X115121000Y-80021000D01*
G37*
G36*
X121421000Y-78871000D02*
X119319000Y-78871000D01*
X119319000Y-74969000D01*
X121421000Y-74969000D01*
X121421000Y-78871000D01*
X121421000Y-78871000D01*
G37*
G36*
X107526000Y-78531000D02*
X105424000Y-78531000D01*
X105424000Y-76649000D01*
X107526000Y-76649000D01*
X107526000Y-78531000D01*
X107526000Y-78531000D01*
G37*
G36*
X97996000Y-78531000D02*
X95894000Y-78531000D01*
X95894000Y-76649000D01*
X97996000Y-76649000D01*
X97996000Y-78531000D01*
X97996000Y-78531000D01*
G37*
G36*
X110534466Y-76891065D02*
X110573137Y-76902796D01*
X110608779Y-76921848D01*
X110640017Y-76947483D01*
X110665652Y-76978721D01*
X110684704Y-77014363D01*
X110696435Y-77053034D01*
X110701000Y-77099388D01*
X110701000Y-77750612D01*
X110696435Y-77796966D01*
X110684704Y-77835637D01*
X110665652Y-77871279D01*
X110640017Y-77902517D01*
X110608779Y-77928152D01*
X110573137Y-77947204D01*
X110534466Y-77958935D01*
X110488112Y-77963500D01*
X109411888Y-77963500D01*
X109365534Y-77958935D01*
X109326863Y-77947204D01*
X109291221Y-77928152D01*
X109259983Y-77902517D01*
X109234348Y-77871279D01*
X109215296Y-77835637D01*
X109203565Y-77796966D01*
X109199000Y-77750612D01*
X109199000Y-77099388D01*
X109203565Y-77053034D01*
X109215296Y-77014363D01*
X109234348Y-76978721D01*
X109259983Y-76947483D01*
X109291221Y-76921848D01*
X109326863Y-76902796D01*
X109365534Y-76891065D01*
X109411888Y-76886500D01*
X110488112Y-76886500D01*
X110534466Y-76891065D01*
X110534466Y-76891065D01*
G37*
G36*
X115121000Y-77721000D02*
X113019000Y-77721000D01*
X113019000Y-76119000D01*
X115121000Y-76119000D01*
X115121000Y-77721000D01*
X115121000Y-77721000D01*
G37*
G36*
X110534466Y-75016065D02*
X110573137Y-75027796D01*
X110608779Y-75046848D01*
X110640017Y-75072483D01*
X110665652Y-75103721D01*
X110684704Y-75139363D01*
X110696435Y-75178034D01*
X110701000Y-75224388D01*
X110701000Y-75875612D01*
X110696435Y-75921966D01*
X110684704Y-75960637D01*
X110665652Y-75996279D01*
X110640017Y-76027517D01*
X110608779Y-76053152D01*
X110573137Y-76072204D01*
X110534466Y-76083935D01*
X110488112Y-76088500D01*
X109411888Y-76088500D01*
X109365534Y-76083935D01*
X109326863Y-76072204D01*
X109291221Y-76053152D01*
X109259983Y-76027517D01*
X109234348Y-75996279D01*
X109215296Y-75960637D01*
X109203565Y-75921966D01*
X109199000Y-75875612D01*
X109199000Y-75224388D01*
X109203565Y-75178034D01*
X109215296Y-75139363D01*
X109234348Y-75103721D01*
X109259983Y-75072483D01*
X109291221Y-75046848D01*
X109326863Y-75027796D01*
X109365534Y-75016065D01*
X109411888Y-75011500D01*
X110488112Y-75011500D01*
X110534466Y-75016065D01*
X110534466Y-75016065D01*
G37*
G36*
X97996000Y-75991000D02*
X95894000Y-75991000D01*
X95894000Y-74109000D01*
X97996000Y-74109000D01*
X97996000Y-75991000D01*
X97996000Y-75991000D01*
G37*
G36*
X107526000Y-75991000D02*
X105424000Y-75991000D01*
X105424000Y-74109000D01*
X107526000Y-74109000D01*
X107526000Y-75991000D01*
X107526000Y-75991000D01*
G37*
G36*
X115121000Y-75421000D02*
X113019000Y-75421000D01*
X113019000Y-73819000D01*
X115121000Y-73819000D01*
X115121000Y-75421000D01*
X115121000Y-75421000D01*
G37*
G36*
X110424466Y-72876065D02*
X110463137Y-72887796D01*
X110498779Y-72906848D01*
X110530017Y-72932483D01*
X110555652Y-72963721D01*
X110574704Y-72999363D01*
X110586435Y-73038034D01*
X110591000Y-73084388D01*
X110591000Y-73735612D01*
X110586435Y-73781966D01*
X110574704Y-73820637D01*
X110555652Y-73856279D01*
X110530017Y-73887517D01*
X110498779Y-73913152D01*
X110463137Y-73932204D01*
X110424466Y-73943935D01*
X110378112Y-73948500D01*
X109301888Y-73948500D01*
X109255534Y-73943935D01*
X109216863Y-73932204D01*
X109181221Y-73913152D01*
X109149983Y-73887517D01*
X109124348Y-73856279D01*
X109105296Y-73820637D01*
X109093565Y-73781966D01*
X109089000Y-73735612D01*
X109089000Y-73084388D01*
X109093565Y-73038034D01*
X109105296Y-72999363D01*
X109124348Y-72963721D01*
X109149983Y-72932483D01*
X109181221Y-72906848D01*
X109216863Y-72887796D01*
X109255534Y-72876065D01*
X109301888Y-72871500D01*
X110378112Y-72871500D01*
X110424466Y-72876065D01*
X110424466Y-72876065D01*
G37*
G36*
X97996000Y-73451000D02*
X95894000Y-73451000D01*
X95894000Y-71569000D01*
X97996000Y-71569000D01*
X97996000Y-73451000D01*
X97996000Y-73451000D01*
G37*
G36*
X107526000Y-73451000D02*
X105424000Y-73451000D01*
X105424000Y-71569000D01*
X107526000Y-71569000D01*
X107526000Y-73451000D01*
X107526000Y-73451000D01*
G37*
G36*
X112371966Y-70803565D02*
X112410637Y-70815296D01*
X112446279Y-70834348D01*
X112477517Y-70859983D01*
X112503152Y-70891221D01*
X112522204Y-70926863D01*
X112533935Y-70965534D01*
X112538500Y-71011888D01*
X112538500Y-72088112D01*
X112533935Y-72134466D01*
X112522204Y-72173137D01*
X112503152Y-72208779D01*
X112477517Y-72240017D01*
X112446279Y-72265652D01*
X112410637Y-72284704D01*
X112371966Y-72296435D01*
X112325612Y-72301000D01*
X111674388Y-72301000D01*
X111628034Y-72296435D01*
X111589363Y-72284704D01*
X111553721Y-72265652D01*
X111522483Y-72240017D01*
X111496848Y-72208779D01*
X111477796Y-72173137D01*
X111466065Y-72134466D01*
X111461500Y-72088112D01*
X111461500Y-71011888D01*
X111466065Y-70965534D01*
X111477796Y-70926863D01*
X111496848Y-70891221D01*
X111522483Y-70859983D01*
X111553721Y-70834348D01*
X111589363Y-70815296D01*
X111628034Y-70803565D01*
X111674388Y-70799000D01*
X112325612Y-70799000D01*
X112371966Y-70803565D01*
X112371966Y-70803565D01*
G37*
G36*
X114246966Y-70803565D02*
X114285637Y-70815296D01*
X114321279Y-70834348D01*
X114352517Y-70859983D01*
X114378152Y-70891221D01*
X114397204Y-70926863D01*
X114408935Y-70965534D01*
X114413500Y-71011888D01*
X114413500Y-72088112D01*
X114408935Y-72134466D01*
X114397204Y-72173137D01*
X114378152Y-72208779D01*
X114352517Y-72240017D01*
X114321279Y-72265652D01*
X114285637Y-72284704D01*
X114246966Y-72296435D01*
X114200612Y-72301000D01*
X113549388Y-72301000D01*
X113503034Y-72296435D01*
X113464363Y-72284704D01*
X113428721Y-72265652D01*
X113397483Y-72240017D01*
X113371848Y-72208779D01*
X113352796Y-72173137D01*
X113341065Y-72134466D01*
X113336500Y-72088112D01*
X113336500Y-71011888D01*
X113341065Y-70965534D01*
X113352796Y-70926863D01*
X113371848Y-70891221D01*
X113397483Y-70859983D01*
X113428721Y-70834348D01*
X113464363Y-70815296D01*
X113503034Y-70803565D01*
X113549388Y-70799000D01*
X114200612Y-70799000D01*
X114246966Y-70803565D01*
X114246966Y-70803565D01*
G37*
G36*
X110424466Y-71001065D02*
X110463137Y-71012796D01*
X110498779Y-71031848D01*
X110530017Y-71057483D01*
X110555652Y-71088721D01*
X110574704Y-71124363D01*
X110586435Y-71163034D01*
X110591000Y-71209388D01*
X110591000Y-71860612D01*
X110586435Y-71906966D01*
X110574704Y-71945637D01*
X110555652Y-71981279D01*
X110530017Y-72012517D01*
X110498779Y-72038152D01*
X110463137Y-72057204D01*
X110424466Y-72068935D01*
X110378112Y-72073500D01*
X109301888Y-72073500D01*
X109255534Y-72068935D01*
X109216863Y-72057204D01*
X109181221Y-72038152D01*
X109149983Y-72012517D01*
X109124348Y-71981279D01*
X109105296Y-71945637D01*
X109093565Y-71906966D01*
X109089000Y-71860612D01*
X109089000Y-71209388D01*
X109093565Y-71163034D01*
X109105296Y-71124363D01*
X109124348Y-71088721D01*
X109149983Y-71057483D01*
X109181221Y-71031848D01*
X109216863Y-71012796D01*
X109255534Y-71001065D01*
X109301888Y-70996500D01*
X110378112Y-70996500D01*
X110424466Y-71001065D01*
X110424466Y-71001065D01*
G37*
G36*
X105174591Y-69378085D02*
X105208569Y-69388393D01*
X105239887Y-69405133D01*
X105267339Y-69427661D01*
X105289867Y-69455113D01*
X105306607Y-69486431D01*
X105316915Y-69520409D01*
X105321000Y-69561890D01*
X105321000Y-70238110D01*
X105316915Y-70279591D01*
X105306607Y-70313569D01*
X105289867Y-70344887D01*
X105267339Y-70372339D01*
X105239887Y-70394867D01*
X105208569Y-70411607D01*
X105174591Y-70421915D01*
X105133110Y-70426000D01*
X104531890Y-70426000D01*
X104490409Y-70421915D01*
X104456431Y-70411607D01*
X104425113Y-70394867D01*
X104397661Y-70372339D01*
X104375133Y-70344887D01*
X104358393Y-70313569D01*
X104348085Y-70279591D01*
X104344000Y-70238110D01*
X104344000Y-69561890D01*
X104348085Y-69520409D01*
X104358393Y-69486431D01*
X104375133Y-69455113D01*
X104397661Y-69427661D01*
X104425113Y-69405133D01*
X104456431Y-69388393D01*
X104490409Y-69378085D01*
X104531890Y-69374000D01*
X105133110Y-69374000D01*
X105174591Y-69378085D01*
X105174591Y-69378085D01*
G37*
G36*
X103599591Y-69378085D02*
X103633569Y-69388393D01*
X103664887Y-69405133D01*
X103692339Y-69427661D01*
X103714867Y-69455113D01*
X103731607Y-69486431D01*
X103741915Y-69520409D01*
X103746000Y-69561890D01*
X103746000Y-70238110D01*
X103741915Y-70279591D01*
X103731607Y-70313569D01*
X103714867Y-70344887D01*
X103692339Y-70372339D01*
X103664887Y-70394867D01*
X103633569Y-70411607D01*
X103599591Y-70421915D01*
X103558110Y-70426000D01*
X102956890Y-70426000D01*
X102915409Y-70421915D01*
X102881431Y-70411607D01*
X102850113Y-70394867D01*
X102822661Y-70372339D01*
X102800133Y-70344887D01*
X102783393Y-70313569D01*
X102773085Y-70279591D01*
X102769000Y-70238110D01*
X102769000Y-69561890D01*
X102773085Y-69520409D01*
X102783393Y-69486431D01*
X102800133Y-69455113D01*
X102822661Y-69427661D01*
X102850113Y-69405133D01*
X102881431Y-69388393D01*
X102915409Y-69378085D01*
X102956890Y-69374000D01*
X103558110Y-69374000D01*
X103599591Y-69378085D01*
X103599591Y-69378085D01*
G37*
G36*
X98352091Y-69338085D02*
X98386069Y-69348393D01*
X98417387Y-69365133D01*
X98444839Y-69387661D01*
X98467367Y-69415113D01*
X98484107Y-69446431D01*
X98494415Y-69480409D01*
X98498500Y-69521890D01*
X98498500Y-70198110D01*
X98494415Y-70239591D01*
X98484107Y-70273569D01*
X98467367Y-70304887D01*
X98444839Y-70332339D01*
X98417387Y-70354867D01*
X98386069Y-70371607D01*
X98352091Y-70381915D01*
X98310610Y-70386000D01*
X97709390Y-70386000D01*
X97667909Y-70381915D01*
X97633931Y-70371607D01*
X97602613Y-70354867D01*
X97575161Y-70332339D01*
X97552633Y-70304887D01*
X97535893Y-70273569D01*
X97525585Y-70239591D01*
X97521500Y-70198110D01*
X97521500Y-69521890D01*
X97525585Y-69480409D01*
X97535893Y-69446431D01*
X97552633Y-69415113D01*
X97575161Y-69387661D01*
X97602613Y-69365133D01*
X97633931Y-69348393D01*
X97667909Y-69338085D01*
X97709390Y-69334000D01*
X98310610Y-69334000D01*
X98352091Y-69338085D01*
X98352091Y-69338085D01*
G37*
G36*
X96777091Y-69338085D02*
X96811069Y-69348393D01*
X96842387Y-69365133D01*
X96869839Y-69387661D01*
X96892367Y-69415113D01*
X96909107Y-69446431D01*
X96919415Y-69480409D01*
X96923500Y-69521890D01*
X96923500Y-70198110D01*
X96919415Y-70239591D01*
X96909107Y-70273569D01*
X96892367Y-70304887D01*
X96869839Y-70332339D01*
X96842387Y-70354867D01*
X96811069Y-70371607D01*
X96777091Y-70381915D01*
X96735610Y-70386000D01*
X96134390Y-70386000D01*
X96092909Y-70381915D01*
X96058931Y-70371607D01*
X96027613Y-70354867D01*
X96000161Y-70332339D01*
X95977633Y-70304887D01*
X95960893Y-70273569D01*
X95950585Y-70239591D01*
X95946500Y-70198110D01*
X95946500Y-69521890D01*
X95950585Y-69480409D01*
X95960893Y-69446431D01*
X95977633Y-69415113D01*
X96000161Y-69387661D01*
X96027613Y-69365133D01*
X96058931Y-69348393D01*
X96092909Y-69338085D01*
X96134390Y-69334000D01*
X96735610Y-69334000D01*
X96777091Y-69338085D01*
X96777091Y-69338085D01*
G37*
G36*
X100218341Y-69338085D02*
X100252319Y-69348393D01*
X100283637Y-69365133D01*
X100311089Y-69387661D01*
X100333617Y-69415113D01*
X100350357Y-69446431D01*
X100360665Y-69480409D01*
X100364750Y-69521890D01*
X100364750Y-70198110D01*
X100360665Y-70239591D01*
X100350357Y-70273569D01*
X100333617Y-70304887D01*
X100311089Y-70332339D01*
X100283637Y-70354867D01*
X100252319Y-70371607D01*
X100218341Y-70381915D01*
X100176860Y-70386000D01*
X99575640Y-70386000D01*
X99534159Y-70381915D01*
X99500181Y-70371607D01*
X99468863Y-70354867D01*
X99441411Y-70332339D01*
X99418883Y-70304887D01*
X99402143Y-70273569D01*
X99391835Y-70239591D01*
X99387750Y-70198110D01*
X99387750Y-69521890D01*
X99391835Y-69480409D01*
X99402143Y-69446431D01*
X99418883Y-69415113D01*
X99441411Y-69387661D01*
X99468863Y-69365133D01*
X99500181Y-69348393D01*
X99534159Y-69338085D01*
X99575640Y-69334000D01*
X100176860Y-69334000D01*
X100218341Y-69338085D01*
X100218341Y-69338085D01*
G37*
G36*
X101793341Y-69338085D02*
X101827319Y-69348393D01*
X101858637Y-69365133D01*
X101886089Y-69387661D01*
X101908617Y-69415113D01*
X101925357Y-69446431D01*
X101935665Y-69480409D01*
X101939750Y-69521890D01*
X101939750Y-70198110D01*
X101935665Y-70239591D01*
X101925357Y-70273569D01*
X101908617Y-70304887D01*
X101886089Y-70332339D01*
X101858637Y-70354867D01*
X101827319Y-70371607D01*
X101793341Y-70381915D01*
X101751860Y-70386000D01*
X101150640Y-70386000D01*
X101109159Y-70381915D01*
X101075181Y-70371607D01*
X101043863Y-70354867D01*
X101016411Y-70332339D01*
X100993883Y-70304887D01*
X100977143Y-70273569D01*
X100966835Y-70239591D01*
X100962750Y-70198110D01*
X100962750Y-69521890D01*
X100966835Y-69480409D01*
X100977143Y-69446431D01*
X100993883Y-69415113D01*
X101016411Y-69387661D01*
X101043863Y-69365133D01*
X101075181Y-69348393D01*
X101109159Y-69338085D01*
X101150640Y-69334000D01*
X101751860Y-69334000D01*
X101793341Y-69338085D01*
X101793341Y-69338085D01*
G37*
G36*
X122226000Y-67576000D02*
X120424000Y-67576000D01*
X120424000Y-65774000D01*
X122226000Y-65774000D01*
X122226000Y-67576000D01*
X122226000Y-67576000D01*
G37*
G36*
X123975443Y-65780519D02*
X124041627Y-65787037D01*
X124154853Y-65821384D01*
X124211467Y-65838557D01*
X124350087Y-65912652D01*
X124367991Y-65922222D01*
X124403729Y-65951552D01*
X124505186Y-66034814D01*
X124588448Y-66136271D01*
X124617778Y-66172009D01*
X124617779Y-66172011D01*
X124701443Y-66328533D01*
X124701443Y-66328534D01*
X124752963Y-66498373D01*
X124770359Y-66675000D01*
X124752963Y-66851627D01*
X124718616Y-66964853D01*
X124701443Y-67021467D01*
X124627348Y-67160087D01*
X124617778Y-67177991D01*
X124588448Y-67213729D01*
X124505186Y-67315186D01*
X124403729Y-67398448D01*
X124367991Y-67427778D01*
X124367989Y-67427779D01*
X124211467Y-67511443D01*
X124154853Y-67528616D01*
X124041627Y-67562963D01*
X123975443Y-67569481D01*
X123909260Y-67576000D01*
X123820740Y-67576000D01*
X123754557Y-67569481D01*
X123688373Y-67562963D01*
X123575147Y-67528616D01*
X123518533Y-67511443D01*
X123362011Y-67427779D01*
X123362009Y-67427778D01*
X123326271Y-67398448D01*
X123224814Y-67315186D01*
X123141552Y-67213729D01*
X123112222Y-67177991D01*
X123102652Y-67160087D01*
X123028557Y-67021467D01*
X123011384Y-66964853D01*
X122977037Y-66851627D01*
X122959641Y-66675000D01*
X122977037Y-66498373D01*
X123028557Y-66328534D01*
X123028557Y-66328533D01*
X123112221Y-66172011D01*
X123112222Y-66172009D01*
X123141552Y-66136271D01*
X123224814Y-66034814D01*
X123326271Y-65951552D01*
X123362009Y-65922222D01*
X123379913Y-65912652D01*
X123518533Y-65838557D01*
X123575147Y-65821384D01*
X123688373Y-65787037D01*
X123754557Y-65780519D01*
X123820740Y-65774000D01*
X123909260Y-65774000D01*
X123975443Y-65780519D01*
X123975443Y-65780519D01*
G37*
G36*
X126515443Y-65780519D02*
X126581627Y-65787037D01*
X126694853Y-65821384D01*
X126751467Y-65838557D01*
X126890087Y-65912652D01*
X126907991Y-65922222D01*
X126943729Y-65951552D01*
X127045186Y-66034814D01*
X127128448Y-66136271D01*
X127157778Y-66172009D01*
X127157779Y-66172011D01*
X127241443Y-66328533D01*
X127241443Y-66328534D01*
X127292963Y-66498373D01*
X127310359Y-66675000D01*
X127292963Y-66851627D01*
X127258616Y-66964853D01*
X127241443Y-67021467D01*
X127167348Y-67160087D01*
X127157778Y-67177991D01*
X127128448Y-67213729D01*
X127045186Y-67315186D01*
X126943729Y-67398448D01*
X126907991Y-67427778D01*
X126907989Y-67427779D01*
X126751467Y-67511443D01*
X126694853Y-67528616D01*
X126581627Y-67562963D01*
X126515443Y-67569481D01*
X126449260Y-67576000D01*
X126360740Y-67576000D01*
X126294557Y-67569481D01*
X126228373Y-67562963D01*
X126115147Y-67528616D01*
X126058533Y-67511443D01*
X125902011Y-67427779D01*
X125902009Y-67427778D01*
X125866271Y-67398448D01*
X125764814Y-67315186D01*
X125681552Y-67213729D01*
X125652222Y-67177991D01*
X125642652Y-67160087D01*
X125568557Y-67021467D01*
X125551384Y-66964853D01*
X125517037Y-66851627D01*
X125499641Y-66675000D01*
X125517037Y-66498373D01*
X125568557Y-66328534D01*
X125568557Y-66328533D01*
X125652221Y-66172011D01*
X125652222Y-66172009D01*
X125681552Y-66136271D01*
X125764814Y-66034814D01*
X125866271Y-65951552D01*
X125902009Y-65922222D01*
X125919913Y-65912652D01*
X126058533Y-65838557D01*
X126115147Y-65821384D01*
X126228373Y-65787037D01*
X126294557Y-65780519D01*
X126360740Y-65774000D01*
X126449260Y-65774000D01*
X126515443Y-65780519D01*
X126515443Y-65780519D01*
G37*
G36*
X112600443Y-65780519D02*
X112666627Y-65787037D01*
X112779853Y-65821384D01*
X112836467Y-65838557D01*
X112975087Y-65912652D01*
X112992991Y-65922222D01*
X113028729Y-65951552D01*
X113130186Y-66034814D01*
X113213448Y-66136271D01*
X113242778Y-66172009D01*
X113242779Y-66172011D01*
X113326443Y-66328533D01*
X113326443Y-66328534D01*
X113377963Y-66498373D01*
X113395359Y-66675000D01*
X113377963Y-66851627D01*
X113343616Y-66964853D01*
X113326443Y-67021467D01*
X113252348Y-67160087D01*
X113242778Y-67177991D01*
X113213448Y-67213729D01*
X113130186Y-67315186D01*
X113028729Y-67398448D01*
X112992991Y-67427778D01*
X112992989Y-67427779D01*
X112836467Y-67511443D01*
X112779853Y-67528616D01*
X112666627Y-67562963D01*
X112600443Y-67569481D01*
X112534260Y-67576000D01*
X112445740Y-67576000D01*
X112379557Y-67569481D01*
X112313373Y-67562963D01*
X112200147Y-67528616D01*
X112143533Y-67511443D01*
X111987011Y-67427779D01*
X111987009Y-67427778D01*
X111951271Y-67398448D01*
X111849814Y-67315186D01*
X111766552Y-67213729D01*
X111737222Y-67177991D01*
X111727652Y-67160087D01*
X111653557Y-67021467D01*
X111636384Y-66964853D01*
X111602037Y-66851627D01*
X111584641Y-66675000D01*
X111602037Y-66498373D01*
X111653557Y-66328534D01*
X111653557Y-66328533D01*
X111737221Y-66172011D01*
X111737222Y-66172009D01*
X111766552Y-66136271D01*
X111849814Y-66034814D01*
X111951271Y-65951552D01*
X111987009Y-65922222D01*
X112004913Y-65912652D01*
X112143533Y-65838557D01*
X112200147Y-65821384D01*
X112313373Y-65787037D01*
X112379557Y-65780519D01*
X112445740Y-65774000D01*
X112534260Y-65774000D01*
X112600443Y-65780519D01*
X112600443Y-65780519D01*
G37*
G36*
X115140443Y-65780519D02*
X115206627Y-65787037D01*
X115319853Y-65821384D01*
X115376467Y-65838557D01*
X115515087Y-65912652D01*
X115532991Y-65922222D01*
X115568729Y-65951552D01*
X115670186Y-66034814D01*
X115753448Y-66136271D01*
X115782778Y-66172009D01*
X115782779Y-66172011D01*
X115866443Y-66328533D01*
X115866443Y-66328534D01*
X115917963Y-66498373D01*
X115935359Y-66675000D01*
X115917963Y-66851627D01*
X115883616Y-66964853D01*
X115866443Y-67021467D01*
X115792348Y-67160087D01*
X115782778Y-67177991D01*
X115753448Y-67213729D01*
X115670186Y-67315186D01*
X115568729Y-67398448D01*
X115532991Y-67427778D01*
X115532989Y-67427779D01*
X115376467Y-67511443D01*
X115319853Y-67528616D01*
X115206627Y-67562963D01*
X115140443Y-67569481D01*
X115074260Y-67576000D01*
X114985740Y-67576000D01*
X114919557Y-67569481D01*
X114853373Y-67562963D01*
X114740147Y-67528616D01*
X114683533Y-67511443D01*
X114527011Y-67427779D01*
X114527009Y-67427778D01*
X114491271Y-67398448D01*
X114389814Y-67315186D01*
X114306552Y-67213729D01*
X114277222Y-67177991D01*
X114267652Y-67160087D01*
X114193557Y-67021467D01*
X114176384Y-66964853D01*
X114142037Y-66851627D01*
X114124641Y-66675000D01*
X114142037Y-66498373D01*
X114193557Y-66328534D01*
X114193557Y-66328533D01*
X114277221Y-66172011D01*
X114277222Y-66172009D01*
X114306552Y-66136271D01*
X114389814Y-66034814D01*
X114491271Y-65951552D01*
X114527009Y-65922222D01*
X114544913Y-65912652D01*
X114683533Y-65838557D01*
X114740147Y-65821384D01*
X114853373Y-65787037D01*
X114919557Y-65780519D01*
X114985740Y-65774000D01*
X115074260Y-65774000D01*
X115140443Y-65780519D01*
X115140443Y-65780519D01*
G37*
G36*
X117680443Y-65780519D02*
X117746627Y-65787037D01*
X117859853Y-65821384D01*
X117916467Y-65838557D01*
X118055087Y-65912652D01*
X118072991Y-65922222D01*
X118108729Y-65951552D01*
X118210186Y-66034814D01*
X118293448Y-66136271D01*
X118322778Y-66172009D01*
X118322779Y-66172011D01*
X118406443Y-66328533D01*
X118406443Y-66328534D01*
X118457963Y-66498373D01*
X118475359Y-66675000D01*
X118457963Y-66851627D01*
X118423616Y-66964853D01*
X118406443Y-67021467D01*
X118332348Y-67160087D01*
X118322778Y-67177991D01*
X118293448Y-67213729D01*
X118210186Y-67315186D01*
X118108729Y-67398448D01*
X118072991Y-67427778D01*
X118072989Y-67427779D01*
X117916467Y-67511443D01*
X117859853Y-67528616D01*
X117746627Y-67562963D01*
X117680443Y-67569481D01*
X117614260Y-67576000D01*
X117525740Y-67576000D01*
X117459557Y-67569481D01*
X117393373Y-67562963D01*
X117280147Y-67528616D01*
X117223533Y-67511443D01*
X117067011Y-67427779D01*
X117067009Y-67427778D01*
X117031271Y-67398448D01*
X116929814Y-67315186D01*
X116846552Y-67213729D01*
X116817222Y-67177991D01*
X116807652Y-67160087D01*
X116733557Y-67021467D01*
X116716384Y-66964853D01*
X116682037Y-66851627D01*
X116664641Y-66675000D01*
X116682037Y-66498373D01*
X116733557Y-66328534D01*
X116733557Y-66328533D01*
X116817221Y-66172011D01*
X116817222Y-66172009D01*
X116846552Y-66136271D01*
X116929814Y-66034814D01*
X117031271Y-65951552D01*
X117067009Y-65922222D01*
X117084913Y-65912652D01*
X117223533Y-65838557D01*
X117280147Y-65821384D01*
X117393373Y-65787037D01*
X117459557Y-65780519D01*
X117525740Y-65774000D01*
X117614260Y-65774000D01*
X117680443Y-65780519D01*
X117680443Y-65780519D01*
G37*
G36*
X104551000Y-67576000D02*
X102749000Y-67576000D01*
X102749000Y-65774000D01*
X104551000Y-65774000D01*
X104551000Y-67576000D01*
X104551000Y-67576000D01*
G37*
G36*
X106300443Y-65780519D02*
X106366627Y-65787037D01*
X106479853Y-65821384D01*
X106536467Y-65838557D01*
X106675087Y-65912652D01*
X106692991Y-65922222D01*
X106728729Y-65951552D01*
X106830186Y-66034814D01*
X106913448Y-66136271D01*
X106942778Y-66172009D01*
X106942779Y-66172011D01*
X107026443Y-66328533D01*
X107026443Y-66328534D01*
X107077963Y-66498373D01*
X107095359Y-66675000D01*
X107077963Y-66851627D01*
X107043616Y-66964853D01*
X107026443Y-67021467D01*
X106952348Y-67160087D01*
X106942778Y-67177991D01*
X106913448Y-67213729D01*
X106830186Y-67315186D01*
X106728729Y-67398448D01*
X106692991Y-67427778D01*
X106692989Y-67427779D01*
X106536467Y-67511443D01*
X106479853Y-67528616D01*
X106366627Y-67562963D01*
X106300443Y-67569481D01*
X106234260Y-67576000D01*
X106145740Y-67576000D01*
X106079557Y-67569481D01*
X106013373Y-67562963D01*
X105900147Y-67528616D01*
X105843533Y-67511443D01*
X105687011Y-67427779D01*
X105687009Y-67427778D01*
X105651271Y-67398448D01*
X105549814Y-67315186D01*
X105466552Y-67213729D01*
X105437222Y-67177991D01*
X105427652Y-67160087D01*
X105353557Y-67021467D01*
X105336384Y-66964853D01*
X105302037Y-66851627D01*
X105284641Y-66675000D01*
X105302037Y-66498373D01*
X105353557Y-66328534D01*
X105353557Y-66328533D01*
X105437221Y-66172011D01*
X105437222Y-66172009D01*
X105466552Y-66136271D01*
X105549814Y-66034814D01*
X105651271Y-65951552D01*
X105687009Y-65922222D01*
X105704913Y-65912652D01*
X105843533Y-65838557D01*
X105900147Y-65821384D01*
X106013373Y-65787037D01*
X106079557Y-65780519D01*
X106145740Y-65774000D01*
X106234260Y-65774000D01*
X106300443Y-65780519D01*
X106300443Y-65780519D01*
G37*
G36*
X99955443Y-65780519D02*
X100021627Y-65787037D01*
X100134853Y-65821384D01*
X100191467Y-65838557D01*
X100330087Y-65912652D01*
X100347991Y-65922222D01*
X100383729Y-65951552D01*
X100485186Y-66034814D01*
X100568448Y-66136271D01*
X100597778Y-66172009D01*
X100597779Y-66172011D01*
X100681443Y-66328533D01*
X100681443Y-66328534D01*
X100732963Y-66498373D01*
X100750359Y-66675000D01*
X100732963Y-66851627D01*
X100698616Y-66964853D01*
X100681443Y-67021467D01*
X100607348Y-67160087D01*
X100597778Y-67177991D01*
X100568448Y-67213729D01*
X100485186Y-67315186D01*
X100383729Y-67398448D01*
X100347991Y-67427778D01*
X100347989Y-67427779D01*
X100191467Y-67511443D01*
X100134853Y-67528616D01*
X100021627Y-67562963D01*
X99955443Y-67569481D01*
X99889260Y-67576000D01*
X99800740Y-67576000D01*
X99734557Y-67569481D01*
X99668373Y-67562963D01*
X99555147Y-67528616D01*
X99498533Y-67511443D01*
X99342011Y-67427779D01*
X99342009Y-67427778D01*
X99306271Y-67398448D01*
X99204814Y-67315186D01*
X99121552Y-67213729D01*
X99092222Y-67177991D01*
X99082652Y-67160087D01*
X99008557Y-67021467D01*
X98991384Y-66964853D01*
X98957037Y-66851627D01*
X98939641Y-66675000D01*
X98957037Y-66498373D01*
X99008557Y-66328534D01*
X99008557Y-66328533D01*
X99092221Y-66172011D01*
X99092222Y-66172009D01*
X99121552Y-66136271D01*
X99204814Y-66034814D01*
X99306271Y-65951552D01*
X99342009Y-65922222D01*
X99359913Y-65912652D01*
X99498533Y-65838557D01*
X99555147Y-65821384D01*
X99668373Y-65787037D01*
X99734557Y-65780519D01*
X99800740Y-65774000D01*
X99889260Y-65774000D01*
X99955443Y-65780519D01*
X99955443Y-65780519D01*
G37*
G36*
X97415443Y-65780519D02*
X97481627Y-65787037D01*
X97594853Y-65821384D01*
X97651467Y-65838557D01*
X97790087Y-65912652D01*
X97807991Y-65922222D01*
X97843729Y-65951552D01*
X97945186Y-66034814D01*
X98028448Y-66136271D01*
X98057778Y-66172009D01*
X98057779Y-66172011D01*
X98141443Y-66328533D01*
X98141443Y-66328534D01*
X98192963Y-66498373D01*
X98210359Y-66675000D01*
X98192963Y-66851627D01*
X98158616Y-66964853D01*
X98141443Y-67021467D01*
X98067348Y-67160087D01*
X98057778Y-67177991D01*
X98028448Y-67213729D01*
X97945186Y-67315186D01*
X97843729Y-67398448D01*
X97807991Y-67427778D01*
X97807989Y-67427779D01*
X97651467Y-67511443D01*
X97594853Y-67528616D01*
X97481627Y-67562963D01*
X97415443Y-67569481D01*
X97349260Y-67576000D01*
X97260740Y-67576000D01*
X97194557Y-67569481D01*
X97128373Y-67562963D01*
X97015147Y-67528616D01*
X96958533Y-67511443D01*
X96802011Y-67427779D01*
X96802009Y-67427778D01*
X96766271Y-67398448D01*
X96664814Y-67315186D01*
X96581552Y-67213729D01*
X96552222Y-67177991D01*
X96542652Y-67160087D01*
X96468557Y-67021467D01*
X96451384Y-66964853D01*
X96417037Y-66851627D01*
X96399641Y-66675000D01*
X96417037Y-66498373D01*
X96468557Y-66328534D01*
X96468557Y-66328533D01*
X96552221Y-66172011D01*
X96552222Y-66172009D01*
X96581552Y-66136271D01*
X96664814Y-66034814D01*
X96766271Y-65951552D01*
X96802009Y-65922222D01*
X96819913Y-65912652D01*
X96958533Y-65838557D01*
X97015147Y-65821384D01*
X97128373Y-65787037D01*
X97194557Y-65780519D01*
X97260740Y-65774000D01*
X97349260Y-65774000D01*
X97415443Y-65780519D01*
X97415443Y-65780519D01*
G37*
G36*
X94875443Y-65780519D02*
X94941627Y-65787037D01*
X95054853Y-65821384D01*
X95111467Y-65838557D01*
X95250087Y-65912652D01*
X95267991Y-65922222D01*
X95303729Y-65951552D01*
X95405186Y-66034814D01*
X95488448Y-66136271D01*
X95517778Y-66172009D01*
X95517779Y-66172011D01*
X95601443Y-66328533D01*
X95601443Y-66328534D01*
X95652963Y-66498373D01*
X95670359Y-66675000D01*
X95652963Y-66851627D01*
X95618616Y-66964853D01*
X95601443Y-67021467D01*
X95527348Y-67160087D01*
X95517778Y-67177991D01*
X95488448Y-67213729D01*
X95405186Y-67315186D01*
X95303729Y-67398448D01*
X95267991Y-67427778D01*
X95267989Y-67427779D01*
X95111467Y-67511443D01*
X95054853Y-67528616D01*
X94941627Y-67562963D01*
X94875443Y-67569481D01*
X94809260Y-67576000D01*
X94720740Y-67576000D01*
X94654557Y-67569481D01*
X94588373Y-67562963D01*
X94475147Y-67528616D01*
X94418533Y-67511443D01*
X94262011Y-67427779D01*
X94262009Y-67427778D01*
X94226271Y-67398448D01*
X94124814Y-67315186D01*
X94041552Y-67213729D01*
X94012222Y-67177991D01*
X94002652Y-67160087D01*
X93928557Y-67021467D01*
X93911384Y-66964853D01*
X93877037Y-66851627D01*
X93859641Y-66675000D01*
X93877037Y-66498373D01*
X93928557Y-66328534D01*
X93928557Y-66328533D01*
X94012221Y-66172011D01*
X94012222Y-66172009D01*
X94041552Y-66136271D01*
X94124814Y-66034814D01*
X94226271Y-65951552D01*
X94262009Y-65922222D01*
X94279913Y-65912652D01*
X94418533Y-65838557D01*
X94475147Y-65821384D01*
X94588373Y-65787037D01*
X94654557Y-65780519D01*
X94720740Y-65774000D01*
X94809260Y-65774000D01*
X94875443Y-65780519D01*
X94875443Y-65780519D01*
G37*
G36*
X110851000Y-67576000D02*
X109049000Y-67576000D01*
X109049000Y-65774000D01*
X110851000Y-65774000D01*
X110851000Y-67576000D01*
X110851000Y-67576000D01*
G37*
G36*
X93126000Y-67576000D02*
X91324000Y-67576000D01*
X91324000Y-65774000D01*
X93126000Y-65774000D01*
X93126000Y-67576000D01*
X93126000Y-67576000D01*
G37*
G36*
X129055443Y-65780519D02*
X129121627Y-65787037D01*
X129234853Y-65821384D01*
X129291467Y-65838557D01*
X129430087Y-65912652D01*
X129447991Y-65922222D01*
X129483729Y-65951552D01*
X129585186Y-66034814D01*
X129668448Y-66136271D01*
X129697778Y-66172009D01*
X129697779Y-66172011D01*
X129781443Y-66328533D01*
X129781443Y-66328534D01*
X129832963Y-66498373D01*
X129850359Y-66675000D01*
X129832963Y-66851627D01*
X129798616Y-66964853D01*
X129781443Y-67021467D01*
X129707348Y-67160087D01*
X129697778Y-67177991D01*
X129668448Y-67213729D01*
X129585186Y-67315186D01*
X129483729Y-67398448D01*
X129447991Y-67427778D01*
X129447989Y-67427779D01*
X129291467Y-67511443D01*
X129234853Y-67528616D01*
X129121627Y-67562963D01*
X129055443Y-67569481D01*
X128989260Y-67576000D01*
X128900740Y-67576000D01*
X128834557Y-67569481D01*
X128768373Y-67562963D01*
X128655147Y-67528616D01*
X128598533Y-67511443D01*
X128442011Y-67427779D01*
X128442009Y-67427778D01*
X128406271Y-67398448D01*
X128304814Y-67315186D01*
X128221552Y-67213729D01*
X128192222Y-67177991D01*
X128182652Y-67160087D01*
X128108557Y-67021467D01*
X128091384Y-66964853D01*
X128057037Y-66851627D01*
X128039641Y-66675000D01*
X128057037Y-66498373D01*
X128108557Y-66328534D01*
X128108557Y-66328533D01*
X128192221Y-66172011D01*
X128192222Y-66172009D01*
X128221552Y-66136271D01*
X128304814Y-66034814D01*
X128406271Y-65951552D01*
X128442009Y-65922222D01*
X128459913Y-65912652D01*
X128598533Y-65838557D01*
X128655147Y-65821384D01*
X128768373Y-65787037D01*
X128834557Y-65780519D01*
X128900740Y-65774000D01*
X128989260Y-65774000D01*
X129055443Y-65780519D01*
X129055443Y-65780519D01*
G37*
M02*
