G04 #@! TF.GenerationSoftware,KiCad,Pcbnew,5.0.2-bee76a0~70~ubuntu18.04.1*
G04 #@! TF.CreationDate,2020-07-21T15:58:49+05:30*
G04 #@! TF.ProjectId,switch_board_v1.1,73776974-6368-45f6-926f-6172645f7631,rev?*
G04 #@! TF.SameCoordinates,Original*
G04 #@! TF.FileFunction,Legend,Top*
G04 #@! TF.FilePolarity,Positive*
%FSLAX46Y46*%
G04 Gerber Fmt 4.6, Leading zero omitted, Abs format (unit mm)*
G04 Created by KiCad (PCBNEW 5.0.2-bee76a0~70~ubuntu18.04.1) date Tue Jul 21 15:58:49 2020*
%MOMM*%
%LPD*%
G01*
G04 APERTURE LIST*
%ADD10C,0.300000*%
%ADD11C,0.250000*%
%ADD12C,0.120000*%
G04 APERTURE END LIST*
D10*
X91896428Y-81628571D02*
X93396428Y-81628571D01*
X91896428Y-82485714D01*
X93396428Y-82485714D01*
X93396428Y-83200000D02*
X92182142Y-83200000D01*
X92039285Y-83271428D01*
X91967857Y-83342857D01*
X91896428Y-83485714D01*
X91896428Y-83771428D01*
X91967857Y-83914285D01*
X92039285Y-83985714D01*
X92182142Y-84057142D01*
X93396428Y-84057142D01*
X91896428Y-85914285D02*
X93396428Y-85914285D01*
X91896428Y-86628571D02*
X93396428Y-86628571D01*
X91896428Y-87485714D01*
X93396428Y-87485714D01*
X92467857Y-88200000D02*
X92467857Y-89342857D01*
X91967857Y-89985714D02*
X91896428Y-90200000D01*
X91896428Y-90557142D01*
X91967857Y-90700000D01*
X92039285Y-90771428D01*
X92182142Y-90842857D01*
X92325000Y-90842857D01*
X92467857Y-90771428D01*
X92539285Y-90700000D01*
X92610714Y-90557142D01*
X92682142Y-90271428D01*
X92753571Y-90128571D01*
X92825000Y-90057142D01*
X92967857Y-89985714D01*
X93110714Y-89985714D01*
X93253571Y-90057142D01*
X93325000Y-90128571D01*
X93396428Y-90271428D01*
X93396428Y-90628571D01*
X93325000Y-90842857D01*
X92682142Y-91985714D02*
X92610714Y-92200000D01*
X92539285Y-92271428D01*
X92396428Y-92342857D01*
X92182142Y-92342857D01*
X92039285Y-92271428D01*
X91967857Y-92200000D01*
X91896428Y-92057142D01*
X91896428Y-91485714D01*
X93396428Y-91485714D01*
X93396428Y-91985714D01*
X93325000Y-92128571D01*
X93253571Y-92200000D01*
X93110714Y-92271428D01*
X92967857Y-92271428D01*
X92825000Y-92200000D01*
X92753571Y-92128571D01*
X92682142Y-91985714D01*
X92682142Y-91485714D01*
X93396428Y-93914285D02*
X91896428Y-94414285D01*
X93396428Y-94914285D01*
X91896428Y-96200000D02*
X91896428Y-95342857D01*
X91896428Y-95771428D02*
X93396428Y-95771428D01*
X93182142Y-95628571D01*
X93039285Y-95485714D01*
X92967857Y-95342857D01*
X92039285Y-96842857D02*
X91967857Y-96914285D01*
X91896428Y-96842857D01*
X91967857Y-96771428D01*
X92039285Y-96842857D01*
X91896428Y-96842857D01*
X91896428Y-98342857D02*
X91896428Y-97485714D01*
X91896428Y-97914285D02*
X93396428Y-97914285D01*
X93182142Y-97771428D01*
X93039285Y-97628571D01*
X92967857Y-97485714D01*
D11*
X128547619Y-104869047D02*
X129023809Y-104535714D01*
X128547619Y-104297619D02*
X129547619Y-104297619D01*
X129547619Y-104678571D01*
X129500000Y-104773809D01*
X129452380Y-104821428D01*
X129357142Y-104869047D01*
X129214285Y-104869047D01*
X129119047Y-104821428D01*
X129071428Y-104773809D01*
X129023809Y-104678571D01*
X129023809Y-104297619D01*
X128547619Y-105821428D02*
X128547619Y-105250000D01*
X128547619Y-105535714D02*
X129547619Y-105535714D01*
X129404761Y-105440476D01*
X129309523Y-105345238D01*
X129261904Y-105250000D01*
X128547619Y-107583333D02*
X129023809Y-107250000D01*
X128547619Y-107011904D02*
X129547619Y-107011904D01*
X129547619Y-107392857D01*
X129500000Y-107488095D01*
X129452380Y-107535714D01*
X129357142Y-107583333D01*
X129214285Y-107583333D01*
X129119047Y-107535714D01*
X129071428Y-107488095D01*
X129023809Y-107392857D01*
X129023809Y-107011904D01*
X129452380Y-107964285D02*
X129500000Y-108011904D01*
X129547619Y-108107142D01*
X129547619Y-108345238D01*
X129500000Y-108440476D01*
X129452380Y-108488095D01*
X129357142Y-108535714D01*
X129261904Y-108535714D01*
X129119047Y-108488095D01*
X128547619Y-107916666D01*
X128547619Y-108535714D01*
X128547619Y-110297619D02*
X129023809Y-109964285D01*
X128547619Y-109726190D02*
X129547619Y-109726190D01*
X129547619Y-110107142D01*
X129500000Y-110202380D01*
X129452380Y-110250000D01*
X129357142Y-110297619D01*
X129214285Y-110297619D01*
X129119047Y-110250000D01*
X129071428Y-110202380D01*
X129023809Y-110107142D01*
X129023809Y-109726190D01*
X129547619Y-110630952D02*
X129547619Y-111250000D01*
X129166666Y-110916666D01*
X129166666Y-111059523D01*
X129119047Y-111154761D01*
X129071428Y-111202380D01*
X128976190Y-111250000D01*
X128738095Y-111250000D01*
X128642857Y-111202380D01*
X128595238Y-111154761D01*
X128547619Y-111059523D01*
X128547619Y-110773809D01*
X128595238Y-110678571D01*
X128642857Y-110630952D01*
X128947619Y-80328571D02*
X129947619Y-80328571D01*
X129947619Y-80566666D01*
X129900000Y-80709523D01*
X129804761Y-80804761D01*
X129709523Y-80852380D01*
X129519047Y-80900000D01*
X129376190Y-80900000D01*
X129185714Y-80852380D01*
X129090476Y-80804761D01*
X128995238Y-80709523D01*
X128947619Y-80566666D01*
X128947619Y-80328571D01*
X128947619Y-81328571D02*
X129947619Y-81328571D01*
X128947619Y-81804761D02*
X129947619Y-81804761D01*
X129233333Y-82138095D01*
X129947619Y-82471428D01*
X128947619Y-82471428D01*
D12*
G04 #@! TO.C,D1*
X105470000Y-79865000D02*
X103185000Y-79865000D01*
X105470000Y-81335000D02*
X105470000Y-79865000D01*
X103185000Y-81335000D02*
X105470000Y-81335000D01*
G04 #@! TO.C,D2*
X119130000Y-89210000D02*
X119130000Y-87950000D01*
X119130000Y-82390000D02*
X119130000Y-83650000D01*
X115370000Y-89210000D02*
X119130000Y-89210000D01*
X113120000Y-82390000D02*
X119130000Y-82390000D01*
G04 #@! TO.C,D3*
X103185000Y-103035000D02*
X105470000Y-103035000D01*
X105470000Y-103035000D02*
X105470000Y-101565000D01*
X105470000Y-101565000D02*
X103185000Y-101565000D01*
G04 #@! TO.C,D4*
X119130000Y-110943332D02*
X119130000Y-109683332D01*
X119130000Y-104123332D02*
X119130000Y-105383332D01*
X115370000Y-110943332D02*
X119130000Y-110943332D01*
X113120000Y-104123332D02*
X119130000Y-104123332D01*
G04 #@! TO.C,D5*
X103185000Y-92205000D02*
X105470000Y-92205000D01*
X105470000Y-92205000D02*
X105470000Y-90735000D01*
X105470000Y-90735000D02*
X103185000Y-90735000D01*
G04 #@! TO.C,D6*
X113120000Y-93256666D02*
X119130000Y-93256666D01*
X115370000Y-100076666D02*
X119130000Y-100076666D01*
X119130000Y-93256666D02*
X119130000Y-94516666D01*
X119130000Y-100076666D02*
X119130000Y-98816666D01*
G04 #@! TO.C,D7*
X105530000Y-69165000D02*
X103245000Y-69165000D01*
X105530000Y-70635000D02*
X105530000Y-69165000D01*
X103245000Y-70635000D02*
X105530000Y-70635000D01*
G04 #@! TO.C,D8*
X113120000Y-73510000D02*
X119130000Y-73510000D01*
X115370000Y-80330000D02*
X119130000Y-80330000D01*
X119130000Y-73510000D02*
X119130000Y-74770000D01*
X119130000Y-80330000D02*
X119130000Y-79070000D01*
G04 #@! TO.C,J1*
X108620000Y-65235000D02*
X118900000Y-65235000D01*
X118900000Y-65235000D02*
X118900000Y-62575000D01*
X118900000Y-62575000D02*
X108620000Y-62575000D01*
X108620000Y-62575000D02*
X108620000Y-65235000D01*
X109570000Y-62575000D02*
X109570000Y-56575000D01*
X109570000Y-56575000D02*
X110330000Y-56575000D01*
X110330000Y-56575000D02*
X110330000Y-62575000D01*
X109630000Y-62575000D02*
X109630000Y-56575000D01*
X109750000Y-62575000D02*
X109750000Y-56575000D01*
X109870000Y-62575000D02*
X109870000Y-56575000D01*
X109990000Y-62575000D02*
X109990000Y-56575000D01*
X110110000Y-62575000D02*
X110110000Y-56575000D01*
X110230000Y-62575000D02*
X110230000Y-56575000D01*
X109570000Y-65565000D02*
X109570000Y-65235000D01*
X110330000Y-65565000D02*
X110330000Y-65235000D01*
X111220000Y-65235000D02*
X111220000Y-62575000D01*
X112110000Y-62575000D02*
X112110000Y-56575000D01*
X112110000Y-56575000D02*
X112870000Y-56575000D01*
X112870000Y-56575000D02*
X112870000Y-62575000D01*
X112110000Y-65632071D02*
X112110000Y-65235000D01*
X112870000Y-65632071D02*
X112870000Y-65235000D01*
X113760000Y-65235000D02*
X113760000Y-62575000D01*
X114650000Y-62575000D02*
X114650000Y-56575000D01*
X114650000Y-56575000D02*
X115410000Y-56575000D01*
X115410000Y-56575000D02*
X115410000Y-62575000D01*
X114650000Y-65632071D02*
X114650000Y-65235000D01*
X115410000Y-65632071D02*
X115410000Y-65235000D01*
X116300000Y-65235000D02*
X116300000Y-62575000D01*
X117190000Y-62575000D02*
X117190000Y-56575000D01*
X117190000Y-56575000D02*
X117950000Y-56575000D01*
X117950000Y-56575000D02*
X117950000Y-62575000D01*
X117190000Y-65632071D02*
X117190000Y-65235000D01*
X117950000Y-65632071D02*
X117950000Y-65235000D01*
X109950000Y-67945000D02*
X108680000Y-67945000D01*
X108680000Y-67945000D02*
X108680000Y-66675000D01*
G04 #@! TO.C,J2*
X102320000Y-65235000D02*
X107520000Y-65235000D01*
X107520000Y-65235000D02*
X107520000Y-62575000D01*
X107520000Y-62575000D02*
X102320000Y-62575000D01*
X102320000Y-62575000D02*
X102320000Y-65235000D01*
X103270000Y-62575000D02*
X103270000Y-56575000D01*
X103270000Y-56575000D02*
X104030000Y-56575000D01*
X104030000Y-56575000D02*
X104030000Y-62575000D01*
X103330000Y-62575000D02*
X103330000Y-56575000D01*
X103450000Y-62575000D02*
X103450000Y-56575000D01*
X103570000Y-62575000D02*
X103570000Y-56575000D01*
X103690000Y-62575000D02*
X103690000Y-56575000D01*
X103810000Y-62575000D02*
X103810000Y-56575000D01*
X103930000Y-62575000D02*
X103930000Y-56575000D01*
X103270000Y-65565000D02*
X103270000Y-65235000D01*
X104030000Y-65565000D02*
X104030000Y-65235000D01*
X104920000Y-65235000D02*
X104920000Y-62575000D01*
X105810000Y-62575000D02*
X105810000Y-56575000D01*
X105810000Y-56575000D02*
X106570000Y-56575000D01*
X106570000Y-56575000D02*
X106570000Y-62575000D01*
X105810000Y-65632071D02*
X105810000Y-65235000D01*
X106570000Y-65632071D02*
X106570000Y-65235000D01*
X103650000Y-67945000D02*
X102380000Y-67945000D01*
X102380000Y-67945000D02*
X102380000Y-66675000D01*
G04 #@! TO.C,J4*
X90955000Y-67945000D02*
X90955000Y-66675000D01*
X92225000Y-67945000D02*
X90955000Y-67945000D01*
X100225000Y-65632071D02*
X100225000Y-65235000D01*
X99465000Y-65632071D02*
X99465000Y-65235000D01*
X100225000Y-56575000D02*
X100225000Y-62575000D01*
X99465000Y-56575000D02*
X100225000Y-56575000D01*
X99465000Y-62575000D02*
X99465000Y-56575000D01*
X98575000Y-65235000D02*
X98575000Y-62575000D01*
X97685000Y-65632071D02*
X97685000Y-65235000D01*
X96925000Y-65632071D02*
X96925000Y-65235000D01*
X97685000Y-56575000D02*
X97685000Y-62575000D01*
X96925000Y-56575000D02*
X97685000Y-56575000D01*
X96925000Y-62575000D02*
X96925000Y-56575000D01*
X96035000Y-65235000D02*
X96035000Y-62575000D01*
X95145000Y-65632071D02*
X95145000Y-65235000D01*
X94385000Y-65632071D02*
X94385000Y-65235000D01*
X95145000Y-56575000D02*
X95145000Y-62575000D01*
X94385000Y-56575000D02*
X95145000Y-56575000D01*
X94385000Y-62575000D02*
X94385000Y-56575000D01*
X93495000Y-65235000D02*
X93495000Y-62575000D01*
X92605000Y-65565000D02*
X92605000Y-65235000D01*
X91845000Y-65565000D02*
X91845000Y-65235000D01*
X92505000Y-62575000D02*
X92505000Y-56575000D01*
X92385000Y-62575000D02*
X92385000Y-56575000D01*
X92265000Y-62575000D02*
X92265000Y-56575000D01*
X92145000Y-62575000D02*
X92145000Y-56575000D01*
X92025000Y-62575000D02*
X92025000Y-56575000D01*
X91905000Y-62575000D02*
X91905000Y-56575000D01*
X92605000Y-56575000D02*
X92605000Y-62575000D01*
X91845000Y-56575000D02*
X92605000Y-56575000D01*
X91845000Y-62575000D02*
X91845000Y-56575000D01*
X90895000Y-62575000D02*
X90895000Y-65235000D01*
X101175000Y-62575000D02*
X90895000Y-62575000D01*
X101175000Y-65235000D02*
X101175000Y-62575000D01*
X90895000Y-65235000D02*
X101175000Y-65235000D01*
G04 #@! TO.C,J5*
X120055000Y-67945000D02*
X120055000Y-66675000D01*
X121325000Y-67945000D02*
X120055000Y-67945000D01*
X129325000Y-65632071D02*
X129325000Y-65235000D01*
X128565000Y-65632071D02*
X128565000Y-65235000D01*
X129325000Y-56575000D02*
X129325000Y-62575000D01*
X128565000Y-56575000D02*
X129325000Y-56575000D01*
X128565000Y-62575000D02*
X128565000Y-56575000D01*
X127675000Y-65235000D02*
X127675000Y-62575000D01*
X126785000Y-65632071D02*
X126785000Y-65235000D01*
X126025000Y-65632071D02*
X126025000Y-65235000D01*
X126785000Y-56575000D02*
X126785000Y-62575000D01*
X126025000Y-56575000D02*
X126785000Y-56575000D01*
X126025000Y-62575000D02*
X126025000Y-56575000D01*
X125135000Y-65235000D02*
X125135000Y-62575000D01*
X124245000Y-65632071D02*
X124245000Y-65235000D01*
X123485000Y-65632071D02*
X123485000Y-65235000D01*
X124245000Y-56575000D02*
X124245000Y-62575000D01*
X123485000Y-56575000D02*
X124245000Y-56575000D01*
X123485000Y-62575000D02*
X123485000Y-56575000D01*
X122595000Y-65235000D02*
X122595000Y-62575000D01*
X121705000Y-65565000D02*
X121705000Y-65235000D01*
X120945000Y-65565000D02*
X120945000Y-65235000D01*
X121605000Y-62575000D02*
X121605000Y-56575000D01*
X121485000Y-62575000D02*
X121485000Y-56575000D01*
X121365000Y-62575000D02*
X121365000Y-56575000D01*
X121245000Y-62575000D02*
X121245000Y-56575000D01*
X121125000Y-62575000D02*
X121125000Y-56575000D01*
X121005000Y-62575000D02*
X121005000Y-56575000D01*
X121705000Y-56575000D02*
X121705000Y-62575000D01*
X120945000Y-56575000D02*
X121705000Y-56575000D01*
X120945000Y-62575000D02*
X120945000Y-56575000D01*
X119995000Y-62575000D02*
X119995000Y-65235000D01*
X130275000Y-62575000D02*
X119995000Y-62575000D01*
X130275000Y-65235000D02*
X130275000Y-62575000D01*
X119995000Y-65235000D02*
X130275000Y-65235000D01*
G04 #@! TO.C,R1*
X97385279Y-80090000D02*
X97059721Y-80090000D01*
X97385279Y-81110000D02*
X97059721Y-81110000D01*
G04 #@! TO.C,R2*
X100440971Y-80090000D02*
X100766529Y-80090000D01*
X100440971Y-81110000D02*
X100766529Y-81110000D01*
G04 #@! TO.C,R5*
X97385279Y-101750000D02*
X97059721Y-101750000D01*
X97385279Y-102770000D02*
X97059721Y-102770000D01*
G04 #@! TO.C,R6*
X100440971Y-101750000D02*
X100766529Y-101750000D01*
X100440971Y-102770000D02*
X100766529Y-102770000D01*
G04 #@! TO.C,R9*
X97385279Y-91940000D02*
X97059721Y-91940000D01*
X97385279Y-90920000D02*
X97059721Y-90920000D01*
G04 #@! TO.C,R10*
X100440971Y-91940000D02*
X100766529Y-91940000D01*
X100440971Y-90920000D02*
X100766529Y-90920000D01*
G04 #@! TO.C,R13*
X97385279Y-69350000D02*
X97059721Y-69350000D01*
X97385279Y-70370000D02*
X97059721Y-70370000D01*
G04 #@! TO.C,R14*
X100500971Y-69350000D02*
X100826529Y-69350000D01*
X100500971Y-70370000D02*
X100826529Y-70370000D01*
G04 #@! TO.C,U1*
X104945000Y-81930000D02*
X102710000Y-81930000D01*
X104945000Y-89670000D02*
X104945000Y-81930000D01*
X98475000Y-89670000D02*
X104945000Y-89670000D01*
X98475000Y-81930000D02*
X98475000Y-89670000D01*
X100710000Y-81930000D02*
X98475000Y-81930000D01*
X102710000Y-81930000D02*
G75*
G02X100710000Y-81930000I-1000000J0D01*
G01*
G04 #@! TO.C,U2*
X104945000Y-103663332D02*
X102710000Y-103663332D01*
X104945000Y-111403332D02*
X104945000Y-103663332D01*
X98475000Y-111403332D02*
X104945000Y-111403332D01*
X98475000Y-103663332D02*
X98475000Y-111403332D01*
X100710000Y-103663332D02*
X98475000Y-103663332D01*
X102710000Y-103663332D02*
G75*
G02X100710000Y-103663332I-1000000J0D01*
G01*
G04 #@! TO.C,U3*
X102710000Y-92796666D02*
G75*
G02X100710000Y-92796666I-1000000J0D01*
G01*
X100710000Y-92796666D02*
X98475000Y-92796666D01*
X98475000Y-92796666D02*
X98475000Y-100536666D01*
X98475000Y-100536666D02*
X104945000Y-100536666D01*
X104945000Y-100536666D02*
X104945000Y-92796666D01*
X104945000Y-92796666D02*
X102710000Y-92796666D01*
G04 #@! TO.C,U4*
X102710000Y-71180000D02*
G75*
G02X100710000Y-71180000I-1000000J0D01*
G01*
X100710000Y-71180000D02*
X98475000Y-71180000D01*
X98475000Y-71180000D02*
X98475000Y-78920000D01*
X98475000Y-78920000D02*
X104945000Y-78920000D01*
X104945000Y-78920000D02*
X104945000Y-71180000D01*
X104945000Y-71180000D02*
X102710000Y-71180000D01*
G04 #@! TO.C,J3*
X130510000Y-83280000D02*
X122890000Y-83280000D01*
X122890000Y-103600000D02*
X130510000Y-103600000D01*
X124160000Y-103600000D02*
X124160000Y-83280000D01*
X130510000Y-83280000D02*
X130510000Y-103600000D01*
X122890000Y-83280000D02*
X122890000Y-103600000D01*
G04 #@! TO.C,R3*
X120401078Y-91070000D02*
X119883922Y-91070000D01*
X120401078Y-89650000D02*
X119883922Y-89650000D01*
G04 #@! TO.C,R4*
X110510000Y-84278578D02*
X110510000Y-83761422D01*
X109090000Y-84278578D02*
X109090000Y-83761422D01*
G04 #@! TO.C,R7*
X124410000Y-109178922D02*
X124410000Y-109696078D01*
X122990000Y-109178922D02*
X122990000Y-109696078D01*
G04 #@! TO.C,R8*
X110560000Y-106036078D02*
X110560000Y-105518922D01*
X109140000Y-106036078D02*
X109140000Y-105518922D01*
G04 #@! TO.C,R11*
X120398578Y-102090000D02*
X119881422Y-102090000D01*
X120398578Y-100670000D02*
X119881422Y-100670000D01*
G04 #@! TO.C,R12*
X110550000Y-95178578D02*
X110550000Y-94661422D01*
X109130000Y-95178578D02*
X109130000Y-94661422D01*
G04 #@! TO.C,C1*
X112678922Y-70840000D02*
X113196078Y-70840000D01*
X112678922Y-72260000D02*
X113196078Y-72260000D01*
G04 #@! TO.C,R15*
X110550000Y-72213922D02*
X110550000Y-72731078D01*
X109130000Y-72213922D02*
X109130000Y-72731078D01*
G04 #@! TO.C,R16*
X109240000Y-76228922D02*
X109240000Y-76746078D01*
X110660000Y-76228922D02*
X110660000Y-76746078D01*
G04 #@! TD*
M02*
