M48
;DRILL file {KiCad 5.0.2-bee76a0~70~ubuntu18.04.1} date Tue Jul 21 15:58:52 2020
;FORMAT={-:-/ absolute / inch / decimal}
FMAT,2
INCH,TZ
T1C0.0157
T2C0.0394
T3C0.0598
%
G90
G05
T1
X3.9202Y-3.378
X3.9203Y-3.8058
X3.9245Y-2.9547
X4.6161Y-3.378
X4.6299Y-3.0283
X4.8386Y-4.1969
X4.8465Y-3.8071
T2
X4.7766Y-2.625
X4.8766Y-2.625
X4.9766Y-2.625
X5.0766Y-2.625
X4.0807Y-2.625
X4.1807Y-2.625
X4.3287Y-2.625
X4.4287Y-2.625
X4.5287Y-2.625
X4.6287Y-2.625
X3.6309Y-2.625
X3.7309Y-2.625
X3.8309Y-2.625
X3.9309Y-2.625
T3
X4.9882Y-3.3787
X4.9882Y-3.5787
X4.9882Y-3.7787
X4.9882Y-3.9787
T0
M30
