G04 #@! TF.GenerationSoftware,KiCad,Pcbnew,5.0.2-bee76a0~70~ubuntu18.04.1*
G04 #@! TF.CreationDate,2019-12-23T12:33:55+05:30*
G04 #@! TF.ProjectId,pir_v1_0,7069725f-7631-45f3-902e-6b696361645f,rev?*
G04 #@! TF.SameCoordinates,Original*
G04 #@! TF.FileFunction,Soldermask,Bot*
G04 #@! TF.FilePolarity,Negative*
%FSLAX46Y46*%
G04 Gerber Fmt 4.6, Leading zero omitted, Abs format (unit mm)*
G04 Created by KiCad (PCBNEW 5.0.2-bee76a0~70~ubuntu18.04.1) date Mon Dec 23 12:33:55 2019*
%MOMM*%
%LPD*%
G01*
G04 APERTURE LIST*
%ADD10C,0.100000*%
G04 APERTURE END LIST*
D10*
G36*
X73608352Y-73555743D02*
X73753941Y-73616048D01*
X73884973Y-73703601D01*
X73996399Y-73815027D01*
X74083952Y-73946059D01*
X74144257Y-74091648D01*
X74175000Y-74246205D01*
X74175000Y-74403795D01*
X74144257Y-74558352D01*
X74083952Y-74703941D01*
X73996399Y-74834973D01*
X73884973Y-74946399D01*
X73753941Y-75033952D01*
X73608352Y-75094257D01*
X73453795Y-75125000D01*
X73296205Y-75125000D01*
X73141648Y-75094257D01*
X72996059Y-75033952D01*
X72865027Y-74946399D01*
X72753601Y-74834973D01*
X72666048Y-74703941D01*
X72605743Y-74558352D01*
X72575000Y-74403795D01*
X72575000Y-74246205D01*
X72605743Y-74091648D01*
X72666048Y-73946059D01*
X72753601Y-73815027D01*
X72865027Y-73703601D01*
X72996059Y-73616048D01*
X73141648Y-73555743D01*
X73296205Y-73525000D01*
X73453795Y-73525000D01*
X73608352Y-73555743D01*
X73608352Y-73555743D01*
G37*
G36*
X71675000Y-75125000D02*
X70075000Y-75125000D01*
X70075000Y-73525000D01*
X71675000Y-73525000D01*
X71675000Y-75125000D01*
X71675000Y-75125000D01*
G37*
G36*
X104825000Y-74900000D02*
X103225000Y-74900000D01*
X103225000Y-73300000D01*
X104825000Y-73300000D01*
X104825000Y-74900000D01*
X104825000Y-74900000D01*
G37*
G36*
X101758352Y-73330743D02*
X101903941Y-73391048D01*
X102034973Y-73478601D01*
X102146399Y-73590027D01*
X102233952Y-73721059D01*
X102294257Y-73866648D01*
X102325000Y-74021205D01*
X102325000Y-74178795D01*
X102294257Y-74333352D01*
X102233952Y-74478941D01*
X102146399Y-74609973D01*
X102034973Y-74721399D01*
X101903941Y-74808952D01*
X101758352Y-74869257D01*
X101603795Y-74900000D01*
X101446205Y-74900000D01*
X101291648Y-74869257D01*
X101146059Y-74808952D01*
X101015027Y-74721399D01*
X100903601Y-74609973D01*
X100816048Y-74478941D01*
X100755743Y-74333352D01*
X100725000Y-74178795D01*
X100725000Y-74021205D01*
X100755743Y-73866648D01*
X100816048Y-73721059D01*
X100903601Y-73590027D01*
X101015027Y-73478601D01*
X101146059Y-73391048D01*
X101291648Y-73330743D01*
X101446205Y-73300000D01*
X101603795Y-73300000D01*
X101758352Y-73330743D01*
X101758352Y-73330743D01*
G37*
G36*
X98475888Y-70379470D02*
X98656274Y-70415350D01*
X98847362Y-70494502D01*
X99019336Y-70609411D01*
X99165589Y-70755664D01*
X99280498Y-70927638D01*
X99359650Y-71118726D01*
X99390945Y-71276059D01*
X99400000Y-71321583D01*
X99400000Y-71528417D01*
X99396893Y-71544037D01*
X99359650Y-71731274D01*
X99280498Y-71922362D01*
X99165589Y-72094336D01*
X99019336Y-72240589D01*
X98847362Y-72355498D01*
X98656274Y-72434650D01*
X98475888Y-72470530D01*
X98453417Y-72475000D01*
X98246583Y-72475000D01*
X98224112Y-72470530D01*
X98043726Y-72434650D01*
X97852638Y-72355498D01*
X97680664Y-72240589D01*
X97534411Y-72094336D01*
X97419502Y-71922362D01*
X97340350Y-71731274D01*
X97303107Y-71544037D01*
X97300000Y-71528417D01*
X97300000Y-71321583D01*
X97309055Y-71276059D01*
X97340350Y-71118726D01*
X97419502Y-70927638D01*
X97534411Y-70755664D01*
X97680664Y-70609411D01*
X97852638Y-70494502D01*
X98043726Y-70415350D01*
X98224112Y-70379470D01*
X98246583Y-70375000D01*
X98453417Y-70375000D01*
X98475888Y-70379470D01*
X98475888Y-70379470D01*
G37*
G36*
X76475888Y-70379470D02*
X76656274Y-70415350D01*
X76847362Y-70494502D01*
X77019336Y-70609411D01*
X77165589Y-70755664D01*
X77280498Y-70927638D01*
X77359650Y-71118726D01*
X77390945Y-71276059D01*
X77400000Y-71321583D01*
X77400000Y-71528417D01*
X77396893Y-71544037D01*
X77359650Y-71731274D01*
X77280498Y-71922362D01*
X77165589Y-72094336D01*
X77019336Y-72240589D01*
X76847362Y-72355498D01*
X76656274Y-72434650D01*
X76475888Y-72470530D01*
X76453417Y-72475000D01*
X76246583Y-72475000D01*
X76224112Y-72470530D01*
X76043726Y-72434650D01*
X75852638Y-72355498D01*
X75680664Y-72240589D01*
X75534411Y-72094336D01*
X75419502Y-71922362D01*
X75340350Y-71731274D01*
X75303107Y-71544037D01*
X75300000Y-71528417D01*
X75300000Y-71321583D01*
X75309055Y-71276059D01*
X75340350Y-71118726D01*
X75419502Y-70927638D01*
X75534411Y-70755664D01*
X75680664Y-70609411D01*
X75852638Y-70494502D01*
X76043726Y-70415350D01*
X76224112Y-70379470D01*
X76246583Y-70375000D01*
X76453417Y-70375000D01*
X76475888Y-70379470D01*
X76475888Y-70379470D01*
G37*
G36*
X81501059Y-70304782D02*
X81642099Y-70363203D01*
X81769037Y-70448020D01*
X81876980Y-70555963D01*
X81961797Y-70682901D01*
X82020218Y-70823941D01*
X82050000Y-70973668D01*
X82050000Y-71126332D01*
X82020218Y-71276059D01*
X81961797Y-71417099D01*
X81876980Y-71544037D01*
X81769037Y-71651980D01*
X81642099Y-71736797D01*
X81501059Y-71795218D01*
X81351332Y-71825000D01*
X81198668Y-71825000D01*
X81048941Y-71795218D01*
X80907901Y-71736797D01*
X80780963Y-71651980D01*
X80673020Y-71544037D01*
X80588203Y-71417099D01*
X80529782Y-71276059D01*
X80500000Y-71126332D01*
X80500000Y-70973668D01*
X80529782Y-70823941D01*
X80588203Y-70682901D01*
X80673020Y-70555963D01*
X80780963Y-70448020D01*
X80907901Y-70363203D01*
X81048941Y-70304782D01*
X81198668Y-70275000D01*
X81351332Y-70275000D01*
X81501059Y-70304782D01*
X81501059Y-70304782D01*
G37*
G36*
X87050000Y-71825000D02*
X85500000Y-71825000D01*
X85500000Y-70275000D01*
X87050000Y-70275000D01*
X87050000Y-71825000D01*
X87050000Y-71825000D01*
G37*
G36*
X94150000Y-71825000D02*
X92600000Y-71825000D01*
X92600000Y-70275000D01*
X94150000Y-70275000D01*
X94150000Y-71825000D01*
X94150000Y-71825000D01*
G37*
G36*
X88601059Y-70304782D02*
X88742099Y-70363203D01*
X88869037Y-70448020D01*
X88976980Y-70555963D01*
X89061797Y-70682901D01*
X89120218Y-70823941D01*
X89150000Y-70973668D01*
X89150000Y-71126332D01*
X89120218Y-71276059D01*
X89061797Y-71417099D01*
X88976980Y-71544037D01*
X88869037Y-71651980D01*
X88742099Y-71736797D01*
X88601059Y-71795218D01*
X88451332Y-71825000D01*
X88298668Y-71825000D01*
X88148941Y-71795218D01*
X88007901Y-71736797D01*
X87880963Y-71651980D01*
X87773020Y-71544037D01*
X87688203Y-71417099D01*
X87629782Y-71276059D01*
X87600000Y-71126332D01*
X87600000Y-70973668D01*
X87629782Y-70823941D01*
X87688203Y-70682901D01*
X87773020Y-70555963D01*
X87880963Y-70448020D01*
X88007901Y-70363203D01*
X88148941Y-70304782D01*
X88298668Y-70275000D01*
X88451332Y-70275000D01*
X88601059Y-70304782D01*
X88601059Y-70304782D01*
G37*
G36*
X84001059Y-67804782D02*
X84142099Y-67863203D01*
X84269037Y-67948020D01*
X84376980Y-68055963D01*
X84461797Y-68182901D01*
X84520218Y-68323941D01*
X84550000Y-68473668D01*
X84550000Y-68626332D01*
X84520218Y-68776059D01*
X84461797Y-68917099D01*
X84376980Y-69044037D01*
X84269037Y-69151980D01*
X84142099Y-69236797D01*
X84001059Y-69295218D01*
X83851332Y-69325000D01*
X83698668Y-69325000D01*
X83548941Y-69295218D01*
X83407901Y-69236797D01*
X83280963Y-69151980D01*
X83173020Y-69044037D01*
X83088203Y-68917099D01*
X83029782Y-68776059D01*
X83000000Y-68626332D01*
X83000000Y-68473668D01*
X83029782Y-68323941D01*
X83088203Y-68182901D01*
X83173020Y-68055963D01*
X83280963Y-67948020D01*
X83407901Y-67863203D01*
X83548941Y-67804782D01*
X83698668Y-67775000D01*
X83851332Y-67775000D01*
X84001059Y-67804782D01*
X84001059Y-67804782D01*
G37*
G36*
X91101059Y-67804782D02*
X91242099Y-67863203D01*
X91369037Y-67948020D01*
X91476980Y-68055963D01*
X91561797Y-68182901D01*
X91620218Y-68323941D01*
X91650000Y-68473668D01*
X91650000Y-68626332D01*
X91620218Y-68776059D01*
X91561797Y-68917099D01*
X91476980Y-69044037D01*
X91369037Y-69151980D01*
X91242099Y-69236797D01*
X91101059Y-69295218D01*
X90951332Y-69325000D01*
X90798668Y-69325000D01*
X90648941Y-69295218D01*
X90507901Y-69236797D01*
X90380963Y-69151980D01*
X90273020Y-69044037D01*
X90188203Y-68917099D01*
X90129782Y-68776059D01*
X90100000Y-68626332D01*
X90100000Y-68473668D01*
X90129782Y-68323941D01*
X90188203Y-68182901D01*
X90273020Y-68055963D01*
X90380963Y-67948020D01*
X90507901Y-67863203D01*
X90648941Y-67804782D01*
X90798668Y-67775000D01*
X90951332Y-67775000D01*
X91101059Y-67804782D01*
X91101059Y-67804782D01*
G37*
G36*
X72291630Y-64152299D02*
X72451855Y-64200903D01*
X72599520Y-64279831D01*
X72728949Y-64386051D01*
X72835169Y-64515480D01*
X72914097Y-64663145D01*
X72962701Y-64823370D01*
X72979112Y-64990000D01*
X72962701Y-65156630D01*
X72914097Y-65316855D01*
X72835169Y-65464520D01*
X72728949Y-65593949D01*
X72599520Y-65700169D01*
X72451855Y-65779097D01*
X72291630Y-65827701D01*
X72166752Y-65840000D01*
X72083248Y-65840000D01*
X71958370Y-65827701D01*
X71798145Y-65779097D01*
X71650480Y-65700169D01*
X71521051Y-65593949D01*
X71414831Y-65464520D01*
X71335903Y-65316855D01*
X71287299Y-65156630D01*
X71270888Y-64990000D01*
X71287299Y-64823370D01*
X71335903Y-64663145D01*
X71414831Y-64515480D01*
X71521051Y-64386051D01*
X71650480Y-64279831D01*
X71798145Y-64200903D01*
X71958370Y-64152299D01*
X72083248Y-64140000D01*
X72166752Y-64140000D01*
X72291630Y-64152299D01*
X72291630Y-64152299D01*
G37*
G36*
X78412203Y-60676201D02*
X78424453Y-60676803D01*
X78442872Y-60676803D01*
X78455150Y-60678012D01*
X78539232Y-60694737D01*
X78551048Y-60698322D01*
X78630255Y-60731130D01*
X78641140Y-60736947D01*
X78712425Y-60784579D01*
X78721973Y-60792415D01*
X78782585Y-60853027D01*
X78790421Y-60862575D01*
X78838053Y-60933860D01*
X78843870Y-60944745D01*
X78876678Y-61023952D01*
X78880263Y-61035768D01*
X78896988Y-61119850D01*
X78898197Y-61132128D01*
X78898197Y-61150547D01*
X78898799Y-61162797D01*
X78900605Y-61181137D01*
X78900605Y-61718863D01*
X78900001Y-61724999D01*
X78899999Y-61725001D01*
X78893894Y-61725602D01*
X78869860Y-61730382D01*
X78847221Y-61739759D01*
X78826846Y-61753372D01*
X78809519Y-61770699D01*
X78795905Y-61791074D01*
X78786527Y-61813712D01*
X78781746Y-61837746D01*
X78781746Y-61862250D01*
X78786526Y-61886284D01*
X78795903Y-61908923D01*
X78809516Y-61929298D01*
X78826843Y-61946625D01*
X78847218Y-61960239D01*
X78869856Y-61969617D01*
X78893890Y-61974398D01*
X78900000Y-61974698D01*
X78900000Y-62975605D01*
X78881758Y-62977402D01*
X78858309Y-62984515D01*
X78836698Y-62996066D01*
X78817756Y-63011612D01*
X78802210Y-63030554D01*
X78790659Y-63052165D01*
X78783546Y-63075614D01*
X78781144Y-63100000D01*
X78783546Y-63124386D01*
X78790659Y-63147835D01*
X78802210Y-63169446D01*
X78817756Y-63188388D01*
X78836698Y-63203934D01*
X78858309Y-63215485D01*
X78881758Y-63222598D01*
X78893894Y-63224398D01*
X78899999Y-63224999D01*
X78899998Y-63224999D01*
X78900000Y-63225000D01*
X78900001Y-63225001D01*
X78900605Y-63231137D01*
X78900605Y-63768863D01*
X78898799Y-63787203D01*
X78898197Y-63799453D01*
X78898197Y-63817872D01*
X78896988Y-63830150D01*
X78880263Y-63914232D01*
X78876678Y-63926048D01*
X78843870Y-64005255D01*
X78838053Y-64016140D01*
X78790421Y-64087425D01*
X78782585Y-64096973D01*
X78721973Y-64157585D01*
X78712425Y-64165421D01*
X78641140Y-64213053D01*
X78630255Y-64218870D01*
X78551048Y-64251678D01*
X78539232Y-64255263D01*
X78455150Y-64271988D01*
X78442872Y-64273197D01*
X78424453Y-64273197D01*
X78412203Y-64273799D01*
X78393863Y-64275605D01*
X77906137Y-64275605D01*
X77887797Y-64273799D01*
X77875547Y-64273197D01*
X77857128Y-64273197D01*
X77844850Y-64271988D01*
X77760768Y-64255263D01*
X77748952Y-64251678D01*
X77669745Y-64218870D01*
X77658860Y-64213053D01*
X77587575Y-64165421D01*
X77578027Y-64157585D01*
X77517415Y-64096973D01*
X77509579Y-64087425D01*
X77461947Y-64016140D01*
X77456130Y-64005255D01*
X77423322Y-63926048D01*
X77419737Y-63914232D01*
X77403012Y-63830150D01*
X77401803Y-63817872D01*
X77401803Y-63799453D01*
X77401201Y-63787203D01*
X77399395Y-63768863D01*
X77399395Y-63231137D01*
X77399999Y-63225001D01*
X77400000Y-63225000D01*
X77400002Y-63224999D01*
X77400001Y-63224999D01*
X77406106Y-63224398D01*
X77430140Y-63219618D01*
X77452779Y-63210241D01*
X77473154Y-63196628D01*
X77490481Y-63179301D01*
X77504095Y-63158926D01*
X77513473Y-63136288D01*
X77518254Y-63112254D01*
X77518254Y-63087750D01*
X77513474Y-63063716D01*
X77504097Y-63041077D01*
X77490484Y-63020702D01*
X77473157Y-63003375D01*
X77452782Y-62989761D01*
X77430144Y-62980383D01*
X77406110Y-62975602D01*
X77400000Y-62975302D01*
X77400000Y-61974395D01*
X77418242Y-61972598D01*
X77441691Y-61965485D01*
X77463302Y-61953934D01*
X77482244Y-61938388D01*
X77497790Y-61919446D01*
X77509341Y-61897835D01*
X77516454Y-61874386D01*
X77518856Y-61850000D01*
X77516454Y-61825614D01*
X77509341Y-61802165D01*
X77497790Y-61780554D01*
X77482244Y-61761612D01*
X77463302Y-61746066D01*
X77441691Y-61734515D01*
X77418242Y-61727402D01*
X77406106Y-61725602D01*
X77400001Y-61725001D01*
X77399999Y-61724999D01*
X77399395Y-61718863D01*
X77399395Y-61181137D01*
X77401201Y-61162797D01*
X77401803Y-61150547D01*
X77401803Y-61132128D01*
X77403012Y-61119850D01*
X77419737Y-61035768D01*
X77423322Y-61023952D01*
X77456130Y-60944745D01*
X77461947Y-60933860D01*
X77509579Y-60862575D01*
X77517415Y-60853027D01*
X77578027Y-60792415D01*
X77587575Y-60784579D01*
X77658860Y-60736947D01*
X77669745Y-60731130D01*
X77748952Y-60698322D01*
X77760768Y-60694737D01*
X77844850Y-60678012D01*
X77857128Y-60676803D01*
X77875547Y-60676803D01*
X77887797Y-60676201D01*
X77906137Y-60674395D01*
X78393863Y-60674395D01*
X78412203Y-60676201D01*
X78412203Y-60676201D01*
G37*
G36*
X72291630Y-61612299D02*
X72451855Y-61660903D01*
X72599520Y-61739831D01*
X72728949Y-61846051D01*
X72835169Y-61975480D01*
X72914097Y-62123145D01*
X72962701Y-62283370D01*
X72979112Y-62450000D01*
X72962701Y-62616630D01*
X72914097Y-62776855D01*
X72835169Y-62924520D01*
X72728949Y-63053949D01*
X72599520Y-63160169D01*
X72451855Y-63239097D01*
X72291630Y-63287701D01*
X72166752Y-63300000D01*
X72083248Y-63300000D01*
X71958370Y-63287701D01*
X71798145Y-63239097D01*
X71650480Y-63160169D01*
X71521051Y-63053949D01*
X71414831Y-62924520D01*
X71335903Y-62776855D01*
X71287299Y-62616630D01*
X71270888Y-62450000D01*
X71287299Y-62283370D01*
X71335903Y-62123145D01*
X71414831Y-61975480D01*
X71521051Y-61846051D01*
X71650480Y-61739831D01*
X71798145Y-61660903D01*
X71958370Y-61612299D01*
X72083248Y-61600000D01*
X72166752Y-61600000D01*
X72291630Y-61612299D01*
X72291630Y-61612299D01*
G37*
G36*
X90022621Y-61833682D02*
X90135721Y-61867990D01*
X90239955Y-61923704D01*
X90331317Y-61998683D01*
X90406296Y-62090045D01*
X90462010Y-62194279D01*
X90496318Y-62307379D01*
X90507903Y-62425000D01*
X90496318Y-62542621D01*
X90462010Y-62655721D01*
X90406296Y-62759955D01*
X90331317Y-62851317D01*
X90239955Y-62926296D01*
X90135721Y-62982010D01*
X90022621Y-63016318D01*
X89934474Y-63025000D01*
X89875526Y-63025000D01*
X89787379Y-63016318D01*
X89674279Y-62982010D01*
X89570045Y-62926296D01*
X89478683Y-62851317D01*
X89403704Y-62759955D01*
X89347990Y-62655721D01*
X89313682Y-62542621D01*
X89302097Y-62425000D01*
X89313682Y-62307379D01*
X89347990Y-62194279D01*
X89403704Y-62090045D01*
X89478683Y-61998683D01*
X89570045Y-61923704D01*
X89674279Y-61867990D01*
X89787379Y-61833682D01*
X89875526Y-61825000D01*
X89934474Y-61825000D01*
X90022621Y-61833682D01*
X90022621Y-61833682D01*
G37*
G36*
X85142621Y-61833682D02*
X85255721Y-61867990D01*
X85359955Y-61923704D01*
X85451317Y-61998683D01*
X85526296Y-62090045D01*
X85582010Y-62194279D01*
X85616318Y-62307379D01*
X85627903Y-62425000D01*
X85616318Y-62542621D01*
X85582010Y-62655721D01*
X85526296Y-62759955D01*
X85451317Y-62851317D01*
X85359955Y-62926296D01*
X85255721Y-62982010D01*
X85142621Y-63016318D01*
X85054474Y-63025000D01*
X84595526Y-63025000D01*
X84507379Y-63016318D01*
X84394279Y-62982010D01*
X84290045Y-62926296D01*
X84198683Y-62851317D01*
X84123704Y-62759955D01*
X84067990Y-62655721D01*
X84033682Y-62542621D01*
X84022097Y-62425000D01*
X84033682Y-62307379D01*
X84067990Y-62194279D01*
X84123704Y-62090045D01*
X84198683Y-61998683D01*
X84290045Y-61923704D01*
X84394279Y-61867990D01*
X84507379Y-61833682D01*
X84595526Y-61825000D01*
X85054474Y-61825000D01*
X85142621Y-61833682D01*
X85142621Y-61833682D01*
G37*
G36*
X72975000Y-60760000D02*
X71275000Y-60760000D01*
X71275000Y-59060000D01*
X72975000Y-59060000D01*
X72975000Y-60760000D01*
X72975000Y-60760000D01*
G37*
G36*
X87482621Y-59293682D02*
X87595721Y-59327990D01*
X87699955Y-59383704D01*
X87791317Y-59458683D01*
X87866296Y-59550045D01*
X87922010Y-59654279D01*
X87956318Y-59767379D01*
X87967903Y-59885000D01*
X87956318Y-60002621D01*
X87922010Y-60115721D01*
X87866296Y-60219955D01*
X87791317Y-60311317D01*
X87699955Y-60386296D01*
X87595721Y-60442010D01*
X87482621Y-60476318D01*
X87394474Y-60485000D01*
X87335526Y-60485000D01*
X87247379Y-60476318D01*
X87134279Y-60442010D01*
X87030045Y-60386296D01*
X86938683Y-60311317D01*
X86863704Y-60219955D01*
X86807990Y-60115721D01*
X86773682Y-60002621D01*
X86762097Y-59885000D01*
X86773682Y-59767379D01*
X86807990Y-59654279D01*
X86863704Y-59550045D01*
X86938683Y-59458683D01*
X87030045Y-59383704D01*
X87134279Y-59327990D01*
X87247379Y-59293682D01*
X87335526Y-59285000D01*
X87394474Y-59285000D01*
X87482621Y-59293682D01*
X87482621Y-59293682D01*
G37*
G36*
X95100000Y-55200000D02*
X93500000Y-55200000D01*
X93500000Y-53600000D01*
X95100000Y-53600000D01*
X95100000Y-55200000D01*
X95100000Y-55200000D01*
G37*
G36*
X92033352Y-53630743D02*
X92178941Y-53691048D01*
X92309973Y-53778601D01*
X92421399Y-53890027D01*
X92508952Y-54021059D01*
X92569257Y-54166648D01*
X92600000Y-54321205D01*
X92600000Y-54478795D01*
X92569257Y-54633352D01*
X92508952Y-54778941D01*
X92421399Y-54909973D01*
X92309973Y-55021399D01*
X92178941Y-55108952D01*
X92033352Y-55169257D01*
X91878795Y-55200000D01*
X91721205Y-55200000D01*
X91566648Y-55169257D01*
X91421059Y-55108952D01*
X91290027Y-55021399D01*
X91178601Y-54909973D01*
X91091048Y-54778941D01*
X91030743Y-54633352D01*
X91000000Y-54478795D01*
X91000000Y-54321205D01*
X91030743Y-54166648D01*
X91091048Y-54021059D01*
X91178601Y-53890027D01*
X91290027Y-53778601D01*
X91421059Y-53691048D01*
X91566648Y-53630743D01*
X91721205Y-53600000D01*
X91878795Y-53600000D01*
X92033352Y-53630743D01*
X92033352Y-53630743D01*
G37*
G36*
X83008352Y-53605743D02*
X83153941Y-53666048D01*
X83284973Y-53753601D01*
X83396399Y-53865027D01*
X83483952Y-53996059D01*
X83544257Y-54141648D01*
X83575000Y-54296205D01*
X83575000Y-54453795D01*
X83544257Y-54608352D01*
X83483952Y-54753941D01*
X83396399Y-54884973D01*
X83284973Y-54996399D01*
X83153941Y-55083952D01*
X83008352Y-55144257D01*
X82853795Y-55175000D01*
X82696205Y-55175000D01*
X82541648Y-55144257D01*
X82396059Y-55083952D01*
X82265027Y-54996399D01*
X82153601Y-54884973D01*
X82066048Y-54753941D01*
X82005743Y-54608352D01*
X81975000Y-54453795D01*
X81975000Y-54296205D01*
X82005743Y-54141648D01*
X82066048Y-53996059D01*
X82153601Y-53865027D01*
X82265027Y-53753601D01*
X82396059Y-53666048D01*
X82541648Y-53605743D01*
X82696205Y-53575000D01*
X82853795Y-53575000D01*
X83008352Y-53605743D01*
X83008352Y-53605743D01*
G37*
G36*
X81075000Y-55175000D02*
X79475000Y-55175000D01*
X79475000Y-53575000D01*
X81075000Y-53575000D01*
X81075000Y-55175000D01*
X81075000Y-55175000D01*
G37*
G36*
X102383352Y-53355743D02*
X102528941Y-53416048D01*
X102659973Y-53503601D01*
X102771399Y-53615027D01*
X102858952Y-53746059D01*
X102919257Y-53891648D01*
X102950000Y-54046205D01*
X102950000Y-54203795D01*
X102919257Y-54358352D01*
X102858952Y-54503941D01*
X102771399Y-54634973D01*
X102659973Y-54746399D01*
X102528941Y-54833952D01*
X102383352Y-54894257D01*
X102228795Y-54925000D01*
X102071205Y-54925000D01*
X101916648Y-54894257D01*
X101771059Y-54833952D01*
X101640027Y-54746399D01*
X101528601Y-54634973D01*
X101441048Y-54503941D01*
X101380743Y-54358352D01*
X101350000Y-54203795D01*
X101350000Y-54046205D01*
X101380743Y-53891648D01*
X101441048Y-53746059D01*
X101528601Y-53615027D01*
X101640027Y-53503601D01*
X101771059Y-53416048D01*
X101916648Y-53355743D01*
X102071205Y-53325000D01*
X102228795Y-53325000D01*
X102383352Y-53355743D01*
X102383352Y-53355743D01*
G37*
G36*
X105383352Y-53355743D02*
X105528941Y-53416048D01*
X105659973Y-53503601D01*
X105771399Y-53615027D01*
X105858952Y-53746059D01*
X105919257Y-53891648D01*
X105950000Y-54046205D01*
X105950000Y-54203795D01*
X105919257Y-54358352D01*
X105858952Y-54503941D01*
X105771399Y-54634973D01*
X105659973Y-54746399D01*
X105528941Y-54833952D01*
X105383352Y-54894257D01*
X105228795Y-54925000D01*
X105071205Y-54925000D01*
X104916648Y-54894257D01*
X104771059Y-54833952D01*
X104640027Y-54746399D01*
X104528601Y-54634973D01*
X104441048Y-54503941D01*
X104380743Y-54358352D01*
X104350000Y-54203795D01*
X104350000Y-54046205D01*
X104380743Y-53891648D01*
X104441048Y-53746059D01*
X104528601Y-53615027D01*
X104640027Y-53503601D01*
X104771059Y-53416048D01*
X104916648Y-53355743D01*
X105071205Y-53325000D01*
X105228795Y-53325000D01*
X105383352Y-53355743D01*
X105383352Y-53355743D01*
G37*
G36*
X98475888Y-52379470D02*
X98656274Y-52415350D01*
X98847362Y-52494502D01*
X99019336Y-52609411D01*
X99165589Y-52755664D01*
X99280498Y-52927638D01*
X99359650Y-53118726D01*
X99400000Y-53321584D01*
X99400000Y-53528416D01*
X99359650Y-53731274D01*
X99280498Y-53922362D01*
X99165589Y-54094336D01*
X99019336Y-54240589D01*
X98847362Y-54355498D01*
X98656274Y-54434650D01*
X98475888Y-54470530D01*
X98453417Y-54475000D01*
X98246583Y-54475000D01*
X98224112Y-54470530D01*
X98043726Y-54434650D01*
X97852638Y-54355498D01*
X97680664Y-54240589D01*
X97534411Y-54094336D01*
X97419502Y-53922362D01*
X97340350Y-53731274D01*
X97300000Y-53528416D01*
X97300000Y-53321584D01*
X97340350Y-53118726D01*
X97419502Y-52927638D01*
X97534411Y-52755664D01*
X97680664Y-52609411D01*
X97852638Y-52494502D01*
X98043726Y-52415350D01*
X98224112Y-52379470D01*
X98246583Y-52375000D01*
X98453417Y-52375000D01*
X98475888Y-52379470D01*
X98475888Y-52379470D01*
G37*
G36*
X76475888Y-52379470D02*
X76656274Y-52415350D01*
X76847362Y-52494502D01*
X77019336Y-52609411D01*
X77165589Y-52755664D01*
X77280498Y-52927638D01*
X77359650Y-53118726D01*
X77400000Y-53321584D01*
X77400000Y-53528416D01*
X77359650Y-53731274D01*
X77280498Y-53922362D01*
X77165589Y-54094336D01*
X77019336Y-54240589D01*
X76847362Y-54355498D01*
X76656274Y-54434650D01*
X76475888Y-54470530D01*
X76453417Y-54475000D01*
X76246583Y-54475000D01*
X76224112Y-54470530D01*
X76043726Y-54434650D01*
X75852638Y-54355498D01*
X75680664Y-54240589D01*
X75534411Y-54094336D01*
X75419502Y-53922362D01*
X75340350Y-53731274D01*
X75300000Y-53528416D01*
X75300000Y-53321584D01*
X75340350Y-53118726D01*
X75419502Y-52927638D01*
X75534411Y-52755664D01*
X75680664Y-52609411D01*
X75852638Y-52494502D01*
X76043726Y-52415350D01*
X76224112Y-52379470D01*
X76246583Y-52375000D01*
X76453417Y-52375000D01*
X76475888Y-52379470D01*
X76475888Y-52379470D01*
G37*
M02*
