G04 #@! TF.GenerationSoftware,KiCad,Pcbnew,5.0.2-bee76a0~70~ubuntu18.04.1*
G04 #@! TF.CreationDate,2019-12-23T12:33:55+05:30*
G04 #@! TF.ProjectId,pir_v1_0,7069725f-7631-45f3-902e-6b696361645f,rev?*
G04 #@! TF.SameCoordinates,Original*
G04 #@! TF.FileFunction,Copper,L1,Top*
G04 #@! TF.FilePolarity,Positive*
%FSLAX46Y46*%
G04 Gerber Fmt 4.6, Leading zero omitted, Abs format (unit mm)*
G04 Created by KiCad (PCBNEW 5.0.2-bee76a0~70~ubuntu18.04.1) date Mon Dec 23 12:33:55 2019*
%MOMM*%
%LPD*%
G01*
G04 APERTURE LIST*
G04 #@! TA.AperFunction,ComponentPad*
%ADD10O,1.700000X1.700000*%
G04 #@! TD*
G04 #@! TA.AperFunction,ComponentPad*
%ADD11R,1.700000X1.700000*%
G04 #@! TD*
G04 #@! TA.AperFunction,Conductor*
%ADD12C,0.100000*%
G04 #@! TD*
G04 #@! TA.AperFunction,SMDPad,CuDef*
%ADD13C,0.875000*%
G04 #@! TD*
G04 #@! TA.AperFunction,ComponentPad*
%ADD14R,1.600000X1.600000*%
G04 #@! TD*
G04 #@! TA.AperFunction,ComponentPad*
%ADD15C,1.600000*%
G04 #@! TD*
G04 #@! TA.AperFunction,ComponentPad*
%ADD16O,1.600000X1.200000*%
G04 #@! TD*
G04 #@! TA.AperFunction,ComponentPad*
%ADD17O,1.200000X1.200000*%
G04 #@! TD*
G04 #@! TA.AperFunction,SMDPad,CuDef*
%ADD18C,0.550000*%
G04 #@! TD*
G04 #@! TA.AperFunction,SMDPad,CuDef*
%ADD19C,0.850000*%
G04 #@! TD*
G04 #@! TA.AperFunction,SMDPad,CuDef*
%ADD20R,1.000000X1.500000*%
G04 #@! TD*
G04 #@! TA.AperFunction,SMDPad,CuDef*
%ADD21R,1.000000X1.800000*%
G04 #@! TD*
G04 #@! TA.AperFunction,SMDPad,CuDef*
%ADD22R,2.200000X1.840000*%
G04 #@! TD*
G04 #@! TA.AperFunction,SMDPad,CuDef*
%ADD23C,1.000000*%
G04 #@! TD*
G04 #@! TA.AperFunction,ComponentPad*
%ADD24C,1.550000*%
G04 #@! TD*
G04 #@! TA.AperFunction,ComponentPad*
%ADD25R,1.550000X1.550000*%
G04 #@! TD*
G04 #@! TA.AperFunction,ViaPad*
%ADD26C,0.800000*%
G04 #@! TD*
G04 #@! TA.AperFunction,Conductor*
%ADD27C,0.500000*%
G04 #@! TD*
G04 #@! TA.AperFunction,Conductor*
%ADD28C,0.250000*%
G04 #@! TD*
G04 #@! TA.AperFunction,Conductor*
%ADD29C,0.254000*%
G04 #@! TD*
G04 APERTURE END LIST*
D10*
G04 #@! TO.P,J2,3*
G04 #@! TO.N,GND*
X72125000Y-64990000D03*
G04 #@! TO.P,J2,2*
G04 #@! TO.N,Net-(J2-Pad2)*
X72125000Y-62450000D03*
D11*
G04 #@! TO.P,J2,1*
G04 #@! TO.N,Net-(J2-Pad1)*
X72125000Y-59910000D03*
G04 #@! TD*
D12*
G04 #@! TO.N,GND*
G04 #@! TO.C,C1*
G36*
X92577691Y-58126053D02*
X92598926Y-58129203D01*
X92619750Y-58134419D01*
X92639962Y-58141651D01*
X92659368Y-58150830D01*
X92677781Y-58161866D01*
X92695024Y-58174654D01*
X92710930Y-58189070D01*
X92725346Y-58204976D01*
X92738134Y-58222219D01*
X92749170Y-58240632D01*
X92758349Y-58260038D01*
X92765581Y-58280250D01*
X92770797Y-58301074D01*
X92773947Y-58322309D01*
X92775000Y-58343750D01*
X92775000Y-58781250D01*
X92773947Y-58802691D01*
X92770797Y-58823926D01*
X92765581Y-58844750D01*
X92758349Y-58864962D01*
X92749170Y-58884368D01*
X92738134Y-58902781D01*
X92725346Y-58920024D01*
X92710930Y-58935930D01*
X92695024Y-58950346D01*
X92677781Y-58963134D01*
X92659368Y-58974170D01*
X92639962Y-58983349D01*
X92619750Y-58990581D01*
X92598926Y-58995797D01*
X92577691Y-58998947D01*
X92556250Y-59000000D01*
X92043750Y-59000000D01*
X92022309Y-58998947D01*
X92001074Y-58995797D01*
X91980250Y-58990581D01*
X91960038Y-58983349D01*
X91940632Y-58974170D01*
X91922219Y-58963134D01*
X91904976Y-58950346D01*
X91889070Y-58935930D01*
X91874654Y-58920024D01*
X91861866Y-58902781D01*
X91850830Y-58884368D01*
X91841651Y-58864962D01*
X91834419Y-58844750D01*
X91829203Y-58823926D01*
X91826053Y-58802691D01*
X91825000Y-58781250D01*
X91825000Y-58343750D01*
X91826053Y-58322309D01*
X91829203Y-58301074D01*
X91834419Y-58280250D01*
X91841651Y-58260038D01*
X91850830Y-58240632D01*
X91861866Y-58222219D01*
X91874654Y-58204976D01*
X91889070Y-58189070D01*
X91904976Y-58174654D01*
X91922219Y-58161866D01*
X91940632Y-58150830D01*
X91960038Y-58141651D01*
X91980250Y-58134419D01*
X92001074Y-58129203D01*
X92022309Y-58126053D01*
X92043750Y-58125000D01*
X92556250Y-58125000D01*
X92577691Y-58126053D01*
X92577691Y-58126053D01*
G37*
D13*
G04 #@! TD*
G04 #@! TO.P,C1,2*
G04 #@! TO.N,GND*
X92300000Y-58562500D03*
D12*
G04 #@! TO.N,Net-(C1-Pad1)*
G04 #@! TO.C,C1*
G36*
X92577691Y-59701053D02*
X92598926Y-59704203D01*
X92619750Y-59709419D01*
X92639962Y-59716651D01*
X92659368Y-59725830D01*
X92677781Y-59736866D01*
X92695024Y-59749654D01*
X92710930Y-59764070D01*
X92725346Y-59779976D01*
X92738134Y-59797219D01*
X92749170Y-59815632D01*
X92758349Y-59835038D01*
X92765581Y-59855250D01*
X92770797Y-59876074D01*
X92773947Y-59897309D01*
X92775000Y-59918750D01*
X92775000Y-60356250D01*
X92773947Y-60377691D01*
X92770797Y-60398926D01*
X92765581Y-60419750D01*
X92758349Y-60439962D01*
X92749170Y-60459368D01*
X92738134Y-60477781D01*
X92725346Y-60495024D01*
X92710930Y-60510930D01*
X92695024Y-60525346D01*
X92677781Y-60538134D01*
X92659368Y-60549170D01*
X92639962Y-60558349D01*
X92619750Y-60565581D01*
X92598926Y-60570797D01*
X92577691Y-60573947D01*
X92556250Y-60575000D01*
X92043750Y-60575000D01*
X92022309Y-60573947D01*
X92001074Y-60570797D01*
X91980250Y-60565581D01*
X91960038Y-60558349D01*
X91940632Y-60549170D01*
X91922219Y-60538134D01*
X91904976Y-60525346D01*
X91889070Y-60510930D01*
X91874654Y-60495024D01*
X91861866Y-60477781D01*
X91850830Y-60459368D01*
X91841651Y-60439962D01*
X91834419Y-60419750D01*
X91829203Y-60398926D01*
X91826053Y-60377691D01*
X91825000Y-60356250D01*
X91825000Y-59918750D01*
X91826053Y-59897309D01*
X91829203Y-59876074D01*
X91834419Y-59855250D01*
X91841651Y-59835038D01*
X91850830Y-59815632D01*
X91861866Y-59797219D01*
X91874654Y-59779976D01*
X91889070Y-59764070D01*
X91904976Y-59749654D01*
X91922219Y-59736866D01*
X91940632Y-59725830D01*
X91960038Y-59716651D01*
X91980250Y-59709419D01*
X92001074Y-59704203D01*
X92022309Y-59701053D01*
X92043750Y-59700000D01*
X92556250Y-59700000D01*
X92577691Y-59701053D01*
X92577691Y-59701053D01*
G37*
D13*
G04 #@! TD*
G04 #@! TO.P,C1,1*
G04 #@! TO.N,Net-(C1-Pad1)*
X92300000Y-60137500D03*
D14*
G04 #@! TO.P,C2,1*
G04 #@! TO.N,Net-(C2-Pad1)*
X80275000Y-54375000D03*
D15*
G04 #@! TO.P,C2,2*
G04 #@! TO.N,GND*
X82775000Y-54375000D03*
G04 #@! TD*
G04 #@! TO.P,C3,2*
G04 #@! TO.N,GND*
X91800000Y-54400000D03*
D14*
G04 #@! TO.P,C3,1*
G04 #@! TO.N,Net-(C3-Pad1)*
X94300000Y-54400000D03*
G04 #@! TD*
D12*
G04 #@! TO.N,Net-(C4-Pad2)*
G04 #@! TO.C,C4*
G36*
X102977691Y-59463553D02*
X102998926Y-59466703D01*
X103019750Y-59471919D01*
X103039962Y-59479151D01*
X103059368Y-59488330D01*
X103077781Y-59499366D01*
X103095024Y-59512154D01*
X103110930Y-59526570D01*
X103125346Y-59542476D01*
X103138134Y-59559719D01*
X103149170Y-59578132D01*
X103158349Y-59597538D01*
X103165581Y-59617750D01*
X103170797Y-59638574D01*
X103173947Y-59659809D01*
X103175000Y-59681250D01*
X103175000Y-60118750D01*
X103173947Y-60140191D01*
X103170797Y-60161426D01*
X103165581Y-60182250D01*
X103158349Y-60202462D01*
X103149170Y-60221868D01*
X103138134Y-60240281D01*
X103125346Y-60257524D01*
X103110930Y-60273430D01*
X103095024Y-60287846D01*
X103077781Y-60300634D01*
X103059368Y-60311670D01*
X103039962Y-60320849D01*
X103019750Y-60328081D01*
X102998926Y-60333297D01*
X102977691Y-60336447D01*
X102956250Y-60337500D01*
X102443750Y-60337500D01*
X102422309Y-60336447D01*
X102401074Y-60333297D01*
X102380250Y-60328081D01*
X102360038Y-60320849D01*
X102340632Y-60311670D01*
X102322219Y-60300634D01*
X102304976Y-60287846D01*
X102289070Y-60273430D01*
X102274654Y-60257524D01*
X102261866Y-60240281D01*
X102250830Y-60221868D01*
X102241651Y-60202462D01*
X102234419Y-60182250D01*
X102229203Y-60161426D01*
X102226053Y-60140191D01*
X102225000Y-60118750D01*
X102225000Y-59681250D01*
X102226053Y-59659809D01*
X102229203Y-59638574D01*
X102234419Y-59617750D01*
X102241651Y-59597538D01*
X102250830Y-59578132D01*
X102261866Y-59559719D01*
X102274654Y-59542476D01*
X102289070Y-59526570D01*
X102304976Y-59512154D01*
X102322219Y-59499366D01*
X102340632Y-59488330D01*
X102360038Y-59479151D01*
X102380250Y-59471919D01*
X102401074Y-59466703D01*
X102422309Y-59463553D01*
X102443750Y-59462500D01*
X102956250Y-59462500D01*
X102977691Y-59463553D01*
X102977691Y-59463553D01*
G37*
D13*
G04 #@! TD*
G04 #@! TO.P,C4,2*
G04 #@! TO.N,Net-(C4-Pad2)*
X102700000Y-59900000D03*
D12*
G04 #@! TO.N,Net-(C4-Pad1)*
G04 #@! TO.C,C4*
G36*
X102977691Y-57888553D02*
X102998926Y-57891703D01*
X103019750Y-57896919D01*
X103039962Y-57904151D01*
X103059368Y-57913330D01*
X103077781Y-57924366D01*
X103095024Y-57937154D01*
X103110930Y-57951570D01*
X103125346Y-57967476D01*
X103138134Y-57984719D01*
X103149170Y-58003132D01*
X103158349Y-58022538D01*
X103165581Y-58042750D01*
X103170797Y-58063574D01*
X103173947Y-58084809D01*
X103175000Y-58106250D01*
X103175000Y-58543750D01*
X103173947Y-58565191D01*
X103170797Y-58586426D01*
X103165581Y-58607250D01*
X103158349Y-58627462D01*
X103149170Y-58646868D01*
X103138134Y-58665281D01*
X103125346Y-58682524D01*
X103110930Y-58698430D01*
X103095024Y-58712846D01*
X103077781Y-58725634D01*
X103059368Y-58736670D01*
X103039962Y-58745849D01*
X103019750Y-58753081D01*
X102998926Y-58758297D01*
X102977691Y-58761447D01*
X102956250Y-58762500D01*
X102443750Y-58762500D01*
X102422309Y-58761447D01*
X102401074Y-58758297D01*
X102380250Y-58753081D01*
X102360038Y-58745849D01*
X102340632Y-58736670D01*
X102322219Y-58725634D01*
X102304976Y-58712846D01*
X102289070Y-58698430D01*
X102274654Y-58682524D01*
X102261866Y-58665281D01*
X102250830Y-58646868D01*
X102241651Y-58627462D01*
X102234419Y-58607250D01*
X102229203Y-58586426D01*
X102226053Y-58565191D01*
X102225000Y-58543750D01*
X102225000Y-58106250D01*
X102226053Y-58084809D01*
X102229203Y-58063574D01*
X102234419Y-58042750D01*
X102241651Y-58022538D01*
X102250830Y-58003132D01*
X102261866Y-57984719D01*
X102274654Y-57967476D01*
X102289070Y-57951570D01*
X102304976Y-57937154D01*
X102322219Y-57924366D01*
X102340632Y-57913330D01*
X102360038Y-57904151D01*
X102380250Y-57896919D01*
X102401074Y-57891703D01*
X102422309Y-57888553D01*
X102443750Y-57887500D01*
X102956250Y-57887500D01*
X102977691Y-57888553D01*
X102977691Y-57888553D01*
G37*
D13*
G04 #@! TD*
G04 #@! TO.P,C4,1*
G04 #@! TO.N,Net-(C4-Pad1)*
X102700000Y-58325000D03*
D14*
G04 #@! TO.P,C5,1*
G04 #@! TO.N,Net-(C5-Pad1)*
X104025000Y-74100000D03*
D15*
G04 #@! TO.P,C5,2*
G04 #@! TO.N,Net-(C4-Pad1)*
X101525000Y-74100000D03*
G04 #@! TD*
D12*
G04 #@! TO.N,Net-(C5-Pad1)*
G04 #@! TO.C,C6*
G36*
X106352691Y-63301053D02*
X106373926Y-63304203D01*
X106394750Y-63309419D01*
X106414962Y-63316651D01*
X106434368Y-63325830D01*
X106452781Y-63336866D01*
X106470024Y-63349654D01*
X106485930Y-63364070D01*
X106500346Y-63379976D01*
X106513134Y-63397219D01*
X106524170Y-63415632D01*
X106533349Y-63435038D01*
X106540581Y-63455250D01*
X106545797Y-63476074D01*
X106548947Y-63497309D01*
X106550000Y-63518750D01*
X106550000Y-63956250D01*
X106548947Y-63977691D01*
X106545797Y-63998926D01*
X106540581Y-64019750D01*
X106533349Y-64039962D01*
X106524170Y-64059368D01*
X106513134Y-64077781D01*
X106500346Y-64095024D01*
X106485930Y-64110930D01*
X106470024Y-64125346D01*
X106452781Y-64138134D01*
X106434368Y-64149170D01*
X106414962Y-64158349D01*
X106394750Y-64165581D01*
X106373926Y-64170797D01*
X106352691Y-64173947D01*
X106331250Y-64175000D01*
X105818750Y-64175000D01*
X105797309Y-64173947D01*
X105776074Y-64170797D01*
X105755250Y-64165581D01*
X105735038Y-64158349D01*
X105715632Y-64149170D01*
X105697219Y-64138134D01*
X105679976Y-64125346D01*
X105664070Y-64110930D01*
X105649654Y-64095024D01*
X105636866Y-64077781D01*
X105625830Y-64059368D01*
X105616651Y-64039962D01*
X105609419Y-64019750D01*
X105604203Y-63998926D01*
X105601053Y-63977691D01*
X105600000Y-63956250D01*
X105600000Y-63518750D01*
X105601053Y-63497309D01*
X105604203Y-63476074D01*
X105609419Y-63455250D01*
X105616651Y-63435038D01*
X105625830Y-63415632D01*
X105636866Y-63397219D01*
X105649654Y-63379976D01*
X105664070Y-63364070D01*
X105679976Y-63349654D01*
X105697219Y-63336866D01*
X105715632Y-63325830D01*
X105735038Y-63316651D01*
X105755250Y-63309419D01*
X105776074Y-63304203D01*
X105797309Y-63301053D01*
X105818750Y-63300000D01*
X106331250Y-63300000D01*
X106352691Y-63301053D01*
X106352691Y-63301053D01*
G37*
D13*
G04 #@! TD*
G04 #@! TO.P,C6,1*
G04 #@! TO.N,Net-(C5-Pad1)*
X106075000Y-63737500D03*
D12*
G04 #@! TO.N,Net-(C6-Pad2)*
G04 #@! TO.C,C6*
G36*
X106352691Y-64876053D02*
X106373926Y-64879203D01*
X106394750Y-64884419D01*
X106414962Y-64891651D01*
X106434368Y-64900830D01*
X106452781Y-64911866D01*
X106470024Y-64924654D01*
X106485930Y-64939070D01*
X106500346Y-64954976D01*
X106513134Y-64972219D01*
X106524170Y-64990632D01*
X106533349Y-65010038D01*
X106540581Y-65030250D01*
X106545797Y-65051074D01*
X106548947Y-65072309D01*
X106550000Y-65093750D01*
X106550000Y-65531250D01*
X106548947Y-65552691D01*
X106545797Y-65573926D01*
X106540581Y-65594750D01*
X106533349Y-65614962D01*
X106524170Y-65634368D01*
X106513134Y-65652781D01*
X106500346Y-65670024D01*
X106485930Y-65685930D01*
X106470024Y-65700346D01*
X106452781Y-65713134D01*
X106434368Y-65724170D01*
X106414962Y-65733349D01*
X106394750Y-65740581D01*
X106373926Y-65745797D01*
X106352691Y-65748947D01*
X106331250Y-65750000D01*
X105818750Y-65750000D01*
X105797309Y-65748947D01*
X105776074Y-65745797D01*
X105755250Y-65740581D01*
X105735038Y-65733349D01*
X105715632Y-65724170D01*
X105697219Y-65713134D01*
X105679976Y-65700346D01*
X105664070Y-65685930D01*
X105649654Y-65670024D01*
X105636866Y-65652781D01*
X105625830Y-65634368D01*
X105616651Y-65614962D01*
X105609419Y-65594750D01*
X105604203Y-65573926D01*
X105601053Y-65552691D01*
X105600000Y-65531250D01*
X105600000Y-65093750D01*
X105601053Y-65072309D01*
X105604203Y-65051074D01*
X105609419Y-65030250D01*
X105616651Y-65010038D01*
X105625830Y-64990632D01*
X105636866Y-64972219D01*
X105649654Y-64954976D01*
X105664070Y-64939070D01*
X105679976Y-64924654D01*
X105697219Y-64911866D01*
X105715632Y-64900830D01*
X105735038Y-64891651D01*
X105755250Y-64884419D01*
X105776074Y-64879203D01*
X105797309Y-64876053D01*
X105818750Y-64875000D01*
X106331250Y-64875000D01*
X106352691Y-64876053D01*
X106352691Y-64876053D01*
G37*
D13*
G04 #@! TD*
G04 #@! TO.P,C6,2*
G04 #@! TO.N,Net-(C6-Pad2)*
X106075000Y-65312500D03*
D12*
G04 #@! TO.N,Net-(C7-Pad1)*
G04 #@! TO.C,C7*
G36*
X103240191Y-63201053D02*
X103261426Y-63204203D01*
X103282250Y-63209419D01*
X103302462Y-63216651D01*
X103321868Y-63225830D01*
X103340281Y-63236866D01*
X103357524Y-63249654D01*
X103373430Y-63264070D01*
X103387846Y-63279976D01*
X103400634Y-63297219D01*
X103411670Y-63315632D01*
X103420849Y-63335038D01*
X103428081Y-63355250D01*
X103433297Y-63376074D01*
X103436447Y-63397309D01*
X103437500Y-63418750D01*
X103437500Y-63931250D01*
X103436447Y-63952691D01*
X103433297Y-63973926D01*
X103428081Y-63994750D01*
X103420849Y-64014962D01*
X103411670Y-64034368D01*
X103400634Y-64052781D01*
X103387846Y-64070024D01*
X103373430Y-64085930D01*
X103357524Y-64100346D01*
X103340281Y-64113134D01*
X103321868Y-64124170D01*
X103302462Y-64133349D01*
X103282250Y-64140581D01*
X103261426Y-64145797D01*
X103240191Y-64148947D01*
X103218750Y-64150000D01*
X102781250Y-64150000D01*
X102759809Y-64148947D01*
X102738574Y-64145797D01*
X102717750Y-64140581D01*
X102697538Y-64133349D01*
X102678132Y-64124170D01*
X102659719Y-64113134D01*
X102642476Y-64100346D01*
X102626570Y-64085930D01*
X102612154Y-64070024D01*
X102599366Y-64052781D01*
X102588330Y-64034368D01*
X102579151Y-64014962D01*
X102571919Y-63994750D01*
X102566703Y-63973926D01*
X102563553Y-63952691D01*
X102562500Y-63931250D01*
X102562500Y-63418750D01*
X102563553Y-63397309D01*
X102566703Y-63376074D01*
X102571919Y-63355250D01*
X102579151Y-63335038D01*
X102588330Y-63315632D01*
X102599366Y-63297219D01*
X102612154Y-63279976D01*
X102626570Y-63264070D01*
X102642476Y-63249654D01*
X102659719Y-63236866D01*
X102678132Y-63225830D01*
X102697538Y-63216651D01*
X102717750Y-63209419D01*
X102738574Y-63204203D01*
X102759809Y-63201053D01*
X102781250Y-63200000D01*
X103218750Y-63200000D01*
X103240191Y-63201053D01*
X103240191Y-63201053D01*
G37*
D13*
G04 #@! TD*
G04 #@! TO.P,C7,1*
G04 #@! TO.N,Net-(C7-Pad1)*
X103000000Y-63675000D03*
D12*
G04 #@! TO.N,Net-(C7-Pad2)*
G04 #@! TO.C,C7*
G36*
X104815191Y-63201053D02*
X104836426Y-63204203D01*
X104857250Y-63209419D01*
X104877462Y-63216651D01*
X104896868Y-63225830D01*
X104915281Y-63236866D01*
X104932524Y-63249654D01*
X104948430Y-63264070D01*
X104962846Y-63279976D01*
X104975634Y-63297219D01*
X104986670Y-63315632D01*
X104995849Y-63335038D01*
X105003081Y-63355250D01*
X105008297Y-63376074D01*
X105011447Y-63397309D01*
X105012500Y-63418750D01*
X105012500Y-63931250D01*
X105011447Y-63952691D01*
X105008297Y-63973926D01*
X105003081Y-63994750D01*
X104995849Y-64014962D01*
X104986670Y-64034368D01*
X104975634Y-64052781D01*
X104962846Y-64070024D01*
X104948430Y-64085930D01*
X104932524Y-64100346D01*
X104915281Y-64113134D01*
X104896868Y-64124170D01*
X104877462Y-64133349D01*
X104857250Y-64140581D01*
X104836426Y-64145797D01*
X104815191Y-64148947D01*
X104793750Y-64150000D01*
X104356250Y-64150000D01*
X104334809Y-64148947D01*
X104313574Y-64145797D01*
X104292750Y-64140581D01*
X104272538Y-64133349D01*
X104253132Y-64124170D01*
X104234719Y-64113134D01*
X104217476Y-64100346D01*
X104201570Y-64085930D01*
X104187154Y-64070024D01*
X104174366Y-64052781D01*
X104163330Y-64034368D01*
X104154151Y-64014962D01*
X104146919Y-63994750D01*
X104141703Y-63973926D01*
X104138553Y-63952691D01*
X104137500Y-63931250D01*
X104137500Y-63418750D01*
X104138553Y-63397309D01*
X104141703Y-63376074D01*
X104146919Y-63355250D01*
X104154151Y-63335038D01*
X104163330Y-63315632D01*
X104174366Y-63297219D01*
X104187154Y-63279976D01*
X104201570Y-63264070D01*
X104217476Y-63249654D01*
X104234719Y-63236866D01*
X104253132Y-63225830D01*
X104272538Y-63216651D01*
X104292750Y-63209419D01*
X104313574Y-63204203D01*
X104334809Y-63201053D01*
X104356250Y-63200000D01*
X104793750Y-63200000D01*
X104815191Y-63201053D01*
X104815191Y-63201053D01*
G37*
D13*
G04 #@! TD*
G04 #@! TO.P,C7,2*
G04 #@! TO.N,Net-(C7-Pad2)*
X104575000Y-63675000D03*
D12*
G04 #@! TO.N,GND*
G04 #@! TO.C,C8*
G36*
X92252691Y-64463553D02*
X92273926Y-64466703D01*
X92294750Y-64471919D01*
X92314962Y-64479151D01*
X92334368Y-64488330D01*
X92352781Y-64499366D01*
X92370024Y-64512154D01*
X92385930Y-64526570D01*
X92400346Y-64542476D01*
X92413134Y-64559719D01*
X92424170Y-64578132D01*
X92433349Y-64597538D01*
X92440581Y-64617750D01*
X92445797Y-64638574D01*
X92448947Y-64659809D01*
X92450000Y-64681250D01*
X92450000Y-65118750D01*
X92448947Y-65140191D01*
X92445797Y-65161426D01*
X92440581Y-65182250D01*
X92433349Y-65202462D01*
X92424170Y-65221868D01*
X92413134Y-65240281D01*
X92400346Y-65257524D01*
X92385930Y-65273430D01*
X92370024Y-65287846D01*
X92352781Y-65300634D01*
X92334368Y-65311670D01*
X92314962Y-65320849D01*
X92294750Y-65328081D01*
X92273926Y-65333297D01*
X92252691Y-65336447D01*
X92231250Y-65337500D01*
X91718750Y-65337500D01*
X91697309Y-65336447D01*
X91676074Y-65333297D01*
X91655250Y-65328081D01*
X91635038Y-65320849D01*
X91615632Y-65311670D01*
X91597219Y-65300634D01*
X91579976Y-65287846D01*
X91564070Y-65273430D01*
X91549654Y-65257524D01*
X91536866Y-65240281D01*
X91525830Y-65221868D01*
X91516651Y-65202462D01*
X91509419Y-65182250D01*
X91504203Y-65161426D01*
X91501053Y-65140191D01*
X91500000Y-65118750D01*
X91500000Y-64681250D01*
X91501053Y-64659809D01*
X91504203Y-64638574D01*
X91509419Y-64617750D01*
X91516651Y-64597538D01*
X91525830Y-64578132D01*
X91536866Y-64559719D01*
X91549654Y-64542476D01*
X91564070Y-64526570D01*
X91579976Y-64512154D01*
X91597219Y-64499366D01*
X91615632Y-64488330D01*
X91635038Y-64479151D01*
X91655250Y-64471919D01*
X91676074Y-64466703D01*
X91697309Y-64463553D01*
X91718750Y-64462500D01*
X92231250Y-64462500D01*
X92252691Y-64463553D01*
X92252691Y-64463553D01*
G37*
D13*
G04 #@! TD*
G04 #@! TO.P,C8,1*
G04 #@! TO.N,GND*
X91975000Y-64900000D03*
D12*
G04 #@! TO.N,Net-(C8-Pad2)*
G04 #@! TO.C,C8*
G36*
X92252691Y-62888553D02*
X92273926Y-62891703D01*
X92294750Y-62896919D01*
X92314962Y-62904151D01*
X92334368Y-62913330D01*
X92352781Y-62924366D01*
X92370024Y-62937154D01*
X92385930Y-62951570D01*
X92400346Y-62967476D01*
X92413134Y-62984719D01*
X92424170Y-63003132D01*
X92433349Y-63022538D01*
X92440581Y-63042750D01*
X92445797Y-63063574D01*
X92448947Y-63084809D01*
X92450000Y-63106250D01*
X92450000Y-63543750D01*
X92448947Y-63565191D01*
X92445797Y-63586426D01*
X92440581Y-63607250D01*
X92433349Y-63627462D01*
X92424170Y-63646868D01*
X92413134Y-63665281D01*
X92400346Y-63682524D01*
X92385930Y-63698430D01*
X92370024Y-63712846D01*
X92352781Y-63725634D01*
X92334368Y-63736670D01*
X92314962Y-63745849D01*
X92294750Y-63753081D01*
X92273926Y-63758297D01*
X92252691Y-63761447D01*
X92231250Y-63762500D01*
X91718750Y-63762500D01*
X91697309Y-63761447D01*
X91676074Y-63758297D01*
X91655250Y-63753081D01*
X91635038Y-63745849D01*
X91615632Y-63736670D01*
X91597219Y-63725634D01*
X91579976Y-63712846D01*
X91564070Y-63698430D01*
X91549654Y-63682524D01*
X91536866Y-63665281D01*
X91525830Y-63646868D01*
X91516651Y-63627462D01*
X91509419Y-63607250D01*
X91504203Y-63586426D01*
X91501053Y-63565191D01*
X91500000Y-63543750D01*
X91500000Y-63106250D01*
X91501053Y-63084809D01*
X91504203Y-63063574D01*
X91509419Y-63042750D01*
X91516651Y-63022538D01*
X91525830Y-63003132D01*
X91536866Y-62984719D01*
X91549654Y-62967476D01*
X91564070Y-62951570D01*
X91579976Y-62937154D01*
X91597219Y-62924366D01*
X91615632Y-62913330D01*
X91635038Y-62904151D01*
X91655250Y-62896919D01*
X91676074Y-62891703D01*
X91697309Y-62888553D01*
X91718750Y-62887500D01*
X92231250Y-62887500D01*
X92252691Y-62888553D01*
X92252691Y-62888553D01*
G37*
D13*
G04 #@! TD*
G04 #@! TO.P,C8,2*
G04 #@! TO.N,Net-(C8-Pad2)*
X91975000Y-63325000D03*
D12*
G04 #@! TO.N,Net-(C9-Pad2)*
G04 #@! TO.C,C9*
G36*
X87640191Y-65376053D02*
X87661426Y-65379203D01*
X87682250Y-65384419D01*
X87702462Y-65391651D01*
X87721868Y-65400830D01*
X87740281Y-65411866D01*
X87757524Y-65424654D01*
X87773430Y-65439070D01*
X87787846Y-65454976D01*
X87800634Y-65472219D01*
X87811670Y-65490632D01*
X87820849Y-65510038D01*
X87828081Y-65530250D01*
X87833297Y-65551074D01*
X87836447Y-65572309D01*
X87837500Y-65593750D01*
X87837500Y-66106250D01*
X87836447Y-66127691D01*
X87833297Y-66148926D01*
X87828081Y-66169750D01*
X87820849Y-66189962D01*
X87811670Y-66209368D01*
X87800634Y-66227781D01*
X87787846Y-66245024D01*
X87773430Y-66260930D01*
X87757524Y-66275346D01*
X87740281Y-66288134D01*
X87721868Y-66299170D01*
X87702462Y-66308349D01*
X87682250Y-66315581D01*
X87661426Y-66320797D01*
X87640191Y-66323947D01*
X87618750Y-66325000D01*
X87181250Y-66325000D01*
X87159809Y-66323947D01*
X87138574Y-66320797D01*
X87117750Y-66315581D01*
X87097538Y-66308349D01*
X87078132Y-66299170D01*
X87059719Y-66288134D01*
X87042476Y-66275346D01*
X87026570Y-66260930D01*
X87012154Y-66245024D01*
X86999366Y-66227781D01*
X86988330Y-66209368D01*
X86979151Y-66189962D01*
X86971919Y-66169750D01*
X86966703Y-66148926D01*
X86963553Y-66127691D01*
X86962500Y-66106250D01*
X86962500Y-65593750D01*
X86963553Y-65572309D01*
X86966703Y-65551074D01*
X86971919Y-65530250D01*
X86979151Y-65510038D01*
X86988330Y-65490632D01*
X86999366Y-65472219D01*
X87012154Y-65454976D01*
X87026570Y-65439070D01*
X87042476Y-65424654D01*
X87059719Y-65411866D01*
X87078132Y-65400830D01*
X87097538Y-65391651D01*
X87117750Y-65384419D01*
X87138574Y-65379203D01*
X87159809Y-65376053D01*
X87181250Y-65375000D01*
X87618750Y-65375000D01*
X87640191Y-65376053D01*
X87640191Y-65376053D01*
G37*
D13*
G04 #@! TD*
G04 #@! TO.P,C9,2*
G04 #@! TO.N,Net-(C9-Pad2)*
X87400000Y-65850000D03*
D12*
G04 #@! TO.N,GND*
G04 #@! TO.C,C9*
G36*
X89215191Y-65376053D02*
X89236426Y-65379203D01*
X89257250Y-65384419D01*
X89277462Y-65391651D01*
X89296868Y-65400830D01*
X89315281Y-65411866D01*
X89332524Y-65424654D01*
X89348430Y-65439070D01*
X89362846Y-65454976D01*
X89375634Y-65472219D01*
X89386670Y-65490632D01*
X89395849Y-65510038D01*
X89403081Y-65530250D01*
X89408297Y-65551074D01*
X89411447Y-65572309D01*
X89412500Y-65593750D01*
X89412500Y-66106250D01*
X89411447Y-66127691D01*
X89408297Y-66148926D01*
X89403081Y-66169750D01*
X89395849Y-66189962D01*
X89386670Y-66209368D01*
X89375634Y-66227781D01*
X89362846Y-66245024D01*
X89348430Y-66260930D01*
X89332524Y-66275346D01*
X89315281Y-66288134D01*
X89296868Y-66299170D01*
X89277462Y-66308349D01*
X89257250Y-66315581D01*
X89236426Y-66320797D01*
X89215191Y-66323947D01*
X89193750Y-66325000D01*
X88756250Y-66325000D01*
X88734809Y-66323947D01*
X88713574Y-66320797D01*
X88692750Y-66315581D01*
X88672538Y-66308349D01*
X88653132Y-66299170D01*
X88634719Y-66288134D01*
X88617476Y-66275346D01*
X88601570Y-66260930D01*
X88587154Y-66245024D01*
X88574366Y-66227781D01*
X88563330Y-66209368D01*
X88554151Y-66189962D01*
X88546919Y-66169750D01*
X88541703Y-66148926D01*
X88538553Y-66127691D01*
X88537500Y-66106250D01*
X88537500Y-65593750D01*
X88538553Y-65572309D01*
X88541703Y-65551074D01*
X88546919Y-65530250D01*
X88554151Y-65510038D01*
X88563330Y-65490632D01*
X88574366Y-65472219D01*
X88587154Y-65454976D01*
X88601570Y-65439070D01*
X88617476Y-65424654D01*
X88634719Y-65411866D01*
X88653132Y-65400830D01*
X88672538Y-65391651D01*
X88692750Y-65384419D01*
X88713574Y-65379203D01*
X88734809Y-65376053D01*
X88756250Y-65375000D01*
X89193750Y-65375000D01*
X89215191Y-65376053D01*
X89215191Y-65376053D01*
G37*
D13*
G04 #@! TD*
G04 #@! TO.P,C9,1*
G04 #@! TO.N,GND*
X88975000Y-65850000D03*
D15*
G04 #@! TO.P,C10,2*
G04 #@! TO.N,GND*
X73375000Y-74325000D03*
D14*
G04 #@! TO.P,C10,1*
G04 #@! TO.N,+3V3*
X70875000Y-74325000D03*
G04 #@! TD*
D12*
G04 #@! TO.N,+3V3*
G04 #@! TO.C,R1*
G36*
X81352691Y-62038553D02*
X81373926Y-62041703D01*
X81394750Y-62046919D01*
X81414962Y-62054151D01*
X81434368Y-62063330D01*
X81452781Y-62074366D01*
X81470024Y-62087154D01*
X81485930Y-62101570D01*
X81500346Y-62117476D01*
X81513134Y-62134719D01*
X81524170Y-62153132D01*
X81533349Y-62172538D01*
X81540581Y-62192750D01*
X81545797Y-62213574D01*
X81548947Y-62234809D01*
X81550000Y-62256250D01*
X81550000Y-62693750D01*
X81548947Y-62715191D01*
X81545797Y-62736426D01*
X81540581Y-62757250D01*
X81533349Y-62777462D01*
X81524170Y-62796868D01*
X81513134Y-62815281D01*
X81500346Y-62832524D01*
X81485930Y-62848430D01*
X81470024Y-62862846D01*
X81452781Y-62875634D01*
X81434368Y-62886670D01*
X81414962Y-62895849D01*
X81394750Y-62903081D01*
X81373926Y-62908297D01*
X81352691Y-62911447D01*
X81331250Y-62912500D01*
X80818750Y-62912500D01*
X80797309Y-62911447D01*
X80776074Y-62908297D01*
X80755250Y-62903081D01*
X80735038Y-62895849D01*
X80715632Y-62886670D01*
X80697219Y-62875634D01*
X80679976Y-62862846D01*
X80664070Y-62848430D01*
X80649654Y-62832524D01*
X80636866Y-62815281D01*
X80625830Y-62796868D01*
X80616651Y-62777462D01*
X80609419Y-62757250D01*
X80604203Y-62736426D01*
X80601053Y-62715191D01*
X80600000Y-62693750D01*
X80600000Y-62256250D01*
X80601053Y-62234809D01*
X80604203Y-62213574D01*
X80609419Y-62192750D01*
X80616651Y-62172538D01*
X80625830Y-62153132D01*
X80636866Y-62134719D01*
X80649654Y-62117476D01*
X80664070Y-62101570D01*
X80679976Y-62087154D01*
X80697219Y-62074366D01*
X80715632Y-62063330D01*
X80735038Y-62054151D01*
X80755250Y-62046919D01*
X80776074Y-62041703D01*
X80797309Y-62038553D01*
X80818750Y-62037500D01*
X81331250Y-62037500D01*
X81352691Y-62038553D01*
X81352691Y-62038553D01*
G37*
D13*
G04 #@! TD*
G04 #@! TO.P,R1,1*
G04 #@! TO.N,+3V3*
X81075000Y-62475000D03*
D12*
G04 #@! TO.N,Net-(C2-Pad1)*
G04 #@! TO.C,R1*
G36*
X81352691Y-63613553D02*
X81373926Y-63616703D01*
X81394750Y-63621919D01*
X81414962Y-63629151D01*
X81434368Y-63638330D01*
X81452781Y-63649366D01*
X81470024Y-63662154D01*
X81485930Y-63676570D01*
X81500346Y-63692476D01*
X81513134Y-63709719D01*
X81524170Y-63728132D01*
X81533349Y-63747538D01*
X81540581Y-63767750D01*
X81545797Y-63788574D01*
X81548947Y-63809809D01*
X81550000Y-63831250D01*
X81550000Y-64268750D01*
X81548947Y-64290191D01*
X81545797Y-64311426D01*
X81540581Y-64332250D01*
X81533349Y-64352462D01*
X81524170Y-64371868D01*
X81513134Y-64390281D01*
X81500346Y-64407524D01*
X81485930Y-64423430D01*
X81470024Y-64437846D01*
X81452781Y-64450634D01*
X81434368Y-64461670D01*
X81414962Y-64470849D01*
X81394750Y-64478081D01*
X81373926Y-64483297D01*
X81352691Y-64486447D01*
X81331250Y-64487500D01*
X80818750Y-64487500D01*
X80797309Y-64486447D01*
X80776074Y-64483297D01*
X80755250Y-64478081D01*
X80735038Y-64470849D01*
X80715632Y-64461670D01*
X80697219Y-64450634D01*
X80679976Y-64437846D01*
X80664070Y-64423430D01*
X80649654Y-64407524D01*
X80636866Y-64390281D01*
X80625830Y-64371868D01*
X80616651Y-64352462D01*
X80609419Y-64332250D01*
X80604203Y-64311426D01*
X80601053Y-64290191D01*
X80600000Y-64268750D01*
X80600000Y-63831250D01*
X80601053Y-63809809D01*
X80604203Y-63788574D01*
X80609419Y-63767750D01*
X80616651Y-63747538D01*
X80625830Y-63728132D01*
X80636866Y-63709719D01*
X80649654Y-63692476D01*
X80664070Y-63676570D01*
X80679976Y-63662154D01*
X80697219Y-63649366D01*
X80715632Y-63638330D01*
X80735038Y-63629151D01*
X80755250Y-63621919D01*
X80776074Y-63616703D01*
X80797309Y-63613553D01*
X80818750Y-63612500D01*
X81331250Y-63612500D01*
X81352691Y-63613553D01*
X81352691Y-63613553D01*
G37*
D13*
G04 #@! TD*
G04 #@! TO.P,R1,2*
G04 #@! TO.N,Net-(C2-Pad1)*
X81075000Y-64050000D03*
D12*
G04 #@! TO.N,Net-(C2-Pad1)*
G04 #@! TO.C,R2*
G36*
X83002691Y-63613553D02*
X83023926Y-63616703D01*
X83044750Y-63621919D01*
X83064962Y-63629151D01*
X83084368Y-63638330D01*
X83102781Y-63649366D01*
X83120024Y-63662154D01*
X83135930Y-63676570D01*
X83150346Y-63692476D01*
X83163134Y-63709719D01*
X83174170Y-63728132D01*
X83183349Y-63747538D01*
X83190581Y-63767750D01*
X83195797Y-63788574D01*
X83198947Y-63809809D01*
X83200000Y-63831250D01*
X83200000Y-64268750D01*
X83198947Y-64290191D01*
X83195797Y-64311426D01*
X83190581Y-64332250D01*
X83183349Y-64352462D01*
X83174170Y-64371868D01*
X83163134Y-64390281D01*
X83150346Y-64407524D01*
X83135930Y-64423430D01*
X83120024Y-64437846D01*
X83102781Y-64450634D01*
X83084368Y-64461670D01*
X83064962Y-64470849D01*
X83044750Y-64478081D01*
X83023926Y-64483297D01*
X83002691Y-64486447D01*
X82981250Y-64487500D01*
X82468750Y-64487500D01*
X82447309Y-64486447D01*
X82426074Y-64483297D01*
X82405250Y-64478081D01*
X82385038Y-64470849D01*
X82365632Y-64461670D01*
X82347219Y-64450634D01*
X82329976Y-64437846D01*
X82314070Y-64423430D01*
X82299654Y-64407524D01*
X82286866Y-64390281D01*
X82275830Y-64371868D01*
X82266651Y-64352462D01*
X82259419Y-64332250D01*
X82254203Y-64311426D01*
X82251053Y-64290191D01*
X82250000Y-64268750D01*
X82250000Y-63831250D01*
X82251053Y-63809809D01*
X82254203Y-63788574D01*
X82259419Y-63767750D01*
X82266651Y-63747538D01*
X82275830Y-63728132D01*
X82286866Y-63709719D01*
X82299654Y-63692476D01*
X82314070Y-63676570D01*
X82329976Y-63662154D01*
X82347219Y-63649366D01*
X82365632Y-63638330D01*
X82385038Y-63629151D01*
X82405250Y-63621919D01*
X82426074Y-63616703D01*
X82447309Y-63613553D01*
X82468750Y-63612500D01*
X82981250Y-63612500D01*
X83002691Y-63613553D01*
X83002691Y-63613553D01*
G37*
D13*
G04 #@! TD*
G04 #@! TO.P,R2,1*
G04 #@! TO.N,Net-(C2-Pad1)*
X82725000Y-64050000D03*
D12*
G04 #@! TO.N,Net-(R2-Pad2)*
G04 #@! TO.C,R2*
G36*
X83002691Y-62038553D02*
X83023926Y-62041703D01*
X83044750Y-62046919D01*
X83064962Y-62054151D01*
X83084368Y-62063330D01*
X83102781Y-62074366D01*
X83120024Y-62087154D01*
X83135930Y-62101570D01*
X83150346Y-62117476D01*
X83163134Y-62134719D01*
X83174170Y-62153132D01*
X83183349Y-62172538D01*
X83190581Y-62192750D01*
X83195797Y-62213574D01*
X83198947Y-62234809D01*
X83200000Y-62256250D01*
X83200000Y-62693750D01*
X83198947Y-62715191D01*
X83195797Y-62736426D01*
X83190581Y-62757250D01*
X83183349Y-62777462D01*
X83174170Y-62796868D01*
X83163134Y-62815281D01*
X83150346Y-62832524D01*
X83135930Y-62848430D01*
X83120024Y-62862846D01*
X83102781Y-62875634D01*
X83084368Y-62886670D01*
X83064962Y-62895849D01*
X83044750Y-62903081D01*
X83023926Y-62908297D01*
X83002691Y-62911447D01*
X82981250Y-62912500D01*
X82468750Y-62912500D01*
X82447309Y-62911447D01*
X82426074Y-62908297D01*
X82405250Y-62903081D01*
X82385038Y-62895849D01*
X82365632Y-62886670D01*
X82347219Y-62875634D01*
X82329976Y-62862846D01*
X82314070Y-62848430D01*
X82299654Y-62832524D01*
X82286866Y-62815281D01*
X82275830Y-62796868D01*
X82266651Y-62777462D01*
X82259419Y-62757250D01*
X82254203Y-62736426D01*
X82251053Y-62715191D01*
X82250000Y-62693750D01*
X82250000Y-62256250D01*
X82251053Y-62234809D01*
X82254203Y-62213574D01*
X82259419Y-62192750D01*
X82266651Y-62172538D01*
X82275830Y-62153132D01*
X82286866Y-62134719D01*
X82299654Y-62117476D01*
X82314070Y-62101570D01*
X82329976Y-62087154D01*
X82347219Y-62074366D01*
X82365632Y-62063330D01*
X82385038Y-62054151D01*
X82405250Y-62046919D01*
X82426074Y-62041703D01*
X82447309Y-62038553D01*
X82468750Y-62037500D01*
X82981250Y-62037500D01*
X83002691Y-62038553D01*
X83002691Y-62038553D01*
G37*
D13*
G04 #@! TD*
G04 #@! TO.P,R2,2*
G04 #@! TO.N,Net-(R2-Pad2)*
X82725000Y-62475000D03*
D12*
G04 #@! TO.N,Net-(C1-Pad1)*
G04 #@! TO.C,R3*
G36*
X90977691Y-58026053D02*
X90998926Y-58029203D01*
X91019750Y-58034419D01*
X91039962Y-58041651D01*
X91059368Y-58050830D01*
X91077781Y-58061866D01*
X91095024Y-58074654D01*
X91110930Y-58089070D01*
X91125346Y-58104976D01*
X91138134Y-58122219D01*
X91149170Y-58140632D01*
X91158349Y-58160038D01*
X91165581Y-58180250D01*
X91170797Y-58201074D01*
X91173947Y-58222309D01*
X91175000Y-58243750D01*
X91175000Y-58756250D01*
X91173947Y-58777691D01*
X91170797Y-58798926D01*
X91165581Y-58819750D01*
X91158349Y-58839962D01*
X91149170Y-58859368D01*
X91138134Y-58877781D01*
X91125346Y-58895024D01*
X91110930Y-58910930D01*
X91095024Y-58925346D01*
X91077781Y-58938134D01*
X91059368Y-58949170D01*
X91039962Y-58958349D01*
X91019750Y-58965581D01*
X90998926Y-58970797D01*
X90977691Y-58973947D01*
X90956250Y-58975000D01*
X90518750Y-58975000D01*
X90497309Y-58973947D01*
X90476074Y-58970797D01*
X90455250Y-58965581D01*
X90435038Y-58958349D01*
X90415632Y-58949170D01*
X90397219Y-58938134D01*
X90379976Y-58925346D01*
X90364070Y-58910930D01*
X90349654Y-58895024D01*
X90336866Y-58877781D01*
X90325830Y-58859368D01*
X90316651Y-58839962D01*
X90309419Y-58819750D01*
X90304203Y-58798926D01*
X90301053Y-58777691D01*
X90300000Y-58756250D01*
X90300000Y-58243750D01*
X90301053Y-58222309D01*
X90304203Y-58201074D01*
X90309419Y-58180250D01*
X90316651Y-58160038D01*
X90325830Y-58140632D01*
X90336866Y-58122219D01*
X90349654Y-58104976D01*
X90364070Y-58089070D01*
X90379976Y-58074654D01*
X90397219Y-58061866D01*
X90415632Y-58050830D01*
X90435038Y-58041651D01*
X90455250Y-58034419D01*
X90476074Y-58029203D01*
X90497309Y-58026053D01*
X90518750Y-58025000D01*
X90956250Y-58025000D01*
X90977691Y-58026053D01*
X90977691Y-58026053D01*
G37*
D13*
G04 #@! TD*
G04 #@! TO.P,R3,1*
G04 #@! TO.N,Net-(C1-Pad1)*
X90737500Y-58500000D03*
D12*
G04 #@! TO.N,GND*
G04 #@! TO.C,R3*
G36*
X89402691Y-58026053D02*
X89423926Y-58029203D01*
X89444750Y-58034419D01*
X89464962Y-58041651D01*
X89484368Y-58050830D01*
X89502781Y-58061866D01*
X89520024Y-58074654D01*
X89535930Y-58089070D01*
X89550346Y-58104976D01*
X89563134Y-58122219D01*
X89574170Y-58140632D01*
X89583349Y-58160038D01*
X89590581Y-58180250D01*
X89595797Y-58201074D01*
X89598947Y-58222309D01*
X89600000Y-58243750D01*
X89600000Y-58756250D01*
X89598947Y-58777691D01*
X89595797Y-58798926D01*
X89590581Y-58819750D01*
X89583349Y-58839962D01*
X89574170Y-58859368D01*
X89563134Y-58877781D01*
X89550346Y-58895024D01*
X89535930Y-58910930D01*
X89520024Y-58925346D01*
X89502781Y-58938134D01*
X89484368Y-58949170D01*
X89464962Y-58958349D01*
X89444750Y-58965581D01*
X89423926Y-58970797D01*
X89402691Y-58973947D01*
X89381250Y-58975000D01*
X88943750Y-58975000D01*
X88922309Y-58973947D01*
X88901074Y-58970797D01*
X88880250Y-58965581D01*
X88860038Y-58958349D01*
X88840632Y-58949170D01*
X88822219Y-58938134D01*
X88804976Y-58925346D01*
X88789070Y-58910930D01*
X88774654Y-58895024D01*
X88761866Y-58877781D01*
X88750830Y-58859368D01*
X88741651Y-58839962D01*
X88734419Y-58819750D01*
X88729203Y-58798926D01*
X88726053Y-58777691D01*
X88725000Y-58756250D01*
X88725000Y-58243750D01*
X88726053Y-58222309D01*
X88729203Y-58201074D01*
X88734419Y-58180250D01*
X88741651Y-58160038D01*
X88750830Y-58140632D01*
X88761866Y-58122219D01*
X88774654Y-58104976D01*
X88789070Y-58089070D01*
X88804976Y-58074654D01*
X88822219Y-58061866D01*
X88840632Y-58050830D01*
X88860038Y-58041651D01*
X88880250Y-58034419D01*
X88901074Y-58029203D01*
X88922309Y-58026053D01*
X88943750Y-58025000D01*
X89381250Y-58025000D01*
X89402691Y-58026053D01*
X89402691Y-58026053D01*
G37*
D13*
G04 #@! TD*
G04 #@! TO.P,R3,2*
G04 #@! TO.N,GND*
X89162500Y-58500000D03*
D12*
G04 #@! TO.N,Net-(C1-Pad1)*
G04 #@! TO.C,R4*
G36*
X89377691Y-59626053D02*
X89398926Y-59629203D01*
X89419750Y-59634419D01*
X89439962Y-59641651D01*
X89459368Y-59650830D01*
X89477781Y-59661866D01*
X89495024Y-59674654D01*
X89510930Y-59689070D01*
X89525346Y-59704976D01*
X89538134Y-59722219D01*
X89549170Y-59740632D01*
X89558349Y-59760038D01*
X89565581Y-59780250D01*
X89570797Y-59801074D01*
X89573947Y-59822309D01*
X89575000Y-59843750D01*
X89575000Y-60356250D01*
X89573947Y-60377691D01*
X89570797Y-60398926D01*
X89565581Y-60419750D01*
X89558349Y-60439962D01*
X89549170Y-60459368D01*
X89538134Y-60477781D01*
X89525346Y-60495024D01*
X89510930Y-60510930D01*
X89495024Y-60525346D01*
X89477781Y-60538134D01*
X89459368Y-60549170D01*
X89439962Y-60558349D01*
X89419750Y-60565581D01*
X89398926Y-60570797D01*
X89377691Y-60573947D01*
X89356250Y-60575000D01*
X88918750Y-60575000D01*
X88897309Y-60573947D01*
X88876074Y-60570797D01*
X88855250Y-60565581D01*
X88835038Y-60558349D01*
X88815632Y-60549170D01*
X88797219Y-60538134D01*
X88779976Y-60525346D01*
X88764070Y-60510930D01*
X88749654Y-60495024D01*
X88736866Y-60477781D01*
X88725830Y-60459368D01*
X88716651Y-60439962D01*
X88709419Y-60419750D01*
X88704203Y-60398926D01*
X88701053Y-60377691D01*
X88700000Y-60356250D01*
X88700000Y-59843750D01*
X88701053Y-59822309D01*
X88704203Y-59801074D01*
X88709419Y-59780250D01*
X88716651Y-59760038D01*
X88725830Y-59740632D01*
X88736866Y-59722219D01*
X88749654Y-59704976D01*
X88764070Y-59689070D01*
X88779976Y-59674654D01*
X88797219Y-59661866D01*
X88815632Y-59650830D01*
X88835038Y-59641651D01*
X88855250Y-59634419D01*
X88876074Y-59629203D01*
X88897309Y-59626053D01*
X88918750Y-59625000D01*
X89356250Y-59625000D01*
X89377691Y-59626053D01*
X89377691Y-59626053D01*
G37*
D13*
G04 #@! TD*
G04 #@! TO.P,R4,2*
G04 #@! TO.N,Net-(C1-Pad1)*
X89137500Y-60100000D03*
D12*
G04 #@! TO.N,Net-(R4-Pad1)*
G04 #@! TO.C,R4*
G36*
X90952691Y-59626053D02*
X90973926Y-59629203D01*
X90994750Y-59634419D01*
X91014962Y-59641651D01*
X91034368Y-59650830D01*
X91052781Y-59661866D01*
X91070024Y-59674654D01*
X91085930Y-59689070D01*
X91100346Y-59704976D01*
X91113134Y-59722219D01*
X91124170Y-59740632D01*
X91133349Y-59760038D01*
X91140581Y-59780250D01*
X91145797Y-59801074D01*
X91148947Y-59822309D01*
X91150000Y-59843750D01*
X91150000Y-60356250D01*
X91148947Y-60377691D01*
X91145797Y-60398926D01*
X91140581Y-60419750D01*
X91133349Y-60439962D01*
X91124170Y-60459368D01*
X91113134Y-60477781D01*
X91100346Y-60495024D01*
X91085930Y-60510930D01*
X91070024Y-60525346D01*
X91052781Y-60538134D01*
X91034368Y-60549170D01*
X91014962Y-60558349D01*
X90994750Y-60565581D01*
X90973926Y-60570797D01*
X90952691Y-60573947D01*
X90931250Y-60575000D01*
X90493750Y-60575000D01*
X90472309Y-60573947D01*
X90451074Y-60570797D01*
X90430250Y-60565581D01*
X90410038Y-60558349D01*
X90390632Y-60549170D01*
X90372219Y-60538134D01*
X90354976Y-60525346D01*
X90339070Y-60510930D01*
X90324654Y-60495024D01*
X90311866Y-60477781D01*
X90300830Y-60459368D01*
X90291651Y-60439962D01*
X90284419Y-60419750D01*
X90279203Y-60398926D01*
X90276053Y-60377691D01*
X90275000Y-60356250D01*
X90275000Y-59843750D01*
X90276053Y-59822309D01*
X90279203Y-59801074D01*
X90284419Y-59780250D01*
X90291651Y-59760038D01*
X90300830Y-59740632D01*
X90311866Y-59722219D01*
X90324654Y-59704976D01*
X90339070Y-59689070D01*
X90354976Y-59674654D01*
X90372219Y-59661866D01*
X90390632Y-59650830D01*
X90410038Y-59641651D01*
X90430250Y-59634419D01*
X90451074Y-59629203D01*
X90472309Y-59626053D01*
X90493750Y-59625000D01*
X90931250Y-59625000D01*
X90952691Y-59626053D01*
X90952691Y-59626053D01*
G37*
D13*
G04 #@! TD*
G04 #@! TO.P,R4,1*
G04 #@! TO.N,Net-(R4-Pad1)*
X90712500Y-60100000D03*
D15*
G04 #@! TO.P,R6,1*
G04 #@! TO.N,Net-(R5-Pad2)*
X102150000Y-54125000D03*
G04 #@! TO.P,R6,2*
G04 #@! TO.N,GND*
X105150000Y-54125000D03*
G04 #@! TD*
D12*
G04 #@! TO.N,GND*
G04 #@! TO.C,R7*
G36*
X104840191Y-66476053D02*
X104861426Y-66479203D01*
X104882250Y-66484419D01*
X104902462Y-66491651D01*
X104921868Y-66500830D01*
X104940281Y-66511866D01*
X104957524Y-66524654D01*
X104973430Y-66539070D01*
X104987846Y-66554976D01*
X105000634Y-66572219D01*
X105011670Y-66590632D01*
X105020849Y-66610038D01*
X105028081Y-66630250D01*
X105033297Y-66651074D01*
X105036447Y-66672309D01*
X105037500Y-66693750D01*
X105037500Y-67206250D01*
X105036447Y-67227691D01*
X105033297Y-67248926D01*
X105028081Y-67269750D01*
X105020849Y-67289962D01*
X105011670Y-67309368D01*
X105000634Y-67327781D01*
X104987846Y-67345024D01*
X104973430Y-67360930D01*
X104957524Y-67375346D01*
X104940281Y-67388134D01*
X104921868Y-67399170D01*
X104902462Y-67408349D01*
X104882250Y-67415581D01*
X104861426Y-67420797D01*
X104840191Y-67423947D01*
X104818750Y-67425000D01*
X104381250Y-67425000D01*
X104359809Y-67423947D01*
X104338574Y-67420797D01*
X104317750Y-67415581D01*
X104297538Y-67408349D01*
X104278132Y-67399170D01*
X104259719Y-67388134D01*
X104242476Y-67375346D01*
X104226570Y-67360930D01*
X104212154Y-67345024D01*
X104199366Y-67327781D01*
X104188330Y-67309368D01*
X104179151Y-67289962D01*
X104171919Y-67269750D01*
X104166703Y-67248926D01*
X104163553Y-67227691D01*
X104162500Y-67206250D01*
X104162500Y-66693750D01*
X104163553Y-66672309D01*
X104166703Y-66651074D01*
X104171919Y-66630250D01*
X104179151Y-66610038D01*
X104188330Y-66590632D01*
X104199366Y-66572219D01*
X104212154Y-66554976D01*
X104226570Y-66539070D01*
X104242476Y-66524654D01*
X104259719Y-66511866D01*
X104278132Y-66500830D01*
X104297538Y-66491651D01*
X104317750Y-66484419D01*
X104338574Y-66479203D01*
X104359809Y-66476053D01*
X104381250Y-66475000D01*
X104818750Y-66475000D01*
X104840191Y-66476053D01*
X104840191Y-66476053D01*
G37*
D13*
G04 #@! TD*
G04 #@! TO.P,R7,2*
G04 #@! TO.N,GND*
X104600000Y-66950000D03*
D12*
G04 #@! TO.N,Net-(R7-Pad1)*
G04 #@! TO.C,R7*
G36*
X103265191Y-66476053D02*
X103286426Y-66479203D01*
X103307250Y-66484419D01*
X103327462Y-66491651D01*
X103346868Y-66500830D01*
X103365281Y-66511866D01*
X103382524Y-66524654D01*
X103398430Y-66539070D01*
X103412846Y-66554976D01*
X103425634Y-66572219D01*
X103436670Y-66590632D01*
X103445849Y-66610038D01*
X103453081Y-66630250D01*
X103458297Y-66651074D01*
X103461447Y-66672309D01*
X103462500Y-66693750D01*
X103462500Y-67206250D01*
X103461447Y-67227691D01*
X103458297Y-67248926D01*
X103453081Y-67269750D01*
X103445849Y-67289962D01*
X103436670Y-67309368D01*
X103425634Y-67327781D01*
X103412846Y-67345024D01*
X103398430Y-67360930D01*
X103382524Y-67375346D01*
X103365281Y-67388134D01*
X103346868Y-67399170D01*
X103327462Y-67408349D01*
X103307250Y-67415581D01*
X103286426Y-67420797D01*
X103265191Y-67423947D01*
X103243750Y-67425000D01*
X102806250Y-67425000D01*
X102784809Y-67423947D01*
X102763574Y-67420797D01*
X102742750Y-67415581D01*
X102722538Y-67408349D01*
X102703132Y-67399170D01*
X102684719Y-67388134D01*
X102667476Y-67375346D01*
X102651570Y-67360930D01*
X102637154Y-67345024D01*
X102624366Y-67327781D01*
X102613330Y-67309368D01*
X102604151Y-67289962D01*
X102596919Y-67269750D01*
X102591703Y-67248926D01*
X102588553Y-67227691D01*
X102587500Y-67206250D01*
X102587500Y-66693750D01*
X102588553Y-66672309D01*
X102591703Y-66651074D01*
X102596919Y-66630250D01*
X102604151Y-66610038D01*
X102613330Y-66590632D01*
X102624366Y-66572219D01*
X102637154Y-66554976D01*
X102651570Y-66539070D01*
X102667476Y-66524654D01*
X102684719Y-66511866D01*
X102703132Y-66500830D01*
X102722538Y-66491651D01*
X102742750Y-66484419D01*
X102763574Y-66479203D01*
X102784809Y-66476053D01*
X102806250Y-66475000D01*
X103243750Y-66475000D01*
X103265191Y-66476053D01*
X103265191Y-66476053D01*
G37*
D13*
G04 #@! TD*
G04 #@! TO.P,R7,1*
G04 #@! TO.N,Net-(R7-Pad1)*
X103025000Y-66950000D03*
D12*
G04 #@! TO.N,Net-(C3-Pad1)*
G04 #@! TO.C,R8*
G36*
X106027691Y-57888553D02*
X106048926Y-57891703D01*
X106069750Y-57896919D01*
X106089962Y-57904151D01*
X106109368Y-57913330D01*
X106127781Y-57924366D01*
X106145024Y-57937154D01*
X106160930Y-57951570D01*
X106175346Y-57967476D01*
X106188134Y-57984719D01*
X106199170Y-58003132D01*
X106208349Y-58022538D01*
X106215581Y-58042750D01*
X106220797Y-58063574D01*
X106223947Y-58084809D01*
X106225000Y-58106250D01*
X106225000Y-58543750D01*
X106223947Y-58565191D01*
X106220797Y-58586426D01*
X106215581Y-58607250D01*
X106208349Y-58627462D01*
X106199170Y-58646868D01*
X106188134Y-58665281D01*
X106175346Y-58682524D01*
X106160930Y-58698430D01*
X106145024Y-58712846D01*
X106127781Y-58725634D01*
X106109368Y-58736670D01*
X106089962Y-58745849D01*
X106069750Y-58753081D01*
X106048926Y-58758297D01*
X106027691Y-58761447D01*
X106006250Y-58762500D01*
X105493750Y-58762500D01*
X105472309Y-58761447D01*
X105451074Y-58758297D01*
X105430250Y-58753081D01*
X105410038Y-58745849D01*
X105390632Y-58736670D01*
X105372219Y-58725634D01*
X105354976Y-58712846D01*
X105339070Y-58698430D01*
X105324654Y-58682524D01*
X105311866Y-58665281D01*
X105300830Y-58646868D01*
X105291651Y-58627462D01*
X105284419Y-58607250D01*
X105279203Y-58586426D01*
X105276053Y-58565191D01*
X105275000Y-58543750D01*
X105275000Y-58106250D01*
X105276053Y-58084809D01*
X105279203Y-58063574D01*
X105284419Y-58042750D01*
X105291651Y-58022538D01*
X105300830Y-58003132D01*
X105311866Y-57984719D01*
X105324654Y-57967476D01*
X105339070Y-57951570D01*
X105354976Y-57937154D01*
X105372219Y-57924366D01*
X105390632Y-57913330D01*
X105410038Y-57904151D01*
X105430250Y-57896919D01*
X105451074Y-57891703D01*
X105472309Y-57888553D01*
X105493750Y-57887500D01*
X106006250Y-57887500D01*
X106027691Y-57888553D01*
X106027691Y-57888553D01*
G37*
D13*
G04 #@! TD*
G04 #@! TO.P,R8,2*
G04 #@! TO.N,Net-(C3-Pad1)*
X105750000Y-58325000D03*
D12*
G04 #@! TO.N,Net-(C4-Pad2)*
G04 #@! TO.C,R8*
G36*
X106027691Y-59463553D02*
X106048926Y-59466703D01*
X106069750Y-59471919D01*
X106089962Y-59479151D01*
X106109368Y-59488330D01*
X106127781Y-59499366D01*
X106145024Y-59512154D01*
X106160930Y-59526570D01*
X106175346Y-59542476D01*
X106188134Y-59559719D01*
X106199170Y-59578132D01*
X106208349Y-59597538D01*
X106215581Y-59617750D01*
X106220797Y-59638574D01*
X106223947Y-59659809D01*
X106225000Y-59681250D01*
X106225000Y-60118750D01*
X106223947Y-60140191D01*
X106220797Y-60161426D01*
X106215581Y-60182250D01*
X106208349Y-60202462D01*
X106199170Y-60221868D01*
X106188134Y-60240281D01*
X106175346Y-60257524D01*
X106160930Y-60273430D01*
X106145024Y-60287846D01*
X106127781Y-60300634D01*
X106109368Y-60311670D01*
X106089962Y-60320849D01*
X106069750Y-60328081D01*
X106048926Y-60333297D01*
X106027691Y-60336447D01*
X106006250Y-60337500D01*
X105493750Y-60337500D01*
X105472309Y-60336447D01*
X105451074Y-60333297D01*
X105430250Y-60328081D01*
X105410038Y-60320849D01*
X105390632Y-60311670D01*
X105372219Y-60300634D01*
X105354976Y-60287846D01*
X105339070Y-60273430D01*
X105324654Y-60257524D01*
X105311866Y-60240281D01*
X105300830Y-60221868D01*
X105291651Y-60202462D01*
X105284419Y-60182250D01*
X105279203Y-60161426D01*
X105276053Y-60140191D01*
X105275000Y-60118750D01*
X105275000Y-59681250D01*
X105276053Y-59659809D01*
X105279203Y-59638574D01*
X105284419Y-59617750D01*
X105291651Y-59597538D01*
X105300830Y-59578132D01*
X105311866Y-59559719D01*
X105324654Y-59542476D01*
X105339070Y-59526570D01*
X105354976Y-59512154D01*
X105372219Y-59499366D01*
X105390632Y-59488330D01*
X105410038Y-59479151D01*
X105430250Y-59471919D01*
X105451074Y-59466703D01*
X105472309Y-59463553D01*
X105493750Y-59462500D01*
X106006250Y-59462500D01*
X106027691Y-59463553D01*
X106027691Y-59463553D01*
G37*
D13*
G04 #@! TD*
G04 #@! TO.P,R8,1*
G04 #@! TO.N,Net-(C4-Pad2)*
X105750000Y-59900000D03*
D12*
G04 #@! TO.N,Net-(C4-Pad1)*
G04 #@! TO.C,R9*
G36*
X104502691Y-57888553D02*
X104523926Y-57891703D01*
X104544750Y-57896919D01*
X104564962Y-57904151D01*
X104584368Y-57913330D01*
X104602781Y-57924366D01*
X104620024Y-57937154D01*
X104635930Y-57951570D01*
X104650346Y-57967476D01*
X104663134Y-57984719D01*
X104674170Y-58003132D01*
X104683349Y-58022538D01*
X104690581Y-58042750D01*
X104695797Y-58063574D01*
X104698947Y-58084809D01*
X104700000Y-58106250D01*
X104700000Y-58543750D01*
X104698947Y-58565191D01*
X104695797Y-58586426D01*
X104690581Y-58607250D01*
X104683349Y-58627462D01*
X104674170Y-58646868D01*
X104663134Y-58665281D01*
X104650346Y-58682524D01*
X104635930Y-58698430D01*
X104620024Y-58712846D01*
X104602781Y-58725634D01*
X104584368Y-58736670D01*
X104564962Y-58745849D01*
X104544750Y-58753081D01*
X104523926Y-58758297D01*
X104502691Y-58761447D01*
X104481250Y-58762500D01*
X103968750Y-58762500D01*
X103947309Y-58761447D01*
X103926074Y-58758297D01*
X103905250Y-58753081D01*
X103885038Y-58745849D01*
X103865632Y-58736670D01*
X103847219Y-58725634D01*
X103829976Y-58712846D01*
X103814070Y-58698430D01*
X103799654Y-58682524D01*
X103786866Y-58665281D01*
X103775830Y-58646868D01*
X103766651Y-58627462D01*
X103759419Y-58607250D01*
X103754203Y-58586426D01*
X103751053Y-58565191D01*
X103750000Y-58543750D01*
X103750000Y-58106250D01*
X103751053Y-58084809D01*
X103754203Y-58063574D01*
X103759419Y-58042750D01*
X103766651Y-58022538D01*
X103775830Y-58003132D01*
X103786866Y-57984719D01*
X103799654Y-57967476D01*
X103814070Y-57951570D01*
X103829976Y-57937154D01*
X103847219Y-57924366D01*
X103865632Y-57913330D01*
X103885038Y-57904151D01*
X103905250Y-57896919D01*
X103926074Y-57891703D01*
X103947309Y-57888553D01*
X103968750Y-57887500D01*
X104481250Y-57887500D01*
X104502691Y-57888553D01*
X104502691Y-57888553D01*
G37*
D13*
G04 #@! TD*
G04 #@! TO.P,R9,1*
G04 #@! TO.N,Net-(C4-Pad1)*
X104225000Y-58325000D03*
D12*
G04 #@! TO.N,Net-(C4-Pad2)*
G04 #@! TO.C,R9*
G36*
X104502691Y-59463553D02*
X104523926Y-59466703D01*
X104544750Y-59471919D01*
X104564962Y-59479151D01*
X104584368Y-59488330D01*
X104602781Y-59499366D01*
X104620024Y-59512154D01*
X104635930Y-59526570D01*
X104650346Y-59542476D01*
X104663134Y-59559719D01*
X104674170Y-59578132D01*
X104683349Y-59597538D01*
X104690581Y-59617750D01*
X104695797Y-59638574D01*
X104698947Y-59659809D01*
X104700000Y-59681250D01*
X104700000Y-60118750D01*
X104698947Y-60140191D01*
X104695797Y-60161426D01*
X104690581Y-60182250D01*
X104683349Y-60202462D01*
X104674170Y-60221868D01*
X104663134Y-60240281D01*
X104650346Y-60257524D01*
X104635930Y-60273430D01*
X104620024Y-60287846D01*
X104602781Y-60300634D01*
X104584368Y-60311670D01*
X104564962Y-60320849D01*
X104544750Y-60328081D01*
X104523926Y-60333297D01*
X104502691Y-60336447D01*
X104481250Y-60337500D01*
X103968750Y-60337500D01*
X103947309Y-60336447D01*
X103926074Y-60333297D01*
X103905250Y-60328081D01*
X103885038Y-60320849D01*
X103865632Y-60311670D01*
X103847219Y-60300634D01*
X103829976Y-60287846D01*
X103814070Y-60273430D01*
X103799654Y-60257524D01*
X103786866Y-60240281D01*
X103775830Y-60221868D01*
X103766651Y-60202462D01*
X103759419Y-60182250D01*
X103754203Y-60161426D01*
X103751053Y-60140191D01*
X103750000Y-60118750D01*
X103750000Y-59681250D01*
X103751053Y-59659809D01*
X103754203Y-59638574D01*
X103759419Y-59617750D01*
X103766651Y-59597538D01*
X103775830Y-59578132D01*
X103786866Y-59559719D01*
X103799654Y-59542476D01*
X103814070Y-59526570D01*
X103829976Y-59512154D01*
X103847219Y-59499366D01*
X103865632Y-59488330D01*
X103885038Y-59479151D01*
X103905250Y-59471919D01*
X103926074Y-59466703D01*
X103947309Y-59463553D01*
X103968750Y-59462500D01*
X104481250Y-59462500D01*
X104502691Y-59463553D01*
X104502691Y-59463553D01*
G37*
D13*
G04 #@! TD*
G04 #@! TO.P,R9,2*
G04 #@! TO.N,Net-(C4-Pad2)*
X104225000Y-59900000D03*
D12*
G04 #@! TO.N,Net-(C7-Pad1)*
G04 #@! TO.C,R10*
G36*
X103240191Y-64801053D02*
X103261426Y-64804203D01*
X103282250Y-64809419D01*
X103302462Y-64816651D01*
X103321868Y-64825830D01*
X103340281Y-64836866D01*
X103357524Y-64849654D01*
X103373430Y-64864070D01*
X103387846Y-64879976D01*
X103400634Y-64897219D01*
X103411670Y-64915632D01*
X103420849Y-64935038D01*
X103428081Y-64955250D01*
X103433297Y-64976074D01*
X103436447Y-64997309D01*
X103437500Y-65018750D01*
X103437500Y-65531250D01*
X103436447Y-65552691D01*
X103433297Y-65573926D01*
X103428081Y-65594750D01*
X103420849Y-65614962D01*
X103411670Y-65634368D01*
X103400634Y-65652781D01*
X103387846Y-65670024D01*
X103373430Y-65685930D01*
X103357524Y-65700346D01*
X103340281Y-65713134D01*
X103321868Y-65724170D01*
X103302462Y-65733349D01*
X103282250Y-65740581D01*
X103261426Y-65745797D01*
X103240191Y-65748947D01*
X103218750Y-65750000D01*
X102781250Y-65750000D01*
X102759809Y-65748947D01*
X102738574Y-65745797D01*
X102717750Y-65740581D01*
X102697538Y-65733349D01*
X102678132Y-65724170D01*
X102659719Y-65713134D01*
X102642476Y-65700346D01*
X102626570Y-65685930D01*
X102612154Y-65670024D01*
X102599366Y-65652781D01*
X102588330Y-65634368D01*
X102579151Y-65614962D01*
X102571919Y-65594750D01*
X102566703Y-65573926D01*
X102563553Y-65552691D01*
X102562500Y-65531250D01*
X102562500Y-65018750D01*
X102563553Y-64997309D01*
X102566703Y-64976074D01*
X102571919Y-64955250D01*
X102579151Y-64935038D01*
X102588330Y-64915632D01*
X102599366Y-64897219D01*
X102612154Y-64879976D01*
X102626570Y-64864070D01*
X102642476Y-64849654D01*
X102659719Y-64836866D01*
X102678132Y-64825830D01*
X102697538Y-64816651D01*
X102717750Y-64809419D01*
X102738574Y-64804203D01*
X102759809Y-64801053D01*
X102781250Y-64800000D01*
X103218750Y-64800000D01*
X103240191Y-64801053D01*
X103240191Y-64801053D01*
G37*
D13*
G04 #@! TD*
G04 #@! TO.P,R10,2*
G04 #@! TO.N,Net-(C7-Pad1)*
X103000000Y-65275000D03*
D12*
G04 #@! TO.N,Net-(C6-Pad2)*
G04 #@! TO.C,R10*
G36*
X104815191Y-64801053D02*
X104836426Y-64804203D01*
X104857250Y-64809419D01*
X104877462Y-64816651D01*
X104896868Y-64825830D01*
X104915281Y-64836866D01*
X104932524Y-64849654D01*
X104948430Y-64864070D01*
X104962846Y-64879976D01*
X104975634Y-64897219D01*
X104986670Y-64915632D01*
X104995849Y-64935038D01*
X105003081Y-64955250D01*
X105008297Y-64976074D01*
X105011447Y-64997309D01*
X105012500Y-65018750D01*
X105012500Y-65531250D01*
X105011447Y-65552691D01*
X105008297Y-65573926D01*
X105003081Y-65594750D01*
X104995849Y-65614962D01*
X104986670Y-65634368D01*
X104975634Y-65652781D01*
X104962846Y-65670024D01*
X104948430Y-65685930D01*
X104932524Y-65700346D01*
X104915281Y-65713134D01*
X104896868Y-65724170D01*
X104877462Y-65733349D01*
X104857250Y-65740581D01*
X104836426Y-65745797D01*
X104815191Y-65748947D01*
X104793750Y-65750000D01*
X104356250Y-65750000D01*
X104334809Y-65748947D01*
X104313574Y-65745797D01*
X104292750Y-65740581D01*
X104272538Y-65733349D01*
X104253132Y-65724170D01*
X104234719Y-65713134D01*
X104217476Y-65700346D01*
X104201570Y-65685930D01*
X104187154Y-65670024D01*
X104174366Y-65652781D01*
X104163330Y-65634368D01*
X104154151Y-65614962D01*
X104146919Y-65594750D01*
X104141703Y-65573926D01*
X104138553Y-65552691D01*
X104137500Y-65531250D01*
X104137500Y-65018750D01*
X104138553Y-64997309D01*
X104141703Y-64976074D01*
X104146919Y-64955250D01*
X104154151Y-64935038D01*
X104163330Y-64915632D01*
X104174366Y-64897219D01*
X104187154Y-64879976D01*
X104201570Y-64864070D01*
X104217476Y-64849654D01*
X104234719Y-64836866D01*
X104253132Y-64825830D01*
X104272538Y-64816651D01*
X104292750Y-64809419D01*
X104313574Y-64804203D01*
X104334809Y-64801053D01*
X104356250Y-64800000D01*
X104793750Y-64800000D01*
X104815191Y-64801053D01*
X104815191Y-64801053D01*
G37*
D13*
G04 #@! TD*
G04 #@! TO.P,R10,1*
G04 #@! TO.N,Net-(C6-Pad2)*
X104575000Y-65275000D03*
D12*
G04 #@! TO.N,Net-(C6-Pad2)*
G04 #@! TO.C,R11*
G36*
X106427691Y-70376053D02*
X106448926Y-70379203D01*
X106469750Y-70384419D01*
X106489962Y-70391651D01*
X106509368Y-70400830D01*
X106527781Y-70411866D01*
X106545024Y-70424654D01*
X106560930Y-70439070D01*
X106575346Y-70454976D01*
X106588134Y-70472219D01*
X106599170Y-70490632D01*
X106608349Y-70510038D01*
X106615581Y-70530250D01*
X106620797Y-70551074D01*
X106623947Y-70572309D01*
X106625000Y-70593750D01*
X106625000Y-71031250D01*
X106623947Y-71052691D01*
X106620797Y-71073926D01*
X106615581Y-71094750D01*
X106608349Y-71114962D01*
X106599170Y-71134368D01*
X106588134Y-71152781D01*
X106575346Y-71170024D01*
X106560930Y-71185930D01*
X106545024Y-71200346D01*
X106527781Y-71213134D01*
X106509368Y-71224170D01*
X106489962Y-71233349D01*
X106469750Y-71240581D01*
X106448926Y-71245797D01*
X106427691Y-71248947D01*
X106406250Y-71250000D01*
X105893750Y-71250000D01*
X105872309Y-71248947D01*
X105851074Y-71245797D01*
X105830250Y-71240581D01*
X105810038Y-71233349D01*
X105790632Y-71224170D01*
X105772219Y-71213134D01*
X105754976Y-71200346D01*
X105739070Y-71185930D01*
X105724654Y-71170024D01*
X105711866Y-71152781D01*
X105700830Y-71134368D01*
X105691651Y-71114962D01*
X105684419Y-71094750D01*
X105679203Y-71073926D01*
X105676053Y-71052691D01*
X105675000Y-71031250D01*
X105675000Y-70593750D01*
X105676053Y-70572309D01*
X105679203Y-70551074D01*
X105684419Y-70530250D01*
X105691651Y-70510038D01*
X105700830Y-70490632D01*
X105711866Y-70472219D01*
X105724654Y-70454976D01*
X105739070Y-70439070D01*
X105754976Y-70424654D01*
X105772219Y-70411866D01*
X105790632Y-70400830D01*
X105810038Y-70391651D01*
X105830250Y-70384419D01*
X105851074Y-70379203D01*
X105872309Y-70376053D01*
X105893750Y-70375000D01*
X106406250Y-70375000D01*
X106427691Y-70376053D01*
X106427691Y-70376053D01*
G37*
D13*
G04 #@! TD*
G04 #@! TO.P,R11,2*
G04 #@! TO.N,Net-(C6-Pad2)*
X106150000Y-70812500D03*
D12*
G04 #@! TO.N,Net-(C5-Pad1)*
G04 #@! TO.C,R11*
G36*
X106427691Y-71951053D02*
X106448926Y-71954203D01*
X106469750Y-71959419D01*
X106489962Y-71966651D01*
X106509368Y-71975830D01*
X106527781Y-71986866D01*
X106545024Y-71999654D01*
X106560930Y-72014070D01*
X106575346Y-72029976D01*
X106588134Y-72047219D01*
X106599170Y-72065632D01*
X106608349Y-72085038D01*
X106615581Y-72105250D01*
X106620797Y-72126074D01*
X106623947Y-72147309D01*
X106625000Y-72168750D01*
X106625000Y-72606250D01*
X106623947Y-72627691D01*
X106620797Y-72648926D01*
X106615581Y-72669750D01*
X106608349Y-72689962D01*
X106599170Y-72709368D01*
X106588134Y-72727781D01*
X106575346Y-72745024D01*
X106560930Y-72760930D01*
X106545024Y-72775346D01*
X106527781Y-72788134D01*
X106509368Y-72799170D01*
X106489962Y-72808349D01*
X106469750Y-72815581D01*
X106448926Y-72820797D01*
X106427691Y-72823947D01*
X106406250Y-72825000D01*
X105893750Y-72825000D01*
X105872309Y-72823947D01*
X105851074Y-72820797D01*
X105830250Y-72815581D01*
X105810038Y-72808349D01*
X105790632Y-72799170D01*
X105772219Y-72788134D01*
X105754976Y-72775346D01*
X105739070Y-72760930D01*
X105724654Y-72745024D01*
X105711866Y-72727781D01*
X105700830Y-72709368D01*
X105691651Y-72689962D01*
X105684419Y-72669750D01*
X105679203Y-72648926D01*
X105676053Y-72627691D01*
X105675000Y-72606250D01*
X105675000Y-72168750D01*
X105676053Y-72147309D01*
X105679203Y-72126074D01*
X105684419Y-72105250D01*
X105691651Y-72085038D01*
X105700830Y-72065632D01*
X105711866Y-72047219D01*
X105724654Y-72029976D01*
X105739070Y-72014070D01*
X105754976Y-71999654D01*
X105772219Y-71986866D01*
X105790632Y-71975830D01*
X105810038Y-71966651D01*
X105830250Y-71959419D01*
X105851074Y-71954203D01*
X105872309Y-71951053D01*
X105893750Y-71950000D01*
X106406250Y-71950000D01*
X106427691Y-71951053D01*
X106427691Y-71951053D01*
G37*
D13*
G04 #@! TD*
G04 #@! TO.P,R11,1*
G04 #@! TO.N,Net-(C5-Pad1)*
X106150000Y-72387500D03*
D12*
G04 #@! TO.N,Net-(R12-Pad2)*
G04 #@! TO.C,R12*
G36*
X104815191Y-61626053D02*
X104836426Y-61629203D01*
X104857250Y-61634419D01*
X104877462Y-61641651D01*
X104896868Y-61650830D01*
X104915281Y-61661866D01*
X104932524Y-61674654D01*
X104948430Y-61689070D01*
X104962846Y-61704976D01*
X104975634Y-61722219D01*
X104986670Y-61740632D01*
X104995849Y-61760038D01*
X105003081Y-61780250D01*
X105008297Y-61801074D01*
X105011447Y-61822309D01*
X105012500Y-61843750D01*
X105012500Y-62356250D01*
X105011447Y-62377691D01*
X105008297Y-62398926D01*
X105003081Y-62419750D01*
X104995849Y-62439962D01*
X104986670Y-62459368D01*
X104975634Y-62477781D01*
X104962846Y-62495024D01*
X104948430Y-62510930D01*
X104932524Y-62525346D01*
X104915281Y-62538134D01*
X104896868Y-62549170D01*
X104877462Y-62558349D01*
X104857250Y-62565581D01*
X104836426Y-62570797D01*
X104815191Y-62573947D01*
X104793750Y-62575000D01*
X104356250Y-62575000D01*
X104334809Y-62573947D01*
X104313574Y-62570797D01*
X104292750Y-62565581D01*
X104272538Y-62558349D01*
X104253132Y-62549170D01*
X104234719Y-62538134D01*
X104217476Y-62525346D01*
X104201570Y-62510930D01*
X104187154Y-62495024D01*
X104174366Y-62477781D01*
X104163330Y-62459368D01*
X104154151Y-62439962D01*
X104146919Y-62419750D01*
X104141703Y-62398926D01*
X104138553Y-62377691D01*
X104137500Y-62356250D01*
X104137500Y-61843750D01*
X104138553Y-61822309D01*
X104141703Y-61801074D01*
X104146919Y-61780250D01*
X104154151Y-61760038D01*
X104163330Y-61740632D01*
X104174366Y-61722219D01*
X104187154Y-61704976D01*
X104201570Y-61689070D01*
X104217476Y-61674654D01*
X104234719Y-61661866D01*
X104253132Y-61650830D01*
X104272538Y-61641651D01*
X104292750Y-61634419D01*
X104313574Y-61629203D01*
X104334809Y-61626053D01*
X104356250Y-61625000D01*
X104793750Y-61625000D01*
X104815191Y-61626053D01*
X104815191Y-61626053D01*
G37*
D13*
G04 #@! TD*
G04 #@! TO.P,R12,2*
G04 #@! TO.N,Net-(R12-Pad2)*
X104575000Y-62100000D03*
D12*
G04 #@! TO.N,Net-(C7-Pad1)*
G04 #@! TO.C,R12*
G36*
X103240191Y-61626053D02*
X103261426Y-61629203D01*
X103282250Y-61634419D01*
X103302462Y-61641651D01*
X103321868Y-61650830D01*
X103340281Y-61661866D01*
X103357524Y-61674654D01*
X103373430Y-61689070D01*
X103387846Y-61704976D01*
X103400634Y-61722219D01*
X103411670Y-61740632D01*
X103420849Y-61760038D01*
X103428081Y-61780250D01*
X103433297Y-61801074D01*
X103436447Y-61822309D01*
X103437500Y-61843750D01*
X103437500Y-62356250D01*
X103436447Y-62377691D01*
X103433297Y-62398926D01*
X103428081Y-62419750D01*
X103420849Y-62439962D01*
X103411670Y-62459368D01*
X103400634Y-62477781D01*
X103387846Y-62495024D01*
X103373430Y-62510930D01*
X103357524Y-62525346D01*
X103340281Y-62538134D01*
X103321868Y-62549170D01*
X103302462Y-62558349D01*
X103282250Y-62565581D01*
X103261426Y-62570797D01*
X103240191Y-62573947D01*
X103218750Y-62575000D01*
X102781250Y-62575000D01*
X102759809Y-62573947D01*
X102738574Y-62570797D01*
X102717750Y-62565581D01*
X102697538Y-62558349D01*
X102678132Y-62549170D01*
X102659719Y-62538134D01*
X102642476Y-62525346D01*
X102626570Y-62510930D01*
X102612154Y-62495024D01*
X102599366Y-62477781D01*
X102588330Y-62459368D01*
X102579151Y-62439962D01*
X102571919Y-62419750D01*
X102566703Y-62398926D01*
X102563553Y-62377691D01*
X102562500Y-62356250D01*
X102562500Y-61843750D01*
X102563553Y-61822309D01*
X102566703Y-61801074D01*
X102571919Y-61780250D01*
X102579151Y-61760038D01*
X102588330Y-61740632D01*
X102599366Y-61722219D01*
X102612154Y-61704976D01*
X102626570Y-61689070D01*
X102642476Y-61674654D01*
X102659719Y-61661866D01*
X102678132Y-61650830D01*
X102697538Y-61641651D01*
X102717750Y-61634419D01*
X102738574Y-61629203D01*
X102759809Y-61626053D01*
X102781250Y-61625000D01*
X103218750Y-61625000D01*
X103240191Y-61626053D01*
X103240191Y-61626053D01*
G37*
D13*
G04 #@! TD*
G04 #@! TO.P,R12,1*
G04 #@! TO.N,Net-(C7-Pad1)*
X103000000Y-62100000D03*
D12*
G04 #@! TO.N,Net-(R13-Pad2)*
G04 #@! TO.C,R13*
G36*
X82890191Y-65426053D02*
X82911426Y-65429203D01*
X82932250Y-65434419D01*
X82952462Y-65441651D01*
X82971868Y-65450830D01*
X82990281Y-65461866D01*
X83007524Y-65474654D01*
X83023430Y-65489070D01*
X83037846Y-65504976D01*
X83050634Y-65522219D01*
X83061670Y-65540632D01*
X83070849Y-65560038D01*
X83078081Y-65580250D01*
X83083297Y-65601074D01*
X83086447Y-65622309D01*
X83087500Y-65643750D01*
X83087500Y-66156250D01*
X83086447Y-66177691D01*
X83083297Y-66198926D01*
X83078081Y-66219750D01*
X83070849Y-66239962D01*
X83061670Y-66259368D01*
X83050634Y-66277781D01*
X83037846Y-66295024D01*
X83023430Y-66310930D01*
X83007524Y-66325346D01*
X82990281Y-66338134D01*
X82971868Y-66349170D01*
X82952462Y-66358349D01*
X82932250Y-66365581D01*
X82911426Y-66370797D01*
X82890191Y-66373947D01*
X82868750Y-66375000D01*
X82431250Y-66375000D01*
X82409809Y-66373947D01*
X82388574Y-66370797D01*
X82367750Y-66365581D01*
X82347538Y-66358349D01*
X82328132Y-66349170D01*
X82309719Y-66338134D01*
X82292476Y-66325346D01*
X82276570Y-66310930D01*
X82262154Y-66295024D01*
X82249366Y-66277781D01*
X82238330Y-66259368D01*
X82229151Y-66239962D01*
X82221919Y-66219750D01*
X82216703Y-66198926D01*
X82213553Y-66177691D01*
X82212500Y-66156250D01*
X82212500Y-65643750D01*
X82213553Y-65622309D01*
X82216703Y-65601074D01*
X82221919Y-65580250D01*
X82229151Y-65560038D01*
X82238330Y-65540632D01*
X82249366Y-65522219D01*
X82262154Y-65504976D01*
X82276570Y-65489070D01*
X82292476Y-65474654D01*
X82309719Y-65461866D01*
X82328132Y-65450830D01*
X82347538Y-65441651D01*
X82367750Y-65434419D01*
X82388574Y-65429203D01*
X82409809Y-65426053D01*
X82431250Y-65425000D01*
X82868750Y-65425000D01*
X82890191Y-65426053D01*
X82890191Y-65426053D01*
G37*
D13*
G04 #@! TD*
G04 #@! TO.P,R13,2*
G04 #@! TO.N,Net-(R13-Pad2)*
X82650000Y-65900000D03*
D12*
G04 #@! TO.N,Net-(R13-Pad1)*
G04 #@! TO.C,R13*
G36*
X81315191Y-65426053D02*
X81336426Y-65429203D01*
X81357250Y-65434419D01*
X81377462Y-65441651D01*
X81396868Y-65450830D01*
X81415281Y-65461866D01*
X81432524Y-65474654D01*
X81448430Y-65489070D01*
X81462846Y-65504976D01*
X81475634Y-65522219D01*
X81486670Y-65540632D01*
X81495849Y-65560038D01*
X81503081Y-65580250D01*
X81508297Y-65601074D01*
X81511447Y-65622309D01*
X81512500Y-65643750D01*
X81512500Y-66156250D01*
X81511447Y-66177691D01*
X81508297Y-66198926D01*
X81503081Y-66219750D01*
X81495849Y-66239962D01*
X81486670Y-66259368D01*
X81475634Y-66277781D01*
X81462846Y-66295024D01*
X81448430Y-66310930D01*
X81432524Y-66325346D01*
X81415281Y-66338134D01*
X81396868Y-66349170D01*
X81377462Y-66358349D01*
X81357250Y-66365581D01*
X81336426Y-66370797D01*
X81315191Y-66373947D01*
X81293750Y-66375000D01*
X80856250Y-66375000D01*
X80834809Y-66373947D01*
X80813574Y-66370797D01*
X80792750Y-66365581D01*
X80772538Y-66358349D01*
X80753132Y-66349170D01*
X80734719Y-66338134D01*
X80717476Y-66325346D01*
X80701570Y-66310930D01*
X80687154Y-66295024D01*
X80674366Y-66277781D01*
X80663330Y-66259368D01*
X80654151Y-66239962D01*
X80646919Y-66219750D01*
X80641703Y-66198926D01*
X80638553Y-66177691D01*
X80637500Y-66156250D01*
X80637500Y-65643750D01*
X80638553Y-65622309D01*
X80641703Y-65601074D01*
X80646919Y-65580250D01*
X80654151Y-65560038D01*
X80663330Y-65540632D01*
X80674366Y-65522219D01*
X80687154Y-65504976D01*
X80701570Y-65489070D01*
X80717476Y-65474654D01*
X80734719Y-65461866D01*
X80753132Y-65450830D01*
X80772538Y-65441651D01*
X80792750Y-65434419D01*
X80813574Y-65429203D01*
X80834809Y-65426053D01*
X80856250Y-65425000D01*
X81293750Y-65425000D01*
X81315191Y-65426053D01*
X81315191Y-65426053D01*
G37*
D13*
G04 #@! TD*
G04 #@! TO.P,R13,1*
G04 #@! TO.N,Net-(R13-Pad1)*
X81075000Y-65900000D03*
D12*
G04 #@! TO.N,Net-(R14-Pad2)*
G04 #@! TO.C,R14*
G36*
X93802691Y-64463553D02*
X93823926Y-64466703D01*
X93844750Y-64471919D01*
X93864962Y-64479151D01*
X93884368Y-64488330D01*
X93902781Y-64499366D01*
X93920024Y-64512154D01*
X93935930Y-64526570D01*
X93950346Y-64542476D01*
X93963134Y-64559719D01*
X93974170Y-64578132D01*
X93983349Y-64597538D01*
X93990581Y-64617750D01*
X93995797Y-64638574D01*
X93998947Y-64659809D01*
X94000000Y-64681250D01*
X94000000Y-65118750D01*
X93998947Y-65140191D01*
X93995797Y-65161426D01*
X93990581Y-65182250D01*
X93983349Y-65202462D01*
X93974170Y-65221868D01*
X93963134Y-65240281D01*
X93950346Y-65257524D01*
X93935930Y-65273430D01*
X93920024Y-65287846D01*
X93902781Y-65300634D01*
X93884368Y-65311670D01*
X93864962Y-65320849D01*
X93844750Y-65328081D01*
X93823926Y-65333297D01*
X93802691Y-65336447D01*
X93781250Y-65337500D01*
X93268750Y-65337500D01*
X93247309Y-65336447D01*
X93226074Y-65333297D01*
X93205250Y-65328081D01*
X93185038Y-65320849D01*
X93165632Y-65311670D01*
X93147219Y-65300634D01*
X93129976Y-65287846D01*
X93114070Y-65273430D01*
X93099654Y-65257524D01*
X93086866Y-65240281D01*
X93075830Y-65221868D01*
X93066651Y-65202462D01*
X93059419Y-65182250D01*
X93054203Y-65161426D01*
X93051053Y-65140191D01*
X93050000Y-65118750D01*
X93050000Y-64681250D01*
X93051053Y-64659809D01*
X93054203Y-64638574D01*
X93059419Y-64617750D01*
X93066651Y-64597538D01*
X93075830Y-64578132D01*
X93086866Y-64559719D01*
X93099654Y-64542476D01*
X93114070Y-64526570D01*
X93129976Y-64512154D01*
X93147219Y-64499366D01*
X93165632Y-64488330D01*
X93185038Y-64479151D01*
X93205250Y-64471919D01*
X93226074Y-64466703D01*
X93247309Y-64463553D01*
X93268750Y-64462500D01*
X93781250Y-64462500D01*
X93802691Y-64463553D01*
X93802691Y-64463553D01*
G37*
D13*
G04 #@! TD*
G04 #@! TO.P,R14,2*
G04 #@! TO.N,Net-(R14-Pad2)*
X93525000Y-64900000D03*
D12*
G04 #@! TO.N,Net-(C8-Pad2)*
G04 #@! TO.C,R14*
G36*
X93802691Y-62888553D02*
X93823926Y-62891703D01*
X93844750Y-62896919D01*
X93864962Y-62904151D01*
X93884368Y-62913330D01*
X93902781Y-62924366D01*
X93920024Y-62937154D01*
X93935930Y-62951570D01*
X93950346Y-62967476D01*
X93963134Y-62984719D01*
X93974170Y-63003132D01*
X93983349Y-63022538D01*
X93990581Y-63042750D01*
X93995797Y-63063574D01*
X93998947Y-63084809D01*
X94000000Y-63106250D01*
X94000000Y-63543750D01*
X93998947Y-63565191D01*
X93995797Y-63586426D01*
X93990581Y-63607250D01*
X93983349Y-63627462D01*
X93974170Y-63646868D01*
X93963134Y-63665281D01*
X93950346Y-63682524D01*
X93935930Y-63698430D01*
X93920024Y-63712846D01*
X93902781Y-63725634D01*
X93884368Y-63736670D01*
X93864962Y-63745849D01*
X93844750Y-63753081D01*
X93823926Y-63758297D01*
X93802691Y-63761447D01*
X93781250Y-63762500D01*
X93268750Y-63762500D01*
X93247309Y-63761447D01*
X93226074Y-63758297D01*
X93205250Y-63753081D01*
X93185038Y-63745849D01*
X93165632Y-63736670D01*
X93147219Y-63725634D01*
X93129976Y-63712846D01*
X93114070Y-63698430D01*
X93099654Y-63682524D01*
X93086866Y-63665281D01*
X93075830Y-63646868D01*
X93066651Y-63627462D01*
X93059419Y-63607250D01*
X93054203Y-63586426D01*
X93051053Y-63565191D01*
X93050000Y-63543750D01*
X93050000Y-63106250D01*
X93051053Y-63084809D01*
X93054203Y-63063574D01*
X93059419Y-63042750D01*
X93066651Y-63022538D01*
X93075830Y-63003132D01*
X93086866Y-62984719D01*
X93099654Y-62967476D01*
X93114070Y-62951570D01*
X93129976Y-62937154D01*
X93147219Y-62924366D01*
X93165632Y-62913330D01*
X93185038Y-62904151D01*
X93205250Y-62896919D01*
X93226074Y-62891703D01*
X93247309Y-62888553D01*
X93268750Y-62887500D01*
X93781250Y-62887500D01*
X93802691Y-62888553D01*
X93802691Y-62888553D01*
G37*
D13*
G04 #@! TD*
G04 #@! TO.P,R14,1*
G04 #@! TO.N,Net-(C8-Pad2)*
X93525000Y-63325000D03*
D12*
G04 #@! TO.N,Net-(R15-Pad2)*
G04 #@! TO.C,R15*
G36*
X82990191Y-57801053D02*
X83011426Y-57804203D01*
X83032250Y-57809419D01*
X83052462Y-57816651D01*
X83071868Y-57825830D01*
X83090281Y-57836866D01*
X83107524Y-57849654D01*
X83123430Y-57864070D01*
X83137846Y-57879976D01*
X83150634Y-57897219D01*
X83161670Y-57915632D01*
X83170849Y-57935038D01*
X83178081Y-57955250D01*
X83183297Y-57976074D01*
X83186447Y-57997309D01*
X83187500Y-58018750D01*
X83187500Y-58531250D01*
X83186447Y-58552691D01*
X83183297Y-58573926D01*
X83178081Y-58594750D01*
X83170849Y-58614962D01*
X83161670Y-58634368D01*
X83150634Y-58652781D01*
X83137846Y-58670024D01*
X83123430Y-58685930D01*
X83107524Y-58700346D01*
X83090281Y-58713134D01*
X83071868Y-58724170D01*
X83052462Y-58733349D01*
X83032250Y-58740581D01*
X83011426Y-58745797D01*
X82990191Y-58748947D01*
X82968750Y-58750000D01*
X82531250Y-58750000D01*
X82509809Y-58748947D01*
X82488574Y-58745797D01*
X82467750Y-58740581D01*
X82447538Y-58733349D01*
X82428132Y-58724170D01*
X82409719Y-58713134D01*
X82392476Y-58700346D01*
X82376570Y-58685930D01*
X82362154Y-58670024D01*
X82349366Y-58652781D01*
X82338330Y-58634368D01*
X82329151Y-58614962D01*
X82321919Y-58594750D01*
X82316703Y-58573926D01*
X82313553Y-58552691D01*
X82312500Y-58531250D01*
X82312500Y-58018750D01*
X82313553Y-57997309D01*
X82316703Y-57976074D01*
X82321919Y-57955250D01*
X82329151Y-57935038D01*
X82338330Y-57915632D01*
X82349366Y-57897219D01*
X82362154Y-57879976D01*
X82376570Y-57864070D01*
X82392476Y-57849654D01*
X82409719Y-57836866D01*
X82428132Y-57825830D01*
X82447538Y-57816651D01*
X82467750Y-57809419D01*
X82488574Y-57804203D01*
X82509809Y-57801053D01*
X82531250Y-57800000D01*
X82968750Y-57800000D01*
X82990191Y-57801053D01*
X82990191Y-57801053D01*
G37*
D13*
G04 #@! TD*
G04 #@! TO.P,R15,2*
G04 #@! TO.N,Net-(R15-Pad2)*
X82750000Y-58275000D03*
D12*
G04 #@! TO.N,Net-(J2-Pad2)*
G04 #@! TO.C,R15*
G36*
X81415191Y-57801053D02*
X81436426Y-57804203D01*
X81457250Y-57809419D01*
X81477462Y-57816651D01*
X81496868Y-57825830D01*
X81515281Y-57836866D01*
X81532524Y-57849654D01*
X81548430Y-57864070D01*
X81562846Y-57879976D01*
X81575634Y-57897219D01*
X81586670Y-57915632D01*
X81595849Y-57935038D01*
X81603081Y-57955250D01*
X81608297Y-57976074D01*
X81611447Y-57997309D01*
X81612500Y-58018750D01*
X81612500Y-58531250D01*
X81611447Y-58552691D01*
X81608297Y-58573926D01*
X81603081Y-58594750D01*
X81595849Y-58614962D01*
X81586670Y-58634368D01*
X81575634Y-58652781D01*
X81562846Y-58670024D01*
X81548430Y-58685930D01*
X81532524Y-58700346D01*
X81515281Y-58713134D01*
X81496868Y-58724170D01*
X81477462Y-58733349D01*
X81457250Y-58740581D01*
X81436426Y-58745797D01*
X81415191Y-58748947D01*
X81393750Y-58750000D01*
X80956250Y-58750000D01*
X80934809Y-58748947D01*
X80913574Y-58745797D01*
X80892750Y-58740581D01*
X80872538Y-58733349D01*
X80853132Y-58724170D01*
X80834719Y-58713134D01*
X80817476Y-58700346D01*
X80801570Y-58685930D01*
X80787154Y-58670024D01*
X80774366Y-58652781D01*
X80763330Y-58634368D01*
X80754151Y-58614962D01*
X80746919Y-58594750D01*
X80741703Y-58573926D01*
X80738553Y-58552691D01*
X80737500Y-58531250D01*
X80737500Y-58018750D01*
X80738553Y-57997309D01*
X80741703Y-57976074D01*
X80746919Y-57955250D01*
X80754151Y-57935038D01*
X80763330Y-57915632D01*
X80774366Y-57897219D01*
X80787154Y-57879976D01*
X80801570Y-57864070D01*
X80817476Y-57849654D01*
X80834719Y-57836866D01*
X80853132Y-57825830D01*
X80872538Y-57816651D01*
X80892750Y-57809419D01*
X80913574Y-57804203D01*
X80934809Y-57801053D01*
X80956250Y-57800000D01*
X81393750Y-57800000D01*
X81415191Y-57801053D01*
X81415191Y-57801053D01*
G37*
D13*
G04 #@! TD*
G04 #@! TO.P,R15,1*
G04 #@! TO.N,Net-(J2-Pad2)*
X81175000Y-58275000D03*
D16*
G04 #@! TO.P,U1,1*
G04 #@! TO.N,Net-(R2-Pad2)*
X84825000Y-62425000D03*
D17*
G04 #@! TO.P,U1,2*
G04 #@! TO.N,Net-(C1-Pad1)*
X87365000Y-59885000D03*
G04 #@! TO.P,U1,3*
G04 #@! TO.N,GND*
X89905000Y-62425000D03*
G04 #@! TD*
D12*
G04 #@! TO.N,Net-(J1-Pad2)*
G04 #@! TO.C,U2*
G36*
X96175977Y-58005662D02*
X96189325Y-58007642D01*
X96202414Y-58010921D01*
X96215119Y-58015467D01*
X96227317Y-58021236D01*
X96238891Y-58028173D01*
X96249729Y-58036211D01*
X96259727Y-58045273D01*
X96268789Y-58055271D01*
X96276827Y-58066109D01*
X96283764Y-58077683D01*
X96289533Y-58089881D01*
X96294079Y-58102586D01*
X96297358Y-58115675D01*
X96299338Y-58129023D01*
X96300000Y-58142500D01*
X96300000Y-58417500D01*
X96299338Y-58430977D01*
X96297358Y-58444325D01*
X96294079Y-58457414D01*
X96289533Y-58470119D01*
X96283764Y-58482317D01*
X96276827Y-58493891D01*
X96268789Y-58504729D01*
X96259727Y-58514727D01*
X96249729Y-58523789D01*
X96238891Y-58531827D01*
X96227317Y-58538764D01*
X96215119Y-58544533D01*
X96202414Y-58549079D01*
X96189325Y-58552358D01*
X96175977Y-58554338D01*
X96162500Y-58555000D01*
X94837500Y-58555000D01*
X94824023Y-58554338D01*
X94810675Y-58552358D01*
X94797586Y-58549079D01*
X94784881Y-58544533D01*
X94772683Y-58538764D01*
X94761109Y-58531827D01*
X94750271Y-58523789D01*
X94740273Y-58514727D01*
X94731211Y-58504729D01*
X94723173Y-58493891D01*
X94716236Y-58482317D01*
X94710467Y-58470119D01*
X94705921Y-58457414D01*
X94702642Y-58444325D01*
X94700662Y-58430977D01*
X94700000Y-58417500D01*
X94700000Y-58142500D01*
X94700662Y-58129023D01*
X94702642Y-58115675D01*
X94705921Y-58102586D01*
X94710467Y-58089881D01*
X94716236Y-58077683D01*
X94723173Y-58066109D01*
X94731211Y-58055271D01*
X94740273Y-58045273D01*
X94750271Y-58036211D01*
X94761109Y-58028173D01*
X94772683Y-58021236D01*
X94784881Y-58015467D01*
X94797586Y-58010921D01*
X94810675Y-58007642D01*
X94824023Y-58005662D01*
X94837500Y-58005000D01*
X96162500Y-58005000D01*
X96175977Y-58005662D01*
X96175977Y-58005662D01*
G37*
D18*
G04 #@! TD*
G04 #@! TO.P,U2,1*
G04 #@! TO.N,Net-(J1-Pad2)*
X95500000Y-58280000D03*
D12*
G04 #@! TO.N,Net-(R15-Pad2)*
G04 #@! TO.C,U2*
G36*
X96175977Y-59275662D02*
X96189325Y-59277642D01*
X96202414Y-59280921D01*
X96215119Y-59285467D01*
X96227317Y-59291236D01*
X96238891Y-59298173D01*
X96249729Y-59306211D01*
X96259727Y-59315273D01*
X96268789Y-59325271D01*
X96276827Y-59336109D01*
X96283764Y-59347683D01*
X96289533Y-59359881D01*
X96294079Y-59372586D01*
X96297358Y-59385675D01*
X96299338Y-59399023D01*
X96300000Y-59412500D01*
X96300000Y-59687500D01*
X96299338Y-59700977D01*
X96297358Y-59714325D01*
X96294079Y-59727414D01*
X96289533Y-59740119D01*
X96283764Y-59752317D01*
X96276827Y-59763891D01*
X96268789Y-59774729D01*
X96259727Y-59784727D01*
X96249729Y-59793789D01*
X96238891Y-59801827D01*
X96227317Y-59808764D01*
X96215119Y-59814533D01*
X96202414Y-59819079D01*
X96189325Y-59822358D01*
X96175977Y-59824338D01*
X96162500Y-59825000D01*
X94837500Y-59825000D01*
X94824023Y-59824338D01*
X94810675Y-59822358D01*
X94797586Y-59819079D01*
X94784881Y-59814533D01*
X94772683Y-59808764D01*
X94761109Y-59801827D01*
X94750271Y-59793789D01*
X94740273Y-59784727D01*
X94731211Y-59774729D01*
X94723173Y-59763891D01*
X94716236Y-59752317D01*
X94710467Y-59740119D01*
X94705921Y-59727414D01*
X94702642Y-59714325D01*
X94700662Y-59700977D01*
X94700000Y-59687500D01*
X94700000Y-59412500D01*
X94700662Y-59399023D01*
X94702642Y-59385675D01*
X94705921Y-59372586D01*
X94710467Y-59359881D01*
X94716236Y-59347683D01*
X94723173Y-59336109D01*
X94731211Y-59325271D01*
X94740273Y-59315273D01*
X94750271Y-59306211D01*
X94761109Y-59298173D01*
X94772683Y-59291236D01*
X94784881Y-59285467D01*
X94797586Y-59280921D01*
X94810675Y-59277642D01*
X94824023Y-59275662D01*
X94837500Y-59275000D01*
X96162500Y-59275000D01*
X96175977Y-59275662D01*
X96175977Y-59275662D01*
G37*
D18*
G04 #@! TD*
G04 #@! TO.P,U2,2*
G04 #@! TO.N,Net-(R15-Pad2)*
X95500000Y-59550000D03*
D12*
G04 #@! TO.N,Net-(R13-Pad2)*
G04 #@! TO.C,U2*
G36*
X96175977Y-60545662D02*
X96189325Y-60547642D01*
X96202414Y-60550921D01*
X96215119Y-60555467D01*
X96227317Y-60561236D01*
X96238891Y-60568173D01*
X96249729Y-60576211D01*
X96259727Y-60585273D01*
X96268789Y-60595271D01*
X96276827Y-60606109D01*
X96283764Y-60617683D01*
X96289533Y-60629881D01*
X96294079Y-60642586D01*
X96297358Y-60655675D01*
X96299338Y-60669023D01*
X96300000Y-60682500D01*
X96300000Y-60957500D01*
X96299338Y-60970977D01*
X96297358Y-60984325D01*
X96294079Y-60997414D01*
X96289533Y-61010119D01*
X96283764Y-61022317D01*
X96276827Y-61033891D01*
X96268789Y-61044729D01*
X96259727Y-61054727D01*
X96249729Y-61063789D01*
X96238891Y-61071827D01*
X96227317Y-61078764D01*
X96215119Y-61084533D01*
X96202414Y-61089079D01*
X96189325Y-61092358D01*
X96175977Y-61094338D01*
X96162500Y-61095000D01*
X94837500Y-61095000D01*
X94824023Y-61094338D01*
X94810675Y-61092358D01*
X94797586Y-61089079D01*
X94784881Y-61084533D01*
X94772683Y-61078764D01*
X94761109Y-61071827D01*
X94750271Y-61063789D01*
X94740273Y-61054727D01*
X94731211Y-61044729D01*
X94723173Y-61033891D01*
X94716236Y-61022317D01*
X94710467Y-61010119D01*
X94705921Y-60997414D01*
X94702642Y-60984325D01*
X94700662Y-60970977D01*
X94700000Y-60957500D01*
X94700000Y-60682500D01*
X94700662Y-60669023D01*
X94702642Y-60655675D01*
X94705921Y-60642586D01*
X94710467Y-60629881D01*
X94716236Y-60617683D01*
X94723173Y-60606109D01*
X94731211Y-60595271D01*
X94740273Y-60585273D01*
X94750271Y-60576211D01*
X94761109Y-60568173D01*
X94772683Y-60561236D01*
X94784881Y-60555467D01*
X94797586Y-60550921D01*
X94810675Y-60547642D01*
X94824023Y-60545662D01*
X94837500Y-60545000D01*
X96162500Y-60545000D01*
X96175977Y-60545662D01*
X96175977Y-60545662D01*
G37*
D18*
G04 #@! TD*
G04 #@! TO.P,U2,3*
G04 #@! TO.N,Net-(R13-Pad2)*
X95500000Y-60820000D03*
D12*
G04 #@! TO.N,Net-(C9-Pad2)*
G04 #@! TO.C,U2*
G36*
X96175977Y-61815662D02*
X96189325Y-61817642D01*
X96202414Y-61820921D01*
X96215119Y-61825467D01*
X96227317Y-61831236D01*
X96238891Y-61838173D01*
X96249729Y-61846211D01*
X96259727Y-61855273D01*
X96268789Y-61865271D01*
X96276827Y-61876109D01*
X96283764Y-61887683D01*
X96289533Y-61899881D01*
X96294079Y-61912586D01*
X96297358Y-61925675D01*
X96299338Y-61939023D01*
X96300000Y-61952500D01*
X96300000Y-62227500D01*
X96299338Y-62240977D01*
X96297358Y-62254325D01*
X96294079Y-62267414D01*
X96289533Y-62280119D01*
X96283764Y-62292317D01*
X96276827Y-62303891D01*
X96268789Y-62314729D01*
X96259727Y-62324727D01*
X96249729Y-62333789D01*
X96238891Y-62341827D01*
X96227317Y-62348764D01*
X96215119Y-62354533D01*
X96202414Y-62359079D01*
X96189325Y-62362358D01*
X96175977Y-62364338D01*
X96162500Y-62365000D01*
X94837500Y-62365000D01*
X94824023Y-62364338D01*
X94810675Y-62362358D01*
X94797586Y-62359079D01*
X94784881Y-62354533D01*
X94772683Y-62348764D01*
X94761109Y-62341827D01*
X94750271Y-62333789D01*
X94740273Y-62324727D01*
X94731211Y-62314729D01*
X94723173Y-62303891D01*
X94716236Y-62292317D01*
X94710467Y-62280119D01*
X94705921Y-62267414D01*
X94702642Y-62254325D01*
X94700662Y-62240977D01*
X94700000Y-62227500D01*
X94700000Y-61952500D01*
X94700662Y-61939023D01*
X94702642Y-61925675D01*
X94705921Y-61912586D01*
X94710467Y-61899881D01*
X94716236Y-61887683D01*
X94723173Y-61876109D01*
X94731211Y-61865271D01*
X94740273Y-61855273D01*
X94750271Y-61846211D01*
X94761109Y-61838173D01*
X94772683Y-61831236D01*
X94784881Y-61825467D01*
X94797586Y-61820921D01*
X94810675Y-61817642D01*
X94824023Y-61815662D01*
X94837500Y-61815000D01*
X96162500Y-61815000D01*
X96175977Y-61815662D01*
X96175977Y-61815662D01*
G37*
D18*
G04 #@! TD*
G04 #@! TO.P,U2,4*
G04 #@! TO.N,Net-(C9-Pad2)*
X95500000Y-62090000D03*
D12*
G04 #@! TO.N,Net-(C8-Pad2)*
G04 #@! TO.C,U2*
G36*
X96175977Y-63085662D02*
X96189325Y-63087642D01*
X96202414Y-63090921D01*
X96215119Y-63095467D01*
X96227317Y-63101236D01*
X96238891Y-63108173D01*
X96249729Y-63116211D01*
X96259727Y-63125273D01*
X96268789Y-63135271D01*
X96276827Y-63146109D01*
X96283764Y-63157683D01*
X96289533Y-63169881D01*
X96294079Y-63182586D01*
X96297358Y-63195675D01*
X96299338Y-63209023D01*
X96300000Y-63222500D01*
X96300000Y-63497500D01*
X96299338Y-63510977D01*
X96297358Y-63524325D01*
X96294079Y-63537414D01*
X96289533Y-63550119D01*
X96283764Y-63562317D01*
X96276827Y-63573891D01*
X96268789Y-63584729D01*
X96259727Y-63594727D01*
X96249729Y-63603789D01*
X96238891Y-63611827D01*
X96227317Y-63618764D01*
X96215119Y-63624533D01*
X96202414Y-63629079D01*
X96189325Y-63632358D01*
X96175977Y-63634338D01*
X96162500Y-63635000D01*
X94837500Y-63635000D01*
X94824023Y-63634338D01*
X94810675Y-63632358D01*
X94797586Y-63629079D01*
X94784881Y-63624533D01*
X94772683Y-63618764D01*
X94761109Y-63611827D01*
X94750271Y-63603789D01*
X94740273Y-63594727D01*
X94731211Y-63584729D01*
X94723173Y-63573891D01*
X94716236Y-63562317D01*
X94710467Y-63550119D01*
X94705921Y-63537414D01*
X94702642Y-63524325D01*
X94700662Y-63510977D01*
X94700000Y-63497500D01*
X94700000Y-63222500D01*
X94700662Y-63209023D01*
X94702642Y-63195675D01*
X94705921Y-63182586D01*
X94710467Y-63169881D01*
X94716236Y-63157683D01*
X94723173Y-63146109D01*
X94731211Y-63135271D01*
X94740273Y-63125273D01*
X94750271Y-63116211D01*
X94761109Y-63108173D01*
X94772683Y-63101236D01*
X94784881Y-63095467D01*
X94797586Y-63090921D01*
X94810675Y-63087642D01*
X94824023Y-63085662D01*
X94837500Y-63085000D01*
X96162500Y-63085000D01*
X96175977Y-63085662D01*
X96175977Y-63085662D01*
G37*
D18*
G04 #@! TD*
G04 #@! TO.P,U2,5*
G04 #@! TO.N,Net-(C8-Pad2)*
X95500000Y-63360000D03*
D12*
G04 #@! TO.N,Net-(R14-Pad2)*
G04 #@! TO.C,U2*
G36*
X96175977Y-64355662D02*
X96189325Y-64357642D01*
X96202414Y-64360921D01*
X96215119Y-64365467D01*
X96227317Y-64371236D01*
X96238891Y-64378173D01*
X96249729Y-64386211D01*
X96259727Y-64395273D01*
X96268789Y-64405271D01*
X96276827Y-64416109D01*
X96283764Y-64427683D01*
X96289533Y-64439881D01*
X96294079Y-64452586D01*
X96297358Y-64465675D01*
X96299338Y-64479023D01*
X96300000Y-64492500D01*
X96300000Y-64767500D01*
X96299338Y-64780977D01*
X96297358Y-64794325D01*
X96294079Y-64807414D01*
X96289533Y-64820119D01*
X96283764Y-64832317D01*
X96276827Y-64843891D01*
X96268789Y-64854729D01*
X96259727Y-64864727D01*
X96249729Y-64873789D01*
X96238891Y-64881827D01*
X96227317Y-64888764D01*
X96215119Y-64894533D01*
X96202414Y-64899079D01*
X96189325Y-64902358D01*
X96175977Y-64904338D01*
X96162500Y-64905000D01*
X94837500Y-64905000D01*
X94824023Y-64904338D01*
X94810675Y-64902358D01*
X94797586Y-64899079D01*
X94784881Y-64894533D01*
X94772683Y-64888764D01*
X94761109Y-64881827D01*
X94750271Y-64873789D01*
X94740273Y-64864727D01*
X94731211Y-64854729D01*
X94723173Y-64843891D01*
X94716236Y-64832317D01*
X94710467Y-64820119D01*
X94705921Y-64807414D01*
X94702642Y-64794325D01*
X94700662Y-64780977D01*
X94700000Y-64767500D01*
X94700000Y-64492500D01*
X94700662Y-64479023D01*
X94702642Y-64465675D01*
X94705921Y-64452586D01*
X94710467Y-64439881D01*
X94716236Y-64427683D01*
X94723173Y-64416109D01*
X94731211Y-64405271D01*
X94740273Y-64395273D01*
X94750271Y-64386211D01*
X94761109Y-64378173D01*
X94772683Y-64371236D01*
X94784881Y-64365467D01*
X94797586Y-64360921D01*
X94810675Y-64357642D01*
X94824023Y-64355662D01*
X94837500Y-64355000D01*
X96162500Y-64355000D01*
X96175977Y-64355662D01*
X96175977Y-64355662D01*
G37*
D18*
G04 #@! TD*
G04 #@! TO.P,U2,6*
G04 #@! TO.N,Net-(R14-Pad2)*
X95500000Y-64630000D03*
D12*
G04 #@! TO.N,GND*
G04 #@! TO.C,U2*
G36*
X96175977Y-65625662D02*
X96189325Y-65627642D01*
X96202414Y-65630921D01*
X96215119Y-65635467D01*
X96227317Y-65641236D01*
X96238891Y-65648173D01*
X96249729Y-65656211D01*
X96259727Y-65665273D01*
X96268789Y-65675271D01*
X96276827Y-65686109D01*
X96283764Y-65697683D01*
X96289533Y-65709881D01*
X96294079Y-65722586D01*
X96297358Y-65735675D01*
X96299338Y-65749023D01*
X96300000Y-65762500D01*
X96300000Y-66037500D01*
X96299338Y-66050977D01*
X96297358Y-66064325D01*
X96294079Y-66077414D01*
X96289533Y-66090119D01*
X96283764Y-66102317D01*
X96276827Y-66113891D01*
X96268789Y-66124729D01*
X96259727Y-66134727D01*
X96249729Y-66143789D01*
X96238891Y-66151827D01*
X96227317Y-66158764D01*
X96215119Y-66164533D01*
X96202414Y-66169079D01*
X96189325Y-66172358D01*
X96175977Y-66174338D01*
X96162500Y-66175000D01*
X94837500Y-66175000D01*
X94824023Y-66174338D01*
X94810675Y-66172358D01*
X94797586Y-66169079D01*
X94784881Y-66164533D01*
X94772683Y-66158764D01*
X94761109Y-66151827D01*
X94750271Y-66143789D01*
X94740273Y-66134727D01*
X94731211Y-66124729D01*
X94723173Y-66113891D01*
X94716236Y-66102317D01*
X94710467Y-66090119D01*
X94705921Y-66077414D01*
X94702642Y-66064325D01*
X94700662Y-66050977D01*
X94700000Y-66037500D01*
X94700000Y-65762500D01*
X94700662Y-65749023D01*
X94702642Y-65735675D01*
X94705921Y-65722586D01*
X94710467Y-65709881D01*
X94716236Y-65697683D01*
X94723173Y-65686109D01*
X94731211Y-65675271D01*
X94740273Y-65665273D01*
X94750271Y-65656211D01*
X94761109Y-65648173D01*
X94772683Y-65641236D01*
X94784881Y-65635467D01*
X94797586Y-65630921D01*
X94810675Y-65627642D01*
X94824023Y-65625662D01*
X94837500Y-65625000D01*
X96162500Y-65625000D01*
X96175977Y-65625662D01*
X96175977Y-65625662D01*
G37*
D18*
G04 #@! TD*
G04 #@! TO.P,U2,7*
G04 #@! TO.N,GND*
X95500000Y-65900000D03*
D12*
G04 #@! TO.N,+3V3*
G04 #@! TO.C,U2*
G36*
X96175977Y-66895662D02*
X96189325Y-66897642D01*
X96202414Y-66900921D01*
X96215119Y-66905467D01*
X96227317Y-66911236D01*
X96238891Y-66918173D01*
X96249729Y-66926211D01*
X96259727Y-66935273D01*
X96268789Y-66945271D01*
X96276827Y-66956109D01*
X96283764Y-66967683D01*
X96289533Y-66979881D01*
X96294079Y-66992586D01*
X96297358Y-67005675D01*
X96299338Y-67019023D01*
X96300000Y-67032500D01*
X96300000Y-67307500D01*
X96299338Y-67320977D01*
X96297358Y-67334325D01*
X96294079Y-67347414D01*
X96289533Y-67360119D01*
X96283764Y-67372317D01*
X96276827Y-67383891D01*
X96268789Y-67394729D01*
X96259727Y-67404727D01*
X96249729Y-67413789D01*
X96238891Y-67421827D01*
X96227317Y-67428764D01*
X96215119Y-67434533D01*
X96202414Y-67439079D01*
X96189325Y-67442358D01*
X96175977Y-67444338D01*
X96162500Y-67445000D01*
X94837500Y-67445000D01*
X94824023Y-67444338D01*
X94810675Y-67442358D01*
X94797586Y-67439079D01*
X94784881Y-67434533D01*
X94772683Y-67428764D01*
X94761109Y-67421827D01*
X94750271Y-67413789D01*
X94740273Y-67404727D01*
X94731211Y-67394729D01*
X94723173Y-67383891D01*
X94716236Y-67372317D01*
X94710467Y-67360119D01*
X94705921Y-67347414D01*
X94702642Y-67334325D01*
X94700662Y-67320977D01*
X94700000Y-67307500D01*
X94700000Y-67032500D01*
X94700662Y-67019023D01*
X94702642Y-67005675D01*
X94705921Y-66992586D01*
X94710467Y-66979881D01*
X94716236Y-66967683D01*
X94723173Y-66956109D01*
X94731211Y-66945271D01*
X94740273Y-66935273D01*
X94750271Y-66926211D01*
X94761109Y-66918173D01*
X94772683Y-66911236D01*
X94784881Y-66905467D01*
X94797586Y-66900921D01*
X94810675Y-66897642D01*
X94824023Y-66895662D01*
X94837500Y-66895000D01*
X96162500Y-66895000D01*
X96175977Y-66895662D01*
X96175977Y-66895662D01*
G37*
D18*
G04 #@! TD*
G04 #@! TO.P,U2,8*
G04 #@! TO.N,+3V3*
X95500000Y-67170000D03*
D12*
G04 #@! TO.N,Net-(R5-Pad2)*
G04 #@! TO.C,U2*
G36*
X101475977Y-66895662D02*
X101489325Y-66897642D01*
X101502414Y-66900921D01*
X101515119Y-66905467D01*
X101527317Y-66911236D01*
X101538891Y-66918173D01*
X101549729Y-66926211D01*
X101559727Y-66935273D01*
X101568789Y-66945271D01*
X101576827Y-66956109D01*
X101583764Y-66967683D01*
X101589533Y-66979881D01*
X101594079Y-66992586D01*
X101597358Y-67005675D01*
X101599338Y-67019023D01*
X101600000Y-67032500D01*
X101600000Y-67307500D01*
X101599338Y-67320977D01*
X101597358Y-67334325D01*
X101594079Y-67347414D01*
X101589533Y-67360119D01*
X101583764Y-67372317D01*
X101576827Y-67383891D01*
X101568789Y-67394729D01*
X101559727Y-67404727D01*
X101549729Y-67413789D01*
X101538891Y-67421827D01*
X101527317Y-67428764D01*
X101515119Y-67434533D01*
X101502414Y-67439079D01*
X101489325Y-67442358D01*
X101475977Y-67444338D01*
X101462500Y-67445000D01*
X100137500Y-67445000D01*
X100124023Y-67444338D01*
X100110675Y-67442358D01*
X100097586Y-67439079D01*
X100084881Y-67434533D01*
X100072683Y-67428764D01*
X100061109Y-67421827D01*
X100050271Y-67413789D01*
X100040273Y-67404727D01*
X100031211Y-67394729D01*
X100023173Y-67383891D01*
X100016236Y-67372317D01*
X100010467Y-67360119D01*
X100005921Y-67347414D01*
X100002642Y-67334325D01*
X100000662Y-67320977D01*
X100000000Y-67307500D01*
X100000000Y-67032500D01*
X100000662Y-67019023D01*
X100002642Y-67005675D01*
X100005921Y-66992586D01*
X100010467Y-66979881D01*
X100016236Y-66967683D01*
X100023173Y-66956109D01*
X100031211Y-66945271D01*
X100040273Y-66935273D01*
X100050271Y-66926211D01*
X100061109Y-66918173D01*
X100072683Y-66911236D01*
X100084881Y-66905467D01*
X100097586Y-66900921D01*
X100110675Y-66897642D01*
X100124023Y-66895662D01*
X100137500Y-66895000D01*
X101462500Y-66895000D01*
X101475977Y-66895662D01*
X101475977Y-66895662D01*
G37*
D18*
G04 #@! TD*
G04 #@! TO.P,U2,9*
G04 #@! TO.N,Net-(R5-Pad2)*
X100800000Y-67170000D03*
D12*
G04 #@! TO.N,Net-(R7-Pad1)*
G04 #@! TO.C,U2*
G36*
X101475977Y-65625662D02*
X101489325Y-65627642D01*
X101502414Y-65630921D01*
X101515119Y-65635467D01*
X101527317Y-65641236D01*
X101538891Y-65648173D01*
X101549729Y-65656211D01*
X101559727Y-65665273D01*
X101568789Y-65675271D01*
X101576827Y-65686109D01*
X101583764Y-65697683D01*
X101589533Y-65709881D01*
X101594079Y-65722586D01*
X101597358Y-65735675D01*
X101599338Y-65749023D01*
X101600000Y-65762500D01*
X101600000Y-66037500D01*
X101599338Y-66050977D01*
X101597358Y-66064325D01*
X101594079Y-66077414D01*
X101589533Y-66090119D01*
X101583764Y-66102317D01*
X101576827Y-66113891D01*
X101568789Y-66124729D01*
X101559727Y-66134727D01*
X101549729Y-66143789D01*
X101538891Y-66151827D01*
X101527317Y-66158764D01*
X101515119Y-66164533D01*
X101502414Y-66169079D01*
X101489325Y-66172358D01*
X101475977Y-66174338D01*
X101462500Y-66175000D01*
X100137500Y-66175000D01*
X100124023Y-66174338D01*
X100110675Y-66172358D01*
X100097586Y-66169079D01*
X100084881Y-66164533D01*
X100072683Y-66158764D01*
X100061109Y-66151827D01*
X100050271Y-66143789D01*
X100040273Y-66134727D01*
X100031211Y-66124729D01*
X100023173Y-66113891D01*
X100016236Y-66102317D01*
X100010467Y-66090119D01*
X100005921Y-66077414D01*
X100002642Y-66064325D01*
X100000662Y-66050977D01*
X100000000Y-66037500D01*
X100000000Y-65762500D01*
X100000662Y-65749023D01*
X100002642Y-65735675D01*
X100005921Y-65722586D01*
X100010467Y-65709881D01*
X100016236Y-65697683D01*
X100023173Y-65686109D01*
X100031211Y-65675271D01*
X100040273Y-65665273D01*
X100050271Y-65656211D01*
X100061109Y-65648173D01*
X100072683Y-65641236D01*
X100084881Y-65635467D01*
X100097586Y-65630921D01*
X100110675Y-65627642D01*
X100124023Y-65625662D01*
X100137500Y-65625000D01*
X101462500Y-65625000D01*
X101475977Y-65625662D01*
X101475977Y-65625662D01*
G37*
D18*
G04 #@! TD*
G04 #@! TO.P,U2,10*
G04 #@! TO.N,Net-(R7-Pad1)*
X100800000Y-65900000D03*
D12*
G04 #@! TO.N,+3V3*
G04 #@! TO.C,U2*
G36*
X101475977Y-64355662D02*
X101489325Y-64357642D01*
X101502414Y-64360921D01*
X101515119Y-64365467D01*
X101527317Y-64371236D01*
X101538891Y-64378173D01*
X101549729Y-64386211D01*
X101559727Y-64395273D01*
X101568789Y-64405271D01*
X101576827Y-64416109D01*
X101583764Y-64427683D01*
X101589533Y-64439881D01*
X101594079Y-64452586D01*
X101597358Y-64465675D01*
X101599338Y-64479023D01*
X101600000Y-64492500D01*
X101600000Y-64767500D01*
X101599338Y-64780977D01*
X101597358Y-64794325D01*
X101594079Y-64807414D01*
X101589533Y-64820119D01*
X101583764Y-64832317D01*
X101576827Y-64843891D01*
X101568789Y-64854729D01*
X101559727Y-64864727D01*
X101549729Y-64873789D01*
X101538891Y-64881827D01*
X101527317Y-64888764D01*
X101515119Y-64894533D01*
X101502414Y-64899079D01*
X101489325Y-64902358D01*
X101475977Y-64904338D01*
X101462500Y-64905000D01*
X100137500Y-64905000D01*
X100124023Y-64904338D01*
X100110675Y-64902358D01*
X100097586Y-64899079D01*
X100084881Y-64894533D01*
X100072683Y-64888764D01*
X100061109Y-64881827D01*
X100050271Y-64873789D01*
X100040273Y-64864727D01*
X100031211Y-64854729D01*
X100023173Y-64843891D01*
X100016236Y-64832317D01*
X100010467Y-64820119D01*
X100005921Y-64807414D01*
X100002642Y-64794325D01*
X100000662Y-64780977D01*
X100000000Y-64767500D01*
X100000000Y-64492500D01*
X100000662Y-64479023D01*
X100002642Y-64465675D01*
X100005921Y-64452586D01*
X100010467Y-64439881D01*
X100016236Y-64427683D01*
X100023173Y-64416109D01*
X100031211Y-64405271D01*
X100040273Y-64395273D01*
X100050271Y-64386211D01*
X100061109Y-64378173D01*
X100072683Y-64371236D01*
X100084881Y-64365467D01*
X100097586Y-64360921D01*
X100110675Y-64357642D01*
X100124023Y-64355662D01*
X100137500Y-64355000D01*
X101462500Y-64355000D01*
X101475977Y-64355662D01*
X101475977Y-64355662D01*
G37*
D18*
G04 #@! TD*
G04 #@! TO.P,U2,11*
G04 #@! TO.N,+3V3*
X100800000Y-64630000D03*
D12*
G04 #@! TO.N,Net-(C7-Pad2)*
G04 #@! TO.C,U2*
G36*
X101475977Y-63085662D02*
X101489325Y-63087642D01*
X101502414Y-63090921D01*
X101515119Y-63095467D01*
X101527317Y-63101236D01*
X101538891Y-63108173D01*
X101549729Y-63116211D01*
X101559727Y-63125273D01*
X101568789Y-63135271D01*
X101576827Y-63146109D01*
X101583764Y-63157683D01*
X101589533Y-63169881D01*
X101594079Y-63182586D01*
X101597358Y-63195675D01*
X101599338Y-63209023D01*
X101600000Y-63222500D01*
X101600000Y-63497500D01*
X101599338Y-63510977D01*
X101597358Y-63524325D01*
X101594079Y-63537414D01*
X101589533Y-63550119D01*
X101583764Y-63562317D01*
X101576827Y-63573891D01*
X101568789Y-63584729D01*
X101559727Y-63594727D01*
X101549729Y-63603789D01*
X101538891Y-63611827D01*
X101527317Y-63618764D01*
X101515119Y-63624533D01*
X101502414Y-63629079D01*
X101489325Y-63632358D01*
X101475977Y-63634338D01*
X101462500Y-63635000D01*
X100137500Y-63635000D01*
X100124023Y-63634338D01*
X100110675Y-63632358D01*
X100097586Y-63629079D01*
X100084881Y-63624533D01*
X100072683Y-63618764D01*
X100061109Y-63611827D01*
X100050271Y-63603789D01*
X100040273Y-63594727D01*
X100031211Y-63584729D01*
X100023173Y-63573891D01*
X100016236Y-63562317D01*
X100010467Y-63550119D01*
X100005921Y-63537414D01*
X100002642Y-63524325D01*
X100000662Y-63510977D01*
X100000000Y-63497500D01*
X100000000Y-63222500D01*
X100000662Y-63209023D01*
X100002642Y-63195675D01*
X100005921Y-63182586D01*
X100010467Y-63169881D01*
X100016236Y-63157683D01*
X100023173Y-63146109D01*
X100031211Y-63135271D01*
X100040273Y-63125273D01*
X100050271Y-63116211D01*
X100061109Y-63108173D01*
X100072683Y-63101236D01*
X100084881Y-63095467D01*
X100097586Y-63090921D01*
X100110675Y-63087642D01*
X100124023Y-63085662D01*
X100137500Y-63085000D01*
X101462500Y-63085000D01*
X101475977Y-63085662D01*
X101475977Y-63085662D01*
G37*
D18*
G04 #@! TD*
G04 #@! TO.P,U2,12*
G04 #@! TO.N,Net-(C7-Pad2)*
X100800000Y-63360000D03*
D12*
G04 #@! TO.N,Net-(C7-Pad1)*
G04 #@! TO.C,U2*
G36*
X101475977Y-61815662D02*
X101489325Y-61817642D01*
X101502414Y-61820921D01*
X101515119Y-61825467D01*
X101527317Y-61831236D01*
X101538891Y-61838173D01*
X101549729Y-61846211D01*
X101559727Y-61855273D01*
X101568789Y-61865271D01*
X101576827Y-61876109D01*
X101583764Y-61887683D01*
X101589533Y-61899881D01*
X101594079Y-61912586D01*
X101597358Y-61925675D01*
X101599338Y-61939023D01*
X101600000Y-61952500D01*
X101600000Y-62227500D01*
X101599338Y-62240977D01*
X101597358Y-62254325D01*
X101594079Y-62267414D01*
X101589533Y-62280119D01*
X101583764Y-62292317D01*
X101576827Y-62303891D01*
X101568789Y-62314729D01*
X101559727Y-62324727D01*
X101549729Y-62333789D01*
X101538891Y-62341827D01*
X101527317Y-62348764D01*
X101515119Y-62354533D01*
X101502414Y-62359079D01*
X101489325Y-62362358D01*
X101475977Y-62364338D01*
X101462500Y-62365000D01*
X100137500Y-62365000D01*
X100124023Y-62364338D01*
X100110675Y-62362358D01*
X100097586Y-62359079D01*
X100084881Y-62354533D01*
X100072683Y-62348764D01*
X100061109Y-62341827D01*
X100050271Y-62333789D01*
X100040273Y-62324727D01*
X100031211Y-62314729D01*
X100023173Y-62303891D01*
X100016236Y-62292317D01*
X100010467Y-62280119D01*
X100005921Y-62267414D01*
X100002642Y-62254325D01*
X100000662Y-62240977D01*
X100000000Y-62227500D01*
X100000000Y-61952500D01*
X100000662Y-61939023D01*
X100002642Y-61925675D01*
X100005921Y-61912586D01*
X100010467Y-61899881D01*
X100016236Y-61887683D01*
X100023173Y-61876109D01*
X100031211Y-61865271D01*
X100040273Y-61855273D01*
X100050271Y-61846211D01*
X100061109Y-61838173D01*
X100072683Y-61831236D01*
X100084881Y-61825467D01*
X100097586Y-61820921D01*
X100110675Y-61817642D01*
X100124023Y-61815662D01*
X100137500Y-61815000D01*
X101462500Y-61815000D01*
X101475977Y-61815662D01*
X101475977Y-61815662D01*
G37*
D18*
G04 #@! TD*
G04 #@! TO.P,U2,13*
G04 #@! TO.N,Net-(C7-Pad1)*
X100800000Y-62090000D03*
D12*
G04 #@! TO.N,Net-(R4-Pad1)*
G04 #@! TO.C,U2*
G36*
X101475977Y-60545662D02*
X101489325Y-60547642D01*
X101502414Y-60550921D01*
X101515119Y-60555467D01*
X101527317Y-60561236D01*
X101538891Y-60568173D01*
X101549729Y-60576211D01*
X101559727Y-60585273D01*
X101568789Y-60595271D01*
X101576827Y-60606109D01*
X101583764Y-60617683D01*
X101589533Y-60629881D01*
X101594079Y-60642586D01*
X101597358Y-60655675D01*
X101599338Y-60669023D01*
X101600000Y-60682500D01*
X101600000Y-60957500D01*
X101599338Y-60970977D01*
X101597358Y-60984325D01*
X101594079Y-60997414D01*
X101589533Y-61010119D01*
X101583764Y-61022317D01*
X101576827Y-61033891D01*
X101568789Y-61044729D01*
X101559727Y-61054727D01*
X101549729Y-61063789D01*
X101538891Y-61071827D01*
X101527317Y-61078764D01*
X101515119Y-61084533D01*
X101502414Y-61089079D01*
X101489325Y-61092358D01*
X101475977Y-61094338D01*
X101462500Y-61095000D01*
X100137500Y-61095000D01*
X100124023Y-61094338D01*
X100110675Y-61092358D01*
X100097586Y-61089079D01*
X100084881Y-61084533D01*
X100072683Y-61078764D01*
X100061109Y-61071827D01*
X100050271Y-61063789D01*
X100040273Y-61054727D01*
X100031211Y-61044729D01*
X100023173Y-61033891D01*
X100016236Y-61022317D01*
X100010467Y-61010119D01*
X100005921Y-60997414D01*
X100002642Y-60984325D01*
X100000662Y-60970977D01*
X100000000Y-60957500D01*
X100000000Y-60682500D01*
X100000662Y-60669023D01*
X100002642Y-60655675D01*
X100005921Y-60642586D01*
X100010467Y-60629881D01*
X100016236Y-60617683D01*
X100023173Y-60606109D01*
X100031211Y-60595271D01*
X100040273Y-60585273D01*
X100050271Y-60576211D01*
X100061109Y-60568173D01*
X100072683Y-60561236D01*
X100084881Y-60555467D01*
X100097586Y-60550921D01*
X100110675Y-60547642D01*
X100124023Y-60545662D01*
X100137500Y-60545000D01*
X101462500Y-60545000D01*
X101475977Y-60545662D01*
X101475977Y-60545662D01*
G37*
D18*
G04 #@! TD*
G04 #@! TO.P,U2,14*
G04 #@! TO.N,Net-(R4-Pad1)*
X100800000Y-60820000D03*
D12*
G04 #@! TO.N,Net-(C4-Pad2)*
G04 #@! TO.C,U2*
G36*
X101475977Y-59275662D02*
X101489325Y-59277642D01*
X101502414Y-59280921D01*
X101515119Y-59285467D01*
X101527317Y-59291236D01*
X101538891Y-59298173D01*
X101549729Y-59306211D01*
X101559727Y-59315273D01*
X101568789Y-59325271D01*
X101576827Y-59336109D01*
X101583764Y-59347683D01*
X101589533Y-59359881D01*
X101594079Y-59372586D01*
X101597358Y-59385675D01*
X101599338Y-59399023D01*
X101600000Y-59412500D01*
X101600000Y-59687500D01*
X101599338Y-59700977D01*
X101597358Y-59714325D01*
X101594079Y-59727414D01*
X101589533Y-59740119D01*
X101583764Y-59752317D01*
X101576827Y-59763891D01*
X101568789Y-59774729D01*
X101559727Y-59784727D01*
X101549729Y-59793789D01*
X101538891Y-59801827D01*
X101527317Y-59808764D01*
X101515119Y-59814533D01*
X101502414Y-59819079D01*
X101489325Y-59822358D01*
X101475977Y-59824338D01*
X101462500Y-59825000D01*
X100137500Y-59825000D01*
X100124023Y-59824338D01*
X100110675Y-59822358D01*
X100097586Y-59819079D01*
X100084881Y-59814533D01*
X100072683Y-59808764D01*
X100061109Y-59801827D01*
X100050271Y-59793789D01*
X100040273Y-59784727D01*
X100031211Y-59774729D01*
X100023173Y-59763891D01*
X100016236Y-59752317D01*
X100010467Y-59740119D01*
X100005921Y-59727414D01*
X100002642Y-59714325D01*
X100000662Y-59700977D01*
X100000000Y-59687500D01*
X100000000Y-59412500D01*
X100000662Y-59399023D01*
X100002642Y-59385675D01*
X100005921Y-59372586D01*
X100010467Y-59359881D01*
X100016236Y-59347683D01*
X100023173Y-59336109D01*
X100031211Y-59325271D01*
X100040273Y-59315273D01*
X100050271Y-59306211D01*
X100061109Y-59298173D01*
X100072683Y-59291236D01*
X100084881Y-59285467D01*
X100097586Y-59280921D01*
X100110675Y-59277642D01*
X100124023Y-59275662D01*
X100137500Y-59275000D01*
X101462500Y-59275000D01*
X101475977Y-59275662D01*
X101475977Y-59275662D01*
G37*
D18*
G04 #@! TD*
G04 #@! TO.P,U2,15*
G04 #@! TO.N,Net-(C4-Pad2)*
X100800000Y-59550000D03*
D12*
G04 #@! TO.N,Net-(C4-Pad1)*
G04 #@! TO.C,U2*
G36*
X101475977Y-58005662D02*
X101489325Y-58007642D01*
X101502414Y-58010921D01*
X101515119Y-58015467D01*
X101527317Y-58021236D01*
X101538891Y-58028173D01*
X101549729Y-58036211D01*
X101559727Y-58045273D01*
X101568789Y-58055271D01*
X101576827Y-58066109D01*
X101583764Y-58077683D01*
X101589533Y-58089881D01*
X101594079Y-58102586D01*
X101597358Y-58115675D01*
X101599338Y-58129023D01*
X101600000Y-58142500D01*
X101600000Y-58417500D01*
X101599338Y-58430977D01*
X101597358Y-58444325D01*
X101594079Y-58457414D01*
X101589533Y-58470119D01*
X101583764Y-58482317D01*
X101576827Y-58493891D01*
X101568789Y-58504729D01*
X101559727Y-58514727D01*
X101549729Y-58523789D01*
X101538891Y-58531827D01*
X101527317Y-58538764D01*
X101515119Y-58544533D01*
X101502414Y-58549079D01*
X101489325Y-58552358D01*
X101475977Y-58554338D01*
X101462500Y-58555000D01*
X100137500Y-58555000D01*
X100124023Y-58554338D01*
X100110675Y-58552358D01*
X100097586Y-58549079D01*
X100084881Y-58544533D01*
X100072683Y-58538764D01*
X100061109Y-58531827D01*
X100050271Y-58523789D01*
X100040273Y-58514727D01*
X100031211Y-58504729D01*
X100023173Y-58493891D01*
X100016236Y-58482317D01*
X100010467Y-58470119D01*
X100005921Y-58457414D01*
X100002642Y-58444325D01*
X100000662Y-58430977D01*
X100000000Y-58417500D01*
X100000000Y-58142500D01*
X100000662Y-58129023D01*
X100002642Y-58115675D01*
X100005921Y-58102586D01*
X100010467Y-58089881D01*
X100016236Y-58077683D01*
X100023173Y-58066109D01*
X100031211Y-58055271D01*
X100040273Y-58045273D01*
X100050271Y-58036211D01*
X100061109Y-58028173D01*
X100072683Y-58021236D01*
X100084881Y-58015467D01*
X100097586Y-58010921D01*
X100110675Y-58007642D01*
X100124023Y-58005662D01*
X100137500Y-58005000D01*
X101462500Y-58005000D01*
X101475977Y-58005662D01*
X101475977Y-58005662D01*
G37*
D18*
G04 #@! TD*
G04 #@! TO.P,U2,16*
G04 #@! TO.N,Net-(C4-Pad1)*
X100800000Y-58280000D03*
D19*
G04 #@! TO.P,U3,2*
G04 #@! TO.N,Net-(J2-Pad1)*
X87375000Y-52041500D03*
D12*
G04 #@! TD*
G04 #@! TO.N,Net-(J2-Pad1)*
G04 #@! TO.C,U3*
G36*
X86275000Y-52466500D02*
X86875000Y-51616500D01*
X87875000Y-51616500D01*
X88475000Y-52466500D01*
X86275000Y-52466500D01*
X86275000Y-52466500D01*
G37*
D20*
G04 #@! TO.P,U3,1*
G04 #@! TO.N,GND*
X85875000Y-56188500D03*
D21*
G04 #@! TO.P,U3,2*
G04 #@! TO.N,Net-(J2-Pad1)*
X87375000Y-56042000D03*
D20*
G04 #@! TO.P,U3,3*
G04 #@! TO.N,+3V3*
X88875000Y-56188500D03*
D22*
G04 #@! TO.P,U3,2*
G04 #@! TO.N,Net-(J2-Pad1)*
X87375000Y-53375000D03*
D23*
X87375000Y-54784700D03*
D12*
G04 #@! TD*
G04 #@! TO.N,Net-(J2-Pad1)*
G04 #@! TO.C,U3*
G36*
X88475000Y-54284700D02*
X87775000Y-55284700D01*
X86975000Y-55284700D01*
X86275000Y-54284700D01*
X88475000Y-54284700D01*
X88475000Y-54284700D01*
G37*
G04 #@! TO.N,+3V3*
G04 #@! TO.C,R5*
G36*
X104827691Y-68076053D02*
X104848926Y-68079203D01*
X104869750Y-68084419D01*
X104889962Y-68091651D01*
X104909368Y-68100830D01*
X104927781Y-68111866D01*
X104945024Y-68124654D01*
X104960930Y-68139070D01*
X104975346Y-68154976D01*
X104988134Y-68172219D01*
X104999170Y-68190632D01*
X105008349Y-68210038D01*
X105015581Y-68230250D01*
X105020797Y-68251074D01*
X105023947Y-68272309D01*
X105025000Y-68293750D01*
X105025000Y-68806250D01*
X105023947Y-68827691D01*
X105020797Y-68848926D01*
X105015581Y-68869750D01*
X105008349Y-68889962D01*
X104999170Y-68909368D01*
X104988134Y-68927781D01*
X104975346Y-68945024D01*
X104960930Y-68960930D01*
X104945024Y-68975346D01*
X104927781Y-68988134D01*
X104909368Y-68999170D01*
X104889962Y-69008349D01*
X104869750Y-69015581D01*
X104848926Y-69020797D01*
X104827691Y-69023947D01*
X104806250Y-69025000D01*
X104368750Y-69025000D01*
X104347309Y-69023947D01*
X104326074Y-69020797D01*
X104305250Y-69015581D01*
X104285038Y-69008349D01*
X104265632Y-68999170D01*
X104247219Y-68988134D01*
X104229976Y-68975346D01*
X104214070Y-68960930D01*
X104199654Y-68945024D01*
X104186866Y-68927781D01*
X104175830Y-68909368D01*
X104166651Y-68889962D01*
X104159419Y-68869750D01*
X104154203Y-68848926D01*
X104151053Y-68827691D01*
X104150000Y-68806250D01*
X104150000Y-68293750D01*
X104151053Y-68272309D01*
X104154203Y-68251074D01*
X104159419Y-68230250D01*
X104166651Y-68210038D01*
X104175830Y-68190632D01*
X104186866Y-68172219D01*
X104199654Y-68154976D01*
X104214070Y-68139070D01*
X104229976Y-68124654D01*
X104247219Y-68111866D01*
X104265632Y-68100830D01*
X104285038Y-68091651D01*
X104305250Y-68084419D01*
X104326074Y-68079203D01*
X104347309Y-68076053D01*
X104368750Y-68075000D01*
X104806250Y-68075000D01*
X104827691Y-68076053D01*
X104827691Y-68076053D01*
G37*
D13*
G04 #@! TD*
G04 #@! TO.P,R5,1*
G04 #@! TO.N,+3V3*
X104587500Y-68550000D03*
D12*
G04 #@! TO.N,Net-(R5-Pad2)*
G04 #@! TO.C,R5*
G36*
X103252691Y-68076053D02*
X103273926Y-68079203D01*
X103294750Y-68084419D01*
X103314962Y-68091651D01*
X103334368Y-68100830D01*
X103352781Y-68111866D01*
X103370024Y-68124654D01*
X103385930Y-68139070D01*
X103400346Y-68154976D01*
X103413134Y-68172219D01*
X103424170Y-68190632D01*
X103433349Y-68210038D01*
X103440581Y-68230250D01*
X103445797Y-68251074D01*
X103448947Y-68272309D01*
X103450000Y-68293750D01*
X103450000Y-68806250D01*
X103448947Y-68827691D01*
X103445797Y-68848926D01*
X103440581Y-68869750D01*
X103433349Y-68889962D01*
X103424170Y-68909368D01*
X103413134Y-68927781D01*
X103400346Y-68945024D01*
X103385930Y-68960930D01*
X103370024Y-68975346D01*
X103352781Y-68988134D01*
X103334368Y-68999170D01*
X103314962Y-69008349D01*
X103294750Y-69015581D01*
X103273926Y-69020797D01*
X103252691Y-69023947D01*
X103231250Y-69025000D01*
X102793750Y-69025000D01*
X102772309Y-69023947D01*
X102751074Y-69020797D01*
X102730250Y-69015581D01*
X102710038Y-69008349D01*
X102690632Y-68999170D01*
X102672219Y-68988134D01*
X102654976Y-68975346D01*
X102639070Y-68960930D01*
X102624654Y-68945024D01*
X102611866Y-68927781D01*
X102600830Y-68909368D01*
X102591651Y-68889962D01*
X102584419Y-68869750D01*
X102579203Y-68848926D01*
X102576053Y-68827691D01*
X102575000Y-68806250D01*
X102575000Y-68293750D01*
X102576053Y-68272309D01*
X102579203Y-68251074D01*
X102584419Y-68230250D01*
X102591651Y-68210038D01*
X102600830Y-68190632D01*
X102611866Y-68172219D01*
X102624654Y-68154976D01*
X102639070Y-68139070D01*
X102654976Y-68124654D01*
X102672219Y-68111866D01*
X102690632Y-68100830D01*
X102710038Y-68091651D01*
X102730250Y-68084419D01*
X102751074Y-68079203D01*
X102772309Y-68076053D01*
X102793750Y-68075000D01*
X103231250Y-68075000D01*
X103252691Y-68076053D01*
X103252691Y-68076053D01*
G37*
D13*
G04 #@! TD*
G04 #@! TO.P,R5,2*
G04 #@! TO.N,Net-(R5-Pad2)*
X103012500Y-68550000D03*
D24*
G04 #@! TO.P,RV1,3*
G04 #@! TO.N,Net-(R12-Pad2)*
X88375000Y-71050000D03*
D25*
G04 #@! TO.P,RV1,1*
G04 #@! TO.N,Net-(C7-Pad2)*
X93375000Y-71050000D03*
D24*
G04 #@! TO.P,RV1,2*
X90875000Y-68550000D03*
G04 #@! TD*
G04 #@! TO.P,RV2,2*
G04 #@! TO.N,Net-(C9-Pad2)*
X83775000Y-68550000D03*
D25*
G04 #@! TO.P,RV2,1*
X86275000Y-71050000D03*
D24*
G04 #@! TO.P,RV2,3*
G04 #@! TO.N,Net-(R13-Pad1)*
X81275000Y-71050000D03*
G04 #@! TD*
D26*
G04 #@! TO.N,Net-(C2-Pad1)*
X84150000Y-64050000D03*
G04 #@! TO.N,Net-(C4-Pad1)*
X98975000Y-58525000D03*
G04 #@! TO.N,Net-(C7-Pad2)*
X99150000Y-63400000D03*
G04 #@! TO.N,Net-(C9-Pad2)*
X85775000Y-66750000D03*
G04 #@! TO.N,+3V3*
X78200000Y-65625000D03*
X87350000Y-74350000D03*
G04 #@! TO.N,Net-(J1-Pad2)*
X97275000Y-58375000D03*
G04 #@! TO.N,Net-(R5-Pad2)*
X99125000Y-67250000D03*
G04 #@! TO.N,Net-(R12-Pad2)*
X106100000Y-62100000D03*
G04 #@! TO.N,Net-(R13-Pad1)*
X81075000Y-67275010D03*
G04 #@! TO.N,Net-(R13-Pad2)*
X97100000Y-60575000D03*
X84125000Y-65850000D03*
G04 #@! TO.N,Net-(R15-Pad2)*
X93775000Y-59600000D03*
X84250000Y-58275000D03*
G04 #@! TD*
D27*
G04 #@! TO.N,GND*
X84588500Y-56188500D02*
X82775000Y-54375000D01*
X85875000Y-56188500D02*
X84588500Y-56188500D01*
X91800000Y-58062500D02*
X92300000Y-58562500D01*
X91800000Y-54400000D02*
X91800000Y-58062500D01*
X91800000Y-55862500D02*
X89162500Y-58500000D01*
X91800000Y-54400000D02*
X91800000Y-55862500D01*
X81975001Y-53575001D02*
X82775000Y-54375000D01*
X70774999Y-56705999D02*
X75605999Y-51874999D01*
X80274999Y-51874999D02*
X81975001Y-53575001D01*
X70774999Y-63639999D02*
X70774999Y-56705999D01*
X75605999Y-51874999D02*
X80274999Y-51874999D01*
X72125000Y-64990000D02*
X70774999Y-63639999D01*
X89905000Y-62830000D02*
X89905000Y-62425000D01*
X91975000Y-64900000D02*
X89905000Y-62830000D01*
X92975000Y-65900000D02*
X95500000Y-65900000D01*
X91975000Y-64900000D02*
X92975000Y-65900000D01*
X91025000Y-65850000D02*
X91975000Y-64900000D01*
X88975000Y-65850000D02*
X91025000Y-65850000D01*
X105525010Y-67337510D02*
X105525010Y-69103972D01*
X105137500Y-66950000D02*
X105525010Y-67337510D01*
X104600000Y-66950000D02*
X105137500Y-66950000D01*
X74174999Y-75124999D02*
X73375000Y-74325000D01*
X74300001Y-75250001D02*
X74174999Y-75124999D01*
X96819001Y-75250001D02*
X74300001Y-75250001D01*
X101743982Y-70325020D02*
X96819001Y-75250001D01*
X104303962Y-70325020D02*
X101743982Y-70325020D01*
X105525010Y-69103972D02*
X104303962Y-70325020D01*
D28*
G04 #@! TO.N,Net-(C1-Pad1)*
X90712500Y-58525000D02*
X90737500Y-58500000D01*
X92262500Y-60100000D02*
X92300000Y-60137500D01*
X88922500Y-59885000D02*
X89137500Y-60100000D01*
X87365000Y-59885000D02*
X88922500Y-59885000D01*
X89137500Y-60100000D02*
X90737500Y-58500000D01*
X90737500Y-58575000D02*
X92300000Y-60137500D01*
X90737500Y-58500000D02*
X90737500Y-58575000D01*
G04 #@! TO.N,Net-(C2-Pad1)*
X81075000Y-64050000D02*
X82725000Y-64050000D01*
X82725000Y-64050000D02*
X84150000Y-64050000D01*
G04 #@! TO.N,Net-(C3-Pad1)*
X95350000Y-54400000D02*
X94300000Y-54400000D01*
X98425000Y-57475000D02*
X95350000Y-54400000D01*
X104900000Y-57475000D02*
X98425000Y-57475000D01*
X105750000Y-58325000D02*
X104900000Y-57475000D01*
G04 #@! TO.N,Net-(C4-Pad2)*
X102700000Y-59900000D02*
X104400000Y-59900000D01*
X104400000Y-59900000D02*
X106075000Y-59900000D01*
X102350000Y-59550000D02*
X102700000Y-59900000D01*
X100800000Y-59550000D02*
X102350000Y-59550000D01*
G04 #@! TO.N,Net-(C4-Pad1)*
X102630000Y-58255000D02*
X102700000Y-58325000D01*
X100800000Y-58280000D02*
X102930000Y-58280000D01*
X104400000Y-58325000D02*
X102700000Y-58325000D01*
X100800000Y-58280000D02*
X99220000Y-58280000D01*
X99220000Y-58280000D02*
X98975000Y-58525000D01*
G04 #@! TO.N,Net-(C5-Pad1)*
X103875000Y-73887500D02*
X103875000Y-74500000D01*
X104425000Y-74500000D02*
X103875000Y-74500000D01*
X104350000Y-74500000D02*
X103875000Y-74500000D01*
X104437500Y-74100000D02*
X104025000Y-74100000D01*
X106150000Y-72387500D02*
X104437500Y-74100000D01*
X106611612Y-71925888D02*
X106150000Y-72387500D01*
X106950010Y-71587490D02*
X106611612Y-71925888D01*
X106950010Y-64612510D02*
X106950010Y-71587490D01*
X106075000Y-63737500D02*
X106950010Y-64612510D01*
G04 #@! TO.N,Net-(C6-Pad2)*
X104600000Y-65300000D02*
X104575000Y-65275000D01*
X106125000Y-65275000D02*
X106150000Y-65300000D01*
X104575000Y-65275000D02*
X106125000Y-65275000D01*
X106075000Y-65850000D02*
X106075000Y-65312500D01*
X106150020Y-65925020D02*
X106075000Y-65850000D01*
X106150020Y-71124980D02*
X106150020Y-65925020D01*
X106075000Y-71200000D02*
X106150020Y-71124980D01*
G04 #@! TO.N,Net-(C7-Pad1)*
X102990000Y-62090000D02*
X103000000Y-62100000D01*
X100800000Y-62090000D02*
X102990000Y-62090000D01*
X103000000Y-62100000D02*
X103000000Y-63675000D01*
X103000000Y-63675000D02*
X103000000Y-65275000D01*
G04 #@! TO.N,Net-(C7-Pad2)*
X103762510Y-65756484D02*
X103443984Y-66075010D01*
X104575000Y-63675000D02*
X103762510Y-64487490D01*
X103443984Y-66075010D02*
X102425010Y-66075010D01*
X103762510Y-64487490D02*
X103762510Y-65756484D01*
X101975010Y-63635010D02*
X101700000Y-63360000D01*
X101975010Y-65625010D02*
X101975010Y-63635010D01*
X101700000Y-63360000D02*
X100800000Y-63360000D01*
X102425010Y-66075010D02*
X101975010Y-65625010D01*
X100800000Y-63360000D02*
X99190000Y-63360000D01*
X99190000Y-63360000D02*
X99150000Y-63400000D01*
G04 #@! TO.N,Net-(C8-Pad2)*
X93560000Y-63360000D02*
X93525000Y-63325000D01*
X95500000Y-63360000D02*
X93560000Y-63360000D01*
X91975000Y-63325000D02*
X93525000Y-63325000D01*
G04 #@! TO.N,Net-(C9-Pad2)*
X87350000Y-63536998D02*
X87350000Y-65875000D01*
X89436999Y-61449999D02*
X87350000Y-63536998D01*
X91426089Y-61449999D02*
X89436999Y-61449999D01*
X92066090Y-62090000D02*
X91426089Y-61449999D01*
X95500000Y-62090000D02*
X92066090Y-62090000D01*
X87400000Y-65850000D02*
X86675000Y-65850000D01*
X86675000Y-65850000D02*
X85775000Y-66750000D01*
D27*
G04 #@! TO.N,+3V3*
X96400000Y-67170000D02*
X95500000Y-67170000D01*
X98594290Y-64975710D02*
X96400000Y-67170000D01*
X100454290Y-64975710D02*
X98594290Y-64975710D01*
X100800000Y-64630000D02*
X100454290Y-64975710D01*
X70675000Y-72975000D02*
X75474990Y-68175010D01*
X70675000Y-74275000D02*
X70675000Y-72975000D01*
X78225000Y-65650000D02*
X78200000Y-65625000D01*
X75474990Y-68175010D02*
X78225000Y-68175010D01*
X78200000Y-65350000D02*
X78200000Y-65625000D01*
X81075000Y-62475000D02*
X78200000Y-65350000D01*
X103612490Y-69575010D02*
X91936992Y-69575010D01*
X104587500Y-68600000D02*
X103612490Y-69575010D01*
X78225000Y-68175010D02*
X78225000Y-65650000D01*
X95500000Y-67170000D02*
X94530000Y-67170000D01*
X94530000Y-67170000D02*
X87350000Y-74350000D01*
X81536612Y-62013388D02*
X81075000Y-62475000D01*
X82012510Y-61537490D02*
X81536612Y-62013388D01*
X83736686Y-61537490D02*
X82012510Y-61537490D01*
X87832175Y-57442001D02*
X83736686Y-61537490D01*
X88875000Y-57438500D02*
X88871499Y-57442001D01*
X88871499Y-57442001D02*
X87832175Y-57442001D01*
X88875000Y-56188500D02*
X88875000Y-57438500D01*
D28*
G04 #@! TO.N,Net-(J1-Pad2)*
X95500000Y-58280000D02*
X97180000Y-58280000D01*
X97180000Y-58280000D02*
X97275000Y-58375000D01*
G04 #@! TO.N,Net-(J2-Pad2)*
X76300000Y-58275000D02*
X72125000Y-62450000D01*
X81175000Y-58275000D02*
X76300000Y-58275000D01*
D27*
G04 #@! TO.N,Net-(J2-Pad1)*
X87375000Y-56838502D02*
X87375000Y-56042000D01*
X86775001Y-57438501D02*
X87375000Y-56838502D01*
X84974999Y-57438501D02*
X86775001Y-57438501D01*
X84561498Y-57025000D02*
X84974999Y-57438501D01*
X76360000Y-57025000D02*
X84561498Y-57025000D01*
X73475000Y-59910000D02*
X76360000Y-57025000D01*
X72125000Y-59910000D02*
X73475000Y-59910000D01*
X87375000Y-52041500D02*
X87375000Y-56042000D01*
D28*
G04 #@! TO.N,Net-(R2-Pad2)*
X82775000Y-62425000D02*
X82725000Y-62475000D01*
X84825000Y-62425000D02*
X82775000Y-62425000D01*
G04 #@! TO.N,Net-(R4-Pad1)*
X91174112Y-60561612D02*
X90712500Y-60100000D01*
X92032510Y-61420010D02*
X91174112Y-60561612D01*
X100199990Y-61420010D02*
X92032510Y-61420010D01*
X100800000Y-60820000D02*
X100199990Y-61420010D01*
G04 #@! TO.N,Net-(R5-Pad2)*
X102230000Y-68600000D02*
X103012500Y-68600000D01*
X100800000Y-67170000D02*
X102230000Y-68600000D01*
X100800000Y-67170000D02*
X99205000Y-67170000D01*
X99205000Y-67170000D02*
X99125000Y-67250000D01*
G04 #@! TO.N,Net-(R7-Pad1)*
X102487500Y-66950000D02*
X103025000Y-66950000D01*
X101783210Y-66245710D02*
X102487500Y-66950000D01*
X101145710Y-66245710D02*
X101783210Y-66245710D01*
X100800000Y-65900000D02*
X101145710Y-66245710D01*
G04 #@! TO.N,Net-(R12-Pad2)*
X104575000Y-62100000D02*
X106100000Y-62100000D01*
G04 #@! TO.N,Net-(R13-Pad1)*
X81075000Y-65900000D02*
X81075000Y-67275010D01*
G04 #@! TO.N,Net-(R13-Pad2)*
X95500000Y-60820000D02*
X96855000Y-60820000D01*
X96855000Y-60820000D02*
X97100000Y-60575000D01*
X82700000Y-65850000D02*
X82650000Y-65900000D01*
X84125000Y-65850000D02*
X82700000Y-65850000D01*
G04 #@! TO.N,Net-(R14-Pad2)*
X93795000Y-64630000D02*
X93525000Y-64900000D01*
X95500000Y-64630000D02*
X93795000Y-64630000D01*
G04 #@! TO.N,Net-(R15-Pad2)*
X95500000Y-59550000D02*
X93825000Y-59550000D01*
X93825000Y-59550000D02*
X93775000Y-59600000D01*
X84250000Y-58275000D02*
X82750000Y-58275000D01*
G04 #@! TD*
D29*
G04 #@! TO.N,GND*
G36*
X91279377Y-62378089D02*
X91106261Y-62493761D01*
X91020051Y-62622784D01*
X90973731Y-62552000D01*
X90032000Y-62552000D01*
X90032000Y-63494714D01*
X90222611Y-63618472D01*
X90655156Y-63406080D01*
X90852560Y-63181756D01*
X90852560Y-63543750D01*
X90918495Y-63875227D01*
X91026943Y-64037531D01*
X90961673Y-64102802D01*
X90865000Y-64336191D01*
X90865000Y-64614250D01*
X91023750Y-64773000D01*
X91848000Y-64773000D01*
X91848000Y-64753000D01*
X92102000Y-64753000D01*
X92102000Y-64773000D01*
X92122000Y-64773000D01*
X92122000Y-65027000D01*
X92102000Y-65027000D01*
X92102000Y-65813750D01*
X92260750Y-65972500D01*
X92576310Y-65972500D01*
X92809699Y-65875827D01*
X92834915Y-65850611D01*
X92937273Y-65919005D01*
X93268750Y-65984940D01*
X93781250Y-65984940D01*
X94065000Y-65928499D01*
X94065000Y-66027002D01*
X94223748Y-66027002D01*
X94065000Y-66185750D01*
X94065000Y-66301310D01*
X94102313Y-66391391D01*
X93965845Y-66482576D01*
X93965844Y-66482577D01*
X93891951Y-66531951D01*
X93842577Y-66605844D01*
X92253921Y-68194501D01*
X92070341Y-67751299D01*
X91673701Y-67354659D01*
X91155467Y-67140000D01*
X90594533Y-67140000D01*
X90076299Y-67354659D01*
X89679659Y-67751299D01*
X89465000Y-68269533D01*
X89465000Y-68830467D01*
X89679659Y-69348701D01*
X90076299Y-69745341D01*
X90519501Y-69928921D01*
X89753921Y-70694501D01*
X89570341Y-70251299D01*
X89173701Y-69854659D01*
X88655467Y-69640000D01*
X88094533Y-69640000D01*
X87576299Y-69854659D01*
X87550250Y-69880708D01*
X87507809Y-69817191D01*
X87297765Y-69676843D01*
X87050000Y-69627560D01*
X85500000Y-69627560D01*
X85252235Y-69676843D01*
X85042191Y-69817191D01*
X84901843Y-70027235D01*
X84852560Y-70275000D01*
X84852560Y-71825000D01*
X84901843Y-72072765D01*
X85042191Y-72282809D01*
X85252235Y-72423157D01*
X85500000Y-72472440D01*
X87050000Y-72472440D01*
X87297765Y-72423157D01*
X87507809Y-72282809D01*
X87550250Y-72219292D01*
X87576299Y-72245341D01*
X88019501Y-72428921D01*
X87125853Y-73322569D01*
X86763720Y-73472569D01*
X86472569Y-73763720D01*
X86315000Y-74144126D01*
X86315000Y-74555874D01*
X86472569Y-74936280D01*
X86763720Y-75227431D01*
X87144126Y-75385000D01*
X87555874Y-75385000D01*
X87936280Y-75227431D01*
X88227431Y-74936280D01*
X88377431Y-74574147D01*
X91952560Y-70999019D01*
X91952560Y-71825000D01*
X92001843Y-72072765D01*
X92142191Y-72282809D01*
X92352235Y-72423157D01*
X92600000Y-72472440D01*
X94150000Y-72472440D01*
X94397765Y-72423157D01*
X94607809Y-72282809D01*
X94748157Y-72072765D01*
X94797440Y-71825000D01*
X94797440Y-70460010D01*
X96932040Y-70460010D01*
X96921526Y-70470524D01*
X96665000Y-71089833D01*
X96665000Y-71760167D01*
X96921526Y-72379476D01*
X97395524Y-72853474D01*
X98014833Y-73110000D01*
X98685167Y-73110000D01*
X99304476Y-72853474D01*
X99778474Y-72379476D01*
X100035000Y-71760167D01*
X100035000Y-71089833D01*
X99778474Y-70470524D01*
X99767960Y-70460010D01*
X103525329Y-70460010D01*
X103612490Y-70477347D01*
X103699651Y-70460010D01*
X103699655Y-70460010D01*
X103957800Y-70408662D01*
X104250539Y-70213059D01*
X104299915Y-70139163D01*
X104766639Y-69672440D01*
X104806250Y-69672440D01*
X105137727Y-69606505D01*
X105390020Y-69437928D01*
X105390020Y-69908590D01*
X105281261Y-69981261D01*
X105093495Y-70262273D01*
X105027560Y-70593750D01*
X105027560Y-71031250D01*
X105093495Y-71362727D01*
X105252036Y-71600000D01*
X105093495Y-71837273D01*
X105027560Y-72168750D01*
X105027560Y-72435138D01*
X104810138Y-72652560D01*
X103225000Y-72652560D01*
X102977235Y-72701843D01*
X102767191Y-72842191D01*
X102626843Y-73052235D01*
X102606899Y-73152503D01*
X102337862Y-72883466D01*
X101810439Y-72665000D01*
X101239561Y-72665000D01*
X100712138Y-72883466D01*
X100308466Y-73287138D01*
X100090000Y-73814561D01*
X100090000Y-74385439D01*
X100308466Y-74912862D01*
X100712138Y-75316534D01*
X101239561Y-75535000D01*
X101810439Y-75535000D01*
X102337862Y-75316534D01*
X102606899Y-75047497D01*
X102626843Y-75147765D01*
X102767191Y-75357809D01*
X102977235Y-75498157D01*
X103225000Y-75547440D01*
X104825000Y-75547440D01*
X105072765Y-75498157D01*
X105282809Y-75357809D01*
X105423157Y-75147765D01*
X105472440Y-74900000D01*
X105472440Y-74139861D01*
X106139862Y-73472440D01*
X106406250Y-73472440D01*
X106737727Y-73406505D01*
X107018739Y-73218739D01*
X107065001Y-73149503D01*
X107065001Y-76540000D01*
X69935000Y-76540000D01*
X69935000Y-75744593D01*
X70075000Y-75772440D01*
X71675000Y-75772440D01*
X71922765Y-75723157D01*
X72132809Y-75582809D01*
X72273157Y-75372765D01*
X72281117Y-75332745D01*
X72546861Y-75332745D01*
X72620995Y-75578864D01*
X73158223Y-75771965D01*
X73728454Y-75744778D01*
X74129005Y-75578864D01*
X74203139Y-75332745D01*
X73375000Y-74504605D01*
X72546861Y-75332745D01*
X72281117Y-75332745D01*
X72319693Y-75138813D01*
X72367255Y-75153139D01*
X73195395Y-74325000D01*
X73554605Y-74325000D01*
X74382745Y-75153139D01*
X74628864Y-75079005D01*
X74821965Y-74541777D01*
X74794778Y-73971546D01*
X74628864Y-73570995D01*
X74382745Y-73496861D01*
X73554605Y-74325000D01*
X73195395Y-74325000D01*
X72367255Y-73496861D01*
X72319693Y-73511187D01*
X72281118Y-73317255D01*
X72546861Y-73317255D01*
X73375000Y-74145395D01*
X74203139Y-73317255D01*
X74129005Y-73071136D01*
X73591777Y-72878035D01*
X73021546Y-72905222D01*
X72620995Y-73071136D01*
X72546861Y-73317255D01*
X72281118Y-73317255D01*
X72273157Y-73277235D01*
X72132809Y-73067191D01*
X71953919Y-72947659D01*
X73811745Y-71089833D01*
X74665000Y-71089833D01*
X74665000Y-71760167D01*
X74921526Y-72379476D01*
X75395524Y-72853474D01*
X76014833Y-73110000D01*
X76685167Y-73110000D01*
X77304476Y-72853474D01*
X77778474Y-72379476D01*
X78035000Y-71760167D01*
X78035000Y-71089833D01*
X77902328Y-70769533D01*
X79865000Y-70769533D01*
X79865000Y-71330467D01*
X80079659Y-71848701D01*
X80476299Y-72245341D01*
X80994533Y-72460000D01*
X81555467Y-72460000D01*
X82073701Y-72245341D01*
X82470341Y-71848701D01*
X82685000Y-71330467D01*
X82685000Y-70769533D01*
X82470341Y-70251299D01*
X82073701Y-69854659D01*
X81555467Y-69640000D01*
X80994533Y-69640000D01*
X80476299Y-69854659D01*
X80079659Y-70251299D01*
X79865000Y-70769533D01*
X77902328Y-70769533D01*
X77778474Y-70470524D01*
X77304476Y-69996526D01*
X76685167Y-69740000D01*
X76014833Y-69740000D01*
X75395524Y-69996526D01*
X74921526Y-70470524D01*
X74665000Y-71089833D01*
X73811745Y-71089833D01*
X75841569Y-69060010D01*
X78137835Y-69060010D01*
X78225000Y-69077348D01*
X78312164Y-69060010D01*
X78312165Y-69060010D01*
X78570310Y-69008662D01*
X78863049Y-68813059D01*
X79058652Y-68520320D01*
X79101787Y-68303463D01*
X79110000Y-68262175D01*
X79110000Y-68262174D01*
X79127338Y-68175010D01*
X79110000Y-68087845D01*
X79110000Y-66132651D01*
X79235000Y-65830874D01*
X79235000Y-65566578D01*
X80091737Y-64709841D01*
X80206261Y-64881239D01*
X80337273Y-64968778D01*
X80243761Y-65031261D01*
X80055995Y-65312273D01*
X79990060Y-65643750D01*
X79990060Y-66156250D01*
X80055995Y-66487727D01*
X80194788Y-66695445D01*
X80040000Y-67069136D01*
X80040000Y-67480884D01*
X80197569Y-67861290D01*
X80488720Y-68152441D01*
X80869126Y-68310010D01*
X81280874Y-68310010D01*
X81378594Y-68269533D01*
X82365000Y-68269533D01*
X82365000Y-68830467D01*
X82579659Y-69348701D01*
X82976299Y-69745341D01*
X83494533Y-69960000D01*
X84055467Y-69960000D01*
X84573701Y-69745341D01*
X84970341Y-69348701D01*
X85185000Y-68830467D01*
X85185000Y-68269533D01*
X84970341Y-67751299D01*
X84573701Y-67354659D01*
X84055467Y-67140000D01*
X83494533Y-67140000D01*
X82976299Y-67354659D01*
X82579659Y-67751299D01*
X82365000Y-68269533D01*
X81378594Y-68269533D01*
X81661280Y-68152441D01*
X81952431Y-67861290D01*
X82110000Y-67480884D01*
X82110000Y-67069136D01*
X82049407Y-66922852D01*
X82099773Y-66956505D01*
X82431250Y-67022440D01*
X82868750Y-67022440D01*
X83200227Y-66956505D01*
X83481239Y-66768739D01*
X83520808Y-66709519D01*
X83538720Y-66727431D01*
X83919126Y-66885000D01*
X84330874Y-66885000D01*
X84711280Y-66727431D01*
X84740000Y-66698711D01*
X84740000Y-66955874D01*
X84897569Y-67336280D01*
X85188720Y-67627431D01*
X85569126Y-67785000D01*
X85980874Y-67785000D01*
X86361280Y-67627431D01*
X86652431Y-67336280D01*
X86810000Y-66955874D01*
X86810000Y-66879930D01*
X86849773Y-66906505D01*
X87181250Y-66972440D01*
X87618750Y-66972440D01*
X87950227Y-66906505D01*
X88112531Y-66798057D01*
X88177802Y-66863327D01*
X88411191Y-66960000D01*
X88689250Y-66960000D01*
X88848000Y-66801250D01*
X88848000Y-65977000D01*
X89102000Y-65977000D01*
X89102000Y-66801250D01*
X89260750Y-66960000D01*
X89538809Y-66960000D01*
X89772198Y-66863327D01*
X89950827Y-66684699D01*
X90047500Y-66451310D01*
X90047500Y-66135750D01*
X89888750Y-65977000D01*
X89102000Y-65977000D01*
X88848000Y-65977000D01*
X88828000Y-65977000D01*
X88828000Y-65723000D01*
X88848000Y-65723000D01*
X88848000Y-64898750D01*
X89102000Y-64898750D01*
X89102000Y-65723000D01*
X89888750Y-65723000D01*
X90047500Y-65564250D01*
X90047500Y-65248690D01*
X90021430Y-65185750D01*
X90865000Y-65185750D01*
X90865000Y-65463809D01*
X90961673Y-65697198D01*
X91140301Y-65875827D01*
X91373690Y-65972500D01*
X91689250Y-65972500D01*
X91848000Y-65813750D01*
X91848000Y-65027000D01*
X91023750Y-65027000D01*
X90865000Y-65185750D01*
X90021430Y-65185750D01*
X89950827Y-65015301D01*
X89772198Y-64836673D01*
X89538809Y-64740000D01*
X89260750Y-64740000D01*
X89102000Y-64898750D01*
X88848000Y-64898750D01*
X88689250Y-64740000D01*
X88411191Y-64740000D01*
X88177802Y-64836673D01*
X88112531Y-64901943D01*
X88110000Y-64900252D01*
X88110000Y-63851799D01*
X88874404Y-63087396D01*
X89154844Y-63406080D01*
X89587389Y-63618472D01*
X89778000Y-63494714D01*
X89778000Y-62552000D01*
X89758000Y-62552000D01*
X89758000Y-62298000D01*
X89778000Y-62298000D01*
X89778000Y-62278000D01*
X90032000Y-62278000D01*
X90032000Y-62298000D01*
X90973731Y-62298000D01*
X91031317Y-62209999D01*
X91111288Y-62209999D01*
X91279377Y-62378089D01*
X91279377Y-62378089D01*
G37*
X91279377Y-62378089D02*
X91106261Y-62493761D01*
X91020051Y-62622784D01*
X90973731Y-62552000D01*
X90032000Y-62552000D01*
X90032000Y-63494714D01*
X90222611Y-63618472D01*
X90655156Y-63406080D01*
X90852560Y-63181756D01*
X90852560Y-63543750D01*
X90918495Y-63875227D01*
X91026943Y-64037531D01*
X90961673Y-64102802D01*
X90865000Y-64336191D01*
X90865000Y-64614250D01*
X91023750Y-64773000D01*
X91848000Y-64773000D01*
X91848000Y-64753000D01*
X92102000Y-64753000D01*
X92102000Y-64773000D01*
X92122000Y-64773000D01*
X92122000Y-65027000D01*
X92102000Y-65027000D01*
X92102000Y-65813750D01*
X92260750Y-65972500D01*
X92576310Y-65972500D01*
X92809699Y-65875827D01*
X92834915Y-65850611D01*
X92937273Y-65919005D01*
X93268750Y-65984940D01*
X93781250Y-65984940D01*
X94065000Y-65928499D01*
X94065000Y-66027002D01*
X94223748Y-66027002D01*
X94065000Y-66185750D01*
X94065000Y-66301310D01*
X94102313Y-66391391D01*
X93965845Y-66482576D01*
X93965844Y-66482577D01*
X93891951Y-66531951D01*
X93842577Y-66605844D01*
X92253921Y-68194501D01*
X92070341Y-67751299D01*
X91673701Y-67354659D01*
X91155467Y-67140000D01*
X90594533Y-67140000D01*
X90076299Y-67354659D01*
X89679659Y-67751299D01*
X89465000Y-68269533D01*
X89465000Y-68830467D01*
X89679659Y-69348701D01*
X90076299Y-69745341D01*
X90519501Y-69928921D01*
X89753921Y-70694501D01*
X89570341Y-70251299D01*
X89173701Y-69854659D01*
X88655467Y-69640000D01*
X88094533Y-69640000D01*
X87576299Y-69854659D01*
X87550250Y-69880708D01*
X87507809Y-69817191D01*
X87297765Y-69676843D01*
X87050000Y-69627560D01*
X85500000Y-69627560D01*
X85252235Y-69676843D01*
X85042191Y-69817191D01*
X84901843Y-70027235D01*
X84852560Y-70275000D01*
X84852560Y-71825000D01*
X84901843Y-72072765D01*
X85042191Y-72282809D01*
X85252235Y-72423157D01*
X85500000Y-72472440D01*
X87050000Y-72472440D01*
X87297765Y-72423157D01*
X87507809Y-72282809D01*
X87550250Y-72219292D01*
X87576299Y-72245341D01*
X88019501Y-72428921D01*
X87125853Y-73322569D01*
X86763720Y-73472569D01*
X86472569Y-73763720D01*
X86315000Y-74144126D01*
X86315000Y-74555874D01*
X86472569Y-74936280D01*
X86763720Y-75227431D01*
X87144126Y-75385000D01*
X87555874Y-75385000D01*
X87936280Y-75227431D01*
X88227431Y-74936280D01*
X88377431Y-74574147D01*
X91952560Y-70999019D01*
X91952560Y-71825000D01*
X92001843Y-72072765D01*
X92142191Y-72282809D01*
X92352235Y-72423157D01*
X92600000Y-72472440D01*
X94150000Y-72472440D01*
X94397765Y-72423157D01*
X94607809Y-72282809D01*
X94748157Y-72072765D01*
X94797440Y-71825000D01*
X94797440Y-70460010D01*
X96932040Y-70460010D01*
X96921526Y-70470524D01*
X96665000Y-71089833D01*
X96665000Y-71760167D01*
X96921526Y-72379476D01*
X97395524Y-72853474D01*
X98014833Y-73110000D01*
X98685167Y-73110000D01*
X99304476Y-72853474D01*
X99778474Y-72379476D01*
X100035000Y-71760167D01*
X100035000Y-71089833D01*
X99778474Y-70470524D01*
X99767960Y-70460010D01*
X103525329Y-70460010D01*
X103612490Y-70477347D01*
X103699651Y-70460010D01*
X103699655Y-70460010D01*
X103957800Y-70408662D01*
X104250539Y-70213059D01*
X104299915Y-70139163D01*
X104766639Y-69672440D01*
X104806250Y-69672440D01*
X105137727Y-69606505D01*
X105390020Y-69437928D01*
X105390020Y-69908590D01*
X105281261Y-69981261D01*
X105093495Y-70262273D01*
X105027560Y-70593750D01*
X105027560Y-71031250D01*
X105093495Y-71362727D01*
X105252036Y-71600000D01*
X105093495Y-71837273D01*
X105027560Y-72168750D01*
X105027560Y-72435138D01*
X104810138Y-72652560D01*
X103225000Y-72652560D01*
X102977235Y-72701843D01*
X102767191Y-72842191D01*
X102626843Y-73052235D01*
X102606899Y-73152503D01*
X102337862Y-72883466D01*
X101810439Y-72665000D01*
X101239561Y-72665000D01*
X100712138Y-72883466D01*
X100308466Y-73287138D01*
X100090000Y-73814561D01*
X100090000Y-74385439D01*
X100308466Y-74912862D01*
X100712138Y-75316534D01*
X101239561Y-75535000D01*
X101810439Y-75535000D01*
X102337862Y-75316534D01*
X102606899Y-75047497D01*
X102626843Y-75147765D01*
X102767191Y-75357809D01*
X102977235Y-75498157D01*
X103225000Y-75547440D01*
X104825000Y-75547440D01*
X105072765Y-75498157D01*
X105282809Y-75357809D01*
X105423157Y-75147765D01*
X105472440Y-74900000D01*
X105472440Y-74139861D01*
X106139862Y-73472440D01*
X106406250Y-73472440D01*
X106737727Y-73406505D01*
X107018739Y-73218739D01*
X107065001Y-73149503D01*
X107065001Y-76540000D01*
X69935000Y-76540000D01*
X69935000Y-75744593D01*
X70075000Y-75772440D01*
X71675000Y-75772440D01*
X71922765Y-75723157D01*
X72132809Y-75582809D01*
X72273157Y-75372765D01*
X72281117Y-75332745D01*
X72546861Y-75332745D01*
X72620995Y-75578864D01*
X73158223Y-75771965D01*
X73728454Y-75744778D01*
X74129005Y-75578864D01*
X74203139Y-75332745D01*
X73375000Y-74504605D01*
X72546861Y-75332745D01*
X72281117Y-75332745D01*
X72319693Y-75138813D01*
X72367255Y-75153139D01*
X73195395Y-74325000D01*
X73554605Y-74325000D01*
X74382745Y-75153139D01*
X74628864Y-75079005D01*
X74821965Y-74541777D01*
X74794778Y-73971546D01*
X74628864Y-73570995D01*
X74382745Y-73496861D01*
X73554605Y-74325000D01*
X73195395Y-74325000D01*
X72367255Y-73496861D01*
X72319693Y-73511187D01*
X72281118Y-73317255D01*
X72546861Y-73317255D01*
X73375000Y-74145395D01*
X74203139Y-73317255D01*
X74129005Y-73071136D01*
X73591777Y-72878035D01*
X73021546Y-72905222D01*
X72620995Y-73071136D01*
X72546861Y-73317255D01*
X72281118Y-73317255D01*
X72273157Y-73277235D01*
X72132809Y-73067191D01*
X71953919Y-72947659D01*
X73811745Y-71089833D01*
X74665000Y-71089833D01*
X74665000Y-71760167D01*
X74921526Y-72379476D01*
X75395524Y-72853474D01*
X76014833Y-73110000D01*
X76685167Y-73110000D01*
X77304476Y-72853474D01*
X77778474Y-72379476D01*
X78035000Y-71760167D01*
X78035000Y-71089833D01*
X77902328Y-70769533D01*
X79865000Y-70769533D01*
X79865000Y-71330467D01*
X80079659Y-71848701D01*
X80476299Y-72245341D01*
X80994533Y-72460000D01*
X81555467Y-72460000D01*
X82073701Y-72245341D01*
X82470341Y-71848701D01*
X82685000Y-71330467D01*
X82685000Y-70769533D01*
X82470341Y-70251299D01*
X82073701Y-69854659D01*
X81555467Y-69640000D01*
X80994533Y-69640000D01*
X80476299Y-69854659D01*
X80079659Y-70251299D01*
X79865000Y-70769533D01*
X77902328Y-70769533D01*
X77778474Y-70470524D01*
X77304476Y-69996526D01*
X76685167Y-69740000D01*
X76014833Y-69740000D01*
X75395524Y-69996526D01*
X74921526Y-70470524D01*
X74665000Y-71089833D01*
X73811745Y-71089833D01*
X75841569Y-69060010D01*
X78137835Y-69060010D01*
X78225000Y-69077348D01*
X78312164Y-69060010D01*
X78312165Y-69060010D01*
X78570310Y-69008662D01*
X78863049Y-68813059D01*
X79058652Y-68520320D01*
X79101787Y-68303463D01*
X79110000Y-68262175D01*
X79110000Y-68262174D01*
X79127338Y-68175010D01*
X79110000Y-68087845D01*
X79110000Y-66132651D01*
X79235000Y-65830874D01*
X79235000Y-65566578D01*
X80091737Y-64709841D01*
X80206261Y-64881239D01*
X80337273Y-64968778D01*
X80243761Y-65031261D01*
X80055995Y-65312273D01*
X79990060Y-65643750D01*
X79990060Y-66156250D01*
X80055995Y-66487727D01*
X80194788Y-66695445D01*
X80040000Y-67069136D01*
X80040000Y-67480884D01*
X80197569Y-67861290D01*
X80488720Y-68152441D01*
X80869126Y-68310010D01*
X81280874Y-68310010D01*
X81378594Y-68269533D01*
X82365000Y-68269533D01*
X82365000Y-68830467D01*
X82579659Y-69348701D01*
X82976299Y-69745341D01*
X83494533Y-69960000D01*
X84055467Y-69960000D01*
X84573701Y-69745341D01*
X84970341Y-69348701D01*
X85185000Y-68830467D01*
X85185000Y-68269533D01*
X84970341Y-67751299D01*
X84573701Y-67354659D01*
X84055467Y-67140000D01*
X83494533Y-67140000D01*
X82976299Y-67354659D01*
X82579659Y-67751299D01*
X82365000Y-68269533D01*
X81378594Y-68269533D01*
X81661280Y-68152441D01*
X81952431Y-67861290D01*
X82110000Y-67480884D01*
X82110000Y-67069136D01*
X82049407Y-66922852D01*
X82099773Y-66956505D01*
X82431250Y-67022440D01*
X82868750Y-67022440D01*
X83200227Y-66956505D01*
X83481239Y-66768739D01*
X83520808Y-66709519D01*
X83538720Y-66727431D01*
X83919126Y-66885000D01*
X84330874Y-66885000D01*
X84711280Y-66727431D01*
X84740000Y-66698711D01*
X84740000Y-66955874D01*
X84897569Y-67336280D01*
X85188720Y-67627431D01*
X85569126Y-67785000D01*
X85980874Y-67785000D01*
X86361280Y-67627431D01*
X86652431Y-67336280D01*
X86810000Y-66955874D01*
X86810000Y-66879930D01*
X86849773Y-66906505D01*
X87181250Y-66972440D01*
X87618750Y-66972440D01*
X87950227Y-66906505D01*
X88112531Y-66798057D01*
X88177802Y-66863327D01*
X88411191Y-66960000D01*
X88689250Y-66960000D01*
X88848000Y-66801250D01*
X88848000Y-65977000D01*
X89102000Y-65977000D01*
X89102000Y-66801250D01*
X89260750Y-66960000D01*
X89538809Y-66960000D01*
X89772198Y-66863327D01*
X89950827Y-66684699D01*
X90047500Y-66451310D01*
X90047500Y-66135750D01*
X89888750Y-65977000D01*
X89102000Y-65977000D01*
X88848000Y-65977000D01*
X88828000Y-65977000D01*
X88828000Y-65723000D01*
X88848000Y-65723000D01*
X88848000Y-64898750D01*
X89102000Y-64898750D01*
X89102000Y-65723000D01*
X89888750Y-65723000D01*
X90047500Y-65564250D01*
X90047500Y-65248690D01*
X90021430Y-65185750D01*
X90865000Y-65185750D01*
X90865000Y-65463809D01*
X90961673Y-65697198D01*
X91140301Y-65875827D01*
X91373690Y-65972500D01*
X91689250Y-65972500D01*
X91848000Y-65813750D01*
X91848000Y-65027000D01*
X91023750Y-65027000D01*
X90865000Y-65185750D01*
X90021430Y-65185750D01*
X89950827Y-65015301D01*
X89772198Y-64836673D01*
X89538809Y-64740000D01*
X89260750Y-64740000D01*
X89102000Y-64898750D01*
X88848000Y-64898750D01*
X88689250Y-64740000D01*
X88411191Y-64740000D01*
X88177802Y-64836673D01*
X88112531Y-64901943D01*
X88110000Y-64900252D01*
X88110000Y-63851799D01*
X88874404Y-63087396D01*
X89154844Y-63406080D01*
X89587389Y-63618472D01*
X89778000Y-63494714D01*
X89778000Y-62552000D01*
X89758000Y-62552000D01*
X89758000Y-62298000D01*
X89778000Y-62298000D01*
X89778000Y-62278000D01*
X90032000Y-62278000D01*
X90032000Y-62298000D01*
X90973731Y-62298000D01*
X91031317Y-62209999D01*
X91111288Y-62209999D01*
X91279377Y-62378089D01*
G36*
X85746062Y-52093132D02*
X85713009Y-52153109D01*
X85676843Y-52207235D01*
X85627560Y-52455000D01*
X85627560Y-54295000D01*
X85641605Y-54365610D01*
X85642887Y-54424744D01*
X85662020Y-54468243D01*
X85676843Y-54542765D01*
X85729385Y-54621398D01*
X85744596Y-54655982D01*
X85847859Y-54803500D01*
X85747998Y-54803500D01*
X85747998Y-54962248D01*
X85589250Y-54803500D01*
X85248691Y-54803500D01*
X85015302Y-54900173D01*
X84836673Y-55078801D01*
X84740000Y-55312190D01*
X84740000Y-55902750D01*
X84898748Y-56061498D01*
X84740000Y-56061498D01*
X84740000Y-56158168D01*
X84648663Y-56140000D01*
X84648659Y-56140000D01*
X84561498Y-56122663D01*
X84474337Y-56140000D01*
X76447159Y-56140000D01*
X76359999Y-56122663D01*
X76272839Y-56140000D01*
X76272835Y-56140000D01*
X76014690Y-56191348D01*
X75906880Y-56263385D01*
X75795845Y-56337576D01*
X75795844Y-56337577D01*
X75721951Y-56386951D01*
X75672577Y-56460844D01*
X73472231Y-58661190D01*
X73432809Y-58602191D01*
X73222765Y-58461843D01*
X72975000Y-58412560D01*
X71275000Y-58412560D01*
X71027235Y-58461843D01*
X70817191Y-58602191D01*
X70676843Y-58812235D01*
X70627560Y-59060000D01*
X70627560Y-60760000D01*
X70676843Y-61007765D01*
X70817191Y-61217809D01*
X71027235Y-61358157D01*
X71072619Y-61367184D01*
X71054375Y-61379375D01*
X70726161Y-61870582D01*
X70610908Y-62450000D01*
X70726161Y-63029418D01*
X71054375Y-63520625D01*
X71373478Y-63733843D01*
X71243642Y-63794817D01*
X70853355Y-64223076D01*
X70683524Y-64633110D01*
X70804845Y-64863000D01*
X71998000Y-64863000D01*
X71998000Y-64843000D01*
X72252000Y-64843000D01*
X72252000Y-64863000D01*
X73445155Y-64863000D01*
X73566476Y-64633110D01*
X73396645Y-64223076D01*
X73006358Y-63794817D01*
X72876522Y-63733843D01*
X73195625Y-63520625D01*
X73523839Y-63029418D01*
X73639092Y-62450000D01*
X73566209Y-62083592D01*
X76614802Y-59035000D01*
X80271104Y-59035000D01*
X80343761Y-59143739D01*
X80624773Y-59331505D01*
X80956250Y-59397440D01*
X81393750Y-59397440D01*
X81725227Y-59331505D01*
X81962500Y-59172964D01*
X82199773Y-59331505D01*
X82531250Y-59397440D01*
X82968750Y-59397440D01*
X83300227Y-59331505D01*
X83581239Y-59143739D01*
X83610795Y-59099506D01*
X83663720Y-59152431D01*
X84044126Y-59310000D01*
X84455874Y-59310000D01*
X84836280Y-59152431D01*
X85127431Y-58861280D01*
X85285000Y-58480874D01*
X85285000Y-58323501D01*
X85699096Y-58323501D01*
X83370108Y-60652490D01*
X82099669Y-60652490D01*
X82012509Y-60635153D01*
X81925349Y-60652490D01*
X81925345Y-60652490D01*
X81667200Y-60703838D01*
X81374461Y-60899441D01*
X81325086Y-60973336D01*
X80908362Y-61390060D01*
X80818750Y-61390060D01*
X80487273Y-61455995D01*
X80206261Y-61643761D01*
X80018495Y-61924773D01*
X79952560Y-62256250D01*
X79952560Y-62345861D01*
X77635847Y-64662575D01*
X77561951Y-64711951D01*
X77385981Y-64975308D01*
X77322569Y-65038720D01*
X77165000Y-65419126D01*
X77165000Y-65830874D01*
X77322569Y-66211280D01*
X77340001Y-66228712D01*
X77340000Y-67290010D01*
X75562151Y-67290010D01*
X75474990Y-67272673D01*
X75387829Y-67290010D01*
X75387825Y-67290010D01*
X75155209Y-67336280D01*
X75129680Y-67341358D01*
X74910835Y-67487586D01*
X74910834Y-67487587D01*
X74836941Y-67536961D01*
X74787567Y-67610854D01*
X70110845Y-72287577D01*
X70036952Y-72336951D01*
X69987578Y-72410844D01*
X69987576Y-72410846D01*
X69935000Y-72489531D01*
X69935000Y-65346890D01*
X70683524Y-65346890D01*
X70853355Y-65756924D01*
X71243642Y-66185183D01*
X71768108Y-66431486D01*
X71998000Y-66310819D01*
X71998000Y-65117000D01*
X72252000Y-65117000D01*
X72252000Y-66310819D01*
X72481892Y-66431486D01*
X73006358Y-66185183D01*
X73396645Y-65756924D01*
X73566476Y-65346890D01*
X73445155Y-65117000D01*
X72252000Y-65117000D01*
X71998000Y-65117000D01*
X70804845Y-65117000D01*
X70683524Y-65346890D01*
X69935000Y-65346890D01*
X69935000Y-53089833D01*
X74665000Y-53089833D01*
X74665000Y-53760167D01*
X74921526Y-54379476D01*
X75395524Y-54853474D01*
X76014833Y-55110000D01*
X76685167Y-55110000D01*
X77304476Y-54853474D01*
X77778474Y-54379476D01*
X78035000Y-53760167D01*
X78035000Y-53575000D01*
X78827560Y-53575000D01*
X78827560Y-55175000D01*
X78876843Y-55422765D01*
X79017191Y-55632809D01*
X79227235Y-55773157D01*
X79475000Y-55822440D01*
X81075000Y-55822440D01*
X81322765Y-55773157D01*
X81532809Y-55632809D01*
X81673157Y-55422765D01*
X81681117Y-55382745D01*
X81946861Y-55382745D01*
X82020995Y-55628864D01*
X82558223Y-55821965D01*
X83128454Y-55794778D01*
X83529005Y-55628864D01*
X83603139Y-55382745D01*
X82775000Y-54554605D01*
X81946861Y-55382745D01*
X81681117Y-55382745D01*
X81719693Y-55188813D01*
X81767255Y-55203139D01*
X82595395Y-54375000D01*
X82954605Y-54375000D01*
X83782745Y-55203139D01*
X84028864Y-55129005D01*
X84221965Y-54591777D01*
X84194778Y-54021546D01*
X84028864Y-53620995D01*
X83782745Y-53546861D01*
X82954605Y-54375000D01*
X82595395Y-54375000D01*
X81767255Y-53546861D01*
X81719693Y-53561187D01*
X81681118Y-53367255D01*
X81946861Y-53367255D01*
X82775000Y-54195395D01*
X83603139Y-53367255D01*
X83529005Y-53121136D01*
X82991777Y-52928035D01*
X82421546Y-52955222D01*
X82020995Y-53121136D01*
X81946861Y-53367255D01*
X81681118Y-53367255D01*
X81673157Y-53327235D01*
X81532809Y-53117191D01*
X81322765Y-52976843D01*
X81075000Y-52927560D01*
X79475000Y-52927560D01*
X79227235Y-52976843D01*
X79017191Y-53117191D01*
X78876843Y-53327235D01*
X78827560Y-53575000D01*
X78035000Y-53575000D01*
X78035000Y-53089833D01*
X77778474Y-52470524D01*
X77304476Y-51996526D01*
X76685167Y-51740000D01*
X76014833Y-51740000D01*
X75395524Y-51996526D01*
X74921526Y-52470524D01*
X74665000Y-53089833D01*
X69935000Y-53089833D01*
X69935000Y-51410000D01*
X86228273Y-51410000D01*
X85746062Y-52093132D01*
X85746062Y-52093132D01*
G37*
X85746062Y-52093132D02*
X85713009Y-52153109D01*
X85676843Y-52207235D01*
X85627560Y-52455000D01*
X85627560Y-54295000D01*
X85641605Y-54365610D01*
X85642887Y-54424744D01*
X85662020Y-54468243D01*
X85676843Y-54542765D01*
X85729385Y-54621398D01*
X85744596Y-54655982D01*
X85847859Y-54803500D01*
X85747998Y-54803500D01*
X85747998Y-54962248D01*
X85589250Y-54803500D01*
X85248691Y-54803500D01*
X85015302Y-54900173D01*
X84836673Y-55078801D01*
X84740000Y-55312190D01*
X84740000Y-55902750D01*
X84898748Y-56061498D01*
X84740000Y-56061498D01*
X84740000Y-56158168D01*
X84648663Y-56140000D01*
X84648659Y-56140000D01*
X84561498Y-56122663D01*
X84474337Y-56140000D01*
X76447159Y-56140000D01*
X76359999Y-56122663D01*
X76272839Y-56140000D01*
X76272835Y-56140000D01*
X76014690Y-56191348D01*
X75906880Y-56263385D01*
X75795845Y-56337576D01*
X75795844Y-56337577D01*
X75721951Y-56386951D01*
X75672577Y-56460844D01*
X73472231Y-58661190D01*
X73432809Y-58602191D01*
X73222765Y-58461843D01*
X72975000Y-58412560D01*
X71275000Y-58412560D01*
X71027235Y-58461843D01*
X70817191Y-58602191D01*
X70676843Y-58812235D01*
X70627560Y-59060000D01*
X70627560Y-60760000D01*
X70676843Y-61007765D01*
X70817191Y-61217809D01*
X71027235Y-61358157D01*
X71072619Y-61367184D01*
X71054375Y-61379375D01*
X70726161Y-61870582D01*
X70610908Y-62450000D01*
X70726161Y-63029418D01*
X71054375Y-63520625D01*
X71373478Y-63733843D01*
X71243642Y-63794817D01*
X70853355Y-64223076D01*
X70683524Y-64633110D01*
X70804845Y-64863000D01*
X71998000Y-64863000D01*
X71998000Y-64843000D01*
X72252000Y-64843000D01*
X72252000Y-64863000D01*
X73445155Y-64863000D01*
X73566476Y-64633110D01*
X73396645Y-64223076D01*
X73006358Y-63794817D01*
X72876522Y-63733843D01*
X73195625Y-63520625D01*
X73523839Y-63029418D01*
X73639092Y-62450000D01*
X73566209Y-62083592D01*
X76614802Y-59035000D01*
X80271104Y-59035000D01*
X80343761Y-59143739D01*
X80624773Y-59331505D01*
X80956250Y-59397440D01*
X81393750Y-59397440D01*
X81725227Y-59331505D01*
X81962500Y-59172964D01*
X82199773Y-59331505D01*
X82531250Y-59397440D01*
X82968750Y-59397440D01*
X83300227Y-59331505D01*
X83581239Y-59143739D01*
X83610795Y-59099506D01*
X83663720Y-59152431D01*
X84044126Y-59310000D01*
X84455874Y-59310000D01*
X84836280Y-59152431D01*
X85127431Y-58861280D01*
X85285000Y-58480874D01*
X85285000Y-58323501D01*
X85699096Y-58323501D01*
X83370108Y-60652490D01*
X82099669Y-60652490D01*
X82012509Y-60635153D01*
X81925349Y-60652490D01*
X81925345Y-60652490D01*
X81667200Y-60703838D01*
X81374461Y-60899441D01*
X81325086Y-60973336D01*
X80908362Y-61390060D01*
X80818750Y-61390060D01*
X80487273Y-61455995D01*
X80206261Y-61643761D01*
X80018495Y-61924773D01*
X79952560Y-62256250D01*
X79952560Y-62345861D01*
X77635847Y-64662575D01*
X77561951Y-64711951D01*
X77385981Y-64975308D01*
X77322569Y-65038720D01*
X77165000Y-65419126D01*
X77165000Y-65830874D01*
X77322569Y-66211280D01*
X77340001Y-66228712D01*
X77340000Y-67290010D01*
X75562151Y-67290010D01*
X75474990Y-67272673D01*
X75387829Y-67290010D01*
X75387825Y-67290010D01*
X75155209Y-67336280D01*
X75129680Y-67341358D01*
X74910835Y-67487586D01*
X74910834Y-67487587D01*
X74836941Y-67536961D01*
X74787567Y-67610854D01*
X70110845Y-72287577D01*
X70036952Y-72336951D01*
X69987578Y-72410844D01*
X69987576Y-72410846D01*
X69935000Y-72489531D01*
X69935000Y-65346890D01*
X70683524Y-65346890D01*
X70853355Y-65756924D01*
X71243642Y-66185183D01*
X71768108Y-66431486D01*
X71998000Y-66310819D01*
X71998000Y-65117000D01*
X72252000Y-65117000D01*
X72252000Y-66310819D01*
X72481892Y-66431486D01*
X73006358Y-66185183D01*
X73396645Y-65756924D01*
X73566476Y-65346890D01*
X73445155Y-65117000D01*
X72252000Y-65117000D01*
X71998000Y-65117000D01*
X70804845Y-65117000D01*
X70683524Y-65346890D01*
X69935000Y-65346890D01*
X69935000Y-53089833D01*
X74665000Y-53089833D01*
X74665000Y-53760167D01*
X74921526Y-54379476D01*
X75395524Y-54853474D01*
X76014833Y-55110000D01*
X76685167Y-55110000D01*
X77304476Y-54853474D01*
X77778474Y-54379476D01*
X78035000Y-53760167D01*
X78035000Y-53575000D01*
X78827560Y-53575000D01*
X78827560Y-55175000D01*
X78876843Y-55422765D01*
X79017191Y-55632809D01*
X79227235Y-55773157D01*
X79475000Y-55822440D01*
X81075000Y-55822440D01*
X81322765Y-55773157D01*
X81532809Y-55632809D01*
X81673157Y-55422765D01*
X81681117Y-55382745D01*
X81946861Y-55382745D01*
X82020995Y-55628864D01*
X82558223Y-55821965D01*
X83128454Y-55794778D01*
X83529005Y-55628864D01*
X83603139Y-55382745D01*
X82775000Y-54554605D01*
X81946861Y-55382745D01*
X81681117Y-55382745D01*
X81719693Y-55188813D01*
X81767255Y-55203139D01*
X82595395Y-54375000D01*
X82954605Y-54375000D01*
X83782745Y-55203139D01*
X84028864Y-55129005D01*
X84221965Y-54591777D01*
X84194778Y-54021546D01*
X84028864Y-53620995D01*
X83782745Y-53546861D01*
X82954605Y-54375000D01*
X82595395Y-54375000D01*
X81767255Y-53546861D01*
X81719693Y-53561187D01*
X81681118Y-53367255D01*
X81946861Y-53367255D01*
X82775000Y-54195395D01*
X83603139Y-53367255D01*
X83529005Y-53121136D01*
X82991777Y-52928035D01*
X82421546Y-52955222D01*
X82020995Y-53121136D01*
X81946861Y-53367255D01*
X81681118Y-53367255D01*
X81673157Y-53327235D01*
X81532809Y-53117191D01*
X81322765Y-52976843D01*
X81075000Y-52927560D01*
X79475000Y-52927560D01*
X79227235Y-52976843D01*
X79017191Y-53117191D01*
X78876843Y-53327235D01*
X78827560Y-53575000D01*
X78035000Y-53575000D01*
X78035000Y-53089833D01*
X77778474Y-52470524D01*
X77304476Y-51996526D01*
X76685167Y-51740000D01*
X76014833Y-51740000D01*
X75395524Y-51996526D01*
X74921526Y-52470524D01*
X74665000Y-53089833D01*
X69935000Y-53089833D01*
X69935000Y-51410000D01*
X86228273Y-51410000D01*
X85746062Y-52093132D01*
G36*
X104727000Y-66823000D02*
X104747000Y-66823000D01*
X104747000Y-67077000D01*
X104727000Y-67077000D01*
X104727000Y-67097000D01*
X104473000Y-67097000D01*
X104473000Y-67077000D01*
X104453000Y-67077000D01*
X104453000Y-66823000D01*
X104473000Y-66823000D01*
X104473000Y-66803000D01*
X104727000Y-66803000D01*
X104727000Y-66823000D01*
X104727000Y-66823000D01*
G37*
X104727000Y-66823000D02*
X104747000Y-66823000D01*
X104747000Y-67077000D01*
X104727000Y-67077000D01*
X104727000Y-67097000D01*
X104473000Y-67097000D01*
X104473000Y-67077000D01*
X104453000Y-67077000D01*
X104453000Y-66823000D01*
X104473000Y-66823000D01*
X104473000Y-66803000D01*
X104727000Y-66803000D01*
X104727000Y-66823000D01*
G36*
X95627000Y-65773000D02*
X95647000Y-65773000D01*
X95647000Y-66027000D01*
X95627000Y-66027000D01*
X95627000Y-66047000D01*
X95373000Y-66047000D01*
X95373000Y-66027000D01*
X95353000Y-66027000D01*
X95353000Y-65773000D01*
X95373000Y-65773000D01*
X95373000Y-65753000D01*
X95627000Y-65753000D01*
X95627000Y-65773000D01*
X95627000Y-65773000D01*
G37*
X95627000Y-65773000D02*
X95647000Y-65773000D01*
X95647000Y-66027000D01*
X95627000Y-66027000D01*
X95627000Y-66047000D01*
X95373000Y-66047000D01*
X95373000Y-66027000D01*
X95353000Y-66027000D01*
X95353000Y-65773000D01*
X95373000Y-65773000D01*
X95373000Y-65753000D01*
X95627000Y-65753000D01*
X95627000Y-65773000D01*
G36*
X107065000Y-61725132D02*
X106977431Y-61513720D01*
X106686280Y-61222569D01*
X106305874Y-61065000D01*
X105894126Y-61065000D01*
X105513720Y-61222569D01*
X105445808Y-61290481D01*
X105406239Y-61231261D01*
X105125227Y-61043495D01*
X104793750Y-60977560D01*
X104518352Y-60977560D01*
X104812727Y-60919005D01*
X104987500Y-60802226D01*
X105162273Y-60919005D01*
X105493750Y-60984940D01*
X106006250Y-60984940D01*
X106337727Y-60919005D01*
X106618739Y-60731239D01*
X106806505Y-60450227D01*
X106872440Y-60118750D01*
X106872440Y-59681250D01*
X106806505Y-59349773D01*
X106647964Y-59112500D01*
X106806505Y-58875227D01*
X106872440Y-58543750D01*
X106872440Y-58106250D01*
X106806505Y-57774773D01*
X106618739Y-57493761D01*
X106337727Y-57305995D01*
X106006250Y-57240060D01*
X105739861Y-57240060D01*
X105490331Y-56990530D01*
X105447929Y-56927071D01*
X105196537Y-56759096D01*
X104974852Y-56715000D01*
X104974847Y-56715000D01*
X104900000Y-56700112D01*
X104825153Y-56715000D01*
X98739802Y-56715000D01*
X95940331Y-53915530D01*
X95897929Y-53852071D01*
X95747440Y-53751517D01*
X95747440Y-53600000D01*
X95698157Y-53352235D01*
X95557809Y-53142191D01*
X95479451Y-53089833D01*
X96665000Y-53089833D01*
X96665000Y-53760167D01*
X96921526Y-54379476D01*
X97395524Y-54853474D01*
X98014833Y-55110000D01*
X98685167Y-55110000D01*
X99304476Y-54853474D01*
X99778474Y-54379476D01*
X100002113Y-53839561D01*
X100715000Y-53839561D01*
X100715000Y-54410439D01*
X100933466Y-54937862D01*
X101337138Y-55341534D01*
X101864561Y-55560000D01*
X102435439Y-55560000D01*
X102962862Y-55341534D01*
X103171651Y-55132745D01*
X104321861Y-55132745D01*
X104395995Y-55378864D01*
X104933223Y-55571965D01*
X105503454Y-55544778D01*
X105904005Y-55378864D01*
X105978139Y-55132745D01*
X105150000Y-54304605D01*
X104321861Y-55132745D01*
X103171651Y-55132745D01*
X103366534Y-54937862D01*
X103585000Y-54410439D01*
X103585000Y-53908223D01*
X103703035Y-53908223D01*
X103730222Y-54478454D01*
X103896136Y-54879005D01*
X104142255Y-54953139D01*
X104970395Y-54125000D01*
X105329605Y-54125000D01*
X106157745Y-54953139D01*
X106403864Y-54879005D01*
X106596965Y-54341777D01*
X106569778Y-53771546D01*
X106403864Y-53370995D01*
X106157745Y-53296861D01*
X105329605Y-54125000D01*
X104970395Y-54125000D01*
X104142255Y-53296861D01*
X103896136Y-53370995D01*
X103703035Y-53908223D01*
X103585000Y-53908223D01*
X103585000Y-53839561D01*
X103366534Y-53312138D01*
X103171651Y-53117255D01*
X104321861Y-53117255D01*
X105150000Y-53945395D01*
X105978139Y-53117255D01*
X105904005Y-52871136D01*
X105366777Y-52678035D01*
X104796546Y-52705222D01*
X104395995Y-52871136D01*
X104321861Y-53117255D01*
X103171651Y-53117255D01*
X102962862Y-52908466D01*
X102435439Y-52690000D01*
X101864561Y-52690000D01*
X101337138Y-52908466D01*
X100933466Y-53312138D01*
X100715000Y-53839561D01*
X100002113Y-53839561D01*
X100035000Y-53760167D01*
X100035000Y-53089833D01*
X99778474Y-52470524D01*
X99304476Y-51996526D01*
X98685167Y-51740000D01*
X98014833Y-51740000D01*
X97395524Y-51996526D01*
X96921526Y-52470524D01*
X96665000Y-53089833D01*
X95479451Y-53089833D01*
X95347765Y-53001843D01*
X95100000Y-52952560D01*
X93500000Y-52952560D01*
X93252235Y-53001843D01*
X93042191Y-53142191D01*
X92901843Y-53352235D01*
X92855307Y-53586187D01*
X92807745Y-53571861D01*
X91979605Y-54400000D01*
X92807745Y-55228139D01*
X92855307Y-55213813D01*
X92901843Y-55447765D01*
X93042191Y-55657809D01*
X93252235Y-55798157D01*
X93500000Y-55847440D01*
X95100000Y-55847440D01*
X95347765Y-55798157D01*
X95542942Y-55667743D01*
X97215198Y-57340000D01*
X97069126Y-57340000D01*
X96688720Y-57497569D01*
X96666289Y-57520000D01*
X96616570Y-57520000D01*
X96462884Y-57417310D01*
X96162500Y-57357560D01*
X94837500Y-57357560D01*
X94537116Y-57417310D01*
X94282464Y-57587464D01*
X94112310Y-57842116D01*
X94052560Y-58142500D01*
X94052560Y-58417500D01*
X94090971Y-58610603D01*
X93980874Y-58565000D01*
X93569126Y-58565000D01*
X93256319Y-58694569D01*
X93251250Y-58689500D01*
X92427000Y-58689500D01*
X92427000Y-58709500D01*
X92173000Y-58709500D01*
X92173000Y-58689500D01*
X92153000Y-58689500D01*
X92153000Y-58435500D01*
X92173000Y-58435500D01*
X92173000Y-57648750D01*
X92427000Y-57648750D01*
X92427000Y-58435500D01*
X93251250Y-58435500D01*
X93410000Y-58276750D01*
X93410000Y-57998691D01*
X93313327Y-57765302D01*
X93134699Y-57586673D01*
X92901310Y-57490000D01*
X92585750Y-57490000D01*
X92427000Y-57648750D01*
X92173000Y-57648750D01*
X92014250Y-57490000D01*
X91698690Y-57490000D01*
X91487961Y-57577287D01*
X91287727Y-57443495D01*
X90956250Y-57377560D01*
X90518750Y-57377560D01*
X90187273Y-57443495D01*
X90024969Y-57551943D01*
X89959698Y-57486673D01*
X89797882Y-57419647D01*
X89832809Y-57396309D01*
X89973157Y-57186265D01*
X90022440Y-56938500D01*
X90022440Y-55438500D01*
X90016323Y-55407745D01*
X90971861Y-55407745D01*
X91045995Y-55653864D01*
X91583223Y-55846965D01*
X92153454Y-55819778D01*
X92554005Y-55653864D01*
X92628139Y-55407745D01*
X91800000Y-54579605D01*
X90971861Y-55407745D01*
X90016323Y-55407745D01*
X89973157Y-55190735D01*
X89832809Y-54980691D01*
X89622765Y-54840343D01*
X89375000Y-54791060D01*
X88910849Y-54791060D01*
X89005404Y-54655982D01*
X89041606Y-54589984D01*
X89073157Y-54542765D01*
X89122440Y-54295000D01*
X89122440Y-54183223D01*
X90353035Y-54183223D01*
X90380222Y-54753454D01*
X90546136Y-55154005D01*
X90792255Y-55228139D01*
X91620395Y-54400000D01*
X90792255Y-53571861D01*
X90546136Y-53645995D01*
X90353035Y-54183223D01*
X89122440Y-54183223D01*
X89122440Y-53392255D01*
X90971861Y-53392255D01*
X91800000Y-54220395D01*
X92628139Y-53392255D01*
X92554005Y-53146136D01*
X92016777Y-52953035D01*
X91446546Y-52980222D01*
X91045995Y-53146136D01*
X90971861Y-53392255D01*
X89122440Y-53392255D01*
X89122440Y-52455000D01*
X89108061Y-52382711D01*
X89106556Y-52323969D01*
X89088134Y-52282528D01*
X89073157Y-52207235D01*
X89017898Y-52124535D01*
X89003938Y-52093132D01*
X88521727Y-51410000D01*
X107065000Y-51410000D01*
X107065000Y-61725132D01*
X107065000Y-61725132D01*
G37*
X107065000Y-61725132D02*
X106977431Y-61513720D01*
X106686280Y-61222569D01*
X106305874Y-61065000D01*
X105894126Y-61065000D01*
X105513720Y-61222569D01*
X105445808Y-61290481D01*
X105406239Y-61231261D01*
X105125227Y-61043495D01*
X104793750Y-60977560D01*
X104518352Y-60977560D01*
X104812727Y-60919005D01*
X104987500Y-60802226D01*
X105162273Y-60919005D01*
X105493750Y-60984940D01*
X106006250Y-60984940D01*
X106337727Y-60919005D01*
X106618739Y-60731239D01*
X106806505Y-60450227D01*
X106872440Y-60118750D01*
X106872440Y-59681250D01*
X106806505Y-59349773D01*
X106647964Y-59112500D01*
X106806505Y-58875227D01*
X106872440Y-58543750D01*
X106872440Y-58106250D01*
X106806505Y-57774773D01*
X106618739Y-57493761D01*
X106337727Y-57305995D01*
X106006250Y-57240060D01*
X105739861Y-57240060D01*
X105490331Y-56990530D01*
X105447929Y-56927071D01*
X105196537Y-56759096D01*
X104974852Y-56715000D01*
X104974847Y-56715000D01*
X104900000Y-56700112D01*
X104825153Y-56715000D01*
X98739802Y-56715000D01*
X95940331Y-53915530D01*
X95897929Y-53852071D01*
X95747440Y-53751517D01*
X95747440Y-53600000D01*
X95698157Y-53352235D01*
X95557809Y-53142191D01*
X95479451Y-53089833D01*
X96665000Y-53089833D01*
X96665000Y-53760167D01*
X96921526Y-54379476D01*
X97395524Y-54853474D01*
X98014833Y-55110000D01*
X98685167Y-55110000D01*
X99304476Y-54853474D01*
X99778474Y-54379476D01*
X100002113Y-53839561D01*
X100715000Y-53839561D01*
X100715000Y-54410439D01*
X100933466Y-54937862D01*
X101337138Y-55341534D01*
X101864561Y-55560000D01*
X102435439Y-55560000D01*
X102962862Y-55341534D01*
X103171651Y-55132745D01*
X104321861Y-55132745D01*
X104395995Y-55378864D01*
X104933223Y-55571965D01*
X105503454Y-55544778D01*
X105904005Y-55378864D01*
X105978139Y-55132745D01*
X105150000Y-54304605D01*
X104321861Y-55132745D01*
X103171651Y-55132745D01*
X103366534Y-54937862D01*
X103585000Y-54410439D01*
X103585000Y-53908223D01*
X103703035Y-53908223D01*
X103730222Y-54478454D01*
X103896136Y-54879005D01*
X104142255Y-54953139D01*
X104970395Y-54125000D01*
X105329605Y-54125000D01*
X106157745Y-54953139D01*
X106403864Y-54879005D01*
X106596965Y-54341777D01*
X106569778Y-53771546D01*
X106403864Y-53370995D01*
X106157745Y-53296861D01*
X105329605Y-54125000D01*
X104970395Y-54125000D01*
X104142255Y-53296861D01*
X103896136Y-53370995D01*
X103703035Y-53908223D01*
X103585000Y-53908223D01*
X103585000Y-53839561D01*
X103366534Y-53312138D01*
X103171651Y-53117255D01*
X104321861Y-53117255D01*
X105150000Y-53945395D01*
X105978139Y-53117255D01*
X105904005Y-52871136D01*
X105366777Y-52678035D01*
X104796546Y-52705222D01*
X104395995Y-52871136D01*
X104321861Y-53117255D01*
X103171651Y-53117255D01*
X102962862Y-52908466D01*
X102435439Y-52690000D01*
X101864561Y-52690000D01*
X101337138Y-52908466D01*
X100933466Y-53312138D01*
X100715000Y-53839561D01*
X100002113Y-53839561D01*
X100035000Y-53760167D01*
X100035000Y-53089833D01*
X99778474Y-52470524D01*
X99304476Y-51996526D01*
X98685167Y-51740000D01*
X98014833Y-51740000D01*
X97395524Y-51996526D01*
X96921526Y-52470524D01*
X96665000Y-53089833D01*
X95479451Y-53089833D01*
X95347765Y-53001843D01*
X95100000Y-52952560D01*
X93500000Y-52952560D01*
X93252235Y-53001843D01*
X93042191Y-53142191D01*
X92901843Y-53352235D01*
X92855307Y-53586187D01*
X92807745Y-53571861D01*
X91979605Y-54400000D01*
X92807745Y-55228139D01*
X92855307Y-55213813D01*
X92901843Y-55447765D01*
X93042191Y-55657809D01*
X93252235Y-55798157D01*
X93500000Y-55847440D01*
X95100000Y-55847440D01*
X95347765Y-55798157D01*
X95542942Y-55667743D01*
X97215198Y-57340000D01*
X97069126Y-57340000D01*
X96688720Y-57497569D01*
X96666289Y-57520000D01*
X96616570Y-57520000D01*
X96462884Y-57417310D01*
X96162500Y-57357560D01*
X94837500Y-57357560D01*
X94537116Y-57417310D01*
X94282464Y-57587464D01*
X94112310Y-57842116D01*
X94052560Y-58142500D01*
X94052560Y-58417500D01*
X94090971Y-58610603D01*
X93980874Y-58565000D01*
X93569126Y-58565000D01*
X93256319Y-58694569D01*
X93251250Y-58689500D01*
X92427000Y-58689500D01*
X92427000Y-58709500D01*
X92173000Y-58709500D01*
X92173000Y-58689500D01*
X92153000Y-58689500D01*
X92153000Y-58435500D01*
X92173000Y-58435500D01*
X92173000Y-57648750D01*
X92427000Y-57648750D01*
X92427000Y-58435500D01*
X93251250Y-58435500D01*
X93410000Y-58276750D01*
X93410000Y-57998691D01*
X93313327Y-57765302D01*
X93134699Y-57586673D01*
X92901310Y-57490000D01*
X92585750Y-57490000D01*
X92427000Y-57648750D01*
X92173000Y-57648750D01*
X92014250Y-57490000D01*
X91698690Y-57490000D01*
X91487961Y-57577287D01*
X91287727Y-57443495D01*
X90956250Y-57377560D01*
X90518750Y-57377560D01*
X90187273Y-57443495D01*
X90024969Y-57551943D01*
X89959698Y-57486673D01*
X89797882Y-57419647D01*
X89832809Y-57396309D01*
X89973157Y-57186265D01*
X90022440Y-56938500D01*
X90022440Y-55438500D01*
X90016323Y-55407745D01*
X90971861Y-55407745D01*
X91045995Y-55653864D01*
X91583223Y-55846965D01*
X92153454Y-55819778D01*
X92554005Y-55653864D01*
X92628139Y-55407745D01*
X91800000Y-54579605D01*
X90971861Y-55407745D01*
X90016323Y-55407745D01*
X89973157Y-55190735D01*
X89832809Y-54980691D01*
X89622765Y-54840343D01*
X89375000Y-54791060D01*
X88910849Y-54791060D01*
X89005404Y-54655982D01*
X89041606Y-54589984D01*
X89073157Y-54542765D01*
X89122440Y-54295000D01*
X89122440Y-54183223D01*
X90353035Y-54183223D01*
X90380222Y-54753454D01*
X90546136Y-55154005D01*
X90792255Y-55228139D01*
X91620395Y-54400000D01*
X90792255Y-53571861D01*
X90546136Y-53645995D01*
X90353035Y-54183223D01*
X89122440Y-54183223D01*
X89122440Y-53392255D01*
X90971861Y-53392255D01*
X91800000Y-54220395D01*
X92628139Y-53392255D01*
X92554005Y-53146136D01*
X92016777Y-52953035D01*
X91446546Y-52980222D01*
X91045995Y-53146136D01*
X90971861Y-53392255D01*
X89122440Y-53392255D01*
X89122440Y-52455000D01*
X89108061Y-52382711D01*
X89106556Y-52323969D01*
X89088134Y-52282528D01*
X89073157Y-52207235D01*
X89017898Y-52124535D01*
X89003938Y-52093132D01*
X88521727Y-51410000D01*
X107065000Y-51410000D01*
X107065000Y-61725132D01*
G36*
X88248750Y-58373000D02*
X89035500Y-58373000D01*
X89035500Y-58353000D01*
X89289500Y-58353000D01*
X89289500Y-58373000D01*
X89309500Y-58373000D01*
X89309500Y-58627000D01*
X89289500Y-58627000D01*
X89289500Y-58647000D01*
X89035500Y-58647000D01*
X89035500Y-58627000D01*
X88248750Y-58627000D01*
X88090000Y-58785750D01*
X88090000Y-58884108D01*
X87846873Y-58721656D01*
X87811196Y-58714559D01*
X88198754Y-58327001D01*
X88202751Y-58327001D01*
X88248750Y-58373000D01*
X88248750Y-58373000D01*
G37*
X88248750Y-58373000D02*
X89035500Y-58373000D01*
X89035500Y-58353000D01*
X89289500Y-58353000D01*
X89289500Y-58373000D01*
X89309500Y-58373000D01*
X89309500Y-58627000D01*
X89289500Y-58627000D01*
X89289500Y-58647000D01*
X89035500Y-58647000D01*
X89035500Y-58627000D01*
X88248750Y-58627000D01*
X88090000Y-58785750D01*
X88090000Y-58884108D01*
X87846873Y-58721656D01*
X87811196Y-58714559D01*
X88198754Y-58327001D01*
X88202751Y-58327001D01*
X88248750Y-58373000D01*
G36*
X86002000Y-56061500D02*
X86022000Y-56061500D01*
X86022000Y-56315500D01*
X86002000Y-56315500D01*
X86002000Y-56335500D01*
X85748000Y-56335500D01*
X85748000Y-56315500D01*
X85728000Y-56315500D01*
X85728000Y-56061500D01*
X85748000Y-56061500D01*
X85748000Y-56041500D01*
X86002000Y-56041500D01*
X86002000Y-56061500D01*
X86002000Y-56061500D01*
G37*
X86002000Y-56061500D02*
X86022000Y-56061500D01*
X86022000Y-56315500D01*
X86002000Y-56315500D01*
X86002000Y-56335500D01*
X85748000Y-56335500D01*
X85748000Y-56315500D01*
X85728000Y-56315500D01*
X85728000Y-56061500D01*
X85748000Y-56061500D01*
X85748000Y-56041500D01*
X86002000Y-56041500D01*
X86002000Y-56061500D01*
G04 #@! TD*
M02*
