G04 #@! TF.GenerationSoftware,KiCad,Pcbnew,5.0.2-bee76a0~70~ubuntu18.04.1*
G04 #@! TF.CreationDate,2019-06-05T14:18:37+05:30*
G04 #@! TF.ProjectId,touch_switch,746f7563-685f-4737-9769-7463682e6b69,rev?*
G04 #@! TF.SameCoordinates,Original*
G04 #@! TF.FileFunction,Legend,Top*
G04 #@! TF.FilePolarity,Positive*
%FSLAX46Y46*%
G04 Gerber Fmt 4.6, Leading zero omitted, Abs format (unit mm)*
G04 Created by KiCad (PCBNEW 5.0.2-bee76a0~70~ubuntu18.04.1) date Wed Jun  5 14:18:37 2019*
%MOMM*%
%LPD*%
G01*
G04 APERTURE LIST*
%ADD10C,0.050000*%
%ADD11C,0.025000*%
%ADD12C,0.120000*%
%ADD13C,0.150000*%
G04 APERTURE END LIST*
D10*
X134528571Y-69226190D02*
X134290476Y-69226190D01*
X134290476Y-68726190D01*
X134695238Y-68964285D02*
X134861904Y-68964285D01*
X134933333Y-69226190D02*
X134695238Y-69226190D01*
X134695238Y-68726190D01*
X134933333Y-68726190D01*
X135147619Y-69226190D02*
X135147619Y-68726190D01*
X135266666Y-68726190D01*
X135338095Y-68750000D01*
X135385714Y-68797619D01*
X135409523Y-68845238D01*
X135433333Y-68940476D01*
X135433333Y-69011904D01*
X135409523Y-69107142D01*
X135385714Y-69154761D01*
X135338095Y-69202380D01*
X135266666Y-69226190D01*
X135147619Y-69226190D01*
D11*
X134738095Y-75602380D02*
X134809523Y-75626190D01*
X134928571Y-75626190D01*
X134976190Y-75602380D01*
X135000000Y-75578571D01*
X135023809Y-75530952D01*
X135023809Y-75483333D01*
X135000000Y-75435714D01*
X134976190Y-75411904D01*
X134928571Y-75388095D01*
X134833333Y-75364285D01*
X134785714Y-75340476D01*
X134761904Y-75316666D01*
X134738095Y-75269047D01*
X134738095Y-75221428D01*
X134761904Y-75173809D01*
X134785714Y-75150000D01*
X134833333Y-75126190D01*
X134952380Y-75126190D01*
X135023809Y-75150000D01*
X135238095Y-75626190D02*
X135238095Y-75126190D01*
X135738095Y-75150000D02*
X135690476Y-75126190D01*
X135619047Y-75126190D01*
X135547619Y-75150000D01*
X135500000Y-75197619D01*
X135476190Y-75245238D01*
X135452380Y-75340476D01*
X135452380Y-75411904D01*
X135476190Y-75507142D01*
X135500000Y-75554761D01*
X135547619Y-75602380D01*
X135619047Y-75626190D01*
X135666666Y-75626190D01*
X135738095Y-75602380D01*
X135761904Y-75578571D01*
X135761904Y-75411904D01*
X135666666Y-75411904D01*
X134583333Y-72076190D02*
X134750000Y-72576190D01*
X134916666Y-72076190D01*
X135369047Y-72528571D02*
X135345238Y-72552380D01*
X135273809Y-72576190D01*
X135226190Y-72576190D01*
X135154761Y-72552380D01*
X135107142Y-72504761D01*
X135083333Y-72457142D01*
X135059523Y-72361904D01*
X135059523Y-72290476D01*
X135083333Y-72195238D01*
X135107142Y-72147619D01*
X135154761Y-72100000D01*
X135226190Y-72076190D01*
X135273809Y-72076190D01*
X135345238Y-72100000D01*
X135369047Y-72123809D01*
X135869047Y-72528571D02*
X135845238Y-72552380D01*
X135773809Y-72576190D01*
X135726190Y-72576190D01*
X135654761Y-72552380D01*
X135607142Y-72504761D01*
X135583333Y-72457142D01*
X135559523Y-72361904D01*
X135559523Y-72290476D01*
X135583333Y-72195238D01*
X135607142Y-72147619D01*
X135654761Y-72100000D01*
X135726190Y-72076190D01*
X135773809Y-72076190D01*
X135845238Y-72100000D01*
X135869047Y-72123809D01*
X134969047Y-78300000D02*
X134921428Y-78276190D01*
X134850000Y-78276190D01*
X134778571Y-78300000D01*
X134730952Y-78347619D01*
X134707142Y-78395238D01*
X134683333Y-78490476D01*
X134683333Y-78561904D01*
X134707142Y-78657142D01*
X134730952Y-78704761D01*
X134778571Y-78752380D01*
X134850000Y-78776190D01*
X134897619Y-78776190D01*
X134969047Y-78752380D01*
X134992857Y-78728571D01*
X134992857Y-78561904D01*
X134897619Y-78561904D01*
X135207142Y-78776190D02*
X135207142Y-78276190D01*
X135492857Y-78776190D01*
X135492857Y-78276190D01*
X135730952Y-78776190D02*
X135730952Y-78276190D01*
X135850000Y-78276190D01*
X135921428Y-78300000D01*
X135969047Y-78347619D01*
X135992857Y-78395238D01*
X136016666Y-78490476D01*
X136016666Y-78561904D01*
X135992857Y-78657142D01*
X135969047Y-78704761D01*
X135921428Y-78752380D01*
X135850000Y-78776190D01*
X135730952Y-78776190D01*
D12*
G04 #@! TO.C,D1*
X135997665Y-68078608D02*
G75*
G03X139230000Y-68235516I1672335J1078608D01*
G01*
X135997665Y-65921392D02*
G75*
G02X139230000Y-65764484I1672335J-1078608D01*
G01*
X136628870Y-68079837D02*
G75*
G03X138710961Y-68080000I1041130J1079837D01*
G01*
X136628870Y-65920163D02*
G75*
G02X138710961Y-65920000I1041130J-1079837D01*
G01*
X139230000Y-68236000D02*
X139230000Y-68080000D01*
X139230000Y-65920000D02*
X139230000Y-65764000D01*
G04 #@! TO.C,J1*
D13*
X135152380Y-76483333D02*
X135866666Y-76483333D01*
X136009523Y-76530952D01*
X136104761Y-76626190D01*
X136152380Y-76769047D01*
X136152380Y-76864285D01*
X136152380Y-75483333D02*
X136152380Y-76054761D01*
X136152380Y-75769047D02*
X135152380Y-75769047D01*
X135295238Y-75864285D01*
X135390476Y-75959523D01*
X135438095Y-76054761D01*
G04 #@! TO.C,J2*
X131652380Y-65933333D02*
X132366666Y-65933333D01*
X132509523Y-65980952D01*
X132604761Y-66076190D01*
X132652380Y-66219047D01*
X132652380Y-66314285D01*
X131747619Y-65504761D02*
X131700000Y-65457142D01*
X131652380Y-65361904D01*
X131652380Y-65123809D01*
X131700000Y-65028571D01*
X131747619Y-64980952D01*
X131842857Y-64933333D01*
X131938095Y-64933333D01*
X132080952Y-64980952D01*
X132652380Y-65552380D01*
X132652380Y-64933333D01*
G04 #@! TO.C,D1*
X136761904Y-69152380D02*
X136761904Y-68152380D01*
X137000000Y-68152380D01*
X137142857Y-68200000D01*
X137238095Y-68295238D01*
X137285714Y-68390476D01*
X137333333Y-68580952D01*
X137333333Y-68723809D01*
X137285714Y-68914285D01*
X137238095Y-69009523D01*
X137142857Y-69104761D01*
X137000000Y-69152380D01*
X136761904Y-69152380D01*
X138285714Y-69152380D02*
X137714285Y-69152380D01*
X138000000Y-69152380D02*
X138000000Y-68152380D01*
X137904761Y-68295238D01*
X137809523Y-68390476D01*
X137714285Y-68438095D01*
G04 #@! TD*
M02*
