G04 #@! TF.GenerationSoftware,KiCad,Pcbnew,5.0.2-bee76a0~70~ubuntu18.04.1*
G04 #@! TF.CreationDate,2019-05-10T11:47:15+05:30*
G04 #@! TF.ProjectId,touch_switch,746f7563-685f-4737-9769-7463682e6b69,rev?*
G04 #@! TF.SameCoordinates,Original*
G04 #@! TF.FileFunction,Soldermask,Top*
G04 #@! TF.FilePolarity,Negative*
%FSLAX46Y46*%
G04 Gerber Fmt 4.6, Leading zero omitted, Abs format (unit mm)*
G04 Created by KiCad (PCBNEW 5.0.2-bee76a0~70~ubuntu18.04.1) date Fri May 10 11:47:15 2019*
%MOMM*%
%LPD*%
G01*
G04 APERTURE LIST*
%ADD10C,0.100000*%
G04 APERTURE END LIST*
D10*
G36*
X133950490Y-78650490D02*
X131849510Y-78650490D01*
X131849510Y-76549510D01*
X133950490Y-76549510D01*
X133950490Y-78650490D01*
X133950490Y-78650490D01*
G37*
G36*
X138750490Y-78600490D02*
X136649510Y-78600490D01*
X136649510Y-76499510D01*
X138750490Y-76499510D01*
X138750490Y-78600490D01*
X138750490Y-78600490D01*
G37*
G36*
X133206414Y-73414879D02*
X133206416Y-73414880D01*
X133206417Y-73414880D01*
X133276883Y-73444068D01*
X133397594Y-73494068D01*
X133569651Y-73609033D01*
X133715967Y-73755349D01*
X133715969Y-73755352D01*
X133830932Y-73927406D01*
X133889411Y-74068586D01*
X133910121Y-74118586D01*
X133950490Y-74321534D01*
X133950490Y-74528466D01*
X133910121Y-74731414D01*
X133830932Y-74922594D01*
X133715967Y-75094651D01*
X133569651Y-75240967D01*
X133569648Y-75240969D01*
X133397594Y-75355932D01*
X133206417Y-75435120D01*
X133206416Y-75435120D01*
X133206414Y-75435121D01*
X133003466Y-75475490D01*
X132796534Y-75475490D01*
X132593586Y-75435121D01*
X132593584Y-75435120D01*
X132593583Y-75435120D01*
X132402406Y-75355932D01*
X132230352Y-75240969D01*
X132230349Y-75240967D01*
X132084033Y-75094651D01*
X131969068Y-74922594D01*
X131889879Y-74731414D01*
X131849510Y-74528466D01*
X131849510Y-74321534D01*
X131889879Y-74118586D01*
X131910590Y-74068586D01*
X131969068Y-73927406D01*
X132084031Y-73755352D01*
X132084033Y-73755349D01*
X132230349Y-73609033D01*
X132402406Y-73494068D01*
X132523117Y-73444068D01*
X132593583Y-73414880D01*
X132593584Y-73414880D01*
X132593586Y-73414879D01*
X132796534Y-73374510D01*
X133003466Y-73374510D01*
X133206414Y-73414879D01*
X133206414Y-73414879D01*
G37*
G36*
X138006414Y-73364879D02*
X138006416Y-73364880D01*
X138006417Y-73364880D01*
X138127125Y-73414879D01*
X138197594Y-73444068D01*
X138369651Y-73559033D01*
X138515967Y-73705349D01*
X138630932Y-73877406D01*
X138710121Y-74068586D01*
X138750490Y-74271534D01*
X138750490Y-74478466D01*
X138740545Y-74528464D01*
X138710120Y-74681417D01*
X138689409Y-74731417D01*
X138630932Y-74872594D01*
X138515967Y-75044651D01*
X138369651Y-75190967D01*
X138369648Y-75190969D01*
X138197594Y-75305932D01*
X138006417Y-75385120D01*
X138006416Y-75385120D01*
X138006414Y-75385121D01*
X137803466Y-75425490D01*
X137596534Y-75425490D01*
X137393586Y-75385121D01*
X137393584Y-75385120D01*
X137393583Y-75385120D01*
X137202406Y-75305932D01*
X137030352Y-75190969D01*
X137030349Y-75190967D01*
X136884033Y-75044651D01*
X136769068Y-74872594D01*
X136710591Y-74731417D01*
X136689880Y-74681417D01*
X136659456Y-74528464D01*
X136649510Y-74478466D01*
X136649510Y-74271534D01*
X136689879Y-74068586D01*
X136769068Y-73877406D01*
X136884033Y-73705349D01*
X137030349Y-73559033D01*
X137202406Y-73444068D01*
X137272875Y-73414879D01*
X137393583Y-73364880D01*
X137393584Y-73364880D01*
X137393586Y-73364879D01*
X137596534Y-73324510D01*
X137803466Y-73324510D01*
X138006414Y-73364879D01*
X138006414Y-73364879D01*
G37*
G36*
X133206414Y-70239879D02*
X133206416Y-70239880D01*
X133206417Y-70239880D01*
X133276883Y-70269068D01*
X133397594Y-70319068D01*
X133569651Y-70434033D01*
X133715967Y-70580349D01*
X133715969Y-70580352D01*
X133830932Y-70752406D01*
X133889411Y-70893586D01*
X133910121Y-70943586D01*
X133950490Y-71146534D01*
X133950490Y-71353466D01*
X133910121Y-71556414D01*
X133830932Y-71747594D01*
X133715967Y-71919651D01*
X133569651Y-72065967D01*
X133569648Y-72065969D01*
X133397594Y-72180932D01*
X133206417Y-72260120D01*
X133206416Y-72260120D01*
X133206414Y-72260121D01*
X133003466Y-72300490D01*
X132796534Y-72300490D01*
X132593586Y-72260121D01*
X132593584Y-72260120D01*
X132593583Y-72260120D01*
X132402406Y-72180932D01*
X132230352Y-72065969D01*
X132230349Y-72065967D01*
X132084033Y-71919651D01*
X131969068Y-71747594D01*
X131889879Y-71556414D01*
X131849510Y-71353466D01*
X131849510Y-71146534D01*
X131889879Y-70943586D01*
X131910590Y-70893586D01*
X131969068Y-70752406D01*
X132084031Y-70580352D01*
X132084033Y-70580349D01*
X132230349Y-70434033D01*
X132402406Y-70319068D01*
X132523117Y-70269068D01*
X132593583Y-70239880D01*
X132593584Y-70239880D01*
X132593586Y-70239879D01*
X132796534Y-70199510D01*
X133003466Y-70199510D01*
X133206414Y-70239879D01*
X133206414Y-70239879D01*
G37*
G36*
X138006414Y-70189879D02*
X138006416Y-70189880D01*
X138006417Y-70189880D01*
X138127125Y-70239879D01*
X138197594Y-70269068D01*
X138369651Y-70384033D01*
X138515967Y-70530349D01*
X138630932Y-70702406D01*
X138710121Y-70893586D01*
X138750490Y-71096534D01*
X138750490Y-71303466D01*
X138740545Y-71353464D01*
X138710120Y-71506417D01*
X138689409Y-71556417D01*
X138630932Y-71697594D01*
X138515967Y-71869651D01*
X138369651Y-72015967D01*
X138369648Y-72015969D01*
X138197594Y-72130932D01*
X138006417Y-72210120D01*
X138006416Y-72210120D01*
X138006414Y-72210121D01*
X137803466Y-72250490D01*
X137596534Y-72250490D01*
X137393586Y-72210121D01*
X137393584Y-72210120D01*
X137393583Y-72210120D01*
X137202406Y-72130932D01*
X137030352Y-72015969D01*
X137030349Y-72015967D01*
X136884033Y-71869651D01*
X136769068Y-71697594D01*
X136710591Y-71556417D01*
X136689880Y-71506417D01*
X136659456Y-71353464D01*
X136649510Y-71303466D01*
X136649510Y-71096534D01*
X136689879Y-70893586D01*
X136769068Y-70702406D01*
X136884033Y-70530349D01*
X137030349Y-70384033D01*
X137202406Y-70269068D01*
X137272875Y-70239879D01*
X137393583Y-70189880D01*
X137393584Y-70189880D01*
X137393586Y-70189879D01*
X137596534Y-70149510D01*
X137803466Y-70149510D01*
X138006414Y-70189879D01*
X138006414Y-70189879D01*
G37*
G36*
X133206414Y-67064879D02*
X133206416Y-67064880D01*
X133206417Y-67064880D01*
X133275910Y-67093665D01*
X133397594Y-67144068D01*
X133569651Y-67259033D01*
X133715967Y-67405349D01*
X133830932Y-67577406D01*
X133910121Y-67768586D01*
X133950490Y-67971534D01*
X133950490Y-68178466D01*
X133910121Y-68381414D01*
X133830932Y-68572594D01*
X133715967Y-68744651D01*
X133569651Y-68890967D01*
X133569648Y-68890969D01*
X133397594Y-69005932D01*
X133206417Y-69085120D01*
X133206416Y-69085120D01*
X133206414Y-69085121D01*
X133003466Y-69125490D01*
X132796534Y-69125490D01*
X132593586Y-69085121D01*
X132593584Y-69085120D01*
X132593583Y-69085120D01*
X132402406Y-69005932D01*
X132230352Y-68890969D01*
X132230349Y-68890967D01*
X132084033Y-68744651D01*
X131969068Y-68572594D01*
X131889879Y-68381414D01*
X131849510Y-68178466D01*
X131849510Y-67971534D01*
X131889879Y-67768586D01*
X131969068Y-67577406D01*
X132084033Y-67405349D01*
X132230349Y-67259033D01*
X132402406Y-67144068D01*
X132524090Y-67093665D01*
X132593583Y-67064880D01*
X132593584Y-67064880D01*
X132593586Y-67064879D01*
X132796534Y-67024510D01*
X133003466Y-67024510D01*
X133206414Y-67064879D01*
X133206414Y-67064879D01*
G37*
G36*
X139891000Y-67951000D02*
X137989000Y-67951000D01*
X137989000Y-66049000D01*
X139891000Y-66049000D01*
X139891000Y-67951000D01*
X139891000Y-67951000D01*
G37*
G36*
X136677396Y-66085546D02*
X136850466Y-66157234D01*
X137006230Y-66261312D01*
X137138688Y-66393770D01*
X137242766Y-66549534D01*
X137314454Y-66722604D01*
X137351000Y-66906333D01*
X137351000Y-67093667D01*
X137314454Y-67277396D01*
X137242766Y-67450466D01*
X137138688Y-67606230D01*
X137006230Y-67738688D01*
X136850466Y-67842766D01*
X136677396Y-67914454D01*
X136493667Y-67951000D01*
X136306333Y-67951000D01*
X136122604Y-67914454D01*
X135949534Y-67842766D01*
X135793770Y-67738688D01*
X135661312Y-67606230D01*
X135557234Y-67450466D01*
X135485546Y-67277396D01*
X135449000Y-67093667D01*
X135449000Y-66906333D01*
X135485546Y-66722604D01*
X135557234Y-66549534D01*
X135661312Y-66393770D01*
X135793770Y-66261312D01*
X135949534Y-66157234D01*
X136122604Y-66085546D01*
X136306333Y-66049000D01*
X136493667Y-66049000D01*
X136677396Y-66085546D01*
X136677396Y-66085546D01*
G37*
M02*
