G04 #@! TF.GenerationSoftware,KiCad,Pcbnew,5.0.2-bee76a0~70~ubuntu18.04.1*
G04 #@! TF.CreationDate,2020-01-23T08:49:23+05:30*
G04 #@! TF.ProjectId,pir_v1_0,7069725f-7631-45f3-902e-6b696361645f,rev?*
G04 #@! TF.SameCoordinates,Original*
G04 #@! TF.FileFunction,Legend,Top*
G04 #@! TF.FilePolarity,Positive*
%FSLAX46Y46*%
G04 Gerber Fmt 4.6, Leading zero omitted, Abs format (unit mm)*
G04 Created by KiCad (PCBNEW 5.0.2-bee76a0~70~ubuntu18.04.1) date Thu Jan 23 08:49:23 2020*
%MOMM*%
%LPD*%
G01*
G04 APERTURE LIST*
%ADD10C,0.200000*%
%ADD11C,0.120000*%
%ADD12C,0.150000*%
G04 APERTURE END LIST*
D10*
X93264285Y-74679761D02*
X93407142Y-74727380D01*
X93645238Y-74727380D01*
X93740476Y-74679761D01*
X93788095Y-74632142D01*
X93835714Y-74536904D01*
X93835714Y-74441666D01*
X93788095Y-74346428D01*
X93740476Y-74298809D01*
X93645238Y-74251190D01*
X93454761Y-74203571D01*
X93359523Y-74155952D01*
X93311904Y-74108333D01*
X93264285Y-74013095D01*
X93264285Y-73917857D01*
X93311904Y-73822619D01*
X93359523Y-73775000D01*
X93454761Y-73727380D01*
X93692857Y-73727380D01*
X93835714Y-73775000D01*
X80464285Y-73727380D02*
X81035714Y-73727380D01*
X80750000Y-74727380D02*
X80750000Y-73727380D01*
X70597619Y-61989285D02*
X69597619Y-62322619D01*
X70597619Y-62655952D01*
X69597619Y-63132142D02*
X69645238Y-63036904D01*
X69692857Y-62989285D01*
X69788095Y-62941666D01*
X70073809Y-62941666D01*
X70169047Y-62989285D01*
X70216666Y-63036904D01*
X70264285Y-63132142D01*
X70264285Y-63275000D01*
X70216666Y-63370238D01*
X70169047Y-63417857D01*
X70073809Y-63465476D01*
X69788095Y-63465476D01*
X69692857Y-63417857D01*
X69645238Y-63370238D01*
X69597619Y-63275000D01*
X69597619Y-63132142D01*
X70053571Y-64644047D02*
X70053571Y-65405952D01*
X69694047Y-59946428D02*
X70455952Y-59946428D01*
X70075000Y-60327380D02*
X70075000Y-59565476D01*
X84015476Y-76252380D02*
X84015476Y-75252380D01*
X84586904Y-76252380D01*
X84586904Y-75252380D01*
X85063095Y-75252380D02*
X85063095Y-76061904D01*
X85110714Y-76157142D01*
X85158333Y-76204761D01*
X85253571Y-76252380D01*
X85444047Y-76252380D01*
X85539285Y-76204761D01*
X85586904Y-76157142D01*
X85634523Y-76061904D01*
X85634523Y-75252380D01*
X86872619Y-75871428D02*
X87634523Y-75871428D01*
X88729761Y-75252380D02*
X89063095Y-76252380D01*
X89396428Y-75252380D01*
X90253571Y-76252380D02*
X89682142Y-76252380D01*
X89967857Y-76252380D02*
X89967857Y-75252380D01*
X89872619Y-75395238D01*
X89777380Y-75490476D01*
X89682142Y-75538095D01*
X90682142Y-76157142D02*
X90729761Y-76204761D01*
X90682142Y-76252380D01*
X90634523Y-76204761D01*
X90682142Y-76157142D01*
X90682142Y-76252380D01*
X91348809Y-75252380D02*
X91444047Y-75252380D01*
X91539285Y-75300000D01*
X91586904Y-75347619D01*
X91634523Y-75442857D01*
X91682142Y-75633333D01*
X91682142Y-75871428D01*
X91634523Y-76061904D01*
X91586904Y-76157142D01*
X91539285Y-76204761D01*
X91444047Y-76252380D01*
X91348809Y-76252380D01*
X91253571Y-76204761D01*
X91205952Y-76157142D01*
X91158333Y-76061904D01*
X91110714Y-75871428D01*
X91110714Y-75633333D01*
X91158333Y-75442857D01*
X91205952Y-75347619D01*
X91253571Y-75300000D01*
X91348809Y-75252380D01*
D11*
G04 #@! TO.C,J2*
X70795000Y-58580000D02*
X72125000Y-58580000D01*
X70795000Y-59910000D02*
X70795000Y-58580000D01*
X70795000Y-61180000D02*
X73455000Y-61180000D01*
X73455000Y-61180000D02*
X73455000Y-66320000D01*
X70795000Y-61180000D02*
X70795000Y-66320000D01*
X70795000Y-66320000D02*
X73455000Y-66320000D01*
G04 #@! TO.C,C1*
X92810000Y-59512779D02*
X92810000Y-59187221D01*
X91790000Y-59512779D02*
X91790000Y-59187221D01*
G04 #@! TO.C,C2*
X84145000Y-54375000D02*
G75*
G03X84145000Y-54375000I-2620000J0D01*
G01*
X81525000Y-51795000D02*
X81525000Y-56955000D01*
X81565000Y-51795000D02*
X81565000Y-56955000D01*
X81605000Y-51796000D02*
X81605000Y-56954000D01*
X81645000Y-51797000D02*
X81645000Y-56953000D01*
X81685000Y-51799000D02*
X81685000Y-56951000D01*
X81725000Y-51802000D02*
X81725000Y-56948000D01*
X81765000Y-51806000D02*
X81765000Y-53335000D01*
X81765000Y-55415000D02*
X81765000Y-56944000D01*
X81805000Y-51810000D02*
X81805000Y-53335000D01*
X81805000Y-55415000D02*
X81805000Y-56940000D01*
X81845000Y-51814000D02*
X81845000Y-53335000D01*
X81845000Y-55415000D02*
X81845000Y-56936000D01*
X81885000Y-51819000D02*
X81885000Y-53335000D01*
X81885000Y-55415000D02*
X81885000Y-56931000D01*
X81925000Y-51825000D02*
X81925000Y-53335000D01*
X81925000Y-55415000D02*
X81925000Y-56925000D01*
X81965000Y-51832000D02*
X81965000Y-53335000D01*
X81965000Y-55415000D02*
X81965000Y-56918000D01*
X82005000Y-51839000D02*
X82005000Y-53335000D01*
X82005000Y-55415000D02*
X82005000Y-56911000D01*
X82045000Y-51847000D02*
X82045000Y-53335000D01*
X82045000Y-55415000D02*
X82045000Y-56903000D01*
X82085000Y-51855000D02*
X82085000Y-53335000D01*
X82085000Y-55415000D02*
X82085000Y-56895000D01*
X82125000Y-51864000D02*
X82125000Y-53335000D01*
X82125000Y-55415000D02*
X82125000Y-56886000D01*
X82165000Y-51874000D02*
X82165000Y-53335000D01*
X82165000Y-55415000D02*
X82165000Y-56876000D01*
X82205000Y-51884000D02*
X82205000Y-53335000D01*
X82205000Y-55415000D02*
X82205000Y-56866000D01*
X82246000Y-51895000D02*
X82246000Y-53335000D01*
X82246000Y-55415000D02*
X82246000Y-56855000D01*
X82286000Y-51907000D02*
X82286000Y-53335000D01*
X82286000Y-55415000D02*
X82286000Y-56843000D01*
X82326000Y-51920000D02*
X82326000Y-53335000D01*
X82326000Y-55415000D02*
X82326000Y-56830000D01*
X82366000Y-51933000D02*
X82366000Y-53335000D01*
X82366000Y-55415000D02*
X82366000Y-56817000D01*
X82406000Y-51947000D02*
X82406000Y-53335000D01*
X82406000Y-55415000D02*
X82406000Y-56803000D01*
X82446000Y-51961000D02*
X82446000Y-53335000D01*
X82446000Y-55415000D02*
X82446000Y-56789000D01*
X82486000Y-51977000D02*
X82486000Y-53335000D01*
X82486000Y-55415000D02*
X82486000Y-56773000D01*
X82526000Y-51993000D02*
X82526000Y-53335000D01*
X82526000Y-55415000D02*
X82526000Y-56757000D01*
X82566000Y-52010000D02*
X82566000Y-53335000D01*
X82566000Y-55415000D02*
X82566000Y-56740000D01*
X82606000Y-52027000D02*
X82606000Y-53335000D01*
X82606000Y-55415000D02*
X82606000Y-56723000D01*
X82646000Y-52046000D02*
X82646000Y-53335000D01*
X82646000Y-55415000D02*
X82646000Y-56704000D01*
X82686000Y-52065000D02*
X82686000Y-53335000D01*
X82686000Y-55415000D02*
X82686000Y-56685000D01*
X82726000Y-52085000D02*
X82726000Y-53335000D01*
X82726000Y-55415000D02*
X82726000Y-56665000D01*
X82766000Y-52107000D02*
X82766000Y-53335000D01*
X82766000Y-55415000D02*
X82766000Y-56643000D01*
X82806000Y-52128000D02*
X82806000Y-53335000D01*
X82806000Y-55415000D02*
X82806000Y-56622000D01*
X82846000Y-52151000D02*
X82846000Y-53335000D01*
X82846000Y-55415000D02*
X82846000Y-56599000D01*
X82886000Y-52175000D02*
X82886000Y-53335000D01*
X82886000Y-55415000D02*
X82886000Y-56575000D01*
X82926000Y-52200000D02*
X82926000Y-53335000D01*
X82926000Y-55415000D02*
X82926000Y-56550000D01*
X82966000Y-52226000D02*
X82966000Y-53335000D01*
X82966000Y-55415000D02*
X82966000Y-56524000D01*
X83006000Y-52253000D02*
X83006000Y-53335000D01*
X83006000Y-55415000D02*
X83006000Y-56497000D01*
X83046000Y-52280000D02*
X83046000Y-53335000D01*
X83046000Y-55415000D02*
X83046000Y-56470000D01*
X83086000Y-52310000D02*
X83086000Y-53335000D01*
X83086000Y-55415000D02*
X83086000Y-56440000D01*
X83126000Y-52340000D02*
X83126000Y-53335000D01*
X83126000Y-55415000D02*
X83126000Y-56410000D01*
X83166000Y-52371000D02*
X83166000Y-53335000D01*
X83166000Y-55415000D02*
X83166000Y-56379000D01*
X83206000Y-52404000D02*
X83206000Y-53335000D01*
X83206000Y-55415000D02*
X83206000Y-56346000D01*
X83246000Y-52438000D02*
X83246000Y-53335000D01*
X83246000Y-55415000D02*
X83246000Y-56312000D01*
X83286000Y-52474000D02*
X83286000Y-53335000D01*
X83286000Y-55415000D02*
X83286000Y-56276000D01*
X83326000Y-52511000D02*
X83326000Y-53335000D01*
X83326000Y-55415000D02*
X83326000Y-56239000D01*
X83366000Y-52549000D02*
X83366000Y-53335000D01*
X83366000Y-55415000D02*
X83366000Y-56201000D01*
X83406000Y-52590000D02*
X83406000Y-53335000D01*
X83406000Y-55415000D02*
X83406000Y-56160000D01*
X83446000Y-52632000D02*
X83446000Y-53335000D01*
X83446000Y-55415000D02*
X83446000Y-56118000D01*
X83486000Y-52676000D02*
X83486000Y-53335000D01*
X83486000Y-55415000D02*
X83486000Y-56074000D01*
X83526000Y-52722000D02*
X83526000Y-53335000D01*
X83526000Y-55415000D02*
X83526000Y-56028000D01*
X83566000Y-52770000D02*
X83566000Y-53335000D01*
X83566000Y-55415000D02*
X83566000Y-55980000D01*
X83606000Y-52821000D02*
X83606000Y-53335000D01*
X83606000Y-55415000D02*
X83606000Y-55929000D01*
X83646000Y-52875000D02*
X83646000Y-53335000D01*
X83646000Y-55415000D02*
X83646000Y-55875000D01*
X83686000Y-52932000D02*
X83686000Y-53335000D01*
X83686000Y-55415000D02*
X83686000Y-55818000D01*
X83726000Y-52992000D02*
X83726000Y-53335000D01*
X83726000Y-55415000D02*
X83726000Y-55758000D01*
X83766000Y-53056000D02*
X83766000Y-53335000D01*
X83766000Y-55415000D02*
X83766000Y-55694000D01*
X83806000Y-53124000D02*
X83806000Y-53335000D01*
X83806000Y-55415000D02*
X83806000Y-55626000D01*
X83846000Y-53197000D02*
X83846000Y-55553000D01*
X83886000Y-53277000D02*
X83886000Y-55473000D01*
X83926000Y-53364000D02*
X83926000Y-55386000D01*
X83966000Y-53460000D02*
X83966000Y-55290000D01*
X84006000Y-53570000D02*
X84006000Y-55180000D01*
X84046000Y-53698000D02*
X84046000Y-55052000D01*
X84086000Y-53857000D02*
X84086000Y-54893000D01*
X84126000Y-54091000D02*
X84126000Y-54659000D01*
X78720225Y-52900000D02*
X79220225Y-52900000D01*
X78970225Y-52650000D02*
X78970225Y-53150000D01*
G04 #@! TO.C,C3*
X95604775Y-56125000D02*
X95604775Y-55625000D01*
X95854775Y-55875000D02*
X95354775Y-55875000D01*
X90449000Y-54684000D02*
X90449000Y-54116000D01*
X90489000Y-54918000D02*
X90489000Y-53882000D01*
X90529000Y-55077000D02*
X90529000Y-53723000D01*
X90569000Y-55205000D02*
X90569000Y-53595000D01*
X90609000Y-55315000D02*
X90609000Y-53485000D01*
X90649000Y-55411000D02*
X90649000Y-53389000D01*
X90689000Y-55498000D02*
X90689000Y-53302000D01*
X90729000Y-55578000D02*
X90729000Y-53222000D01*
X90769000Y-53360000D02*
X90769000Y-53149000D01*
X90769000Y-55651000D02*
X90769000Y-55440000D01*
X90809000Y-53360000D02*
X90809000Y-53081000D01*
X90809000Y-55719000D02*
X90809000Y-55440000D01*
X90849000Y-53360000D02*
X90849000Y-53017000D01*
X90849000Y-55783000D02*
X90849000Y-55440000D01*
X90889000Y-53360000D02*
X90889000Y-52957000D01*
X90889000Y-55843000D02*
X90889000Y-55440000D01*
X90929000Y-53360000D02*
X90929000Y-52900000D01*
X90929000Y-55900000D02*
X90929000Y-55440000D01*
X90969000Y-53360000D02*
X90969000Y-52846000D01*
X90969000Y-55954000D02*
X90969000Y-55440000D01*
X91009000Y-53360000D02*
X91009000Y-52795000D01*
X91009000Y-56005000D02*
X91009000Y-55440000D01*
X91049000Y-53360000D02*
X91049000Y-52747000D01*
X91049000Y-56053000D02*
X91049000Y-55440000D01*
X91089000Y-53360000D02*
X91089000Y-52701000D01*
X91089000Y-56099000D02*
X91089000Y-55440000D01*
X91129000Y-53360000D02*
X91129000Y-52657000D01*
X91129000Y-56143000D02*
X91129000Y-55440000D01*
X91169000Y-53360000D02*
X91169000Y-52615000D01*
X91169000Y-56185000D02*
X91169000Y-55440000D01*
X91209000Y-53360000D02*
X91209000Y-52574000D01*
X91209000Y-56226000D02*
X91209000Y-55440000D01*
X91249000Y-53360000D02*
X91249000Y-52536000D01*
X91249000Y-56264000D02*
X91249000Y-55440000D01*
X91289000Y-53360000D02*
X91289000Y-52499000D01*
X91289000Y-56301000D02*
X91289000Y-55440000D01*
X91329000Y-53360000D02*
X91329000Y-52463000D01*
X91329000Y-56337000D02*
X91329000Y-55440000D01*
X91369000Y-53360000D02*
X91369000Y-52429000D01*
X91369000Y-56371000D02*
X91369000Y-55440000D01*
X91409000Y-53360000D02*
X91409000Y-52396000D01*
X91409000Y-56404000D02*
X91409000Y-55440000D01*
X91449000Y-53360000D02*
X91449000Y-52365000D01*
X91449000Y-56435000D02*
X91449000Y-55440000D01*
X91489000Y-53360000D02*
X91489000Y-52335000D01*
X91489000Y-56465000D02*
X91489000Y-55440000D01*
X91529000Y-53360000D02*
X91529000Y-52305000D01*
X91529000Y-56495000D02*
X91529000Y-55440000D01*
X91569000Y-53360000D02*
X91569000Y-52278000D01*
X91569000Y-56522000D02*
X91569000Y-55440000D01*
X91609000Y-53360000D02*
X91609000Y-52251000D01*
X91609000Y-56549000D02*
X91609000Y-55440000D01*
X91649000Y-53360000D02*
X91649000Y-52225000D01*
X91649000Y-56575000D02*
X91649000Y-55440000D01*
X91689000Y-53360000D02*
X91689000Y-52200000D01*
X91689000Y-56600000D02*
X91689000Y-55440000D01*
X91729000Y-53360000D02*
X91729000Y-52176000D01*
X91729000Y-56624000D02*
X91729000Y-55440000D01*
X91769000Y-53360000D02*
X91769000Y-52153000D01*
X91769000Y-56647000D02*
X91769000Y-55440000D01*
X91809000Y-53360000D02*
X91809000Y-52132000D01*
X91809000Y-56668000D02*
X91809000Y-55440000D01*
X91849000Y-53360000D02*
X91849000Y-52110000D01*
X91849000Y-56690000D02*
X91849000Y-55440000D01*
X91889000Y-53360000D02*
X91889000Y-52090000D01*
X91889000Y-56710000D02*
X91889000Y-55440000D01*
X91929000Y-53360000D02*
X91929000Y-52071000D01*
X91929000Y-56729000D02*
X91929000Y-55440000D01*
X91969000Y-53360000D02*
X91969000Y-52052000D01*
X91969000Y-56748000D02*
X91969000Y-55440000D01*
X92009000Y-53360000D02*
X92009000Y-52035000D01*
X92009000Y-56765000D02*
X92009000Y-55440000D01*
X92049000Y-53360000D02*
X92049000Y-52018000D01*
X92049000Y-56782000D02*
X92049000Y-55440000D01*
X92089000Y-53360000D02*
X92089000Y-52002000D01*
X92089000Y-56798000D02*
X92089000Y-55440000D01*
X92129000Y-53360000D02*
X92129000Y-51986000D01*
X92129000Y-56814000D02*
X92129000Y-55440000D01*
X92169000Y-53360000D02*
X92169000Y-51972000D01*
X92169000Y-56828000D02*
X92169000Y-55440000D01*
X92209000Y-53360000D02*
X92209000Y-51958000D01*
X92209000Y-56842000D02*
X92209000Y-55440000D01*
X92249000Y-53360000D02*
X92249000Y-51945000D01*
X92249000Y-56855000D02*
X92249000Y-55440000D01*
X92289000Y-53360000D02*
X92289000Y-51932000D01*
X92289000Y-56868000D02*
X92289000Y-55440000D01*
X92329000Y-53360000D02*
X92329000Y-51920000D01*
X92329000Y-56880000D02*
X92329000Y-55440000D01*
X92370000Y-53360000D02*
X92370000Y-51909000D01*
X92370000Y-56891000D02*
X92370000Y-55440000D01*
X92410000Y-53360000D02*
X92410000Y-51899000D01*
X92410000Y-56901000D02*
X92410000Y-55440000D01*
X92450000Y-53360000D02*
X92450000Y-51889000D01*
X92450000Y-56911000D02*
X92450000Y-55440000D01*
X92490000Y-53360000D02*
X92490000Y-51880000D01*
X92490000Y-56920000D02*
X92490000Y-55440000D01*
X92530000Y-53360000D02*
X92530000Y-51872000D01*
X92530000Y-56928000D02*
X92530000Y-55440000D01*
X92570000Y-53360000D02*
X92570000Y-51864000D01*
X92570000Y-56936000D02*
X92570000Y-55440000D01*
X92610000Y-53360000D02*
X92610000Y-51857000D01*
X92610000Y-56943000D02*
X92610000Y-55440000D01*
X92650000Y-53360000D02*
X92650000Y-51850000D01*
X92650000Y-56950000D02*
X92650000Y-55440000D01*
X92690000Y-53360000D02*
X92690000Y-51844000D01*
X92690000Y-56956000D02*
X92690000Y-55440000D01*
X92730000Y-53360000D02*
X92730000Y-51839000D01*
X92730000Y-56961000D02*
X92730000Y-55440000D01*
X92770000Y-53360000D02*
X92770000Y-51835000D01*
X92770000Y-56965000D02*
X92770000Y-55440000D01*
X92810000Y-53360000D02*
X92810000Y-51831000D01*
X92810000Y-56969000D02*
X92810000Y-55440000D01*
X92850000Y-56973000D02*
X92850000Y-51827000D01*
X92890000Y-56976000D02*
X92890000Y-51824000D01*
X92930000Y-56978000D02*
X92930000Y-51822000D01*
X92970000Y-56979000D02*
X92970000Y-51821000D01*
X93010000Y-56980000D02*
X93010000Y-51820000D01*
X93050000Y-56980000D02*
X93050000Y-51820000D01*
X95670000Y-54400000D02*
G75*
G03X95670000Y-54400000I-2620000J0D01*
G01*
G04 #@! TO.C,C4*
X102190000Y-58949721D02*
X102190000Y-59275279D01*
X103210000Y-58949721D02*
X103210000Y-59275279D01*
G04 #@! TO.C,C5*
X105395000Y-74100000D02*
G75*
G03X105395000Y-74100000I-2620000J0D01*
G01*
X102775000Y-76680000D02*
X102775000Y-71520000D01*
X102735000Y-76680000D02*
X102735000Y-71520000D01*
X102695000Y-76679000D02*
X102695000Y-71521000D01*
X102655000Y-76678000D02*
X102655000Y-71522000D01*
X102615000Y-76676000D02*
X102615000Y-71524000D01*
X102575000Y-76673000D02*
X102575000Y-71527000D01*
X102535000Y-76669000D02*
X102535000Y-75140000D01*
X102535000Y-73060000D02*
X102535000Y-71531000D01*
X102495000Y-76665000D02*
X102495000Y-75140000D01*
X102495000Y-73060000D02*
X102495000Y-71535000D01*
X102455000Y-76661000D02*
X102455000Y-75140000D01*
X102455000Y-73060000D02*
X102455000Y-71539000D01*
X102415000Y-76656000D02*
X102415000Y-75140000D01*
X102415000Y-73060000D02*
X102415000Y-71544000D01*
X102375000Y-76650000D02*
X102375000Y-75140000D01*
X102375000Y-73060000D02*
X102375000Y-71550000D01*
X102335000Y-76643000D02*
X102335000Y-75140000D01*
X102335000Y-73060000D02*
X102335000Y-71557000D01*
X102295000Y-76636000D02*
X102295000Y-75140000D01*
X102295000Y-73060000D02*
X102295000Y-71564000D01*
X102255000Y-76628000D02*
X102255000Y-75140000D01*
X102255000Y-73060000D02*
X102255000Y-71572000D01*
X102215000Y-76620000D02*
X102215000Y-75140000D01*
X102215000Y-73060000D02*
X102215000Y-71580000D01*
X102175000Y-76611000D02*
X102175000Y-75140000D01*
X102175000Y-73060000D02*
X102175000Y-71589000D01*
X102135000Y-76601000D02*
X102135000Y-75140000D01*
X102135000Y-73060000D02*
X102135000Y-71599000D01*
X102095000Y-76591000D02*
X102095000Y-75140000D01*
X102095000Y-73060000D02*
X102095000Y-71609000D01*
X102054000Y-76580000D02*
X102054000Y-75140000D01*
X102054000Y-73060000D02*
X102054000Y-71620000D01*
X102014000Y-76568000D02*
X102014000Y-75140000D01*
X102014000Y-73060000D02*
X102014000Y-71632000D01*
X101974000Y-76555000D02*
X101974000Y-75140000D01*
X101974000Y-73060000D02*
X101974000Y-71645000D01*
X101934000Y-76542000D02*
X101934000Y-75140000D01*
X101934000Y-73060000D02*
X101934000Y-71658000D01*
X101894000Y-76528000D02*
X101894000Y-75140000D01*
X101894000Y-73060000D02*
X101894000Y-71672000D01*
X101854000Y-76514000D02*
X101854000Y-75140000D01*
X101854000Y-73060000D02*
X101854000Y-71686000D01*
X101814000Y-76498000D02*
X101814000Y-75140000D01*
X101814000Y-73060000D02*
X101814000Y-71702000D01*
X101774000Y-76482000D02*
X101774000Y-75140000D01*
X101774000Y-73060000D02*
X101774000Y-71718000D01*
X101734000Y-76465000D02*
X101734000Y-75140000D01*
X101734000Y-73060000D02*
X101734000Y-71735000D01*
X101694000Y-76448000D02*
X101694000Y-75140000D01*
X101694000Y-73060000D02*
X101694000Y-71752000D01*
X101654000Y-76429000D02*
X101654000Y-75140000D01*
X101654000Y-73060000D02*
X101654000Y-71771000D01*
X101614000Y-76410000D02*
X101614000Y-75140000D01*
X101614000Y-73060000D02*
X101614000Y-71790000D01*
X101574000Y-76390000D02*
X101574000Y-75140000D01*
X101574000Y-73060000D02*
X101574000Y-71810000D01*
X101534000Y-76368000D02*
X101534000Y-75140000D01*
X101534000Y-73060000D02*
X101534000Y-71832000D01*
X101494000Y-76347000D02*
X101494000Y-75140000D01*
X101494000Y-73060000D02*
X101494000Y-71853000D01*
X101454000Y-76324000D02*
X101454000Y-75140000D01*
X101454000Y-73060000D02*
X101454000Y-71876000D01*
X101414000Y-76300000D02*
X101414000Y-75140000D01*
X101414000Y-73060000D02*
X101414000Y-71900000D01*
X101374000Y-76275000D02*
X101374000Y-75140000D01*
X101374000Y-73060000D02*
X101374000Y-71925000D01*
X101334000Y-76249000D02*
X101334000Y-75140000D01*
X101334000Y-73060000D02*
X101334000Y-71951000D01*
X101294000Y-76222000D02*
X101294000Y-75140000D01*
X101294000Y-73060000D02*
X101294000Y-71978000D01*
X101254000Y-76195000D02*
X101254000Y-75140000D01*
X101254000Y-73060000D02*
X101254000Y-72005000D01*
X101214000Y-76165000D02*
X101214000Y-75140000D01*
X101214000Y-73060000D02*
X101214000Y-72035000D01*
X101174000Y-76135000D02*
X101174000Y-75140000D01*
X101174000Y-73060000D02*
X101174000Y-72065000D01*
X101134000Y-76104000D02*
X101134000Y-75140000D01*
X101134000Y-73060000D02*
X101134000Y-72096000D01*
X101094000Y-76071000D02*
X101094000Y-75140000D01*
X101094000Y-73060000D02*
X101094000Y-72129000D01*
X101054000Y-76037000D02*
X101054000Y-75140000D01*
X101054000Y-73060000D02*
X101054000Y-72163000D01*
X101014000Y-76001000D02*
X101014000Y-75140000D01*
X101014000Y-73060000D02*
X101014000Y-72199000D01*
X100974000Y-75964000D02*
X100974000Y-75140000D01*
X100974000Y-73060000D02*
X100974000Y-72236000D01*
X100934000Y-75926000D02*
X100934000Y-75140000D01*
X100934000Y-73060000D02*
X100934000Y-72274000D01*
X100894000Y-75885000D02*
X100894000Y-75140000D01*
X100894000Y-73060000D02*
X100894000Y-72315000D01*
X100854000Y-75843000D02*
X100854000Y-75140000D01*
X100854000Y-73060000D02*
X100854000Y-72357000D01*
X100814000Y-75799000D02*
X100814000Y-75140000D01*
X100814000Y-73060000D02*
X100814000Y-72401000D01*
X100774000Y-75753000D02*
X100774000Y-75140000D01*
X100774000Y-73060000D02*
X100774000Y-72447000D01*
X100734000Y-75705000D02*
X100734000Y-75140000D01*
X100734000Y-73060000D02*
X100734000Y-72495000D01*
X100694000Y-75654000D02*
X100694000Y-75140000D01*
X100694000Y-73060000D02*
X100694000Y-72546000D01*
X100654000Y-75600000D02*
X100654000Y-75140000D01*
X100654000Y-73060000D02*
X100654000Y-72600000D01*
X100614000Y-75543000D02*
X100614000Y-75140000D01*
X100614000Y-73060000D02*
X100614000Y-72657000D01*
X100574000Y-75483000D02*
X100574000Y-75140000D01*
X100574000Y-73060000D02*
X100574000Y-72717000D01*
X100534000Y-75419000D02*
X100534000Y-75140000D01*
X100534000Y-73060000D02*
X100534000Y-72781000D01*
X100494000Y-75351000D02*
X100494000Y-75140000D01*
X100494000Y-73060000D02*
X100494000Y-72849000D01*
X100454000Y-75278000D02*
X100454000Y-72922000D01*
X100414000Y-75198000D02*
X100414000Y-73002000D01*
X100374000Y-75111000D02*
X100374000Y-73089000D01*
X100334000Y-75015000D02*
X100334000Y-73185000D01*
X100294000Y-74905000D02*
X100294000Y-73295000D01*
X100254000Y-74777000D02*
X100254000Y-73423000D01*
X100214000Y-74618000D02*
X100214000Y-73582000D01*
X100174000Y-74384000D02*
X100174000Y-73816000D01*
X105579775Y-75575000D02*
X105079775Y-75575000D01*
X105329775Y-75825000D02*
X105329775Y-75325000D01*
G04 #@! TO.C,C6*
X106585000Y-64362221D02*
X106585000Y-64687779D01*
X105565000Y-64362221D02*
X105565000Y-64687779D01*
G04 #@! TO.C,C7*
X103624721Y-63165000D02*
X103950279Y-63165000D01*
X103624721Y-64185000D02*
X103950279Y-64185000D01*
G04 #@! TO.C,C8*
X91465000Y-64275279D02*
X91465000Y-63949721D01*
X92485000Y-64275279D02*
X92485000Y-63949721D01*
G04 #@! TO.C,C9*
X88350279Y-65340000D02*
X88024721Y-65340000D01*
X88350279Y-66360000D02*
X88024721Y-66360000D01*
G04 #@! TO.C,C10*
X69570225Y-72600000D02*
X69570225Y-73100000D01*
X69320225Y-72850000D02*
X69820225Y-72850000D01*
X74726000Y-74041000D02*
X74726000Y-74609000D01*
X74686000Y-73807000D02*
X74686000Y-74843000D01*
X74646000Y-73648000D02*
X74646000Y-75002000D01*
X74606000Y-73520000D02*
X74606000Y-75130000D01*
X74566000Y-73410000D02*
X74566000Y-75240000D01*
X74526000Y-73314000D02*
X74526000Y-75336000D01*
X74486000Y-73227000D02*
X74486000Y-75423000D01*
X74446000Y-73147000D02*
X74446000Y-75503000D01*
X74406000Y-75365000D02*
X74406000Y-75576000D01*
X74406000Y-73074000D02*
X74406000Y-73285000D01*
X74366000Y-75365000D02*
X74366000Y-75644000D01*
X74366000Y-73006000D02*
X74366000Y-73285000D01*
X74326000Y-75365000D02*
X74326000Y-75708000D01*
X74326000Y-72942000D02*
X74326000Y-73285000D01*
X74286000Y-75365000D02*
X74286000Y-75768000D01*
X74286000Y-72882000D02*
X74286000Y-73285000D01*
X74246000Y-75365000D02*
X74246000Y-75825000D01*
X74246000Y-72825000D02*
X74246000Y-73285000D01*
X74206000Y-75365000D02*
X74206000Y-75879000D01*
X74206000Y-72771000D02*
X74206000Y-73285000D01*
X74166000Y-75365000D02*
X74166000Y-75930000D01*
X74166000Y-72720000D02*
X74166000Y-73285000D01*
X74126000Y-75365000D02*
X74126000Y-75978000D01*
X74126000Y-72672000D02*
X74126000Y-73285000D01*
X74086000Y-75365000D02*
X74086000Y-76024000D01*
X74086000Y-72626000D02*
X74086000Y-73285000D01*
X74046000Y-75365000D02*
X74046000Y-76068000D01*
X74046000Y-72582000D02*
X74046000Y-73285000D01*
X74006000Y-75365000D02*
X74006000Y-76110000D01*
X74006000Y-72540000D02*
X74006000Y-73285000D01*
X73966000Y-75365000D02*
X73966000Y-76151000D01*
X73966000Y-72499000D02*
X73966000Y-73285000D01*
X73926000Y-75365000D02*
X73926000Y-76189000D01*
X73926000Y-72461000D02*
X73926000Y-73285000D01*
X73886000Y-75365000D02*
X73886000Y-76226000D01*
X73886000Y-72424000D02*
X73886000Y-73285000D01*
X73846000Y-75365000D02*
X73846000Y-76262000D01*
X73846000Y-72388000D02*
X73846000Y-73285000D01*
X73806000Y-75365000D02*
X73806000Y-76296000D01*
X73806000Y-72354000D02*
X73806000Y-73285000D01*
X73766000Y-75365000D02*
X73766000Y-76329000D01*
X73766000Y-72321000D02*
X73766000Y-73285000D01*
X73726000Y-75365000D02*
X73726000Y-76360000D01*
X73726000Y-72290000D02*
X73726000Y-73285000D01*
X73686000Y-75365000D02*
X73686000Y-76390000D01*
X73686000Y-72260000D02*
X73686000Y-73285000D01*
X73646000Y-75365000D02*
X73646000Y-76420000D01*
X73646000Y-72230000D02*
X73646000Y-73285000D01*
X73606000Y-75365000D02*
X73606000Y-76447000D01*
X73606000Y-72203000D02*
X73606000Y-73285000D01*
X73566000Y-75365000D02*
X73566000Y-76474000D01*
X73566000Y-72176000D02*
X73566000Y-73285000D01*
X73526000Y-75365000D02*
X73526000Y-76500000D01*
X73526000Y-72150000D02*
X73526000Y-73285000D01*
X73486000Y-75365000D02*
X73486000Y-76525000D01*
X73486000Y-72125000D02*
X73486000Y-73285000D01*
X73446000Y-75365000D02*
X73446000Y-76549000D01*
X73446000Y-72101000D02*
X73446000Y-73285000D01*
X73406000Y-75365000D02*
X73406000Y-76572000D01*
X73406000Y-72078000D02*
X73406000Y-73285000D01*
X73366000Y-75365000D02*
X73366000Y-76593000D01*
X73366000Y-72057000D02*
X73366000Y-73285000D01*
X73326000Y-75365000D02*
X73326000Y-76615000D01*
X73326000Y-72035000D02*
X73326000Y-73285000D01*
X73286000Y-75365000D02*
X73286000Y-76635000D01*
X73286000Y-72015000D02*
X73286000Y-73285000D01*
X73246000Y-75365000D02*
X73246000Y-76654000D01*
X73246000Y-71996000D02*
X73246000Y-73285000D01*
X73206000Y-75365000D02*
X73206000Y-76673000D01*
X73206000Y-71977000D02*
X73206000Y-73285000D01*
X73166000Y-75365000D02*
X73166000Y-76690000D01*
X73166000Y-71960000D02*
X73166000Y-73285000D01*
X73126000Y-75365000D02*
X73126000Y-76707000D01*
X73126000Y-71943000D02*
X73126000Y-73285000D01*
X73086000Y-75365000D02*
X73086000Y-76723000D01*
X73086000Y-71927000D02*
X73086000Y-73285000D01*
X73046000Y-75365000D02*
X73046000Y-76739000D01*
X73046000Y-71911000D02*
X73046000Y-73285000D01*
X73006000Y-75365000D02*
X73006000Y-76753000D01*
X73006000Y-71897000D02*
X73006000Y-73285000D01*
X72966000Y-75365000D02*
X72966000Y-76767000D01*
X72966000Y-71883000D02*
X72966000Y-73285000D01*
X72926000Y-75365000D02*
X72926000Y-76780000D01*
X72926000Y-71870000D02*
X72926000Y-73285000D01*
X72886000Y-75365000D02*
X72886000Y-76793000D01*
X72886000Y-71857000D02*
X72886000Y-73285000D01*
X72846000Y-75365000D02*
X72846000Y-76805000D01*
X72846000Y-71845000D02*
X72846000Y-73285000D01*
X72805000Y-75365000D02*
X72805000Y-76816000D01*
X72805000Y-71834000D02*
X72805000Y-73285000D01*
X72765000Y-75365000D02*
X72765000Y-76826000D01*
X72765000Y-71824000D02*
X72765000Y-73285000D01*
X72725000Y-75365000D02*
X72725000Y-76836000D01*
X72725000Y-71814000D02*
X72725000Y-73285000D01*
X72685000Y-75365000D02*
X72685000Y-76845000D01*
X72685000Y-71805000D02*
X72685000Y-73285000D01*
X72645000Y-75365000D02*
X72645000Y-76853000D01*
X72645000Y-71797000D02*
X72645000Y-73285000D01*
X72605000Y-75365000D02*
X72605000Y-76861000D01*
X72605000Y-71789000D02*
X72605000Y-73285000D01*
X72565000Y-75365000D02*
X72565000Y-76868000D01*
X72565000Y-71782000D02*
X72565000Y-73285000D01*
X72525000Y-75365000D02*
X72525000Y-76875000D01*
X72525000Y-71775000D02*
X72525000Y-73285000D01*
X72485000Y-75365000D02*
X72485000Y-76881000D01*
X72485000Y-71769000D02*
X72485000Y-73285000D01*
X72445000Y-75365000D02*
X72445000Y-76886000D01*
X72445000Y-71764000D02*
X72445000Y-73285000D01*
X72405000Y-75365000D02*
X72405000Y-76890000D01*
X72405000Y-71760000D02*
X72405000Y-73285000D01*
X72365000Y-75365000D02*
X72365000Y-76894000D01*
X72365000Y-71756000D02*
X72365000Y-73285000D01*
X72325000Y-71752000D02*
X72325000Y-76898000D01*
X72285000Y-71749000D02*
X72285000Y-76901000D01*
X72245000Y-71747000D02*
X72245000Y-76903000D01*
X72205000Y-71746000D02*
X72205000Y-76904000D01*
X72165000Y-71745000D02*
X72165000Y-76905000D01*
X72125000Y-71745000D02*
X72125000Y-76905000D01*
X74745000Y-74325000D02*
G75*
G03X74745000Y-74325000I-2620000J0D01*
G01*
G04 #@! TO.C,R1*
X81585000Y-63099721D02*
X81585000Y-63425279D01*
X80565000Y-63099721D02*
X80565000Y-63425279D01*
G04 #@! TO.C,R2*
X82215000Y-63425279D02*
X82215000Y-63099721D01*
X83235000Y-63425279D02*
X83235000Y-63099721D01*
G04 #@! TO.C,R3*
X90112779Y-59010000D02*
X89787221Y-59010000D01*
X90112779Y-57990000D02*
X89787221Y-57990000D01*
G04 #@! TO.C,R4*
X90087779Y-59590000D02*
X89762221Y-59590000D01*
X90087779Y-60610000D02*
X89762221Y-60610000D01*
G04 #@! TO.C,R7*
X103649721Y-67460000D02*
X103975279Y-67460000D01*
X103649721Y-66440000D02*
X103975279Y-66440000D01*
G04 #@! TO.C,R8*
X106260000Y-59275279D02*
X106260000Y-58949721D01*
X105240000Y-59275279D02*
X105240000Y-58949721D01*
G04 #@! TO.C,R9*
X104735000Y-58949721D02*
X104735000Y-59275279D01*
X103715000Y-58949721D02*
X103715000Y-59275279D01*
G04 #@! TO.C,R10*
X103950279Y-64765000D02*
X103624721Y-64765000D01*
X103950279Y-65785000D02*
X103624721Y-65785000D01*
G04 #@! TO.C,R11*
X106660000Y-71762779D02*
X106660000Y-71437221D01*
X105640000Y-71762779D02*
X105640000Y-71437221D01*
G04 #@! TO.C,R12*
X103624721Y-62610000D02*
X103950279Y-62610000D01*
X103624721Y-61590000D02*
X103950279Y-61590000D01*
G04 #@! TO.C,R13*
X81699721Y-66410000D02*
X82025279Y-66410000D01*
X81699721Y-65390000D02*
X82025279Y-65390000D01*
G04 #@! TO.C,R14*
X93015000Y-63949721D02*
X93015000Y-64275279D01*
X94035000Y-63949721D02*
X94035000Y-64275279D01*
G04 #@! TO.C,R15*
X81799721Y-58785000D02*
X82125279Y-58785000D01*
X81799721Y-57765000D02*
X82125279Y-57765000D01*
G04 #@! TO.C,U2*
X98150000Y-67785000D02*
X100100000Y-67785000D01*
X98150000Y-67785000D02*
X96200000Y-67785000D01*
X98150000Y-57665000D02*
X100100000Y-57665000D01*
X98150000Y-57665000D02*
X94700000Y-57665000D01*
G04 #@! TO.C,U3*
X88575000Y-52928500D02*
X89775000Y-52928500D01*
X89775000Y-52928500D02*
X89775000Y-55628500D01*
X84975000Y-56928500D02*
X84975000Y-52928500D01*
X84975000Y-52928500D02*
X86175000Y-52928500D01*
G04 #@! TO.C,R5*
X103962779Y-69060000D02*
X103637221Y-69060000D01*
X103962779Y-68040000D02*
X103637221Y-68040000D01*
G04 #@! TO.C,RV1*
X90235000Y-67840000D02*
X89665000Y-67840000D01*
X92085000Y-67840000D02*
X91515000Y-67840000D01*
X89665000Y-69540000D02*
X89665000Y-67840000D01*
X92085000Y-69540000D02*
X92085000Y-67840000D01*
X87565000Y-71960000D02*
X87565000Y-71570000D01*
X88085000Y-71960000D02*
X87565000Y-71960000D01*
X87565000Y-69540000D02*
X87565000Y-70530000D01*
X94185000Y-69540000D02*
X87565000Y-69540000D01*
X94185000Y-70090000D02*
X94185000Y-69540000D01*
X92475000Y-71960000D02*
X88675000Y-71960000D01*
X87765000Y-73260000D02*
X87765000Y-71960000D01*
X93985000Y-73260000D02*
X87765000Y-73260000D01*
X93985000Y-72010000D02*
X93985000Y-73250000D01*
G04 #@! TO.C,RV2*
X86885000Y-72010000D02*
X86885000Y-73250000D01*
X86885000Y-73260000D02*
X80665000Y-73260000D01*
X80665000Y-73260000D02*
X80665000Y-71960000D01*
X85375000Y-71960000D02*
X81575000Y-71960000D01*
X87085000Y-70090000D02*
X87085000Y-69540000D01*
X87085000Y-69540000D02*
X80465000Y-69540000D01*
X80465000Y-69540000D02*
X80465000Y-70530000D01*
X80985000Y-71960000D02*
X80465000Y-71960000D01*
X80465000Y-71960000D02*
X80465000Y-71570000D01*
X84985000Y-69540000D02*
X84985000Y-67840000D01*
X82565000Y-69540000D02*
X82565000Y-67840000D01*
X84985000Y-67840000D02*
X84415000Y-67840000D01*
X83135000Y-67840000D02*
X82565000Y-67840000D01*
G04 #@! TO.C,J2*
D12*
X72041666Y-56752380D02*
X72041666Y-57466666D01*
X71994047Y-57609523D01*
X71898809Y-57704761D01*
X71755952Y-57752380D01*
X71660714Y-57752380D01*
X72470238Y-56847619D02*
X72517857Y-56800000D01*
X72613095Y-56752380D01*
X72851190Y-56752380D01*
X72946428Y-56800000D01*
X72994047Y-56847619D01*
X73041666Y-56942857D01*
X73041666Y-57038095D01*
X72994047Y-57180952D01*
X72422619Y-57752380D01*
X73041666Y-57752380D01*
G04 #@! TO.C,C1*
X92682142Y-59466666D02*
X92729761Y-59514285D01*
X92777380Y-59657142D01*
X92777380Y-59752380D01*
X92729761Y-59895238D01*
X92634523Y-59990476D01*
X92539285Y-60038095D01*
X92348809Y-60085714D01*
X92205952Y-60085714D01*
X92015476Y-60038095D01*
X91920238Y-59990476D01*
X91825000Y-59895238D01*
X91777380Y-59752380D01*
X91777380Y-59657142D01*
X91825000Y-59514285D01*
X91872619Y-59466666D01*
X92777380Y-58514285D02*
X92777380Y-59085714D01*
X92777380Y-58800000D02*
X91777380Y-58800000D01*
X91920238Y-58895238D01*
X92015476Y-58990476D01*
X92063095Y-59085714D01*
G04 #@! TO.C,C2*
X78708333Y-57657142D02*
X78660714Y-57704761D01*
X78517857Y-57752380D01*
X78422619Y-57752380D01*
X78279761Y-57704761D01*
X78184523Y-57609523D01*
X78136904Y-57514285D01*
X78089285Y-57323809D01*
X78089285Y-57180952D01*
X78136904Y-56990476D01*
X78184523Y-56895238D01*
X78279761Y-56800000D01*
X78422619Y-56752380D01*
X78517857Y-56752380D01*
X78660714Y-56800000D01*
X78708333Y-56847619D01*
X79089285Y-56847619D02*
X79136904Y-56800000D01*
X79232142Y-56752380D01*
X79470238Y-56752380D01*
X79565476Y-56800000D01*
X79613095Y-56847619D01*
X79660714Y-56942857D01*
X79660714Y-57038095D01*
X79613095Y-57180952D01*
X79041666Y-57752380D01*
X79660714Y-57752380D01*
G04 #@! TO.C,C3*
X92908333Y-53007142D02*
X92860714Y-53054761D01*
X92717857Y-53102380D01*
X92622619Y-53102380D01*
X92479761Y-53054761D01*
X92384523Y-52959523D01*
X92336904Y-52864285D01*
X92289285Y-52673809D01*
X92289285Y-52530952D01*
X92336904Y-52340476D01*
X92384523Y-52245238D01*
X92479761Y-52150000D01*
X92622619Y-52102380D01*
X92717857Y-52102380D01*
X92860714Y-52150000D01*
X92908333Y-52197619D01*
X93241666Y-52102380D02*
X93860714Y-52102380D01*
X93527380Y-52483333D01*
X93670238Y-52483333D01*
X93765476Y-52530952D01*
X93813095Y-52578571D01*
X93860714Y-52673809D01*
X93860714Y-52911904D01*
X93813095Y-53007142D01*
X93765476Y-53054761D01*
X93670238Y-53102380D01*
X93384523Y-53102380D01*
X93289285Y-53054761D01*
X93241666Y-53007142D01*
G04 #@! TO.C,C4*
X103157142Y-59241666D02*
X103204761Y-59289285D01*
X103252380Y-59432142D01*
X103252380Y-59527380D01*
X103204761Y-59670238D01*
X103109523Y-59765476D01*
X103014285Y-59813095D01*
X102823809Y-59860714D01*
X102680952Y-59860714D01*
X102490476Y-59813095D01*
X102395238Y-59765476D01*
X102300000Y-59670238D01*
X102252380Y-59527380D01*
X102252380Y-59432142D01*
X102300000Y-59289285D01*
X102347619Y-59241666D01*
X102585714Y-58384523D02*
X103252380Y-58384523D01*
X102204761Y-58622619D02*
X102919047Y-58860714D01*
X102919047Y-58241666D01*
G04 #@! TO.C,C5*
X102633333Y-72707142D02*
X102585714Y-72754761D01*
X102442857Y-72802380D01*
X102347619Y-72802380D01*
X102204761Y-72754761D01*
X102109523Y-72659523D01*
X102061904Y-72564285D01*
X102014285Y-72373809D01*
X102014285Y-72230952D01*
X102061904Y-72040476D01*
X102109523Y-71945238D01*
X102204761Y-71850000D01*
X102347619Y-71802380D01*
X102442857Y-71802380D01*
X102585714Y-71850000D01*
X102633333Y-71897619D01*
X103538095Y-71802380D02*
X103061904Y-71802380D01*
X103014285Y-72278571D01*
X103061904Y-72230952D01*
X103157142Y-72183333D01*
X103395238Y-72183333D01*
X103490476Y-72230952D01*
X103538095Y-72278571D01*
X103585714Y-72373809D01*
X103585714Y-72611904D01*
X103538095Y-72707142D01*
X103490476Y-72754761D01*
X103395238Y-72802380D01*
X103157142Y-72802380D01*
X103061904Y-72754761D01*
X103014285Y-72707142D01*
G04 #@! TO.C,C6*
X106457142Y-64741666D02*
X106504761Y-64789285D01*
X106552380Y-64932142D01*
X106552380Y-65027380D01*
X106504761Y-65170238D01*
X106409523Y-65265476D01*
X106314285Y-65313095D01*
X106123809Y-65360714D01*
X105980952Y-65360714D01*
X105790476Y-65313095D01*
X105695238Y-65265476D01*
X105600000Y-65170238D01*
X105552380Y-65027380D01*
X105552380Y-64932142D01*
X105600000Y-64789285D01*
X105647619Y-64741666D01*
X105552380Y-63884523D02*
X105552380Y-64075000D01*
X105600000Y-64170238D01*
X105647619Y-64217857D01*
X105790476Y-64313095D01*
X105980952Y-64360714D01*
X106361904Y-64360714D01*
X106457142Y-64313095D01*
X106504761Y-64265476D01*
X106552380Y-64170238D01*
X106552380Y-63979761D01*
X106504761Y-63884523D01*
X106457142Y-63836904D01*
X106361904Y-63789285D01*
X106123809Y-63789285D01*
X106028571Y-63836904D01*
X105980952Y-63884523D01*
X105933333Y-63979761D01*
X105933333Y-64170238D01*
X105980952Y-64265476D01*
X106028571Y-64313095D01*
X106123809Y-64360714D01*
G04 #@! TO.C,C7*
X103558333Y-64132142D02*
X103510714Y-64179761D01*
X103367857Y-64227380D01*
X103272619Y-64227380D01*
X103129761Y-64179761D01*
X103034523Y-64084523D01*
X102986904Y-63989285D01*
X102939285Y-63798809D01*
X102939285Y-63655952D01*
X102986904Y-63465476D01*
X103034523Y-63370238D01*
X103129761Y-63275000D01*
X103272619Y-63227380D01*
X103367857Y-63227380D01*
X103510714Y-63275000D01*
X103558333Y-63322619D01*
X103891666Y-63227380D02*
X104558333Y-63227380D01*
X104129761Y-64227380D01*
G04 #@! TO.C,C8*
X92382142Y-64279166D02*
X92429761Y-64326785D01*
X92477380Y-64469642D01*
X92477380Y-64564880D01*
X92429761Y-64707738D01*
X92334523Y-64802976D01*
X92239285Y-64850595D01*
X92048809Y-64898214D01*
X91905952Y-64898214D01*
X91715476Y-64850595D01*
X91620238Y-64802976D01*
X91525000Y-64707738D01*
X91477380Y-64564880D01*
X91477380Y-64469642D01*
X91525000Y-64326785D01*
X91572619Y-64279166D01*
X91905952Y-63707738D02*
X91858333Y-63802976D01*
X91810714Y-63850595D01*
X91715476Y-63898214D01*
X91667857Y-63898214D01*
X91572619Y-63850595D01*
X91525000Y-63802976D01*
X91477380Y-63707738D01*
X91477380Y-63517261D01*
X91525000Y-63422023D01*
X91572619Y-63374404D01*
X91667857Y-63326785D01*
X91715476Y-63326785D01*
X91810714Y-63374404D01*
X91858333Y-63422023D01*
X91905952Y-63517261D01*
X91905952Y-63707738D01*
X91953571Y-63802976D01*
X92001190Y-63850595D01*
X92096428Y-63898214D01*
X92286904Y-63898214D01*
X92382142Y-63850595D01*
X92429761Y-63802976D01*
X92477380Y-63707738D01*
X92477380Y-63517261D01*
X92429761Y-63422023D01*
X92382142Y-63374404D01*
X92286904Y-63326785D01*
X92096428Y-63326785D01*
X92001190Y-63374404D01*
X91953571Y-63422023D01*
X91905952Y-63517261D01*
G04 #@! TO.C,C9*
X88033333Y-66232142D02*
X87985714Y-66279761D01*
X87842857Y-66327380D01*
X87747619Y-66327380D01*
X87604761Y-66279761D01*
X87509523Y-66184523D01*
X87461904Y-66089285D01*
X87414285Y-65898809D01*
X87414285Y-65755952D01*
X87461904Y-65565476D01*
X87509523Y-65470238D01*
X87604761Y-65375000D01*
X87747619Y-65327380D01*
X87842857Y-65327380D01*
X87985714Y-65375000D01*
X88033333Y-65422619D01*
X88509523Y-66327380D02*
X88700000Y-66327380D01*
X88795238Y-66279761D01*
X88842857Y-66232142D01*
X88938095Y-66089285D01*
X88985714Y-65898809D01*
X88985714Y-65517857D01*
X88938095Y-65422619D01*
X88890476Y-65375000D01*
X88795238Y-65327380D01*
X88604761Y-65327380D01*
X88509523Y-65375000D01*
X88461904Y-65422619D01*
X88414285Y-65517857D01*
X88414285Y-65755952D01*
X88461904Y-65851190D01*
X88509523Y-65898809D01*
X88604761Y-65946428D01*
X88795238Y-65946428D01*
X88890476Y-65898809D01*
X88938095Y-65851190D01*
X88985714Y-65755952D01*
G04 #@! TO.C,C10*
X71482142Y-71007142D02*
X71434523Y-71054761D01*
X71291666Y-71102380D01*
X71196428Y-71102380D01*
X71053571Y-71054761D01*
X70958333Y-70959523D01*
X70910714Y-70864285D01*
X70863095Y-70673809D01*
X70863095Y-70530952D01*
X70910714Y-70340476D01*
X70958333Y-70245238D01*
X71053571Y-70150000D01*
X71196428Y-70102380D01*
X71291666Y-70102380D01*
X71434523Y-70150000D01*
X71482142Y-70197619D01*
X72434523Y-71102380D02*
X71863095Y-71102380D01*
X72148809Y-71102380D02*
X72148809Y-70102380D01*
X72053571Y-70245238D01*
X71958333Y-70340476D01*
X71863095Y-70388095D01*
X73053571Y-70102380D02*
X73148809Y-70102380D01*
X73244047Y-70150000D01*
X73291666Y-70197619D01*
X73339285Y-70292857D01*
X73386904Y-70483333D01*
X73386904Y-70721428D01*
X73339285Y-70911904D01*
X73291666Y-71007142D01*
X73244047Y-71054761D01*
X73148809Y-71102380D01*
X73053571Y-71102380D01*
X72958333Y-71054761D01*
X72910714Y-71007142D01*
X72863095Y-70911904D01*
X72815476Y-70721428D01*
X72815476Y-70483333D01*
X72863095Y-70292857D01*
X72910714Y-70197619D01*
X72958333Y-70150000D01*
X73053571Y-70102380D01*
G04 #@! TO.C,R1*
X81552380Y-63316666D02*
X81076190Y-63650000D01*
X81552380Y-63888095D02*
X80552380Y-63888095D01*
X80552380Y-63507142D01*
X80600000Y-63411904D01*
X80647619Y-63364285D01*
X80742857Y-63316666D01*
X80885714Y-63316666D01*
X80980952Y-63364285D01*
X81028571Y-63411904D01*
X81076190Y-63507142D01*
X81076190Y-63888095D01*
X81552380Y-62364285D02*
X81552380Y-62935714D01*
X81552380Y-62650000D02*
X80552380Y-62650000D01*
X80695238Y-62745238D01*
X80790476Y-62840476D01*
X80838095Y-62935714D01*
G04 #@! TO.C,R2*
X83227380Y-63416666D02*
X82751190Y-63750000D01*
X83227380Y-63988095D02*
X82227380Y-63988095D01*
X82227380Y-63607142D01*
X82275000Y-63511904D01*
X82322619Y-63464285D01*
X82417857Y-63416666D01*
X82560714Y-63416666D01*
X82655952Y-63464285D01*
X82703571Y-63511904D01*
X82751190Y-63607142D01*
X82751190Y-63988095D01*
X82322619Y-63035714D02*
X82275000Y-62988095D01*
X82227380Y-62892857D01*
X82227380Y-62654761D01*
X82275000Y-62559523D01*
X82322619Y-62511904D01*
X82417857Y-62464285D01*
X82513095Y-62464285D01*
X82655952Y-62511904D01*
X83227380Y-63083333D01*
X83227380Y-62464285D01*
G04 #@! TO.C,R3*
X89783333Y-59002380D02*
X89450000Y-58526190D01*
X89211904Y-59002380D02*
X89211904Y-58002380D01*
X89592857Y-58002380D01*
X89688095Y-58050000D01*
X89735714Y-58097619D01*
X89783333Y-58192857D01*
X89783333Y-58335714D01*
X89735714Y-58430952D01*
X89688095Y-58478571D01*
X89592857Y-58526190D01*
X89211904Y-58526190D01*
X90116666Y-58002380D02*
X90735714Y-58002380D01*
X90402380Y-58383333D01*
X90545238Y-58383333D01*
X90640476Y-58430952D01*
X90688095Y-58478571D01*
X90735714Y-58573809D01*
X90735714Y-58811904D01*
X90688095Y-58907142D01*
X90640476Y-58954761D01*
X90545238Y-59002380D01*
X90259523Y-59002380D01*
X90164285Y-58954761D01*
X90116666Y-58907142D01*
G04 #@! TO.C,R4*
X89758333Y-60602380D02*
X89425000Y-60126190D01*
X89186904Y-60602380D02*
X89186904Y-59602380D01*
X89567857Y-59602380D01*
X89663095Y-59650000D01*
X89710714Y-59697619D01*
X89758333Y-59792857D01*
X89758333Y-59935714D01*
X89710714Y-60030952D01*
X89663095Y-60078571D01*
X89567857Y-60126190D01*
X89186904Y-60126190D01*
X90615476Y-59935714D02*
X90615476Y-60602380D01*
X90377380Y-59554761D02*
X90139285Y-60269047D01*
X90758333Y-60269047D01*
G04 #@! TO.C,R7*
X103608333Y-67402380D02*
X103275000Y-66926190D01*
X103036904Y-67402380D02*
X103036904Y-66402380D01*
X103417857Y-66402380D01*
X103513095Y-66450000D01*
X103560714Y-66497619D01*
X103608333Y-66592857D01*
X103608333Y-66735714D01*
X103560714Y-66830952D01*
X103513095Y-66878571D01*
X103417857Y-66926190D01*
X103036904Y-66926190D01*
X103941666Y-66402380D02*
X104608333Y-66402380D01*
X104179761Y-67402380D01*
G04 #@! TO.C,R8*
X104772380Y-59279166D02*
X104296190Y-59612500D01*
X104772380Y-59850595D02*
X103772380Y-59850595D01*
X103772380Y-59469642D01*
X103820000Y-59374404D01*
X103867619Y-59326785D01*
X103962857Y-59279166D01*
X104105714Y-59279166D01*
X104200952Y-59326785D01*
X104248571Y-59374404D01*
X104296190Y-59469642D01*
X104296190Y-59850595D01*
X104200952Y-58707738D02*
X104153333Y-58802976D01*
X104105714Y-58850595D01*
X104010476Y-58898214D01*
X103962857Y-58898214D01*
X103867619Y-58850595D01*
X103820000Y-58802976D01*
X103772380Y-58707738D01*
X103772380Y-58517261D01*
X103820000Y-58422023D01*
X103867619Y-58374404D01*
X103962857Y-58326785D01*
X104010476Y-58326785D01*
X104105714Y-58374404D01*
X104153333Y-58422023D01*
X104200952Y-58517261D01*
X104200952Y-58707738D01*
X104248571Y-58802976D01*
X104296190Y-58850595D01*
X104391428Y-58898214D01*
X104581904Y-58898214D01*
X104677142Y-58850595D01*
X104724761Y-58802976D01*
X104772380Y-58707738D01*
X104772380Y-58517261D01*
X104724761Y-58422023D01*
X104677142Y-58374404D01*
X104581904Y-58326785D01*
X104391428Y-58326785D01*
X104296190Y-58374404D01*
X104248571Y-58422023D01*
X104200952Y-58517261D01*
G04 #@! TO.C,R9*
X106327380Y-59241666D02*
X105851190Y-59575000D01*
X106327380Y-59813095D02*
X105327380Y-59813095D01*
X105327380Y-59432142D01*
X105375000Y-59336904D01*
X105422619Y-59289285D01*
X105517857Y-59241666D01*
X105660714Y-59241666D01*
X105755952Y-59289285D01*
X105803571Y-59336904D01*
X105851190Y-59432142D01*
X105851190Y-59813095D01*
X106327380Y-58765476D02*
X106327380Y-58575000D01*
X106279761Y-58479761D01*
X106232142Y-58432142D01*
X106089285Y-58336904D01*
X105898809Y-58289285D01*
X105517857Y-58289285D01*
X105422619Y-58336904D01*
X105375000Y-58384523D01*
X105327380Y-58479761D01*
X105327380Y-58670238D01*
X105375000Y-58765476D01*
X105422619Y-58813095D01*
X105517857Y-58860714D01*
X105755952Y-58860714D01*
X105851190Y-58813095D01*
X105898809Y-58765476D01*
X105946428Y-58670238D01*
X105946428Y-58479761D01*
X105898809Y-58384523D01*
X105851190Y-58336904D01*
X105755952Y-58289285D01*
G04 #@! TO.C,R10*
X103132142Y-65752380D02*
X102798809Y-65276190D01*
X102560714Y-65752380D02*
X102560714Y-64752380D01*
X102941666Y-64752380D01*
X103036904Y-64800000D01*
X103084523Y-64847619D01*
X103132142Y-64942857D01*
X103132142Y-65085714D01*
X103084523Y-65180952D01*
X103036904Y-65228571D01*
X102941666Y-65276190D01*
X102560714Y-65276190D01*
X104084523Y-65752380D02*
X103513095Y-65752380D01*
X103798809Y-65752380D02*
X103798809Y-64752380D01*
X103703571Y-64895238D01*
X103608333Y-64990476D01*
X103513095Y-65038095D01*
X104703571Y-64752380D02*
X104798809Y-64752380D01*
X104894047Y-64800000D01*
X104941666Y-64847619D01*
X104989285Y-64942857D01*
X105036904Y-65133333D01*
X105036904Y-65371428D01*
X104989285Y-65561904D01*
X104941666Y-65657142D01*
X104894047Y-65704761D01*
X104798809Y-65752380D01*
X104703571Y-65752380D01*
X104608333Y-65704761D01*
X104560714Y-65657142D01*
X104513095Y-65561904D01*
X104465476Y-65371428D01*
X104465476Y-65133333D01*
X104513095Y-64942857D01*
X104560714Y-64847619D01*
X104608333Y-64800000D01*
X104703571Y-64752380D01*
G04 #@! TO.C,R11*
X106652380Y-72142857D02*
X106176190Y-72476190D01*
X106652380Y-72714285D02*
X105652380Y-72714285D01*
X105652380Y-72333333D01*
X105700000Y-72238095D01*
X105747619Y-72190476D01*
X105842857Y-72142857D01*
X105985714Y-72142857D01*
X106080952Y-72190476D01*
X106128571Y-72238095D01*
X106176190Y-72333333D01*
X106176190Y-72714285D01*
X106652380Y-71190476D02*
X106652380Y-71761904D01*
X106652380Y-71476190D02*
X105652380Y-71476190D01*
X105795238Y-71571428D01*
X105890476Y-71666666D01*
X105938095Y-71761904D01*
X106652380Y-70238095D02*
X106652380Y-70809523D01*
X106652380Y-70523809D02*
X105652380Y-70523809D01*
X105795238Y-70619047D01*
X105890476Y-70714285D01*
X105938095Y-70809523D01*
G04 #@! TO.C,R12*
X103157142Y-62552380D02*
X102823809Y-62076190D01*
X102585714Y-62552380D02*
X102585714Y-61552380D01*
X102966666Y-61552380D01*
X103061904Y-61600000D01*
X103109523Y-61647619D01*
X103157142Y-61742857D01*
X103157142Y-61885714D01*
X103109523Y-61980952D01*
X103061904Y-62028571D01*
X102966666Y-62076190D01*
X102585714Y-62076190D01*
X104109523Y-62552380D02*
X103538095Y-62552380D01*
X103823809Y-62552380D02*
X103823809Y-61552380D01*
X103728571Y-61695238D01*
X103633333Y-61790476D01*
X103538095Y-61838095D01*
X104490476Y-61647619D02*
X104538095Y-61600000D01*
X104633333Y-61552380D01*
X104871428Y-61552380D01*
X104966666Y-61600000D01*
X105014285Y-61647619D01*
X105061904Y-61742857D01*
X105061904Y-61838095D01*
X105014285Y-61980952D01*
X104442857Y-62552380D01*
X105061904Y-62552380D01*
G04 #@! TO.C,R13*
X81257142Y-66402380D02*
X80923809Y-65926190D01*
X80685714Y-66402380D02*
X80685714Y-65402380D01*
X81066666Y-65402380D01*
X81161904Y-65450000D01*
X81209523Y-65497619D01*
X81257142Y-65592857D01*
X81257142Y-65735714D01*
X81209523Y-65830952D01*
X81161904Y-65878571D01*
X81066666Y-65926190D01*
X80685714Y-65926190D01*
X82209523Y-66402380D02*
X81638095Y-66402380D01*
X81923809Y-66402380D02*
X81923809Y-65402380D01*
X81828571Y-65545238D01*
X81733333Y-65640476D01*
X81638095Y-65688095D01*
X82542857Y-65402380D02*
X83161904Y-65402380D01*
X82828571Y-65783333D01*
X82971428Y-65783333D01*
X83066666Y-65830952D01*
X83114285Y-65878571D01*
X83161904Y-65973809D01*
X83161904Y-66211904D01*
X83114285Y-66307142D01*
X83066666Y-66354761D01*
X82971428Y-66402380D01*
X82685714Y-66402380D01*
X82590476Y-66354761D01*
X82542857Y-66307142D01*
G04 #@! TO.C,R14*
X94002380Y-64717857D02*
X93526190Y-65051190D01*
X94002380Y-65289285D02*
X93002380Y-65289285D01*
X93002380Y-64908333D01*
X93050000Y-64813095D01*
X93097619Y-64765476D01*
X93192857Y-64717857D01*
X93335714Y-64717857D01*
X93430952Y-64765476D01*
X93478571Y-64813095D01*
X93526190Y-64908333D01*
X93526190Y-65289285D01*
X94002380Y-63765476D02*
X94002380Y-64336904D01*
X94002380Y-64051190D02*
X93002380Y-64051190D01*
X93145238Y-64146428D01*
X93240476Y-64241666D01*
X93288095Y-64336904D01*
X93335714Y-62908333D02*
X94002380Y-62908333D01*
X92954761Y-63146428D02*
X93669047Y-63384523D01*
X93669047Y-62765476D01*
G04 #@! TO.C,R15*
X81332142Y-58777380D02*
X80998809Y-58301190D01*
X80760714Y-58777380D02*
X80760714Y-57777380D01*
X81141666Y-57777380D01*
X81236904Y-57825000D01*
X81284523Y-57872619D01*
X81332142Y-57967857D01*
X81332142Y-58110714D01*
X81284523Y-58205952D01*
X81236904Y-58253571D01*
X81141666Y-58301190D01*
X80760714Y-58301190D01*
X82284523Y-58777380D02*
X81713095Y-58777380D01*
X81998809Y-58777380D02*
X81998809Y-57777380D01*
X81903571Y-57920238D01*
X81808333Y-58015476D01*
X81713095Y-58063095D01*
X83189285Y-57777380D02*
X82713095Y-57777380D01*
X82665476Y-58253571D01*
X82713095Y-58205952D01*
X82808333Y-58158333D01*
X83046428Y-58158333D01*
X83141666Y-58205952D01*
X83189285Y-58253571D01*
X83236904Y-58348809D01*
X83236904Y-58586904D01*
X83189285Y-58682142D01*
X83141666Y-58729761D01*
X83046428Y-58777380D01*
X82808333Y-58777380D01*
X82713095Y-58729761D01*
X82665476Y-58682142D01*
G04 #@! TO.C,U2*
X97413095Y-62177380D02*
X97413095Y-62986904D01*
X97460714Y-63082142D01*
X97508333Y-63129761D01*
X97603571Y-63177380D01*
X97794047Y-63177380D01*
X97889285Y-63129761D01*
X97936904Y-63082142D01*
X97984523Y-62986904D01*
X97984523Y-62177380D01*
X98413095Y-62272619D02*
X98460714Y-62225000D01*
X98555952Y-62177380D01*
X98794047Y-62177380D01*
X98889285Y-62225000D01*
X98936904Y-62272619D01*
X98984523Y-62367857D01*
X98984523Y-62463095D01*
X98936904Y-62605952D01*
X98365476Y-63177380D01*
X98984523Y-63177380D01*
G04 #@! TO.C,U3*
X86538095Y-52952380D02*
X86538095Y-53761904D01*
X86585714Y-53857142D01*
X86633333Y-53904761D01*
X86728571Y-53952380D01*
X86919047Y-53952380D01*
X87014285Y-53904761D01*
X87061904Y-53857142D01*
X87109523Y-53761904D01*
X87109523Y-52952380D01*
X87490476Y-52952380D02*
X88109523Y-52952380D01*
X87776190Y-53333333D01*
X87919047Y-53333333D01*
X88014285Y-53380952D01*
X88061904Y-53428571D01*
X88109523Y-53523809D01*
X88109523Y-53761904D01*
X88061904Y-53857142D01*
X88014285Y-53904761D01*
X87919047Y-53952380D01*
X87633333Y-53952380D01*
X87538095Y-53904761D01*
X87490476Y-53857142D01*
G04 #@! TO.C,H1*
X72363095Y-52727380D02*
X72363095Y-51727380D01*
X72363095Y-52203571D02*
X72934523Y-52203571D01*
X72934523Y-52727380D02*
X72934523Y-51727380D01*
X73934523Y-52727380D02*
X73363095Y-52727380D01*
X73648809Y-52727380D02*
X73648809Y-51727380D01*
X73553571Y-51870238D01*
X73458333Y-51965476D01*
X73363095Y-52013095D01*
G04 #@! TO.C,H2*
X74113095Y-68952380D02*
X74113095Y-67952380D01*
X74113095Y-68428571D02*
X74684523Y-68428571D01*
X74684523Y-68952380D02*
X74684523Y-67952380D01*
X75113095Y-68047619D02*
X75160714Y-68000000D01*
X75255952Y-67952380D01*
X75494047Y-67952380D01*
X75589285Y-68000000D01*
X75636904Y-68047619D01*
X75684523Y-68142857D01*
X75684523Y-68238095D01*
X75636904Y-68380952D01*
X75065476Y-68952380D01*
X75684523Y-68952380D01*
G04 #@! TO.C,H3*
X98113095Y-56902380D02*
X98113095Y-55902380D01*
X98113095Y-56378571D02*
X98684523Y-56378571D01*
X98684523Y-56902380D02*
X98684523Y-55902380D01*
X99065476Y-55902380D02*
X99684523Y-55902380D01*
X99351190Y-56283333D01*
X99494047Y-56283333D01*
X99589285Y-56330952D01*
X99636904Y-56378571D01*
X99684523Y-56473809D01*
X99684523Y-56711904D01*
X99636904Y-56807142D01*
X99589285Y-56854761D01*
X99494047Y-56902380D01*
X99208333Y-56902380D01*
X99113095Y-56854761D01*
X99065476Y-56807142D01*
G04 #@! TO.C,H4*
X97263095Y-74952380D02*
X97263095Y-73952380D01*
X97263095Y-74428571D02*
X97834523Y-74428571D01*
X97834523Y-74952380D02*
X97834523Y-73952380D01*
X98739285Y-74285714D02*
X98739285Y-74952380D01*
X98501190Y-73904761D02*
X98263095Y-74619047D01*
X98882142Y-74619047D01*
G04 #@! TO.C,R5*
X103658333Y-69052380D02*
X103325000Y-68576190D01*
X103086904Y-69052380D02*
X103086904Y-68052380D01*
X103467857Y-68052380D01*
X103563095Y-68100000D01*
X103610714Y-68147619D01*
X103658333Y-68242857D01*
X103658333Y-68385714D01*
X103610714Y-68480952D01*
X103563095Y-68528571D01*
X103467857Y-68576190D01*
X103086904Y-68576190D01*
X104563095Y-68052380D02*
X104086904Y-68052380D01*
X104039285Y-68528571D01*
X104086904Y-68480952D01*
X104182142Y-68433333D01*
X104420238Y-68433333D01*
X104515476Y-68480952D01*
X104563095Y-68528571D01*
X104610714Y-68623809D01*
X104610714Y-68861904D01*
X104563095Y-68957142D01*
X104515476Y-69004761D01*
X104420238Y-69052380D01*
X104182142Y-69052380D01*
X104086904Y-69004761D01*
X104039285Y-68957142D01*
G04 #@! TO.C,RV1*
X90179761Y-73127380D02*
X89846428Y-72651190D01*
X89608333Y-73127380D02*
X89608333Y-72127380D01*
X89989285Y-72127380D01*
X90084523Y-72175000D01*
X90132142Y-72222619D01*
X90179761Y-72317857D01*
X90179761Y-72460714D01*
X90132142Y-72555952D01*
X90084523Y-72603571D01*
X89989285Y-72651190D01*
X89608333Y-72651190D01*
X90465476Y-72127380D02*
X90798809Y-73127380D01*
X91132142Y-72127380D01*
X91989285Y-73127380D02*
X91417857Y-73127380D01*
X91703571Y-73127380D02*
X91703571Y-72127380D01*
X91608333Y-72270238D01*
X91513095Y-72365476D01*
X91417857Y-72413095D01*
G04 #@! TO.C,RV2*
X82929761Y-73127380D02*
X82596428Y-72651190D01*
X82358333Y-73127380D02*
X82358333Y-72127380D01*
X82739285Y-72127380D01*
X82834523Y-72175000D01*
X82882142Y-72222619D01*
X82929761Y-72317857D01*
X82929761Y-72460714D01*
X82882142Y-72555952D01*
X82834523Y-72603571D01*
X82739285Y-72651190D01*
X82358333Y-72651190D01*
X83215476Y-72127380D02*
X83548809Y-73127380D01*
X83882142Y-72127380D01*
X84167857Y-72222619D02*
X84215476Y-72175000D01*
X84310714Y-72127380D01*
X84548809Y-72127380D01*
X84644047Y-72175000D01*
X84691666Y-72222619D01*
X84739285Y-72317857D01*
X84739285Y-72413095D01*
X84691666Y-72555952D01*
X84120238Y-73127380D01*
X84739285Y-73127380D01*
G04 #@! TD*
M02*
