G04 #@! TF.GenerationSoftware,KiCad,Pcbnew,5.0.2-bee76a0~70~ubuntu18.04.1*
G04 #@! TF.CreationDate,2020-01-23T08:49:23+05:30*
G04 #@! TF.ProjectId,pir_v1_0,7069725f-7631-45f3-902e-6b696361645f,rev?*
G04 #@! TF.SameCoordinates,Original*
G04 #@! TF.FileFunction,Legend,Bot*
G04 #@! TF.FilePolarity,Positive*
%FSLAX46Y46*%
G04 Gerber Fmt 4.6, Leading zero omitted, Abs format (unit mm)*
G04 Created by KiCad (PCBNEW 5.0.2-bee76a0~70~ubuntu18.04.1) date Thu Jan 23 08:49:23 2020*
%MOMM*%
%LPD*%
G01*
G04 APERTURE LIST*
%ADD10C,0.250000*%
%ADD11C,0.120000*%
%ADD12C,0.150000*%
G04 APERTURE END LIST*
D10*
X77647619Y-66363095D02*
X77647619Y-65791666D01*
X76647619Y-66077380D02*
X77647619Y-66077380D01*
X77171428Y-65458333D02*
X77171428Y-65125000D01*
X76647619Y-64982142D02*
X76647619Y-65458333D01*
X77647619Y-65458333D01*
X77647619Y-64982142D01*
X77697619Y-60035714D02*
X77697619Y-59464285D01*
X76697619Y-59750000D02*
X77697619Y-59750000D01*
X76697619Y-59130952D02*
X77697619Y-59130952D01*
X77697619Y-58892857D01*
X77650000Y-58750000D01*
X77554761Y-58654761D01*
X77459523Y-58607142D01*
X77269047Y-58559523D01*
X77126190Y-58559523D01*
X76935714Y-58607142D01*
X76840476Y-58654761D01*
X76745238Y-58750000D01*
X76697619Y-58892857D01*
X76697619Y-59130952D01*
D11*
G04 #@! TO.C,R6*
X102250000Y-52025000D02*
X105050000Y-52025000D01*
X102250000Y-56225000D02*
X105050000Y-56225000D01*
X105036037Y-52015758D02*
G75*
G02X105050000Y-56225000I-1386037J-2109242D01*
G01*
X102263963Y-56234242D02*
G75*
G02X102250000Y-52025000I1386037J2109242D01*
G01*
G04 #@! TO.C,U1*
X84367916Y-66199902D02*
X83476961Y-67090856D01*
X83476961Y-67090856D02*
X82699144Y-66313039D01*
X82699144Y-66313039D02*
X83590098Y-65422084D01*
X83590326Y-65422371D02*
G75*
G02X84367916Y-66199902I3774674J2997371D01*
G01*
G04 #@! TO.C,J1*
X76950000Y-63675000D02*
X76650000Y-63375000D01*
X76650000Y-63975000D02*
X76650000Y-63375000D01*
X76950000Y-63675000D02*
X76650000Y-63975000D01*
X77850000Y-64525000D02*
X78450000Y-64525000D01*
X77150000Y-61075000D02*
X77150000Y-63875000D01*
X78450000Y-60425000D02*
X77850000Y-60425000D01*
X79150000Y-63875000D02*
X79150000Y-61075000D01*
X79150000Y-61125000D02*
G75*
G03X78450000Y-60425000I-700000J0D01*
G01*
X77850000Y-60425000D02*
G75*
G03X77150000Y-61125000I0J-700000D01*
G01*
X77150000Y-63825000D02*
G75*
G03X77850000Y-64525000I700000J0D01*
G01*
X78450000Y-64525000D02*
G75*
G03X79150000Y-63825000I0J700000D01*
G01*
G04 #@! TO.C,R6*
D12*
X103816666Y-57477380D02*
X104150000Y-57001190D01*
X104388095Y-57477380D02*
X104388095Y-56477380D01*
X104007142Y-56477380D01*
X103911904Y-56525000D01*
X103864285Y-56572619D01*
X103816666Y-56667857D01*
X103816666Y-56810714D01*
X103864285Y-56905952D01*
X103911904Y-56953571D01*
X104007142Y-57001190D01*
X104388095Y-57001190D01*
X102959523Y-56477380D02*
X103150000Y-56477380D01*
X103245238Y-56525000D01*
X103292857Y-56572619D01*
X103388095Y-56715476D01*
X103435714Y-56905952D01*
X103435714Y-57286904D01*
X103388095Y-57382142D01*
X103340476Y-57429761D01*
X103245238Y-57477380D01*
X103054761Y-57477380D01*
X102959523Y-57429761D01*
X102911904Y-57382142D01*
X102864285Y-57286904D01*
X102864285Y-57048809D01*
X102911904Y-56953571D01*
X102959523Y-56905952D01*
X103054761Y-56858333D01*
X103245238Y-56858333D01*
X103340476Y-56905952D01*
X103388095Y-56953571D01*
X103435714Y-57048809D01*
G04 #@! TO.C,U1*
X88126904Y-67697380D02*
X88126904Y-68506904D01*
X88079285Y-68602142D01*
X88031666Y-68649761D01*
X87936428Y-68697380D01*
X87745952Y-68697380D01*
X87650714Y-68649761D01*
X87603095Y-68602142D01*
X87555476Y-68506904D01*
X87555476Y-67697380D01*
X86555476Y-68697380D02*
X87126904Y-68697380D01*
X86841190Y-68697380D02*
X86841190Y-67697380D01*
X86936428Y-67840238D01*
X87031666Y-67935476D01*
X87126904Y-67983095D01*
G04 #@! TO.C,J1*
X75477380Y-62266666D02*
X76191666Y-62266666D01*
X76334523Y-62219047D01*
X76429761Y-62123809D01*
X76477380Y-61980952D01*
X76477380Y-61885714D01*
X76477380Y-63266666D02*
X76477380Y-62695238D01*
X76477380Y-62980952D02*
X75477380Y-62980952D01*
X75620238Y-62885714D01*
X75715476Y-62790476D01*
X75763095Y-62695238D01*
G04 #@! TD*
M02*
