M48
;DRILL file {KiCad 5.0.2-bee76a0~70~ubuntu18.04.1} date Thu Jan 23 08:49:28 2020
;FORMAT={-:-/ absolute / inch / decimal}
FMAT,2
INCH,TZ
T1C0.0157
T2C0.0276
T3C0.0315
T4C0.0394
T5C0.0827
%
G90
G05
T1
X3.0787Y-2.5837
X3.1919Y-2.6486
X3.312Y-2.5925
X3.313Y-2.5217
X3.3169Y-2.2943
X3.377Y-2.628
X3.439Y-2.9272
X3.6919Y-2.3465
X3.8228Y-2.3848
X3.8297Y-2.2982
X3.8967Y-2.3041
X3.9026Y-2.6476
X3.9035Y-2.4961
X4.1772Y-2.4449
T2
X3.3396Y-2.4577
X3.4396Y-2.3577
X3.5396Y-2.4577
T3
X2.7904Y-2.9262
X2.8888Y-2.9262
X4.0217Y-2.1309
X4.1398Y-2.1309
X3.997Y-2.9173
X4.0955Y-2.9173
X3.1604Y-2.1407
X3.2589Y-2.1407
X3.6142Y-2.1417
X3.7126Y-2.1417
T4
X3.4793Y-2.7972
X3.5778Y-2.6988
X3.6762Y-2.7972
X2.8396Y-2.3587
X2.8396Y-2.4587
X2.8396Y-2.5587
X3.1998Y-2.7972
X3.2982Y-2.6988
X3.3967Y-2.7972
T5
X3.0059Y-2.812
X3.0059Y-2.1033
X3.872Y-2.812
X3.872Y-2.1033
T0
M30
