G04 #@! TF.GenerationSoftware,KiCad,Pcbnew,5.0.2-bee76a0~70~ubuntu18.04.1*
G04 #@! TF.CreationDate,2019-10-05T18:06:54+05:30*
G04 #@! TF.ProjectId,electrode,656c6563-7472-46f6-9465-2e6b69636164,rev?*
G04 #@! TF.SameCoordinates,Original*
G04 #@! TF.FileFunction,Copper,L2,Bot*
G04 #@! TF.FilePolarity,Positive*
%FSLAX46Y46*%
G04 Gerber Fmt 4.6, Leading zero omitted, Abs format (unit mm)*
G04 Created by KiCad (PCBNEW 5.0.2-bee76a0~70~ubuntu18.04.1) date Sat Oct  5 18:06:54 2019*
%MOMM*%
%LPD*%
G01*
G04 APERTURE LIST*
G04 #@! TA.AperFunction,ViaPad*
%ADD10C,1.200000*%
G04 #@! TD*
G04 #@! TA.AperFunction,ViaPad*
%ADD11C,0.800000*%
G04 #@! TD*
G04 #@! TA.AperFunction,Conductor*
%ADD12C,0.254000*%
G04 #@! TD*
G04 APERTURE END LIST*
D10*
G04 #@! TO.N,Net-(S1-Pad1)*
X114450000Y-68491903D03*
X114450000Y-70683806D03*
X114450000Y-72875710D03*
X125950000Y-66300000D03*
X125950000Y-68500000D03*
X125950000Y-70700000D03*
X125950000Y-72900000D03*
X114450000Y-66300000D03*
D11*
X124458000Y-69600000D03*
X115910000Y-69600000D03*
X115910000Y-65330000D03*
X124458000Y-65330000D03*
X115910000Y-73860000D03*
X124458000Y-73860000D03*
X120184000Y-65330000D03*
X120184000Y-73860000D03*
G04 #@! TD*
D12*
G04 #@! TO.N,Net-(S1-Pad1)*
G36*
X125748001Y-74898000D02*
X114652000Y-74898000D01*
X114652000Y-66600000D01*
X117704043Y-66600000D01*
X117708001Y-66619897D01*
X117708000Y-69619892D01*
X117708001Y-69619897D01*
X117708000Y-72580107D01*
X117704043Y-72600000D01*
X117719721Y-72678816D01*
X117764366Y-72745634D01*
X117831184Y-72790279D01*
X117910000Y-72805957D01*
X117929892Y-72802000D01*
X122490108Y-72802000D01*
X122510000Y-72805957D01*
X122588816Y-72790279D01*
X122655634Y-72745634D01*
X122700279Y-72678816D01*
X122712000Y-72619893D01*
X122712000Y-72619892D01*
X122715957Y-72600000D01*
X122712000Y-72580107D01*
X122712000Y-66619893D01*
X122715957Y-66600000D01*
X122700279Y-66521184D01*
X122655634Y-66454366D01*
X122588816Y-66409721D01*
X122529893Y-66398000D01*
X122529892Y-66398000D01*
X122510000Y-66394043D01*
X122490107Y-66398000D01*
X117929893Y-66398000D01*
X117910000Y-66394043D01*
X117890108Y-66398000D01*
X117890107Y-66398000D01*
X117831184Y-66409721D01*
X117764366Y-66454366D01*
X117719721Y-66521184D01*
X117704043Y-66600000D01*
X114652000Y-66600000D01*
X114652000Y-64302000D01*
X125748000Y-64302000D01*
X125748001Y-74898000D01*
X125748001Y-74898000D01*
G37*
X125748001Y-74898000D02*
X114652000Y-74898000D01*
X114652000Y-66600000D01*
X117704043Y-66600000D01*
X117708001Y-66619897D01*
X117708000Y-69619892D01*
X117708001Y-69619897D01*
X117708000Y-72580107D01*
X117704043Y-72600000D01*
X117719721Y-72678816D01*
X117764366Y-72745634D01*
X117831184Y-72790279D01*
X117910000Y-72805957D01*
X117929892Y-72802000D01*
X122490108Y-72802000D01*
X122510000Y-72805957D01*
X122588816Y-72790279D01*
X122655634Y-72745634D01*
X122700279Y-72678816D01*
X122712000Y-72619893D01*
X122712000Y-72619892D01*
X122715957Y-72600000D01*
X122712000Y-72580107D01*
X122712000Y-66619893D01*
X122715957Y-66600000D01*
X122700279Y-66521184D01*
X122655634Y-66454366D01*
X122588816Y-66409721D01*
X122529893Y-66398000D01*
X122529892Y-66398000D01*
X122510000Y-66394043D01*
X122490107Y-66398000D01*
X117929893Y-66398000D01*
X117910000Y-66394043D01*
X117890108Y-66398000D01*
X117890107Y-66398000D01*
X117831184Y-66409721D01*
X117764366Y-66454366D01*
X117719721Y-66521184D01*
X117704043Y-66600000D01*
X114652000Y-66600000D01*
X114652000Y-64302000D01*
X125748000Y-64302000D01*
X125748001Y-74898000D01*
G04 #@! TD*
M02*
