G04 #@! TF.GenerationSoftware,KiCad,Pcbnew,5.0.2-bee76a0~70~ubuntu18.04.1*
G04 #@! TF.CreationDate,2019-10-05T18:06:54+05:30*
G04 #@! TF.ProjectId,electrode,656c6563-7472-46f6-9465-2e6b69636164,rev?*
G04 #@! TF.SameCoordinates,Original*
G04 #@! TF.FileFunction,Soldermask,Top*
G04 #@! TF.FilePolarity,Negative*
%FSLAX46Y46*%
G04 Gerber Fmt 4.6, Leading zero omitted, Abs format (unit mm)*
G04 Created by KiCad (PCBNEW 5.0.2-bee76a0~70~ubuntu18.04.1) date Sat Oct  5 18:06:54 2019*
%MOMM*%
%LPD*%
G01*
G04 APERTURE LIST*
%ADD10C,0.100000*%
G04 APERTURE END LIST*
D10*
G36*
X124443195Y-69017522D02*
X124492267Y-69027283D01*
X124614989Y-69078116D01*
X124630942Y-69084724D01*
X124755750Y-69168118D01*
X124861882Y-69274250D01*
X124945276Y-69399058D01*
X125002717Y-69537734D01*
X125032000Y-69684948D01*
X125032000Y-69835052D01*
X125002717Y-69982266D01*
X124945276Y-70120942D01*
X124861882Y-70245750D01*
X124755750Y-70351882D01*
X124755747Y-70351884D01*
X124630942Y-70435276D01*
X124492267Y-70492717D01*
X124443195Y-70502478D01*
X124345052Y-70522000D01*
X124194948Y-70522000D01*
X124096805Y-70502478D01*
X124047733Y-70492717D01*
X123909058Y-70435276D01*
X123784253Y-70351884D01*
X123784250Y-70351882D01*
X123678118Y-70245750D01*
X123594724Y-70120942D01*
X123537283Y-69982266D01*
X123508000Y-69835052D01*
X123508000Y-69684948D01*
X123537283Y-69537734D01*
X123594724Y-69399058D01*
X123678118Y-69274250D01*
X123784250Y-69168118D01*
X123909058Y-69084724D01*
X123925011Y-69078116D01*
X124047733Y-69027283D01*
X124096805Y-69017522D01*
X124194948Y-68998000D01*
X124345052Y-68998000D01*
X124443195Y-69017522D01*
X124443195Y-69017522D01*
G37*
G36*
X116413195Y-68927522D02*
X116462267Y-68937283D01*
X116600942Y-68994724D01*
X116725750Y-69078118D01*
X116831882Y-69184250D01*
X116915276Y-69309058D01*
X116972717Y-69447734D01*
X117002000Y-69594948D01*
X117002000Y-69745052D01*
X116972717Y-69892266D01*
X116915276Y-70030942D01*
X116831882Y-70155750D01*
X116725750Y-70261882D01*
X116725747Y-70261884D01*
X116600942Y-70345276D01*
X116462267Y-70402717D01*
X116413195Y-70412478D01*
X116315052Y-70432000D01*
X116164948Y-70432000D01*
X116066805Y-70412478D01*
X116017733Y-70402717D01*
X115879058Y-70345276D01*
X115754253Y-70261884D01*
X115754250Y-70261882D01*
X115648118Y-70155750D01*
X115564724Y-70030942D01*
X115507283Y-69892266D01*
X115478000Y-69745052D01*
X115478000Y-69594948D01*
X115507283Y-69447734D01*
X115564724Y-69309058D01*
X115648118Y-69184250D01*
X115754250Y-69078118D01*
X115879058Y-68994724D01*
X116017733Y-68937283D01*
X116066805Y-68927522D01*
X116164948Y-68908000D01*
X116315052Y-68908000D01*
X116413195Y-68927522D01*
X116413195Y-68927522D01*
G37*
M02*
