G04 #@! TF.GenerationSoftware,KiCad,Pcbnew,5.0.2-bee76a0~70~ubuntu18.04.1*
G04 #@! TF.CreationDate,2019-10-05T18:06:54+05:30*
G04 #@! TF.ProjectId,electrode,656c6563-7472-46f6-9465-2e6b69636164,rev?*
G04 #@! TF.SameCoordinates,Original*
G04 #@! TF.FileFunction,Legend,Top*
G04 #@! TF.FilePolarity,Positive*
%FSLAX46Y46*%
G04 Gerber Fmt 4.6, Leading zero omitted, Abs format (unit mm)*
G04 Created by KiCad (PCBNEW 5.0.2-bee76a0~70~ubuntu18.04.1) date Sat Oct  5 18:06:54 2019*
%MOMM*%
%LPD*%
G01*
G04 APERTURE LIST*
%ADD10C,0.150000*%
G04 APERTURE END LIST*
G04 #@! TO.C,S1*
D10*
X115478095Y-70574761D02*
X115620952Y-70622380D01*
X115859047Y-70622380D01*
X115954285Y-70574761D01*
X116001904Y-70527142D01*
X116049523Y-70431904D01*
X116049523Y-70336666D01*
X116001904Y-70241428D01*
X115954285Y-70193809D01*
X115859047Y-70146190D01*
X115668571Y-70098571D01*
X115573333Y-70050952D01*
X115525714Y-70003333D01*
X115478095Y-69908095D01*
X115478095Y-69812857D01*
X115525714Y-69717619D01*
X115573333Y-69670000D01*
X115668571Y-69622380D01*
X115906666Y-69622380D01*
X116049523Y-69670000D01*
X117001904Y-70622380D02*
X116430476Y-70622380D01*
X116716190Y-70622380D02*
X116716190Y-69622380D01*
X116620952Y-69765238D01*
X116525714Y-69860476D01*
X116430476Y-69908095D01*
G04 #@! TO.C,S2*
X123508095Y-70664761D02*
X123650952Y-70712380D01*
X123889047Y-70712380D01*
X123984285Y-70664761D01*
X124031904Y-70617142D01*
X124079523Y-70521904D01*
X124079523Y-70426666D01*
X124031904Y-70331428D01*
X123984285Y-70283809D01*
X123889047Y-70236190D01*
X123698571Y-70188571D01*
X123603333Y-70140952D01*
X123555714Y-70093333D01*
X123508095Y-69998095D01*
X123508095Y-69902857D01*
X123555714Y-69807619D01*
X123603333Y-69760000D01*
X123698571Y-69712380D01*
X123936666Y-69712380D01*
X124079523Y-69760000D01*
X124460476Y-69807619D02*
X124508095Y-69760000D01*
X124603333Y-69712380D01*
X124841428Y-69712380D01*
X124936666Y-69760000D01*
X124984285Y-69807619D01*
X125031904Y-69902857D01*
X125031904Y-69998095D01*
X124984285Y-70140952D01*
X124412857Y-70712380D01*
X125031904Y-70712380D01*
G04 #@! TD*
M02*
