G04 #@! TF.GenerationSoftware,KiCad,Pcbnew,5.0.2-bee76a0~70~ubuntu18.04.1*
G04 #@! TF.CreationDate,2019-05-07T17:56:58+05:30*
G04 #@! TF.ProjectId,motbox_with_promini,6d6f7462-6f78-45f7-9769-74685f70726f,rev?*
G04 #@! TF.SameCoordinates,Original*
G04 #@! TF.FileFunction,Paste,Top*
G04 #@! TF.FilePolarity,Positive*
%FSLAX46Y46*%
G04 Gerber Fmt 4.6, Leading zero omitted, Abs format (unit mm)*
G04 Created by KiCad (PCBNEW 5.0.2-bee76a0~70~ubuntu18.04.1) date Tue May  7 17:56:58 2019*
%MOMM*%
%LPD*%
G01*
G04 APERTURE LIST*
%ADD10R,1.550000X0.600000*%
%ADD11R,1.100000X4.600000*%
%ADD12R,5.250000X4.550000*%
%ADD13C,0.100000*%
%ADD14C,2.500000*%
%ADD15C,1.600000*%
%ADD16R,5.100000X2.350000*%
%ADD17C,1.250000*%
G04 APERTURE END LIST*
D10*
G04 #@! TO.C,U2*
X155600000Y-39190000D03*
X155600000Y-40460000D03*
X155600000Y-41730000D03*
X155600000Y-43000000D03*
X161000000Y-43000000D03*
X161000000Y-41730000D03*
X161000000Y-40460000D03*
X161000000Y-39190000D03*
G04 #@! TD*
D11*
G04 #@! TO.C,U1*
X115200000Y-69850000D03*
X113500000Y-69850000D03*
X111800000Y-69850000D03*
X110100000Y-69850000D03*
X108400000Y-69850000D03*
D12*
X109025000Y-81425000D03*
X114575000Y-76575000D03*
X114575000Y-81425000D03*
X109025000Y-76575000D03*
G04 #@! TD*
D13*
G04 #@! TO.C,C2*
G36*
X113724504Y-45201204D02*
X113748773Y-45204804D01*
X113772571Y-45210765D01*
X113795671Y-45219030D01*
X113817849Y-45229520D01*
X113838893Y-45242133D01*
X113858598Y-45256747D01*
X113876777Y-45273223D01*
X113893253Y-45291402D01*
X113907867Y-45311107D01*
X113920480Y-45332151D01*
X113930970Y-45354329D01*
X113939235Y-45377429D01*
X113945196Y-45401227D01*
X113948796Y-45425496D01*
X113950000Y-45450000D01*
X113950000Y-48950000D01*
X113948796Y-48974504D01*
X113945196Y-48998773D01*
X113939235Y-49022571D01*
X113930970Y-49045671D01*
X113920480Y-49067849D01*
X113907867Y-49088893D01*
X113893253Y-49108598D01*
X113876777Y-49126777D01*
X113858598Y-49143253D01*
X113838893Y-49157867D01*
X113817849Y-49170480D01*
X113795671Y-49180970D01*
X113772571Y-49189235D01*
X113748773Y-49195196D01*
X113724504Y-49198796D01*
X113700000Y-49200000D01*
X111700000Y-49200000D01*
X111675496Y-49198796D01*
X111651227Y-49195196D01*
X111627429Y-49189235D01*
X111604329Y-49180970D01*
X111582151Y-49170480D01*
X111561107Y-49157867D01*
X111541402Y-49143253D01*
X111523223Y-49126777D01*
X111506747Y-49108598D01*
X111492133Y-49088893D01*
X111479520Y-49067849D01*
X111469030Y-49045671D01*
X111460765Y-49022571D01*
X111454804Y-48998773D01*
X111451204Y-48974504D01*
X111450000Y-48950000D01*
X111450000Y-45450000D01*
X111451204Y-45425496D01*
X111454804Y-45401227D01*
X111460765Y-45377429D01*
X111469030Y-45354329D01*
X111479520Y-45332151D01*
X111492133Y-45311107D01*
X111506747Y-45291402D01*
X111523223Y-45273223D01*
X111541402Y-45256747D01*
X111561107Y-45242133D01*
X111582151Y-45229520D01*
X111604329Y-45219030D01*
X111627429Y-45210765D01*
X111651227Y-45204804D01*
X111675496Y-45201204D01*
X111700000Y-45200000D01*
X113700000Y-45200000D01*
X113724504Y-45201204D01*
X113724504Y-45201204D01*
G37*
D14*
X112700000Y-47200000D03*
D13*
G36*
X113724504Y-53201204D02*
X113748773Y-53204804D01*
X113772571Y-53210765D01*
X113795671Y-53219030D01*
X113817849Y-53229520D01*
X113838893Y-53242133D01*
X113858598Y-53256747D01*
X113876777Y-53273223D01*
X113893253Y-53291402D01*
X113907867Y-53311107D01*
X113920480Y-53332151D01*
X113930970Y-53354329D01*
X113939235Y-53377429D01*
X113945196Y-53401227D01*
X113948796Y-53425496D01*
X113950000Y-53450000D01*
X113950000Y-56950000D01*
X113948796Y-56974504D01*
X113945196Y-56998773D01*
X113939235Y-57022571D01*
X113930970Y-57045671D01*
X113920480Y-57067849D01*
X113907867Y-57088893D01*
X113893253Y-57108598D01*
X113876777Y-57126777D01*
X113858598Y-57143253D01*
X113838893Y-57157867D01*
X113817849Y-57170480D01*
X113795671Y-57180970D01*
X113772571Y-57189235D01*
X113748773Y-57195196D01*
X113724504Y-57198796D01*
X113700000Y-57200000D01*
X111700000Y-57200000D01*
X111675496Y-57198796D01*
X111651227Y-57195196D01*
X111627429Y-57189235D01*
X111604329Y-57180970D01*
X111582151Y-57170480D01*
X111561107Y-57157867D01*
X111541402Y-57143253D01*
X111523223Y-57126777D01*
X111506747Y-57108598D01*
X111492133Y-57088893D01*
X111479520Y-57067849D01*
X111469030Y-57045671D01*
X111460765Y-57022571D01*
X111454804Y-56998773D01*
X111451204Y-56974504D01*
X111450000Y-56950000D01*
X111450000Y-53450000D01*
X111451204Y-53425496D01*
X111454804Y-53401227D01*
X111460765Y-53377429D01*
X111469030Y-53354329D01*
X111479520Y-53332151D01*
X111492133Y-53311107D01*
X111506747Y-53291402D01*
X111523223Y-53273223D01*
X111541402Y-53256747D01*
X111561107Y-53242133D01*
X111582151Y-53229520D01*
X111604329Y-53219030D01*
X111627429Y-53210765D01*
X111651227Y-53204804D01*
X111675496Y-53201204D01*
X111700000Y-53200000D01*
X113700000Y-53200000D01*
X113724504Y-53201204D01*
X113724504Y-53201204D01*
G37*
D14*
X112700000Y-55200000D03*
G04 #@! TD*
D13*
G04 #@! TO.C,C1*
G36*
X103074504Y-46551204D02*
X103098773Y-46554804D01*
X103122571Y-46560765D01*
X103145671Y-46569030D01*
X103167849Y-46579520D01*
X103188893Y-46592133D01*
X103208598Y-46606747D01*
X103226777Y-46623223D01*
X103243253Y-46641402D01*
X103257867Y-46661107D01*
X103270480Y-46682151D01*
X103280970Y-46704329D01*
X103289235Y-46727429D01*
X103295196Y-46751227D01*
X103298796Y-46775496D01*
X103300000Y-46800000D01*
X103300000Y-49800000D01*
X103298796Y-49824504D01*
X103295196Y-49848773D01*
X103289235Y-49872571D01*
X103280970Y-49895671D01*
X103270480Y-49917849D01*
X103257867Y-49938893D01*
X103243253Y-49958598D01*
X103226777Y-49976777D01*
X103208598Y-49993253D01*
X103188893Y-50007867D01*
X103167849Y-50020480D01*
X103145671Y-50030970D01*
X103122571Y-50039235D01*
X103098773Y-50045196D01*
X103074504Y-50048796D01*
X103050000Y-50050000D01*
X101950000Y-50050000D01*
X101925496Y-50048796D01*
X101901227Y-50045196D01*
X101877429Y-50039235D01*
X101854329Y-50030970D01*
X101832151Y-50020480D01*
X101811107Y-50007867D01*
X101791402Y-49993253D01*
X101773223Y-49976777D01*
X101756747Y-49958598D01*
X101742133Y-49938893D01*
X101729520Y-49917849D01*
X101719030Y-49895671D01*
X101710765Y-49872571D01*
X101704804Y-49848773D01*
X101701204Y-49824504D01*
X101700000Y-49800000D01*
X101700000Y-46800000D01*
X101701204Y-46775496D01*
X101704804Y-46751227D01*
X101710765Y-46727429D01*
X101719030Y-46704329D01*
X101729520Y-46682151D01*
X101742133Y-46661107D01*
X101756747Y-46641402D01*
X101773223Y-46623223D01*
X101791402Y-46606747D01*
X101811107Y-46592133D01*
X101832151Y-46579520D01*
X101854329Y-46569030D01*
X101877429Y-46560765D01*
X101901227Y-46554804D01*
X101925496Y-46551204D01*
X101950000Y-46550000D01*
X103050000Y-46550000D01*
X103074504Y-46551204D01*
X103074504Y-46551204D01*
G37*
D15*
X102500000Y-48300000D03*
D13*
G36*
X103074504Y-51951204D02*
X103098773Y-51954804D01*
X103122571Y-51960765D01*
X103145671Y-51969030D01*
X103167849Y-51979520D01*
X103188893Y-51992133D01*
X103208598Y-52006747D01*
X103226777Y-52023223D01*
X103243253Y-52041402D01*
X103257867Y-52061107D01*
X103270480Y-52082151D01*
X103280970Y-52104329D01*
X103289235Y-52127429D01*
X103295196Y-52151227D01*
X103298796Y-52175496D01*
X103300000Y-52200000D01*
X103300000Y-55200000D01*
X103298796Y-55224504D01*
X103295196Y-55248773D01*
X103289235Y-55272571D01*
X103280970Y-55295671D01*
X103270480Y-55317849D01*
X103257867Y-55338893D01*
X103243253Y-55358598D01*
X103226777Y-55376777D01*
X103208598Y-55393253D01*
X103188893Y-55407867D01*
X103167849Y-55420480D01*
X103145671Y-55430970D01*
X103122571Y-55439235D01*
X103098773Y-55445196D01*
X103074504Y-55448796D01*
X103050000Y-55450000D01*
X101950000Y-55450000D01*
X101925496Y-55448796D01*
X101901227Y-55445196D01*
X101877429Y-55439235D01*
X101854329Y-55430970D01*
X101832151Y-55420480D01*
X101811107Y-55407867D01*
X101791402Y-55393253D01*
X101773223Y-55376777D01*
X101756747Y-55358598D01*
X101742133Y-55338893D01*
X101729520Y-55317849D01*
X101719030Y-55295671D01*
X101710765Y-55272571D01*
X101704804Y-55248773D01*
X101701204Y-55224504D01*
X101700000Y-55200000D01*
X101700000Y-52200000D01*
X101701204Y-52175496D01*
X101704804Y-52151227D01*
X101710765Y-52127429D01*
X101719030Y-52104329D01*
X101729520Y-52082151D01*
X101742133Y-52061107D01*
X101756747Y-52041402D01*
X101773223Y-52023223D01*
X101791402Y-52006747D01*
X101811107Y-51992133D01*
X101832151Y-51979520D01*
X101854329Y-51969030D01*
X101877429Y-51960765D01*
X101901227Y-51954804D01*
X101925496Y-51951204D01*
X101950000Y-51950000D01*
X103050000Y-51950000D01*
X103074504Y-51951204D01*
X103074504Y-51951204D01*
G37*
D15*
X102500000Y-53700000D03*
G04 #@! TD*
D16*
G04 #@! TO.C,L1*
X112200000Y-64050000D03*
X112200000Y-59900000D03*
G04 #@! TD*
D13*
G04 #@! TO.C,R1*
G36*
X171349504Y-57776204D02*
X171373773Y-57779804D01*
X171397571Y-57785765D01*
X171420671Y-57794030D01*
X171442849Y-57804520D01*
X171463893Y-57817133D01*
X171483598Y-57831747D01*
X171501777Y-57848223D01*
X171518253Y-57866402D01*
X171532867Y-57886107D01*
X171545480Y-57907151D01*
X171555970Y-57929329D01*
X171564235Y-57952429D01*
X171570196Y-57976227D01*
X171573796Y-58000496D01*
X171575000Y-58025000D01*
X171575000Y-58775000D01*
X171573796Y-58799504D01*
X171570196Y-58823773D01*
X171564235Y-58847571D01*
X171555970Y-58870671D01*
X171545480Y-58892849D01*
X171532867Y-58913893D01*
X171518253Y-58933598D01*
X171501777Y-58951777D01*
X171483598Y-58968253D01*
X171463893Y-58982867D01*
X171442849Y-58995480D01*
X171420671Y-59005970D01*
X171397571Y-59014235D01*
X171373773Y-59020196D01*
X171349504Y-59023796D01*
X171325000Y-59025000D01*
X170075000Y-59025000D01*
X170050496Y-59023796D01*
X170026227Y-59020196D01*
X170002429Y-59014235D01*
X169979329Y-59005970D01*
X169957151Y-58995480D01*
X169936107Y-58982867D01*
X169916402Y-58968253D01*
X169898223Y-58951777D01*
X169881747Y-58933598D01*
X169867133Y-58913893D01*
X169854520Y-58892849D01*
X169844030Y-58870671D01*
X169835765Y-58847571D01*
X169829804Y-58823773D01*
X169826204Y-58799504D01*
X169825000Y-58775000D01*
X169825000Y-58025000D01*
X169826204Y-58000496D01*
X169829804Y-57976227D01*
X169835765Y-57952429D01*
X169844030Y-57929329D01*
X169854520Y-57907151D01*
X169867133Y-57886107D01*
X169881747Y-57866402D01*
X169898223Y-57848223D01*
X169916402Y-57831747D01*
X169936107Y-57817133D01*
X169957151Y-57804520D01*
X169979329Y-57794030D01*
X170002429Y-57785765D01*
X170026227Y-57779804D01*
X170050496Y-57776204D01*
X170075000Y-57775000D01*
X171325000Y-57775000D01*
X171349504Y-57776204D01*
X171349504Y-57776204D01*
G37*
D17*
X170700000Y-58400000D03*
D13*
G36*
X171349504Y-60576204D02*
X171373773Y-60579804D01*
X171397571Y-60585765D01*
X171420671Y-60594030D01*
X171442849Y-60604520D01*
X171463893Y-60617133D01*
X171483598Y-60631747D01*
X171501777Y-60648223D01*
X171518253Y-60666402D01*
X171532867Y-60686107D01*
X171545480Y-60707151D01*
X171555970Y-60729329D01*
X171564235Y-60752429D01*
X171570196Y-60776227D01*
X171573796Y-60800496D01*
X171575000Y-60825000D01*
X171575000Y-61575000D01*
X171573796Y-61599504D01*
X171570196Y-61623773D01*
X171564235Y-61647571D01*
X171555970Y-61670671D01*
X171545480Y-61692849D01*
X171532867Y-61713893D01*
X171518253Y-61733598D01*
X171501777Y-61751777D01*
X171483598Y-61768253D01*
X171463893Y-61782867D01*
X171442849Y-61795480D01*
X171420671Y-61805970D01*
X171397571Y-61814235D01*
X171373773Y-61820196D01*
X171349504Y-61823796D01*
X171325000Y-61825000D01*
X170075000Y-61825000D01*
X170050496Y-61823796D01*
X170026227Y-61820196D01*
X170002429Y-61814235D01*
X169979329Y-61805970D01*
X169957151Y-61795480D01*
X169936107Y-61782867D01*
X169916402Y-61768253D01*
X169898223Y-61751777D01*
X169881747Y-61733598D01*
X169867133Y-61713893D01*
X169854520Y-61692849D01*
X169844030Y-61670671D01*
X169835765Y-61647571D01*
X169829804Y-61623773D01*
X169826204Y-61599504D01*
X169825000Y-61575000D01*
X169825000Y-60825000D01*
X169826204Y-60800496D01*
X169829804Y-60776227D01*
X169835765Y-60752429D01*
X169844030Y-60729329D01*
X169854520Y-60707151D01*
X169867133Y-60686107D01*
X169881747Y-60666402D01*
X169898223Y-60648223D01*
X169916402Y-60631747D01*
X169936107Y-60617133D01*
X169957151Y-60604520D01*
X169979329Y-60594030D01*
X170002429Y-60585765D01*
X170026227Y-60579804D01*
X170050496Y-60576204D01*
X170075000Y-60575000D01*
X171325000Y-60575000D01*
X171349504Y-60576204D01*
X171349504Y-60576204D01*
G37*
D17*
X170700000Y-61200000D03*
G04 #@! TD*
D13*
G04 #@! TO.C,R2*
G36*
X149999504Y-89126204D02*
X150023773Y-89129804D01*
X150047571Y-89135765D01*
X150070671Y-89144030D01*
X150092849Y-89154520D01*
X150113893Y-89167133D01*
X150133598Y-89181747D01*
X150151777Y-89198223D01*
X150168253Y-89216402D01*
X150182867Y-89236107D01*
X150195480Y-89257151D01*
X150205970Y-89279329D01*
X150214235Y-89302429D01*
X150220196Y-89326227D01*
X150223796Y-89350496D01*
X150225000Y-89375000D01*
X150225000Y-90625000D01*
X150223796Y-90649504D01*
X150220196Y-90673773D01*
X150214235Y-90697571D01*
X150205970Y-90720671D01*
X150195480Y-90742849D01*
X150182867Y-90763893D01*
X150168253Y-90783598D01*
X150151777Y-90801777D01*
X150133598Y-90818253D01*
X150113893Y-90832867D01*
X150092849Y-90845480D01*
X150070671Y-90855970D01*
X150047571Y-90864235D01*
X150023773Y-90870196D01*
X149999504Y-90873796D01*
X149975000Y-90875000D01*
X149225000Y-90875000D01*
X149200496Y-90873796D01*
X149176227Y-90870196D01*
X149152429Y-90864235D01*
X149129329Y-90855970D01*
X149107151Y-90845480D01*
X149086107Y-90832867D01*
X149066402Y-90818253D01*
X149048223Y-90801777D01*
X149031747Y-90783598D01*
X149017133Y-90763893D01*
X149004520Y-90742849D01*
X148994030Y-90720671D01*
X148985765Y-90697571D01*
X148979804Y-90673773D01*
X148976204Y-90649504D01*
X148975000Y-90625000D01*
X148975000Y-89375000D01*
X148976204Y-89350496D01*
X148979804Y-89326227D01*
X148985765Y-89302429D01*
X148994030Y-89279329D01*
X149004520Y-89257151D01*
X149017133Y-89236107D01*
X149031747Y-89216402D01*
X149048223Y-89198223D01*
X149066402Y-89181747D01*
X149086107Y-89167133D01*
X149107151Y-89154520D01*
X149129329Y-89144030D01*
X149152429Y-89135765D01*
X149176227Y-89129804D01*
X149200496Y-89126204D01*
X149225000Y-89125000D01*
X149975000Y-89125000D01*
X149999504Y-89126204D01*
X149999504Y-89126204D01*
G37*
D17*
X149600000Y-90000000D03*
D13*
G36*
X152799504Y-89126204D02*
X152823773Y-89129804D01*
X152847571Y-89135765D01*
X152870671Y-89144030D01*
X152892849Y-89154520D01*
X152913893Y-89167133D01*
X152933598Y-89181747D01*
X152951777Y-89198223D01*
X152968253Y-89216402D01*
X152982867Y-89236107D01*
X152995480Y-89257151D01*
X153005970Y-89279329D01*
X153014235Y-89302429D01*
X153020196Y-89326227D01*
X153023796Y-89350496D01*
X153025000Y-89375000D01*
X153025000Y-90625000D01*
X153023796Y-90649504D01*
X153020196Y-90673773D01*
X153014235Y-90697571D01*
X153005970Y-90720671D01*
X152995480Y-90742849D01*
X152982867Y-90763893D01*
X152968253Y-90783598D01*
X152951777Y-90801777D01*
X152933598Y-90818253D01*
X152913893Y-90832867D01*
X152892849Y-90845480D01*
X152870671Y-90855970D01*
X152847571Y-90864235D01*
X152823773Y-90870196D01*
X152799504Y-90873796D01*
X152775000Y-90875000D01*
X152025000Y-90875000D01*
X152000496Y-90873796D01*
X151976227Y-90870196D01*
X151952429Y-90864235D01*
X151929329Y-90855970D01*
X151907151Y-90845480D01*
X151886107Y-90832867D01*
X151866402Y-90818253D01*
X151848223Y-90801777D01*
X151831747Y-90783598D01*
X151817133Y-90763893D01*
X151804520Y-90742849D01*
X151794030Y-90720671D01*
X151785765Y-90697571D01*
X151779804Y-90673773D01*
X151776204Y-90649504D01*
X151775000Y-90625000D01*
X151775000Y-89375000D01*
X151776204Y-89350496D01*
X151779804Y-89326227D01*
X151785765Y-89302429D01*
X151794030Y-89279329D01*
X151804520Y-89257151D01*
X151817133Y-89236107D01*
X151831747Y-89216402D01*
X151848223Y-89198223D01*
X151866402Y-89181747D01*
X151886107Y-89167133D01*
X151907151Y-89154520D01*
X151929329Y-89144030D01*
X151952429Y-89135765D01*
X151976227Y-89129804D01*
X152000496Y-89126204D01*
X152025000Y-89125000D01*
X152775000Y-89125000D01*
X152799504Y-89126204D01*
X152799504Y-89126204D01*
G37*
D17*
X152400000Y-90000000D03*
G04 #@! TD*
D13*
G04 #@! TO.C,R3*
G36*
X151949504Y-39126204D02*
X151973773Y-39129804D01*
X151997571Y-39135765D01*
X152020671Y-39144030D01*
X152042849Y-39154520D01*
X152063893Y-39167133D01*
X152083598Y-39181747D01*
X152101777Y-39198223D01*
X152118253Y-39216402D01*
X152132867Y-39236107D01*
X152145480Y-39257151D01*
X152155970Y-39279329D01*
X152164235Y-39302429D01*
X152170196Y-39326227D01*
X152173796Y-39350496D01*
X152175000Y-39375000D01*
X152175000Y-40125000D01*
X152173796Y-40149504D01*
X152170196Y-40173773D01*
X152164235Y-40197571D01*
X152155970Y-40220671D01*
X152145480Y-40242849D01*
X152132867Y-40263893D01*
X152118253Y-40283598D01*
X152101777Y-40301777D01*
X152083598Y-40318253D01*
X152063893Y-40332867D01*
X152042849Y-40345480D01*
X152020671Y-40355970D01*
X151997571Y-40364235D01*
X151973773Y-40370196D01*
X151949504Y-40373796D01*
X151925000Y-40375000D01*
X150675000Y-40375000D01*
X150650496Y-40373796D01*
X150626227Y-40370196D01*
X150602429Y-40364235D01*
X150579329Y-40355970D01*
X150557151Y-40345480D01*
X150536107Y-40332867D01*
X150516402Y-40318253D01*
X150498223Y-40301777D01*
X150481747Y-40283598D01*
X150467133Y-40263893D01*
X150454520Y-40242849D01*
X150444030Y-40220671D01*
X150435765Y-40197571D01*
X150429804Y-40173773D01*
X150426204Y-40149504D01*
X150425000Y-40125000D01*
X150425000Y-39375000D01*
X150426204Y-39350496D01*
X150429804Y-39326227D01*
X150435765Y-39302429D01*
X150444030Y-39279329D01*
X150454520Y-39257151D01*
X150467133Y-39236107D01*
X150481747Y-39216402D01*
X150498223Y-39198223D01*
X150516402Y-39181747D01*
X150536107Y-39167133D01*
X150557151Y-39154520D01*
X150579329Y-39144030D01*
X150602429Y-39135765D01*
X150626227Y-39129804D01*
X150650496Y-39126204D01*
X150675000Y-39125000D01*
X151925000Y-39125000D01*
X151949504Y-39126204D01*
X151949504Y-39126204D01*
G37*
D17*
X151300000Y-39750000D03*
D13*
G36*
X151949504Y-36326204D02*
X151973773Y-36329804D01*
X151997571Y-36335765D01*
X152020671Y-36344030D01*
X152042849Y-36354520D01*
X152063893Y-36367133D01*
X152083598Y-36381747D01*
X152101777Y-36398223D01*
X152118253Y-36416402D01*
X152132867Y-36436107D01*
X152145480Y-36457151D01*
X152155970Y-36479329D01*
X152164235Y-36502429D01*
X152170196Y-36526227D01*
X152173796Y-36550496D01*
X152175000Y-36575000D01*
X152175000Y-37325000D01*
X152173796Y-37349504D01*
X152170196Y-37373773D01*
X152164235Y-37397571D01*
X152155970Y-37420671D01*
X152145480Y-37442849D01*
X152132867Y-37463893D01*
X152118253Y-37483598D01*
X152101777Y-37501777D01*
X152083598Y-37518253D01*
X152063893Y-37532867D01*
X152042849Y-37545480D01*
X152020671Y-37555970D01*
X151997571Y-37564235D01*
X151973773Y-37570196D01*
X151949504Y-37573796D01*
X151925000Y-37575000D01*
X150675000Y-37575000D01*
X150650496Y-37573796D01*
X150626227Y-37570196D01*
X150602429Y-37564235D01*
X150579329Y-37555970D01*
X150557151Y-37545480D01*
X150536107Y-37532867D01*
X150516402Y-37518253D01*
X150498223Y-37501777D01*
X150481747Y-37483598D01*
X150467133Y-37463893D01*
X150454520Y-37442849D01*
X150444030Y-37420671D01*
X150435765Y-37397571D01*
X150429804Y-37373773D01*
X150426204Y-37349504D01*
X150425000Y-37325000D01*
X150425000Y-36575000D01*
X150426204Y-36550496D01*
X150429804Y-36526227D01*
X150435765Y-36502429D01*
X150444030Y-36479329D01*
X150454520Y-36457151D01*
X150467133Y-36436107D01*
X150481747Y-36416402D01*
X150498223Y-36398223D01*
X150516402Y-36381747D01*
X150536107Y-36367133D01*
X150557151Y-36354520D01*
X150579329Y-36344030D01*
X150602429Y-36335765D01*
X150626227Y-36329804D01*
X150650496Y-36326204D01*
X150675000Y-36325000D01*
X151925000Y-36325000D01*
X151949504Y-36326204D01*
X151949504Y-36326204D01*
G37*
D17*
X151300000Y-36950000D03*
G04 #@! TD*
D13*
G04 #@! TO.C,R4*
G36*
X151999504Y-41076204D02*
X152023773Y-41079804D01*
X152047571Y-41085765D01*
X152070671Y-41094030D01*
X152092849Y-41104520D01*
X152113893Y-41117133D01*
X152133598Y-41131747D01*
X152151777Y-41148223D01*
X152168253Y-41166402D01*
X152182867Y-41186107D01*
X152195480Y-41207151D01*
X152205970Y-41229329D01*
X152214235Y-41252429D01*
X152220196Y-41276227D01*
X152223796Y-41300496D01*
X152225000Y-41325000D01*
X152225000Y-42075000D01*
X152223796Y-42099504D01*
X152220196Y-42123773D01*
X152214235Y-42147571D01*
X152205970Y-42170671D01*
X152195480Y-42192849D01*
X152182867Y-42213893D01*
X152168253Y-42233598D01*
X152151777Y-42251777D01*
X152133598Y-42268253D01*
X152113893Y-42282867D01*
X152092849Y-42295480D01*
X152070671Y-42305970D01*
X152047571Y-42314235D01*
X152023773Y-42320196D01*
X151999504Y-42323796D01*
X151975000Y-42325000D01*
X150725000Y-42325000D01*
X150700496Y-42323796D01*
X150676227Y-42320196D01*
X150652429Y-42314235D01*
X150629329Y-42305970D01*
X150607151Y-42295480D01*
X150586107Y-42282867D01*
X150566402Y-42268253D01*
X150548223Y-42251777D01*
X150531747Y-42233598D01*
X150517133Y-42213893D01*
X150504520Y-42192849D01*
X150494030Y-42170671D01*
X150485765Y-42147571D01*
X150479804Y-42123773D01*
X150476204Y-42099504D01*
X150475000Y-42075000D01*
X150475000Y-41325000D01*
X150476204Y-41300496D01*
X150479804Y-41276227D01*
X150485765Y-41252429D01*
X150494030Y-41229329D01*
X150504520Y-41207151D01*
X150517133Y-41186107D01*
X150531747Y-41166402D01*
X150548223Y-41148223D01*
X150566402Y-41131747D01*
X150586107Y-41117133D01*
X150607151Y-41104520D01*
X150629329Y-41094030D01*
X150652429Y-41085765D01*
X150676227Y-41079804D01*
X150700496Y-41076204D01*
X150725000Y-41075000D01*
X151975000Y-41075000D01*
X151999504Y-41076204D01*
X151999504Y-41076204D01*
G37*
D17*
X151350000Y-41700000D03*
D13*
G36*
X151999504Y-43876204D02*
X152023773Y-43879804D01*
X152047571Y-43885765D01*
X152070671Y-43894030D01*
X152092849Y-43904520D01*
X152113893Y-43917133D01*
X152133598Y-43931747D01*
X152151777Y-43948223D01*
X152168253Y-43966402D01*
X152182867Y-43986107D01*
X152195480Y-44007151D01*
X152205970Y-44029329D01*
X152214235Y-44052429D01*
X152220196Y-44076227D01*
X152223796Y-44100496D01*
X152225000Y-44125000D01*
X152225000Y-44875000D01*
X152223796Y-44899504D01*
X152220196Y-44923773D01*
X152214235Y-44947571D01*
X152205970Y-44970671D01*
X152195480Y-44992849D01*
X152182867Y-45013893D01*
X152168253Y-45033598D01*
X152151777Y-45051777D01*
X152133598Y-45068253D01*
X152113893Y-45082867D01*
X152092849Y-45095480D01*
X152070671Y-45105970D01*
X152047571Y-45114235D01*
X152023773Y-45120196D01*
X151999504Y-45123796D01*
X151975000Y-45125000D01*
X150725000Y-45125000D01*
X150700496Y-45123796D01*
X150676227Y-45120196D01*
X150652429Y-45114235D01*
X150629329Y-45105970D01*
X150607151Y-45095480D01*
X150586107Y-45082867D01*
X150566402Y-45068253D01*
X150548223Y-45051777D01*
X150531747Y-45033598D01*
X150517133Y-45013893D01*
X150504520Y-44992849D01*
X150494030Y-44970671D01*
X150485765Y-44947571D01*
X150479804Y-44923773D01*
X150476204Y-44899504D01*
X150475000Y-44875000D01*
X150475000Y-44125000D01*
X150476204Y-44100496D01*
X150479804Y-44076227D01*
X150485765Y-44052429D01*
X150494030Y-44029329D01*
X150504520Y-44007151D01*
X150517133Y-43986107D01*
X150531747Y-43966402D01*
X150548223Y-43948223D01*
X150566402Y-43931747D01*
X150586107Y-43917133D01*
X150607151Y-43904520D01*
X150629329Y-43894030D01*
X150652429Y-43885765D01*
X150676227Y-43879804D01*
X150700496Y-43876204D01*
X150725000Y-43875000D01*
X151975000Y-43875000D01*
X151999504Y-43876204D01*
X151999504Y-43876204D01*
G37*
D17*
X151350000Y-44500000D03*
G04 #@! TD*
D13*
G04 #@! TO.C,R5*
G36*
X141099504Y-89126204D02*
X141123773Y-89129804D01*
X141147571Y-89135765D01*
X141170671Y-89144030D01*
X141192849Y-89154520D01*
X141213893Y-89167133D01*
X141233598Y-89181747D01*
X141251777Y-89198223D01*
X141268253Y-89216402D01*
X141282867Y-89236107D01*
X141295480Y-89257151D01*
X141305970Y-89279329D01*
X141314235Y-89302429D01*
X141320196Y-89326227D01*
X141323796Y-89350496D01*
X141325000Y-89375000D01*
X141325000Y-90625000D01*
X141323796Y-90649504D01*
X141320196Y-90673773D01*
X141314235Y-90697571D01*
X141305970Y-90720671D01*
X141295480Y-90742849D01*
X141282867Y-90763893D01*
X141268253Y-90783598D01*
X141251777Y-90801777D01*
X141233598Y-90818253D01*
X141213893Y-90832867D01*
X141192849Y-90845480D01*
X141170671Y-90855970D01*
X141147571Y-90864235D01*
X141123773Y-90870196D01*
X141099504Y-90873796D01*
X141075000Y-90875000D01*
X140325000Y-90875000D01*
X140300496Y-90873796D01*
X140276227Y-90870196D01*
X140252429Y-90864235D01*
X140229329Y-90855970D01*
X140207151Y-90845480D01*
X140186107Y-90832867D01*
X140166402Y-90818253D01*
X140148223Y-90801777D01*
X140131747Y-90783598D01*
X140117133Y-90763893D01*
X140104520Y-90742849D01*
X140094030Y-90720671D01*
X140085765Y-90697571D01*
X140079804Y-90673773D01*
X140076204Y-90649504D01*
X140075000Y-90625000D01*
X140075000Y-89375000D01*
X140076204Y-89350496D01*
X140079804Y-89326227D01*
X140085765Y-89302429D01*
X140094030Y-89279329D01*
X140104520Y-89257151D01*
X140117133Y-89236107D01*
X140131747Y-89216402D01*
X140148223Y-89198223D01*
X140166402Y-89181747D01*
X140186107Y-89167133D01*
X140207151Y-89154520D01*
X140229329Y-89144030D01*
X140252429Y-89135765D01*
X140276227Y-89129804D01*
X140300496Y-89126204D01*
X140325000Y-89125000D01*
X141075000Y-89125000D01*
X141099504Y-89126204D01*
X141099504Y-89126204D01*
G37*
D17*
X140700000Y-90000000D03*
D13*
G36*
X143899504Y-89126204D02*
X143923773Y-89129804D01*
X143947571Y-89135765D01*
X143970671Y-89144030D01*
X143992849Y-89154520D01*
X144013893Y-89167133D01*
X144033598Y-89181747D01*
X144051777Y-89198223D01*
X144068253Y-89216402D01*
X144082867Y-89236107D01*
X144095480Y-89257151D01*
X144105970Y-89279329D01*
X144114235Y-89302429D01*
X144120196Y-89326227D01*
X144123796Y-89350496D01*
X144125000Y-89375000D01*
X144125000Y-90625000D01*
X144123796Y-90649504D01*
X144120196Y-90673773D01*
X144114235Y-90697571D01*
X144105970Y-90720671D01*
X144095480Y-90742849D01*
X144082867Y-90763893D01*
X144068253Y-90783598D01*
X144051777Y-90801777D01*
X144033598Y-90818253D01*
X144013893Y-90832867D01*
X143992849Y-90845480D01*
X143970671Y-90855970D01*
X143947571Y-90864235D01*
X143923773Y-90870196D01*
X143899504Y-90873796D01*
X143875000Y-90875000D01*
X143125000Y-90875000D01*
X143100496Y-90873796D01*
X143076227Y-90870196D01*
X143052429Y-90864235D01*
X143029329Y-90855970D01*
X143007151Y-90845480D01*
X142986107Y-90832867D01*
X142966402Y-90818253D01*
X142948223Y-90801777D01*
X142931747Y-90783598D01*
X142917133Y-90763893D01*
X142904520Y-90742849D01*
X142894030Y-90720671D01*
X142885765Y-90697571D01*
X142879804Y-90673773D01*
X142876204Y-90649504D01*
X142875000Y-90625000D01*
X142875000Y-89375000D01*
X142876204Y-89350496D01*
X142879804Y-89326227D01*
X142885765Y-89302429D01*
X142894030Y-89279329D01*
X142904520Y-89257151D01*
X142917133Y-89236107D01*
X142931747Y-89216402D01*
X142948223Y-89198223D01*
X142966402Y-89181747D01*
X142986107Y-89167133D01*
X143007151Y-89154520D01*
X143029329Y-89144030D01*
X143052429Y-89135765D01*
X143076227Y-89129804D01*
X143100496Y-89126204D01*
X143125000Y-89125000D01*
X143875000Y-89125000D01*
X143899504Y-89126204D01*
X143899504Y-89126204D01*
G37*
D17*
X143500000Y-90000000D03*
G04 #@! TD*
D13*
G04 #@! TO.C,R6*
G36*
X155899504Y-35926204D02*
X155923773Y-35929804D01*
X155947571Y-35935765D01*
X155970671Y-35944030D01*
X155992849Y-35954520D01*
X156013893Y-35967133D01*
X156033598Y-35981747D01*
X156051777Y-35998223D01*
X156068253Y-36016402D01*
X156082867Y-36036107D01*
X156095480Y-36057151D01*
X156105970Y-36079329D01*
X156114235Y-36102429D01*
X156120196Y-36126227D01*
X156123796Y-36150496D01*
X156125000Y-36175000D01*
X156125000Y-37425000D01*
X156123796Y-37449504D01*
X156120196Y-37473773D01*
X156114235Y-37497571D01*
X156105970Y-37520671D01*
X156095480Y-37542849D01*
X156082867Y-37563893D01*
X156068253Y-37583598D01*
X156051777Y-37601777D01*
X156033598Y-37618253D01*
X156013893Y-37632867D01*
X155992849Y-37645480D01*
X155970671Y-37655970D01*
X155947571Y-37664235D01*
X155923773Y-37670196D01*
X155899504Y-37673796D01*
X155875000Y-37675000D01*
X155125000Y-37675000D01*
X155100496Y-37673796D01*
X155076227Y-37670196D01*
X155052429Y-37664235D01*
X155029329Y-37655970D01*
X155007151Y-37645480D01*
X154986107Y-37632867D01*
X154966402Y-37618253D01*
X154948223Y-37601777D01*
X154931747Y-37583598D01*
X154917133Y-37563893D01*
X154904520Y-37542849D01*
X154894030Y-37520671D01*
X154885765Y-37497571D01*
X154879804Y-37473773D01*
X154876204Y-37449504D01*
X154875000Y-37425000D01*
X154875000Y-36175000D01*
X154876204Y-36150496D01*
X154879804Y-36126227D01*
X154885765Y-36102429D01*
X154894030Y-36079329D01*
X154904520Y-36057151D01*
X154917133Y-36036107D01*
X154931747Y-36016402D01*
X154948223Y-35998223D01*
X154966402Y-35981747D01*
X154986107Y-35967133D01*
X155007151Y-35954520D01*
X155029329Y-35944030D01*
X155052429Y-35935765D01*
X155076227Y-35929804D01*
X155100496Y-35926204D01*
X155125000Y-35925000D01*
X155875000Y-35925000D01*
X155899504Y-35926204D01*
X155899504Y-35926204D01*
G37*
D17*
X155500000Y-36800000D03*
D13*
G36*
X158699504Y-35926204D02*
X158723773Y-35929804D01*
X158747571Y-35935765D01*
X158770671Y-35944030D01*
X158792849Y-35954520D01*
X158813893Y-35967133D01*
X158833598Y-35981747D01*
X158851777Y-35998223D01*
X158868253Y-36016402D01*
X158882867Y-36036107D01*
X158895480Y-36057151D01*
X158905970Y-36079329D01*
X158914235Y-36102429D01*
X158920196Y-36126227D01*
X158923796Y-36150496D01*
X158925000Y-36175000D01*
X158925000Y-37425000D01*
X158923796Y-37449504D01*
X158920196Y-37473773D01*
X158914235Y-37497571D01*
X158905970Y-37520671D01*
X158895480Y-37542849D01*
X158882867Y-37563893D01*
X158868253Y-37583598D01*
X158851777Y-37601777D01*
X158833598Y-37618253D01*
X158813893Y-37632867D01*
X158792849Y-37645480D01*
X158770671Y-37655970D01*
X158747571Y-37664235D01*
X158723773Y-37670196D01*
X158699504Y-37673796D01*
X158675000Y-37675000D01*
X157925000Y-37675000D01*
X157900496Y-37673796D01*
X157876227Y-37670196D01*
X157852429Y-37664235D01*
X157829329Y-37655970D01*
X157807151Y-37645480D01*
X157786107Y-37632867D01*
X157766402Y-37618253D01*
X157748223Y-37601777D01*
X157731747Y-37583598D01*
X157717133Y-37563893D01*
X157704520Y-37542849D01*
X157694030Y-37520671D01*
X157685765Y-37497571D01*
X157679804Y-37473773D01*
X157676204Y-37449504D01*
X157675000Y-37425000D01*
X157675000Y-36175000D01*
X157676204Y-36150496D01*
X157679804Y-36126227D01*
X157685765Y-36102429D01*
X157694030Y-36079329D01*
X157704520Y-36057151D01*
X157717133Y-36036107D01*
X157731747Y-36016402D01*
X157748223Y-35998223D01*
X157766402Y-35981747D01*
X157786107Y-35967133D01*
X157807151Y-35954520D01*
X157829329Y-35944030D01*
X157852429Y-35935765D01*
X157876227Y-35929804D01*
X157900496Y-35926204D01*
X157925000Y-35925000D01*
X158675000Y-35925000D01*
X158699504Y-35926204D01*
X158699504Y-35926204D01*
G37*
D17*
X158300000Y-36800000D03*
G04 #@! TD*
D13*
G04 #@! TO.C,R7*
G36*
X120049504Y-89376204D02*
X120073773Y-89379804D01*
X120097571Y-89385765D01*
X120120671Y-89394030D01*
X120142849Y-89404520D01*
X120163893Y-89417133D01*
X120183598Y-89431747D01*
X120201777Y-89448223D01*
X120218253Y-89466402D01*
X120232867Y-89486107D01*
X120245480Y-89507151D01*
X120255970Y-89529329D01*
X120264235Y-89552429D01*
X120270196Y-89576227D01*
X120273796Y-89600496D01*
X120275000Y-89625000D01*
X120275000Y-90375000D01*
X120273796Y-90399504D01*
X120270196Y-90423773D01*
X120264235Y-90447571D01*
X120255970Y-90470671D01*
X120245480Y-90492849D01*
X120232867Y-90513893D01*
X120218253Y-90533598D01*
X120201777Y-90551777D01*
X120183598Y-90568253D01*
X120163893Y-90582867D01*
X120142849Y-90595480D01*
X120120671Y-90605970D01*
X120097571Y-90614235D01*
X120073773Y-90620196D01*
X120049504Y-90623796D01*
X120025000Y-90625000D01*
X118775000Y-90625000D01*
X118750496Y-90623796D01*
X118726227Y-90620196D01*
X118702429Y-90614235D01*
X118679329Y-90605970D01*
X118657151Y-90595480D01*
X118636107Y-90582867D01*
X118616402Y-90568253D01*
X118598223Y-90551777D01*
X118581747Y-90533598D01*
X118567133Y-90513893D01*
X118554520Y-90492849D01*
X118544030Y-90470671D01*
X118535765Y-90447571D01*
X118529804Y-90423773D01*
X118526204Y-90399504D01*
X118525000Y-90375000D01*
X118525000Y-89625000D01*
X118526204Y-89600496D01*
X118529804Y-89576227D01*
X118535765Y-89552429D01*
X118544030Y-89529329D01*
X118554520Y-89507151D01*
X118567133Y-89486107D01*
X118581747Y-89466402D01*
X118598223Y-89448223D01*
X118616402Y-89431747D01*
X118636107Y-89417133D01*
X118657151Y-89404520D01*
X118679329Y-89394030D01*
X118702429Y-89385765D01*
X118726227Y-89379804D01*
X118750496Y-89376204D01*
X118775000Y-89375000D01*
X120025000Y-89375000D01*
X120049504Y-89376204D01*
X120049504Y-89376204D01*
G37*
D17*
X119400000Y-90000000D03*
D13*
G36*
X120049504Y-86576204D02*
X120073773Y-86579804D01*
X120097571Y-86585765D01*
X120120671Y-86594030D01*
X120142849Y-86604520D01*
X120163893Y-86617133D01*
X120183598Y-86631747D01*
X120201777Y-86648223D01*
X120218253Y-86666402D01*
X120232867Y-86686107D01*
X120245480Y-86707151D01*
X120255970Y-86729329D01*
X120264235Y-86752429D01*
X120270196Y-86776227D01*
X120273796Y-86800496D01*
X120275000Y-86825000D01*
X120275000Y-87575000D01*
X120273796Y-87599504D01*
X120270196Y-87623773D01*
X120264235Y-87647571D01*
X120255970Y-87670671D01*
X120245480Y-87692849D01*
X120232867Y-87713893D01*
X120218253Y-87733598D01*
X120201777Y-87751777D01*
X120183598Y-87768253D01*
X120163893Y-87782867D01*
X120142849Y-87795480D01*
X120120671Y-87805970D01*
X120097571Y-87814235D01*
X120073773Y-87820196D01*
X120049504Y-87823796D01*
X120025000Y-87825000D01*
X118775000Y-87825000D01*
X118750496Y-87823796D01*
X118726227Y-87820196D01*
X118702429Y-87814235D01*
X118679329Y-87805970D01*
X118657151Y-87795480D01*
X118636107Y-87782867D01*
X118616402Y-87768253D01*
X118598223Y-87751777D01*
X118581747Y-87733598D01*
X118567133Y-87713893D01*
X118554520Y-87692849D01*
X118544030Y-87670671D01*
X118535765Y-87647571D01*
X118529804Y-87623773D01*
X118526204Y-87599504D01*
X118525000Y-87575000D01*
X118525000Y-86825000D01*
X118526204Y-86800496D01*
X118529804Y-86776227D01*
X118535765Y-86752429D01*
X118544030Y-86729329D01*
X118554520Y-86707151D01*
X118567133Y-86686107D01*
X118581747Y-86666402D01*
X118598223Y-86648223D01*
X118616402Y-86631747D01*
X118636107Y-86617133D01*
X118657151Y-86604520D01*
X118679329Y-86594030D01*
X118702429Y-86585765D01*
X118726227Y-86579804D01*
X118750496Y-86576204D01*
X118775000Y-86575000D01*
X120025000Y-86575000D01*
X120049504Y-86576204D01*
X120049504Y-86576204D01*
G37*
D17*
X119400000Y-87200000D03*
G04 #@! TD*
D13*
G04 #@! TO.C,R8*
G36*
X125049504Y-89326204D02*
X125073773Y-89329804D01*
X125097571Y-89335765D01*
X125120671Y-89344030D01*
X125142849Y-89354520D01*
X125163893Y-89367133D01*
X125183598Y-89381747D01*
X125201777Y-89398223D01*
X125218253Y-89416402D01*
X125232867Y-89436107D01*
X125245480Y-89457151D01*
X125255970Y-89479329D01*
X125264235Y-89502429D01*
X125270196Y-89526227D01*
X125273796Y-89550496D01*
X125275000Y-89575000D01*
X125275000Y-90325000D01*
X125273796Y-90349504D01*
X125270196Y-90373773D01*
X125264235Y-90397571D01*
X125255970Y-90420671D01*
X125245480Y-90442849D01*
X125232867Y-90463893D01*
X125218253Y-90483598D01*
X125201777Y-90501777D01*
X125183598Y-90518253D01*
X125163893Y-90532867D01*
X125142849Y-90545480D01*
X125120671Y-90555970D01*
X125097571Y-90564235D01*
X125073773Y-90570196D01*
X125049504Y-90573796D01*
X125025000Y-90575000D01*
X123775000Y-90575000D01*
X123750496Y-90573796D01*
X123726227Y-90570196D01*
X123702429Y-90564235D01*
X123679329Y-90555970D01*
X123657151Y-90545480D01*
X123636107Y-90532867D01*
X123616402Y-90518253D01*
X123598223Y-90501777D01*
X123581747Y-90483598D01*
X123567133Y-90463893D01*
X123554520Y-90442849D01*
X123544030Y-90420671D01*
X123535765Y-90397571D01*
X123529804Y-90373773D01*
X123526204Y-90349504D01*
X123525000Y-90325000D01*
X123525000Y-89575000D01*
X123526204Y-89550496D01*
X123529804Y-89526227D01*
X123535765Y-89502429D01*
X123544030Y-89479329D01*
X123554520Y-89457151D01*
X123567133Y-89436107D01*
X123581747Y-89416402D01*
X123598223Y-89398223D01*
X123616402Y-89381747D01*
X123636107Y-89367133D01*
X123657151Y-89354520D01*
X123679329Y-89344030D01*
X123702429Y-89335765D01*
X123726227Y-89329804D01*
X123750496Y-89326204D01*
X123775000Y-89325000D01*
X125025000Y-89325000D01*
X125049504Y-89326204D01*
X125049504Y-89326204D01*
G37*
D17*
X124400000Y-89950000D03*
D13*
G36*
X125049504Y-86526204D02*
X125073773Y-86529804D01*
X125097571Y-86535765D01*
X125120671Y-86544030D01*
X125142849Y-86554520D01*
X125163893Y-86567133D01*
X125183598Y-86581747D01*
X125201777Y-86598223D01*
X125218253Y-86616402D01*
X125232867Y-86636107D01*
X125245480Y-86657151D01*
X125255970Y-86679329D01*
X125264235Y-86702429D01*
X125270196Y-86726227D01*
X125273796Y-86750496D01*
X125275000Y-86775000D01*
X125275000Y-87525000D01*
X125273796Y-87549504D01*
X125270196Y-87573773D01*
X125264235Y-87597571D01*
X125255970Y-87620671D01*
X125245480Y-87642849D01*
X125232867Y-87663893D01*
X125218253Y-87683598D01*
X125201777Y-87701777D01*
X125183598Y-87718253D01*
X125163893Y-87732867D01*
X125142849Y-87745480D01*
X125120671Y-87755970D01*
X125097571Y-87764235D01*
X125073773Y-87770196D01*
X125049504Y-87773796D01*
X125025000Y-87775000D01*
X123775000Y-87775000D01*
X123750496Y-87773796D01*
X123726227Y-87770196D01*
X123702429Y-87764235D01*
X123679329Y-87755970D01*
X123657151Y-87745480D01*
X123636107Y-87732867D01*
X123616402Y-87718253D01*
X123598223Y-87701777D01*
X123581747Y-87683598D01*
X123567133Y-87663893D01*
X123554520Y-87642849D01*
X123544030Y-87620671D01*
X123535765Y-87597571D01*
X123529804Y-87573773D01*
X123526204Y-87549504D01*
X123525000Y-87525000D01*
X123525000Y-86775000D01*
X123526204Y-86750496D01*
X123529804Y-86726227D01*
X123535765Y-86702429D01*
X123544030Y-86679329D01*
X123554520Y-86657151D01*
X123567133Y-86636107D01*
X123581747Y-86616402D01*
X123598223Y-86598223D01*
X123616402Y-86581747D01*
X123636107Y-86567133D01*
X123657151Y-86554520D01*
X123679329Y-86544030D01*
X123702429Y-86535765D01*
X123726227Y-86529804D01*
X123750496Y-86526204D01*
X123775000Y-86525000D01*
X125025000Y-86525000D01*
X125049504Y-86526204D01*
X125049504Y-86526204D01*
G37*
D17*
X124400000Y-87150000D03*
G04 #@! TD*
M02*
