G04 #@! TF.GenerationSoftware,KiCad,Pcbnew,5.0.2-bee76a0~70~ubuntu18.04.1*
G04 #@! TF.CreationDate,2019-05-07T17:56:58+05:30*
G04 #@! TF.ProjectId,motbox_with_promini,6d6f7462-6f78-45f7-9769-74685f70726f,rev?*
G04 #@! TF.SameCoordinates,Original*
G04 #@! TF.FileFunction,Copper,L2,Bot*
G04 #@! TF.FilePolarity,Positive*
%FSLAX46Y46*%
G04 Gerber Fmt 4.6, Leading zero omitted, Abs format (unit mm)*
G04 Created by KiCad (PCBNEW 5.0.2-bee76a0~70~ubuntu18.04.1) date Tue May  7 17:56:58 2019*
%MOMM*%
%LPD*%
G01*
G04 APERTURE LIST*
G04 #@! TA.AperFunction,ComponentPad*
%ADD10R,1.600000X1.600000*%
G04 #@! TD*
G04 #@! TA.AperFunction,ComponentPad*
%ADD11O,1.600000X1.600000*%
G04 #@! TD*
G04 #@! TA.AperFunction,ComponentPad*
%ADD12O,2.032000X1.727200*%
G04 #@! TD*
G04 #@! TA.AperFunction,ComponentPad*
%ADD13O,1.727200X2.032000*%
G04 #@! TD*
G04 #@! TA.AperFunction,ComponentPad*
%ADD14C,1.778000*%
G04 #@! TD*
G04 #@! TA.AperFunction,ComponentPad*
%ADD15O,1.700000X2.000000*%
G04 #@! TD*
G04 #@! TA.AperFunction,Conductor*
%ADD16C,0.100000*%
G04 #@! TD*
G04 #@! TA.AperFunction,ComponentPad*
%ADD17C,1.700000*%
G04 #@! TD*
G04 #@! TA.AperFunction,ComponentPad*
%ADD18R,3.200000X3.200000*%
G04 #@! TD*
G04 #@! TA.AperFunction,ComponentPad*
%ADD19O,3.200000X3.200000*%
G04 #@! TD*
G04 #@! TA.AperFunction,ComponentPad*
%ADD20O,2.000000X1.700000*%
G04 #@! TD*
G04 #@! TA.AperFunction,ComponentPad*
%ADD21R,1.700000X1.700000*%
G04 #@! TD*
G04 #@! TA.AperFunction,ComponentPad*
%ADD22O,1.700000X1.700000*%
G04 #@! TD*
G04 #@! TA.AperFunction,ComponentPad*
%ADD23O,1.700000X1.950000*%
G04 #@! TD*
G04 #@! TA.AperFunction,ComponentPad*
%ADD24C,4.400000*%
G04 #@! TD*
G04 #@! TA.AperFunction,ViaPad*
%ADD25C,0.600000*%
G04 #@! TD*
G04 #@! TA.AperFunction,ViaPad*
%ADD26C,0.800000*%
G04 #@! TD*
G04 #@! TA.AperFunction,Conductor*
%ADD27C,0.300000*%
G04 #@! TD*
G04 #@! TA.AperFunction,Conductor*
%ADD28C,0.600000*%
G04 #@! TD*
G04 #@! TA.AperFunction,Conductor*
%ADD29C,0.500000*%
G04 #@! TD*
G04 #@! TA.AperFunction,Conductor*
%ADD30C,0.254000*%
G04 #@! TD*
G04 APERTURE END LIST*
D10*
G04 #@! TO.P,U3,1*
G04 #@! TO.N,/2*
X128720000Y-43250000D03*
D11*
G04 #@! TO.P,U3,9*
G04 #@! TO.N,GND*
X146500000Y-35630000D03*
G04 #@! TO.P,U3,2*
G04 #@! TO.N,/6*
X131260000Y-43250000D03*
G04 #@! TO.P,U3,10*
G04 #@! TO.N,N/C*
X143960000Y-35630000D03*
G04 #@! TO.P,U3,3*
G04 #@! TO.N,Net-(J7-Pad1)*
X133800000Y-43250000D03*
G04 #@! TO.P,U3,11*
G04 #@! TO.N,N/C*
X141420000Y-35630000D03*
G04 #@! TO.P,U3,4*
G04 #@! TO.N,GND*
X136340000Y-43250000D03*
G04 #@! TO.P,U3,12*
X138880000Y-35630000D03*
G04 #@! TO.P,U3,5*
X138880000Y-43250000D03*
G04 #@! TO.P,U3,13*
X136340000Y-35630000D03*
G04 #@! TO.P,U3,6*
G04 #@! TO.N,Net-(J7-Pad2)*
X141420000Y-43250000D03*
G04 #@! TO.P,U3,14*
G04 #@! TO.N,N/C*
X133800000Y-35630000D03*
G04 #@! TO.P,U3,7*
G04 #@! TO.N,/3*
X143960000Y-43250000D03*
G04 #@! TO.P,U3,15*
G04 #@! TO.N,N/C*
X131260000Y-35630000D03*
G04 #@! TO.P,U3,8*
G04 #@! TO.N,+12V*
X146500000Y-43250000D03*
G04 #@! TO.P,U3,16*
G04 #@! TO.N,+5V*
X128720000Y-35630000D03*
G04 #@! TD*
D12*
G04 #@! TO.P,P1,1*
G04 #@! TO.N,/1(Tx)*
X161330000Y-50890000D03*
G04 #@! TO.P,P1,2*
G04 #@! TO.N,/0(Rx)*
X161330000Y-53430000D03*
G04 #@! TO.P,P1,3*
G04 #@! TO.N,/Reset*
X161330000Y-55970000D03*
G04 #@! TO.P,P1,4*
G04 #@! TO.N,GND*
X161330000Y-58510000D03*
G04 #@! TO.P,P1,5*
G04 #@! TO.N,/2*
X161330000Y-61050000D03*
G04 #@! TO.P,P1,6*
G04 #@! TO.N,/3*
X161330000Y-63590000D03*
G04 #@! TO.P,P1,7*
G04 #@! TO.N,/4*
X161330000Y-66130000D03*
G04 #@! TO.P,P1,8*
G04 #@! TO.N,/5*
X161330000Y-68670000D03*
G04 #@! TO.P,P1,9*
G04 #@! TO.N,/6*
X161330000Y-71210000D03*
G04 #@! TO.P,P1,10*
G04 #@! TO.N,/7*
X161330000Y-73750000D03*
G04 #@! TO.P,P1,11*
G04 #@! TO.N,/8*
X161330000Y-76290000D03*
G04 #@! TO.P,P1,12*
G04 #@! TO.N,/5*
X161330000Y-78830000D03*
G04 #@! TD*
D13*
G04 #@! TO.P,P3,1*
G04 #@! TO.N,N/C*
X162600000Y-48350000D03*
G04 #@! TO.P,P3,2*
G04 #@! TO.N,/1(Tx)*
X165140000Y-48350000D03*
G04 #@! TO.P,P3,3*
G04 #@! TO.N,/0(Rx)*
X167680000Y-48350000D03*
G04 #@! TO.P,P3,4*
G04 #@! TO.N,+5V*
X170220000Y-48350000D03*
G04 #@! TO.P,P3,5*
G04 #@! TO.N,GND*
X172760000Y-48350000D03*
G04 #@! TO.P,P3,6*
X175300000Y-48350000D03*
G04 #@! TD*
D14*
G04 #@! TO.P,P2,1*
G04 #@! TO.N,N/C*
X174030000Y-59780000D03*
G04 #@! TO.P,P2,2*
X174030000Y-62320000D03*
G04 #@! TD*
D12*
G04 #@! TO.P,P5,1*
G04 #@! TO.N,N/C*
X176570000Y-50890000D03*
G04 #@! TO.P,P5,2*
G04 #@! TO.N,GND*
X176570000Y-53430000D03*
G04 #@! TO.P,P5,3*
G04 #@! TO.N,/Reset*
X176570000Y-55970000D03*
G04 #@! TO.P,P5,4*
G04 #@! TO.N,+5V*
X176570000Y-58510000D03*
G04 #@! TO.P,P5,5*
G04 #@! TO.N,N/C*
X176570000Y-61050000D03*
G04 #@! TO.P,P5,6*
X176570000Y-63590000D03*
G04 #@! TO.P,P5,7*
X176570000Y-66130000D03*
G04 #@! TO.P,P5,8*
X176570000Y-68670000D03*
G04 #@! TO.P,P5,9*
G04 #@! TO.N,/13*
X176570000Y-71210000D03*
G04 #@! TO.P,P5,10*
G04 #@! TO.N,/12*
X176570000Y-73750000D03*
G04 #@! TO.P,P5,11*
G04 #@! TO.N,/11*
X176570000Y-76290000D03*
G04 #@! TO.P,P5,12*
G04 #@! TO.N,/10*
X176570000Y-78830000D03*
G04 #@! TD*
D14*
G04 #@! TO.P,P4,1*
G04 #@! TO.N,N/C*
X174030000Y-69940000D03*
G04 #@! TO.P,P4,2*
X174030000Y-72480000D03*
G04 #@! TD*
D15*
G04 #@! TO.P,J5,2*
G04 #@! TO.N,Net-(J5-Pad2)*
X158400000Y-93500000D03*
D16*
G04 #@! TD*
G04 #@! TO.N,GND*
G04 #@! TO.C,J5*
G36*
X156524504Y-92501204D02*
X156548773Y-92504804D01*
X156572571Y-92510765D01*
X156595671Y-92519030D01*
X156617849Y-92529520D01*
X156638893Y-92542133D01*
X156658598Y-92556747D01*
X156676777Y-92573223D01*
X156693253Y-92591402D01*
X156707867Y-92611107D01*
X156720480Y-92632151D01*
X156730970Y-92654329D01*
X156739235Y-92677429D01*
X156745196Y-92701227D01*
X156748796Y-92725496D01*
X156750000Y-92750000D01*
X156750000Y-94250000D01*
X156748796Y-94274504D01*
X156745196Y-94298773D01*
X156739235Y-94322571D01*
X156730970Y-94345671D01*
X156720480Y-94367849D01*
X156707867Y-94388893D01*
X156693253Y-94408598D01*
X156676777Y-94426777D01*
X156658598Y-94443253D01*
X156638893Y-94457867D01*
X156617849Y-94470480D01*
X156595671Y-94480970D01*
X156572571Y-94489235D01*
X156548773Y-94495196D01*
X156524504Y-94498796D01*
X156500000Y-94500000D01*
X155300000Y-94500000D01*
X155275496Y-94498796D01*
X155251227Y-94495196D01*
X155227429Y-94489235D01*
X155204329Y-94480970D01*
X155182151Y-94470480D01*
X155161107Y-94457867D01*
X155141402Y-94443253D01*
X155123223Y-94426777D01*
X155106747Y-94408598D01*
X155092133Y-94388893D01*
X155079520Y-94367849D01*
X155069030Y-94345671D01*
X155060765Y-94322571D01*
X155054804Y-94298773D01*
X155051204Y-94274504D01*
X155050000Y-94250000D01*
X155050000Y-92750000D01*
X155051204Y-92725496D01*
X155054804Y-92701227D01*
X155060765Y-92677429D01*
X155069030Y-92654329D01*
X155079520Y-92632151D01*
X155092133Y-92611107D01*
X155106747Y-92591402D01*
X155123223Y-92573223D01*
X155141402Y-92556747D01*
X155161107Y-92542133D01*
X155182151Y-92529520D01*
X155204329Y-92519030D01*
X155227429Y-92510765D01*
X155251227Y-92504804D01*
X155275496Y-92501204D01*
X155300000Y-92500000D01*
X156500000Y-92500000D01*
X156524504Y-92501204D01*
X156524504Y-92501204D01*
G37*
D17*
G04 #@! TO.P,J5,1*
G04 #@! TO.N,GND*
X155900000Y-93500000D03*
G04 #@! TD*
D18*
G04 #@! TO.P,D1,1*
G04 #@! TO.N,Net-(D1-Pad1)*
X102500000Y-82300000D03*
D19*
G04 #@! TO.P,D1,2*
G04 #@! TO.N,GND*
X102500000Y-67060000D03*
G04 #@! TD*
D16*
G04 #@! TO.N,GND*
G04 #@! TO.C,J1*
G36*
X102574504Y-60551204D02*
X102598773Y-60554804D01*
X102622571Y-60560765D01*
X102645671Y-60569030D01*
X102667849Y-60579520D01*
X102688893Y-60592133D01*
X102708598Y-60606747D01*
X102726777Y-60623223D01*
X102743253Y-60641402D01*
X102757867Y-60661107D01*
X102770480Y-60682151D01*
X102780970Y-60704329D01*
X102789235Y-60727429D01*
X102795196Y-60751227D01*
X102798796Y-60775496D01*
X102800000Y-60800000D01*
X102800000Y-62000000D01*
X102798796Y-62024504D01*
X102795196Y-62048773D01*
X102789235Y-62072571D01*
X102780970Y-62095671D01*
X102770480Y-62117849D01*
X102757867Y-62138893D01*
X102743253Y-62158598D01*
X102726777Y-62176777D01*
X102708598Y-62193253D01*
X102688893Y-62207867D01*
X102667849Y-62220480D01*
X102645671Y-62230970D01*
X102622571Y-62239235D01*
X102598773Y-62245196D01*
X102574504Y-62248796D01*
X102550000Y-62250000D01*
X101050000Y-62250000D01*
X101025496Y-62248796D01*
X101001227Y-62245196D01*
X100977429Y-62239235D01*
X100954329Y-62230970D01*
X100932151Y-62220480D01*
X100911107Y-62207867D01*
X100891402Y-62193253D01*
X100873223Y-62176777D01*
X100856747Y-62158598D01*
X100842133Y-62138893D01*
X100829520Y-62117849D01*
X100819030Y-62095671D01*
X100810765Y-62072571D01*
X100804804Y-62048773D01*
X100801204Y-62024504D01*
X100800000Y-62000000D01*
X100800000Y-60800000D01*
X100801204Y-60775496D01*
X100804804Y-60751227D01*
X100810765Y-60727429D01*
X100819030Y-60704329D01*
X100829520Y-60682151D01*
X100842133Y-60661107D01*
X100856747Y-60641402D01*
X100873223Y-60623223D01*
X100891402Y-60606747D01*
X100911107Y-60592133D01*
X100932151Y-60579520D01*
X100954329Y-60569030D01*
X100977429Y-60560765D01*
X101001227Y-60554804D01*
X101025496Y-60551204D01*
X101050000Y-60550000D01*
X102550000Y-60550000D01*
X102574504Y-60551204D01*
X102574504Y-60551204D01*
G37*
D17*
G04 #@! TD*
G04 #@! TO.P,J1,1*
G04 #@! TO.N,GND*
X101800000Y-61400000D03*
D20*
G04 #@! TO.P,J1,2*
G04 #@! TO.N,+12V*
X101800000Y-58900000D03*
G04 #@! TD*
D21*
G04 #@! TO.P,J2,1*
G04 #@! TO.N,GND*
X171600000Y-83800000D03*
D22*
G04 #@! TO.P,J2,2*
G04 #@! TO.N,/10*
X174140000Y-83800000D03*
G04 #@! TO.P,J2,3*
G04 #@! TO.N,+5V*
X176680000Y-83800000D03*
G04 #@! TD*
D16*
G04 #@! TO.N,GND*
G04 #@! TO.C,J3*
G36*
X147724504Y-92501204D02*
X147748773Y-92504804D01*
X147772571Y-92510765D01*
X147795671Y-92519030D01*
X147817849Y-92529520D01*
X147838893Y-92542133D01*
X147858598Y-92556747D01*
X147876777Y-92573223D01*
X147893253Y-92591402D01*
X147907867Y-92611107D01*
X147920480Y-92632151D01*
X147930970Y-92654329D01*
X147939235Y-92677429D01*
X147945196Y-92701227D01*
X147948796Y-92725496D01*
X147950000Y-92750000D01*
X147950000Y-94250000D01*
X147948796Y-94274504D01*
X147945196Y-94298773D01*
X147939235Y-94322571D01*
X147930970Y-94345671D01*
X147920480Y-94367849D01*
X147907867Y-94388893D01*
X147893253Y-94408598D01*
X147876777Y-94426777D01*
X147858598Y-94443253D01*
X147838893Y-94457867D01*
X147817849Y-94470480D01*
X147795671Y-94480970D01*
X147772571Y-94489235D01*
X147748773Y-94495196D01*
X147724504Y-94498796D01*
X147700000Y-94500000D01*
X146500000Y-94500000D01*
X146475496Y-94498796D01*
X146451227Y-94495196D01*
X146427429Y-94489235D01*
X146404329Y-94480970D01*
X146382151Y-94470480D01*
X146361107Y-94457867D01*
X146341402Y-94443253D01*
X146323223Y-94426777D01*
X146306747Y-94408598D01*
X146292133Y-94388893D01*
X146279520Y-94367849D01*
X146269030Y-94345671D01*
X146260765Y-94322571D01*
X146254804Y-94298773D01*
X146251204Y-94274504D01*
X146250000Y-94250000D01*
X146250000Y-92750000D01*
X146251204Y-92725496D01*
X146254804Y-92701227D01*
X146260765Y-92677429D01*
X146269030Y-92654329D01*
X146279520Y-92632151D01*
X146292133Y-92611107D01*
X146306747Y-92591402D01*
X146323223Y-92573223D01*
X146341402Y-92556747D01*
X146361107Y-92542133D01*
X146382151Y-92529520D01*
X146404329Y-92519030D01*
X146427429Y-92510765D01*
X146451227Y-92504804D01*
X146475496Y-92501204D01*
X146500000Y-92500000D01*
X147700000Y-92500000D01*
X147724504Y-92501204D01*
X147724504Y-92501204D01*
G37*
D17*
G04 #@! TD*
G04 #@! TO.P,J3,1*
G04 #@! TO.N,GND*
X147100000Y-93500000D03*
D15*
G04 #@! TO.P,J3,2*
G04 #@! TO.N,Net-(J3-Pad2)*
X149600000Y-93500000D03*
G04 #@! TD*
D23*
G04 #@! TO.P,J4,4*
G04 #@! TO.N,Net-(J4-Pad4)*
X140800000Y-93500000D03*
G04 #@! TO.P,J4,3*
G04 #@! TO.N,/13*
X138300000Y-93500000D03*
G04 #@! TO.P,J4,2*
G04 #@! TO.N,/5*
X135800000Y-93500000D03*
D16*
G04 #@! TD*
G04 #@! TO.N,GND*
G04 #@! TO.C,J4*
G36*
X133924504Y-92526204D02*
X133948773Y-92529804D01*
X133972571Y-92535765D01*
X133995671Y-92544030D01*
X134017849Y-92554520D01*
X134038893Y-92567133D01*
X134058598Y-92581747D01*
X134076777Y-92598223D01*
X134093253Y-92616402D01*
X134107867Y-92636107D01*
X134120480Y-92657151D01*
X134130970Y-92679329D01*
X134139235Y-92702429D01*
X134145196Y-92726227D01*
X134148796Y-92750496D01*
X134150000Y-92775000D01*
X134150000Y-94225000D01*
X134148796Y-94249504D01*
X134145196Y-94273773D01*
X134139235Y-94297571D01*
X134130970Y-94320671D01*
X134120480Y-94342849D01*
X134107867Y-94363893D01*
X134093253Y-94383598D01*
X134076777Y-94401777D01*
X134058598Y-94418253D01*
X134038893Y-94432867D01*
X134017849Y-94445480D01*
X133995671Y-94455970D01*
X133972571Y-94464235D01*
X133948773Y-94470196D01*
X133924504Y-94473796D01*
X133900000Y-94475000D01*
X132700000Y-94475000D01*
X132675496Y-94473796D01*
X132651227Y-94470196D01*
X132627429Y-94464235D01*
X132604329Y-94455970D01*
X132582151Y-94445480D01*
X132561107Y-94432867D01*
X132541402Y-94418253D01*
X132523223Y-94401777D01*
X132506747Y-94383598D01*
X132492133Y-94363893D01*
X132479520Y-94342849D01*
X132469030Y-94320671D01*
X132460765Y-94297571D01*
X132454804Y-94273773D01*
X132451204Y-94249504D01*
X132450000Y-94225000D01*
X132450000Y-92775000D01*
X132451204Y-92750496D01*
X132454804Y-92726227D01*
X132460765Y-92702429D01*
X132469030Y-92679329D01*
X132479520Y-92657151D01*
X132492133Y-92636107D01*
X132506747Y-92616402D01*
X132523223Y-92598223D01*
X132541402Y-92581747D01*
X132561107Y-92567133D01*
X132582151Y-92554520D01*
X132604329Y-92544030D01*
X132627429Y-92535765D01*
X132651227Y-92529804D01*
X132675496Y-92526204D01*
X132700000Y-92525000D01*
X133900000Y-92525000D01*
X133924504Y-92526204D01*
X133924504Y-92526204D01*
G37*
D17*
G04 #@! TO.P,J4,1*
G04 #@! TO.N,GND*
X133300000Y-93500000D03*
G04 #@! TD*
D23*
G04 #@! TO.P,J6,4*
G04 #@! TO.N,+5V*
X126900000Y-93500000D03*
G04 #@! TO.P,J6,3*
G04 #@! TO.N,/8*
X124400000Y-93500000D03*
G04 #@! TO.P,J6,2*
G04 #@! TO.N,+5V*
X121900000Y-93500000D03*
D16*
G04 #@! TD*
G04 #@! TO.N,/7*
G04 #@! TO.C,J6*
G36*
X120024504Y-92526204D02*
X120048773Y-92529804D01*
X120072571Y-92535765D01*
X120095671Y-92544030D01*
X120117849Y-92554520D01*
X120138893Y-92567133D01*
X120158598Y-92581747D01*
X120176777Y-92598223D01*
X120193253Y-92616402D01*
X120207867Y-92636107D01*
X120220480Y-92657151D01*
X120230970Y-92679329D01*
X120239235Y-92702429D01*
X120245196Y-92726227D01*
X120248796Y-92750496D01*
X120250000Y-92775000D01*
X120250000Y-94225000D01*
X120248796Y-94249504D01*
X120245196Y-94273773D01*
X120239235Y-94297571D01*
X120230970Y-94320671D01*
X120220480Y-94342849D01*
X120207867Y-94363893D01*
X120193253Y-94383598D01*
X120176777Y-94401777D01*
X120158598Y-94418253D01*
X120138893Y-94432867D01*
X120117849Y-94445480D01*
X120095671Y-94455970D01*
X120072571Y-94464235D01*
X120048773Y-94470196D01*
X120024504Y-94473796D01*
X120000000Y-94475000D01*
X118800000Y-94475000D01*
X118775496Y-94473796D01*
X118751227Y-94470196D01*
X118727429Y-94464235D01*
X118704329Y-94455970D01*
X118682151Y-94445480D01*
X118661107Y-94432867D01*
X118641402Y-94418253D01*
X118623223Y-94401777D01*
X118606747Y-94383598D01*
X118592133Y-94363893D01*
X118579520Y-94342849D01*
X118569030Y-94320671D01*
X118560765Y-94297571D01*
X118554804Y-94273773D01*
X118551204Y-94249504D01*
X118550000Y-94225000D01*
X118550000Y-92775000D01*
X118551204Y-92750496D01*
X118554804Y-92726227D01*
X118560765Y-92702429D01*
X118569030Y-92679329D01*
X118579520Y-92657151D01*
X118592133Y-92636107D01*
X118606747Y-92616402D01*
X118623223Y-92598223D01*
X118641402Y-92581747D01*
X118661107Y-92567133D01*
X118682151Y-92554520D01*
X118704329Y-92544030D01*
X118727429Y-92535765D01*
X118751227Y-92529804D01*
X118775496Y-92526204D01*
X118800000Y-92525000D01*
X120000000Y-92525000D01*
X120024504Y-92526204D01*
X120024504Y-92526204D01*
G37*
D17*
G04 #@! TO.P,J6,1*
G04 #@! TO.N,/7*
X119400000Y-93500000D03*
G04 #@! TD*
D20*
G04 #@! TO.P,J7,2*
G04 #@! TO.N,Net-(J7-Pad2)*
X122000000Y-39000000D03*
D16*
G04 #@! TD*
G04 #@! TO.N,Net-(J7-Pad1)*
G04 #@! TO.C,J7*
G36*
X122774504Y-40651204D02*
X122798773Y-40654804D01*
X122822571Y-40660765D01*
X122845671Y-40669030D01*
X122867849Y-40679520D01*
X122888893Y-40692133D01*
X122908598Y-40706747D01*
X122926777Y-40723223D01*
X122943253Y-40741402D01*
X122957867Y-40761107D01*
X122970480Y-40782151D01*
X122980970Y-40804329D01*
X122989235Y-40827429D01*
X122995196Y-40851227D01*
X122998796Y-40875496D01*
X123000000Y-40900000D01*
X123000000Y-42100000D01*
X122998796Y-42124504D01*
X122995196Y-42148773D01*
X122989235Y-42172571D01*
X122980970Y-42195671D01*
X122970480Y-42217849D01*
X122957867Y-42238893D01*
X122943253Y-42258598D01*
X122926777Y-42276777D01*
X122908598Y-42293253D01*
X122888893Y-42307867D01*
X122867849Y-42320480D01*
X122845671Y-42330970D01*
X122822571Y-42339235D01*
X122798773Y-42345196D01*
X122774504Y-42348796D01*
X122750000Y-42350000D01*
X121250000Y-42350000D01*
X121225496Y-42348796D01*
X121201227Y-42345196D01*
X121177429Y-42339235D01*
X121154329Y-42330970D01*
X121132151Y-42320480D01*
X121111107Y-42307867D01*
X121091402Y-42293253D01*
X121073223Y-42276777D01*
X121056747Y-42258598D01*
X121042133Y-42238893D01*
X121029520Y-42217849D01*
X121019030Y-42195671D01*
X121010765Y-42172571D01*
X121004804Y-42148773D01*
X121001204Y-42124504D01*
X121000000Y-42100000D01*
X121000000Y-40900000D01*
X121001204Y-40875496D01*
X121004804Y-40851227D01*
X121010765Y-40827429D01*
X121019030Y-40804329D01*
X121029520Y-40782151D01*
X121042133Y-40761107D01*
X121056747Y-40741402D01*
X121073223Y-40723223D01*
X121091402Y-40706747D01*
X121111107Y-40692133D01*
X121132151Y-40679520D01*
X121154329Y-40669030D01*
X121177429Y-40660765D01*
X121201227Y-40654804D01*
X121225496Y-40651204D01*
X121250000Y-40650000D01*
X122750000Y-40650000D01*
X122774504Y-40651204D01*
X122774504Y-40651204D01*
G37*
D17*
G04 #@! TO.P,J7,1*
G04 #@! TO.N,Net-(J7-Pad1)*
X122000000Y-41500000D03*
G04 #@! TD*
D24*
G04 #@! TO.P,REF\002A\002A,1*
G04 #@! TO.N,N/C*
X123200000Y-48300000D03*
G04 #@! TD*
G04 #@! TO.P,REF\002A\002A,1*
G04 #@! TO.N,N/C*
X122600000Y-82400000D03*
G04 #@! TD*
G04 #@! TO.P,REF\002A\002A,1*
G04 #@! TO.N,N/C*
X156100000Y-81500000D03*
G04 #@! TD*
D25*
G04 #@! TO.N,/Reset*
X164100000Y-56000000D03*
G04 #@! TO.N,GND*
X114900000Y-81200000D03*
X111900000Y-81100000D03*
X108800000Y-81100000D03*
X114900000Y-78800000D03*
X111900000Y-78700000D03*
X108800000Y-78700000D03*
X114900000Y-76200000D03*
X111800000Y-76200000D03*
X108800000Y-76200000D03*
X128000000Y-46100000D03*
X118500000Y-43300000D03*
X155500000Y-44600000D03*
X161500000Y-44600000D03*
X160300000Y-34800000D03*
D26*
X153600000Y-44600000D03*
D25*
X165600000Y-58500000D03*
X129000000Y-87600000D03*
X134200000Y-87600000D03*
X167400000Y-63500000D03*
X167400000Y-69400000D03*
X113700000Y-41200000D03*
X158300000Y-48300000D03*
X165400000Y-39300000D03*
X138880000Y-40200000D03*
X126000000Y-37600000D03*
X174200000Y-45100000D03*
X173000000Y-52200000D03*
G04 #@! TO.N,/2*
X137100000Y-38000000D03*
G04 #@! TO.N,/4*
X153700000Y-39200000D03*
D26*
G04 #@! TO.N,+5V*
X107300000Y-62200000D03*
X107300000Y-64819998D03*
G04 #@! TO.N,+12V*
X119300000Y-52700000D03*
D25*
G04 #@! TO.N,Net-(J5-Pad2)*
X171300000Y-63000000D03*
G04 #@! TO.N,Net-(J7-Pad2)*
X141400000Y-39000000D03*
G04 #@! TO.N,Net-(J7-Pad1)*
X133800000Y-40700000D03*
G04 #@! TD*
D27*
G04 #@! TO.N,/Reset*
X175254000Y-55970000D02*
X175224000Y-56000000D01*
X176570000Y-55970000D02*
X175254000Y-55970000D01*
X175224000Y-56000000D02*
X164100000Y-56000000D01*
D28*
G04 #@! TO.N,GND*
X138880000Y-43250000D02*
X138880000Y-40200000D01*
X138880000Y-40200000D02*
X138880000Y-35630000D01*
D27*
G04 #@! TO.N,/2*
X136675736Y-38000000D02*
X137100000Y-38000000D01*
X128720000Y-43250000D02*
X128720000Y-42150000D01*
X132870000Y-38000000D02*
X136675736Y-38000000D01*
X128720000Y-42150000D02*
X132870000Y-38000000D01*
G04 #@! TO.N,/4*
X162796010Y-64816390D02*
X161482400Y-66130000D01*
X162796010Y-50414713D02*
X162796010Y-64816390D01*
X161482400Y-66130000D02*
X161330000Y-66130000D01*
X153700000Y-41318703D02*
X162796010Y-50414713D01*
X153700000Y-39200000D02*
X153700000Y-41318703D01*
D28*
G04 #@! TO.N,+5V*
X107300000Y-62200000D02*
X119200000Y-74100000D01*
D29*
X121900000Y-93625000D02*
X123325010Y-95050010D01*
X121900000Y-93500000D02*
X121900000Y-93625000D01*
X126900000Y-93500000D02*
X126900000Y-94000000D01*
X125849990Y-95050010D02*
X125500000Y-95050010D01*
X123325010Y-95050010D02*
X125500000Y-95050010D01*
X126900000Y-94000000D02*
X125849990Y-95050010D01*
D28*
X121900000Y-93375000D02*
X121900000Y-93500000D01*
X119200000Y-90675000D02*
X121900000Y-93375000D01*
X119200000Y-74100000D02*
X119200000Y-90675000D01*
G04 #@! TO.N,+12V*
X119150000Y-52850000D02*
X119300000Y-52700000D01*
X113100000Y-58900000D02*
X119300000Y-52700000D01*
X101800000Y-58900000D02*
X113100000Y-58900000D01*
D27*
G04 #@! TO.N,Net-(J5-Pad2)*
X158400000Y-93350000D02*
X158400000Y-93500000D01*
X171300000Y-63424264D02*
X171300000Y-63000000D01*
X171300000Y-76600000D02*
X171300000Y-75300000D01*
X171300000Y-75600000D02*
X171300000Y-75300000D01*
X171300000Y-75300000D02*
X171300000Y-63424264D01*
X158400000Y-89367154D02*
X158400000Y-92200000D01*
X158400000Y-92200000D02*
X158400000Y-93500000D01*
X171167154Y-76600000D02*
X158400000Y-89367154D01*
X171300000Y-76600000D02*
X171167154Y-76600000D01*
G04 #@! TO.N,/6*
X161177600Y-71210000D02*
X161330000Y-71210000D01*
X159863990Y-69896390D02*
X161177600Y-71210000D01*
X149100001Y-44500001D02*
X159863990Y-55263990D01*
X159863990Y-55263990D02*
X159863990Y-69896390D01*
X132510001Y-44500001D02*
X149100001Y-44500001D01*
X131260000Y-43250000D02*
X132510001Y-44500001D01*
G04 #@! TO.N,Net-(J7-Pad2)*
X141400000Y-43230000D02*
X141420000Y-43250000D01*
X141400000Y-39000000D02*
X141400000Y-43230000D01*
G04 #@! TO.N,Net-(J7-Pad1)*
X133800000Y-40700000D02*
X133800000Y-43250000D01*
G04 #@! TO.N,/10*
X176417600Y-78830000D02*
X176570000Y-78830000D01*
X176570000Y-78830000D02*
X176410000Y-78830000D01*
G04 #@! TO.N,/5*
X135800000Y-93375000D02*
X135800000Y-93500000D01*
X161482400Y-78830000D02*
X161330000Y-78830000D01*
X162696010Y-68720010D02*
X162696010Y-77616390D01*
X162646000Y-68670000D02*
X162696010Y-68720010D01*
X161330000Y-68670000D02*
X162646000Y-68670000D01*
X135800000Y-94775000D02*
X135800000Y-93500000D01*
X152110024Y-94950010D02*
X135975010Y-94950010D01*
X135975010Y-94950010D02*
X135800000Y-94775000D01*
X162696010Y-77616390D02*
X161482400Y-78830000D01*
X161330000Y-85730034D02*
X161330000Y-78830000D01*
X152110024Y-94950010D02*
X161330000Y-85730034D01*
G04 #@! TD*
D30*
G04 #@! TO.N,GND*
G36*
X161715001Y-37832533D02*
X161701581Y-37900000D01*
X161754745Y-38167273D01*
X161906143Y-38393857D01*
X162132727Y-38545255D01*
X162332538Y-38585000D01*
X162332539Y-38585000D01*
X162400000Y-38598419D01*
X162467462Y-38585000D01*
X166715000Y-38585000D01*
X166715001Y-41732534D01*
X166715000Y-41732539D01*
X166715000Y-42832538D01*
X166701581Y-42900000D01*
X166754745Y-43167273D01*
X166906143Y-43393857D01*
X167132727Y-43545255D01*
X167332538Y-43585000D01*
X167332539Y-43585000D01*
X167400000Y-43598419D01*
X167467462Y-43585000D01*
X177381229Y-43585000D01*
X179215001Y-47165223D01*
X179215000Y-83731117D01*
X177399087Y-87190000D01*
X167469925Y-87190000D01*
X167400000Y-87176091D01*
X167330074Y-87190000D01*
X167122972Y-87231195D01*
X166888119Y-87388119D01*
X166731195Y-87622972D01*
X166676091Y-87900000D01*
X166690000Y-87969926D01*
X166690001Y-92215000D01*
X162467461Y-92215000D01*
X162400000Y-92201581D01*
X162332538Y-92215000D01*
X162132727Y-92254745D01*
X161906143Y-92406143D01*
X161754745Y-92632727D01*
X161701581Y-92900000D01*
X161715000Y-92967462D01*
X161715001Y-97215000D01*
X116085000Y-97215000D01*
X116085000Y-92967462D01*
X116098419Y-92900000D01*
X116075355Y-92784047D01*
X116045255Y-92632727D01*
X116006430Y-92574621D01*
X115893857Y-92406143D01*
X115667273Y-92254745D01*
X115467462Y-92215000D01*
X115467461Y-92215000D01*
X115400000Y-92201581D01*
X115332538Y-92215000D01*
X111085000Y-92215000D01*
X111085000Y-87967462D01*
X111098419Y-87900000D01*
X111045255Y-87632727D01*
X110893857Y-87406143D01*
X110667273Y-87254745D01*
X110467462Y-87215000D01*
X110467461Y-87215000D01*
X110400000Y-87201581D01*
X110332538Y-87215000D01*
X100328248Y-87215000D01*
X98685000Y-83842019D01*
X98685000Y-80700000D01*
X100252560Y-80700000D01*
X100252560Y-83900000D01*
X100301843Y-84147765D01*
X100442191Y-84357809D01*
X100652235Y-84498157D01*
X100900000Y-84547440D01*
X104100000Y-84547440D01*
X104347765Y-84498157D01*
X104557809Y-84357809D01*
X104698157Y-84147765D01*
X104747440Y-83900000D01*
X104747440Y-80700000D01*
X104698157Y-80452235D01*
X104557809Y-80242191D01*
X104347765Y-80101843D01*
X104100000Y-80052560D01*
X100900000Y-80052560D01*
X100652235Y-80101843D01*
X100442191Y-80242191D01*
X100301843Y-80452235D01*
X100252560Y-80700000D01*
X98685000Y-80700000D01*
X98685000Y-67534504D01*
X100315944Y-67534504D01*
X100663780Y-68334187D01*
X101291164Y-68939886D01*
X102025497Y-69244050D01*
X102373000Y-69132362D01*
X102373000Y-67187000D01*
X102627000Y-67187000D01*
X102627000Y-69132362D01*
X102974503Y-69244050D01*
X103708836Y-68939886D01*
X104336220Y-68334187D01*
X104684056Y-67534504D01*
X104572645Y-67187000D01*
X102627000Y-67187000D01*
X102373000Y-67187000D01*
X100427355Y-67187000D01*
X100315944Y-67534504D01*
X98685000Y-67534504D01*
X98685000Y-66585496D01*
X100315944Y-66585496D01*
X100427355Y-66933000D01*
X102373000Y-66933000D01*
X102373000Y-64987638D01*
X102627000Y-64987638D01*
X102627000Y-66933000D01*
X104572645Y-66933000D01*
X104684056Y-66585496D01*
X104336220Y-65785813D01*
X103708836Y-65180114D01*
X102974503Y-64875950D01*
X102627000Y-64987638D01*
X102373000Y-64987638D01*
X102025497Y-64875950D01*
X101291164Y-65180114D01*
X100663780Y-65785813D01*
X100315944Y-66585496D01*
X98685000Y-66585496D01*
X98685000Y-61685750D01*
X100165000Y-61685750D01*
X100165000Y-62376309D01*
X100261673Y-62609698D01*
X100440301Y-62788327D01*
X100673690Y-62885000D01*
X101514250Y-62885000D01*
X101673000Y-62726250D01*
X101673000Y-61527000D01*
X101927000Y-61527000D01*
X101927000Y-62726250D01*
X102085750Y-62885000D01*
X102926310Y-62885000D01*
X103159699Y-62788327D01*
X103338327Y-62609698D01*
X103435000Y-62376309D01*
X103435000Y-61994126D01*
X106265000Y-61994126D01*
X106265000Y-62405874D01*
X106422569Y-62786280D01*
X106713720Y-63077431D01*
X106955142Y-63177431D01*
X107602897Y-63825186D01*
X107505874Y-63784998D01*
X107094126Y-63784998D01*
X106713720Y-63942567D01*
X106422569Y-64233718D01*
X106265000Y-64614124D01*
X106265000Y-65025872D01*
X106422569Y-65406278D01*
X106713720Y-65697429D01*
X107094126Y-65854998D01*
X107505874Y-65854998D01*
X107886280Y-65697429D01*
X108177431Y-65406278D01*
X108335000Y-65025872D01*
X108335000Y-64614124D01*
X108294812Y-64517101D01*
X118265000Y-74487290D01*
X118265001Y-90582909D01*
X118246683Y-90675000D01*
X118319250Y-91039818D01*
X118319251Y-91039819D01*
X118525904Y-91349097D01*
X118603970Y-91401259D01*
X119080271Y-91877560D01*
X118800000Y-91877560D01*
X118456565Y-91945874D01*
X118165414Y-92140414D01*
X117970874Y-92431565D01*
X117902560Y-92775000D01*
X117902560Y-94225000D01*
X117970874Y-94568435D01*
X118165414Y-94859586D01*
X118456565Y-95054126D01*
X118800000Y-95122440D01*
X120000000Y-95122440D01*
X120343435Y-95054126D01*
X120634586Y-94859586D01*
X120786758Y-94631844D01*
X120829375Y-94695625D01*
X121320583Y-95023839D01*
X121900000Y-95139092D01*
X122118960Y-95095538D01*
X122637587Y-95614166D01*
X122686961Y-95688059D01*
X122760854Y-95737433D01*
X122760855Y-95737434D01*
X122780242Y-95750388D01*
X122979700Y-95883662D01*
X123237845Y-95935010D01*
X123237849Y-95935010D01*
X123325009Y-95952347D01*
X123412169Y-95935010D01*
X125762829Y-95935010D01*
X125849990Y-95952347D01*
X125937151Y-95935010D01*
X125937155Y-95935010D01*
X126195300Y-95883662D01*
X126488039Y-95688059D01*
X126537415Y-95614163D01*
X127040417Y-95111161D01*
X127479418Y-95023839D01*
X127970625Y-94695625D01*
X128298839Y-94204417D01*
X128382116Y-93785750D01*
X131815000Y-93785750D01*
X131815000Y-94601310D01*
X131911673Y-94834699D01*
X132090302Y-95013327D01*
X132323691Y-95110000D01*
X133014250Y-95110000D01*
X133173000Y-94951250D01*
X133173000Y-93627000D01*
X131973750Y-93627000D01*
X131815000Y-93785750D01*
X128382116Y-93785750D01*
X128385000Y-93771255D01*
X128385000Y-93228744D01*
X128298839Y-92795582D01*
X128033645Y-92398690D01*
X131815000Y-92398690D01*
X131815000Y-93214250D01*
X131973750Y-93373000D01*
X133173000Y-93373000D01*
X133173000Y-92048750D01*
X133014250Y-91890000D01*
X132323691Y-91890000D01*
X132090302Y-91986673D01*
X131911673Y-92165301D01*
X131815000Y-92398690D01*
X128033645Y-92398690D01*
X127970625Y-92304375D01*
X127479417Y-91976161D01*
X126900000Y-91860908D01*
X126320582Y-91976161D01*
X125829375Y-92304375D01*
X125650000Y-92572829D01*
X125470625Y-92304375D01*
X124979417Y-91976161D01*
X124400000Y-91860908D01*
X123820582Y-91976161D01*
X123329375Y-92304375D01*
X123150000Y-92572829D01*
X122970625Y-92304375D01*
X122479417Y-91976161D01*
X121900000Y-91860908D01*
X121740019Y-91892730D01*
X120135000Y-90287711D01*
X120135000Y-83857176D01*
X120196603Y-84005899D01*
X120994101Y-84803397D01*
X122036083Y-85235000D01*
X123163917Y-85235000D01*
X124205899Y-84803397D01*
X125003397Y-84005899D01*
X125435000Y-82963917D01*
X125435000Y-81836083D01*
X125003397Y-80794101D01*
X124205899Y-79996603D01*
X123163917Y-79565000D01*
X122036083Y-79565000D01*
X120994101Y-79996603D01*
X120196603Y-80794101D01*
X120135000Y-80942824D01*
X120135000Y-74192081D01*
X120153316Y-74099999D01*
X120135000Y-74007915D01*
X120135000Y-74007914D01*
X120080750Y-73735181D01*
X119874097Y-73425903D01*
X119796031Y-73373741D01*
X111134586Y-64712296D01*
X119206741Y-64712296D01*
X119225462Y-66499977D01*
X119406129Y-68278604D01*
X119747253Y-70033537D01*
X120246027Y-71750330D01*
X120898346Y-73414853D01*
X121698841Y-75013403D01*
X122640922Y-76532823D01*
X123716834Y-77960607D01*
X124917722Y-79285002D01*
X126233701Y-80495107D01*
X127653939Y-81580961D01*
X129166746Y-82533626D01*
X130759669Y-83345261D01*
X132419596Y-84009185D01*
X134132865Y-84519932D01*
X135885374Y-84873300D01*
X137662696Y-85066379D01*
X139450203Y-85097580D01*
X141233181Y-84966646D01*
X142996955Y-84674656D01*
X144727005Y-84224011D01*
X146409092Y-83618423D01*
X148029370Y-82862875D01*
X149574503Y-81963586D01*
X151020339Y-80936083D01*
X153265000Y-80936083D01*
X153265000Y-82063917D01*
X153696603Y-83105899D01*
X154494101Y-83903397D01*
X155536083Y-84335000D01*
X156663917Y-84335000D01*
X157705899Y-83903397D01*
X158503397Y-83105899D01*
X158935000Y-82063917D01*
X158935000Y-80936083D01*
X158503397Y-79894101D01*
X157705899Y-79096603D01*
X156663917Y-78665000D01*
X155536083Y-78665000D01*
X154494101Y-79096603D01*
X153696603Y-79894101D01*
X153265000Y-80936083D01*
X151020339Y-80936083D01*
X151031771Y-80927959D01*
X152389181Y-79764519D01*
X153635558Y-78482841D01*
X154760644Y-77093475D01*
X155755178Y-75607858D01*
X156610973Y-74038219D01*
X157320986Y-72397476D01*
X157879372Y-70699136D01*
X158281535Y-68957177D01*
X158524164Y-67185939D01*
X158605263Y-65400000D01*
X158600941Y-64987324D01*
X158482458Y-63203475D01*
X158202788Y-61437707D01*
X157764232Y-59704552D01*
X157170402Y-58018279D01*
X156426184Y-56392765D01*
X155537704Y-54841392D01*
X154512276Y-53376929D01*
X153358340Y-52011430D01*
X152085395Y-50756136D01*
X150703918Y-49621378D01*
X149225280Y-48616497D01*
X147661653Y-47749764D01*
X146025907Y-47028314D01*
X144331507Y-46458085D01*
X142592398Y-46043771D01*
X140822897Y-45788782D01*
X139037568Y-45695217D01*
X137251106Y-45763846D01*
X135478217Y-45994104D01*
X133733493Y-46384096D01*
X132031296Y-46930612D01*
X130385637Y-47629153D01*
X128810061Y-48473969D01*
X127317537Y-49458107D01*
X125920351Y-50573466D01*
X124630003Y-51810866D01*
X123457114Y-53160120D01*
X122411339Y-54610123D01*
X121501285Y-56148939D01*
X120734444Y-57763903D01*
X120117127Y-59441722D01*
X119654416Y-61168584D01*
X119350119Y-62930276D01*
X119206741Y-64712296D01*
X111134586Y-64712296D01*
X108277431Y-61855142D01*
X108177431Y-61613720D01*
X107886280Y-61322569D01*
X107505874Y-61165000D01*
X107094126Y-61165000D01*
X106713720Y-61322569D01*
X106422569Y-61613720D01*
X106265000Y-61994126D01*
X103435000Y-61994126D01*
X103435000Y-61685750D01*
X103276250Y-61527000D01*
X101927000Y-61527000D01*
X101673000Y-61527000D01*
X100323750Y-61527000D01*
X100165000Y-61685750D01*
X98685000Y-61685750D01*
X98685000Y-58900000D01*
X100135908Y-58900000D01*
X100251161Y-59479418D01*
X100570709Y-59957656D01*
X100440301Y-60011673D01*
X100261673Y-60190302D01*
X100165000Y-60423691D01*
X100165000Y-61114250D01*
X100323750Y-61273000D01*
X101673000Y-61273000D01*
X101673000Y-61253000D01*
X101927000Y-61253000D01*
X101927000Y-61273000D01*
X103276250Y-61273000D01*
X103435000Y-61114250D01*
X103435000Y-60423691D01*
X103338327Y-60190302D01*
X103159699Y-60011673D01*
X103029291Y-59957656D01*
X103111247Y-59835000D01*
X113007914Y-59835000D01*
X113100000Y-59853317D01*
X113192086Y-59835000D01*
X113464819Y-59780750D01*
X113774097Y-59574097D01*
X113826261Y-59496028D01*
X119644860Y-53677430D01*
X119886280Y-53577431D01*
X120177431Y-53286280D01*
X120335000Y-52905874D01*
X120335000Y-52494126D01*
X120177431Y-52113720D01*
X119886280Y-51822569D01*
X119505874Y-51665000D01*
X119094126Y-51665000D01*
X118713720Y-51822569D01*
X118422569Y-52113720D01*
X118322570Y-52355140D01*
X112712711Y-57965000D01*
X103111247Y-57965000D01*
X103020625Y-57829375D01*
X102529418Y-57501161D01*
X102096256Y-57415000D01*
X101503744Y-57415000D01*
X101070582Y-57501161D01*
X100579375Y-57829375D01*
X100251161Y-58320582D01*
X100135908Y-58900000D01*
X98685000Y-58900000D01*
X98685000Y-47736083D01*
X120365000Y-47736083D01*
X120365000Y-48863917D01*
X120796603Y-49905899D01*
X121594101Y-50703397D01*
X122636083Y-51135000D01*
X123763917Y-51135000D01*
X124805899Y-50703397D01*
X125603397Y-49905899D01*
X126035000Y-48863917D01*
X126035000Y-47736083D01*
X125603397Y-46694101D01*
X124805899Y-45896603D01*
X123763917Y-45465000D01*
X122636083Y-45465000D01*
X121594101Y-45896603D01*
X120796603Y-46694101D01*
X120365000Y-47736083D01*
X98685000Y-47736083D01*
X98685000Y-46869255D01*
X100413557Y-43585000D01*
X110332539Y-43585000D01*
X110400000Y-43598419D01*
X110667273Y-43545255D01*
X110893857Y-43393857D01*
X111045255Y-43167273D01*
X111085000Y-42967462D01*
X111085000Y-42967461D01*
X111098419Y-42900000D01*
X111085000Y-42832538D01*
X111085000Y-39000000D01*
X120335908Y-39000000D01*
X120451161Y-39579418D01*
X120779375Y-40070625D01*
X120843156Y-40113242D01*
X120615414Y-40265414D01*
X120420874Y-40556565D01*
X120352560Y-40900000D01*
X120352560Y-42100000D01*
X120420874Y-42443435D01*
X120615414Y-42734586D01*
X120906565Y-42929126D01*
X121250000Y-42997440D01*
X122750000Y-42997440D01*
X123093435Y-42929126D01*
X123384586Y-42734586D01*
X123574739Y-42450000D01*
X127272560Y-42450000D01*
X127272560Y-44050000D01*
X127321843Y-44297765D01*
X127462191Y-44507809D01*
X127672235Y-44648157D01*
X127920000Y-44697440D01*
X129520000Y-44697440D01*
X129767765Y-44648157D01*
X129977809Y-44507809D01*
X130118157Y-44297765D01*
X130144785Y-44163894D01*
X130225423Y-44284577D01*
X130700091Y-44601740D01*
X131118667Y-44685000D01*
X131401333Y-44685000D01*
X131554396Y-44654554D01*
X131900254Y-45000412D01*
X131944048Y-45065954D01*
X132009590Y-45109748D01*
X132009592Y-45109750D01*
X132136747Y-45194712D01*
X132203709Y-45239455D01*
X132432685Y-45285001D01*
X132432689Y-45285001D01*
X132510000Y-45300379D01*
X132587311Y-45285001D01*
X148774844Y-45285001D01*
X159078990Y-55589148D01*
X159078991Y-69819073D01*
X159063612Y-69896390D01*
X159124536Y-70202681D01*
X159254241Y-70396798D01*
X159254244Y-70396801D01*
X159298038Y-70462343D01*
X159363580Y-70506137D01*
X159718959Y-70861516D01*
X159649641Y-71210000D01*
X159765950Y-71794725D01*
X160097170Y-72290430D01*
X160380881Y-72480000D01*
X160097170Y-72669570D01*
X159765950Y-73165275D01*
X159649641Y-73750000D01*
X159765950Y-74334725D01*
X160097170Y-74830430D01*
X160380881Y-75020000D01*
X160097170Y-75209570D01*
X159765950Y-75705275D01*
X159649641Y-76290000D01*
X159765950Y-76874725D01*
X160097170Y-77370430D01*
X160380881Y-77560000D01*
X160097170Y-77749570D01*
X159765950Y-78245275D01*
X159649641Y-78830000D01*
X159765950Y-79414725D01*
X160097170Y-79910430D01*
X160545001Y-80209661D01*
X160545000Y-85404876D01*
X151784867Y-94165010D01*
X151011650Y-94165010D01*
X151085000Y-93796255D01*
X151085000Y-93203744D01*
X150998839Y-92770582D01*
X150670625Y-92279375D01*
X150179417Y-91951161D01*
X149600000Y-91835908D01*
X149020582Y-91951161D01*
X148542344Y-92270709D01*
X148488327Y-92140301D01*
X148309698Y-91961673D01*
X148076309Y-91865000D01*
X147385750Y-91865000D01*
X147227000Y-92023750D01*
X147227000Y-93373000D01*
X147247000Y-93373000D01*
X147247000Y-93627000D01*
X147227000Y-93627000D01*
X147227000Y-93647000D01*
X146973000Y-93647000D01*
X146973000Y-93627000D01*
X145773750Y-93627000D01*
X145615000Y-93785750D01*
X145615000Y-94165010D01*
X142206678Y-94165010D01*
X142285000Y-93771255D01*
X142285000Y-93228744D01*
X142198839Y-92795582D01*
X141916940Y-92373690D01*
X145615000Y-92373690D01*
X145615000Y-93214250D01*
X145773750Y-93373000D01*
X146973000Y-93373000D01*
X146973000Y-92023750D01*
X146814250Y-91865000D01*
X146123691Y-91865000D01*
X145890302Y-91961673D01*
X145711673Y-92140301D01*
X145615000Y-92373690D01*
X141916940Y-92373690D01*
X141870625Y-92304375D01*
X141379417Y-91976161D01*
X140800000Y-91860908D01*
X140220582Y-91976161D01*
X139729375Y-92304375D01*
X139550000Y-92572829D01*
X139370625Y-92304375D01*
X138879417Y-91976161D01*
X138300000Y-91860908D01*
X137720582Y-91976161D01*
X137229375Y-92304375D01*
X137050000Y-92572829D01*
X136870625Y-92304375D01*
X136379417Y-91976161D01*
X135800000Y-91860908D01*
X135220582Y-91976161D01*
X134742344Y-92295709D01*
X134688327Y-92165301D01*
X134509698Y-91986673D01*
X134276309Y-91890000D01*
X133585750Y-91890000D01*
X133427000Y-92048750D01*
X133427000Y-93373000D01*
X133447000Y-93373000D01*
X133447000Y-93627000D01*
X133427000Y-93627000D01*
X133427000Y-94951250D01*
X133585750Y-95110000D01*
X134276309Y-95110000D01*
X134509698Y-95013327D01*
X134688327Y-94834699D01*
X134742344Y-94704291D01*
X135022836Y-94891709D01*
X135060546Y-95081291D01*
X135234047Y-95340953D01*
X135299593Y-95384750D01*
X135365260Y-95450416D01*
X135409057Y-95515963D01*
X135668718Y-95689464D01*
X135897694Y-95735010D01*
X135897698Y-95735010D01*
X135975010Y-95750388D01*
X136052322Y-95735010D01*
X152032712Y-95735010D01*
X152110024Y-95750388D01*
X152187336Y-95735010D01*
X152187340Y-95735010D01*
X152416316Y-95689464D01*
X152675977Y-95515963D01*
X152719773Y-95450418D01*
X154543189Y-93627002D01*
X154573748Y-93627002D01*
X154415000Y-93785750D01*
X154415000Y-94626310D01*
X154511673Y-94859699D01*
X154690302Y-95038327D01*
X154923691Y-95135000D01*
X155614250Y-95135000D01*
X155773000Y-94976250D01*
X155773000Y-93627000D01*
X155753000Y-93627000D01*
X155753000Y-93373000D01*
X155773000Y-93373000D01*
X155773000Y-93353000D01*
X156027000Y-93353000D01*
X156027000Y-93373000D01*
X156047000Y-93373000D01*
X156047000Y-93627000D01*
X156027000Y-93627000D01*
X156027000Y-94976250D01*
X156185750Y-95135000D01*
X156876309Y-95135000D01*
X157109698Y-95038327D01*
X157288327Y-94859699D01*
X157342344Y-94729291D01*
X157820583Y-95048839D01*
X158400000Y-95164092D01*
X158979418Y-95048839D01*
X159470625Y-94720625D01*
X159798839Y-94229417D01*
X159885000Y-93796255D01*
X159885000Y-93203744D01*
X159798839Y-92770582D01*
X159470625Y-92279375D01*
X159185000Y-92088527D01*
X159185000Y-89692311D01*
X164791561Y-84085750D01*
X170115000Y-84085750D01*
X170115000Y-84776309D01*
X170211673Y-85009698D01*
X170390301Y-85188327D01*
X170623690Y-85285000D01*
X171314250Y-85285000D01*
X171473000Y-85126250D01*
X171473000Y-83927000D01*
X170273750Y-83927000D01*
X170115000Y-84085750D01*
X164791561Y-84085750D01*
X166053620Y-82823691D01*
X170115000Y-82823691D01*
X170115000Y-83514250D01*
X170273750Y-83673000D01*
X171473000Y-83673000D01*
X171473000Y-82473750D01*
X171727000Y-82473750D01*
X171727000Y-83673000D01*
X171747000Y-83673000D01*
X171747000Y-83927000D01*
X171727000Y-83927000D01*
X171727000Y-85126250D01*
X171885750Y-85285000D01*
X172576310Y-85285000D01*
X172809699Y-85188327D01*
X172988327Y-85009698D01*
X173054904Y-84848967D01*
X173069375Y-84870625D01*
X173560582Y-85198839D01*
X173993744Y-85285000D01*
X174286256Y-85285000D01*
X174719418Y-85198839D01*
X175210625Y-84870625D01*
X175410000Y-84572239D01*
X175609375Y-84870625D01*
X176100582Y-85198839D01*
X176533744Y-85285000D01*
X176826256Y-85285000D01*
X177259418Y-85198839D01*
X177750625Y-84870625D01*
X178078839Y-84379418D01*
X178194092Y-83800000D01*
X178078839Y-83220582D01*
X177750625Y-82729375D01*
X177259418Y-82401161D01*
X176826256Y-82315000D01*
X176533744Y-82315000D01*
X176100582Y-82401161D01*
X175609375Y-82729375D01*
X175410000Y-83027761D01*
X175210625Y-82729375D01*
X174719418Y-82401161D01*
X174286256Y-82315000D01*
X173993744Y-82315000D01*
X173560582Y-82401161D01*
X173069375Y-82729375D01*
X173054904Y-82751033D01*
X172988327Y-82590302D01*
X172809699Y-82411673D01*
X172576310Y-82315000D01*
X171885750Y-82315000D01*
X171727000Y-82473750D01*
X171473000Y-82473750D01*
X171314250Y-82315000D01*
X170623690Y-82315000D01*
X170390301Y-82411673D01*
X170211673Y-82590302D01*
X170115000Y-82823691D01*
X166053620Y-82823691D01*
X171520866Y-77356446D01*
X171606292Y-77339454D01*
X171865953Y-77165953D01*
X172039454Y-76906292D01*
X172100379Y-76600000D01*
X172085000Y-76522684D01*
X172085000Y-63537290D01*
X172092655Y-63529635D01*
X172235000Y-63185983D01*
X172235000Y-62814017D01*
X172092655Y-62470365D01*
X171829635Y-62207345D01*
X171485983Y-62065000D01*
X171114017Y-62065000D01*
X170770365Y-62207345D01*
X170507345Y-62470365D01*
X170365000Y-62814017D01*
X170365000Y-63185983D01*
X170507345Y-63529635D01*
X170515001Y-63537291D01*
X170515000Y-75222684D01*
X170515000Y-75677315D01*
X170515001Y-75677318D01*
X170515000Y-76141996D01*
X162115000Y-84541997D01*
X162115000Y-80209661D01*
X162562830Y-79910430D01*
X162894050Y-79414725D01*
X163010359Y-78830000D01*
X162941041Y-78481516D01*
X163196418Y-78226139D01*
X163261963Y-78182343D01*
X163435464Y-77922682D01*
X163481010Y-77693706D01*
X163481010Y-77693702D01*
X163496388Y-77616390D01*
X163481010Y-77539078D01*
X163481010Y-68797322D01*
X163496388Y-68720010D01*
X163481010Y-68642698D01*
X163481010Y-68642694D01*
X163435464Y-68413718D01*
X163261963Y-68154057D01*
X163231984Y-68134026D01*
X163211953Y-68104047D01*
X162952292Y-67930546D01*
X162765889Y-67893468D01*
X162562830Y-67589570D01*
X162279119Y-67400000D01*
X162562830Y-67210430D01*
X162894050Y-66714725D01*
X163010359Y-66130000D01*
X162941041Y-65781516D01*
X163296421Y-65426137D01*
X163361963Y-65382343D01*
X163405757Y-65316801D01*
X163405759Y-65316799D01*
X163535464Y-65122682D01*
X163550007Y-65049570D01*
X163581010Y-64893706D01*
X163581010Y-64893703D01*
X163596388Y-64816391D01*
X163581010Y-64739079D01*
X163581010Y-56797064D01*
X163914017Y-56935000D01*
X164285983Y-56935000D01*
X164629635Y-56792655D01*
X164637290Y-56785000D01*
X175146688Y-56785000D01*
X175161827Y-56788011D01*
X175337170Y-57050430D01*
X175620881Y-57240000D01*
X175337170Y-57429570D01*
X175005950Y-57925275D01*
X174893892Y-58488630D01*
X174893277Y-58488015D01*
X174333142Y-58256000D01*
X173726858Y-58256000D01*
X173166723Y-58488015D01*
X172738015Y-58916723D01*
X172506000Y-59476858D01*
X172506000Y-60083142D01*
X172738015Y-60643277D01*
X173144738Y-61050000D01*
X172738015Y-61456723D01*
X172506000Y-62016858D01*
X172506000Y-62623142D01*
X172738015Y-63183277D01*
X173166723Y-63611985D01*
X173726858Y-63844000D01*
X174333142Y-63844000D01*
X174893277Y-63611985D01*
X174893892Y-63611370D01*
X175005950Y-64174725D01*
X175337170Y-64670430D01*
X175620881Y-64860000D01*
X175337170Y-65049570D01*
X175005950Y-65545275D01*
X174889641Y-66130000D01*
X175005950Y-66714725D01*
X175337170Y-67210430D01*
X175620881Y-67400000D01*
X175337170Y-67589570D01*
X175005950Y-68085275D01*
X174893892Y-68648630D01*
X174893277Y-68648015D01*
X174333142Y-68416000D01*
X173726858Y-68416000D01*
X173166723Y-68648015D01*
X172738015Y-69076723D01*
X172506000Y-69636858D01*
X172506000Y-70243142D01*
X172738015Y-70803277D01*
X173144738Y-71210000D01*
X172738015Y-71616723D01*
X172506000Y-72176858D01*
X172506000Y-72783142D01*
X172738015Y-73343277D01*
X173166723Y-73771985D01*
X173726858Y-74004000D01*
X174333142Y-74004000D01*
X174893277Y-73771985D01*
X174893892Y-73771370D01*
X175005950Y-74334725D01*
X175337170Y-74830430D01*
X175620881Y-75020000D01*
X175337170Y-75209570D01*
X175005950Y-75705275D01*
X174889641Y-76290000D01*
X175005950Y-76874725D01*
X175337170Y-77370430D01*
X175620881Y-77560000D01*
X175337170Y-77749570D01*
X175005950Y-78245275D01*
X174889641Y-78830000D01*
X175005950Y-79414725D01*
X175337170Y-79910430D01*
X175832875Y-80241650D01*
X176270002Y-80328600D01*
X176869998Y-80328600D01*
X177307125Y-80241650D01*
X177802830Y-79910430D01*
X178134050Y-79414725D01*
X178250359Y-78830000D01*
X178134050Y-78245275D01*
X177802830Y-77749570D01*
X177519119Y-77560000D01*
X177802830Y-77370430D01*
X178134050Y-76874725D01*
X178250359Y-76290000D01*
X178134050Y-75705275D01*
X177802830Y-75209570D01*
X177519119Y-75020000D01*
X177802830Y-74830430D01*
X178134050Y-74334725D01*
X178250359Y-73750000D01*
X178134050Y-73165275D01*
X177802830Y-72669570D01*
X177519119Y-72480000D01*
X177802830Y-72290430D01*
X178134050Y-71794725D01*
X178250359Y-71210000D01*
X178134050Y-70625275D01*
X177802830Y-70129570D01*
X177519119Y-69940000D01*
X177802830Y-69750430D01*
X178134050Y-69254725D01*
X178250359Y-68670000D01*
X178134050Y-68085275D01*
X177802830Y-67589570D01*
X177519119Y-67400000D01*
X177802830Y-67210430D01*
X178134050Y-66714725D01*
X178250359Y-66130000D01*
X178134050Y-65545275D01*
X177802830Y-65049570D01*
X177519119Y-64860000D01*
X177802830Y-64670430D01*
X178134050Y-64174725D01*
X178250359Y-63590000D01*
X178134050Y-63005275D01*
X177802830Y-62509570D01*
X177519119Y-62320000D01*
X177802830Y-62130430D01*
X178134050Y-61634725D01*
X178250359Y-61050000D01*
X178134050Y-60465275D01*
X177802830Y-59969570D01*
X177519119Y-59780000D01*
X177802830Y-59590430D01*
X178134050Y-59094725D01*
X178250359Y-58510000D01*
X178134050Y-57925275D01*
X177802830Y-57429570D01*
X177519119Y-57240000D01*
X177802830Y-57050430D01*
X178134050Y-56554725D01*
X178250359Y-55970000D01*
X178134050Y-55385275D01*
X177802830Y-54889570D01*
X177513268Y-54696090D01*
X177920732Y-54332036D01*
X178174709Y-53804791D01*
X178177358Y-53789026D01*
X178056217Y-53557000D01*
X176697000Y-53557000D01*
X176697000Y-53577000D01*
X176443000Y-53577000D01*
X176443000Y-53557000D01*
X175083783Y-53557000D01*
X174962642Y-53789026D01*
X174965291Y-53804791D01*
X175219268Y-54332036D01*
X175626732Y-54696090D01*
X175337170Y-54889570D01*
X175134111Y-55193468D01*
X175025863Y-55215000D01*
X164637290Y-55215000D01*
X164629635Y-55207345D01*
X164285983Y-55065000D01*
X163914017Y-55065000D01*
X163581010Y-55202936D01*
X163581010Y-50492025D01*
X163596388Y-50414713D01*
X163581010Y-50337401D01*
X163581010Y-50337397D01*
X163535464Y-50108421D01*
X163361963Y-49848760D01*
X163322201Y-49822192D01*
X163680430Y-49582830D01*
X163870000Y-49299119D01*
X164059570Y-49582830D01*
X164555276Y-49914050D01*
X165140000Y-50030359D01*
X165724725Y-49914050D01*
X166220430Y-49582830D01*
X166410000Y-49299119D01*
X166599570Y-49582830D01*
X167095276Y-49914050D01*
X167680000Y-50030359D01*
X168264725Y-49914050D01*
X168760430Y-49582830D01*
X168950000Y-49299119D01*
X169139570Y-49582830D01*
X169635276Y-49914050D01*
X170220000Y-50030359D01*
X170804725Y-49914050D01*
X171300430Y-49582830D01*
X171493909Y-49293267D01*
X171857964Y-49700732D01*
X172385209Y-49954709D01*
X172400974Y-49957358D01*
X172633000Y-49836217D01*
X172633000Y-48477000D01*
X172887000Y-48477000D01*
X172887000Y-49836217D01*
X173119026Y-49957358D01*
X173134791Y-49954709D01*
X173662036Y-49700732D01*
X174030000Y-49288892D01*
X174397964Y-49700732D01*
X174925209Y-49954709D01*
X174940974Y-49957358D01*
X175172998Y-49836218D01*
X175172998Y-50001000D01*
X175209260Y-50001000D01*
X175005950Y-50305275D01*
X174889641Y-50890000D01*
X175005950Y-51474725D01*
X175337170Y-51970430D01*
X175626732Y-52163910D01*
X175219268Y-52527964D01*
X174965291Y-53055209D01*
X174962642Y-53070974D01*
X175083783Y-53303000D01*
X176443000Y-53303000D01*
X176443000Y-53283000D01*
X176697000Y-53283000D01*
X176697000Y-53303000D01*
X178056217Y-53303000D01*
X178177358Y-53070974D01*
X178174709Y-53055209D01*
X177920732Y-52527964D01*
X177513268Y-52163910D01*
X177802830Y-51970430D01*
X178134050Y-51474725D01*
X178250359Y-50890000D01*
X178134050Y-50305275D01*
X177802830Y-49809570D01*
X177307125Y-49478350D01*
X176869998Y-49391400D01*
X176478413Y-49391400D01*
X176591954Y-49264320D01*
X176785184Y-48711913D01*
X176640924Y-48477000D01*
X175427000Y-48477000D01*
X175427000Y-48497000D01*
X175173000Y-48497000D01*
X175173000Y-48477000D01*
X172887000Y-48477000D01*
X172633000Y-48477000D01*
X172613000Y-48477000D01*
X172613000Y-48223000D01*
X172633000Y-48223000D01*
X172633000Y-46863783D01*
X172887000Y-46863783D01*
X172887000Y-48223000D01*
X175173000Y-48223000D01*
X175173000Y-46863783D01*
X175427000Y-46863783D01*
X175427000Y-48223000D01*
X176640924Y-48223000D01*
X176785184Y-47988087D01*
X176591954Y-47435680D01*
X176202036Y-46999268D01*
X175674791Y-46745291D01*
X175659026Y-46742642D01*
X175427000Y-46863783D01*
X175173000Y-46863783D01*
X174940974Y-46742642D01*
X174925209Y-46745291D01*
X174397964Y-46999268D01*
X174030000Y-47411108D01*
X173662036Y-46999268D01*
X173134791Y-46745291D01*
X173119026Y-46742642D01*
X172887000Y-46863783D01*
X172633000Y-46863783D01*
X172400974Y-46742642D01*
X172385209Y-46745291D01*
X171857964Y-46999268D01*
X171493910Y-47406732D01*
X171300430Y-47117170D01*
X170804724Y-46785950D01*
X170220000Y-46669641D01*
X169635275Y-46785950D01*
X169139570Y-47117170D01*
X168950000Y-47400881D01*
X168760430Y-47117170D01*
X168264724Y-46785950D01*
X167680000Y-46669641D01*
X167095275Y-46785950D01*
X166599570Y-47117170D01*
X166410000Y-47400881D01*
X166220430Y-47117170D01*
X165724724Y-46785950D01*
X165140000Y-46669641D01*
X164555275Y-46785950D01*
X164059570Y-47117170D01*
X163870000Y-47400881D01*
X163680430Y-47117170D01*
X163184724Y-46785950D01*
X162600000Y-46669641D01*
X162015275Y-46785950D01*
X161519570Y-47117170D01*
X161188350Y-47612876D01*
X161174410Y-47682956D01*
X154485000Y-40993546D01*
X154485000Y-39737290D01*
X154492655Y-39729635D01*
X154635000Y-39385983D01*
X154635000Y-39014017D01*
X154492655Y-38670365D01*
X154229635Y-38407345D01*
X153885983Y-38265000D01*
X153514017Y-38265000D01*
X153170365Y-38407345D01*
X152907345Y-38670365D01*
X152765000Y-39014017D01*
X152765000Y-39385983D01*
X152907345Y-39729635D01*
X152915000Y-39737290D01*
X152915001Y-41241387D01*
X152899622Y-41318703D01*
X152960546Y-41624994D01*
X153090251Y-41819111D01*
X153090254Y-41819114D01*
X153134048Y-41884656D01*
X153199590Y-41928450D01*
X160723506Y-49452366D01*
X160592875Y-49478350D01*
X160097170Y-49809570D01*
X159765950Y-50305275D01*
X159649641Y-50890000D01*
X159765950Y-51474725D01*
X160097170Y-51970430D01*
X160380881Y-52160000D01*
X160097170Y-52349570D01*
X159765950Y-52845275D01*
X159649641Y-53430000D01*
X159765950Y-54014725D01*
X159848646Y-54138488D01*
X149709749Y-43999592D01*
X149665954Y-43934048D01*
X149406293Y-43760547D01*
X149177317Y-43715001D01*
X149177313Y-43715001D01*
X149100001Y-43699623D01*
X149022689Y-43715001D01*
X147870618Y-43715001D01*
X147963113Y-43250000D01*
X147851740Y-42690091D01*
X147534577Y-42215423D01*
X147059909Y-41898260D01*
X146641333Y-41815000D01*
X146358667Y-41815000D01*
X145940091Y-41898260D01*
X145465423Y-42215423D01*
X145230000Y-42567758D01*
X144994577Y-42215423D01*
X144519909Y-41898260D01*
X144101333Y-41815000D01*
X143818667Y-41815000D01*
X143400091Y-41898260D01*
X142925423Y-42215423D01*
X142690000Y-42567758D01*
X142454577Y-42215423D01*
X142185000Y-42035297D01*
X142185000Y-39537290D01*
X142192655Y-39529635D01*
X142335000Y-39185983D01*
X142335000Y-38814017D01*
X142192655Y-38470365D01*
X141929635Y-38207345D01*
X141585983Y-38065000D01*
X141214017Y-38065000D01*
X140870365Y-38207345D01*
X140607345Y-38470365D01*
X140465000Y-38814017D01*
X140465000Y-39185983D01*
X140607345Y-39529635D01*
X140615000Y-39537290D01*
X140615001Y-42062024D01*
X140385423Y-42215423D01*
X140129053Y-42599108D01*
X140032389Y-42394866D01*
X139617423Y-42018959D01*
X139229039Y-41858096D01*
X139007000Y-41980085D01*
X139007000Y-43123000D01*
X139027000Y-43123000D01*
X139027000Y-43377000D01*
X139007000Y-43377000D01*
X139007000Y-43397000D01*
X138753000Y-43397000D01*
X138753000Y-43377000D01*
X136467000Y-43377000D01*
X136467000Y-43397000D01*
X136213000Y-43397000D01*
X136213000Y-43377000D01*
X136193000Y-43377000D01*
X136193000Y-43123000D01*
X136213000Y-43123000D01*
X136213000Y-41980085D01*
X136467000Y-41980085D01*
X136467000Y-43123000D01*
X138753000Y-43123000D01*
X138753000Y-41980085D01*
X138530961Y-41858096D01*
X138142577Y-42018959D01*
X137727611Y-42394866D01*
X137610000Y-42643367D01*
X137492389Y-42394866D01*
X137077423Y-42018959D01*
X136689039Y-41858096D01*
X136467000Y-41980085D01*
X136213000Y-41980085D01*
X135990961Y-41858096D01*
X135602577Y-42018959D01*
X135187611Y-42394866D01*
X135090947Y-42599108D01*
X134834577Y-42215423D01*
X134585000Y-42048661D01*
X134585000Y-41237290D01*
X134592655Y-41229635D01*
X134735000Y-40885983D01*
X134735000Y-40514017D01*
X134592655Y-40170365D01*
X134329635Y-39907345D01*
X133985983Y-39765000D01*
X133614017Y-39765000D01*
X133270365Y-39907345D01*
X133007345Y-40170365D01*
X132865000Y-40514017D01*
X132865000Y-40885983D01*
X133007345Y-41229635D01*
X133015000Y-41237290D01*
X133015001Y-42048661D01*
X132765423Y-42215423D01*
X132530000Y-42567758D01*
X132294577Y-42215423D01*
X131819909Y-41898260D01*
X131401333Y-41815000D01*
X131118667Y-41815000D01*
X130700091Y-41898260D01*
X130225423Y-42215423D01*
X130144785Y-42336106D01*
X130118157Y-42202235D01*
X129981877Y-41998280D01*
X133195158Y-38785000D01*
X136562710Y-38785000D01*
X136570365Y-38792655D01*
X136914017Y-38935000D01*
X137285983Y-38935000D01*
X137629635Y-38792655D01*
X137892655Y-38529635D01*
X138035000Y-38185983D01*
X138035000Y-37814017D01*
X137892655Y-37470365D01*
X137629635Y-37207345D01*
X137285983Y-37065000D01*
X136914017Y-37065000D01*
X136570365Y-37207345D01*
X136562710Y-37215000D01*
X132947310Y-37215000D01*
X132869999Y-37199622D01*
X132792688Y-37215000D01*
X132792684Y-37215000D01*
X132563708Y-37260546D01*
X132444625Y-37340115D01*
X132369591Y-37390251D01*
X132369589Y-37390253D01*
X132304047Y-37434047D01*
X132260253Y-37499589D01*
X128219590Y-41540253D01*
X128154048Y-41584047D01*
X128110254Y-41649589D01*
X128110251Y-41649592D01*
X128008041Y-41802560D01*
X127920000Y-41802560D01*
X127672235Y-41851843D01*
X127462191Y-41992191D01*
X127321843Y-42202235D01*
X127272560Y-42450000D01*
X123574739Y-42450000D01*
X123579126Y-42443435D01*
X123647440Y-42100000D01*
X123647440Y-40900000D01*
X123579126Y-40556565D01*
X123384586Y-40265414D01*
X123156844Y-40113242D01*
X123220625Y-40070625D01*
X123548839Y-39579418D01*
X123664092Y-39000000D01*
X123548839Y-38420582D01*
X123220625Y-37929375D01*
X122729418Y-37601161D01*
X122296256Y-37515000D01*
X121703744Y-37515000D01*
X121270582Y-37601161D01*
X120779375Y-37929375D01*
X120451161Y-38420582D01*
X120335908Y-39000000D01*
X111085000Y-39000000D01*
X111085000Y-38585000D01*
X115332538Y-38585000D01*
X115400000Y-38598419D01*
X115467461Y-38585000D01*
X115467462Y-38585000D01*
X115667273Y-38545255D01*
X115893857Y-38393857D01*
X116045255Y-38167273D01*
X116098419Y-37900000D01*
X116085000Y-37832538D01*
X116085000Y-35630000D01*
X127256887Y-35630000D01*
X127368260Y-36189909D01*
X127685423Y-36664577D01*
X128160091Y-36981740D01*
X128578667Y-37065000D01*
X128861333Y-37065000D01*
X129279909Y-36981740D01*
X129754577Y-36664577D01*
X129990000Y-36312242D01*
X130225423Y-36664577D01*
X130700091Y-36981740D01*
X131118667Y-37065000D01*
X131401333Y-37065000D01*
X131819909Y-36981740D01*
X132294577Y-36664577D01*
X132530000Y-36312242D01*
X132765423Y-36664577D01*
X133240091Y-36981740D01*
X133658667Y-37065000D01*
X133941333Y-37065000D01*
X134359909Y-36981740D01*
X134834577Y-36664577D01*
X135090947Y-36280892D01*
X135187611Y-36485134D01*
X135602577Y-36861041D01*
X135990961Y-37021904D01*
X136213000Y-36899915D01*
X136213000Y-35757000D01*
X136467000Y-35757000D01*
X136467000Y-36899915D01*
X136689039Y-37021904D01*
X137077423Y-36861041D01*
X137492389Y-36485134D01*
X137610000Y-36236633D01*
X137727611Y-36485134D01*
X138142577Y-36861041D01*
X138530961Y-37021904D01*
X138753000Y-36899915D01*
X138753000Y-35757000D01*
X136467000Y-35757000D01*
X136213000Y-35757000D01*
X136193000Y-35757000D01*
X136193000Y-35503000D01*
X136213000Y-35503000D01*
X136213000Y-34360085D01*
X136467000Y-34360085D01*
X136467000Y-35503000D01*
X138753000Y-35503000D01*
X138753000Y-34360085D01*
X139007000Y-34360085D01*
X139007000Y-35503000D01*
X139027000Y-35503000D01*
X139027000Y-35757000D01*
X139007000Y-35757000D01*
X139007000Y-36899915D01*
X139229039Y-37021904D01*
X139617423Y-36861041D01*
X140032389Y-36485134D01*
X140129053Y-36280892D01*
X140385423Y-36664577D01*
X140860091Y-36981740D01*
X141278667Y-37065000D01*
X141561333Y-37065000D01*
X141979909Y-36981740D01*
X142454577Y-36664577D01*
X142690000Y-36312242D01*
X142925423Y-36664577D01*
X143400091Y-36981740D01*
X143818667Y-37065000D01*
X144101333Y-37065000D01*
X144519909Y-36981740D01*
X144994577Y-36664577D01*
X145250947Y-36280892D01*
X145347611Y-36485134D01*
X145762577Y-36861041D01*
X146150961Y-37021904D01*
X146373000Y-36899915D01*
X146373000Y-35757000D01*
X146627000Y-35757000D01*
X146627000Y-36899915D01*
X146849039Y-37021904D01*
X147237423Y-36861041D01*
X147652389Y-36485134D01*
X147891914Y-35979041D01*
X147770629Y-35757000D01*
X146627000Y-35757000D01*
X146373000Y-35757000D01*
X146353000Y-35757000D01*
X146353000Y-35503000D01*
X146373000Y-35503000D01*
X146373000Y-34360085D01*
X146627000Y-34360085D01*
X146627000Y-35503000D01*
X147770629Y-35503000D01*
X147891914Y-35280959D01*
X147652389Y-34774866D01*
X147237423Y-34398959D01*
X146849039Y-34238096D01*
X146627000Y-34360085D01*
X146373000Y-34360085D01*
X146150961Y-34238096D01*
X145762577Y-34398959D01*
X145347611Y-34774866D01*
X145250947Y-34979108D01*
X144994577Y-34595423D01*
X144519909Y-34278260D01*
X144101333Y-34195000D01*
X143818667Y-34195000D01*
X143400091Y-34278260D01*
X142925423Y-34595423D01*
X142690000Y-34947758D01*
X142454577Y-34595423D01*
X141979909Y-34278260D01*
X141561333Y-34195000D01*
X141278667Y-34195000D01*
X140860091Y-34278260D01*
X140385423Y-34595423D01*
X140129053Y-34979108D01*
X140032389Y-34774866D01*
X139617423Y-34398959D01*
X139229039Y-34238096D01*
X139007000Y-34360085D01*
X138753000Y-34360085D01*
X138530961Y-34238096D01*
X138142577Y-34398959D01*
X137727611Y-34774866D01*
X137610000Y-35023367D01*
X137492389Y-34774866D01*
X137077423Y-34398959D01*
X136689039Y-34238096D01*
X136467000Y-34360085D01*
X136213000Y-34360085D01*
X135990961Y-34238096D01*
X135602577Y-34398959D01*
X135187611Y-34774866D01*
X135090947Y-34979108D01*
X134834577Y-34595423D01*
X134359909Y-34278260D01*
X133941333Y-34195000D01*
X133658667Y-34195000D01*
X133240091Y-34278260D01*
X132765423Y-34595423D01*
X132530000Y-34947758D01*
X132294577Y-34595423D01*
X131819909Y-34278260D01*
X131401333Y-34195000D01*
X131118667Y-34195000D01*
X130700091Y-34278260D01*
X130225423Y-34595423D01*
X129990000Y-34947758D01*
X129754577Y-34595423D01*
X129279909Y-34278260D01*
X128861333Y-34195000D01*
X128578667Y-34195000D01*
X128160091Y-34278260D01*
X127685423Y-34595423D01*
X127368260Y-35070091D01*
X127256887Y-35630000D01*
X116085000Y-35630000D01*
X116085000Y-33585000D01*
X161715000Y-33585000D01*
X161715001Y-37832533D01*
X161715001Y-37832533D01*
G37*
X161715001Y-37832533D02*
X161701581Y-37900000D01*
X161754745Y-38167273D01*
X161906143Y-38393857D01*
X162132727Y-38545255D01*
X162332538Y-38585000D01*
X162332539Y-38585000D01*
X162400000Y-38598419D01*
X162467462Y-38585000D01*
X166715000Y-38585000D01*
X166715001Y-41732534D01*
X166715000Y-41732539D01*
X166715000Y-42832538D01*
X166701581Y-42900000D01*
X166754745Y-43167273D01*
X166906143Y-43393857D01*
X167132727Y-43545255D01*
X167332538Y-43585000D01*
X167332539Y-43585000D01*
X167400000Y-43598419D01*
X167467462Y-43585000D01*
X177381229Y-43585000D01*
X179215001Y-47165223D01*
X179215000Y-83731117D01*
X177399087Y-87190000D01*
X167469925Y-87190000D01*
X167400000Y-87176091D01*
X167330074Y-87190000D01*
X167122972Y-87231195D01*
X166888119Y-87388119D01*
X166731195Y-87622972D01*
X166676091Y-87900000D01*
X166690000Y-87969926D01*
X166690001Y-92215000D01*
X162467461Y-92215000D01*
X162400000Y-92201581D01*
X162332538Y-92215000D01*
X162132727Y-92254745D01*
X161906143Y-92406143D01*
X161754745Y-92632727D01*
X161701581Y-92900000D01*
X161715000Y-92967462D01*
X161715001Y-97215000D01*
X116085000Y-97215000D01*
X116085000Y-92967462D01*
X116098419Y-92900000D01*
X116075355Y-92784047D01*
X116045255Y-92632727D01*
X116006430Y-92574621D01*
X115893857Y-92406143D01*
X115667273Y-92254745D01*
X115467462Y-92215000D01*
X115467461Y-92215000D01*
X115400000Y-92201581D01*
X115332538Y-92215000D01*
X111085000Y-92215000D01*
X111085000Y-87967462D01*
X111098419Y-87900000D01*
X111045255Y-87632727D01*
X110893857Y-87406143D01*
X110667273Y-87254745D01*
X110467462Y-87215000D01*
X110467461Y-87215000D01*
X110400000Y-87201581D01*
X110332538Y-87215000D01*
X100328248Y-87215000D01*
X98685000Y-83842019D01*
X98685000Y-80700000D01*
X100252560Y-80700000D01*
X100252560Y-83900000D01*
X100301843Y-84147765D01*
X100442191Y-84357809D01*
X100652235Y-84498157D01*
X100900000Y-84547440D01*
X104100000Y-84547440D01*
X104347765Y-84498157D01*
X104557809Y-84357809D01*
X104698157Y-84147765D01*
X104747440Y-83900000D01*
X104747440Y-80700000D01*
X104698157Y-80452235D01*
X104557809Y-80242191D01*
X104347765Y-80101843D01*
X104100000Y-80052560D01*
X100900000Y-80052560D01*
X100652235Y-80101843D01*
X100442191Y-80242191D01*
X100301843Y-80452235D01*
X100252560Y-80700000D01*
X98685000Y-80700000D01*
X98685000Y-67534504D01*
X100315944Y-67534504D01*
X100663780Y-68334187D01*
X101291164Y-68939886D01*
X102025497Y-69244050D01*
X102373000Y-69132362D01*
X102373000Y-67187000D01*
X102627000Y-67187000D01*
X102627000Y-69132362D01*
X102974503Y-69244050D01*
X103708836Y-68939886D01*
X104336220Y-68334187D01*
X104684056Y-67534504D01*
X104572645Y-67187000D01*
X102627000Y-67187000D01*
X102373000Y-67187000D01*
X100427355Y-67187000D01*
X100315944Y-67534504D01*
X98685000Y-67534504D01*
X98685000Y-66585496D01*
X100315944Y-66585496D01*
X100427355Y-66933000D01*
X102373000Y-66933000D01*
X102373000Y-64987638D01*
X102627000Y-64987638D01*
X102627000Y-66933000D01*
X104572645Y-66933000D01*
X104684056Y-66585496D01*
X104336220Y-65785813D01*
X103708836Y-65180114D01*
X102974503Y-64875950D01*
X102627000Y-64987638D01*
X102373000Y-64987638D01*
X102025497Y-64875950D01*
X101291164Y-65180114D01*
X100663780Y-65785813D01*
X100315944Y-66585496D01*
X98685000Y-66585496D01*
X98685000Y-61685750D01*
X100165000Y-61685750D01*
X100165000Y-62376309D01*
X100261673Y-62609698D01*
X100440301Y-62788327D01*
X100673690Y-62885000D01*
X101514250Y-62885000D01*
X101673000Y-62726250D01*
X101673000Y-61527000D01*
X101927000Y-61527000D01*
X101927000Y-62726250D01*
X102085750Y-62885000D01*
X102926310Y-62885000D01*
X103159699Y-62788327D01*
X103338327Y-62609698D01*
X103435000Y-62376309D01*
X103435000Y-61994126D01*
X106265000Y-61994126D01*
X106265000Y-62405874D01*
X106422569Y-62786280D01*
X106713720Y-63077431D01*
X106955142Y-63177431D01*
X107602897Y-63825186D01*
X107505874Y-63784998D01*
X107094126Y-63784998D01*
X106713720Y-63942567D01*
X106422569Y-64233718D01*
X106265000Y-64614124D01*
X106265000Y-65025872D01*
X106422569Y-65406278D01*
X106713720Y-65697429D01*
X107094126Y-65854998D01*
X107505874Y-65854998D01*
X107886280Y-65697429D01*
X108177431Y-65406278D01*
X108335000Y-65025872D01*
X108335000Y-64614124D01*
X108294812Y-64517101D01*
X118265000Y-74487290D01*
X118265001Y-90582909D01*
X118246683Y-90675000D01*
X118319250Y-91039818D01*
X118319251Y-91039819D01*
X118525904Y-91349097D01*
X118603970Y-91401259D01*
X119080271Y-91877560D01*
X118800000Y-91877560D01*
X118456565Y-91945874D01*
X118165414Y-92140414D01*
X117970874Y-92431565D01*
X117902560Y-92775000D01*
X117902560Y-94225000D01*
X117970874Y-94568435D01*
X118165414Y-94859586D01*
X118456565Y-95054126D01*
X118800000Y-95122440D01*
X120000000Y-95122440D01*
X120343435Y-95054126D01*
X120634586Y-94859586D01*
X120786758Y-94631844D01*
X120829375Y-94695625D01*
X121320583Y-95023839D01*
X121900000Y-95139092D01*
X122118960Y-95095538D01*
X122637587Y-95614166D01*
X122686961Y-95688059D01*
X122760854Y-95737433D01*
X122760855Y-95737434D01*
X122780242Y-95750388D01*
X122979700Y-95883662D01*
X123237845Y-95935010D01*
X123237849Y-95935010D01*
X123325009Y-95952347D01*
X123412169Y-95935010D01*
X125762829Y-95935010D01*
X125849990Y-95952347D01*
X125937151Y-95935010D01*
X125937155Y-95935010D01*
X126195300Y-95883662D01*
X126488039Y-95688059D01*
X126537415Y-95614163D01*
X127040417Y-95111161D01*
X127479418Y-95023839D01*
X127970625Y-94695625D01*
X128298839Y-94204417D01*
X128382116Y-93785750D01*
X131815000Y-93785750D01*
X131815000Y-94601310D01*
X131911673Y-94834699D01*
X132090302Y-95013327D01*
X132323691Y-95110000D01*
X133014250Y-95110000D01*
X133173000Y-94951250D01*
X133173000Y-93627000D01*
X131973750Y-93627000D01*
X131815000Y-93785750D01*
X128382116Y-93785750D01*
X128385000Y-93771255D01*
X128385000Y-93228744D01*
X128298839Y-92795582D01*
X128033645Y-92398690D01*
X131815000Y-92398690D01*
X131815000Y-93214250D01*
X131973750Y-93373000D01*
X133173000Y-93373000D01*
X133173000Y-92048750D01*
X133014250Y-91890000D01*
X132323691Y-91890000D01*
X132090302Y-91986673D01*
X131911673Y-92165301D01*
X131815000Y-92398690D01*
X128033645Y-92398690D01*
X127970625Y-92304375D01*
X127479417Y-91976161D01*
X126900000Y-91860908D01*
X126320582Y-91976161D01*
X125829375Y-92304375D01*
X125650000Y-92572829D01*
X125470625Y-92304375D01*
X124979417Y-91976161D01*
X124400000Y-91860908D01*
X123820582Y-91976161D01*
X123329375Y-92304375D01*
X123150000Y-92572829D01*
X122970625Y-92304375D01*
X122479417Y-91976161D01*
X121900000Y-91860908D01*
X121740019Y-91892730D01*
X120135000Y-90287711D01*
X120135000Y-83857176D01*
X120196603Y-84005899D01*
X120994101Y-84803397D01*
X122036083Y-85235000D01*
X123163917Y-85235000D01*
X124205899Y-84803397D01*
X125003397Y-84005899D01*
X125435000Y-82963917D01*
X125435000Y-81836083D01*
X125003397Y-80794101D01*
X124205899Y-79996603D01*
X123163917Y-79565000D01*
X122036083Y-79565000D01*
X120994101Y-79996603D01*
X120196603Y-80794101D01*
X120135000Y-80942824D01*
X120135000Y-74192081D01*
X120153316Y-74099999D01*
X120135000Y-74007915D01*
X120135000Y-74007914D01*
X120080750Y-73735181D01*
X119874097Y-73425903D01*
X119796031Y-73373741D01*
X111134586Y-64712296D01*
X119206741Y-64712296D01*
X119225462Y-66499977D01*
X119406129Y-68278604D01*
X119747253Y-70033537D01*
X120246027Y-71750330D01*
X120898346Y-73414853D01*
X121698841Y-75013403D01*
X122640922Y-76532823D01*
X123716834Y-77960607D01*
X124917722Y-79285002D01*
X126233701Y-80495107D01*
X127653939Y-81580961D01*
X129166746Y-82533626D01*
X130759669Y-83345261D01*
X132419596Y-84009185D01*
X134132865Y-84519932D01*
X135885374Y-84873300D01*
X137662696Y-85066379D01*
X139450203Y-85097580D01*
X141233181Y-84966646D01*
X142996955Y-84674656D01*
X144727005Y-84224011D01*
X146409092Y-83618423D01*
X148029370Y-82862875D01*
X149574503Y-81963586D01*
X151020339Y-80936083D01*
X153265000Y-80936083D01*
X153265000Y-82063917D01*
X153696603Y-83105899D01*
X154494101Y-83903397D01*
X155536083Y-84335000D01*
X156663917Y-84335000D01*
X157705899Y-83903397D01*
X158503397Y-83105899D01*
X158935000Y-82063917D01*
X158935000Y-80936083D01*
X158503397Y-79894101D01*
X157705899Y-79096603D01*
X156663917Y-78665000D01*
X155536083Y-78665000D01*
X154494101Y-79096603D01*
X153696603Y-79894101D01*
X153265000Y-80936083D01*
X151020339Y-80936083D01*
X151031771Y-80927959D01*
X152389181Y-79764519D01*
X153635558Y-78482841D01*
X154760644Y-77093475D01*
X155755178Y-75607858D01*
X156610973Y-74038219D01*
X157320986Y-72397476D01*
X157879372Y-70699136D01*
X158281535Y-68957177D01*
X158524164Y-67185939D01*
X158605263Y-65400000D01*
X158600941Y-64987324D01*
X158482458Y-63203475D01*
X158202788Y-61437707D01*
X157764232Y-59704552D01*
X157170402Y-58018279D01*
X156426184Y-56392765D01*
X155537704Y-54841392D01*
X154512276Y-53376929D01*
X153358340Y-52011430D01*
X152085395Y-50756136D01*
X150703918Y-49621378D01*
X149225280Y-48616497D01*
X147661653Y-47749764D01*
X146025907Y-47028314D01*
X144331507Y-46458085D01*
X142592398Y-46043771D01*
X140822897Y-45788782D01*
X139037568Y-45695217D01*
X137251106Y-45763846D01*
X135478217Y-45994104D01*
X133733493Y-46384096D01*
X132031296Y-46930612D01*
X130385637Y-47629153D01*
X128810061Y-48473969D01*
X127317537Y-49458107D01*
X125920351Y-50573466D01*
X124630003Y-51810866D01*
X123457114Y-53160120D01*
X122411339Y-54610123D01*
X121501285Y-56148939D01*
X120734444Y-57763903D01*
X120117127Y-59441722D01*
X119654416Y-61168584D01*
X119350119Y-62930276D01*
X119206741Y-64712296D01*
X111134586Y-64712296D01*
X108277431Y-61855142D01*
X108177431Y-61613720D01*
X107886280Y-61322569D01*
X107505874Y-61165000D01*
X107094126Y-61165000D01*
X106713720Y-61322569D01*
X106422569Y-61613720D01*
X106265000Y-61994126D01*
X103435000Y-61994126D01*
X103435000Y-61685750D01*
X103276250Y-61527000D01*
X101927000Y-61527000D01*
X101673000Y-61527000D01*
X100323750Y-61527000D01*
X100165000Y-61685750D01*
X98685000Y-61685750D01*
X98685000Y-58900000D01*
X100135908Y-58900000D01*
X100251161Y-59479418D01*
X100570709Y-59957656D01*
X100440301Y-60011673D01*
X100261673Y-60190302D01*
X100165000Y-60423691D01*
X100165000Y-61114250D01*
X100323750Y-61273000D01*
X101673000Y-61273000D01*
X101673000Y-61253000D01*
X101927000Y-61253000D01*
X101927000Y-61273000D01*
X103276250Y-61273000D01*
X103435000Y-61114250D01*
X103435000Y-60423691D01*
X103338327Y-60190302D01*
X103159699Y-60011673D01*
X103029291Y-59957656D01*
X103111247Y-59835000D01*
X113007914Y-59835000D01*
X113100000Y-59853317D01*
X113192086Y-59835000D01*
X113464819Y-59780750D01*
X113774097Y-59574097D01*
X113826261Y-59496028D01*
X119644860Y-53677430D01*
X119886280Y-53577431D01*
X120177431Y-53286280D01*
X120335000Y-52905874D01*
X120335000Y-52494126D01*
X120177431Y-52113720D01*
X119886280Y-51822569D01*
X119505874Y-51665000D01*
X119094126Y-51665000D01*
X118713720Y-51822569D01*
X118422569Y-52113720D01*
X118322570Y-52355140D01*
X112712711Y-57965000D01*
X103111247Y-57965000D01*
X103020625Y-57829375D01*
X102529418Y-57501161D01*
X102096256Y-57415000D01*
X101503744Y-57415000D01*
X101070582Y-57501161D01*
X100579375Y-57829375D01*
X100251161Y-58320582D01*
X100135908Y-58900000D01*
X98685000Y-58900000D01*
X98685000Y-47736083D01*
X120365000Y-47736083D01*
X120365000Y-48863917D01*
X120796603Y-49905899D01*
X121594101Y-50703397D01*
X122636083Y-51135000D01*
X123763917Y-51135000D01*
X124805899Y-50703397D01*
X125603397Y-49905899D01*
X126035000Y-48863917D01*
X126035000Y-47736083D01*
X125603397Y-46694101D01*
X124805899Y-45896603D01*
X123763917Y-45465000D01*
X122636083Y-45465000D01*
X121594101Y-45896603D01*
X120796603Y-46694101D01*
X120365000Y-47736083D01*
X98685000Y-47736083D01*
X98685000Y-46869255D01*
X100413557Y-43585000D01*
X110332539Y-43585000D01*
X110400000Y-43598419D01*
X110667273Y-43545255D01*
X110893857Y-43393857D01*
X111045255Y-43167273D01*
X111085000Y-42967462D01*
X111085000Y-42967461D01*
X111098419Y-42900000D01*
X111085000Y-42832538D01*
X111085000Y-39000000D01*
X120335908Y-39000000D01*
X120451161Y-39579418D01*
X120779375Y-40070625D01*
X120843156Y-40113242D01*
X120615414Y-40265414D01*
X120420874Y-40556565D01*
X120352560Y-40900000D01*
X120352560Y-42100000D01*
X120420874Y-42443435D01*
X120615414Y-42734586D01*
X120906565Y-42929126D01*
X121250000Y-42997440D01*
X122750000Y-42997440D01*
X123093435Y-42929126D01*
X123384586Y-42734586D01*
X123574739Y-42450000D01*
X127272560Y-42450000D01*
X127272560Y-44050000D01*
X127321843Y-44297765D01*
X127462191Y-44507809D01*
X127672235Y-44648157D01*
X127920000Y-44697440D01*
X129520000Y-44697440D01*
X129767765Y-44648157D01*
X129977809Y-44507809D01*
X130118157Y-44297765D01*
X130144785Y-44163894D01*
X130225423Y-44284577D01*
X130700091Y-44601740D01*
X131118667Y-44685000D01*
X131401333Y-44685000D01*
X131554396Y-44654554D01*
X131900254Y-45000412D01*
X131944048Y-45065954D01*
X132009590Y-45109748D01*
X132009592Y-45109750D01*
X132136747Y-45194712D01*
X132203709Y-45239455D01*
X132432685Y-45285001D01*
X132432689Y-45285001D01*
X132510000Y-45300379D01*
X132587311Y-45285001D01*
X148774844Y-45285001D01*
X159078990Y-55589148D01*
X159078991Y-69819073D01*
X159063612Y-69896390D01*
X159124536Y-70202681D01*
X159254241Y-70396798D01*
X159254244Y-70396801D01*
X159298038Y-70462343D01*
X159363580Y-70506137D01*
X159718959Y-70861516D01*
X159649641Y-71210000D01*
X159765950Y-71794725D01*
X160097170Y-72290430D01*
X160380881Y-72480000D01*
X160097170Y-72669570D01*
X159765950Y-73165275D01*
X159649641Y-73750000D01*
X159765950Y-74334725D01*
X160097170Y-74830430D01*
X160380881Y-75020000D01*
X160097170Y-75209570D01*
X159765950Y-75705275D01*
X159649641Y-76290000D01*
X159765950Y-76874725D01*
X160097170Y-77370430D01*
X160380881Y-77560000D01*
X160097170Y-77749570D01*
X159765950Y-78245275D01*
X159649641Y-78830000D01*
X159765950Y-79414725D01*
X160097170Y-79910430D01*
X160545001Y-80209661D01*
X160545000Y-85404876D01*
X151784867Y-94165010D01*
X151011650Y-94165010D01*
X151085000Y-93796255D01*
X151085000Y-93203744D01*
X150998839Y-92770582D01*
X150670625Y-92279375D01*
X150179417Y-91951161D01*
X149600000Y-91835908D01*
X149020582Y-91951161D01*
X148542344Y-92270709D01*
X148488327Y-92140301D01*
X148309698Y-91961673D01*
X148076309Y-91865000D01*
X147385750Y-91865000D01*
X147227000Y-92023750D01*
X147227000Y-93373000D01*
X147247000Y-93373000D01*
X147247000Y-93627000D01*
X147227000Y-93627000D01*
X147227000Y-93647000D01*
X146973000Y-93647000D01*
X146973000Y-93627000D01*
X145773750Y-93627000D01*
X145615000Y-93785750D01*
X145615000Y-94165010D01*
X142206678Y-94165010D01*
X142285000Y-93771255D01*
X142285000Y-93228744D01*
X142198839Y-92795582D01*
X141916940Y-92373690D01*
X145615000Y-92373690D01*
X145615000Y-93214250D01*
X145773750Y-93373000D01*
X146973000Y-93373000D01*
X146973000Y-92023750D01*
X146814250Y-91865000D01*
X146123691Y-91865000D01*
X145890302Y-91961673D01*
X145711673Y-92140301D01*
X145615000Y-92373690D01*
X141916940Y-92373690D01*
X141870625Y-92304375D01*
X141379417Y-91976161D01*
X140800000Y-91860908D01*
X140220582Y-91976161D01*
X139729375Y-92304375D01*
X139550000Y-92572829D01*
X139370625Y-92304375D01*
X138879417Y-91976161D01*
X138300000Y-91860908D01*
X137720582Y-91976161D01*
X137229375Y-92304375D01*
X137050000Y-92572829D01*
X136870625Y-92304375D01*
X136379417Y-91976161D01*
X135800000Y-91860908D01*
X135220582Y-91976161D01*
X134742344Y-92295709D01*
X134688327Y-92165301D01*
X134509698Y-91986673D01*
X134276309Y-91890000D01*
X133585750Y-91890000D01*
X133427000Y-92048750D01*
X133427000Y-93373000D01*
X133447000Y-93373000D01*
X133447000Y-93627000D01*
X133427000Y-93627000D01*
X133427000Y-94951250D01*
X133585750Y-95110000D01*
X134276309Y-95110000D01*
X134509698Y-95013327D01*
X134688327Y-94834699D01*
X134742344Y-94704291D01*
X135022836Y-94891709D01*
X135060546Y-95081291D01*
X135234047Y-95340953D01*
X135299593Y-95384750D01*
X135365260Y-95450416D01*
X135409057Y-95515963D01*
X135668718Y-95689464D01*
X135897694Y-95735010D01*
X135897698Y-95735010D01*
X135975010Y-95750388D01*
X136052322Y-95735010D01*
X152032712Y-95735010D01*
X152110024Y-95750388D01*
X152187336Y-95735010D01*
X152187340Y-95735010D01*
X152416316Y-95689464D01*
X152675977Y-95515963D01*
X152719773Y-95450418D01*
X154543189Y-93627002D01*
X154573748Y-93627002D01*
X154415000Y-93785750D01*
X154415000Y-94626310D01*
X154511673Y-94859699D01*
X154690302Y-95038327D01*
X154923691Y-95135000D01*
X155614250Y-95135000D01*
X155773000Y-94976250D01*
X155773000Y-93627000D01*
X155753000Y-93627000D01*
X155753000Y-93373000D01*
X155773000Y-93373000D01*
X155773000Y-93353000D01*
X156027000Y-93353000D01*
X156027000Y-93373000D01*
X156047000Y-93373000D01*
X156047000Y-93627000D01*
X156027000Y-93627000D01*
X156027000Y-94976250D01*
X156185750Y-95135000D01*
X156876309Y-95135000D01*
X157109698Y-95038327D01*
X157288327Y-94859699D01*
X157342344Y-94729291D01*
X157820583Y-95048839D01*
X158400000Y-95164092D01*
X158979418Y-95048839D01*
X159470625Y-94720625D01*
X159798839Y-94229417D01*
X159885000Y-93796255D01*
X159885000Y-93203744D01*
X159798839Y-92770582D01*
X159470625Y-92279375D01*
X159185000Y-92088527D01*
X159185000Y-89692311D01*
X164791561Y-84085750D01*
X170115000Y-84085750D01*
X170115000Y-84776309D01*
X170211673Y-85009698D01*
X170390301Y-85188327D01*
X170623690Y-85285000D01*
X171314250Y-85285000D01*
X171473000Y-85126250D01*
X171473000Y-83927000D01*
X170273750Y-83927000D01*
X170115000Y-84085750D01*
X164791561Y-84085750D01*
X166053620Y-82823691D01*
X170115000Y-82823691D01*
X170115000Y-83514250D01*
X170273750Y-83673000D01*
X171473000Y-83673000D01*
X171473000Y-82473750D01*
X171727000Y-82473750D01*
X171727000Y-83673000D01*
X171747000Y-83673000D01*
X171747000Y-83927000D01*
X171727000Y-83927000D01*
X171727000Y-85126250D01*
X171885750Y-85285000D01*
X172576310Y-85285000D01*
X172809699Y-85188327D01*
X172988327Y-85009698D01*
X173054904Y-84848967D01*
X173069375Y-84870625D01*
X173560582Y-85198839D01*
X173993744Y-85285000D01*
X174286256Y-85285000D01*
X174719418Y-85198839D01*
X175210625Y-84870625D01*
X175410000Y-84572239D01*
X175609375Y-84870625D01*
X176100582Y-85198839D01*
X176533744Y-85285000D01*
X176826256Y-85285000D01*
X177259418Y-85198839D01*
X177750625Y-84870625D01*
X178078839Y-84379418D01*
X178194092Y-83800000D01*
X178078839Y-83220582D01*
X177750625Y-82729375D01*
X177259418Y-82401161D01*
X176826256Y-82315000D01*
X176533744Y-82315000D01*
X176100582Y-82401161D01*
X175609375Y-82729375D01*
X175410000Y-83027761D01*
X175210625Y-82729375D01*
X174719418Y-82401161D01*
X174286256Y-82315000D01*
X173993744Y-82315000D01*
X173560582Y-82401161D01*
X173069375Y-82729375D01*
X173054904Y-82751033D01*
X172988327Y-82590302D01*
X172809699Y-82411673D01*
X172576310Y-82315000D01*
X171885750Y-82315000D01*
X171727000Y-82473750D01*
X171473000Y-82473750D01*
X171314250Y-82315000D01*
X170623690Y-82315000D01*
X170390301Y-82411673D01*
X170211673Y-82590302D01*
X170115000Y-82823691D01*
X166053620Y-82823691D01*
X171520866Y-77356446D01*
X171606292Y-77339454D01*
X171865953Y-77165953D01*
X172039454Y-76906292D01*
X172100379Y-76600000D01*
X172085000Y-76522684D01*
X172085000Y-63537290D01*
X172092655Y-63529635D01*
X172235000Y-63185983D01*
X172235000Y-62814017D01*
X172092655Y-62470365D01*
X171829635Y-62207345D01*
X171485983Y-62065000D01*
X171114017Y-62065000D01*
X170770365Y-62207345D01*
X170507345Y-62470365D01*
X170365000Y-62814017D01*
X170365000Y-63185983D01*
X170507345Y-63529635D01*
X170515001Y-63537291D01*
X170515000Y-75222684D01*
X170515000Y-75677315D01*
X170515001Y-75677318D01*
X170515000Y-76141996D01*
X162115000Y-84541997D01*
X162115000Y-80209661D01*
X162562830Y-79910430D01*
X162894050Y-79414725D01*
X163010359Y-78830000D01*
X162941041Y-78481516D01*
X163196418Y-78226139D01*
X163261963Y-78182343D01*
X163435464Y-77922682D01*
X163481010Y-77693706D01*
X163481010Y-77693702D01*
X163496388Y-77616390D01*
X163481010Y-77539078D01*
X163481010Y-68797322D01*
X163496388Y-68720010D01*
X163481010Y-68642698D01*
X163481010Y-68642694D01*
X163435464Y-68413718D01*
X163261963Y-68154057D01*
X163231984Y-68134026D01*
X163211953Y-68104047D01*
X162952292Y-67930546D01*
X162765889Y-67893468D01*
X162562830Y-67589570D01*
X162279119Y-67400000D01*
X162562830Y-67210430D01*
X162894050Y-66714725D01*
X163010359Y-66130000D01*
X162941041Y-65781516D01*
X163296421Y-65426137D01*
X163361963Y-65382343D01*
X163405757Y-65316801D01*
X163405759Y-65316799D01*
X163535464Y-65122682D01*
X163550007Y-65049570D01*
X163581010Y-64893706D01*
X163581010Y-64893703D01*
X163596388Y-64816391D01*
X163581010Y-64739079D01*
X163581010Y-56797064D01*
X163914017Y-56935000D01*
X164285983Y-56935000D01*
X164629635Y-56792655D01*
X164637290Y-56785000D01*
X175146688Y-56785000D01*
X175161827Y-56788011D01*
X175337170Y-57050430D01*
X175620881Y-57240000D01*
X175337170Y-57429570D01*
X175005950Y-57925275D01*
X174893892Y-58488630D01*
X174893277Y-58488015D01*
X174333142Y-58256000D01*
X173726858Y-58256000D01*
X173166723Y-58488015D01*
X172738015Y-58916723D01*
X172506000Y-59476858D01*
X172506000Y-60083142D01*
X172738015Y-60643277D01*
X173144738Y-61050000D01*
X172738015Y-61456723D01*
X172506000Y-62016858D01*
X172506000Y-62623142D01*
X172738015Y-63183277D01*
X173166723Y-63611985D01*
X173726858Y-63844000D01*
X174333142Y-63844000D01*
X174893277Y-63611985D01*
X174893892Y-63611370D01*
X175005950Y-64174725D01*
X175337170Y-64670430D01*
X175620881Y-64860000D01*
X175337170Y-65049570D01*
X175005950Y-65545275D01*
X174889641Y-66130000D01*
X175005950Y-66714725D01*
X175337170Y-67210430D01*
X175620881Y-67400000D01*
X175337170Y-67589570D01*
X175005950Y-68085275D01*
X174893892Y-68648630D01*
X174893277Y-68648015D01*
X174333142Y-68416000D01*
X173726858Y-68416000D01*
X173166723Y-68648015D01*
X172738015Y-69076723D01*
X172506000Y-69636858D01*
X172506000Y-70243142D01*
X172738015Y-70803277D01*
X173144738Y-71210000D01*
X172738015Y-71616723D01*
X172506000Y-72176858D01*
X172506000Y-72783142D01*
X172738015Y-73343277D01*
X173166723Y-73771985D01*
X173726858Y-74004000D01*
X174333142Y-74004000D01*
X174893277Y-73771985D01*
X174893892Y-73771370D01*
X175005950Y-74334725D01*
X175337170Y-74830430D01*
X175620881Y-75020000D01*
X175337170Y-75209570D01*
X175005950Y-75705275D01*
X174889641Y-76290000D01*
X175005950Y-76874725D01*
X175337170Y-77370430D01*
X175620881Y-77560000D01*
X175337170Y-77749570D01*
X175005950Y-78245275D01*
X174889641Y-78830000D01*
X175005950Y-79414725D01*
X175337170Y-79910430D01*
X175832875Y-80241650D01*
X176270002Y-80328600D01*
X176869998Y-80328600D01*
X177307125Y-80241650D01*
X177802830Y-79910430D01*
X178134050Y-79414725D01*
X178250359Y-78830000D01*
X178134050Y-78245275D01*
X177802830Y-77749570D01*
X177519119Y-77560000D01*
X177802830Y-77370430D01*
X178134050Y-76874725D01*
X178250359Y-76290000D01*
X178134050Y-75705275D01*
X177802830Y-75209570D01*
X177519119Y-75020000D01*
X177802830Y-74830430D01*
X178134050Y-74334725D01*
X178250359Y-73750000D01*
X178134050Y-73165275D01*
X177802830Y-72669570D01*
X177519119Y-72480000D01*
X177802830Y-72290430D01*
X178134050Y-71794725D01*
X178250359Y-71210000D01*
X178134050Y-70625275D01*
X177802830Y-70129570D01*
X177519119Y-69940000D01*
X177802830Y-69750430D01*
X178134050Y-69254725D01*
X178250359Y-68670000D01*
X178134050Y-68085275D01*
X177802830Y-67589570D01*
X177519119Y-67400000D01*
X177802830Y-67210430D01*
X178134050Y-66714725D01*
X178250359Y-66130000D01*
X178134050Y-65545275D01*
X177802830Y-65049570D01*
X177519119Y-64860000D01*
X177802830Y-64670430D01*
X178134050Y-64174725D01*
X178250359Y-63590000D01*
X178134050Y-63005275D01*
X177802830Y-62509570D01*
X177519119Y-62320000D01*
X177802830Y-62130430D01*
X178134050Y-61634725D01*
X178250359Y-61050000D01*
X178134050Y-60465275D01*
X177802830Y-59969570D01*
X177519119Y-59780000D01*
X177802830Y-59590430D01*
X178134050Y-59094725D01*
X178250359Y-58510000D01*
X178134050Y-57925275D01*
X177802830Y-57429570D01*
X177519119Y-57240000D01*
X177802830Y-57050430D01*
X178134050Y-56554725D01*
X178250359Y-55970000D01*
X178134050Y-55385275D01*
X177802830Y-54889570D01*
X177513268Y-54696090D01*
X177920732Y-54332036D01*
X178174709Y-53804791D01*
X178177358Y-53789026D01*
X178056217Y-53557000D01*
X176697000Y-53557000D01*
X176697000Y-53577000D01*
X176443000Y-53577000D01*
X176443000Y-53557000D01*
X175083783Y-53557000D01*
X174962642Y-53789026D01*
X174965291Y-53804791D01*
X175219268Y-54332036D01*
X175626732Y-54696090D01*
X175337170Y-54889570D01*
X175134111Y-55193468D01*
X175025863Y-55215000D01*
X164637290Y-55215000D01*
X164629635Y-55207345D01*
X164285983Y-55065000D01*
X163914017Y-55065000D01*
X163581010Y-55202936D01*
X163581010Y-50492025D01*
X163596388Y-50414713D01*
X163581010Y-50337401D01*
X163581010Y-50337397D01*
X163535464Y-50108421D01*
X163361963Y-49848760D01*
X163322201Y-49822192D01*
X163680430Y-49582830D01*
X163870000Y-49299119D01*
X164059570Y-49582830D01*
X164555276Y-49914050D01*
X165140000Y-50030359D01*
X165724725Y-49914050D01*
X166220430Y-49582830D01*
X166410000Y-49299119D01*
X166599570Y-49582830D01*
X167095276Y-49914050D01*
X167680000Y-50030359D01*
X168264725Y-49914050D01*
X168760430Y-49582830D01*
X168950000Y-49299119D01*
X169139570Y-49582830D01*
X169635276Y-49914050D01*
X170220000Y-50030359D01*
X170804725Y-49914050D01*
X171300430Y-49582830D01*
X171493909Y-49293267D01*
X171857964Y-49700732D01*
X172385209Y-49954709D01*
X172400974Y-49957358D01*
X172633000Y-49836217D01*
X172633000Y-48477000D01*
X172887000Y-48477000D01*
X172887000Y-49836217D01*
X173119026Y-49957358D01*
X173134791Y-49954709D01*
X173662036Y-49700732D01*
X174030000Y-49288892D01*
X174397964Y-49700732D01*
X174925209Y-49954709D01*
X174940974Y-49957358D01*
X175172998Y-49836218D01*
X175172998Y-50001000D01*
X175209260Y-50001000D01*
X175005950Y-50305275D01*
X174889641Y-50890000D01*
X175005950Y-51474725D01*
X175337170Y-51970430D01*
X175626732Y-52163910D01*
X175219268Y-52527964D01*
X174965291Y-53055209D01*
X174962642Y-53070974D01*
X175083783Y-53303000D01*
X176443000Y-53303000D01*
X176443000Y-53283000D01*
X176697000Y-53283000D01*
X176697000Y-53303000D01*
X178056217Y-53303000D01*
X178177358Y-53070974D01*
X178174709Y-53055209D01*
X177920732Y-52527964D01*
X177513268Y-52163910D01*
X177802830Y-51970430D01*
X178134050Y-51474725D01*
X178250359Y-50890000D01*
X178134050Y-50305275D01*
X177802830Y-49809570D01*
X177307125Y-49478350D01*
X176869998Y-49391400D01*
X176478413Y-49391400D01*
X176591954Y-49264320D01*
X176785184Y-48711913D01*
X176640924Y-48477000D01*
X175427000Y-48477000D01*
X175427000Y-48497000D01*
X175173000Y-48497000D01*
X175173000Y-48477000D01*
X172887000Y-48477000D01*
X172633000Y-48477000D01*
X172613000Y-48477000D01*
X172613000Y-48223000D01*
X172633000Y-48223000D01*
X172633000Y-46863783D01*
X172887000Y-46863783D01*
X172887000Y-48223000D01*
X175173000Y-48223000D01*
X175173000Y-46863783D01*
X175427000Y-46863783D01*
X175427000Y-48223000D01*
X176640924Y-48223000D01*
X176785184Y-47988087D01*
X176591954Y-47435680D01*
X176202036Y-46999268D01*
X175674791Y-46745291D01*
X175659026Y-46742642D01*
X175427000Y-46863783D01*
X175173000Y-46863783D01*
X174940974Y-46742642D01*
X174925209Y-46745291D01*
X174397964Y-46999268D01*
X174030000Y-47411108D01*
X173662036Y-46999268D01*
X173134791Y-46745291D01*
X173119026Y-46742642D01*
X172887000Y-46863783D01*
X172633000Y-46863783D01*
X172400974Y-46742642D01*
X172385209Y-46745291D01*
X171857964Y-46999268D01*
X171493910Y-47406732D01*
X171300430Y-47117170D01*
X170804724Y-46785950D01*
X170220000Y-46669641D01*
X169635275Y-46785950D01*
X169139570Y-47117170D01*
X168950000Y-47400881D01*
X168760430Y-47117170D01*
X168264724Y-46785950D01*
X167680000Y-46669641D01*
X167095275Y-46785950D01*
X166599570Y-47117170D01*
X166410000Y-47400881D01*
X166220430Y-47117170D01*
X165724724Y-46785950D01*
X165140000Y-46669641D01*
X164555275Y-46785950D01*
X164059570Y-47117170D01*
X163870000Y-47400881D01*
X163680430Y-47117170D01*
X163184724Y-46785950D01*
X162600000Y-46669641D01*
X162015275Y-46785950D01*
X161519570Y-47117170D01*
X161188350Y-47612876D01*
X161174410Y-47682956D01*
X154485000Y-40993546D01*
X154485000Y-39737290D01*
X154492655Y-39729635D01*
X154635000Y-39385983D01*
X154635000Y-39014017D01*
X154492655Y-38670365D01*
X154229635Y-38407345D01*
X153885983Y-38265000D01*
X153514017Y-38265000D01*
X153170365Y-38407345D01*
X152907345Y-38670365D01*
X152765000Y-39014017D01*
X152765000Y-39385983D01*
X152907345Y-39729635D01*
X152915000Y-39737290D01*
X152915001Y-41241387D01*
X152899622Y-41318703D01*
X152960546Y-41624994D01*
X153090251Y-41819111D01*
X153090254Y-41819114D01*
X153134048Y-41884656D01*
X153199590Y-41928450D01*
X160723506Y-49452366D01*
X160592875Y-49478350D01*
X160097170Y-49809570D01*
X159765950Y-50305275D01*
X159649641Y-50890000D01*
X159765950Y-51474725D01*
X160097170Y-51970430D01*
X160380881Y-52160000D01*
X160097170Y-52349570D01*
X159765950Y-52845275D01*
X159649641Y-53430000D01*
X159765950Y-54014725D01*
X159848646Y-54138488D01*
X149709749Y-43999592D01*
X149665954Y-43934048D01*
X149406293Y-43760547D01*
X149177317Y-43715001D01*
X149177313Y-43715001D01*
X149100001Y-43699623D01*
X149022689Y-43715001D01*
X147870618Y-43715001D01*
X147963113Y-43250000D01*
X147851740Y-42690091D01*
X147534577Y-42215423D01*
X147059909Y-41898260D01*
X146641333Y-41815000D01*
X146358667Y-41815000D01*
X145940091Y-41898260D01*
X145465423Y-42215423D01*
X145230000Y-42567758D01*
X144994577Y-42215423D01*
X144519909Y-41898260D01*
X144101333Y-41815000D01*
X143818667Y-41815000D01*
X143400091Y-41898260D01*
X142925423Y-42215423D01*
X142690000Y-42567758D01*
X142454577Y-42215423D01*
X142185000Y-42035297D01*
X142185000Y-39537290D01*
X142192655Y-39529635D01*
X142335000Y-39185983D01*
X142335000Y-38814017D01*
X142192655Y-38470365D01*
X141929635Y-38207345D01*
X141585983Y-38065000D01*
X141214017Y-38065000D01*
X140870365Y-38207345D01*
X140607345Y-38470365D01*
X140465000Y-38814017D01*
X140465000Y-39185983D01*
X140607345Y-39529635D01*
X140615000Y-39537290D01*
X140615001Y-42062024D01*
X140385423Y-42215423D01*
X140129053Y-42599108D01*
X140032389Y-42394866D01*
X139617423Y-42018959D01*
X139229039Y-41858096D01*
X139007000Y-41980085D01*
X139007000Y-43123000D01*
X139027000Y-43123000D01*
X139027000Y-43377000D01*
X139007000Y-43377000D01*
X139007000Y-43397000D01*
X138753000Y-43397000D01*
X138753000Y-43377000D01*
X136467000Y-43377000D01*
X136467000Y-43397000D01*
X136213000Y-43397000D01*
X136213000Y-43377000D01*
X136193000Y-43377000D01*
X136193000Y-43123000D01*
X136213000Y-43123000D01*
X136213000Y-41980085D01*
X136467000Y-41980085D01*
X136467000Y-43123000D01*
X138753000Y-43123000D01*
X138753000Y-41980085D01*
X138530961Y-41858096D01*
X138142577Y-42018959D01*
X137727611Y-42394866D01*
X137610000Y-42643367D01*
X137492389Y-42394866D01*
X137077423Y-42018959D01*
X136689039Y-41858096D01*
X136467000Y-41980085D01*
X136213000Y-41980085D01*
X135990961Y-41858096D01*
X135602577Y-42018959D01*
X135187611Y-42394866D01*
X135090947Y-42599108D01*
X134834577Y-42215423D01*
X134585000Y-42048661D01*
X134585000Y-41237290D01*
X134592655Y-41229635D01*
X134735000Y-40885983D01*
X134735000Y-40514017D01*
X134592655Y-40170365D01*
X134329635Y-39907345D01*
X133985983Y-39765000D01*
X133614017Y-39765000D01*
X133270365Y-39907345D01*
X133007345Y-40170365D01*
X132865000Y-40514017D01*
X132865000Y-40885983D01*
X133007345Y-41229635D01*
X133015000Y-41237290D01*
X133015001Y-42048661D01*
X132765423Y-42215423D01*
X132530000Y-42567758D01*
X132294577Y-42215423D01*
X131819909Y-41898260D01*
X131401333Y-41815000D01*
X131118667Y-41815000D01*
X130700091Y-41898260D01*
X130225423Y-42215423D01*
X130144785Y-42336106D01*
X130118157Y-42202235D01*
X129981877Y-41998280D01*
X133195158Y-38785000D01*
X136562710Y-38785000D01*
X136570365Y-38792655D01*
X136914017Y-38935000D01*
X137285983Y-38935000D01*
X137629635Y-38792655D01*
X137892655Y-38529635D01*
X138035000Y-38185983D01*
X138035000Y-37814017D01*
X137892655Y-37470365D01*
X137629635Y-37207345D01*
X137285983Y-37065000D01*
X136914017Y-37065000D01*
X136570365Y-37207345D01*
X136562710Y-37215000D01*
X132947310Y-37215000D01*
X132869999Y-37199622D01*
X132792688Y-37215000D01*
X132792684Y-37215000D01*
X132563708Y-37260546D01*
X132444625Y-37340115D01*
X132369591Y-37390251D01*
X132369589Y-37390253D01*
X132304047Y-37434047D01*
X132260253Y-37499589D01*
X128219590Y-41540253D01*
X128154048Y-41584047D01*
X128110254Y-41649589D01*
X128110251Y-41649592D01*
X128008041Y-41802560D01*
X127920000Y-41802560D01*
X127672235Y-41851843D01*
X127462191Y-41992191D01*
X127321843Y-42202235D01*
X127272560Y-42450000D01*
X123574739Y-42450000D01*
X123579126Y-42443435D01*
X123647440Y-42100000D01*
X123647440Y-40900000D01*
X123579126Y-40556565D01*
X123384586Y-40265414D01*
X123156844Y-40113242D01*
X123220625Y-40070625D01*
X123548839Y-39579418D01*
X123664092Y-39000000D01*
X123548839Y-38420582D01*
X123220625Y-37929375D01*
X122729418Y-37601161D01*
X122296256Y-37515000D01*
X121703744Y-37515000D01*
X121270582Y-37601161D01*
X120779375Y-37929375D01*
X120451161Y-38420582D01*
X120335908Y-39000000D01*
X111085000Y-39000000D01*
X111085000Y-38585000D01*
X115332538Y-38585000D01*
X115400000Y-38598419D01*
X115467461Y-38585000D01*
X115467462Y-38585000D01*
X115667273Y-38545255D01*
X115893857Y-38393857D01*
X116045255Y-38167273D01*
X116098419Y-37900000D01*
X116085000Y-37832538D01*
X116085000Y-35630000D01*
X127256887Y-35630000D01*
X127368260Y-36189909D01*
X127685423Y-36664577D01*
X128160091Y-36981740D01*
X128578667Y-37065000D01*
X128861333Y-37065000D01*
X129279909Y-36981740D01*
X129754577Y-36664577D01*
X129990000Y-36312242D01*
X130225423Y-36664577D01*
X130700091Y-36981740D01*
X131118667Y-37065000D01*
X131401333Y-37065000D01*
X131819909Y-36981740D01*
X132294577Y-36664577D01*
X132530000Y-36312242D01*
X132765423Y-36664577D01*
X133240091Y-36981740D01*
X133658667Y-37065000D01*
X133941333Y-37065000D01*
X134359909Y-36981740D01*
X134834577Y-36664577D01*
X135090947Y-36280892D01*
X135187611Y-36485134D01*
X135602577Y-36861041D01*
X135990961Y-37021904D01*
X136213000Y-36899915D01*
X136213000Y-35757000D01*
X136467000Y-35757000D01*
X136467000Y-36899915D01*
X136689039Y-37021904D01*
X137077423Y-36861041D01*
X137492389Y-36485134D01*
X137610000Y-36236633D01*
X137727611Y-36485134D01*
X138142577Y-36861041D01*
X138530961Y-37021904D01*
X138753000Y-36899915D01*
X138753000Y-35757000D01*
X136467000Y-35757000D01*
X136213000Y-35757000D01*
X136193000Y-35757000D01*
X136193000Y-35503000D01*
X136213000Y-35503000D01*
X136213000Y-34360085D01*
X136467000Y-34360085D01*
X136467000Y-35503000D01*
X138753000Y-35503000D01*
X138753000Y-34360085D01*
X139007000Y-34360085D01*
X139007000Y-35503000D01*
X139027000Y-35503000D01*
X139027000Y-35757000D01*
X139007000Y-35757000D01*
X139007000Y-36899915D01*
X139229039Y-37021904D01*
X139617423Y-36861041D01*
X140032389Y-36485134D01*
X140129053Y-36280892D01*
X140385423Y-36664577D01*
X140860091Y-36981740D01*
X141278667Y-37065000D01*
X141561333Y-37065000D01*
X141979909Y-36981740D01*
X142454577Y-36664577D01*
X142690000Y-36312242D01*
X142925423Y-36664577D01*
X143400091Y-36981740D01*
X143818667Y-37065000D01*
X144101333Y-37065000D01*
X144519909Y-36981740D01*
X144994577Y-36664577D01*
X145250947Y-36280892D01*
X145347611Y-36485134D01*
X145762577Y-36861041D01*
X146150961Y-37021904D01*
X146373000Y-36899915D01*
X146373000Y-35757000D01*
X146627000Y-35757000D01*
X146627000Y-36899915D01*
X146849039Y-37021904D01*
X147237423Y-36861041D01*
X147652389Y-36485134D01*
X147891914Y-35979041D01*
X147770629Y-35757000D01*
X146627000Y-35757000D01*
X146373000Y-35757000D01*
X146353000Y-35757000D01*
X146353000Y-35503000D01*
X146373000Y-35503000D01*
X146373000Y-34360085D01*
X146627000Y-34360085D01*
X146627000Y-35503000D01*
X147770629Y-35503000D01*
X147891914Y-35280959D01*
X147652389Y-34774866D01*
X147237423Y-34398959D01*
X146849039Y-34238096D01*
X146627000Y-34360085D01*
X146373000Y-34360085D01*
X146150961Y-34238096D01*
X145762577Y-34398959D01*
X145347611Y-34774866D01*
X145250947Y-34979108D01*
X144994577Y-34595423D01*
X144519909Y-34278260D01*
X144101333Y-34195000D01*
X143818667Y-34195000D01*
X143400091Y-34278260D01*
X142925423Y-34595423D01*
X142690000Y-34947758D01*
X142454577Y-34595423D01*
X141979909Y-34278260D01*
X141561333Y-34195000D01*
X141278667Y-34195000D01*
X140860091Y-34278260D01*
X140385423Y-34595423D01*
X140129053Y-34979108D01*
X140032389Y-34774866D01*
X139617423Y-34398959D01*
X139229039Y-34238096D01*
X139007000Y-34360085D01*
X138753000Y-34360085D01*
X138530961Y-34238096D01*
X138142577Y-34398959D01*
X137727611Y-34774866D01*
X137610000Y-35023367D01*
X137492389Y-34774866D01*
X137077423Y-34398959D01*
X136689039Y-34238096D01*
X136467000Y-34360085D01*
X136213000Y-34360085D01*
X135990961Y-34238096D01*
X135602577Y-34398959D01*
X135187611Y-34774866D01*
X135090947Y-34979108D01*
X134834577Y-34595423D01*
X134359909Y-34278260D01*
X133941333Y-34195000D01*
X133658667Y-34195000D01*
X133240091Y-34278260D01*
X132765423Y-34595423D01*
X132530000Y-34947758D01*
X132294577Y-34595423D01*
X131819909Y-34278260D01*
X131401333Y-34195000D01*
X131118667Y-34195000D01*
X130700091Y-34278260D01*
X130225423Y-34595423D01*
X129990000Y-34947758D01*
X129754577Y-34595423D01*
X129279909Y-34278260D01*
X128861333Y-34195000D01*
X128578667Y-34195000D01*
X128160091Y-34278260D01*
X127685423Y-34595423D01*
X127368260Y-35070091D01*
X127256887Y-35630000D01*
X116085000Y-35630000D01*
X116085000Y-33585000D01*
X161715000Y-33585000D01*
X161715001Y-37832533D01*
G36*
X161457000Y-58383000D02*
X161477000Y-58383000D01*
X161477000Y-58637000D01*
X161457000Y-58637000D01*
X161457000Y-58657000D01*
X161203000Y-58657000D01*
X161203000Y-58637000D01*
X161183000Y-58637000D01*
X161183000Y-58383000D01*
X161203000Y-58383000D01*
X161203000Y-58363000D01*
X161457000Y-58363000D01*
X161457000Y-58383000D01*
X161457000Y-58383000D01*
G37*
X161457000Y-58383000D02*
X161477000Y-58383000D01*
X161477000Y-58637000D01*
X161457000Y-58637000D01*
X161457000Y-58657000D01*
X161203000Y-58657000D01*
X161203000Y-58637000D01*
X161183000Y-58637000D01*
X161183000Y-58383000D01*
X161203000Y-58383000D01*
X161203000Y-58363000D01*
X161457000Y-58363000D01*
X161457000Y-58383000D01*
G04 #@! TD*
M02*
