G04 #@! TF.GenerationSoftware,KiCad,Pcbnew,5.0.2-bee76a0~70~ubuntu18.04.1*
G04 #@! TF.CreationDate,2019-05-07T17:56:58+05:30*
G04 #@! TF.ProjectId,motbox_with_promini,6d6f7462-6f78-45f7-9769-74685f70726f,rev?*
G04 #@! TF.SameCoordinates,Original*
G04 #@! TF.FileFunction,Profile,NP*
%FSLAX46Y46*%
G04 Gerber Fmt 4.6, Leading zero omitted, Abs format (unit mm)*
G04 Created by KiCad (PCBNEW 5.0.2-bee76a0~70~ubuntu18.04.1) date Tue May  7 17:56:58 2019*
%MOMM*%
%LPD*%
G01*
G04 APERTURE LIST*
%ADD10C,0.100000*%
%ADD11C,0.150000*%
G04 APERTURE END LIST*
D10*
X179900000Y-83900000D02*
X177800000Y-87900000D01*
X98000000Y-84000000D02*
X99900000Y-87900000D01*
X100000000Y-42900000D02*
X98000000Y-46700000D01*
X177800000Y-42900000D02*
X179900000Y-47000000D01*
X115400000Y-92900000D02*
X115400000Y-97900000D01*
X110400000Y-92900000D02*
X115400000Y-92900000D01*
X110400000Y-87900000D02*
X110400000Y-92900000D01*
X99900000Y-87900000D02*
X110400000Y-87900000D01*
X162400000Y-97900000D02*
X115400000Y-97900000D01*
X162400000Y-92900000D02*
X162400000Y-97900000D01*
X167400000Y-92900000D02*
X162400000Y-92900000D01*
D11*
X167400000Y-87900000D02*
X167400000Y-92900000D01*
X167400000Y-87900000D02*
X177800000Y-87900000D01*
D10*
X167400000Y-42900000D02*
X177800000Y-42900000D01*
X167400000Y-42600000D02*
X167400000Y-42900000D01*
X167400000Y-41800000D02*
X167400000Y-42600000D01*
X167400000Y-37900000D02*
X167400000Y-41800000D01*
X110400000Y-42900000D02*
X100000000Y-42900000D01*
X110400000Y-37900000D02*
X110400000Y-42900000D01*
X179900000Y-83900000D02*
X179900000Y-47000000D01*
X98000000Y-84000000D02*
X98000000Y-46700000D01*
X162400000Y-37900000D02*
X167400000Y-37900000D01*
X162400000Y-32900000D02*
X162400000Y-37900000D01*
X115400000Y-32900000D02*
X162400000Y-32900000D01*
X115400000Y-33000000D02*
X115400000Y-32900000D01*
X115400000Y-37900000D02*
X115400000Y-33000000D01*
X110400000Y-37900000D02*
X115400000Y-37900000D01*
X157900263Y-65400000D02*
G75*
G03X157900263Y-65400000I-19000263J0D01*
G01*
M02*
