M48
;DRILL file {KiCad 5.0.2-bee76a0~70~ubuntu18.04.1} date Tue May  7 17:59:13 2019
;FORMAT={-:-/ absolute / inch / decimal}
FMAT,2
INCH,TZ
T1C0.0157
T2C0.0197
T3C0.0315
T4C0.0374
T5C0.0394
T6C0.0400
T7C0.0630
T8C0.0866
%
G90
G05
T1
X4.2835Y-3.
X4.2835Y-3.0984
X4.2835Y-3.1929
X4.4016Y-3.
X4.4055Y-3.0984
X4.4055Y-3.1929
X4.4764Y-1.622
X4.5236Y-3.
X4.5236Y-3.1024
X4.5236Y-3.1969
X4.6654Y-1.7047
X4.9606Y-1.4803
X5.0394Y-1.815
X5.0787Y-3.4488
X5.2677Y-1.6024
X5.2835Y-3.4488
X5.3976Y-1.4961
X5.4677Y-1.5827
X5.5669Y-1.5354
X6.0512Y-1.5433
X6.122Y-1.7559
X6.2323Y-1.9016
X6.311Y-1.3701
X6.3583Y-1.7559
X6.4606Y-2.2047
X6.5118Y-1.5472
X6.5197Y-2.3031
X6.5906Y-2.5
X6.5906Y-2.7323
X6.7441Y-2.4803
X6.811Y-2.0551
X6.8583Y-1.7756
T2
X4.2244Y-2.4488
X4.2244Y-2.552
X4.6969Y-2.0748
X6.0472Y-1.7559
T3
X5.0677Y-1.4028
X5.0677Y-1.7028
X5.1677Y-1.4028
X5.1677Y-1.7028
X5.2677Y-1.4028
X5.2677Y-1.7028
X5.3677Y-1.4028
X5.3677Y-1.7028
X5.4677Y-1.4028
X5.4677Y-1.7028
X5.5677Y-1.4028
X5.5677Y-1.7028
X5.6677Y-1.4028
X5.6677Y-1.7028
X5.7677Y-1.4028
X5.7677Y-1.7028
T4
X4.7008Y-3.6811
X4.7992Y-3.6811
X4.8976Y-3.6811
X4.9961Y-3.6811
X5.248Y-3.6811
X5.3465Y-3.6811
X5.4449Y-3.6811
X5.5433Y-3.6811
T5
X5.7913Y-3.6811
X5.8898Y-3.6811
X6.1378Y-3.6811
X6.2362Y-3.6811
X4.0079Y-2.3189
X4.0079Y-2.4173
X4.8031Y-1.5354
X4.8031Y-1.6339
X6.7559Y-3.2992
X6.8559Y-3.2992
X6.9559Y-3.2992
T6
X6.9516Y-2.0035
X6.9516Y-2.1035
X6.9516Y-2.2035
X6.9516Y-2.3035
X6.9516Y-2.4035
X6.9516Y-2.5035
X6.9516Y-2.6035
X6.9516Y-2.7035
X6.9516Y-2.8035
X6.9516Y-2.9035
X6.9516Y-3.0035
X6.9516Y-3.1035
X6.8516Y-2.7535
X6.8516Y-2.8535
X6.3516Y-2.0035
X6.3516Y-2.1035
X6.3516Y-2.2035
X6.3516Y-2.3035
X6.3516Y-2.4035
X6.3516Y-2.5035
X6.3516Y-2.6035
X6.3516Y-2.7035
X6.3516Y-2.8035
X6.3516Y-2.9035
X6.3516Y-3.0035
X6.3516Y-3.1035
X6.4016Y-1.9035
X6.5016Y-1.9035
X6.6016Y-1.9035
X6.7016Y-1.9035
X6.8016Y-1.9035
X6.9016Y-1.9035
X6.8516Y-2.3535
X6.8516Y-2.4535
T7
X4.0354Y-2.6402
X4.0354Y-3.2402
T8
X4.8268Y-3.2441
X6.1457Y-3.2087
X4.8504Y-1.9016
T0
M30
