G04 #@! TF.GenerationSoftware,KiCad,Pcbnew,5.0.2-bee76a0~70~ubuntu18.04.1*
G04 #@! TF.CreationDate,2019-05-07T17:56:58+05:30*
G04 #@! TF.ProjectId,motbox_with_promini,6d6f7462-6f78-45f7-9769-74685f70726f,rev?*
G04 #@! TF.SameCoordinates,Original*
G04 #@! TF.FileFunction,Soldermask,Bot*
G04 #@! TF.FilePolarity,Negative*
%FSLAX46Y46*%
G04 Gerber Fmt 4.6, Leading zero omitted, Abs format (unit mm)*
G04 Created by KiCad (PCBNEW 5.0.2-bee76a0~70~ubuntu18.04.1) date Tue May  7 17:56:58 2019*
%MOMM*%
%LPD*%
G01*
G04 APERTURE LIST*
%ADD10C,0.100000*%
G04 APERTURE END LIST*
D10*
G36*
X158566629Y-92512299D02*
X158671230Y-92544030D01*
X158726854Y-92560903D01*
X158800172Y-92600093D01*
X158874524Y-92639834D01*
X159003949Y-92746051D01*
X159110169Y-92875480D01*
X159189097Y-93023145D01*
X159237701Y-93183370D01*
X159250000Y-93308248D01*
X159250000Y-93691751D01*
X159237701Y-93816624D01*
X159237700Y-93816627D01*
X159237700Y-93816628D01*
X159189097Y-93976855D01*
X159160707Y-94029968D01*
X159110169Y-94124520D01*
X159003949Y-94253949D01*
X158874520Y-94360169D01*
X158726855Y-94439097D01*
X158566630Y-94487701D01*
X158400000Y-94504112D01*
X158233371Y-94487701D01*
X158073146Y-94439097D01*
X157925481Y-94360169D01*
X157796052Y-94253949D01*
X157689831Y-94124520D01*
X157610903Y-93976855D01*
X157562299Y-93816630D01*
X157550000Y-93691752D01*
X157550000Y-93308249D01*
X157562299Y-93183371D01*
X157603318Y-93048151D01*
X157610903Y-93023146D01*
X157656747Y-92937378D01*
X157689834Y-92875476D01*
X157796051Y-92746051D01*
X157925480Y-92639831D01*
X158073145Y-92560903D01*
X158233370Y-92512299D01*
X158400000Y-92495888D01*
X158566629Y-92512299D01*
X158566629Y-92512299D01*
G37*
G36*
X149766629Y-92512299D02*
X149871230Y-92544030D01*
X149926854Y-92560903D01*
X150000172Y-92600093D01*
X150074524Y-92639834D01*
X150203949Y-92746051D01*
X150310169Y-92875480D01*
X150389097Y-93023145D01*
X150437701Y-93183370D01*
X150450000Y-93308248D01*
X150450000Y-93691751D01*
X150437701Y-93816624D01*
X150437700Y-93816627D01*
X150437700Y-93816628D01*
X150389097Y-93976855D01*
X150360707Y-94029968D01*
X150310169Y-94124520D01*
X150203949Y-94253949D01*
X150074520Y-94360169D01*
X149926855Y-94439097D01*
X149766630Y-94487701D01*
X149600000Y-94504112D01*
X149433371Y-94487701D01*
X149273146Y-94439097D01*
X149125481Y-94360169D01*
X148996052Y-94253949D01*
X148889831Y-94124520D01*
X148810903Y-93976855D01*
X148762299Y-93816630D01*
X148750000Y-93691752D01*
X148750000Y-93308249D01*
X148762299Y-93183371D01*
X148803318Y-93048151D01*
X148810903Y-93023146D01*
X148856747Y-92937378D01*
X148889834Y-92875476D01*
X148996051Y-92746051D01*
X149125480Y-92639831D01*
X149273145Y-92560903D01*
X149433370Y-92512299D01*
X149600000Y-92495888D01*
X149766629Y-92512299D01*
X149766629Y-92512299D01*
G37*
G36*
X156619675Y-92503701D02*
X156649907Y-92512872D01*
X156677769Y-92527765D01*
X156702192Y-92547808D01*
X156722235Y-92572231D01*
X156737128Y-92600093D01*
X156746299Y-92630325D01*
X156750000Y-92667905D01*
X156750000Y-94332095D01*
X156746299Y-94369675D01*
X156737128Y-94399907D01*
X156722235Y-94427769D01*
X156702192Y-94452192D01*
X156677769Y-94472235D01*
X156649907Y-94487128D01*
X156619675Y-94496299D01*
X156582095Y-94500000D01*
X155217905Y-94500000D01*
X155180325Y-94496299D01*
X155150093Y-94487128D01*
X155122231Y-94472235D01*
X155097808Y-94452192D01*
X155077765Y-94427769D01*
X155062872Y-94399907D01*
X155053701Y-94369675D01*
X155050000Y-94332095D01*
X155050000Y-92667905D01*
X155053701Y-92630325D01*
X155062872Y-92600093D01*
X155077765Y-92572231D01*
X155097808Y-92547808D01*
X155122231Y-92527765D01*
X155150093Y-92512872D01*
X155180325Y-92503701D01*
X155217905Y-92500000D01*
X156582095Y-92500000D01*
X156619675Y-92503701D01*
X156619675Y-92503701D01*
G37*
G36*
X147819675Y-92503701D02*
X147849907Y-92512872D01*
X147877769Y-92527765D01*
X147902192Y-92547808D01*
X147922235Y-92572231D01*
X147937128Y-92600093D01*
X147946299Y-92630325D01*
X147950000Y-92667905D01*
X147950000Y-94332095D01*
X147946299Y-94369675D01*
X147937128Y-94399907D01*
X147922235Y-94427769D01*
X147902192Y-94452192D01*
X147877769Y-94472235D01*
X147849907Y-94487128D01*
X147819675Y-94496299D01*
X147782095Y-94500000D01*
X146417905Y-94500000D01*
X146380325Y-94496299D01*
X146350093Y-94487128D01*
X146322231Y-94472235D01*
X146297808Y-94452192D01*
X146277765Y-94427769D01*
X146262872Y-94399907D01*
X146253701Y-94369675D01*
X146250000Y-94332095D01*
X146250000Y-92667905D01*
X146253701Y-92630325D01*
X146262872Y-92600093D01*
X146277765Y-92572231D01*
X146297808Y-92547808D01*
X146322231Y-92527765D01*
X146350093Y-92512872D01*
X146380325Y-92503701D01*
X146417905Y-92500000D01*
X147782095Y-92500000D01*
X147819675Y-92503701D01*
X147819675Y-92503701D01*
G37*
G36*
X140966629Y-92537299D02*
X141081363Y-92572104D01*
X141126854Y-92585903D01*
X141200172Y-92625093D01*
X141274524Y-92664834D01*
X141403949Y-92771051D01*
X141510169Y-92900480D01*
X141589097Y-93048145D01*
X141637701Y-93208370D01*
X141650000Y-93333248D01*
X141650000Y-93666751D01*
X141637701Y-93791624D01*
X141637700Y-93791627D01*
X141637700Y-93791628D01*
X141589097Y-93951855D01*
X141560707Y-94004968D01*
X141510169Y-94099520D01*
X141403949Y-94228949D01*
X141274520Y-94335169D01*
X141126855Y-94414097D01*
X140966630Y-94462701D01*
X140800000Y-94479112D01*
X140633371Y-94462701D01*
X140473146Y-94414097D01*
X140325484Y-94335170D01*
X140196048Y-94228946D01*
X140089831Y-94099520D01*
X140010903Y-93951855D01*
X139962299Y-93791630D01*
X139950000Y-93666752D01*
X139950000Y-93333249D01*
X139962299Y-93208371D01*
X139997104Y-93093637D01*
X140010903Y-93048146D01*
X140056747Y-92962378D01*
X140089834Y-92900476D01*
X140196051Y-92771051D01*
X140325480Y-92664831D01*
X140473145Y-92585903D01*
X140633370Y-92537299D01*
X140800000Y-92520888D01*
X140966629Y-92537299D01*
X140966629Y-92537299D01*
G37*
G36*
X138466629Y-92537299D02*
X138581363Y-92572104D01*
X138626854Y-92585903D01*
X138700172Y-92625093D01*
X138774524Y-92664834D01*
X138903949Y-92771051D01*
X139010169Y-92900480D01*
X139089097Y-93048145D01*
X139137701Y-93208370D01*
X139150000Y-93333248D01*
X139150000Y-93666751D01*
X139137701Y-93791624D01*
X139137700Y-93791627D01*
X139137700Y-93791628D01*
X139089097Y-93951855D01*
X139060707Y-94004968D01*
X139010169Y-94099520D01*
X138903949Y-94228949D01*
X138774520Y-94335169D01*
X138626855Y-94414097D01*
X138466630Y-94462701D01*
X138300000Y-94479112D01*
X138133371Y-94462701D01*
X137973146Y-94414097D01*
X137825484Y-94335170D01*
X137696048Y-94228946D01*
X137589831Y-94099520D01*
X137510903Y-93951855D01*
X137462299Y-93791630D01*
X137450000Y-93666752D01*
X137450000Y-93333249D01*
X137462299Y-93208371D01*
X137497104Y-93093637D01*
X137510903Y-93048146D01*
X137556747Y-92962378D01*
X137589834Y-92900476D01*
X137696051Y-92771051D01*
X137825480Y-92664831D01*
X137973145Y-92585903D01*
X138133370Y-92537299D01*
X138300000Y-92520888D01*
X138466629Y-92537299D01*
X138466629Y-92537299D01*
G37*
G36*
X135966629Y-92537299D02*
X136081363Y-92572104D01*
X136126854Y-92585903D01*
X136200172Y-92625093D01*
X136274524Y-92664834D01*
X136403949Y-92771051D01*
X136510169Y-92900480D01*
X136589097Y-93048145D01*
X136637701Y-93208370D01*
X136650000Y-93333248D01*
X136650000Y-93666751D01*
X136637701Y-93791624D01*
X136637700Y-93791627D01*
X136637700Y-93791628D01*
X136589097Y-93951855D01*
X136560707Y-94004968D01*
X136510169Y-94099520D01*
X136403949Y-94228949D01*
X136274520Y-94335169D01*
X136126855Y-94414097D01*
X135966630Y-94462701D01*
X135800000Y-94479112D01*
X135633371Y-94462701D01*
X135473146Y-94414097D01*
X135325484Y-94335170D01*
X135196048Y-94228946D01*
X135089831Y-94099520D01*
X135010903Y-93951855D01*
X134962299Y-93791630D01*
X134950000Y-93666752D01*
X134950000Y-93333249D01*
X134962299Y-93208371D01*
X134997104Y-93093637D01*
X135010903Y-93048146D01*
X135056747Y-92962378D01*
X135089834Y-92900476D01*
X135196051Y-92771051D01*
X135325480Y-92664831D01*
X135473145Y-92585903D01*
X135633370Y-92537299D01*
X135800000Y-92520888D01*
X135966629Y-92537299D01*
X135966629Y-92537299D01*
G37*
G36*
X127066629Y-92537299D02*
X127181363Y-92572104D01*
X127226854Y-92585903D01*
X127300172Y-92625093D01*
X127374524Y-92664834D01*
X127503949Y-92771051D01*
X127610169Y-92900480D01*
X127689097Y-93048145D01*
X127737701Y-93208370D01*
X127750000Y-93333248D01*
X127750000Y-93666751D01*
X127737701Y-93791624D01*
X127737700Y-93791627D01*
X127737700Y-93791628D01*
X127689097Y-93951855D01*
X127660707Y-94004968D01*
X127610169Y-94099520D01*
X127503949Y-94228949D01*
X127374520Y-94335169D01*
X127226855Y-94414097D01*
X127066630Y-94462701D01*
X126900000Y-94479112D01*
X126733371Y-94462701D01*
X126573146Y-94414097D01*
X126425484Y-94335170D01*
X126296048Y-94228946D01*
X126189831Y-94099520D01*
X126110903Y-93951855D01*
X126062299Y-93791630D01*
X126050000Y-93666752D01*
X126050000Y-93333249D01*
X126062299Y-93208371D01*
X126097104Y-93093637D01*
X126110903Y-93048146D01*
X126156747Y-92962378D01*
X126189834Y-92900476D01*
X126296051Y-92771051D01*
X126425480Y-92664831D01*
X126573145Y-92585903D01*
X126733370Y-92537299D01*
X126900000Y-92520888D01*
X127066629Y-92537299D01*
X127066629Y-92537299D01*
G37*
G36*
X124566629Y-92537299D02*
X124681363Y-92572104D01*
X124726854Y-92585903D01*
X124800172Y-92625093D01*
X124874524Y-92664834D01*
X125003949Y-92771051D01*
X125110169Y-92900480D01*
X125189097Y-93048145D01*
X125237701Y-93208370D01*
X125250000Y-93333248D01*
X125250000Y-93666751D01*
X125237701Y-93791624D01*
X125237700Y-93791627D01*
X125237700Y-93791628D01*
X125189097Y-93951855D01*
X125160707Y-94004968D01*
X125110169Y-94099520D01*
X125003949Y-94228949D01*
X124874520Y-94335169D01*
X124726855Y-94414097D01*
X124566630Y-94462701D01*
X124400000Y-94479112D01*
X124233371Y-94462701D01*
X124073146Y-94414097D01*
X123925484Y-94335170D01*
X123796048Y-94228946D01*
X123689831Y-94099520D01*
X123610903Y-93951855D01*
X123562299Y-93791630D01*
X123550000Y-93666752D01*
X123550000Y-93333249D01*
X123562299Y-93208371D01*
X123597104Y-93093637D01*
X123610903Y-93048146D01*
X123656747Y-92962378D01*
X123689834Y-92900476D01*
X123796051Y-92771051D01*
X123925480Y-92664831D01*
X124073145Y-92585903D01*
X124233370Y-92537299D01*
X124400000Y-92520888D01*
X124566629Y-92537299D01*
X124566629Y-92537299D01*
G37*
G36*
X122066629Y-92537299D02*
X122181363Y-92572104D01*
X122226854Y-92585903D01*
X122300172Y-92625093D01*
X122374524Y-92664834D01*
X122503949Y-92771051D01*
X122610169Y-92900480D01*
X122689097Y-93048145D01*
X122737701Y-93208370D01*
X122750000Y-93333248D01*
X122750000Y-93666751D01*
X122737701Y-93791624D01*
X122737700Y-93791627D01*
X122737700Y-93791628D01*
X122689097Y-93951855D01*
X122660707Y-94004968D01*
X122610169Y-94099520D01*
X122503949Y-94228949D01*
X122374520Y-94335169D01*
X122226855Y-94414097D01*
X122066630Y-94462701D01*
X121900000Y-94479112D01*
X121733371Y-94462701D01*
X121573146Y-94414097D01*
X121425484Y-94335170D01*
X121296048Y-94228946D01*
X121189831Y-94099520D01*
X121110903Y-93951855D01*
X121062299Y-93791630D01*
X121050000Y-93666752D01*
X121050000Y-93333249D01*
X121062299Y-93208371D01*
X121097104Y-93093637D01*
X121110903Y-93048146D01*
X121156747Y-92962378D01*
X121189834Y-92900476D01*
X121296051Y-92771051D01*
X121425480Y-92664831D01*
X121573145Y-92585903D01*
X121733370Y-92537299D01*
X121900000Y-92520888D01*
X122066629Y-92537299D01*
X122066629Y-92537299D01*
G37*
G36*
X134019675Y-92528701D02*
X134049907Y-92537872D01*
X134077769Y-92552765D01*
X134102192Y-92572808D01*
X134122235Y-92597231D01*
X134137128Y-92625093D01*
X134146299Y-92655325D01*
X134150000Y-92692905D01*
X134150000Y-94307095D01*
X134146299Y-94344675D01*
X134137128Y-94374907D01*
X134122235Y-94402769D01*
X134102192Y-94427192D01*
X134077769Y-94447235D01*
X134049907Y-94462128D01*
X134019675Y-94471299D01*
X133982095Y-94475000D01*
X132617905Y-94475000D01*
X132580325Y-94471299D01*
X132550093Y-94462128D01*
X132522231Y-94447235D01*
X132497808Y-94427192D01*
X132477765Y-94402769D01*
X132462872Y-94374907D01*
X132453701Y-94344675D01*
X132450000Y-94307095D01*
X132450000Y-92692905D01*
X132453701Y-92655325D01*
X132462872Y-92625093D01*
X132477765Y-92597231D01*
X132497808Y-92572808D01*
X132522231Y-92552765D01*
X132550093Y-92537872D01*
X132580325Y-92528701D01*
X132617905Y-92525000D01*
X133982095Y-92525000D01*
X134019675Y-92528701D01*
X134019675Y-92528701D01*
G37*
G36*
X120119675Y-92528701D02*
X120149907Y-92537872D01*
X120177769Y-92552765D01*
X120202192Y-92572808D01*
X120222235Y-92597231D01*
X120237128Y-92625093D01*
X120246299Y-92655325D01*
X120250000Y-92692905D01*
X120250000Y-94307095D01*
X120246299Y-94344675D01*
X120237128Y-94374907D01*
X120222235Y-94402769D01*
X120202192Y-94427192D01*
X120177769Y-94447235D01*
X120149907Y-94462128D01*
X120119675Y-94471299D01*
X120082095Y-94475000D01*
X118717905Y-94475000D01*
X118680325Y-94471299D01*
X118650093Y-94462128D01*
X118622231Y-94447235D01*
X118597808Y-94427192D01*
X118577765Y-94402769D01*
X118562872Y-94374907D01*
X118553701Y-94344675D01*
X118550000Y-94307095D01*
X118550000Y-92692905D01*
X118553701Y-92655325D01*
X118562872Y-92625093D01*
X118577765Y-92597231D01*
X118597808Y-92572808D01*
X118622231Y-92552765D01*
X118650093Y-92537872D01*
X118680325Y-92528701D01*
X118717905Y-92525000D01*
X120082095Y-92525000D01*
X120119675Y-92528701D01*
X120119675Y-92528701D01*
G37*
G36*
X176846630Y-82962299D02*
X177006855Y-83010903D01*
X177154520Y-83089831D01*
X177283949Y-83196051D01*
X177390169Y-83325480D01*
X177469097Y-83473145D01*
X177517701Y-83633370D01*
X177534112Y-83800000D01*
X177517701Y-83966630D01*
X177469097Y-84126855D01*
X177390169Y-84274520D01*
X177283949Y-84403949D01*
X177154520Y-84510169D01*
X177006855Y-84589097D01*
X176846630Y-84637701D01*
X176721752Y-84650000D01*
X176638248Y-84650000D01*
X176513370Y-84637701D01*
X176353145Y-84589097D01*
X176205480Y-84510169D01*
X176076051Y-84403949D01*
X175969831Y-84274520D01*
X175890903Y-84126855D01*
X175842299Y-83966630D01*
X175825888Y-83800000D01*
X175842299Y-83633370D01*
X175890903Y-83473145D01*
X175969831Y-83325480D01*
X176076051Y-83196051D01*
X176205480Y-83089831D01*
X176353145Y-83010903D01*
X176513370Y-82962299D01*
X176638248Y-82950000D01*
X176721752Y-82950000D01*
X176846630Y-82962299D01*
X176846630Y-82962299D01*
G37*
G36*
X172450000Y-84650000D02*
X170750000Y-84650000D01*
X170750000Y-82950000D01*
X172450000Y-82950000D01*
X172450000Y-84650000D01*
X172450000Y-84650000D01*
G37*
G36*
X174306630Y-82962299D02*
X174466855Y-83010903D01*
X174614520Y-83089831D01*
X174743949Y-83196051D01*
X174850169Y-83325480D01*
X174929097Y-83473145D01*
X174977701Y-83633370D01*
X174994112Y-83800000D01*
X174977701Y-83966630D01*
X174929097Y-84126855D01*
X174850169Y-84274520D01*
X174743949Y-84403949D01*
X174614520Y-84510169D01*
X174466855Y-84589097D01*
X174306630Y-84637701D01*
X174181752Y-84650000D01*
X174098248Y-84650000D01*
X173973370Y-84637701D01*
X173813145Y-84589097D01*
X173665480Y-84510169D01*
X173536051Y-84403949D01*
X173429831Y-84274520D01*
X173350903Y-84126855D01*
X173302299Y-83966630D01*
X173285888Y-83800000D01*
X173302299Y-83633370D01*
X173350903Y-83473145D01*
X173429831Y-83325480D01*
X173536051Y-83196051D01*
X173665480Y-83089831D01*
X173813145Y-83010903D01*
X173973370Y-82962299D01*
X174098248Y-82950000D01*
X174181752Y-82950000D01*
X174306630Y-82962299D01*
X174306630Y-82962299D01*
G37*
G36*
X123241716Y-80284544D02*
X123642090Y-80450384D01*
X124002421Y-80691150D01*
X124308850Y-80997579D01*
X124549616Y-81357910D01*
X124715456Y-81758284D01*
X124800000Y-82183317D01*
X124800000Y-82616683D01*
X124715456Y-83041716D01*
X124549616Y-83442090D01*
X124308850Y-83802421D01*
X124002421Y-84108850D01*
X123642090Y-84349616D01*
X123241716Y-84515456D01*
X122816683Y-84600000D01*
X122383317Y-84600000D01*
X121958284Y-84515456D01*
X121557910Y-84349616D01*
X121197579Y-84108850D01*
X120891150Y-83802421D01*
X120650384Y-83442090D01*
X120484544Y-83041716D01*
X120400000Y-82616683D01*
X120400000Y-82183317D01*
X120484544Y-81758284D01*
X120650384Y-81357910D01*
X120891150Y-80997579D01*
X121197579Y-80691150D01*
X121557910Y-80450384D01*
X121958284Y-80284544D01*
X122383317Y-80200000D01*
X122816683Y-80200000D01*
X123241716Y-80284544D01*
X123241716Y-80284544D01*
G37*
G36*
X104100000Y-83900000D02*
X100900000Y-83900000D01*
X100900000Y-80700000D01*
X104100000Y-80700000D01*
X104100000Y-83900000D01*
X104100000Y-83900000D01*
G37*
G36*
X156741716Y-79384544D02*
X157142090Y-79550384D01*
X157502421Y-79791150D01*
X157808850Y-80097579D01*
X158049616Y-80457910D01*
X158215456Y-80858284D01*
X158300000Y-81283317D01*
X158300000Y-81716683D01*
X158215456Y-82141716D01*
X158049616Y-82542090D01*
X157808850Y-82902421D01*
X157502421Y-83208850D01*
X157142090Y-83449616D01*
X156741716Y-83615456D01*
X156316683Y-83700000D01*
X155883317Y-83700000D01*
X155458284Y-83615456D01*
X155057910Y-83449616D01*
X154697579Y-83208850D01*
X154391150Y-82902421D01*
X154150384Y-82542090D01*
X153984544Y-82141716D01*
X153900000Y-81716683D01*
X153900000Y-81283317D01*
X153984544Y-80858284D01*
X154150384Y-80457910D01*
X154391150Y-80097579D01*
X154697579Y-79791150D01*
X155057910Y-79550384D01*
X155458284Y-79384544D01*
X155883317Y-79300000D01*
X156316683Y-79300000D01*
X156741716Y-79384544D01*
X156741716Y-79384544D01*
G37*
G36*
X161567112Y-77970565D02*
X161651695Y-77978896D01*
X161772127Y-78015429D01*
X161814488Y-78028279D01*
X161964512Y-78108468D01*
X162096012Y-78216388D01*
X162203932Y-78347888D01*
X162284121Y-78497912D01*
X162284122Y-78497916D01*
X162333504Y-78660705D01*
X162350178Y-78830000D01*
X162333504Y-78999295D01*
X162296971Y-79119727D01*
X162284121Y-79162088D01*
X162203932Y-79312112D01*
X162096012Y-79443612D01*
X161964512Y-79551532D01*
X161814488Y-79631721D01*
X161772127Y-79644571D01*
X161651695Y-79681104D01*
X161567112Y-79689435D01*
X161524821Y-79693600D01*
X161135179Y-79693600D01*
X161092888Y-79689435D01*
X161008305Y-79681104D01*
X160887873Y-79644571D01*
X160845512Y-79631721D01*
X160695488Y-79551532D01*
X160563988Y-79443612D01*
X160456068Y-79312112D01*
X160375879Y-79162088D01*
X160363029Y-79119727D01*
X160326496Y-78999295D01*
X160309822Y-78830000D01*
X160326496Y-78660705D01*
X160375878Y-78497916D01*
X160375879Y-78497912D01*
X160456068Y-78347888D01*
X160563988Y-78216388D01*
X160695488Y-78108468D01*
X160845512Y-78028279D01*
X160887873Y-78015429D01*
X161008305Y-77978896D01*
X161092888Y-77970565D01*
X161135179Y-77966400D01*
X161524821Y-77966400D01*
X161567112Y-77970565D01*
X161567112Y-77970565D01*
G37*
G36*
X176807112Y-77970565D02*
X176891695Y-77978896D01*
X177012127Y-78015429D01*
X177054488Y-78028279D01*
X177204512Y-78108468D01*
X177336012Y-78216388D01*
X177443932Y-78347888D01*
X177524121Y-78497912D01*
X177524122Y-78497916D01*
X177573504Y-78660705D01*
X177590178Y-78830000D01*
X177573504Y-78999295D01*
X177536971Y-79119727D01*
X177524121Y-79162088D01*
X177443932Y-79312112D01*
X177336012Y-79443612D01*
X177204512Y-79551532D01*
X177054488Y-79631721D01*
X177012127Y-79644571D01*
X176891695Y-79681104D01*
X176807112Y-79689435D01*
X176764821Y-79693600D01*
X176375179Y-79693600D01*
X176332888Y-79689435D01*
X176248305Y-79681104D01*
X176127873Y-79644571D01*
X176085512Y-79631721D01*
X175935488Y-79551532D01*
X175803988Y-79443612D01*
X175696068Y-79312112D01*
X175615879Y-79162088D01*
X175603029Y-79119727D01*
X175566496Y-78999295D01*
X175549822Y-78830000D01*
X175566496Y-78660705D01*
X175615878Y-78497916D01*
X175615879Y-78497912D01*
X175696068Y-78347888D01*
X175803988Y-78216388D01*
X175935488Y-78108468D01*
X176085512Y-78028279D01*
X176127873Y-78015429D01*
X176248305Y-77978896D01*
X176332888Y-77970565D01*
X176375179Y-77966400D01*
X176764821Y-77966400D01*
X176807112Y-77970565D01*
X176807112Y-77970565D01*
G37*
G36*
X176807112Y-75430565D02*
X176891695Y-75438896D01*
X177012127Y-75475429D01*
X177054488Y-75488279D01*
X177204512Y-75568468D01*
X177336012Y-75676388D01*
X177443932Y-75807888D01*
X177524121Y-75957912D01*
X177524122Y-75957916D01*
X177573504Y-76120705D01*
X177590178Y-76290000D01*
X177573504Y-76459295D01*
X177536971Y-76579727D01*
X177524121Y-76622088D01*
X177443932Y-76772112D01*
X177336012Y-76903612D01*
X177204512Y-77011532D01*
X177054488Y-77091721D01*
X177012127Y-77104571D01*
X176891695Y-77141104D01*
X176807112Y-77149435D01*
X176764821Y-77153600D01*
X176375179Y-77153600D01*
X176332888Y-77149435D01*
X176248305Y-77141104D01*
X176127873Y-77104571D01*
X176085512Y-77091721D01*
X175935488Y-77011532D01*
X175803988Y-76903612D01*
X175696068Y-76772112D01*
X175615879Y-76622088D01*
X175603029Y-76579727D01*
X175566496Y-76459295D01*
X175549822Y-76290000D01*
X175566496Y-76120705D01*
X175615878Y-75957916D01*
X175615879Y-75957912D01*
X175696068Y-75807888D01*
X175803988Y-75676388D01*
X175935488Y-75568468D01*
X176085512Y-75488279D01*
X176127873Y-75475429D01*
X176248305Y-75438896D01*
X176332888Y-75430565D01*
X176375179Y-75426400D01*
X176764821Y-75426400D01*
X176807112Y-75430565D01*
X176807112Y-75430565D01*
G37*
G36*
X161567112Y-75430565D02*
X161651695Y-75438896D01*
X161772127Y-75475429D01*
X161814488Y-75488279D01*
X161964512Y-75568468D01*
X162096012Y-75676388D01*
X162203932Y-75807888D01*
X162284121Y-75957912D01*
X162284122Y-75957916D01*
X162333504Y-76120705D01*
X162350178Y-76290000D01*
X162333504Y-76459295D01*
X162296971Y-76579727D01*
X162284121Y-76622088D01*
X162203932Y-76772112D01*
X162096012Y-76903612D01*
X161964512Y-77011532D01*
X161814488Y-77091721D01*
X161772127Y-77104571D01*
X161651695Y-77141104D01*
X161567112Y-77149435D01*
X161524821Y-77153600D01*
X161135179Y-77153600D01*
X161092888Y-77149435D01*
X161008305Y-77141104D01*
X160887873Y-77104571D01*
X160845512Y-77091721D01*
X160695488Y-77011532D01*
X160563988Y-76903612D01*
X160456068Y-76772112D01*
X160375879Y-76622088D01*
X160363029Y-76579727D01*
X160326496Y-76459295D01*
X160309822Y-76290000D01*
X160326496Y-76120705D01*
X160375878Y-75957916D01*
X160375879Y-75957912D01*
X160456068Y-75807888D01*
X160563988Y-75676388D01*
X160695488Y-75568468D01*
X160845512Y-75488279D01*
X160887873Y-75475429D01*
X161008305Y-75438896D01*
X161092888Y-75430565D01*
X161135179Y-75426400D01*
X161524821Y-75426400D01*
X161567112Y-75430565D01*
X161567112Y-75430565D01*
G37*
G36*
X161567112Y-72890565D02*
X161651695Y-72898896D01*
X161772127Y-72935429D01*
X161814488Y-72948279D01*
X161964512Y-73028468D01*
X162096012Y-73136388D01*
X162203932Y-73267888D01*
X162284121Y-73417912D01*
X162284122Y-73417916D01*
X162333504Y-73580705D01*
X162350178Y-73750000D01*
X162333504Y-73919295D01*
X162296971Y-74039727D01*
X162284121Y-74082088D01*
X162203932Y-74232112D01*
X162096012Y-74363612D01*
X161964512Y-74471532D01*
X161814488Y-74551721D01*
X161772127Y-74564571D01*
X161651695Y-74601104D01*
X161567112Y-74609435D01*
X161524821Y-74613600D01*
X161135179Y-74613600D01*
X161092888Y-74609435D01*
X161008305Y-74601104D01*
X160887873Y-74564571D01*
X160845512Y-74551721D01*
X160695488Y-74471532D01*
X160563988Y-74363612D01*
X160456068Y-74232112D01*
X160375879Y-74082088D01*
X160363029Y-74039727D01*
X160326496Y-73919295D01*
X160309822Y-73750000D01*
X160326496Y-73580705D01*
X160375878Y-73417916D01*
X160375879Y-73417912D01*
X160456068Y-73267888D01*
X160563988Y-73136388D01*
X160695488Y-73028468D01*
X160845512Y-72948279D01*
X160887873Y-72935429D01*
X161008305Y-72898896D01*
X161092888Y-72890565D01*
X161135179Y-72886400D01*
X161524821Y-72886400D01*
X161567112Y-72890565D01*
X161567112Y-72890565D01*
G37*
G36*
X176807112Y-72890565D02*
X176891695Y-72898896D01*
X177012127Y-72935429D01*
X177054488Y-72948279D01*
X177204512Y-73028468D01*
X177336012Y-73136388D01*
X177443932Y-73267888D01*
X177524121Y-73417912D01*
X177524122Y-73417916D01*
X177573504Y-73580705D01*
X177590178Y-73750000D01*
X177573504Y-73919295D01*
X177536971Y-74039727D01*
X177524121Y-74082088D01*
X177443932Y-74232112D01*
X177336012Y-74363612D01*
X177204512Y-74471532D01*
X177054488Y-74551721D01*
X177012127Y-74564571D01*
X176891695Y-74601104D01*
X176807112Y-74609435D01*
X176764821Y-74613600D01*
X176375179Y-74613600D01*
X176332888Y-74609435D01*
X176248305Y-74601104D01*
X176127873Y-74564571D01*
X176085512Y-74551721D01*
X175935488Y-74471532D01*
X175803988Y-74363612D01*
X175696068Y-74232112D01*
X175615879Y-74082088D01*
X175603029Y-74039727D01*
X175566496Y-73919295D01*
X175549822Y-73750000D01*
X175566496Y-73580705D01*
X175615878Y-73417916D01*
X175615879Y-73417912D01*
X175696068Y-73267888D01*
X175803988Y-73136388D01*
X175935488Y-73028468D01*
X176085512Y-72948279D01*
X176127873Y-72935429D01*
X176248305Y-72898896D01*
X176332888Y-72890565D01*
X176375179Y-72886400D01*
X176764821Y-72886400D01*
X176807112Y-72890565D01*
X176807112Y-72890565D01*
G37*
G36*
X174289312Y-71625164D02*
X174451098Y-71692178D01*
X174596707Y-71789471D01*
X174720529Y-71913293D01*
X174817822Y-72058902D01*
X174884836Y-72220688D01*
X174919000Y-72392441D01*
X174919000Y-72567559D01*
X174884836Y-72739312D01*
X174817822Y-72901098D01*
X174720529Y-73046707D01*
X174596707Y-73170529D01*
X174451098Y-73267822D01*
X174289312Y-73334836D01*
X174117559Y-73369000D01*
X173942441Y-73369000D01*
X173770688Y-73334836D01*
X173608902Y-73267822D01*
X173463293Y-73170529D01*
X173339471Y-73046707D01*
X173242178Y-72901098D01*
X173175164Y-72739312D01*
X173141000Y-72567559D01*
X173141000Y-72392441D01*
X173175164Y-72220688D01*
X173242178Y-72058902D01*
X173339471Y-71913293D01*
X173463293Y-71789471D01*
X173608902Y-71692178D01*
X173770688Y-71625164D01*
X173942441Y-71591000D01*
X174117559Y-71591000D01*
X174289312Y-71625164D01*
X174289312Y-71625164D01*
G37*
G36*
X161567112Y-70350565D02*
X161651695Y-70358896D01*
X161772127Y-70395429D01*
X161814488Y-70408279D01*
X161964512Y-70488468D01*
X162096012Y-70596388D01*
X162203932Y-70727888D01*
X162284121Y-70877912D01*
X162284122Y-70877916D01*
X162333504Y-71040705D01*
X162350178Y-71210000D01*
X162333504Y-71379295D01*
X162296971Y-71499727D01*
X162284121Y-71542088D01*
X162203932Y-71692112D01*
X162096012Y-71823612D01*
X161964512Y-71931532D01*
X161814488Y-72011721D01*
X161772127Y-72024571D01*
X161651695Y-72061104D01*
X161567112Y-72069435D01*
X161524821Y-72073600D01*
X161135179Y-72073600D01*
X161092888Y-72069435D01*
X161008305Y-72061104D01*
X160887873Y-72024571D01*
X160845512Y-72011721D01*
X160695488Y-71931532D01*
X160563988Y-71823612D01*
X160456068Y-71692112D01*
X160375879Y-71542088D01*
X160363029Y-71499727D01*
X160326496Y-71379295D01*
X160309822Y-71210000D01*
X160326496Y-71040705D01*
X160375878Y-70877916D01*
X160375879Y-70877912D01*
X160456068Y-70727888D01*
X160563988Y-70596388D01*
X160695488Y-70488468D01*
X160845512Y-70408279D01*
X160887873Y-70395429D01*
X161008305Y-70358896D01*
X161092888Y-70350565D01*
X161135179Y-70346400D01*
X161524821Y-70346400D01*
X161567112Y-70350565D01*
X161567112Y-70350565D01*
G37*
G36*
X176807112Y-70350565D02*
X176891695Y-70358896D01*
X177012127Y-70395429D01*
X177054488Y-70408279D01*
X177204512Y-70488468D01*
X177336012Y-70596388D01*
X177443932Y-70727888D01*
X177524121Y-70877912D01*
X177524122Y-70877916D01*
X177573504Y-71040705D01*
X177590178Y-71210000D01*
X177573504Y-71379295D01*
X177536971Y-71499727D01*
X177524121Y-71542088D01*
X177443932Y-71692112D01*
X177336012Y-71823612D01*
X177204512Y-71931532D01*
X177054488Y-72011721D01*
X177012127Y-72024571D01*
X176891695Y-72061104D01*
X176807112Y-72069435D01*
X176764821Y-72073600D01*
X176375179Y-72073600D01*
X176332888Y-72069435D01*
X176248305Y-72061104D01*
X176127873Y-72024571D01*
X176085512Y-72011721D01*
X175935488Y-71931532D01*
X175803988Y-71823612D01*
X175696068Y-71692112D01*
X175615879Y-71542088D01*
X175603029Y-71499727D01*
X175566496Y-71379295D01*
X175549822Y-71210000D01*
X175566496Y-71040705D01*
X175615878Y-70877916D01*
X175615879Y-70877912D01*
X175696068Y-70727888D01*
X175803988Y-70596388D01*
X175935488Y-70488468D01*
X176085512Y-70408279D01*
X176127873Y-70395429D01*
X176248305Y-70358896D01*
X176332888Y-70350565D01*
X176375179Y-70346400D01*
X176764821Y-70346400D01*
X176807112Y-70350565D01*
X176807112Y-70350565D01*
G37*
G36*
X174289312Y-69085164D02*
X174451098Y-69152178D01*
X174596707Y-69249471D01*
X174720529Y-69373293D01*
X174817822Y-69518902D01*
X174884836Y-69680688D01*
X174919000Y-69852441D01*
X174919000Y-70027559D01*
X174884836Y-70199312D01*
X174817822Y-70361098D01*
X174720529Y-70506707D01*
X174596707Y-70630529D01*
X174451098Y-70727822D01*
X174289312Y-70794836D01*
X174117559Y-70829000D01*
X173942441Y-70829000D01*
X173770688Y-70794836D01*
X173608902Y-70727822D01*
X173463293Y-70630529D01*
X173339471Y-70506707D01*
X173242178Y-70361098D01*
X173175164Y-70199312D01*
X173141000Y-70027559D01*
X173141000Y-69852441D01*
X173175164Y-69680688D01*
X173242178Y-69518902D01*
X173339471Y-69373293D01*
X173463293Y-69249471D01*
X173608902Y-69152178D01*
X173770688Y-69085164D01*
X173942441Y-69051000D01*
X174117559Y-69051000D01*
X174289312Y-69085164D01*
X174289312Y-69085164D01*
G37*
G36*
X161567112Y-67810565D02*
X161651695Y-67818896D01*
X161772127Y-67855429D01*
X161814488Y-67868279D01*
X161964512Y-67948468D01*
X162096012Y-68056388D01*
X162203932Y-68187888D01*
X162284121Y-68337912D01*
X162284122Y-68337916D01*
X162333504Y-68500705D01*
X162350178Y-68670000D01*
X162333504Y-68839295D01*
X162296971Y-68959727D01*
X162284121Y-69002088D01*
X162203932Y-69152112D01*
X162096012Y-69283612D01*
X161964512Y-69391532D01*
X161814488Y-69471721D01*
X161772127Y-69484571D01*
X161651695Y-69521104D01*
X161567112Y-69529435D01*
X161524821Y-69533600D01*
X161135179Y-69533600D01*
X161092888Y-69529435D01*
X161008305Y-69521104D01*
X160887873Y-69484571D01*
X160845512Y-69471721D01*
X160695488Y-69391532D01*
X160563988Y-69283612D01*
X160456068Y-69152112D01*
X160375879Y-69002088D01*
X160363029Y-68959727D01*
X160326496Y-68839295D01*
X160309822Y-68670000D01*
X160326496Y-68500705D01*
X160375878Y-68337916D01*
X160375879Y-68337912D01*
X160456068Y-68187888D01*
X160563988Y-68056388D01*
X160695488Y-67948468D01*
X160845512Y-67868279D01*
X160887873Y-67855429D01*
X161008305Y-67818896D01*
X161092888Y-67810565D01*
X161135179Y-67806400D01*
X161524821Y-67806400D01*
X161567112Y-67810565D01*
X161567112Y-67810565D01*
G37*
G36*
X176807112Y-67810565D02*
X176891695Y-67818896D01*
X177012127Y-67855429D01*
X177054488Y-67868279D01*
X177204512Y-67948468D01*
X177336012Y-68056388D01*
X177443932Y-68187888D01*
X177524121Y-68337912D01*
X177524122Y-68337916D01*
X177573504Y-68500705D01*
X177590178Y-68670000D01*
X177573504Y-68839295D01*
X177536971Y-68959727D01*
X177524121Y-69002088D01*
X177443932Y-69152112D01*
X177336012Y-69283612D01*
X177204512Y-69391532D01*
X177054488Y-69471721D01*
X177012127Y-69484571D01*
X176891695Y-69521104D01*
X176807112Y-69529435D01*
X176764821Y-69533600D01*
X176375179Y-69533600D01*
X176332888Y-69529435D01*
X176248305Y-69521104D01*
X176127873Y-69484571D01*
X176085512Y-69471721D01*
X175935488Y-69391532D01*
X175803988Y-69283612D01*
X175696068Y-69152112D01*
X175615879Y-69002088D01*
X175603029Y-68959727D01*
X175566496Y-68839295D01*
X175549822Y-68670000D01*
X175566496Y-68500705D01*
X175615878Y-68337916D01*
X175615879Y-68337912D01*
X175696068Y-68187888D01*
X175803988Y-68056388D01*
X175935488Y-67948468D01*
X176085512Y-67868279D01*
X176127873Y-67855429D01*
X176248305Y-67818896D01*
X176332888Y-67810565D01*
X176375179Y-67806400D01*
X176764821Y-67806400D01*
X176807112Y-67810565D01*
X176807112Y-67810565D01*
G37*
G36*
X102656950Y-65467717D02*
X102813655Y-65483151D01*
X103014722Y-65544144D01*
X103115257Y-65574641D01*
X103252292Y-65647888D01*
X103393213Y-65723212D01*
X103393215Y-65723213D01*
X103393214Y-65723213D01*
X103636845Y-65923155D01*
X103836787Y-66166786D01*
X103985359Y-66444743D01*
X104015856Y-66545278D01*
X104076849Y-66746345D01*
X104107741Y-67060000D01*
X104076849Y-67373655D01*
X104015856Y-67574722D01*
X103985359Y-67675257D01*
X103915261Y-67806400D01*
X103836788Y-67953213D01*
X103636845Y-68196845D01*
X103393213Y-68396788D01*
X103263828Y-68465946D01*
X103115257Y-68545359D01*
X103014722Y-68575856D01*
X102813655Y-68636849D01*
X102656950Y-68652283D01*
X102578598Y-68660000D01*
X102421402Y-68660000D01*
X102343050Y-68652283D01*
X102186345Y-68636849D01*
X101985278Y-68575856D01*
X101884743Y-68545359D01*
X101736172Y-68465946D01*
X101606787Y-68396788D01*
X101363155Y-68196845D01*
X101163212Y-67953213D01*
X101084739Y-67806400D01*
X101014641Y-67675257D01*
X100984144Y-67574722D01*
X100923151Y-67373655D01*
X100892259Y-67060000D01*
X100923151Y-66746345D01*
X100984144Y-66545278D01*
X101014641Y-66444743D01*
X101163213Y-66166786D01*
X101363155Y-65923155D01*
X101606786Y-65723213D01*
X101606785Y-65723213D01*
X101606787Y-65723212D01*
X101747708Y-65647888D01*
X101884743Y-65574641D01*
X101985278Y-65544144D01*
X102186345Y-65483151D01*
X102343050Y-65467717D01*
X102421402Y-65460000D01*
X102578598Y-65460000D01*
X102656950Y-65467717D01*
X102656950Y-65467717D01*
G37*
G36*
X176807112Y-65270565D02*
X176891695Y-65278896D01*
X177012127Y-65315429D01*
X177054488Y-65328279D01*
X177204512Y-65408468D01*
X177336012Y-65516388D01*
X177443932Y-65647888D01*
X177524121Y-65797912D01*
X177524122Y-65797916D01*
X177573504Y-65960705D01*
X177590178Y-66130000D01*
X177573504Y-66299295D01*
X177536971Y-66419727D01*
X177524121Y-66462088D01*
X177443932Y-66612112D01*
X177336012Y-66743612D01*
X177204512Y-66851532D01*
X177054488Y-66931721D01*
X177012127Y-66944571D01*
X176891695Y-66981104D01*
X176807112Y-66989435D01*
X176764821Y-66993600D01*
X176375179Y-66993600D01*
X176332888Y-66989435D01*
X176248305Y-66981104D01*
X176127873Y-66944571D01*
X176085512Y-66931721D01*
X175935488Y-66851532D01*
X175803988Y-66743612D01*
X175696068Y-66612112D01*
X175615879Y-66462088D01*
X175603029Y-66419727D01*
X175566496Y-66299295D01*
X175549822Y-66130000D01*
X175566496Y-65960705D01*
X175615878Y-65797916D01*
X175615879Y-65797912D01*
X175696068Y-65647888D01*
X175803988Y-65516388D01*
X175935488Y-65408468D01*
X176085512Y-65328279D01*
X176127873Y-65315429D01*
X176248305Y-65278896D01*
X176332888Y-65270565D01*
X176375179Y-65266400D01*
X176764821Y-65266400D01*
X176807112Y-65270565D01*
X176807112Y-65270565D01*
G37*
G36*
X161567112Y-65270565D02*
X161651695Y-65278896D01*
X161772127Y-65315429D01*
X161814488Y-65328279D01*
X161964512Y-65408468D01*
X162096012Y-65516388D01*
X162203932Y-65647888D01*
X162284121Y-65797912D01*
X162284122Y-65797916D01*
X162333504Y-65960705D01*
X162350178Y-66130000D01*
X162333504Y-66299295D01*
X162296971Y-66419727D01*
X162284121Y-66462088D01*
X162203932Y-66612112D01*
X162096012Y-66743612D01*
X161964512Y-66851532D01*
X161814488Y-66931721D01*
X161772127Y-66944571D01*
X161651695Y-66981104D01*
X161567112Y-66989435D01*
X161524821Y-66993600D01*
X161135179Y-66993600D01*
X161092888Y-66989435D01*
X161008305Y-66981104D01*
X160887873Y-66944571D01*
X160845512Y-66931721D01*
X160695488Y-66851532D01*
X160563988Y-66743612D01*
X160456068Y-66612112D01*
X160375879Y-66462088D01*
X160363029Y-66419727D01*
X160326496Y-66299295D01*
X160309822Y-66130000D01*
X160326496Y-65960705D01*
X160375878Y-65797916D01*
X160375879Y-65797912D01*
X160456068Y-65647888D01*
X160563988Y-65516388D01*
X160695488Y-65408468D01*
X160845512Y-65328279D01*
X160887873Y-65315429D01*
X161008305Y-65278896D01*
X161092888Y-65270565D01*
X161135179Y-65266400D01*
X161524821Y-65266400D01*
X161567112Y-65270565D01*
X161567112Y-65270565D01*
G37*
G36*
X161567112Y-62730565D02*
X161651695Y-62738896D01*
X161772127Y-62775429D01*
X161814488Y-62788279D01*
X161964512Y-62868468D01*
X162096012Y-62976388D01*
X162203932Y-63107888D01*
X162284121Y-63257912D01*
X162284122Y-63257916D01*
X162333504Y-63420705D01*
X162350178Y-63590000D01*
X162333504Y-63759295D01*
X162296971Y-63879727D01*
X162284121Y-63922088D01*
X162203932Y-64072112D01*
X162096012Y-64203612D01*
X161964512Y-64311532D01*
X161814488Y-64391721D01*
X161772127Y-64404571D01*
X161651695Y-64441104D01*
X161567112Y-64449435D01*
X161524821Y-64453600D01*
X161135179Y-64453600D01*
X161092888Y-64449435D01*
X161008305Y-64441104D01*
X160887873Y-64404571D01*
X160845512Y-64391721D01*
X160695488Y-64311532D01*
X160563988Y-64203612D01*
X160456068Y-64072112D01*
X160375879Y-63922088D01*
X160363029Y-63879727D01*
X160326496Y-63759295D01*
X160309822Y-63590000D01*
X160326496Y-63420705D01*
X160375878Y-63257916D01*
X160375879Y-63257912D01*
X160456068Y-63107888D01*
X160563988Y-62976388D01*
X160695488Y-62868468D01*
X160845512Y-62788279D01*
X160887873Y-62775429D01*
X161008305Y-62738896D01*
X161092888Y-62730565D01*
X161135179Y-62726400D01*
X161524821Y-62726400D01*
X161567112Y-62730565D01*
X161567112Y-62730565D01*
G37*
G36*
X176807112Y-62730565D02*
X176891695Y-62738896D01*
X177012127Y-62775429D01*
X177054488Y-62788279D01*
X177204512Y-62868468D01*
X177336012Y-62976388D01*
X177443932Y-63107888D01*
X177524121Y-63257912D01*
X177524122Y-63257916D01*
X177573504Y-63420705D01*
X177590178Y-63590000D01*
X177573504Y-63759295D01*
X177536971Y-63879727D01*
X177524121Y-63922088D01*
X177443932Y-64072112D01*
X177336012Y-64203612D01*
X177204512Y-64311532D01*
X177054488Y-64391721D01*
X177012127Y-64404571D01*
X176891695Y-64441104D01*
X176807112Y-64449435D01*
X176764821Y-64453600D01*
X176375179Y-64453600D01*
X176332888Y-64449435D01*
X176248305Y-64441104D01*
X176127873Y-64404571D01*
X176085512Y-64391721D01*
X175935488Y-64311532D01*
X175803988Y-64203612D01*
X175696068Y-64072112D01*
X175615879Y-63922088D01*
X175603029Y-63879727D01*
X175566496Y-63759295D01*
X175549822Y-63590000D01*
X175566496Y-63420705D01*
X175615878Y-63257916D01*
X175615879Y-63257912D01*
X175696068Y-63107888D01*
X175803988Y-62976388D01*
X175935488Y-62868468D01*
X176085512Y-62788279D01*
X176127873Y-62775429D01*
X176248305Y-62738896D01*
X176332888Y-62730565D01*
X176375179Y-62726400D01*
X176764821Y-62726400D01*
X176807112Y-62730565D01*
X176807112Y-62730565D01*
G37*
G36*
X174289312Y-61465164D02*
X174451098Y-61532178D01*
X174596707Y-61629471D01*
X174720529Y-61753293D01*
X174817822Y-61898902D01*
X174884836Y-62060688D01*
X174919000Y-62232441D01*
X174919000Y-62407559D01*
X174884836Y-62579312D01*
X174817822Y-62741098D01*
X174720529Y-62886707D01*
X174596707Y-63010529D01*
X174451098Y-63107822D01*
X174289312Y-63174836D01*
X174117559Y-63209000D01*
X173942441Y-63209000D01*
X173770688Y-63174836D01*
X173608902Y-63107822D01*
X173463293Y-63010529D01*
X173339471Y-62886707D01*
X173242178Y-62741098D01*
X173175164Y-62579312D01*
X173141000Y-62407559D01*
X173141000Y-62232441D01*
X173175164Y-62060688D01*
X173242178Y-61898902D01*
X173339471Y-61753293D01*
X173463293Y-61629471D01*
X173608902Y-61532178D01*
X173770688Y-61465164D01*
X173942441Y-61431000D01*
X174117559Y-61431000D01*
X174289312Y-61465164D01*
X174289312Y-61465164D01*
G37*
G36*
X102669675Y-60553701D02*
X102699907Y-60562872D01*
X102727769Y-60577765D01*
X102752192Y-60597808D01*
X102772235Y-60622231D01*
X102787128Y-60650093D01*
X102796299Y-60680325D01*
X102800000Y-60717905D01*
X102800000Y-62082095D01*
X102796299Y-62119675D01*
X102787128Y-62149907D01*
X102772235Y-62177769D01*
X102752192Y-62202192D01*
X102727769Y-62222235D01*
X102699907Y-62237128D01*
X102669675Y-62246299D01*
X102632095Y-62250000D01*
X100967905Y-62250000D01*
X100930325Y-62246299D01*
X100900093Y-62237128D01*
X100872231Y-62222235D01*
X100847808Y-62202192D01*
X100827765Y-62177769D01*
X100812872Y-62149907D01*
X100803701Y-62119675D01*
X100800000Y-62082095D01*
X100800000Y-60717905D01*
X100803701Y-60680325D01*
X100812872Y-60650093D01*
X100827765Y-60622231D01*
X100847808Y-60597808D01*
X100872231Y-60577765D01*
X100900093Y-60562872D01*
X100930325Y-60553701D01*
X100967905Y-60550000D01*
X102632095Y-60550000D01*
X102669675Y-60553701D01*
X102669675Y-60553701D01*
G37*
G36*
X176807112Y-60190565D02*
X176891695Y-60198896D01*
X177012127Y-60235429D01*
X177054488Y-60248279D01*
X177204512Y-60328468D01*
X177336012Y-60436388D01*
X177443932Y-60567888D01*
X177524121Y-60717912D01*
X177524122Y-60717916D01*
X177573504Y-60880705D01*
X177590178Y-61050000D01*
X177573504Y-61219295D01*
X177536971Y-61339727D01*
X177524121Y-61382088D01*
X177443932Y-61532112D01*
X177336012Y-61663612D01*
X177204512Y-61771532D01*
X177054488Y-61851721D01*
X177012127Y-61864571D01*
X176891695Y-61901104D01*
X176807112Y-61909435D01*
X176764821Y-61913600D01*
X176375179Y-61913600D01*
X176332888Y-61909435D01*
X176248305Y-61901104D01*
X176127873Y-61864571D01*
X176085512Y-61851721D01*
X175935488Y-61771532D01*
X175803988Y-61663612D01*
X175696068Y-61532112D01*
X175615879Y-61382088D01*
X175603029Y-61339727D01*
X175566496Y-61219295D01*
X175549822Y-61050000D01*
X175566496Y-60880705D01*
X175615878Y-60717916D01*
X175615879Y-60717912D01*
X175696068Y-60567888D01*
X175803988Y-60436388D01*
X175935488Y-60328468D01*
X176085512Y-60248279D01*
X176127873Y-60235429D01*
X176248305Y-60198896D01*
X176332888Y-60190565D01*
X176375179Y-60186400D01*
X176764821Y-60186400D01*
X176807112Y-60190565D01*
X176807112Y-60190565D01*
G37*
G36*
X161567112Y-60190565D02*
X161651695Y-60198896D01*
X161772127Y-60235429D01*
X161814488Y-60248279D01*
X161964512Y-60328468D01*
X162096012Y-60436388D01*
X162203932Y-60567888D01*
X162284121Y-60717912D01*
X162284122Y-60717916D01*
X162333504Y-60880705D01*
X162350178Y-61050000D01*
X162333504Y-61219295D01*
X162296971Y-61339727D01*
X162284121Y-61382088D01*
X162203932Y-61532112D01*
X162096012Y-61663612D01*
X161964512Y-61771532D01*
X161814488Y-61851721D01*
X161772127Y-61864571D01*
X161651695Y-61901104D01*
X161567112Y-61909435D01*
X161524821Y-61913600D01*
X161135179Y-61913600D01*
X161092888Y-61909435D01*
X161008305Y-61901104D01*
X160887873Y-61864571D01*
X160845512Y-61851721D01*
X160695488Y-61771532D01*
X160563988Y-61663612D01*
X160456068Y-61532112D01*
X160375879Y-61382088D01*
X160363029Y-61339727D01*
X160326496Y-61219295D01*
X160309822Y-61050000D01*
X160326496Y-60880705D01*
X160375878Y-60717916D01*
X160375879Y-60717912D01*
X160456068Y-60567888D01*
X160563988Y-60436388D01*
X160695488Y-60328468D01*
X160845512Y-60248279D01*
X160887873Y-60235429D01*
X161008305Y-60198896D01*
X161092888Y-60190565D01*
X161135179Y-60186400D01*
X161524821Y-60186400D01*
X161567112Y-60190565D01*
X161567112Y-60190565D01*
G37*
G36*
X174289312Y-58925164D02*
X174451098Y-58992178D01*
X174596707Y-59089471D01*
X174720529Y-59213293D01*
X174817822Y-59358902D01*
X174884836Y-59520688D01*
X174919000Y-59692441D01*
X174919000Y-59867559D01*
X174884836Y-60039312D01*
X174817822Y-60201098D01*
X174720529Y-60346707D01*
X174596707Y-60470529D01*
X174451098Y-60567822D01*
X174289312Y-60634836D01*
X174117559Y-60669000D01*
X173942441Y-60669000D01*
X173770688Y-60634836D01*
X173608902Y-60567822D01*
X173463293Y-60470529D01*
X173339471Y-60346707D01*
X173242178Y-60201098D01*
X173175164Y-60039312D01*
X173141000Y-59867559D01*
X173141000Y-59692441D01*
X173175164Y-59520688D01*
X173242178Y-59358902D01*
X173339471Y-59213293D01*
X173463293Y-59089471D01*
X173608902Y-58992178D01*
X173770688Y-58925164D01*
X173942441Y-58891000D01*
X174117559Y-58891000D01*
X174289312Y-58925164D01*
X174289312Y-58925164D01*
G37*
G36*
X102116630Y-58062299D02*
X102276855Y-58110903D01*
X102424520Y-58189831D01*
X102553949Y-58296051D01*
X102660169Y-58425480D01*
X102739097Y-58573145D01*
X102787701Y-58733370D01*
X102804112Y-58900000D01*
X102787701Y-59066630D01*
X102739097Y-59226855D01*
X102660169Y-59374520D01*
X102553949Y-59503949D01*
X102424520Y-59610169D01*
X102276855Y-59689097D01*
X102116630Y-59737701D01*
X101991752Y-59750000D01*
X101608248Y-59750000D01*
X101483370Y-59737701D01*
X101323145Y-59689097D01*
X101175480Y-59610169D01*
X101046051Y-59503949D01*
X100939831Y-59374520D01*
X100860903Y-59226855D01*
X100812299Y-59066630D01*
X100795888Y-58900000D01*
X100812299Y-58733370D01*
X100860903Y-58573145D01*
X100939831Y-58425480D01*
X101046051Y-58296051D01*
X101175480Y-58189831D01*
X101323145Y-58110903D01*
X101483370Y-58062299D01*
X101608248Y-58050000D01*
X101991752Y-58050000D01*
X102116630Y-58062299D01*
X102116630Y-58062299D01*
G37*
G36*
X176807112Y-57650565D02*
X176891695Y-57658896D01*
X177012127Y-57695429D01*
X177054488Y-57708279D01*
X177204512Y-57788468D01*
X177336012Y-57896388D01*
X177443932Y-58027888D01*
X177524121Y-58177912D01*
X177527737Y-58189832D01*
X177573504Y-58340705D01*
X177590178Y-58510000D01*
X177573504Y-58679295D01*
X177557100Y-58733370D01*
X177524121Y-58842088D01*
X177443932Y-58992112D01*
X177336012Y-59123612D01*
X177204512Y-59231532D01*
X177054488Y-59311721D01*
X177012127Y-59324571D01*
X176891695Y-59361104D01*
X176807112Y-59369435D01*
X176764821Y-59373600D01*
X176375179Y-59373600D01*
X176332888Y-59369435D01*
X176248305Y-59361104D01*
X176127873Y-59324571D01*
X176085512Y-59311721D01*
X175935488Y-59231532D01*
X175803988Y-59123612D01*
X175696068Y-58992112D01*
X175615879Y-58842088D01*
X175582900Y-58733370D01*
X175566496Y-58679295D01*
X175549822Y-58510000D01*
X175566496Y-58340705D01*
X175612263Y-58189832D01*
X175615879Y-58177912D01*
X175696068Y-58027888D01*
X175803988Y-57896388D01*
X175935488Y-57788468D01*
X176085512Y-57708279D01*
X176127873Y-57695429D01*
X176248305Y-57658896D01*
X176332888Y-57650565D01*
X176375179Y-57646400D01*
X176764821Y-57646400D01*
X176807112Y-57650565D01*
X176807112Y-57650565D01*
G37*
G36*
X161567112Y-57650565D02*
X161651695Y-57658896D01*
X161772127Y-57695429D01*
X161814488Y-57708279D01*
X161964512Y-57788468D01*
X162096012Y-57896388D01*
X162203932Y-58027888D01*
X162284121Y-58177912D01*
X162287737Y-58189832D01*
X162333504Y-58340705D01*
X162350178Y-58510000D01*
X162333504Y-58679295D01*
X162317100Y-58733370D01*
X162284121Y-58842088D01*
X162203932Y-58992112D01*
X162096012Y-59123612D01*
X161964512Y-59231532D01*
X161814488Y-59311721D01*
X161772127Y-59324571D01*
X161651695Y-59361104D01*
X161567112Y-59369435D01*
X161524821Y-59373600D01*
X161135179Y-59373600D01*
X161092888Y-59369435D01*
X161008305Y-59361104D01*
X160887873Y-59324571D01*
X160845512Y-59311721D01*
X160695488Y-59231532D01*
X160563988Y-59123612D01*
X160456068Y-58992112D01*
X160375879Y-58842088D01*
X160342900Y-58733370D01*
X160326496Y-58679295D01*
X160309822Y-58510000D01*
X160326496Y-58340705D01*
X160372263Y-58189832D01*
X160375879Y-58177912D01*
X160456068Y-58027888D01*
X160563988Y-57896388D01*
X160695488Y-57788468D01*
X160845512Y-57708279D01*
X160887873Y-57695429D01*
X161008305Y-57658896D01*
X161092888Y-57650565D01*
X161135179Y-57646400D01*
X161524821Y-57646400D01*
X161567112Y-57650565D01*
X161567112Y-57650565D01*
G37*
G36*
X161567112Y-55110565D02*
X161651695Y-55118896D01*
X161772127Y-55155429D01*
X161814488Y-55168279D01*
X161964512Y-55248468D01*
X162096012Y-55356388D01*
X162203932Y-55487888D01*
X162284121Y-55637912D01*
X162284122Y-55637916D01*
X162333504Y-55800705D01*
X162350178Y-55970000D01*
X162333504Y-56139295D01*
X162296971Y-56259727D01*
X162284121Y-56302088D01*
X162203932Y-56452112D01*
X162096012Y-56583612D01*
X161964512Y-56691532D01*
X161814488Y-56771721D01*
X161772127Y-56784571D01*
X161651695Y-56821104D01*
X161567112Y-56829435D01*
X161524821Y-56833600D01*
X161135179Y-56833600D01*
X161092888Y-56829435D01*
X161008305Y-56821104D01*
X160887873Y-56784571D01*
X160845512Y-56771721D01*
X160695488Y-56691532D01*
X160563988Y-56583612D01*
X160456068Y-56452112D01*
X160375879Y-56302088D01*
X160363029Y-56259727D01*
X160326496Y-56139295D01*
X160309822Y-55970000D01*
X160326496Y-55800705D01*
X160375878Y-55637916D01*
X160375879Y-55637912D01*
X160456068Y-55487888D01*
X160563988Y-55356388D01*
X160695488Y-55248468D01*
X160845512Y-55168279D01*
X160887873Y-55155429D01*
X161008305Y-55118896D01*
X161092888Y-55110565D01*
X161135179Y-55106400D01*
X161524821Y-55106400D01*
X161567112Y-55110565D01*
X161567112Y-55110565D01*
G37*
G36*
X176807112Y-55110565D02*
X176891695Y-55118896D01*
X177012127Y-55155429D01*
X177054488Y-55168279D01*
X177204512Y-55248468D01*
X177336012Y-55356388D01*
X177443932Y-55487888D01*
X177524121Y-55637912D01*
X177524122Y-55637916D01*
X177573504Y-55800705D01*
X177590178Y-55970000D01*
X177573504Y-56139295D01*
X177536971Y-56259727D01*
X177524121Y-56302088D01*
X177443932Y-56452112D01*
X177336012Y-56583612D01*
X177204512Y-56691532D01*
X177054488Y-56771721D01*
X177012127Y-56784571D01*
X176891695Y-56821104D01*
X176807112Y-56829435D01*
X176764821Y-56833600D01*
X176375179Y-56833600D01*
X176332888Y-56829435D01*
X176248305Y-56821104D01*
X176127873Y-56784571D01*
X176085512Y-56771721D01*
X175935488Y-56691532D01*
X175803988Y-56583612D01*
X175696068Y-56452112D01*
X175615879Y-56302088D01*
X175603029Y-56259727D01*
X175566496Y-56139295D01*
X175549822Y-55970000D01*
X175566496Y-55800705D01*
X175615878Y-55637916D01*
X175615879Y-55637912D01*
X175696068Y-55487888D01*
X175803988Y-55356388D01*
X175935488Y-55248468D01*
X176085512Y-55168279D01*
X176127873Y-55155429D01*
X176248305Y-55118896D01*
X176332888Y-55110565D01*
X176375179Y-55106400D01*
X176764821Y-55106400D01*
X176807112Y-55110565D01*
X176807112Y-55110565D01*
G37*
G36*
X161567112Y-52570565D02*
X161651695Y-52578896D01*
X161772127Y-52615429D01*
X161814488Y-52628279D01*
X161964512Y-52708468D01*
X162096012Y-52816388D01*
X162203932Y-52947888D01*
X162284121Y-53097912D01*
X162284122Y-53097916D01*
X162333504Y-53260705D01*
X162350178Y-53430000D01*
X162333504Y-53599295D01*
X162296971Y-53719727D01*
X162284121Y-53762088D01*
X162203932Y-53912112D01*
X162096012Y-54043612D01*
X161964512Y-54151532D01*
X161814488Y-54231721D01*
X161772127Y-54244571D01*
X161651695Y-54281104D01*
X161567112Y-54289435D01*
X161524821Y-54293600D01*
X161135179Y-54293600D01*
X161092888Y-54289435D01*
X161008305Y-54281104D01*
X160887873Y-54244571D01*
X160845512Y-54231721D01*
X160695488Y-54151532D01*
X160563988Y-54043612D01*
X160456068Y-53912112D01*
X160375879Y-53762088D01*
X160363029Y-53719727D01*
X160326496Y-53599295D01*
X160309822Y-53430000D01*
X160326496Y-53260705D01*
X160375878Y-53097916D01*
X160375879Y-53097912D01*
X160456068Y-52947888D01*
X160563988Y-52816388D01*
X160695488Y-52708468D01*
X160845512Y-52628279D01*
X160887873Y-52615429D01*
X161008305Y-52578896D01*
X161092888Y-52570565D01*
X161135179Y-52566400D01*
X161524821Y-52566400D01*
X161567112Y-52570565D01*
X161567112Y-52570565D01*
G37*
G36*
X176807112Y-52570565D02*
X176891695Y-52578896D01*
X177012127Y-52615429D01*
X177054488Y-52628279D01*
X177204512Y-52708468D01*
X177336012Y-52816388D01*
X177443932Y-52947888D01*
X177524121Y-53097912D01*
X177524122Y-53097916D01*
X177573504Y-53260705D01*
X177590178Y-53430000D01*
X177573504Y-53599295D01*
X177536971Y-53719727D01*
X177524121Y-53762088D01*
X177443932Y-53912112D01*
X177336012Y-54043612D01*
X177204512Y-54151532D01*
X177054488Y-54231721D01*
X177012127Y-54244571D01*
X176891695Y-54281104D01*
X176807112Y-54289435D01*
X176764821Y-54293600D01*
X176375179Y-54293600D01*
X176332888Y-54289435D01*
X176248305Y-54281104D01*
X176127873Y-54244571D01*
X176085512Y-54231721D01*
X175935488Y-54151532D01*
X175803988Y-54043612D01*
X175696068Y-53912112D01*
X175615879Y-53762088D01*
X175603029Y-53719727D01*
X175566496Y-53599295D01*
X175549822Y-53430000D01*
X175566496Y-53260705D01*
X175615878Y-53097916D01*
X175615879Y-53097912D01*
X175696068Y-52947888D01*
X175803988Y-52816388D01*
X175935488Y-52708468D01*
X176085512Y-52628279D01*
X176127873Y-52615429D01*
X176248305Y-52578896D01*
X176332888Y-52570565D01*
X176375179Y-52566400D01*
X176764821Y-52566400D01*
X176807112Y-52570565D01*
X176807112Y-52570565D01*
G37*
G36*
X161567112Y-50030565D02*
X161651695Y-50038896D01*
X161772127Y-50075429D01*
X161814488Y-50088279D01*
X161964512Y-50168468D01*
X162096012Y-50276388D01*
X162203932Y-50407888D01*
X162284121Y-50557912D01*
X162284122Y-50557916D01*
X162333504Y-50720705D01*
X162350178Y-50890000D01*
X162333504Y-51059295D01*
X162296971Y-51179727D01*
X162284121Y-51222088D01*
X162203932Y-51372112D01*
X162096012Y-51503612D01*
X161964512Y-51611532D01*
X161814488Y-51691721D01*
X161772127Y-51704571D01*
X161651695Y-51741104D01*
X161567112Y-51749435D01*
X161524821Y-51753600D01*
X161135179Y-51753600D01*
X161092888Y-51749435D01*
X161008305Y-51741104D01*
X160887873Y-51704571D01*
X160845512Y-51691721D01*
X160695488Y-51611532D01*
X160563988Y-51503612D01*
X160456068Y-51372112D01*
X160375879Y-51222088D01*
X160363029Y-51179727D01*
X160326496Y-51059295D01*
X160309822Y-50890000D01*
X160326496Y-50720705D01*
X160375878Y-50557916D01*
X160375879Y-50557912D01*
X160456068Y-50407888D01*
X160563988Y-50276388D01*
X160695488Y-50168468D01*
X160845512Y-50088279D01*
X160887873Y-50075429D01*
X161008305Y-50038896D01*
X161092888Y-50030565D01*
X161135179Y-50026400D01*
X161524821Y-50026400D01*
X161567112Y-50030565D01*
X161567112Y-50030565D01*
G37*
G36*
X176807112Y-50030565D02*
X176891695Y-50038896D01*
X177012127Y-50075429D01*
X177054488Y-50088279D01*
X177204512Y-50168468D01*
X177336012Y-50276388D01*
X177443932Y-50407888D01*
X177524121Y-50557912D01*
X177524122Y-50557916D01*
X177573504Y-50720705D01*
X177590178Y-50890000D01*
X177573504Y-51059295D01*
X177536971Y-51179727D01*
X177524121Y-51222088D01*
X177443932Y-51372112D01*
X177336012Y-51503612D01*
X177204512Y-51611532D01*
X177054488Y-51691721D01*
X177012127Y-51704571D01*
X176891695Y-51741104D01*
X176807112Y-51749435D01*
X176764821Y-51753600D01*
X176375179Y-51753600D01*
X176332888Y-51749435D01*
X176248305Y-51741104D01*
X176127873Y-51704571D01*
X176085512Y-51691721D01*
X175935488Y-51611532D01*
X175803988Y-51503612D01*
X175696068Y-51372112D01*
X175615879Y-51222088D01*
X175603029Y-51179727D01*
X175566496Y-51059295D01*
X175549822Y-50890000D01*
X175566496Y-50720705D01*
X175615878Y-50557916D01*
X175615879Y-50557912D01*
X175696068Y-50407888D01*
X175803988Y-50276388D01*
X175935488Y-50168468D01*
X176085512Y-50088279D01*
X176127873Y-50075429D01*
X176248305Y-50038896D01*
X176332888Y-50030565D01*
X176375179Y-50026400D01*
X176764821Y-50026400D01*
X176807112Y-50030565D01*
X176807112Y-50030565D01*
G37*
G36*
X123841716Y-46184544D02*
X124242090Y-46350384D01*
X124602421Y-46591150D01*
X124908850Y-46897579D01*
X125149616Y-47257910D01*
X125315456Y-47658284D01*
X125400000Y-48083317D01*
X125400000Y-48516683D01*
X125315456Y-48941716D01*
X125149616Y-49342090D01*
X124908850Y-49702421D01*
X124602421Y-50008850D01*
X124242090Y-50249616D01*
X123841716Y-50415456D01*
X123416683Y-50500000D01*
X122983317Y-50500000D01*
X122558284Y-50415456D01*
X122157910Y-50249616D01*
X121797579Y-50008850D01*
X121491150Y-49702421D01*
X121250384Y-49342090D01*
X121084544Y-48941716D01*
X121000000Y-48516683D01*
X121000000Y-48083317D01*
X121084544Y-47658284D01*
X121250384Y-47257910D01*
X121491150Y-46897579D01*
X121797579Y-46591150D01*
X122157910Y-46350384D01*
X122558284Y-46184544D01*
X122983317Y-46100000D01*
X123416683Y-46100000D01*
X123841716Y-46184544D01*
X123841716Y-46184544D01*
G37*
G36*
X175469294Y-47346496D02*
X175589726Y-47383029D01*
X175632087Y-47395879D01*
X175782112Y-47476068D01*
X175913612Y-47583988D01*
X176021532Y-47715488D01*
X176101721Y-47865512D01*
X176114571Y-47907873D01*
X176151104Y-48028305D01*
X176163600Y-48155180D01*
X176163600Y-48544819D01*
X176151104Y-48671694D01*
X176114571Y-48792128D01*
X176101721Y-48834488D01*
X176021532Y-48984512D01*
X175913612Y-49116012D01*
X175782112Y-49223932D01*
X175632088Y-49304121D01*
X175589727Y-49316971D01*
X175469295Y-49353504D01*
X175356432Y-49364620D01*
X175300001Y-49370178D01*
X175300000Y-49370178D01*
X175130706Y-49353504D01*
X175010274Y-49316971D01*
X174967913Y-49304121D01*
X174817889Y-49223932D01*
X174727946Y-49150117D01*
X174686388Y-49116012D01*
X174578469Y-48984512D01*
X174555594Y-48941716D01*
X174498279Y-48834488D01*
X174485429Y-48792127D01*
X174448896Y-48671695D01*
X174436400Y-48544820D01*
X174436400Y-48155181D01*
X174448896Y-48028306D01*
X174498278Y-47865517D01*
X174498279Y-47865513D01*
X174578468Y-47715488D01*
X174686388Y-47583988D01*
X174817888Y-47476068D01*
X174967912Y-47395879D01*
X175010273Y-47383029D01*
X175130705Y-47346496D01*
X175243568Y-47335380D01*
X175299999Y-47329822D01*
X175300000Y-47329822D01*
X175469294Y-47346496D01*
X175469294Y-47346496D01*
G37*
G36*
X172929294Y-47346496D02*
X173049726Y-47383029D01*
X173092087Y-47395879D01*
X173242112Y-47476068D01*
X173373612Y-47583988D01*
X173481532Y-47715488D01*
X173561721Y-47865512D01*
X173574571Y-47907873D01*
X173611104Y-48028305D01*
X173623600Y-48155180D01*
X173623600Y-48544819D01*
X173611104Y-48671694D01*
X173574571Y-48792128D01*
X173561721Y-48834488D01*
X173481532Y-48984512D01*
X173373612Y-49116012D01*
X173242112Y-49223932D01*
X173092088Y-49304121D01*
X173049727Y-49316971D01*
X172929295Y-49353504D01*
X172816432Y-49364620D01*
X172760001Y-49370178D01*
X172760000Y-49370178D01*
X172590706Y-49353504D01*
X172470274Y-49316971D01*
X172427913Y-49304121D01*
X172277889Y-49223932D01*
X172187946Y-49150117D01*
X172146388Y-49116012D01*
X172038469Y-48984512D01*
X172015594Y-48941716D01*
X171958279Y-48834488D01*
X171945429Y-48792127D01*
X171908896Y-48671695D01*
X171896400Y-48544820D01*
X171896400Y-48155181D01*
X171908896Y-48028306D01*
X171958278Y-47865517D01*
X171958279Y-47865513D01*
X172038468Y-47715488D01*
X172146388Y-47583988D01*
X172277888Y-47476068D01*
X172427912Y-47395879D01*
X172470273Y-47383029D01*
X172590705Y-47346496D01*
X172703568Y-47335380D01*
X172759999Y-47329822D01*
X172760000Y-47329822D01*
X172929294Y-47346496D01*
X172929294Y-47346496D01*
G37*
G36*
X170389294Y-47346496D02*
X170509726Y-47383029D01*
X170552087Y-47395879D01*
X170702112Y-47476068D01*
X170833612Y-47583988D01*
X170941532Y-47715488D01*
X171021721Y-47865512D01*
X171034571Y-47907873D01*
X171071104Y-48028305D01*
X171083600Y-48155180D01*
X171083600Y-48544819D01*
X171071104Y-48671694D01*
X171034571Y-48792128D01*
X171021721Y-48834488D01*
X170941532Y-48984512D01*
X170833612Y-49116012D01*
X170702112Y-49223932D01*
X170552088Y-49304121D01*
X170509727Y-49316971D01*
X170389295Y-49353504D01*
X170276432Y-49364620D01*
X170220001Y-49370178D01*
X170220000Y-49370178D01*
X170050706Y-49353504D01*
X169930274Y-49316971D01*
X169887913Y-49304121D01*
X169737889Y-49223932D01*
X169647946Y-49150117D01*
X169606388Y-49116012D01*
X169498469Y-48984512D01*
X169475594Y-48941716D01*
X169418279Y-48834488D01*
X169405429Y-48792127D01*
X169368896Y-48671695D01*
X169356400Y-48544820D01*
X169356400Y-48155181D01*
X169368896Y-48028306D01*
X169418278Y-47865517D01*
X169418279Y-47865513D01*
X169498468Y-47715488D01*
X169606388Y-47583988D01*
X169737888Y-47476068D01*
X169887912Y-47395879D01*
X169930273Y-47383029D01*
X170050705Y-47346496D01*
X170163568Y-47335380D01*
X170219999Y-47329822D01*
X170220000Y-47329822D01*
X170389294Y-47346496D01*
X170389294Y-47346496D01*
G37*
G36*
X167849294Y-47346496D02*
X167969726Y-47383029D01*
X168012087Y-47395879D01*
X168162112Y-47476068D01*
X168293612Y-47583988D01*
X168401532Y-47715488D01*
X168481721Y-47865512D01*
X168494571Y-47907873D01*
X168531104Y-48028305D01*
X168543600Y-48155180D01*
X168543600Y-48544819D01*
X168531104Y-48671694D01*
X168494571Y-48792128D01*
X168481721Y-48834488D01*
X168401532Y-48984512D01*
X168293612Y-49116012D01*
X168162112Y-49223932D01*
X168012088Y-49304121D01*
X167969727Y-49316971D01*
X167849295Y-49353504D01*
X167736432Y-49364620D01*
X167680001Y-49370178D01*
X167680000Y-49370178D01*
X167510706Y-49353504D01*
X167390274Y-49316971D01*
X167347913Y-49304121D01*
X167197889Y-49223932D01*
X167107946Y-49150117D01*
X167066388Y-49116012D01*
X166958469Y-48984512D01*
X166935594Y-48941716D01*
X166878279Y-48834488D01*
X166865429Y-48792127D01*
X166828896Y-48671695D01*
X166816400Y-48544820D01*
X166816400Y-48155181D01*
X166828896Y-48028306D01*
X166878278Y-47865517D01*
X166878279Y-47865513D01*
X166958468Y-47715488D01*
X167066388Y-47583988D01*
X167197888Y-47476068D01*
X167347912Y-47395879D01*
X167390273Y-47383029D01*
X167510705Y-47346496D01*
X167623568Y-47335380D01*
X167679999Y-47329822D01*
X167680000Y-47329822D01*
X167849294Y-47346496D01*
X167849294Y-47346496D01*
G37*
G36*
X165309294Y-47346496D02*
X165429726Y-47383029D01*
X165472087Y-47395879D01*
X165622112Y-47476068D01*
X165753612Y-47583988D01*
X165861532Y-47715488D01*
X165941721Y-47865512D01*
X165954571Y-47907873D01*
X165991104Y-48028305D01*
X166003600Y-48155180D01*
X166003600Y-48544819D01*
X165991104Y-48671694D01*
X165954571Y-48792128D01*
X165941721Y-48834488D01*
X165861532Y-48984512D01*
X165753612Y-49116012D01*
X165622112Y-49223932D01*
X165472088Y-49304121D01*
X165429727Y-49316971D01*
X165309295Y-49353504D01*
X165196432Y-49364620D01*
X165140001Y-49370178D01*
X165140000Y-49370178D01*
X164970706Y-49353504D01*
X164850274Y-49316971D01*
X164807913Y-49304121D01*
X164657889Y-49223932D01*
X164567946Y-49150117D01*
X164526388Y-49116012D01*
X164418469Y-48984512D01*
X164395594Y-48941716D01*
X164338279Y-48834488D01*
X164325429Y-48792127D01*
X164288896Y-48671695D01*
X164276400Y-48544820D01*
X164276400Y-48155181D01*
X164288896Y-48028306D01*
X164338278Y-47865517D01*
X164338279Y-47865513D01*
X164418468Y-47715488D01*
X164526388Y-47583988D01*
X164657888Y-47476068D01*
X164807912Y-47395879D01*
X164850273Y-47383029D01*
X164970705Y-47346496D01*
X165083568Y-47335380D01*
X165139999Y-47329822D01*
X165140000Y-47329822D01*
X165309294Y-47346496D01*
X165309294Y-47346496D01*
G37*
G36*
X162769294Y-47346496D02*
X162889726Y-47383029D01*
X162932087Y-47395879D01*
X163082112Y-47476068D01*
X163213612Y-47583988D01*
X163321532Y-47715488D01*
X163401721Y-47865512D01*
X163414571Y-47907873D01*
X163451104Y-48028305D01*
X163463600Y-48155180D01*
X163463600Y-48544819D01*
X163451104Y-48671694D01*
X163414571Y-48792128D01*
X163401721Y-48834488D01*
X163321532Y-48984512D01*
X163213612Y-49116012D01*
X163082112Y-49223932D01*
X162932088Y-49304121D01*
X162889727Y-49316971D01*
X162769295Y-49353504D01*
X162656432Y-49364620D01*
X162600001Y-49370178D01*
X162600000Y-49370178D01*
X162430706Y-49353504D01*
X162310274Y-49316971D01*
X162267913Y-49304121D01*
X162117889Y-49223932D01*
X162027946Y-49150117D01*
X161986388Y-49116012D01*
X161878469Y-48984512D01*
X161855594Y-48941716D01*
X161798279Y-48834488D01*
X161785429Y-48792127D01*
X161748896Y-48671695D01*
X161736400Y-48544820D01*
X161736400Y-48155181D01*
X161748896Y-48028306D01*
X161798278Y-47865517D01*
X161798279Y-47865513D01*
X161878468Y-47715488D01*
X161986388Y-47583988D01*
X162117888Y-47476068D01*
X162267912Y-47395879D01*
X162310273Y-47383029D01*
X162430705Y-47346496D01*
X162543568Y-47335380D01*
X162599999Y-47329822D01*
X162600000Y-47329822D01*
X162769294Y-47346496D01*
X162769294Y-47346496D01*
G37*
G36*
X136457649Y-42457717D02*
X136496827Y-42461576D01*
X136572227Y-42484448D01*
X136647629Y-42507321D01*
X136786608Y-42581608D01*
X136908422Y-42681578D01*
X137008392Y-42803392D01*
X137082679Y-42942371D01*
X137128424Y-43093174D01*
X137143870Y-43250000D01*
X137128424Y-43406826D01*
X137082679Y-43557629D01*
X137008392Y-43696608D01*
X136908422Y-43818422D01*
X136786608Y-43918392D01*
X136647629Y-43992679D01*
X136572227Y-44015552D01*
X136496827Y-44038424D01*
X136457649Y-44042283D01*
X136379295Y-44050000D01*
X136300705Y-44050000D01*
X136222351Y-44042283D01*
X136183173Y-44038424D01*
X136107773Y-44015552D01*
X136032371Y-43992679D01*
X135893392Y-43918392D01*
X135771578Y-43818422D01*
X135671608Y-43696608D01*
X135597321Y-43557629D01*
X135551576Y-43406826D01*
X135536130Y-43250000D01*
X135551576Y-43093174D01*
X135597321Y-42942371D01*
X135671608Y-42803392D01*
X135771578Y-42681578D01*
X135893392Y-42581608D01*
X136032371Y-42507321D01*
X136107773Y-42484448D01*
X136183173Y-42461576D01*
X136222351Y-42457717D01*
X136300705Y-42450000D01*
X136379295Y-42450000D01*
X136457649Y-42457717D01*
X136457649Y-42457717D01*
G37*
G36*
X129520000Y-44050000D02*
X127920000Y-44050000D01*
X127920000Y-42450000D01*
X129520000Y-42450000D01*
X129520000Y-44050000D01*
X129520000Y-44050000D01*
G37*
G36*
X138997649Y-42457717D02*
X139036827Y-42461576D01*
X139112227Y-42484448D01*
X139187629Y-42507321D01*
X139326608Y-42581608D01*
X139448422Y-42681578D01*
X139548392Y-42803392D01*
X139622679Y-42942371D01*
X139668424Y-43093174D01*
X139683870Y-43250000D01*
X139668424Y-43406826D01*
X139622679Y-43557629D01*
X139548392Y-43696608D01*
X139448422Y-43818422D01*
X139326608Y-43918392D01*
X139187629Y-43992679D01*
X139112227Y-44015552D01*
X139036827Y-44038424D01*
X138997649Y-44042283D01*
X138919295Y-44050000D01*
X138840705Y-44050000D01*
X138762351Y-44042283D01*
X138723173Y-44038424D01*
X138647773Y-44015552D01*
X138572371Y-43992679D01*
X138433392Y-43918392D01*
X138311578Y-43818422D01*
X138211608Y-43696608D01*
X138137321Y-43557629D01*
X138091576Y-43406826D01*
X138076130Y-43250000D01*
X138091576Y-43093174D01*
X138137321Y-42942371D01*
X138211608Y-42803392D01*
X138311578Y-42681578D01*
X138433392Y-42581608D01*
X138572371Y-42507321D01*
X138647773Y-42484448D01*
X138723173Y-42461576D01*
X138762351Y-42457717D01*
X138840705Y-42450000D01*
X138919295Y-42450000D01*
X138997649Y-42457717D01*
X138997649Y-42457717D01*
G37*
G36*
X133917649Y-42457717D02*
X133956827Y-42461576D01*
X134032227Y-42484448D01*
X134107629Y-42507321D01*
X134246608Y-42581608D01*
X134368422Y-42681578D01*
X134468392Y-42803392D01*
X134542679Y-42942371D01*
X134588424Y-43093174D01*
X134603870Y-43250000D01*
X134588424Y-43406826D01*
X134542679Y-43557629D01*
X134468392Y-43696608D01*
X134368422Y-43818422D01*
X134246608Y-43918392D01*
X134107629Y-43992679D01*
X134032227Y-44015552D01*
X133956827Y-44038424D01*
X133917649Y-44042283D01*
X133839295Y-44050000D01*
X133760705Y-44050000D01*
X133682351Y-44042283D01*
X133643173Y-44038424D01*
X133567773Y-44015552D01*
X133492371Y-43992679D01*
X133353392Y-43918392D01*
X133231578Y-43818422D01*
X133131608Y-43696608D01*
X133057321Y-43557629D01*
X133011576Y-43406826D01*
X132996130Y-43250000D01*
X133011576Y-43093174D01*
X133057321Y-42942371D01*
X133131608Y-42803392D01*
X133231578Y-42681578D01*
X133353392Y-42581608D01*
X133492371Y-42507321D01*
X133567773Y-42484448D01*
X133643173Y-42461576D01*
X133682351Y-42457717D01*
X133760705Y-42450000D01*
X133839295Y-42450000D01*
X133917649Y-42457717D01*
X133917649Y-42457717D01*
G37*
G36*
X131377649Y-42457717D02*
X131416827Y-42461576D01*
X131492227Y-42484448D01*
X131567629Y-42507321D01*
X131706608Y-42581608D01*
X131828422Y-42681578D01*
X131928392Y-42803392D01*
X132002679Y-42942371D01*
X132048424Y-43093174D01*
X132063870Y-43250000D01*
X132048424Y-43406826D01*
X132002679Y-43557629D01*
X131928392Y-43696608D01*
X131828422Y-43818422D01*
X131706608Y-43918392D01*
X131567629Y-43992679D01*
X131492227Y-44015552D01*
X131416827Y-44038424D01*
X131377649Y-44042283D01*
X131299295Y-44050000D01*
X131220705Y-44050000D01*
X131142351Y-44042283D01*
X131103173Y-44038424D01*
X131027773Y-44015552D01*
X130952371Y-43992679D01*
X130813392Y-43918392D01*
X130691578Y-43818422D01*
X130591608Y-43696608D01*
X130517321Y-43557629D01*
X130471576Y-43406826D01*
X130456130Y-43250000D01*
X130471576Y-43093174D01*
X130517321Y-42942371D01*
X130591608Y-42803392D01*
X130691578Y-42681578D01*
X130813392Y-42581608D01*
X130952371Y-42507321D01*
X131027773Y-42484448D01*
X131103173Y-42461576D01*
X131142351Y-42457717D01*
X131220705Y-42450000D01*
X131299295Y-42450000D01*
X131377649Y-42457717D01*
X131377649Y-42457717D01*
G37*
G36*
X141537649Y-42457717D02*
X141576827Y-42461576D01*
X141652227Y-42484448D01*
X141727629Y-42507321D01*
X141866608Y-42581608D01*
X141988422Y-42681578D01*
X142088392Y-42803392D01*
X142162679Y-42942371D01*
X142208424Y-43093174D01*
X142223870Y-43250000D01*
X142208424Y-43406826D01*
X142162679Y-43557629D01*
X142088392Y-43696608D01*
X141988422Y-43818422D01*
X141866608Y-43918392D01*
X141727629Y-43992679D01*
X141652227Y-44015552D01*
X141576827Y-44038424D01*
X141537649Y-44042283D01*
X141459295Y-44050000D01*
X141380705Y-44050000D01*
X141302351Y-44042283D01*
X141263173Y-44038424D01*
X141187773Y-44015552D01*
X141112371Y-43992679D01*
X140973392Y-43918392D01*
X140851578Y-43818422D01*
X140751608Y-43696608D01*
X140677321Y-43557629D01*
X140631576Y-43406826D01*
X140616130Y-43250000D01*
X140631576Y-43093174D01*
X140677321Y-42942371D01*
X140751608Y-42803392D01*
X140851578Y-42681578D01*
X140973392Y-42581608D01*
X141112371Y-42507321D01*
X141187773Y-42484448D01*
X141263173Y-42461576D01*
X141302351Y-42457717D01*
X141380705Y-42450000D01*
X141459295Y-42450000D01*
X141537649Y-42457717D01*
X141537649Y-42457717D01*
G37*
G36*
X144077649Y-42457717D02*
X144116827Y-42461576D01*
X144192227Y-42484448D01*
X144267629Y-42507321D01*
X144406608Y-42581608D01*
X144528422Y-42681578D01*
X144628392Y-42803392D01*
X144702679Y-42942371D01*
X144748424Y-43093174D01*
X144763870Y-43250000D01*
X144748424Y-43406826D01*
X144702679Y-43557629D01*
X144628392Y-43696608D01*
X144528422Y-43818422D01*
X144406608Y-43918392D01*
X144267629Y-43992679D01*
X144192227Y-44015552D01*
X144116827Y-44038424D01*
X144077649Y-44042283D01*
X143999295Y-44050000D01*
X143920705Y-44050000D01*
X143842351Y-44042283D01*
X143803173Y-44038424D01*
X143727773Y-44015552D01*
X143652371Y-43992679D01*
X143513392Y-43918392D01*
X143391578Y-43818422D01*
X143291608Y-43696608D01*
X143217321Y-43557629D01*
X143171576Y-43406826D01*
X143156130Y-43250000D01*
X143171576Y-43093174D01*
X143217321Y-42942371D01*
X143291608Y-42803392D01*
X143391578Y-42681578D01*
X143513392Y-42581608D01*
X143652371Y-42507321D01*
X143727773Y-42484448D01*
X143803173Y-42461576D01*
X143842351Y-42457717D01*
X143920705Y-42450000D01*
X143999295Y-42450000D01*
X144077649Y-42457717D01*
X144077649Y-42457717D01*
G37*
G36*
X146617649Y-42457717D02*
X146656827Y-42461576D01*
X146732227Y-42484448D01*
X146807629Y-42507321D01*
X146946608Y-42581608D01*
X147068422Y-42681578D01*
X147168392Y-42803392D01*
X147242679Y-42942371D01*
X147288424Y-43093174D01*
X147303870Y-43250000D01*
X147288424Y-43406826D01*
X147242679Y-43557629D01*
X147168392Y-43696608D01*
X147068422Y-43818422D01*
X146946608Y-43918392D01*
X146807629Y-43992679D01*
X146732227Y-44015552D01*
X146656827Y-44038424D01*
X146617649Y-44042283D01*
X146539295Y-44050000D01*
X146460705Y-44050000D01*
X146382351Y-44042283D01*
X146343173Y-44038424D01*
X146267773Y-44015552D01*
X146192371Y-43992679D01*
X146053392Y-43918392D01*
X145931578Y-43818422D01*
X145831608Y-43696608D01*
X145757321Y-43557629D01*
X145711576Y-43406826D01*
X145696130Y-43250000D01*
X145711576Y-43093174D01*
X145757321Y-42942371D01*
X145831608Y-42803392D01*
X145931578Y-42681578D01*
X146053392Y-42581608D01*
X146192371Y-42507321D01*
X146267773Y-42484448D01*
X146343173Y-42461576D01*
X146382351Y-42457717D01*
X146460705Y-42450000D01*
X146539295Y-42450000D01*
X146617649Y-42457717D01*
X146617649Y-42457717D01*
G37*
G36*
X122869675Y-40653701D02*
X122899907Y-40662872D01*
X122927769Y-40677765D01*
X122952192Y-40697808D01*
X122972235Y-40722231D01*
X122987128Y-40750093D01*
X122996299Y-40780325D01*
X123000000Y-40817905D01*
X123000000Y-42182095D01*
X122996299Y-42219675D01*
X122987128Y-42249907D01*
X122972235Y-42277769D01*
X122952192Y-42302192D01*
X122927769Y-42322235D01*
X122899907Y-42337128D01*
X122869675Y-42346299D01*
X122832095Y-42350000D01*
X121167905Y-42350000D01*
X121130325Y-42346299D01*
X121100093Y-42337128D01*
X121072231Y-42322235D01*
X121047808Y-42302192D01*
X121027765Y-42277769D01*
X121012872Y-42249907D01*
X121003701Y-42219675D01*
X121000000Y-42182095D01*
X121000000Y-40817905D01*
X121003701Y-40780325D01*
X121012872Y-40750093D01*
X121027765Y-40722231D01*
X121047808Y-40697808D01*
X121072231Y-40677765D01*
X121100093Y-40662872D01*
X121130325Y-40653701D01*
X121167905Y-40650000D01*
X122832095Y-40650000D01*
X122869675Y-40653701D01*
X122869675Y-40653701D01*
G37*
G36*
X122316630Y-38162299D02*
X122476855Y-38210903D01*
X122624520Y-38289831D01*
X122753949Y-38396051D01*
X122860169Y-38525480D01*
X122939097Y-38673145D01*
X122987701Y-38833370D01*
X123004112Y-39000000D01*
X122987701Y-39166630D01*
X122939097Y-39326855D01*
X122860169Y-39474520D01*
X122753949Y-39603949D01*
X122624520Y-39710169D01*
X122476855Y-39789097D01*
X122316630Y-39837701D01*
X122191752Y-39850000D01*
X121808248Y-39850000D01*
X121683370Y-39837701D01*
X121523145Y-39789097D01*
X121375480Y-39710169D01*
X121246051Y-39603949D01*
X121139831Y-39474520D01*
X121060903Y-39326855D01*
X121012299Y-39166630D01*
X120995888Y-39000000D01*
X121012299Y-38833370D01*
X121060903Y-38673145D01*
X121139831Y-38525480D01*
X121246051Y-38396051D01*
X121375480Y-38289831D01*
X121523145Y-38210903D01*
X121683370Y-38162299D01*
X121808248Y-38150000D01*
X122191752Y-38150000D01*
X122316630Y-38162299D01*
X122316630Y-38162299D01*
G37*
G36*
X128837649Y-34837717D02*
X128876827Y-34841576D01*
X128952228Y-34864449D01*
X129027629Y-34887321D01*
X129166608Y-34961608D01*
X129288422Y-35061578D01*
X129388392Y-35183392D01*
X129462679Y-35322371D01*
X129508424Y-35473174D01*
X129523870Y-35630000D01*
X129508424Y-35786826D01*
X129462679Y-35937629D01*
X129388392Y-36076608D01*
X129288422Y-36198422D01*
X129166608Y-36298392D01*
X129027629Y-36372679D01*
X128952228Y-36395551D01*
X128876827Y-36418424D01*
X128837649Y-36422283D01*
X128759295Y-36430000D01*
X128680705Y-36430000D01*
X128602351Y-36422283D01*
X128563173Y-36418424D01*
X128487772Y-36395551D01*
X128412371Y-36372679D01*
X128273392Y-36298392D01*
X128151578Y-36198422D01*
X128051608Y-36076608D01*
X127977321Y-35937629D01*
X127931576Y-35786826D01*
X127916130Y-35630000D01*
X127931576Y-35473174D01*
X127977321Y-35322371D01*
X128051608Y-35183392D01*
X128151578Y-35061578D01*
X128273392Y-34961608D01*
X128412371Y-34887321D01*
X128487773Y-34864448D01*
X128563173Y-34841576D01*
X128602351Y-34837717D01*
X128680705Y-34830000D01*
X128759295Y-34830000D01*
X128837649Y-34837717D01*
X128837649Y-34837717D01*
G37*
G36*
X146617649Y-34837717D02*
X146656827Y-34841576D01*
X146732228Y-34864449D01*
X146807629Y-34887321D01*
X146946608Y-34961608D01*
X147068422Y-35061578D01*
X147168392Y-35183392D01*
X147242679Y-35322371D01*
X147288424Y-35473174D01*
X147303870Y-35630000D01*
X147288424Y-35786826D01*
X147242679Y-35937629D01*
X147168392Y-36076608D01*
X147068422Y-36198422D01*
X146946608Y-36298392D01*
X146807629Y-36372679D01*
X146732228Y-36395551D01*
X146656827Y-36418424D01*
X146617649Y-36422283D01*
X146539295Y-36430000D01*
X146460705Y-36430000D01*
X146382351Y-36422283D01*
X146343173Y-36418424D01*
X146267772Y-36395551D01*
X146192371Y-36372679D01*
X146053392Y-36298392D01*
X145931578Y-36198422D01*
X145831608Y-36076608D01*
X145757321Y-35937629D01*
X145711576Y-35786826D01*
X145696130Y-35630000D01*
X145711576Y-35473174D01*
X145757321Y-35322371D01*
X145831608Y-35183392D01*
X145931578Y-35061578D01*
X146053392Y-34961608D01*
X146192371Y-34887321D01*
X146267773Y-34864448D01*
X146343173Y-34841576D01*
X146382351Y-34837717D01*
X146460705Y-34830000D01*
X146539295Y-34830000D01*
X146617649Y-34837717D01*
X146617649Y-34837717D01*
G37*
G36*
X131377649Y-34837717D02*
X131416827Y-34841576D01*
X131492228Y-34864449D01*
X131567629Y-34887321D01*
X131706608Y-34961608D01*
X131828422Y-35061578D01*
X131928392Y-35183392D01*
X132002679Y-35322371D01*
X132048424Y-35473174D01*
X132063870Y-35630000D01*
X132048424Y-35786826D01*
X132002679Y-35937629D01*
X131928392Y-36076608D01*
X131828422Y-36198422D01*
X131706608Y-36298392D01*
X131567629Y-36372679D01*
X131492228Y-36395551D01*
X131416827Y-36418424D01*
X131377649Y-36422283D01*
X131299295Y-36430000D01*
X131220705Y-36430000D01*
X131142351Y-36422283D01*
X131103173Y-36418424D01*
X131027772Y-36395551D01*
X130952371Y-36372679D01*
X130813392Y-36298392D01*
X130691578Y-36198422D01*
X130591608Y-36076608D01*
X130517321Y-35937629D01*
X130471576Y-35786826D01*
X130456130Y-35630000D01*
X130471576Y-35473174D01*
X130517321Y-35322371D01*
X130591608Y-35183392D01*
X130691578Y-35061578D01*
X130813392Y-34961608D01*
X130952371Y-34887321D01*
X131027773Y-34864448D01*
X131103173Y-34841576D01*
X131142351Y-34837717D01*
X131220705Y-34830000D01*
X131299295Y-34830000D01*
X131377649Y-34837717D01*
X131377649Y-34837717D01*
G37*
G36*
X144077649Y-34837717D02*
X144116827Y-34841576D01*
X144192228Y-34864449D01*
X144267629Y-34887321D01*
X144406608Y-34961608D01*
X144528422Y-35061578D01*
X144628392Y-35183392D01*
X144702679Y-35322371D01*
X144748424Y-35473174D01*
X144763870Y-35630000D01*
X144748424Y-35786826D01*
X144702679Y-35937629D01*
X144628392Y-36076608D01*
X144528422Y-36198422D01*
X144406608Y-36298392D01*
X144267629Y-36372679D01*
X144192228Y-36395551D01*
X144116827Y-36418424D01*
X144077649Y-36422283D01*
X143999295Y-36430000D01*
X143920705Y-36430000D01*
X143842351Y-36422283D01*
X143803173Y-36418424D01*
X143727772Y-36395551D01*
X143652371Y-36372679D01*
X143513392Y-36298392D01*
X143391578Y-36198422D01*
X143291608Y-36076608D01*
X143217321Y-35937629D01*
X143171576Y-35786826D01*
X143156130Y-35630000D01*
X143171576Y-35473174D01*
X143217321Y-35322371D01*
X143291608Y-35183392D01*
X143391578Y-35061578D01*
X143513392Y-34961608D01*
X143652371Y-34887321D01*
X143727773Y-34864448D01*
X143803173Y-34841576D01*
X143842351Y-34837717D01*
X143920705Y-34830000D01*
X143999295Y-34830000D01*
X144077649Y-34837717D01*
X144077649Y-34837717D01*
G37*
G36*
X133917649Y-34837717D02*
X133956827Y-34841576D01*
X134032228Y-34864449D01*
X134107629Y-34887321D01*
X134246608Y-34961608D01*
X134368422Y-35061578D01*
X134468392Y-35183392D01*
X134542679Y-35322371D01*
X134588424Y-35473174D01*
X134603870Y-35630000D01*
X134588424Y-35786826D01*
X134542679Y-35937629D01*
X134468392Y-36076608D01*
X134368422Y-36198422D01*
X134246608Y-36298392D01*
X134107629Y-36372679D01*
X134032228Y-36395551D01*
X133956827Y-36418424D01*
X133917649Y-36422283D01*
X133839295Y-36430000D01*
X133760705Y-36430000D01*
X133682351Y-36422283D01*
X133643173Y-36418424D01*
X133567772Y-36395551D01*
X133492371Y-36372679D01*
X133353392Y-36298392D01*
X133231578Y-36198422D01*
X133131608Y-36076608D01*
X133057321Y-35937629D01*
X133011576Y-35786826D01*
X132996130Y-35630000D01*
X133011576Y-35473174D01*
X133057321Y-35322371D01*
X133131608Y-35183392D01*
X133231578Y-35061578D01*
X133353392Y-34961608D01*
X133492371Y-34887321D01*
X133567773Y-34864448D01*
X133643173Y-34841576D01*
X133682351Y-34837717D01*
X133760705Y-34830000D01*
X133839295Y-34830000D01*
X133917649Y-34837717D01*
X133917649Y-34837717D01*
G37*
G36*
X141537649Y-34837717D02*
X141576827Y-34841576D01*
X141652228Y-34864449D01*
X141727629Y-34887321D01*
X141866608Y-34961608D01*
X141988422Y-35061578D01*
X142088392Y-35183392D01*
X142162679Y-35322371D01*
X142208424Y-35473174D01*
X142223870Y-35630000D01*
X142208424Y-35786826D01*
X142162679Y-35937629D01*
X142088392Y-36076608D01*
X141988422Y-36198422D01*
X141866608Y-36298392D01*
X141727629Y-36372679D01*
X141652228Y-36395551D01*
X141576827Y-36418424D01*
X141537649Y-36422283D01*
X141459295Y-36430000D01*
X141380705Y-36430000D01*
X141302351Y-36422283D01*
X141263173Y-36418424D01*
X141187772Y-36395551D01*
X141112371Y-36372679D01*
X140973392Y-36298392D01*
X140851578Y-36198422D01*
X140751608Y-36076608D01*
X140677321Y-35937629D01*
X140631576Y-35786826D01*
X140616130Y-35630000D01*
X140631576Y-35473174D01*
X140677321Y-35322371D01*
X140751608Y-35183392D01*
X140851578Y-35061578D01*
X140973392Y-34961608D01*
X141112371Y-34887321D01*
X141187773Y-34864448D01*
X141263173Y-34841576D01*
X141302351Y-34837717D01*
X141380705Y-34830000D01*
X141459295Y-34830000D01*
X141537649Y-34837717D01*
X141537649Y-34837717D01*
G37*
G36*
X136457649Y-34837717D02*
X136496827Y-34841576D01*
X136572228Y-34864449D01*
X136647629Y-34887321D01*
X136786608Y-34961608D01*
X136908422Y-35061578D01*
X137008392Y-35183392D01*
X137082679Y-35322371D01*
X137128424Y-35473174D01*
X137143870Y-35630000D01*
X137128424Y-35786826D01*
X137082679Y-35937629D01*
X137008392Y-36076608D01*
X136908422Y-36198422D01*
X136786608Y-36298392D01*
X136647629Y-36372679D01*
X136572228Y-36395551D01*
X136496827Y-36418424D01*
X136457649Y-36422283D01*
X136379295Y-36430000D01*
X136300705Y-36430000D01*
X136222351Y-36422283D01*
X136183173Y-36418424D01*
X136107772Y-36395551D01*
X136032371Y-36372679D01*
X135893392Y-36298392D01*
X135771578Y-36198422D01*
X135671608Y-36076608D01*
X135597321Y-35937629D01*
X135551576Y-35786826D01*
X135536130Y-35630000D01*
X135551576Y-35473174D01*
X135597321Y-35322371D01*
X135671608Y-35183392D01*
X135771578Y-35061578D01*
X135893392Y-34961608D01*
X136032371Y-34887321D01*
X136107773Y-34864448D01*
X136183173Y-34841576D01*
X136222351Y-34837717D01*
X136300705Y-34830000D01*
X136379295Y-34830000D01*
X136457649Y-34837717D01*
X136457649Y-34837717D01*
G37*
G36*
X138997649Y-34837717D02*
X139036827Y-34841576D01*
X139112228Y-34864449D01*
X139187629Y-34887321D01*
X139326608Y-34961608D01*
X139448422Y-35061578D01*
X139548392Y-35183392D01*
X139622679Y-35322371D01*
X139668424Y-35473174D01*
X139683870Y-35630000D01*
X139668424Y-35786826D01*
X139622679Y-35937629D01*
X139548392Y-36076608D01*
X139448422Y-36198422D01*
X139326608Y-36298392D01*
X139187629Y-36372679D01*
X139112228Y-36395551D01*
X139036827Y-36418424D01*
X138997649Y-36422283D01*
X138919295Y-36430000D01*
X138840705Y-36430000D01*
X138762351Y-36422283D01*
X138723173Y-36418424D01*
X138647772Y-36395551D01*
X138572371Y-36372679D01*
X138433392Y-36298392D01*
X138311578Y-36198422D01*
X138211608Y-36076608D01*
X138137321Y-35937629D01*
X138091576Y-35786826D01*
X138076130Y-35630000D01*
X138091576Y-35473174D01*
X138137321Y-35322371D01*
X138211608Y-35183392D01*
X138311578Y-35061578D01*
X138433392Y-34961608D01*
X138572371Y-34887321D01*
X138647773Y-34864448D01*
X138723173Y-34841576D01*
X138762351Y-34837717D01*
X138840705Y-34830000D01*
X138919295Y-34830000D01*
X138997649Y-34837717D01*
X138997649Y-34837717D01*
G37*
M02*
