G04 #@! TF.GenerationSoftware,KiCad,Pcbnew,5.0.2-bee76a0~70~ubuntu18.04.1*
G04 #@! TF.CreationDate,2019-05-07T17:56:58+05:30*
G04 #@! TF.ProjectId,motbox_with_promini,6d6f7462-6f78-45f7-9769-74685f70726f,rev?*
G04 #@! TF.SameCoordinates,Original*
G04 #@! TF.FileFunction,Copper,L1,Top*
G04 #@! TF.FilePolarity,Positive*
%FSLAX46Y46*%
G04 Gerber Fmt 4.6, Leading zero omitted, Abs format (unit mm)*
G04 Created by KiCad (PCBNEW 5.0.2-bee76a0~70~ubuntu18.04.1) date Tue May  7 17:56:58 2019*
%MOMM*%
%LPD*%
G01*
G04 APERTURE LIST*
G04 #@! TA.AperFunction,ComponentPad*
%ADD10R,1.600000X1.600000*%
G04 #@! TD*
G04 #@! TA.AperFunction,ComponentPad*
%ADD11O,1.600000X1.600000*%
G04 #@! TD*
G04 #@! TA.AperFunction,ComponentPad*
%ADD12O,2.032000X1.727200*%
G04 #@! TD*
G04 #@! TA.AperFunction,ComponentPad*
%ADD13O,1.727200X2.032000*%
G04 #@! TD*
G04 #@! TA.AperFunction,ComponentPad*
%ADD14C,1.778000*%
G04 #@! TD*
G04 #@! TA.AperFunction,SMDPad,CuDef*
%ADD15R,1.550000X0.600000*%
G04 #@! TD*
G04 #@! TA.AperFunction,ComponentPad*
%ADD16O,1.700000X2.000000*%
G04 #@! TD*
G04 #@! TA.AperFunction,Conductor*
%ADD17C,0.100000*%
G04 #@! TD*
G04 #@! TA.AperFunction,ComponentPad*
%ADD18C,1.700000*%
G04 #@! TD*
G04 #@! TA.AperFunction,SMDPad,CuDef*
%ADD19R,1.100000X4.600000*%
G04 #@! TD*
G04 #@! TA.AperFunction,SMDPad,CuDef*
%ADD20R,10.800000X9.400000*%
G04 #@! TD*
G04 #@! TA.AperFunction,SMDPad,CuDef*
%ADD21C,2.500000*%
G04 #@! TD*
G04 #@! TA.AperFunction,SMDPad,CuDef*
%ADD22C,1.600000*%
G04 #@! TD*
G04 #@! TA.AperFunction,ComponentPad*
%ADD23R,3.200000X3.200000*%
G04 #@! TD*
G04 #@! TA.AperFunction,ComponentPad*
%ADD24O,3.200000X3.200000*%
G04 #@! TD*
G04 #@! TA.AperFunction,ComponentPad*
%ADD25O,2.000000X1.700000*%
G04 #@! TD*
G04 #@! TA.AperFunction,ComponentPad*
%ADD26R,1.700000X1.700000*%
G04 #@! TD*
G04 #@! TA.AperFunction,ComponentPad*
%ADD27O,1.700000X1.700000*%
G04 #@! TD*
G04 #@! TA.AperFunction,ComponentPad*
%ADD28O,1.700000X1.950000*%
G04 #@! TD*
G04 #@! TA.AperFunction,SMDPad,CuDef*
%ADD29R,5.100000X2.350000*%
G04 #@! TD*
G04 #@! TA.AperFunction,SMDPad,CuDef*
%ADD30C,1.250000*%
G04 #@! TD*
G04 #@! TA.AperFunction,ComponentPad*
%ADD31C,4.400000*%
G04 #@! TD*
G04 #@! TA.AperFunction,ViaPad*
%ADD32C,0.600000*%
G04 #@! TD*
G04 #@! TA.AperFunction,ViaPad*
%ADD33C,0.800000*%
G04 #@! TD*
G04 #@! TA.AperFunction,Conductor*
%ADD34C,0.300000*%
G04 #@! TD*
G04 #@! TA.AperFunction,Conductor*
%ADD35C,0.600000*%
G04 #@! TD*
G04 #@! TA.AperFunction,Conductor*
%ADD36C,0.500000*%
G04 #@! TD*
G04 #@! TA.AperFunction,Conductor*
%ADD37C,0.254000*%
G04 #@! TD*
G04 APERTURE END LIST*
D10*
G04 #@! TO.P,U3,1*
G04 #@! TO.N,/2*
X128720000Y-43250000D03*
D11*
G04 #@! TO.P,U3,9*
G04 #@! TO.N,GND*
X146500000Y-35630000D03*
G04 #@! TO.P,U3,2*
G04 #@! TO.N,/6*
X131260000Y-43250000D03*
G04 #@! TO.P,U3,10*
G04 #@! TO.N,N/C*
X143960000Y-35630000D03*
G04 #@! TO.P,U3,3*
G04 #@! TO.N,Net-(J7-Pad1)*
X133800000Y-43250000D03*
G04 #@! TO.P,U3,11*
G04 #@! TO.N,N/C*
X141420000Y-35630000D03*
G04 #@! TO.P,U3,4*
G04 #@! TO.N,GND*
X136340000Y-43250000D03*
G04 #@! TO.P,U3,12*
X138880000Y-35630000D03*
G04 #@! TO.P,U3,5*
X138880000Y-43250000D03*
G04 #@! TO.P,U3,13*
X136340000Y-35630000D03*
G04 #@! TO.P,U3,6*
G04 #@! TO.N,Net-(J7-Pad2)*
X141420000Y-43250000D03*
G04 #@! TO.P,U3,14*
G04 #@! TO.N,N/C*
X133800000Y-35630000D03*
G04 #@! TO.P,U3,7*
G04 #@! TO.N,/3*
X143960000Y-43250000D03*
G04 #@! TO.P,U3,15*
G04 #@! TO.N,N/C*
X131260000Y-35630000D03*
G04 #@! TO.P,U3,8*
G04 #@! TO.N,+12V*
X146500000Y-43250000D03*
G04 #@! TO.P,U3,16*
G04 #@! TO.N,+5V*
X128720000Y-35630000D03*
G04 #@! TD*
D12*
G04 #@! TO.P,P1,1*
G04 #@! TO.N,/1(Tx)*
X161330000Y-50890000D03*
G04 #@! TO.P,P1,2*
G04 #@! TO.N,/0(Rx)*
X161330000Y-53430000D03*
G04 #@! TO.P,P1,3*
G04 #@! TO.N,/Reset*
X161330000Y-55970000D03*
G04 #@! TO.P,P1,4*
G04 #@! TO.N,GND*
X161330000Y-58510000D03*
G04 #@! TO.P,P1,5*
G04 #@! TO.N,/2*
X161330000Y-61050000D03*
G04 #@! TO.P,P1,6*
G04 #@! TO.N,/3*
X161330000Y-63590000D03*
G04 #@! TO.P,P1,7*
G04 #@! TO.N,/4*
X161330000Y-66130000D03*
G04 #@! TO.P,P1,8*
G04 #@! TO.N,/5*
X161330000Y-68670000D03*
G04 #@! TO.P,P1,9*
G04 #@! TO.N,/6*
X161330000Y-71210000D03*
G04 #@! TO.P,P1,10*
G04 #@! TO.N,/7*
X161330000Y-73750000D03*
G04 #@! TO.P,P1,11*
G04 #@! TO.N,/8*
X161330000Y-76290000D03*
G04 #@! TO.P,P1,12*
G04 #@! TO.N,/5*
X161330000Y-78830000D03*
G04 #@! TD*
D13*
G04 #@! TO.P,P3,1*
G04 #@! TO.N,N/C*
X162600000Y-48350000D03*
G04 #@! TO.P,P3,2*
G04 #@! TO.N,/1(Tx)*
X165140000Y-48350000D03*
G04 #@! TO.P,P3,3*
G04 #@! TO.N,/0(Rx)*
X167680000Y-48350000D03*
G04 #@! TO.P,P3,4*
G04 #@! TO.N,+5V*
X170220000Y-48350000D03*
G04 #@! TO.P,P3,5*
G04 #@! TO.N,GND*
X172760000Y-48350000D03*
G04 #@! TO.P,P3,6*
X175300000Y-48350000D03*
G04 #@! TD*
D14*
G04 #@! TO.P,P2,1*
G04 #@! TO.N,N/C*
X174030000Y-59780000D03*
G04 #@! TO.P,P2,2*
X174030000Y-62320000D03*
G04 #@! TD*
D12*
G04 #@! TO.P,P5,1*
G04 #@! TO.N,N/C*
X176570000Y-50890000D03*
G04 #@! TO.P,P5,2*
G04 #@! TO.N,GND*
X176570000Y-53430000D03*
G04 #@! TO.P,P5,3*
G04 #@! TO.N,/Reset*
X176570000Y-55970000D03*
G04 #@! TO.P,P5,4*
G04 #@! TO.N,+5V*
X176570000Y-58510000D03*
G04 #@! TO.P,P5,5*
G04 #@! TO.N,N/C*
X176570000Y-61050000D03*
G04 #@! TO.P,P5,6*
X176570000Y-63590000D03*
G04 #@! TO.P,P5,7*
X176570000Y-66130000D03*
G04 #@! TO.P,P5,8*
X176570000Y-68670000D03*
G04 #@! TO.P,P5,9*
G04 #@! TO.N,/13*
X176570000Y-71210000D03*
G04 #@! TO.P,P5,10*
G04 #@! TO.N,/12*
X176570000Y-73750000D03*
G04 #@! TO.P,P5,11*
G04 #@! TO.N,/11*
X176570000Y-76290000D03*
G04 #@! TO.P,P5,12*
G04 #@! TO.N,/10*
X176570000Y-78830000D03*
G04 #@! TD*
D14*
G04 #@! TO.P,P4,1*
G04 #@! TO.N,N/C*
X174030000Y-69940000D03*
G04 #@! TO.P,P4,2*
X174030000Y-72480000D03*
G04 #@! TD*
D15*
G04 #@! TO.P,U2,1*
G04 #@! TO.N,/4*
X155600000Y-39190000D03*
G04 #@! TO.P,U2,2*
G04 #@! TO.N,Net-(R3-Pad2)*
X155600000Y-40460000D03*
G04 #@! TO.P,U2,3*
G04 #@! TO.N,Net-(J5-Pad2)*
X155600000Y-41730000D03*
G04 #@! TO.P,U2,4*
G04 #@! TO.N,GND*
X155600000Y-43000000D03*
G04 #@! TO.P,U2,5*
X161000000Y-43000000D03*
G04 #@! TO.P,U2,6*
X161000000Y-41730000D03*
G04 #@! TO.P,U2,7*
G04 #@! TO.N,N/C*
X161000000Y-40460000D03*
G04 #@! TO.P,U2,8*
G04 #@! TO.N,+5V*
X161000000Y-39190000D03*
G04 #@! TD*
D16*
G04 #@! TO.P,J5,2*
G04 #@! TO.N,Net-(J5-Pad2)*
X158400000Y-93500000D03*
D17*
G04 #@! TD*
G04 #@! TO.N,GND*
G04 #@! TO.C,J5*
G36*
X156524504Y-92501204D02*
X156548773Y-92504804D01*
X156572571Y-92510765D01*
X156595671Y-92519030D01*
X156617849Y-92529520D01*
X156638893Y-92542133D01*
X156658598Y-92556747D01*
X156676777Y-92573223D01*
X156693253Y-92591402D01*
X156707867Y-92611107D01*
X156720480Y-92632151D01*
X156730970Y-92654329D01*
X156739235Y-92677429D01*
X156745196Y-92701227D01*
X156748796Y-92725496D01*
X156750000Y-92750000D01*
X156750000Y-94250000D01*
X156748796Y-94274504D01*
X156745196Y-94298773D01*
X156739235Y-94322571D01*
X156730970Y-94345671D01*
X156720480Y-94367849D01*
X156707867Y-94388893D01*
X156693253Y-94408598D01*
X156676777Y-94426777D01*
X156658598Y-94443253D01*
X156638893Y-94457867D01*
X156617849Y-94470480D01*
X156595671Y-94480970D01*
X156572571Y-94489235D01*
X156548773Y-94495196D01*
X156524504Y-94498796D01*
X156500000Y-94500000D01*
X155300000Y-94500000D01*
X155275496Y-94498796D01*
X155251227Y-94495196D01*
X155227429Y-94489235D01*
X155204329Y-94480970D01*
X155182151Y-94470480D01*
X155161107Y-94457867D01*
X155141402Y-94443253D01*
X155123223Y-94426777D01*
X155106747Y-94408598D01*
X155092133Y-94388893D01*
X155079520Y-94367849D01*
X155069030Y-94345671D01*
X155060765Y-94322571D01*
X155054804Y-94298773D01*
X155051204Y-94274504D01*
X155050000Y-94250000D01*
X155050000Y-92750000D01*
X155051204Y-92725496D01*
X155054804Y-92701227D01*
X155060765Y-92677429D01*
X155069030Y-92654329D01*
X155079520Y-92632151D01*
X155092133Y-92611107D01*
X155106747Y-92591402D01*
X155123223Y-92573223D01*
X155141402Y-92556747D01*
X155161107Y-92542133D01*
X155182151Y-92529520D01*
X155204329Y-92519030D01*
X155227429Y-92510765D01*
X155251227Y-92504804D01*
X155275496Y-92501204D01*
X155300000Y-92500000D01*
X156500000Y-92500000D01*
X156524504Y-92501204D01*
X156524504Y-92501204D01*
G37*
D18*
G04 #@! TO.P,J5,1*
G04 #@! TO.N,GND*
X155900000Y-93500000D03*
G04 #@! TD*
D19*
G04 #@! TO.P,U1,1*
G04 #@! TO.N,+12V*
X115200000Y-69850000D03*
G04 #@! TO.P,U1,2*
G04 #@! TO.N,Net-(D1-Pad1)*
X113500000Y-69850000D03*
G04 #@! TO.P,U1,3*
G04 #@! TO.N,GND*
X111800000Y-69850000D03*
G04 #@! TO.P,U1,4*
G04 #@! TO.N,+5V*
X110100000Y-69850000D03*
G04 #@! TO.P,U1,5*
G04 #@! TO.N,GND*
X108400000Y-69850000D03*
D20*
G04 #@! TO.P,U1,3*
X111800000Y-79000000D03*
G04 #@! TD*
D17*
G04 #@! TO.N,+5V*
G04 #@! TO.C,C2*
G36*
X113724504Y-45201204D02*
X113748773Y-45204804D01*
X113772571Y-45210765D01*
X113795671Y-45219030D01*
X113817849Y-45229520D01*
X113838893Y-45242133D01*
X113858598Y-45256747D01*
X113876777Y-45273223D01*
X113893253Y-45291402D01*
X113907867Y-45311107D01*
X113920480Y-45332151D01*
X113930970Y-45354329D01*
X113939235Y-45377429D01*
X113945196Y-45401227D01*
X113948796Y-45425496D01*
X113950000Y-45450000D01*
X113950000Y-48950000D01*
X113948796Y-48974504D01*
X113945196Y-48998773D01*
X113939235Y-49022571D01*
X113930970Y-49045671D01*
X113920480Y-49067849D01*
X113907867Y-49088893D01*
X113893253Y-49108598D01*
X113876777Y-49126777D01*
X113858598Y-49143253D01*
X113838893Y-49157867D01*
X113817849Y-49170480D01*
X113795671Y-49180970D01*
X113772571Y-49189235D01*
X113748773Y-49195196D01*
X113724504Y-49198796D01*
X113700000Y-49200000D01*
X111700000Y-49200000D01*
X111675496Y-49198796D01*
X111651227Y-49195196D01*
X111627429Y-49189235D01*
X111604329Y-49180970D01*
X111582151Y-49170480D01*
X111561107Y-49157867D01*
X111541402Y-49143253D01*
X111523223Y-49126777D01*
X111506747Y-49108598D01*
X111492133Y-49088893D01*
X111479520Y-49067849D01*
X111469030Y-49045671D01*
X111460765Y-49022571D01*
X111454804Y-48998773D01*
X111451204Y-48974504D01*
X111450000Y-48950000D01*
X111450000Y-45450000D01*
X111451204Y-45425496D01*
X111454804Y-45401227D01*
X111460765Y-45377429D01*
X111469030Y-45354329D01*
X111479520Y-45332151D01*
X111492133Y-45311107D01*
X111506747Y-45291402D01*
X111523223Y-45273223D01*
X111541402Y-45256747D01*
X111561107Y-45242133D01*
X111582151Y-45229520D01*
X111604329Y-45219030D01*
X111627429Y-45210765D01*
X111651227Y-45204804D01*
X111675496Y-45201204D01*
X111700000Y-45200000D01*
X113700000Y-45200000D01*
X113724504Y-45201204D01*
X113724504Y-45201204D01*
G37*
D21*
G04 #@! TD*
G04 #@! TO.P,C2,1*
G04 #@! TO.N,+5V*
X112700000Y-47200000D03*
D17*
G04 #@! TO.N,GND*
G04 #@! TO.C,C2*
G36*
X113724504Y-53201204D02*
X113748773Y-53204804D01*
X113772571Y-53210765D01*
X113795671Y-53219030D01*
X113817849Y-53229520D01*
X113838893Y-53242133D01*
X113858598Y-53256747D01*
X113876777Y-53273223D01*
X113893253Y-53291402D01*
X113907867Y-53311107D01*
X113920480Y-53332151D01*
X113930970Y-53354329D01*
X113939235Y-53377429D01*
X113945196Y-53401227D01*
X113948796Y-53425496D01*
X113950000Y-53450000D01*
X113950000Y-56950000D01*
X113948796Y-56974504D01*
X113945196Y-56998773D01*
X113939235Y-57022571D01*
X113930970Y-57045671D01*
X113920480Y-57067849D01*
X113907867Y-57088893D01*
X113893253Y-57108598D01*
X113876777Y-57126777D01*
X113858598Y-57143253D01*
X113838893Y-57157867D01*
X113817849Y-57170480D01*
X113795671Y-57180970D01*
X113772571Y-57189235D01*
X113748773Y-57195196D01*
X113724504Y-57198796D01*
X113700000Y-57200000D01*
X111700000Y-57200000D01*
X111675496Y-57198796D01*
X111651227Y-57195196D01*
X111627429Y-57189235D01*
X111604329Y-57180970D01*
X111582151Y-57170480D01*
X111561107Y-57157867D01*
X111541402Y-57143253D01*
X111523223Y-57126777D01*
X111506747Y-57108598D01*
X111492133Y-57088893D01*
X111479520Y-57067849D01*
X111469030Y-57045671D01*
X111460765Y-57022571D01*
X111454804Y-56998773D01*
X111451204Y-56974504D01*
X111450000Y-56950000D01*
X111450000Y-53450000D01*
X111451204Y-53425496D01*
X111454804Y-53401227D01*
X111460765Y-53377429D01*
X111469030Y-53354329D01*
X111479520Y-53332151D01*
X111492133Y-53311107D01*
X111506747Y-53291402D01*
X111523223Y-53273223D01*
X111541402Y-53256747D01*
X111561107Y-53242133D01*
X111582151Y-53229520D01*
X111604329Y-53219030D01*
X111627429Y-53210765D01*
X111651227Y-53204804D01*
X111675496Y-53201204D01*
X111700000Y-53200000D01*
X113700000Y-53200000D01*
X113724504Y-53201204D01*
X113724504Y-53201204D01*
G37*
D21*
G04 #@! TD*
G04 #@! TO.P,C2,2*
G04 #@! TO.N,GND*
X112700000Y-55200000D03*
D17*
G04 #@! TO.N,+12V*
G04 #@! TO.C,C1*
G36*
X103074504Y-46551204D02*
X103098773Y-46554804D01*
X103122571Y-46560765D01*
X103145671Y-46569030D01*
X103167849Y-46579520D01*
X103188893Y-46592133D01*
X103208598Y-46606747D01*
X103226777Y-46623223D01*
X103243253Y-46641402D01*
X103257867Y-46661107D01*
X103270480Y-46682151D01*
X103280970Y-46704329D01*
X103289235Y-46727429D01*
X103295196Y-46751227D01*
X103298796Y-46775496D01*
X103300000Y-46800000D01*
X103300000Y-49800000D01*
X103298796Y-49824504D01*
X103295196Y-49848773D01*
X103289235Y-49872571D01*
X103280970Y-49895671D01*
X103270480Y-49917849D01*
X103257867Y-49938893D01*
X103243253Y-49958598D01*
X103226777Y-49976777D01*
X103208598Y-49993253D01*
X103188893Y-50007867D01*
X103167849Y-50020480D01*
X103145671Y-50030970D01*
X103122571Y-50039235D01*
X103098773Y-50045196D01*
X103074504Y-50048796D01*
X103050000Y-50050000D01*
X101950000Y-50050000D01*
X101925496Y-50048796D01*
X101901227Y-50045196D01*
X101877429Y-50039235D01*
X101854329Y-50030970D01*
X101832151Y-50020480D01*
X101811107Y-50007867D01*
X101791402Y-49993253D01*
X101773223Y-49976777D01*
X101756747Y-49958598D01*
X101742133Y-49938893D01*
X101729520Y-49917849D01*
X101719030Y-49895671D01*
X101710765Y-49872571D01*
X101704804Y-49848773D01*
X101701204Y-49824504D01*
X101700000Y-49800000D01*
X101700000Y-46800000D01*
X101701204Y-46775496D01*
X101704804Y-46751227D01*
X101710765Y-46727429D01*
X101719030Y-46704329D01*
X101729520Y-46682151D01*
X101742133Y-46661107D01*
X101756747Y-46641402D01*
X101773223Y-46623223D01*
X101791402Y-46606747D01*
X101811107Y-46592133D01*
X101832151Y-46579520D01*
X101854329Y-46569030D01*
X101877429Y-46560765D01*
X101901227Y-46554804D01*
X101925496Y-46551204D01*
X101950000Y-46550000D01*
X103050000Y-46550000D01*
X103074504Y-46551204D01*
X103074504Y-46551204D01*
G37*
D22*
G04 #@! TD*
G04 #@! TO.P,C1,1*
G04 #@! TO.N,+12V*
X102500000Y-48300000D03*
D17*
G04 #@! TO.N,GND*
G04 #@! TO.C,C1*
G36*
X103074504Y-51951204D02*
X103098773Y-51954804D01*
X103122571Y-51960765D01*
X103145671Y-51969030D01*
X103167849Y-51979520D01*
X103188893Y-51992133D01*
X103208598Y-52006747D01*
X103226777Y-52023223D01*
X103243253Y-52041402D01*
X103257867Y-52061107D01*
X103270480Y-52082151D01*
X103280970Y-52104329D01*
X103289235Y-52127429D01*
X103295196Y-52151227D01*
X103298796Y-52175496D01*
X103300000Y-52200000D01*
X103300000Y-55200000D01*
X103298796Y-55224504D01*
X103295196Y-55248773D01*
X103289235Y-55272571D01*
X103280970Y-55295671D01*
X103270480Y-55317849D01*
X103257867Y-55338893D01*
X103243253Y-55358598D01*
X103226777Y-55376777D01*
X103208598Y-55393253D01*
X103188893Y-55407867D01*
X103167849Y-55420480D01*
X103145671Y-55430970D01*
X103122571Y-55439235D01*
X103098773Y-55445196D01*
X103074504Y-55448796D01*
X103050000Y-55450000D01*
X101950000Y-55450000D01*
X101925496Y-55448796D01*
X101901227Y-55445196D01*
X101877429Y-55439235D01*
X101854329Y-55430970D01*
X101832151Y-55420480D01*
X101811107Y-55407867D01*
X101791402Y-55393253D01*
X101773223Y-55376777D01*
X101756747Y-55358598D01*
X101742133Y-55338893D01*
X101729520Y-55317849D01*
X101719030Y-55295671D01*
X101710765Y-55272571D01*
X101704804Y-55248773D01*
X101701204Y-55224504D01*
X101700000Y-55200000D01*
X101700000Y-52200000D01*
X101701204Y-52175496D01*
X101704804Y-52151227D01*
X101710765Y-52127429D01*
X101719030Y-52104329D01*
X101729520Y-52082151D01*
X101742133Y-52061107D01*
X101756747Y-52041402D01*
X101773223Y-52023223D01*
X101791402Y-52006747D01*
X101811107Y-51992133D01*
X101832151Y-51979520D01*
X101854329Y-51969030D01*
X101877429Y-51960765D01*
X101901227Y-51954804D01*
X101925496Y-51951204D01*
X101950000Y-51950000D01*
X103050000Y-51950000D01*
X103074504Y-51951204D01*
X103074504Y-51951204D01*
G37*
D22*
G04 #@! TD*
G04 #@! TO.P,C1,2*
G04 #@! TO.N,GND*
X102500000Y-53700000D03*
D23*
G04 #@! TO.P,D1,1*
G04 #@! TO.N,Net-(D1-Pad1)*
X102500000Y-82300000D03*
D24*
G04 #@! TO.P,D1,2*
G04 #@! TO.N,GND*
X102500000Y-67060000D03*
G04 #@! TD*
D17*
G04 #@! TO.N,GND*
G04 #@! TO.C,J1*
G36*
X102574504Y-60551204D02*
X102598773Y-60554804D01*
X102622571Y-60560765D01*
X102645671Y-60569030D01*
X102667849Y-60579520D01*
X102688893Y-60592133D01*
X102708598Y-60606747D01*
X102726777Y-60623223D01*
X102743253Y-60641402D01*
X102757867Y-60661107D01*
X102770480Y-60682151D01*
X102780970Y-60704329D01*
X102789235Y-60727429D01*
X102795196Y-60751227D01*
X102798796Y-60775496D01*
X102800000Y-60800000D01*
X102800000Y-62000000D01*
X102798796Y-62024504D01*
X102795196Y-62048773D01*
X102789235Y-62072571D01*
X102780970Y-62095671D01*
X102770480Y-62117849D01*
X102757867Y-62138893D01*
X102743253Y-62158598D01*
X102726777Y-62176777D01*
X102708598Y-62193253D01*
X102688893Y-62207867D01*
X102667849Y-62220480D01*
X102645671Y-62230970D01*
X102622571Y-62239235D01*
X102598773Y-62245196D01*
X102574504Y-62248796D01*
X102550000Y-62250000D01*
X101050000Y-62250000D01*
X101025496Y-62248796D01*
X101001227Y-62245196D01*
X100977429Y-62239235D01*
X100954329Y-62230970D01*
X100932151Y-62220480D01*
X100911107Y-62207867D01*
X100891402Y-62193253D01*
X100873223Y-62176777D01*
X100856747Y-62158598D01*
X100842133Y-62138893D01*
X100829520Y-62117849D01*
X100819030Y-62095671D01*
X100810765Y-62072571D01*
X100804804Y-62048773D01*
X100801204Y-62024504D01*
X100800000Y-62000000D01*
X100800000Y-60800000D01*
X100801204Y-60775496D01*
X100804804Y-60751227D01*
X100810765Y-60727429D01*
X100819030Y-60704329D01*
X100829520Y-60682151D01*
X100842133Y-60661107D01*
X100856747Y-60641402D01*
X100873223Y-60623223D01*
X100891402Y-60606747D01*
X100911107Y-60592133D01*
X100932151Y-60579520D01*
X100954329Y-60569030D01*
X100977429Y-60560765D01*
X101001227Y-60554804D01*
X101025496Y-60551204D01*
X101050000Y-60550000D01*
X102550000Y-60550000D01*
X102574504Y-60551204D01*
X102574504Y-60551204D01*
G37*
D18*
G04 #@! TD*
G04 #@! TO.P,J1,1*
G04 #@! TO.N,GND*
X101800000Y-61400000D03*
D25*
G04 #@! TO.P,J1,2*
G04 #@! TO.N,+12V*
X101800000Y-58900000D03*
G04 #@! TD*
D26*
G04 #@! TO.P,J2,1*
G04 #@! TO.N,GND*
X171600000Y-83800000D03*
D27*
G04 #@! TO.P,J2,2*
G04 #@! TO.N,/10*
X174140000Y-83800000D03*
G04 #@! TO.P,J2,3*
G04 #@! TO.N,+5V*
X176680000Y-83800000D03*
G04 #@! TD*
D17*
G04 #@! TO.N,GND*
G04 #@! TO.C,J3*
G36*
X147724504Y-92501204D02*
X147748773Y-92504804D01*
X147772571Y-92510765D01*
X147795671Y-92519030D01*
X147817849Y-92529520D01*
X147838893Y-92542133D01*
X147858598Y-92556747D01*
X147876777Y-92573223D01*
X147893253Y-92591402D01*
X147907867Y-92611107D01*
X147920480Y-92632151D01*
X147930970Y-92654329D01*
X147939235Y-92677429D01*
X147945196Y-92701227D01*
X147948796Y-92725496D01*
X147950000Y-92750000D01*
X147950000Y-94250000D01*
X147948796Y-94274504D01*
X147945196Y-94298773D01*
X147939235Y-94322571D01*
X147930970Y-94345671D01*
X147920480Y-94367849D01*
X147907867Y-94388893D01*
X147893253Y-94408598D01*
X147876777Y-94426777D01*
X147858598Y-94443253D01*
X147838893Y-94457867D01*
X147817849Y-94470480D01*
X147795671Y-94480970D01*
X147772571Y-94489235D01*
X147748773Y-94495196D01*
X147724504Y-94498796D01*
X147700000Y-94500000D01*
X146500000Y-94500000D01*
X146475496Y-94498796D01*
X146451227Y-94495196D01*
X146427429Y-94489235D01*
X146404329Y-94480970D01*
X146382151Y-94470480D01*
X146361107Y-94457867D01*
X146341402Y-94443253D01*
X146323223Y-94426777D01*
X146306747Y-94408598D01*
X146292133Y-94388893D01*
X146279520Y-94367849D01*
X146269030Y-94345671D01*
X146260765Y-94322571D01*
X146254804Y-94298773D01*
X146251204Y-94274504D01*
X146250000Y-94250000D01*
X146250000Y-92750000D01*
X146251204Y-92725496D01*
X146254804Y-92701227D01*
X146260765Y-92677429D01*
X146269030Y-92654329D01*
X146279520Y-92632151D01*
X146292133Y-92611107D01*
X146306747Y-92591402D01*
X146323223Y-92573223D01*
X146341402Y-92556747D01*
X146361107Y-92542133D01*
X146382151Y-92529520D01*
X146404329Y-92519030D01*
X146427429Y-92510765D01*
X146451227Y-92504804D01*
X146475496Y-92501204D01*
X146500000Y-92500000D01*
X147700000Y-92500000D01*
X147724504Y-92501204D01*
X147724504Y-92501204D01*
G37*
D18*
G04 #@! TD*
G04 #@! TO.P,J3,1*
G04 #@! TO.N,GND*
X147100000Y-93500000D03*
D16*
G04 #@! TO.P,J3,2*
G04 #@! TO.N,Net-(J3-Pad2)*
X149600000Y-93500000D03*
G04 #@! TD*
D28*
G04 #@! TO.P,J4,4*
G04 #@! TO.N,Net-(J4-Pad4)*
X140800000Y-93500000D03*
G04 #@! TO.P,J4,3*
G04 #@! TO.N,/13*
X138300000Y-93500000D03*
G04 #@! TO.P,J4,2*
G04 #@! TO.N,/5*
X135800000Y-93500000D03*
D17*
G04 #@! TD*
G04 #@! TO.N,GND*
G04 #@! TO.C,J4*
G36*
X133924504Y-92526204D02*
X133948773Y-92529804D01*
X133972571Y-92535765D01*
X133995671Y-92544030D01*
X134017849Y-92554520D01*
X134038893Y-92567133D01*
X134058598Y-92581747D01*
X134076777Y-92598223D01*
X134093253Y-92616402D01*
X134107867Y-92636107D01*
X134120480Y-92657151D01*
X134130970Y-92679329D01*
X134139235Y-92702429D01*
X134145196Y-92726227D01*
X134148796Y-92750496D01*
X134150000Y-92775000D01*
X134150000Y-94225000D01*
X134148796Y-94249504D01*
X134145196Y-94273773D01*
X134139235Y-94297571D01*
X134130970Y-94320671D01*
X134120480Y-94342849D01*
X134107867Y-94363893D01*
X134093253Y-94383598D01*
X134076777Y-94401777D01*
X134058598Y-94418253D01*
X134038893Y-94432867D01*
X134017849Y-94445480D01*
X133995671Y-94455970D01*
X133972571Y-94464235D01*
X133948773Y-94470196D01*
X133924504Y-94473796D01*
X133900000Y-94475000D01*
X132700000Y-94475000D01*
X132675496Y-94473796D01*
X132651227Y-94470196D01*
X132627429Y-94464235D01*
X132604329Y-94455970D01*
X132582151Y-94445480D01*
X132561107Y-94432867D01*
X132541402Y-94418253D01*
X132523223Y-94401777D01*
X132506747Y-94383598D01*
X132492133Y-94363893D01*
X132479520Y-94342849D01*
X132469030Y-94320671D01*
X132460765Y-94297571D01*
X132454804Y-94273773D01*
X132451204Y-94249504D01*
X132450000Y-94225000D01*
X132450000Y-92775000D01*
X132451204Y-92750496D01*
X132454804Y-92726227D01*
X132460765Y-92702429D01*
X132469030Y-92679329D01*
X132479520Y-92657151D01*
X132492133Y-92636107D01*
X132506747Y-92616402D01*
X132523223Y-92598223D01*
X132541402Y-92581747D01*
X132561107Y-92567133D01*
X132582151Y-92554520D01*
X132604329Y-92544030D01*
X132627429Y-92535765D01*
X132651227Y-92529804D01*
X132675496Y-92526204D01*
X132700000Y-92525000D01*
X133900000Y-92525000D01*
X133924504Y-92526204D01*
X133924504Y-92526204D01*
G37*
D18*
G04 #@! TO.P,J4,1*
G04 #@! TO.N,GND*
X133300000Y-93500000D03*
G04 #@! TD*
D28*
G04 #@! TO.P,J6,4*
G04 #@! TO.N,+5V*
X126900000Y-93500000D03*
G04 #@! TO.P,J6,3*
G04 #@! TO.N,/8*
X124400000Y-93500000D03*
G04 #@! TO.P,J6,2*
G04 #@! TO.N,+5V*
X121900000Y-93500000D03*
D17*
G04 #@! TD*
G04 #@! TO.N,/7*
G04 #@! TO.C,J6*
G36*
X120024504Y-92526204D02*
X120048773Y-92529804D01*
X120072571Y-92535765D01*
X120095671Y-92544030D01*
X120117849Y-92554520D01*
X120138893Y-92567133D01*
X120158598Y-92581747D01*
X120176777Y-92598223D01*
X120193253Y-92616402D01*
X120207867Y-92636107D01*
X120220480Y-92657151D01*
X120230970Y-92679329D01*
X120239235Y-92702429D01*
X120245196Y-92726227D01*
X120248796Y-92750496D01*
X120250000Y-92775000D01*
X120250000Y-94225000D01*
X120248796Y-94249504D01*
X120245196Y-94273773D01*
X120239235Y-94297571D01*
X120230970Y-94320671D01*
X120220480Y-94342849D01*
X120207867Y-94363893D01*
X120193253Y-94383598D01*
X120176777Y-94401777D01*
X120158598Y-94418253D01*
X120138893Y-94432867D01*
X120117849Y-94445480D01*
X120095671Y-94455970D01*
X120072571Y-94464235D01*
X120048773Y-94470196D01*
X120024504Y-94473796D01*
X120000000Y-94475000D01*
X118800000Y-94475000D01*
X118775496Y-94473796D01*
X118751227Y-94470196D01*
X118727429Y-94464235D01*
X118704329Y-94455970D01*
X118682151Y-94445480D01*
X118661107Y-94432867D01*
X118641402Y-94418253D01*
X118623223Y-94401777D01*
X118606747Y-94383598D01*
X118592133Y-94363893D01*
X118579520Y-94342849D01*
X118569030Y-94320671D01*
X118560765Y-94297571D01*
X118554804Y-94273773D01*
X118551204Y-94249504D01*
X118550000Y-94225000D01*
X118550000Y-92775000D01*
X118551204Y-92750496D01*
X118554804Y-92726227D01*
X118560765Y-92702429D01*
X118569030Y-92679329D01*
X118579520Y-92657151D01*
X118592133Y-92636107D01*
X118606747Y-92616402D01*
X118623223Y-92598223D01*
X118641402Y-92581747D01*
X118661107Y-92567133D01*
X118682151Y-92554520D01*
X118704329Y-92544030D01*
X118727429Y-92535765D01*
X118751227Y-92529804D01*
X118775496Y-92526204D01*
X118800000Y-92525000D01*
X120000000Y-92525000D01*
X120024504Y-92526204D01*
X120024504Y-92526204D01*
G37*
D18*
G04 #@! TO.P,J6,1*
G04 #@! TO.N,/7*
X119400000Y-93500000D03*
G04 #@! TD*
D25*
G04 #@! TO.P,J7,2*
G04 #@! TO.N,Net-(J7-Pad2)*
X122000000Y-39000000D03*
D17*
G04 #@! TD*
G04 #@! TO.N,Net-(J7-Pad1)*
G04 #@! TO.C,J7*
G36*
X122774504Y-40651204D02*
X122798773Y-40654804D01*
X122822571Y-40660765D01*
X122845671Y-40669030D01*
X122867849Y-40679520D01*
X122888893Y-40692133D01*
X122908598Y-40706747D01*
X122926777Y-40723223D01*
X122943253Y-40741402D01*
X122957867Y-40761107D01*
X122970480Y-40782151D01*
X122980970Y-40804329D01*
X122989235Y-40827429D01*
X122995196Y-40851227D01*
X122998796Y-40875496D01*
X123000000Y-40900000D01*
X123000000Y-42100000D01*
X122998796Y-42124504D01*
X122995196Y-42148773D01*
X122989235Y-42172571D01*
X122980970Y-42195671D01*
X122970480Y-42217849D01*
X122957867Y-42238893D01*
X122943253Y-42258598D01*
X122926777Y-42276777D01*
X122908598Y-42293253D01*
X122888893Y-42307867D01*
X122867849Y-42320480D01*
X122845671Y-42330970D01*
X122822571Y-42339235D01*
X122798773Y-42345196D01*
X122774504Y-42348796D01*
X122750000Y-42350000D01*
X121250000Y-42350000D01*
X121225496Y-42348796D01*
X121201227Y-42345196D01*
X121177429Y-42339235D01*
X121154329Y-42330970D01*
X121132151Y-42320480D01*
X121111107Y-42307867D01*
X121091402Y-42293253D01*
X121073223Y-42276777D01*
X121056747Y-42258598D01*
X121042133Y-42238893D01*
X121029520Y-42217849D01*
X121019030Y-42195671D01*
X121010765Y-42172571D01*
X121004804Y-42148773D01*
X121001204Y-42124504D01*
X121000000Y-42100000D01*
X121000000Y-40900000D01*
X121001204Y-40875496D01*
X121004804Y-40851227D01*
X121010765Y-40827429D01*
X121019030Y-40804329D01*
X121029520Y-40782151D01*
X121042133Y-40761107D01*
X121056747Y-40741402D01*
X121073223Y-40723223D01*
X121091402Y-40706747D01*
X121111107Y-40692133D01*
X121132151Y-40679520D01*
X121154329Y-40669030D01*
X121177429Y-40660765D01*
X121201227Y-40654804D01*
X121225496Y-40651204D01*
X121250000Y-40650000D01*
X122750000Y-40650000D01*
X122774504Y-40651204D01*
X122774504Y-40651204D01*
G37*
D18*
G04 #@! TO.P,J7,1*
G04 #@! TO.N,Net-(J7-Pad1)*
X122000000Y-41500000D03*
G04 #@! TD*
D29*
G04 #@! TO.P,L1,1*
G04 #@! TO.N,Net-(D1-Pad1)*
X112200000Y-64050000D03*
G04 #@! TO.P,L1,2*
G04 #@! TO.N,+5V*
X112200000Y-59900000D03*
G04 #@! TD*
D17*
G04 #@! TO.N,+5V*
G04 #@! TO.C,R1*
G36*
X171349504Y-57776204D02*
X171373773Y-57779804D01*
X171397571Y-57785765D01*
X171420671Y-57794030D01*
X171442849Y-57804520D01*
X171463893Y-57817133D01*
X171483598Y-57831747D01*
X171501777Y-57848223D01*
X171518253Y-57866402D01*
X171532867Y-57886107D01*
X171545480Y-57907151D01*
X171555970Y-57929329D01*
X171564235Y-57952429D01*
X171570196Y-57976227D01*
X171573796Y-58000496D01*
X171575000Y-58025000D01*
X171575000Y-58775000D01*
X171573796Y-58799504D01*
X171570196Y-58823773D01*
X171564235Y-58847571D01*
X171555970Y-58870671D01*
X171545480Y-58892849D01*
X171532867Y-58913893D01*
X171518253Y-58933598D01*
X171501777Y-58951777D01*
X171483598Y-58968253D01*
X171463893Y-58982867D01*
X171442849Y-58995480D01*
X171420671Y-59005970D01*
X171397571Y-59014235D01*
X171373773Y-59020196D01*
X171349504Y-59023796D01*
X171325000Y-59025000D01*
X170075000Y-59025000D01*
X170050496Y-59023796D01*
X170026227Y-59020196D01*
X170002429Y-59014235D01*
X169979329Y-59005970D01*
X169957151Y-58995480D01*
X169936107Y-58982867D01*
X169916402Y-58968253D01*
X169898223Y-58951777D01*
X169881747Y-58933598D01*
X169867133Y-58913893D01*
X169854520Y-58892849D01*
X169844030Y-58870671D01*
X169835765Y-58847571D01*
X169829804Y-58823773D01*
X169826204Y-58799504D01*
X169825000Y-58775000D01*
X169825000Y-58025000D01*
X169826204Y-58000496D01*
X169829804Y-57976227D01*
X169835765Y-57952429D01*
X169844030Y-57929329D01*
X169854520Y-57907151D01*
X169867133Y-57886107D01*
X169881747Y-57866402D01*
X169898223Y-57848223D01*
X169916402Y-57831747D01*
X169936107Y-57817133D01*
X169957151Y-57804520D01*
X169979329Y-57794030D01*
X170002429Y-57785765D01*
X170026227Y-57779804D01*
X170050496Y-57776204D01*
X170075000Y-57775000D01*
X171325000Y-57775000D01*
X171349504Y-57776204D01*
X171349504Y-57776204D01*
G37*
D30*
G04 #@! TD*
G04 #@! TO.P,R1,1*
G04 #@! TO.N,+5V*
X170700000Y-58400000D03*
D17*
G04 #@! TO.N,Net-(J5-Pad2)*
G04 #@! TO.C,R1*
G36*
X171349504Y-60576204D02*
X171373773Y-60579804D01*
X171397571Y-60585765D01*
X171420671Y-60594030D01*
X171442849Y-60604520D01*
X171463893Y-60617133D01*
X171483598Y-60631747D01*
X171501777Y-60648223D01*
X171518253Y-60666402D01*
X171532867Y-60686107D01*
X171545480Y-60707151D01*
X171555970Y-60729329D01*
X171564235Y-60752429D01*
X171570196Y-60776227D01*
X171573796Y-60800496D01*
X171575000Y-60825000D01*
X171575000Y-61575000D01*
X171573796Y-61599504D01*
X171570196Y-61623773D01*
X171564235Y-61647571D01*
X171555970Y-61670671D01*
X171545480Y-61692849D01*
X171532867Y-61713893D01*
X171518253Y-61733598D01*
X171501777Y-61751777D01*
X171483598Y-61768253D01*
X171463893Y-61782867D01*
X171442849Y-61795480D01*
X171420671Y-61805970D01*
X171397571Y-61814235D01*
X171373773Y-61820196D01*
X171349504Y-61823796D01*
X171325000Y-61825000D01*
X170075000Y-61825000D01*
X170050496Y-61823796D01*
X170026227Y-61820196D01*
X170002429Y-61814235D01*
X169979329Y-61805970D01*
X169957151Y-61795480D01*
X169936107Y-61782867D01*
X169916402Y-61768253D01*
X169898223Y-61751777D01*
X169881747Y-61733598D01*
X169867133Y-61713893D01*
X169854520Y-61692849D01*
X169844030Y-61670671D01*
X169835765Y-61647571D01*
X169829804Y-61623773D01*
X169826204Y-61599504D01*
X169825000Y-61575000D01*
X169825000Y-60825000D01*
X169826204Y-60800496D01*
X169829804Y-60776227D01*
X169835765Y-60752429D01*
X169844030Y-60729329D01*
X169854520Y-60707151D01*
X169867133Y-60686107D01*
X169881747Y-60666402D01*
X169898223Y-60648223D01*
X169916402Y-60631747D01*
X169936107Y-60617133D01*
X169957151Y-60604520D01*
X169979329Y-60594030D01*
X170002429Y-60585765D01*
X170026227Y-60579804D01*
X170050496Y-60576204D01*
X170075000Y-60575000D01*
X171325000Y-60575000D01*
X171349504Y-60576204D01*
X171349504Y-60576204D01*
G37*
D30*
G04 #@! TD*
G04 #@! TO.P,R1,2*
G04 #@! TO.N,Net-(J5-Pad2)*
X170700000Y-61200000D03*
D17*
G04 #@! TO.N,Net-(J3-Pad2)*
G04 #@! TO.C,R2*
G36*
X149999504Y-89126204D02*
X150023773Y-89129804D01*
X150047571Y-89135765D01*
X150070671Y-89144030D01*
X150092849Y-89154520D01*
X150113893Y-89167133D01*
X150133598Y-89181747D01*
X150151777Y-89198223D01*
X150168253Y-89216402D01*
X150182867Y-89236107D01*
X150195480Y-89257151D01*
X150205970Y-89279329D01*
X150214235Y-89302429D01*
X150220196Y-89326227D01*
X150223796Y-89350496D01*
X150225000Y-89375000D01*
X150225000Y-90625000D01*
X150223796Y-90649504D01*
X150220196Y-90673773D01*
X150214235Y-90697571D01*
X150205970Y-90720671D01*
X150195480Y-90742849D01*
X150182867Y-90763893D01*
X150168253Y-90783598D01*
X150151777Y-90801777D01*
X150133598Y-90818253D01*
X150113893Y-90832867D01*
X150092849Y-90845480D01*
X150070671Y-90855970D01*
X150047571Y-90864235D01*
X150023773Y-90870196D01*
X149999504Y-90873796D01*
X149975000Y-90875000D01*
X149225000Y-90875000D01*
X149200496Y-90873796D01*
X149176227Y-90870196D01*
X149152429Y-90864235D01*
X149129329Y-90855970D01*
X149107151Y-90845480D01*
X149086107Y-90832867D01*
X149066402Y-90818253D01*
X149048223Y-90801777D01*
X149031747Y-90783598D01*
X149017133Y-90763893D01*
X149004520Y-90742849D01*
X148994030Y-90720671D01*
X148985765Y-90697571D01*
X148979804Y-90673773D01*
X148976204Y-90649504D01*
X148975000Y-90625000D01*
X148975000Y-89375000D01*
X148976204Y-89350496D01*
X148979804Y-89326227D01*
X148985765Y-89302429D01*
X148994030Y-89279329D01*
X149004520Y-89257151D01*
X149017133Y-89236107D01*
X149031747Y-89216402D01*
X149048223Y-89198223D01*
X149066402Y-89181747D01*
X149086107Y-89167133D01*
X149107151Y-89154520D01*
X149129329Y-89144030D01*
X149152429Y-89135765D01*
X149176227Y-89129804D01*
X149200496Y-89126204D01*
X149225000Y-89125000D01*
X149975000Y-89125000D01*
X149999504Y-89126204D01*
X149999504Y-89126204D01*
G37*
D30*
G04 #@! TD*
G04 #@! TO.P,R2,2*
G04 #@! TO.N,Net-(J3-Pad2)*
X149600000Y-90000000D03*
D17*
G04 #@! TO.N,/11*
G04 #@! TO.C,R2*
G36*
X152799504Y-89126204D02*
X152823773Y-89129804D01*
X152847571Y-89135765D01*
X152870671Y-89144030D01*
X152892849Y-89154520D01*
X152913893Y-89167133D01*
X152933598Y-89181747D01*
X152951777Y-89198223D01*
X152968253Y-89216402D01*
X152982867Y-89236107D01*
X152995480Y-89257151D01*
X153005970Y-89279329D01*
X153014235Y-89302429D01*
X153020196Y-89326227D01*
X153023796Y-89350496D01*
X153025000Y-89375000D01*
X153025000Y-90625000D01*
X153023796Y-90649504D01*
X153020196Y-90673773D01*
X153014235Y-90697571D01*
X153005970Y-90720671D01*
X152995480Y-90742849D01*
X152982867Y-90763893D01*
X152968253Y-90783598D01*
X152951777Y-90801777D01*
X152933598Y-90818253D01*
X152913893Y-90832867D01*
X152892849Y-90845480D01*
X152870671Y-90855970D01*
X152847571Y-90864235D01*
X152823773Y-90870196D01*
X152799504Y-90873796D01*
X152775000Y-90875000D01*
X152025000Y-90875000D01*
X152000496Y-90873796D01*
X151976227Y-90870196D01*
X151952429Y-90864235D01*
X151929329Y-90855970D01*
X151907151Y-90845480D01*
X151886107Y-90832867D01*
X151866402Y-90818253D01*
X151848223Y-90801777D01*
X151831747Y-90783598D01*
X151817133Y-90763893D01*
X151804520Y-90742849D01*
X151794030Y-90720671D01*
X151785765Y-90697571D01*
X151779804Y-90673773D01*
X151776204Y-90649504D01*
X151775000Y-90625000D01*
X151775000Y-89375000D01*
X151776204Y-89350496D01*
X151779804Y-89326227D01*
X151785765Y-89302429D01*
X151794030Y-89279329D01*
X151804520Y-89257151D01*
X151817133Y-89236107D01*
X151831747Y-89216402D01*
X151848223Y-89198223D01*
X151866402Y-89181747D01*
X151886107Y-89167133D01*
X151907151Y-89154520D01*
X151929329Y-89144030D01*
X151952429Y-89135765D01*
X151976227Y-89129804D01*
X152000496Y-89126204D01*
X152025000Y-89125000D01*
X152775000Y-89125000D01*
X152799504Y-89126204D01*
X152799504Y-89126204D01*
G37*
D30*
G04 #@! TD*
G04 #@! TO.P,R2,1*
G04 #@! TO.N,/11*
X152400000Y-90000000D03*
D17*
G04 #@! TO.N,Net-(R3-Pad2)*
G04 #@! TO.C,R3*
G36*
X151949504Y-39126204D02*
X151973773Y-39129804D01*
X151997571Y-39135765D01*
X152020671Y-39144030D01*
X152042849Y-39154520D01*
X152063893Y-39167133D01*
X152083598Y-39181747D01*
X152101777Y-39198223D01*
X152118253Y-39216402D01*
X152132867Y-39236107D01*
X152145480Y-39257151D01*
X152155970Y-39279329D01*
X152164235Y-39302429D01*
X152170196Y-39326227D01*
X152173796Y-39350496D01*
X152175000Y-39375000D01*
X152175000Y-40125000D01*
X152173796Y-40149504D01*
X152170196Y-40173773D01*
X152164235Y-40197571D01*
X152155970Y-40220671D01*
X152145480Y-40242849D01*
X152132867Y-40263893D01*
X152118253Y-40283598D01*
X152101777Y-40301777D01*
X152083598Y-40318253D01*
X152063893Y-40332867D01*
X152042849Y-40345480D01*
X152020671Y-40355970D01*
X151997571Y-40364235D01*
X151973773Y-40370196D01*
X151949504Y-40373796D01*
X151925000Y-40375000D01*
X150675000Y-40375000D01*
X150650496Y-40373796D01*
X150626227Y-40370196D01*
X150602429Y-40364235D01*
X150579329Y-40355970D01*
X150557151Y-40345480D01*
X150536107Y-40332867D01*
X150516402Y-40318253D01*
X150498223Y-40301777D01*
X150481747Y-40283598D01*
X150467133Y-40263893D01*
X150454520Y-40242849D01*
X150444030Y-40220671D01*
X150435765Y-40197571D01*
X150429804Y-40173773D01*
X150426204Y-40149504D01*
X150425000Y-40125000D01*
X150425000Y-39375000D01*
X150426204Y-39350496D01*
X150429804Y-39326227D01*
X150435765Y-39302429D01*
X150444030Y-39279329D01*
X150454520Y-39257151D01*
X150467133Y-39236107D01*
X150481747Y-39216402D01*
X150498223Y-39198223D01*
X150516402Y-39181747D01*
X150536107Y-39167133D01*
X150557151Y-39154520D01*
X150579329Y-39144030D01*
X150602429Y-39135765D01*
X150626227Y-39129804D01*
X150650496Y-39126204D01*
X150675000Y-39125000D01*
X151925000Y-39125000D01*
X151949504Y-39126204D01*
X151949504Y-39126204D01*
G37*
D30*
G04 #@! TD*
G04 #@! TO.P,R3,2*
G04 #@! TO.N,Net-(R3-Pad2)*
X151300000Y-39750000D03*
D17*
G04 #@! TO.N,+5V*
G04 #@! TO.C,R3*
G36*
X151949504Y-36326204D02*
X151973773Y-36329804D01*
X151997571Y-36335765D01*
X152020671Y-36344030D01*
X152042849Y-36354520D01*
X152063893Y-36367133D01*
X152083598Y-36381747D01*
X152101777Y-36398223D01*
X152118253Y-36416402D01*
X152132867Y-36436107D01*
X152145480Y-36457151D01*
X152155970Y-36479329D01*
X152164235Y-36502429D01*
X152170196Y-36526227D01*
X152173796Y-36550496D01*
X152175000Y-36575000D01*
X152175000Y-37325000D01*
X152173796Y-37349504D01*
X152170196Y-37373773D01*
X152164235Y-37397571D01*
X152155970Y-37420671D01*
X152145480Y-37442849D01*
X152132867Y-37463893D01*
X152118253Y-37483598D01*
X152101777Y-37501777D01*
X152083598Y-37518253D01*
X152063893Y-37532867D01*
X152042849Y-37545480D01*
X152020671Y-37555970D01*
X151997571Y-37564235D01*
X151973773Y-37570196D01*
X151949504Y-37573796D01*
X151925000Y-37575000D01*
X150675000Y-37575000D01*
X150650496Y-37573796D01*
X150626227Y-37570196D01*
X150602429Y-37564235D01*
X150579329Y-37555970D01*
X150557151Y-37545480D01*
X150536107Y-37532867D01*
X150516402Y-37518253D01*
X150498223Y-37501777D01*
X150481747Y-37483598D01*
X150467133Y-37463893D01*
X150454520Y-37442849D01*
X150444030Y-37420671D01*
X150435765Y-37397571D01*
X150429804Y-37373773D01*
X150426204Y-37349504D01*
X150425000Y-37325000D01*
X150425000Y-36575000D01*
X150426204Y-36550496D01*
X150429804Y-36526227D01*
X150435765Y-36502429D01*
X150444030Y-36479329D01*
X150454520Y-36457151D01*
X150467133Y-36436107D01*
X150481747Y-36416402D01*
X150498223Y-36398223D01*
X150516402Y-36381747D01*
X150536107Y-36367133D01*
X150557151Y-36354520D01*
X150579329Y-36344030D01*
X150602429Y-36335765D01*
X150626227Y-36329804D01*
X150650496Y-36326204D01*
X150675000Y-36325000D01*
X151925000Y-36325000D01*
X151949504Y-36326204D01*
X151949504Y-36326204D01*
G37*
D30*
G04 #@! TD*
G04 #@! TO.P,R3,1*
G04 #@! TO.N,+5V*
X151300000Y-36950000D03*
D17*
G04 #@! TO.N,Net-(R3-Pad2)*
G04 #@! TO.C,R4*
G36*
X151999504Y-41076204D02*
X152023773Y-41079804D01*
X152047571Y-41085765D01*
X152070671Y-41094030D01*
X152092849Y-41104520D01*
X152113893Y-41117133D01*
X152133598Y-41131747D01*
X152151777Y-41148223D01*
X152168253Y-41166402D01*
X152182867Y-41186107D01*
X152195480Y-41207151D01*
X152205970Y-41229329D01*
X152214235Y-41252429D01*
X152220196Y-41276227D01*
X152223796Y-41300496D01*
X152225000Y-41325000D01*
X152225000Y-42075000D01*
X152223796Y-42099504D01*
X152220196Y-42123773D01*
X152214235Y-42147571D01*
X152205970Y-42170671D01*
X152195480Y-42192849D01*
X152182867Y-42213893D01*
X152168253Y-42233598D01*
X152151777Y-42251777D01*
X152133598Y-42268253D01*
X152113893Y-42282867D01*
X152092849Y-42295480D01*
X152070671Y-42305970D01*
X152047571Y-42314235D01*
X152023773Y-42320196D01*
X151999504Y-42323796D01*
X151975000Y-42325000D01*
X150725000Y-42325000D01*
X150700496Y-42323796D01*
X150676227Y-42320196D01*
X150652429Y-42314235D01*
X150629329Y-42305970D01*
X150607151Y-42295480D01*
X150586107Y-42282867D01*
X150566402Y-42268253D01*
X150548223Y-42251777D01*
X150531747Y-42233598D01*
X150517133Y-42213893D01*
X150504520Y-42192849D01*
X150494030Y-42170671D01*
X150485765Y-42147571D01*
X150479804Y-42123773D01*
X150476204Y-42099504D01*
X150475000Y-42075000D01*
X150475000Y-41325000D01*
X150476204Y-41300496D01*
X150479804Y-41276227D01*
X150485765Y-41252429D01*
X150494030Y-41229329D01*
X150504520Y-41207151D01*
X150517133Y-41186107D01*
X150531747Y-41166402D01*
X150548223Y-41148223D01*
X150566402Y-41131747D01*
X150586107Y-41117133D01*
X150607151Y-41104520D01*
X150629329Y-41094030D01*
X150652429Y-41085765D01*
X150676227Y-41079804D01*
X150700496Y-41076204D01*
X150725000Y-41075000D01*
X151975000Y-41075000D01*
X151999504Y-41076204D01*
X151999504Y-41076204D01*
G37*
D30*
G04 #@! TD*
G04 #@! TO.P,R4,1*
G04 #@! TO.N,Net-(R3-Pad2)*
X151350000Y-41700000D03*
D17*
G04 #@! TO.N,GND*
G04 #@! TO.C,R4*
G36*
X151999504Y-43876204D02*
X152023773Y-43879804D01*
X152047571Y-43885765D01*
X152070671Y-43894030D01*
X152092849Y-43904520D01*
X152113893Y-43917133D01*
X152133598Y-43931747D01*
X152151777Y-43948223D01*
X152168253Y-43966402D01*
X152182867Y-43986107D01*
X152195480Y-44007151D01*
X152205970Y-44029329D01*
X152214235Y-44052429D01*
X152220196Y-44076227D01*
X152223796Y-44100496D01*
X152225000Y-44125000D01*
X152225000Y-44875000D01*
X152223796Y-44899504D01*
X152220196Y-44923773D01*
X152214235Y-44947571D01*
X152205970Y-44970671D01*
X152195480Y-44992849D01*
X152182867Y-45013893D01*
X152168253Y-45033598D01*
X152151777Y-45051777D01*
X152133598Y-45068253D01*
X152113893Y-45082867D01*
X152092849Y-45095480D01*
X152070671Y-45105970D01*
X152047571Y-45114235D01*
X152023773Y-45120196D01*
X151999504Y-45123796D01*
X151975000Y-45125000D01*
X150725000Y-45125000D01*
X150700496Y-45123796D01*
X150676227Y-45120196D01*
X150652429Y-45114235D01*
X150629329Y-45105970D01*
X150607151Y-45095480D01*
X150586107Y-45082867D01*
X150566402Y-45068253D01*
X150548223Y-45051777D01*
X150531747Y-45033598D01*
X150517133Y-45013893D01*
X150504520Y-44992849D01*
X150494030Y-44970671D01*
X150485765Y-44947571D01*
X150479804Y-44923773D01*
X150476204Y-44899504D01*
X150475000Y-44875000D01*
X150475000Y-44125000D01*
X150476204Y-44100496D01*
X150479804Y-44076227D01*
X150485765Y-44052429D01*
X150494030Y-44029329D01*
X150504520Y-44007151D01*
X150517133Y-43986107D01*
X150531747Y-43966402D01*
X150548223Y-43948223D01*
X150566402Y-43931747D01*
X150586107Y-43917133D01*
X150607151Y-43904520D01*
X150629329Y-43894030D01*
X150652429Y-43885765D01*
X150676227Y-43879804D01*
X150700496Y-43876204D01*
X150725000Y-43875000D01*
X151975000Y-43875000D01*
X151999504Y-43876204D01*
X151999504Y-43876204D01*
G37*
D30*
G04 #@! TD*
G04 #@! TO.P,R4,2*
G04 #@! TO.N,GND*
X151350000Y-44500000D03*
D17*
G04 #@! TO.N,Net-(J4-Pad4)*
G04 #@! TO.C,R5*
G36*
X141099504Y-89126204D02*
X141123773Y-89129804D01*
X141147571Y-89135765D01*
X141170671Y-89144030D01*
X141192849Y-89154520D01*
X141213893Y-89167133D01*
X141233598Y-89181747D01*
X141251777Y-89198223D01*
X141268253Y-89216402D01*
X141282867Y-89236107D01*
X141295480Y-89257151D01*
X141305970Y-89279329D01*
X141314235Y-89302429D01*
X141320196Y-89326227D01*
X141323796Y-89350496D01*
X141325000Y-89375000D01*
X141325000Y-90625000D01*
X141323796Y-90649504D01*
X141320196Y-90673773D01*
X141314235Y-90697571D01*
X141305970Y-90720671D01*
X141295480Y-90742849D01*
X141282867Y-90763893D01*
X141268253Y-90783598D01*
X141251777Y-90801777D01*
X141233598Y-90818253D01*
X141213893Y-90832867D01*
X141192849Y-90845480D01*
X141170671Y-90855970D01*
X141147571Y-90864235D01*
X141123773Y-90870196D01*
X141099504Y-90873796D01*
X141075000Y-90875000D01*
X140325000Y-90875000D01*
X140300496Y-90873796D01*
X140276227Y-90870196D01*
X140252429Y-90864235D01*
X140229329Y-90855970D01*
X140207151Y-90845480D01*
X140186107Y-90832867D01*
X140166402Y-90818253D01*
X140148223Y-90801777D01*
X140131747Y-90783598D01*
X140117133Y-90763893D01*
X140104520Y-90742849D01*
X140094030Y-90720671D01*
X140085765Y-90697571D01*
X140079804Y-90673773D01*
X140076204Y-90649504D01*
X140075000Y-90625000D01*
X140075000Y-89375000D01*
X140076204Y-89350496D01*
X140079804Y-89326227D01*
X140085765Y-89302429D01*
X140094030Y-89279329D01*
X140104520Y-89257151D01*
X140117133Y-89236107D01*
X140131747Y-89216402D01*
X140148223Y-89198223D01*
X140166402Y-89181747D01*
X140186107Y-89167133D01*
X140207151Y-89154520D01*
X140229329Y-89144030D01*
X140252429Y-89135765D01*
X140276227Y-89129804D01*
X140300496Y-89126204D01*
X140325000Y-89125000D01*
X141075000Y-89125000D01*
X141099504Y-89126204D01*
X141099504Y-89126204D01*
G37*
D30*
G04 #@! TD*
G04 #@! TO.P,R5,2*
G04 #@! TO.N,Net-(J4-Pad4)*
X140700000Y-90000000D03*
D17*
G04 #@! TO.N,/12*
G04 #@! TO.C,R5*
G36*
X143899504Y-89126204D02*
X143923773Y-89129804D01*
X143947571Y-89135765D01*
X143970671Y-89144030D01*
X143992849Y-89154520D01*
X144013893Y-89167133D01*
X144033598Y-89181747D01*
X144051777Y-89198223D01*
X144068253Y-89216402D01*
X144082867Y-89236107D01*
X144095480Y-89257151D01*
X144105970Y-89279329D01*
X144114235Y-89302429D01*
X144120196Y-89326227D01*
X144123796Y-89350496D01*
X144125000Y-89375000D01*
X144125000Y-90625000D01*
X144123796Y-90649504D01*
X144120196Y-90673773D01*
X144114235Y-90697571D01*
X144105970Y-90720671D01*
X144095480Y-90742849D01*
X144082867Y-90763893D01*
X144068253Y-90783598D01*
X144051777Y-90801777D01*
X144033598Y-90818253D01*
X144013893Y-90832867D01*
X143992849Y-90845480D01*
X143970671Y-90855970D01*
X143947571Y-90864235D01*
X143923773Y-90870196D01*
X143899504Y-90873796D01*
X143875000Y-90875000D01*
X143125000Y-90875000D01*
X143100496Y-90873796D01*
X143076227Y-90870196D01*
X143052429Y-90864235D01*
X143029329Y-90855970D01*
X143007151Y-90845480D01*
X142986107Y-90832867D01*
X142966402Y-90818253D01*
X142948223Y-90801777D01*
X142931747Y-90783598D01*
X142917133Y-90763893D01*
X142904520Y-90742849D01*
X142894030Y-90720671D01*
X142885765Y-90697571D01*
X142879804Y-90673773D01*
X142876204Y-90649504D01*
X142875000Y-90625000D01*
X142875000Y-89375000D01*
X142876204Y-89350496D01*
X142879804Y-89326227D01*
X142885765Y-89302429D01*
X142894030Y-89279329D01*
X142904520Y-89257151D01*
X142917133Y-89236107D01*
X142931747Y-89216402D01*
X142948223Y-89198223D01*
X142966402Y-89181747D01*
X142986107Y-89167133D01*
X143007151Y-89154520D01*
X143029329Y-89144030D01*
X143052429Y-89135765D01*
X143076227Y-89129804D01*
X143100496Y-89126204D01*
X143125000Y-89125000D01*
X143875000Y-89125000D01*
X143899504Y-89126204D01*
X143899504Y-89126204D01*
G37*
D30*
G04 #@! TD*
G04 #@! TO.P,R5,1*
G04 #@! TO.N,/12*
X143500000Y-90000000D03*
D17*
G04 #@! TO.N,/4*
G04 #@! TO.C,R6*
G36*
X155899504Y-35926204D02*
X155923773Y-35929804D01*
X155947571Y-35935765D01*
X155970671Y-35944030D01*
X155992849Y-35954520D01*
X156013893Y-35967133D01*
X156033598Y-35981747D01*
X156051777Y-35998223D01*
X156068253Y-36016402D01*
X156082867Y-36036107D01*
X156095480Y-36057151D01*
X156105970Y-36079329D01*
X156114235Y-36102429D01*
X156120196Y-36126227D01*
X156123796Y-36150496D01*
X156125000Y-36175000D01*
X156125000Y-37425000D01*
X156123796Y-37449504D01*
X156120196Y-37473773D01*
X156114235Y-37497571D01*
X156105970Y-37520671D01*
X156095480Y-37542849D01*
X156082867Y-37563893D01*
X156068253Y-37583598D01*
X156051777Y-37601777D01*
X156033598Y-37618253D01*
X156013893Y-37632867D01*
X155992849Y-37645480D01*
X155970671Y-37655970D01*
X155947571Y-37664235D01*
X155923773Y-37670196D01*
X155899504Y-37673796D01*
X155875000Y-37675000D01*
X155125000Y-37675000D01*
X155100496Y-37673796D01*
X155076227Y-37670196D01*
X155052429Y-37664235D01*
X155029329Y-37655970D01*
X155007151Y-37645480D01*
X154986107Y-37632867D01*
X154966402Y-37618253D01*
X154948223Y-37601777D01*
X154931747Y-37583598D01*
X154917133Y-37563893D01*
X154904520Y-37542849D01*
X154894030Y-37520671D01*
X154885765Y-37497571D01*
X154879804Y-37473773D01*
X154876204Y-37449504D01*
X154875000Y-37425000D01*
X154875000Y-36175000D01*
X154876204Y-36150496D01*
X154879804Y-36126227D01*
X154885765Y-36102429D01*
X154894030Y-36079329D01*
X154904520Y-36057151D01*
X154917133Y-36036107D01*
X154931747Y-36016402D01*
X154948223Y-35998223D01*
X154966402Y-35981747D01*
X154986107Y-35967133D01*
X155007151Y-35954520D01*
X155029329Y-35944030D01*
X155052429Y-35935765D01*
X155076227Y-35929804D01*
X155100496Y-35926204D01*
X155125000Y-35925000D01*
X155875000Y-35925000D01*
X155899504Y-35926204D01*
X155899504Y-35926204D01*
G37*
D30*
G04 #@! TD*
G04 #@! TO.P,R6,2*
G04 #@! TO.N,/4*
X155500000Y-36800000D03*
D17*
G04 #@! TO.N,+5V*
G04 #@! TO.C,R6*
G36*
X158699504Y-35926204D02*
X158723773Y-35929804D01*
X158747571Y-35935765D01*
X158770671Y-35944030D01*
X158792849Y-35954520D01*
X158813893Y-35967133D01*
X158833598Y-35981747D01*
X158851777Y-35998223D01*
X158868253Y-36016402D01*
X158882867Y-36036107D01*
X158895480Y-36057151D01*
X158905970Y-36079329D01*
X158914235Y-36102429D01*
X158920196Y-36126227D01*
X158923796Y-36150496D01*
X158925000Y-36175000D01*
X158925000Y-37425000D01*
X158923796Y-37449504D01*
X158920196Y-37473773D01*
X158914235Y-37497571D01*
X158905970Y-37520671D01*
X158895480Y-37542849D01*
X158882867Y-37563893D01*
X158868253Y-37583598D01*
X158851777Y-37601777D01*
X158833598Y-37618253D01*
X158813893Y-37632867D01*
X158792849Y-37645480D01*
X158770671Y-37655970D01*
X158747571Y-37664235D01*
X158723773Y-37670196D01*
X158699504Y-37673796D01*
X158675000Y-37675000D01*
X157925000Y-37675000D01*
X157900496Y-37673796D01*
X157876227Y-37670196D01*
X157852429Y-37664235D01*
X157829329Y-37655970D01*
X157807151Y-37645480D01*
X157786107Y-37632867D01*
X157766402Y-37618253D01*
X157748223Y-37601777D01*
X157731747Y-37583598D01*
X157717133Y-37563893D01*
X157704520Y-37542849D01*
X157694030Y-37520671D01*
X157685765Y-37497571D01*
X157679804Y-37473773D01*
X157676204Y-37449504D01*
X157675000Y-37425000D01*
X157675000Y-36175000D01*
X157676204Y-36150496D01*
X157679804Y-36126227D01*
X157685765Y-36102429D01*
X157694030Y-36079329D01*
X157704520Y-36057151D01*
X157717133Y-36036107D01*
X157731747Y-36016402D01*
X157748223Y-35998223D01*
X157766402Y-35981747D01*
X157786107Y-35967133D01*
X157807151Y-35954520D01*
X157829329Y-35944030D01*
X157852429Y-35935765D01*
X157876227Y-35929804D01*
X157900496Y-35926204D01*
X157925000Y-35925000D01*
X158675000Y-35925000D01*
X158699504Y-35926204D01*
X158699504Y-35926204D01*
G37*
D30*
G04 #@! TD*
G04 #@! TO.P,R6,1*
G04 #@! TO.N,+5V*
X158300000Y-36800000D03*
D17*
G04 #@! TO.N,/7*
G04 #@! TO.C,R7*
G36*
X120049504Y-89376204D02*
X120073773Y-89379804D01*
X120097571Y-89385765D01*
X120120671Y-89394030D01*
X120142849Y-89404520D01*
X120163893Y-89417133D01*
X120183598Y-89431747D01*
X120201777Y-89448223D01*
X120218253Y-89466402D01*
X120232867Y-89486107D01*
X120245480Y-89507151D01*
X120255970Y-89529329D01*
X120264235Y-89552429D01*
X120270196Y-89576227D01*
X120273796Y-89600496D01*
X120275000Y-89625000D01*
X120275000Y-90375000D01*
X120273796Y-90399504D01*
X120270196Y-90423773D01*
X120264235Y-90447571D01*
X120255970Y-90470671D01*
X120245480Y-90492849D01*
X120232867Y-90513893D01*
X120218253Y-90533598D01*
X120201777Y-90551777D01*
X120183598Y-90568253D01*
X120163893Y-90582867D01*
X120142849Y-90595480D01*
X120120671Y-90605970D01*
X120097571Y-90614235D01*
X120073773Y-90620196D01*
X120049504Y-90623796D01*
X120025000Y-90625000D01*
X118775000Y-90625000D01*
X118750496Y-90623796D01*
X118726227Y-90620196D01*
X118702429Y-90614235D01*
X118679329Y-90605970D01*
X118657151Y-90595480D01*
X118636107Y-90582867D01*
X118616402Y-90568253D01*
X118598223Y-90551777D01*
X118581747Y-90533598D01*
X118567133Y-90513893D01*
X118554520Y-90492849D01*
X118544030Y-90470671D01*
X118535765Y-90447571D01*
X118529804Y-90423773D01*
X118526204Y-90399504D01*
X118525000Y-90375000D01*
X118525000Y-89625000D01*
X118526204Y-89600496D01*
X118529804Y-89576227D01*
X118535765Y-89552429D01*
X118544030Y-89529329D01*
X118554520Y-89507151D01*
X118567133Y-89486107D01*
X118581747Y-89466402D01*
X118598223Y-89448223D01*
X118616402Y-89431747D01*
X118636107Y-89417133D01*
X118657151Y-89404520D01*
X118679329Y-89394030D01*
X118702429Y-89385765D01*
X118726227Y-89379804D01*
X118750496Y-89376204D01*
X118775000Y-89375000D01*
X120025000Y-89375000D01*
X120049504Y-89376204D01*
X120049504Y-89376204D01*
G37*
D30*
G04 #@! TD*
G04 #@! TO.P,R7,1*
G04 #@! TO.N,/7*
X119400000Y-90000000D03*
D17*
G04 #@! TO.N,GND*
G04 #@! TO.C,R7*
G36*
X120049504Y-86576204D02*
X120073773Y-86579804D01*
X120097571Y-86585765D01*
X120120671Y-86594030D01*
X120142849Y-86604520D01*
X120163893Y-86617133D01*
X120183598Y-86631747D01*
X120201777Y-86648223D01*
X120218253Y-86666402D01*
X120232867Y-86686107D01*
X120245480Y-86707151D01*
X120255970Y-86729329D01*
X120264235Y-86752429D01*
X120270196Y-86776227D01*
X120273796Y-86800496D01*
X120275000Y-86825000D01*
X120275000Y-87575000D01*
X120273796Y-87599504D01*
X120270196Y-87623773D01*
X120264235Y-87647571D01*
X120255970Y-87670671D01*
X120245480Y-87692849D01*
X120232867Y-87713893D01*
X120218253Y-87733598D01*
X120201777Y-87751777D01*
X120183598Y-87768253D01*
X120163893Y-87782867D01*
X120142849Y-87795480D01*
X120120671Y-87805970D01*
X120097571Y-87814235D01*
X120073773Y-87820196D01*
X120049504Y-87823796D01*
X120025000Y-87825000D01*
X118775000Y-87825000D01*
X118750496Y-87823796D01*
X118726227Y-87820196D01*
X118702429Y-87814235D01*
X118679329Y-87805970D01*
X118657151Y-87795480D01*
X118636107Y-87782867D01*
X118616402Y-87768253D01*
X118598223Y-87751777D01*
X118581747Y-87733598D01*
X118567133Y-87713893D01*
X118554520Y-87692849D01*
X118544030Y-87670671D01*
X118535765Y-87647571D01*
X118529804Y-87623773D01*
X118526204Y-87599504D01*
X118525000Y-87575000D01*
X118525000Y-86825000D01*
X118526204Y-86800496D01*
X118529804Y-86776227D01*
X118535765Y-86752429D01*
X118544030Y-86729329D01*
X118554520Y-86707151D01*
X118567133Y-86686107D01*
X118581747Y-86666402D01*
X118598223Y-86648223D01*
X118616402Y-86631747D01*
X118636107Y-86617133D01*
X118657151Y-86604520D01*
X118679329Y-86594030D01*
X118702429Y-86585765D01*
X118726227Y-86579804D01*
X118750496Y-86576204D01*
X118775000Y-86575000D01*
X120025000Y-86575000D01*
X120049504Y-86576204D01*
X120049504Y-86576204D01*
G37*
D30*
G04 #@! TD*
G04 #@! TO.P,R7,2*
G04 #@! TO.N,GND*
X119400000Y-87200000D03*
D17*
G04 #@! TO.N,/8*
G04 #@! TO.C,R8*
G36*
X125049504Y-89326204D02*
X125073773Y-89329804D01*
X125097571Y-89335765D01*
X125120671Y-89344030D01*
X125142849Y-89354520D01*
X125163893Y-89367133D01*
X125183598Y-89381747D01*
X125201777Y-89398223D01*
X125218253Y-89416402D01*
X125232867Y-89436107D01*
X125245480Y-89457151D01*
X125255970Y-89479329D01*
X125264235Y-89502429D01*
X125270196Y-89526227D01*
X125273796Y-89550496D01*
X125275000Y-89575000D01*
X125275000Y-90325000D01*
X125273796Y-90349504D01*
X125270196Y-90373773D01*
X125264235Y-90397571D01*
X125255970Y-90420671D01*
X125245480Y-90442849D01*
X125232867Y-90463893D01*
X125218253Y-90483598D01*
X125201777Y-90501777D01*
X125183598Y-90518253D01*
X125163893Y-90532867D01*
X125142849Y-90545480D01*
X125120671Y-90555970D01*
X125097571Y-90564235D01*
X125073773Y-90570196D01*
X125049504Y-90573796D01*
X125025000Y-90575000D01*
X123775000Y-90575000D01*
X123750496Y-90573796D01*
X123726227Y-90570196D01*
X123702429Y-90564235D01*
X123679329Y-90555970D01*
X123657151Y-90545480D01*
X123636107Y-90532867D01*
X123616402Y-90518253D01*
X123598223Y-90501777D01*
X123581747Y-90483598D01*
X123567133Y-90463893D01*
X123554520Y-90442849D01*
X123544030Y-90420671D01*
X123535765Y-90397571D01*
X123529804Y-90373773D01*
X123526204Y-90349504D01*
X123525000Y-90325000D01*
X123525000Y-89575000D01*
X123526204Y-89550496D01*
X123529804Y-89526227D01*
X123535765Y-89502429D01*
X123544030Y-89479329D01*
X123554520Y-89457151D01*
X123567133Y-89436107D01*
X123581747Y-89416402D01*
X123598223Y-89398223D01*
X123616402Y-89381747D01*
X123636107Y-89367133D01*
X123657151Y-89354520D01*
X123679329Y-89344030D01*
X123702429Y-89335765D01*
X123726227Y-89329804D01*
X123750496Y-89326204D01*
X123775000Y-89325000D01*
X125025000Y-89325000D01*
X125049504Y-89326204D01*
X125049504Y-89326204D01*
G37*
D30*
G04 #@! TD*
G04 #@! TO.P,R8,1*
G04 #@! TO.N,/8*
X124400000Y-89950000D03*
D17*
G04 #@! TO.N,GND*
G04 #@! TO.C,R8*
G36*
X125049504Y-86526204D02*
X125073773Y-86529804D01*
X125097571Y-86535765D01*
X125120671Y-86544030D01*
X125142849Y-86554520D01*
X125163893Y-86567133D01*
X125183598Y-86581747D01*
X125201777Y-86598223D01*
X125218253Y-86616402D01*
X125232867Y-86636107D01*
X125245480Y-86657151D01*
X125255970Y-86679329D01*
X125264235Y-86702429D01*
X125270196Y-86726227D01*
X125273796Y-86750496D01*
X125275000Y-86775000D01*
X125275000Y-87525000D01*
X125273796Y-87549504D01*
X125270196Y-87573773D01*
X125264235Y-87597571D01*
X125255970Y-87620671D01*
X125245480Y-87642849D01*
X125232867Y-87663893D01*
X125218253Y-87683598D01*
X125201777Y-87701777D01*
X125183598Y-87718253D01*
X125163893Y-87732867D01*
X125142849Y-87745480D01*
X125120671Y-87755970D01*
X125097571Y-87764235D01*
X125073773Y-87770196D01*
X125049504Y-87773796D01*
X125025000Y-87775000D01*
X123775000Y-87775000D01*
X123750496Y-87773796D01*
X123726227Y-87770196D01*
X123702429Y-87764235D01*
X123679329Y-87755970D01*
X123657151Y-87745480D01*
X123636107Y-87732867D01*
X123616402Y-87718253D01*
X123598223Y-87701777D01*
X123581747Y-87683598D01*
X123567133Y-87663893D01*
X123554520Y-87642849D01*
X123544030Y-87620671D01*
X123535765Y-87597571D01*
X123529804Y-87573773D01*
X123526204Y-87549504D01*
X123525000Y-87525000D01*
X123525000Y-86775000D01*
X123526204Y-86750496D01*
X123529804Y-86726227D01*
X123535765Y-86702429D01*
X123544030Y-86679329D01*
X123554520Y-86657151D01*
X123567133Y-86636107D01*
X123581747Y-86616402D01*
X123598223Y-86598223D01*
X123616402Y-86581747D01*
X123636107Y-86567133D01*
X123657151Y-86554520D01*
X123679329Y-86544030D01*
X123702429Y-86535765D01*
X123726227Y-86529804D01*
X123750496Y-86526204D01*
X123775000Y-86525000D01*
X125025000Y-86525000D01*
X125049504Y-86526204D01*
X125049504Y-86526204D01*
G37*
D30*
G04 #@! TD*
G04 #@! TO.P,R8,2*
G04 #@! TO.N,GND*
X124400000Y-87150000D03*
D31*
G04 #@! TO.P,REF\002A\002A,1*
G04 #@! TO.N,N/C*
X123200000Y-48300000D03*
G04 #@! TD*
G04 #@! TO.P,REF\002A\002A,1*
G04 #@! TO.N,N/C*
X122600000Y-82400000D03*
G04 #@! TD*
G04 #@! TO.P,REF\002A\002A,1*
G04 #@! TO.N,N/C*
X156100000Y-81500000D03*
G04 #@! TD*
D32*
G04 #@! TO.N,/Reset*
X164100000Y-56000000D03*
G04 #@! TO.N,GND*
X114900000Y-81200000D03*
X111900000Y-81100000D03*
X108800000Y-81100000D03*
X114900000Y-78800000D03*
X111900000Y-78700000D03*
X108800000Y-78700000D03*
X114900000Y-76200000D03*
X111800000Y-76200000D03*
X108800000Y-76200000D03*
X128000000Y-46100000D03*
X118500000Y-43300000D03*
X155500000Y-44600000D03*
X161500000Y-44600000D03*
X160300000Y-34800000D03*
D33*
X153600000Y-44600000D03*
D32*
X165600000Y-58500000D03*
X129000000Y-87600000D03*
X134200000Y-87600000D03*
X167400000Y-63500000D03*
X167400000Y-69400000D03*
X113700000Y-41200000D03*
X158300000Y-48300000D03*
X165400000Y-39300000D03*
X138880000Y-40200000D03*
X126000000Y-37600000D03*
X174200000Y-45100000D03*
X173000000Y-52200000D03*
G04 #@! TO.N,/2*
X137100000Y-38000000D03*
G04 #@! TO.N,/4*
X153700000Y-39200000D03*
D33*
G04 #@! TO.N,+5V*
X107300000Y-62200000D03*
X107300000Y-64819998D03*
G04 #@! TO.N,+12V*
X119300000Y-52700000D03*
D32*
G04 #@! TO.N,Net-(J5-Pad2)*
X171300000Y-63000000D03*
G04 #@! TO.N,Net-(J7-Pad2)*
X141400000Y-39000000D03*
G04 #@! TO.N,Net-(J7-Pad1)*
X133800000Y-40700000D03*
G04 #@! TD*
D34*
G04 #@! TO.N,/1(Tx)*
X165140000Y-48502400D02*
X165140000Y-48350000D01*
X162752400Y-50890000D02*
X165140000Y-48502400D01*
X161330000Y-50890000D02*
X162752400Y-50890000D01*
G04 #@! TO.N,/0(Rx)*
X162752400Y-53430000D02*
X167680000Y-48502400D01*
X167680000Y-48502400D02*
X167680000Y-48350000D01*
X161330000Y-53430000D02*
X162752400Y-53430000D01*
G04 #@! TO.N,/Reset*
X161360000Y-56000000D02*
X161330000Y-55970000D01*
X164100000Y-56000000D02*
X161360000Y-56000000D01*
D35*
G04 #@! TO.N,GND*
X108400000Y-72750000D02*
X108400000Y-69850000D01*
X111799999Y-72750001D02*
X108400000Y-72750000D01*
X111800000Y-69850000D02*
X111799999Y-72750001D01*
X155600000Y-44500000D02*
X155500000Y-44600000D01*
X155600000Y-43000000D02*
X155600000Y-44500000D01*
X161000000Y-44100000D02*
X161500000Y-44600000D01*
X161000000Y-43000000D02*
X161000000Y-44100000D01*
D34*
G04 #@! TO.N,/2*
X161330000Y-61050000D02*
X161177600Y-61050000D01*
X161177600Y-61050000D02*
X159300000Y-59172400D01*
X147775012Y-42975012D02*
X159300000Y-54500000D01*
X147775012Y-42675010D02*
X147775012Y-42975012D01*
X143100002Y-38000000D02*
X147775012Y-42675010D01*
X137100000Y-38000000D02*
X143100002Y-38000000D01*
X159300000Y-59172400D02*
X159300000Y-54500000D01*
G04 #@! TO.N,/4*
X155500000Y-39090000D02*
X155600000Y-39190000D01*
X155600000Y-39190000D02*
X156075000Y-39190000D01*
X155500000Y-36800000D02*
X155500000Y-39090000D01*
X155590000Y-39200000D02*
X155600000Y-39190000D01*
X153700000Y-39200000D02*
X155590000Y-39200000D01*
G04 #@! TO.N,/7*
X119400000Y-90725000D02*
X119400000Y-93500000D01*
X119400000Y-90000000D02*
X119400000Y-90725000D01*
X119400000Y-90000000D02*
X123600000Y-85800000D01*
X123600000Y-85800000D02*
X123620129Y-85779871D01*
X161330000Y-73750000D02*
X161177600Y-73750000D01*
X159300000Y-81966882D02*
X155066882Y-86200000D01*
X161177600Y-73750000D02*
X159300000Y-75627600D01*
X127042880Y-85800000D02*
X123600000Y-85800000D01*
X159300000Y-75627600D02*
X159300000Y-81966882D01*
X127442880Y-86200000D02*
X127042880Y-85800000D01*
X127442880Y-86200000D02*
X155066882Y-86200000D01*
G04 #@! TO.N,/8*
X124400000Y-90675000D02*
X124400000Y-93500000D01*
X124400000Y-89950000D02*
X124400000Y-90675000D01*
X161177600Y-76290000D02*
X161330000Y-76290000D01*
X125095710Y-89254290D02*
X124400000Y-89950000D01*
X161330000Y-76290000D02*
X161482400Y-76290000D01*
X137845710Y-89254290D02*
X125095710Y-89254290D01*
X162696010Y-77503610D02*
X162696010Y-79332693D01*
X162696010Y-79332693D02*
X155300000Y-86728703D01*
X161482400Y-76290000D02*
X162696010Y-77503610D01*
X140371297Y-86728703D02*
X137845710Y-89254290D01*
X140371297Y-86728703D02*
X155300000Y-86728703D01*
D36*
G04 #@! TO.N,+5V*
X110100000Y-71810002D02*
X110100000Y-69850000D01*
X110100000Y-67889998D02*
X110100000Y-69850000D01*
D35*
X112200000Y-59900000D02*
X110825000Y-59900000D01*
D36*
X126900000Y-93625000D02*
X126900000Y-93500000D01*
X121900000Y-93500000D02*
X121900000Y-93625000D01*
D35*
X113575000Y-59900000D02*
X112200000Y-59900000D01*
X115350000Y-48500000D02*
X115350000Y-58125000D01*
X115350000Y-58125000D02*
X113575000Y-59900000D01*
X114050000Y-47200000D02*
X115350000Y-48500000D01*
X112700000Y-47200000D02*
X114050000Y-47200000D01*
X114020710Y-45879290D02*
X114020710Y-44078667D01*
X112700000Y-47200000D02*
X114020710Y-45879290D01*
X150950000Y-37300000D02*
X151300000Y-36950000D01*
X112200000Y-59900000D02*
X109600000Y-59900000D01*
X109600000Y-59900000D02*
X107300000Y-62200000D01*
X110100000Y-67619998D02*
X110100000Y-69850000D01*
X107300000Y-64819998D02*
X107300000Y-64819998D01*
X107300000Y-62200000D02*
X107300000Y-64819998D01*
X107300000Y-64819998D02*
X110100000Y-67619998D01*
X158900000Y-37400000D02*
X158300000Y-36800000D01*
X158610000Y-36800000D02*
X161000000Y-39190000D01*
X158300000Y-36800000D02*
X158610000Y-36800000D01*
X170220000Y-47735000D02*
X170220000Y-48350000D01*
X174734999Y-58290999D02*
X174954000Y-58510000D01*
X170220000Y-48350000D02*
X170220000Y-48502400D01*
X170220000Y-57320000D02*
X171300000Y-58400000D01*
X170220000Y-48350000D02*
X170220000Y-57320000D01*
X174954000Y-58510000D02*
X176570000Y-58510000D01*
X174148290Y-57704290D02*
X174954000Y-58510000D01*
X171395710Y-57704290D02*
X174148290Y-57704290D01*
X170700000Y-58400000D02*
X171395710Y-57704290D01*
X122469377Y-35630000D02*
X128720000Y-35630000D01*
X114020710Y-44078667D02*
X122469377Y-35630000D01*
X150325000Y-36950000D02*
X151300000Y-36950000D01*
X150244999Y-37030001D02*
X150325000Y-36950000D01*
X130120001Y-37030001D02*
X150244999Y-37030001D01*
X128720000Y-35630000D02*
X130120001Y-37030001D01*
X156824990Y-35324990D02*
X157604290Y-36104290D01*
X152925010Y-35324990D02*
X156824990Y-35324990D01*
X157604290Y-36104290D02*
X158300000Y-36800000D01*
X151300000Y-36950000D02*
X152925010Y-35324990D01*
X162676000Y-39190000D02*
X161000000Y-39190000D01*
X170220000Y-48350000D02*
X170220000Y-46734000D01*
X170220000Y-46734000D02*
X162676000Y-39190000D01*
X176570000Y-58510000D02*
X176722400Y-58510000D01*
X176722400Y-58510000D02*
X178186000Y-59973600D01*
X177529999Y-82950001D02*
X176680000Y-83800000D01*
X178186010Y-82293990D02*
X177529999Y-82950001D01*
X178186010Y-73143753D02*
X178186010Y-82293990D01*
X178186000Y-73143743D02*
X178186010Y-73143753D01*
X178186000Y-59973600D02*
X178186000Y-73143743D01*
G04 #@! TO.N,+12V*
X146500000Y-43250000D02*
X146032002Y-43250000D01*
X115200000Y-68100000D02*
X115200000Y-69850000D01*
X115200000Y-66950000D02*
X115200000Y-69850000D01*
X116250010Y-65899990D02*
X115200000Y-66950000D01*
X116250010Y-55649990D02*
X116250010Y-65899990D01*
X116350010Y-55649990D02*
X119300000Y-52700000D01*
X116250010Y-55649990D02*
X116350010Y-55649990D01*
X101800000Y-57450000D02*
X101800000Y-58900000D01*
X100200000Y-55850000D02*
X101800000Y-57450000D01*
X100200000Y-50600000D02*
X100200000Y-55850000D01*
X102500000Y-48300000D02*
X100200000Y-50600000D01*
X146500000Y-43250000D02*
X145099999Y-41849999D01*
X145099999Y-41849999D02*
X127439999Y-41849999D01*
X126339988Y-42950010D02*
X123549990Y-42950010D01*
X127439999Y-41849999D02*
X126339988Y-42950010D01*
X119300000Y-47200000D02*
X119300000Y-52700000D01*
X123549990Y-42950010D02*
X119300000Y-47200000D01*
G04 #@! TO.N,Net-(D1-Pad1)*
X113500000Y-67125000D02*
X113500000Y-69850000D01*
X112200000Y-65825000D02*
X112775000Y-66400000D01*
X112200000Y-64050000D02*
X112200000Y-65825000D01*
X112775000Y-66400000D02*
X113500000Y-67125000D01*
X112550001Y-73699999D02*
X104950001Y-73699999D01*
X113500000Y-72750000D02*
X112550001Y-73699999D01*
X113500000Y-69850000D02*
X113500000Y-72750000D01*
X102500000Y-76150000D02*
X102500000Y-82300000D01*
X104950001Y-73699999D02*
X102500000Y-76150000D01*
D34*
G04 #@! TO.N,Net-(J3-Pad2)*
X149700000Y-93400000D02*
X149600000Y-93500000D01*
X149600000Y-90975000D02*
X149600000Y-93500000D01*
X149600000Y-90000000D02*
X149600000Y-90975000D01*
G04 #@! TO.N,Net-(J4-Pad4)*
X140700000Y-93400000D02*
X140800000Y-93500000D01*
X140700000Y-90000000D02*
X140700000Y-93400000D01*
G04 #@! TO.N,/13*
X138300000Y-90551454D02*
X138300000Y-93500000D01*
X141507732Y-87343722D02*
X138300000Y-90551454D01*
X161000000Y-87343722D02*
X141507732Y-87343722D01*
X176570000Y-71210000D02*
X176570000Y-71773722D01*
X176570000Y-71773722D02*
X161000000Y-87343722D01*
G04 #@! TO.N,Net-(J5-Pad2)*
X168906390Y-59406390D02*
X170700000Y-61200000D01*
X168906390Y-47707687D02*
X168906390Y-59406390D01*
X170700000Y-62400000D02*
X171300000Y-63000000D01*
X170700000Y-61200000D02*
X170700000Y-62400000D01*
X156075000Y-41730000D02*
X155600000Y-41730000D01*
X168906390Y-47707687D02*
X166748704Y-45550001D01*
X160495001Y-45550001D02*
X166748704Y-45550001D01*
X156675000Y-41730000D02*
X160495001Y-45550001D01*
X155600000Y-41730000D02*
X156675000Y-41730000D01*
G04 #@! TO.N,/3*
X145210000Y-44500000D02*
X148500000Y-44500000D01*
X143960000Y-43250000D02*
X145210000Y-44500000D01*
X158800000Y-61212400D02*
X158800000Y-54800000D01*
X161177600Y-63590000D02*
X158800000Y-61212400D01*
X161330000Y-63590000D02*
X161177600Y-63590000D01*
X158800000Y-54800000D02*
X158700000Y-54700000D01*
X158700000Y-54700000D02*
X148500000Y-44500000D01*
G04 #@! TO.N,Net-(J7-Pad2)*
X141400000Y-39000000D02*
X122000000Y-39000000D01*
G04 #@! TO.N,Net-(J7-Pad1)*
X126207324Y-40700000D02*
X133800000Y-40700000D01*
X125407324Y-41500000D02*
X122000000Y-41500000D01*
X126207324Y-40700000D02*
X125407324Y-41500000D01*
G04 #@! TO.N,/10*
X176570000Y-81370000D02*
X174140000Y-83800000D01*
X176570000Y-78830000D02*
X176570000Y-81370000D01*
G04 #@! TO.N,/11*
X175254000Y-77453600D02*
X176417600Y-76290000D01*
X152500000Y-90300000D02*
X154100000Y-88700000D01*
X176417600Y-76290000D02*
X176570000Y-76290000D01*
X160350850Y-88700008D02*
X163141399Y-88700008D01*
X160250842Y-88700000D02*
X160250850Y-88700008D01*
X163141399Y-88700008D02*
X174387807Y-77453600D01*
X154100000Y-88700000D02*
X163050842Y-88700000D01*
X174387807Y-77453600D02*
X175254000Y-77453600D01*
G04 #@! TO.N,/12*
X176417600Y-73750000D02*
X176570000Y-73750000D01*
X143600000Y-90300000D02*
X145900000Y-88000000D01*
X162167600Y-88000000D02*
X162200000Y-87967600D01*
X162200000Y-87967600D02*
X176417600Y-73750000D01*
X160235200Y-88000000D02*
X145900000Y-88000000D01*
X160267600Y-87967600D02*
X160235200Y-88000000D01*
X162200000Y-87967600D02*
X160267600Y-87967600D01*
G04 #@! TO.N,Net-(R3-Pad2)*
X151300000Y-41650000D02*
X151350000Y-41700000D01*
X151300000Y-39750000D02*
X151300000Y-41650000D01*
X154525000Y-40460000D02*
X155600000Y-40460000D01*
X153565000Y-40460000D02*
X154525000Y-40460000D01*
X152325000Y-41700000D02*
X153565000Y-40460000D01*
X151350000Y-41700000D02*
X152325000Y-41700000D01*
G04 #@! TO.N,/5*
X161177600Y-78830000D02*
X161330000Y-78830000D01*
G04 #@! TD*
D37*
G04 #@! TO.N,GND*
G36*
X161715001Y-37832533D02*
X161701581Y-37900000D01*
X161754745Y-38167273D01*
X161809656Y-38249453D01*
X161775000Y-38242560D01*
X161374850Y-38242560D01*
X159572440Y-36440151D01*
X159572440Y-36175000D01*
X159504126Y-35831565D01*
X159309586Y-35540414D01*
X159018435Y-35345874D01*
X158675000Y-35277560D01*
X158099849Y-35277560D01*
X157551251Y-34728962D01*
X157499087Y-34650893D01*
X157189809Y-34444240D01*
X156917076Y-34389990D01*
X156824990Y-34371673D01*
X156732904Y-34389990D01*
X153017091Y-34389990D01*
X152925009Y-34371674D01*
X152832927Y-34389990D01*
X152832924Y-34389990D01*
X152560191Y-34444240D01*
X152250913Y-34650893D01*
X152198751Y-34728959D01*
X151250151Y-35677560D01*
X150675000Y-35677560D01*
X150331565Y-35745874D01*
X150040414Y-35940414D01*
X149949609Y-36076314D01*
X149921642Y-36095001D01*
X147837032Y-36095001D01*
X147891914Y-35979041D01*
X147770629Y-35757000D01*
X146627000Y-35757000D01*
X146627000Y-35777000D01*
X146373000Y-35777000D01*
X146373000Y-35757000D01*
X146353000Y-35757000D01*
X146353000Y-35503000D01*
X146373000Y-35503000D01*
X146373000Y-34360085D01*
X146627000Y-34360085D01*
X146627000Y-35503000D01*
X147770629Y-35503000D01*
X147891914Y-35280959D01*
X147652389Y-34774866D01*
X147237423Y-34398959D01*
X146849039Y-34238096D01*
X146627000Y-34360085D01*
X146373000Y-34360085D01*
X146150961Y-34238096D01*
X145762577Y-34398959D01*
X145347611Y-34774866D01*
X145250947Y-34979108D01*
X144994577Y-34595423D01*
X144519909Y-34278260D01*
X144101333Y-34195000D01*
X143818667Y-34195000D01*
X143400091Y-34278260D01*
X142925423Y-34595423D01*
X142690000Y-34947758D01*
X142454577Y-34595423D01*
X141979909Y-34278260D01*
X141561333Y-34195000D01*
X141278667Y-34195000D01*
X140860091Y-34278260D01*
X140385423Y-34595423D01*
X140129053Y-34979108D01*
X140032389Y-34774866D01*
X139617423Y-34398959D01*
X139229039Y-34238096D01*
X139007000Y-34360085D01*
X139007000Y-35503000D01*
X139027000Y-35503000D01*
X139027000Y-35757000D01*
X139007000Y-35757000D01*
X139007000Y-35777000D01*
X138753000Y-35777000D01*
X138753000Y-35757000D01*
X136467000Y-35757000D01*
X136467000Y-35777000D01*
X136213000Y-35777000D01*
X136213000Y-35757000D01*
X136193000Y-35757000D01*
X136193000Y-35503000D01*
X136213000Y-35503000D01*
X136213000Y-34360085D01*
X136467000Y-34360085D01*
X136467000Y-35503000D01*
X138753000Y-35503000D01*
X138753000Y-34360085D01*
X138530961Y-34238096D01*
X138142577Y-34398959D01*
X137727611Y-34774866D01*
X137610000Y-35023367D01*
X137492389Y-34774866D01*
X137077423Y-34398959D01*
X136689039Y-34238096D01*
X136467000Y-34360085D01*
X136213000Y-34360085D01*
X135990961Y-34238096D01*
X135602577Y-34398959D01*
X135187611Y-34774866D01*
X135090947Y-34979108D01*
X134834577Y-34595423D01*
X134359909Y-34278260D01*
X133941333Y-34195000D01*
X133658667Y-34195000D01*
X133240091Y-34278260D01*
X132765423Y-34595423D01*
X132530000Y-34947758D01*
X132294577Y-34595423D01*
X131819909Y-34278260D01*
X131401333Y-34195000D01*
X131118667Y-34195000D01*
X130700091Y-34278260D01*
X130225423Y-34595423D01*
X129990000Y-34947758D01*
X129754577Y-34595423D01*
X129279909Y-34278260D01*
X128861333Y-34195000D01*
X128578667Y-34195000D01*
X128160091Y-34278260D01*
X127685423Y-34595423D01*
X127618888Y-34695000D01*
X122561457Y-34695000D01*
X122469376Y-34676684D01*
X122377295Y-34695000D01*
X122377291Y-34695000D01*
X122104558Y-34749250D01*
X121795280Y-34955903D01*
X121743118Y-35033969D01*
X113424680Y-43352408D01*
X113346614Y-43404570D01*
X113294452Y-43482636D01*
X113294451Y-43482637D01*
X113139960Y-43713849D01*
X113067393Y-44078667D01*
X113085711Y-44170757D01*
X113085711Y-44552560D01*
X111700000Y-44552560D01*
X111356565Y-44620874D01*
X111065414Y-44815414D01*
X110870874Y-45106565D01*
X110802560Y-45450000D01*
X110802560Y-48950000D01*
X110870874Y-49293435D01*
X111065414Y-49584586D01*
X111356565Y-49779126D01*
X111700000Y-49847440D01*
X113700000Y-49847440D01*
X114043435Y-49779126D01*
X114334586Y-49584586D01*
X114415000Y-49464237D01*
X114415000Y-52766975D01*
X114309699Y-52661673D01*
X114076310Y-52565000D01*
X112985750Y-52565000D01*
X112827000Y-52723750D01*
X112827000Y-55073000D01*
X112847000Y-55073000D01*
X112847000Y-55327000D01*
X112827000Y-55327000D01*
X112827000Y-57676250D01*
X112985750Y-57835000D01*
X114076310Y-57835000D01*
X114309699Y-57738327D01*
X114415001Y-57633024D01*
X114415001Y-57737709D01*
X114075150Y-58077560D01*
X109650000Y-58077560D01*
X109402235Y-58126843D01*
X109192191Y-58267191D01*
X109051843Y-58477235D01*
X109002560Y-58725000D01*
X109002560Y-59174682D01*
X108925903Y-59225903D01*
X108873741Y-59303969D01*
X106955142Y-61222569D01*
X106713720Y-61322569D01*
X106422569Y-61613720D01*
X106265000Y-61994126D01*
X106265000Y-62405874D01*
X106365000Y-62647296D01*
X106365001Y-64372700D01*
X106265000Y-64614124D01*
X106265000Y-65025872D01*
X106422569Y-65406278D01*
X106713720Y-65697429D01*
X106955142Y-65797429D01*
X108072712Y-66915000D01*
X107723690Y-66915000D01*
X107490301Y-67011673D01*
X107311673Y-67190302D01*
X107215000Y-67423691D01*
X107215000Y-69564250D01*
X107373750Y-69723000D01*
X108273000Y-69723000D01*
X108273000Y-69703000D01*
X108527000Y-69703000D01*
X108527000Y-69723000D01*
X108547000Y-69723000D01*
X108547000Y-69977000D01*
X108527000Y-69977000D01*
X108527000Y-69997000D01*
X108273000Y-69997000D01*
X108273000Y-69977000D01*
X107373750Y-69977000D01*
X107215000Y-70135750D01*
X107215000Y-72276309D01*
X107311673Y-72509698D01*
X107490301Y-72688327D01*
X107675403Y-72764999D01*
X105042087Y-72764999D01*
X104950001Y-72746682D01*
X104857915Y-72764999D01*
X104585182Y-72819249D01*
X104275904Y-73025902D01*
X104223740Y-73103971D01*
X101903972Y-75423739D01*
X101825903Y-75475903D01*
X101672642Y-75705275D01*
X101619250Y-75785182D01*
X101546683Y-76150000D01*
X101565000Y-76242086D01*
X101565001Y-80052560D01*
X100900000Y-80052560D01*
X100652235Y-80101843D01*
X100442191Y-80242191D01*
X100301843Y-80452235D01*
X100252560Y-80700000D01*
X100252560Y-83900000D01*
X100301843Y-84147765D01*
X100442191Y-84357809D01*
X100652235Y-84498157D01*
X100900000Y-84547440D01*
X104100000Y-84547440D01*
X104347765Y-84498157D01*
X104557809Y-84357809D01*
X104698157Y-84147765D01*
X104747440Y-83900000D01*
X104747440Y-80700000D01*
X104698157Y-80452235D01*
X104557809Y-80242191D01*
X104347765Y-80101843D01*
X104100000Y-80052560D01*
X103435000Y-80052560D01*
X103435000Y-79285750D01*
X105765000Y-79285750D01*
X105765000Y-83826309D01*
X105861673Y-84059698D01*
X106040301Y-84238327D01*
X106273690Y-84335000D01*
X111514250Y-84335000D01*
X111673000Y-84176250D01*
X111673000Y-79127000D01*
X111927000Y-79127000D01*
X111927000Y-84176250D01*
X112085750Y-84335000D01*
X117326310Y-84335000D01*
X117559699Y-84238327D01*
X117738327Y-84059698D01*
X117835000Y-83826309D01*
X117835000Y-79285750D01*
X117676250Y-79127000D01*
X111927000Y-79127000D01*
X111673000Y-79127000D01*
X105923750Y-79127000D01*
X105765000Y-79285750D01*
X103435000Y-79285750D01*
X103435000Y-76537289D01*
X105337290Y-74634999D01*
X105765000Y-74634999D01*
X105765000Y-78714250D01*
X105923750Y-78873000D01*
X111673000Y-78873000D01*
X111673000Y-78853000D01*
X111927000Y-78853000D01*
X111927000Y-78873000D01*
X117676250Y-78873000D01*
X117835000Y-78714250D01*
X117835000Y-74173691D01*
X117738327Y-73940302D01*
X117559699Y-73761673D01*
X117326310Y-73665000D01*
X113907290Y-73665000D01*
X114096030Y-73476259D01*
X114174097Y-73424097D01*
X114380750Y-73114819D01*
X114435000Y-72842086D01*
X114435000Y-72842082D01*
X114451725Y-72758001D01*
X114650000Y-72797440D01*
X115750000Y-72797440D01*
X115997765Y-72748157D01*
X116207809Y-72607809D01*
X116348157Y-72397765D01*
X116397440Y-72150000D01*
X116397440Y-67550000D01*
X116348157Y-67302235D01*
X116276819Y-67195471D01*
X116846041Y-66626249D01*
X116924107Y-66574087D01*
X117130760Y-66264809D01*
X117185010Y-65992076D01*
X117185010Y-65992073D01*
X117203326Y-65899991D01*
X117185010Y-65807909D01*
X117185010Y-56137279D01*
X119644859Y-53677430D01*
X119886280Y-53577431D01*
X120177431Y-53286280D01*
X120335000Y-52905874D01*
X120335000Y-52494126D01*
X120235000Y-52252704D01*
X120235000Y-47587289D01*
X120562137Y-47260152D01*
X120365000Y-47736083D01*
X120365000Y-48863917D01*
X120796603Y-49905899D01*
X121594101Y-50703397D01*
X122636083Y-51135000D01*
X123763917Y-51135000D01*
X124805899Y-50703397D01*
X125603397Y-49905899D01*
X126035000Y-48863917D01*
X126035000Y-47736083D01*
X125603397Y-46694101D01*
X124805899Y-45896603D01*
X123763917Y-45465000D01*
X122636083Y-45465000D01*
X122160153Y-45662137D01*
X123937280Y-43885010D01*
X126247902Y-43885010D01*
X126339988Y-43903327D01*
X126432074Y-43885010D01*
X126704807Y-43830760D01*
X127014085Y-43624107D01*
X127066249Y-43546038D01*
X127272560Y-43339727D01*
X127272560Y-44050000D01*
X127321843Y-44297765D01*
X127462191Y-44507809D01*
X127672235Y-44648157D01*
X127920000Y-44697440D01*
X129520000Y-44697440D01*
X129767765Y-44648157D01*
X129977809Y-44507809D01*
X130118157Y-44297765D01*
X130144785Y-44163894D01*
X130225423Y-44284577D01*
X130700091Y-44601740D01*
X131118667Y-44685000D01*
X131401333Y-44685000D01*
X131819909Y-44601740D01*
X132294577Y-44284577D01*
X132530000Y-43932242D01*
X132765423Y-44284577D01*
X133240091Y-44601740D01*
X133658667Y-44685000D01*
X133941333Y-44685000D01*
X134359909Y-44601740D01*
X134834577Y-44284577D01*
X135090947Y-43900892D01*
X135187611Y-44105134D01*
X135602577Y-44481041D01*
X135990961Y-44641904D01*
X136213000Y-44519915D01*
X136213000Y-43377000D01*
X136467000Y-43377000D01*
X136467000Y-44519915D01*
X136689039Y-44641904D01*
X137077423Y-44481041D01*
X137492389Y-44105134D01*
X137610000Y-43856633D01*
X137727611Y-44105134D01*
X138142577Y-44481041D01*
X138530961Y-44641904D01*
X138753000Y-44519915D01*
X138753000Y-43377000D01*
X136467000Y-43377000D01*
X136213000Y-43377000D01*
X136193000Y-43377000D01*
X136193000Y-43123000D01*
X136213000Y-43123000D01*
X136213000Y-43103000D01*
X136467000Y-43103000D01*
X136467000Y-43123000D01*
X138753000Y-43123000D01*
X138753000Y-43103000D01*
X139007000Y-43103000D01*
X139007000Y-43123000D01*
X139027000Y-43123000D01*
X139027000Y-43377000D01*
X139007000Y-43377000D01*
X139007000Y-44519915D01*
X139229039Y-44641904D01*
X139617423Y-44481041D01*
X140032389Y-44105134D01*
X140129053Y-43900892D01*
X140385423Y-44284577D01*
X140860091Y-44601740D01*
X141278667Y-44685000D01*
X141561333Y-44685000D01*
X141979909Y-44601740D01*
X142454577Y-44284577D01*
X142690000Y-43932242D01*
X142925423Y-44284577D01*
X143400091Y-44601740D01*
X143818667Y-44685000D01*
X144101333Y-44685000D01*
X144254396Y-44654554D01*
X144600253Y-45000411D01*
X144644047Y-45065953D01*
X144709589Y-45109747D01*
X144709591Y-45109749D01*
X144903708Y-45239454D01*
X145132684Y-45285000D01*
X145132688Y-45285000D01*
X145210000Y-45300378D01*
X145287312Y-45285000D01*
X148174843Y-45285000D01*
X158015001Y-55125159D01*
X158015000Y-60695577D01*
X157764232Y-59704552D01*
X157170402Y-58018279D01*
X156426184Y-56392765D01*
X155537704Y-54841392D01*
X154512276Y-53376929D01*
X153358340Y-52011430D01*
X152085395Y-50756136D01*
X150703918Y-49621378D01*
X149225280Y-48616497D01*
X147661653Y-47749764D01*
X146025907Y-47028314D01*
X144331507Y-46458085D01*
X142592398Y-46043771D01*
X140822897Y-45788782D01*
X139037568Y-45695217D01*
X137251106Y-45763846D01*
X135478217Y-45994104D01*
X133733493Y-46384096D01*
X132031296Y-46930612D01*
X130385637Y-47629153D01*
X128810061Y-48473969D01*
X127317537Y-49458107D01*
X125920351Y-50573466D01*
X124630003Y-51810866D01*
X123457114Y-53160120D01*
X122411339Y-54610123D01*
X121501285Y-56148939D01*
X120734444Y-57763903D01*
X120117127Y-59441722D01*
X119654416Y-61168584D01*
X119350119Y-62930276D01*
X119206741Y-64712296D01*
X119225462Y-66499977D01*
X119406129Y-68278604D01*
X119747253Y-70033537D01*
X120246027Y-71750330D01*
X120898346Y-73414853D01*
X121698841Y-75013403D01*
X122640922Y-76532823D01*
X123716834Y-77960607D01*
X124917722Y-79285002D01*
X126233701Y-80495107D01*
X127653939Y-81580961D01*
X129166746Y-82533626D01*
X130759669Y-83345261D01*
X132419596Y-84009185D01*
X134132865Y-84519932D01*
X135885374Y-84873300D01*
X137662696Y-85066379D01*
X139450203Y-85097580D01*
X141233181Y-84966646D01*
X142996955Y-84674656D01*
X144727005Y-84224011D01*
X146409092Y-83618423D01*
X148029370Y-82862875D01*
X149574503Y-81963586D01*
X151031771Y-80927959D01*
X152389181Y-79764519D01*
X153635558Y-78482841D01*
X154760644Y-77093475D01*
X155755178Y-75607858D01*
X156610973Y-74038219D01*
X157320986Y-72397476D01*
X157879372Y-70699136D01*
X158281535Y-68957177D01*
X158524164Y-67185939D01*
X158605263Y-65400000D01*
X158600941Y-64987324D01*
X158482458Y-63203475D01*
X158259427Y-61795311D01*
X158299592Y-61822149D01*
X159718959Y-63241516D01*
X159649641Y-63590000D01*
X159765950Y-64174725D01*
X160097170Y-64670430D01*
X160380881Y-64860000D01*
X160097170Y-65049570D01*
X159765950Y-65545275D01*
X159649641Y-66130000D01*
X159765950Y-66714725D01*
X160097170Y-67210430D01*
X160380881Y-67400000D01*
X160097170Y-67589570D01*
X159765950Y-68085275D01*
X159649641Y-68670000D01*
X159765950Y-69254725D01*
X160097170Y-69750430D01*
X160380881Y-69940000D01*
X160097170Y-70129570D01*
X159765950Y-70625275D01*
X159649641Y-71210000D01*
X159765950Y-71794725D01*
X160097170Y-72290430D01*
X160380881Y-72480000D01*
X160097170Y-72669570D01*
X159765950Y-73165275D01*
X159649641Y-73750000D01*
X159718959Y-74098484D01*
X158799592Y-75017851D01*
X158734047Y-75061647D01*
X158560546Y-75321309D01*
X158515000Y-75550285D01*
X158515000Y-75550288D01*
X158499622Y-75627600D01*
X158515000Y-75704912D01*
X158515001Y-79922115D01*
X158503397Y-79894101D01*
X157705899Y-79096603D01*
X156663917Y-78665000D01*
X155536083Y-78665000D01*
X154494101Y-79096603D01*
X153696603Y-79894101D01*
X153265000Y-80936083D01*
X153265000Y-82063917D01*
X153696603Y-83105899D01*
X154494101Y-83903397D01*
X155536083Y-84335000D01*
X155821725Y-84335000D01*
X154741725Y-85415000D01*
X127768037Y-85415000D01*
X127652629Y-85299592D01*
X127608833Y-85234047D01*
X127349172Y-85060546D01*
X127120196Y-85015000D01*
X127120192Y-85015000D01*
X127042880Y-84999622D01*
X126965568Y-85015000D01*
X123798638Y-85015000D01*
X123728652Y-85001079D01*
X124205899Y-84803397D01*
X125003397Y-84005899D01*
X125435000Y-82963917D01*
X125435000Y-81836083D01*
X125003397Y-80794101D01*
X124205899Y-79996603D01*
X123163917Y-79565000D01*
X122036083Y-79565000D01*
X120994101Y-79996603D01*
X120196603Y-80794101D01*
X119765000Y-81836083D01*
X119765000Y-82963917D01*
X120196603Y-84005899D01*
X120994101Y-84803397D01*
X122036083Y-85235000D01*
X123033410Y-85235000D01*
X122990253Y-85299589D01*
X120857046Y-87432796D01*
X120751250Y-87327000D01*
X119527000Y-87327000D01*
X119527000Y-88301250D01*
X119685750Y-88460000D01*
X119829843Y-88460000D01*
X119562283Y-88727560D01*
X118775000Y-88727560D01*
X118431565Y-88795874D01*
X118140414Y-88990414D01*
X117945874Y-89281565D01*
X117877560Y-89625000D01*
X117877560Y-90375000D01*
X117945874Y-90718435D01*
X118140414Y-91009586D01*
X118431565Y-91204126D01*
X118615000Y-91240614D01*
X118615000Y-91914359D01*
X118456565Y-91945874D01*
X118165414Y-92140414D01*
X117970874Y-92431565D01*
X117902560Y-92775000D01*
X117902560Y-94225000D01*
X117970874Y-94568435D01*
X118165414Y-94859586D01*
X118456565Y-95054126D01*
X118800000Y-95122440D01*
X120000000Y-95122440D01*
X120343435Y-95054126D01*
X120634586Y-94859586D01*
X120786758Y-94631844D01*
X120829375Y-94695625D01*
X121320583Y-95023839D01*
X121900000Y-95139092D01*
X122479418Y-95023839D01*
X122970625Y-94695625D01*
X123150000Y-94427171D01*
X123329375Y-94695625D01*
X123820583Y-95023839D01*
X124400000Y-95139092D01*
X124979418Y-95023839D01*
X125470625Y-94695625D01*
X125650000Y-94427171D01*
X125829375Y-94695625D01*
X126320583Y-95023839D01*
X126900000Y-95139092D01*
X127479418Y-95023839D01*
X127970625Y-94695625D01*
X128298839Y-94204417D01*
X128382116Y-93785750D01*
X131815000Y-93785750D01*
X131815000Y-94601310D01*
X131911673Y-94834699D01*
X132090302Y-95013327D01*
X132323691Y-95110000D01*
X133014250Y-95110000D01*
X133173000Y-94951250D01*
X133173000Y-93627000D01*
X131973750Y-93627000D01*
X131815000Y-93785750D01*
X128382116Y-93785750D01*
X128385000Y-93771255D01*
X128385000Y-93228744D01*
X128298839Y-92795582D01*
X128033645Y-92398690D01*
X131815000Y-92398690D01*
X131815000Y-93214250D01*
X131973750Y-93373000D01*
X133173000Y-93373000D01*
X133173000Y-92048750D01*
X133014250Y-91890000D01*
X132323691Y-91890000D01*
X132090302Y-91986673D01*
X131911673Y-92165301D01*
X131815000Y-92398690D01*
X128033645Y-92398690D01*
X127970625Y-92304375D01*
X127479417Y-91976161D01*
X126900000Y-91860908D01*
X126320582Y-91976161D01*
X125829375Y-92304375D01*
X125650000Y-92572829D01*
X125470625Y-92304375D01*
X125185000Y-92113527D01*
X125185000Y-91190614D01*
X125368435Y-91154126D01*
X125659586Y-90959586D01*
X125854126Y-90668435D01*
X125922440Y-90325000D01*
X125922440Y-90039290D01*
X137698106Y-90039290D01*
X137560546Y-90245163D01*
X137515000Y-90474139D01*
X137515000Y-90474142D01*
X137499622Y-90551454D01*
X137515000Y-90628766D01*
X137515001Y-92113526D01*
X137229375Y-92304375D01*
X137050000Y-92572829D01*
X136870625Y-92304375D01*
X136379417Y-91976161D01*
X135800000Y-91860908D01*
X135220582Y-91976161D01*
X134742344Y-92295709D01*
X134688327Y-92165301D01*
X134509698Y-91986673D01*
X134276309Y-91890000D01*
X133585750Y-91890000D01*
X133427000Y-92048750D01*
X133427000Y-93373000D01*
X133447000Y-93373000D01*
X133447000Y-93627000D01*
X133427000Y-93627000D01*
X133427000Y-94951250D01*
X133585750Y-95110000D01*
X134276309Y-95110000D01*
X134509698Y-95013327D01*
X134688327Y-94834699D01*
X134742344Y-94704291D01*
X135220583Y-95023839D01*
X135800000Y-95139092D01*
X136379418Y-95023839D01*
X136870625Y-94695625D01*
X137050000Y-94427171D01*
X137229375Y-94695625D01*
X137720583Y-95023839D01*
X138300000Y-95139092D01*
X138879418Y-95023839D01*
X139370625Y-94695625D01*
X139550000Y-94427171D01*
X139729375Y-94695625D01*
X140220583Y-95023839D01*
X140800000Y-95139092D01*
X141379418Y-95023839D01*
X141870625Y-94695625D01*
X142198839Y-94204417D01*
X142282116Y-93785750D01*
X145615000Y-93785750D01*
X145615000Y-94626310D01*
X145711673Y-94859699D01*
X145890302Y-95038327D01*
X146123691Y-95135000D01*
X146814250Y-95135000D01*
X146973000Y-94976250D01*
X146973000Y-93627000D01*
X145773750Y-93627000D01*
X145615000Y-93785750D01*
X142282116Y-93785750D01*
X142285000Y-93771255D01*
X142285000Y-93228744D01*
X142198839Y-92795582D01*
X141916940Y-92373690D01*
X145615000Y-92373690D01*
X145615000Y-93214250D01*
X145773750Y-93373000D01*
X146973000Y-93373000D01*
X146973000Y-92023750D01*
X146814250Y-91865000D01*
X146123691Y-91865000D01*
X145890302Y-91961673D01*
X145711673Y-92140301D01*
X145615000Y-92373690D01*
X141916940Y-92373690D01*
X141870625Y-92304375D01*
X141485000Y-92046709D01*
X141485000Y-91409649D01*
X141709586Y-91259586D01*
X141904126Y-90968435D01*
X141972440Y-90625000D01*
X141972440Y-89375000D01*
X141904126Y-89031565D01*
X141709586Y-88740414D01*
X141418435Y-88545874D01*
X141416185Y-88545427D01*
X141832890Y-88128722D01*
X144661120Y-88128722D01*
X144233741Y-88556101D01*
X144218435Y-88545874D01*
X143875000Y-88477560D01*
X143125000Y-88477560D01*
X142781565Y-88545874D01*
X142490414Y-88740414D01*
X142295874Y-89031565D01*
X142227560Y-89375000D01*
X142227560Y-90625000D01*
X142295874Y-90968435D01*
X142490414Y-91259586D01*
X142781565Y-91454126D01*
X143125000Y-91522440D01*
X143875000Y-91522440D01*
X144218435Y-91454126D01*
X144509586Y-91259586D01*
X144704126Y-90968435D01*
X144772440Y-90625000D01*
X144772440Y-90237717D01*
X146225158Y-88785000D01*
X148560623Y-88785000D01*
X148395874Y-89031565D01*
X148327560Y-89375000D01*
X148327560Y-90625000D01*
X148395874Y-90968435D01*
X148590414Y-91259586D01*
X148815000Y-91409649D01*
X148815000Y-92088526D01*
X148542344Y-92270709D01*
X148488327Y-92140301D01*
X148309698Y-91961673D01*
X148076309Y-91865000D01*
X147385750Y-91865000D01*
X147227000Y-92023750D01*
X147227000Y-93373000D01*
X147247000Y-93373000D01*
X147247000Y-93627000D01*
X147227000Y-93627000D01*
X147227000Y-94976250D01*
X147385750Y-95135000D01*
X148076309Y-95135000D01*
X148309698Y-95038327D01*
X148488327Y-94859699D01*
X148542344Y-94729291D01*
X149020583Y-95048839D01*
X149600000Y-95164092D01*
X150179418Y-95048839D01*
X150670625Y-94720625D01*
X150998839Y-94229417D01*
X151085000Y-93796255D01*
X151085000Y-93785750D01*
X154415000Y-93785750D01*
X154415000Y-94626310D01*
X154511673Y-94859699D01*
X154690302Y-95038327D01*
X154923691Y-95135000D01*
X155614250Y-95135000D01*
X155773000Y-94976250D01*
X155773000Y-93627000D01*
X154573750Y-93627000D01*
X154415000Y-93785750D01*
X151085000Y-93785750D01*
X151085000Y-93203744D01*
X150998839Y-92770582D01*
X150733645Y-92373690D01*
X154415000Y-92373690D01*
X154415000Y-93214250D01*
X154573750Y-93373000D01*
X155773000Y-93373000D01*
X155773000Y-92023750D01*
X156027000Y-92023750D01*
X156027000Y-93373000D01*
X156047000Y-93373000D01*
X156047000Y-93627000D01*
X156027000Y-93627000D01*
X156027000Y-94976250D01*
X156185750Y-95135000D01*
X156876309Y-95135000D01*
X157109698Y-95038327D01*
X157288327Y-94859699D01*
X157342344Y-94729291D01*
X157820583Y-95048839D01*
X158400000Y-95164092D01*
X158979418Y-95048839D01*
X159470625Y-94720625D01*
X159798839Y-94229417D01*
X159885000Y-93796255D01*
X159885000Y-93203744D01*
X159798839Y-92770582D01*
X159470625Y-92279375D01*
X158979417Y-91951161D01*
X158400000Y-91835908D01*
X157820582Y-91951161D01*
X157342344Y-92270709D01*
X157288327Y-92140301D01*
X157109698Y-91961673D01*
X156876309Y-91865000D01*
X156185750Y-91865000D01*
X156027000Y-92023750D01*
X155773000Y-92023750D01*
X155614250Y-91865000D01*
X154923691Y-91865000D01*
X154690302Y-91961673D01*
X154511673Y-92140301D01*
X154415000Y-92373690D01*
X150733645Y-92373690D01*
X150670625Y-92279375D01*
X150385000Y-92088527D01*
X150385000Y-91409649D01*
X150609586Y-91259586D01*
X150804126Y-90968435D01*
X150872440Y-90625000D01*
X150872440Y-89375000D01*
X150804126Y-89031565D01*
X150639377Y-88785000D01*
X151360623Y-88785000D01*
X151195874Y-89031565D01*
X151127560Y-89375000D01*
X151127560Y-90625000D01*
X151195874Y-90968435D01*
X151390414Y-91259586D01*
X151681565Y-91454126D01*
X152025000Y-91522440D01*
X152775000Y-91522440D01*
X153118435Y-91454126D01*
X153409586Y-91259586D01*
X153604126Y-90968435D01*
X153672440Y-90625000D01*
X153672440Y-90237717D01*
X154425157Y-89485000D01*
X160173498Y-89485000D01*
X160250849Y-89500386D01*
X160328160Y-89485008D01*
X163064087Y-89485008D01*
X163141399Y-89500386D01*
X163218711Y-89485008D01*
X163218715Y-89485008D01*
X163447691Y-89439462D01*
X163707352Y-89265961D01*
X163751148Y-89200416D01*
X168865814Y-84085750D01*
X170115000Y-84085750D01*
X170115000Y-84776309D01*
X170211673Y-85009698D01*
X170390301Y-85188327D01*
X170623690Y-85285000D01*
X171314250Y-85285000D01*
X171473000Y-85126250D01*
X171473000Y-83927000D01*
X170273750Y-83927000D01*
X170115000Y-84085750D01*
X168865814Y-84085750D01*
X170115000Y-82836564D01*
X170115000Y-83514250D01*
X170273750Y-83673000D01*
X171473000Y-83673000D01*
X171473000Y-82473750D01*
X171314250Y-82315000D01*
X170636564Y-82315000D01*
X174712964Y-78238600D01*
X175010410Y-78238600D01*
X175005950Y-78245275D01*
X174889641Y-78830000D01*
X175005950Y-79414725D01*
X175337170Y-79910430D01*
X175785001Y-80209661D01*
X175785001Y-81044841D01*
X174476918Y-82352925D01*
X174286256Y-82315000D01*
X173993744Y-82315000D01*
X173560582Y-82401161D01*
X173069375Y-82729375D01*
X173054904Y-82751033D01*
X172988327Y-82590302D01*
X172809699Y-82411673D01*
X172576310Y-82315000D01*
X171885750Y-82315000D01*
X171727000Y-82473750D01*
X171727000Y-83673000D01*
X171747000Y-83673000D01*
X171747000Y-83927000D01*
X171727000Y-83927000D01*
X171727000Y-85126250D01*
X171885750Y-85285000D01*
X172576310Y-85285000D01*
X172809699Y-85188327D01*
X172988327Y-85009698D01*
X173054904Y-84848967D01*
X173069375Y-84870625D01*
X173560582Y-85198839D01*
X173993744Y-85285000D01*
X174286256Y-85285000D01*
X174719418Y-85198839D01*
X175210625Y-84870625D01*
X175410000Y-84572239D01*
X175609375Y-84870625D01*
X176100582Y-85198839D01*
X176533744Y-85285000D01*
X176826256Y-85285000D01*
X177259418Y-85198839D01*
X177750625Y-84870625D01*
X178078839Y-84379418D01*
X178194092Y-83800000D01*
X178162270Y-83640020D01*
X178256258Y-83546032D01*
X178256260Y-83546029D01*
X178782038Y-83020251D01*
X178860107Y-82968087D01*
X179066760Y-82658809D01*
X179121010Y-82386076D01*
X179139327Y-82293990D01*
X179121010Y-82201904D01*
X179121010Y-73235838D01*
X179139327Y-73143752D01*
X179121000Y-73051616D01*
X179121000Y-60065686D01*
X179139317Y-59973600D01*
X179105175Y-59801954D01*
X179066750Y-59608781D01*
X178860097Y-59299503D01*
X178782031Y-59247341D01*
X178216236Y-58681547D01*
X178250359Y-58510000D01*
X178134050Y-57925275D01*
X177802830Y-57429570D01*
X177519119Y-57240000D01*
X177802830Y-57050430D01*
X178134050Y-56554725D01*
X178250359Y-55970000D01*
X178134050Y-55385275D01*
X177802830Y-54889570D01*
X177513268Y-54696090D01*
X177920732Y-54332036D01*
X178174709Y-53804791D01*
X178177358Y-53789026D01*
X178056217Y-53557000D01*
X176697000Y-53557000D01*
X176697000Y-53577000D01*
X176443000Y-53577000D01*
X176443000Y-53557000D01*
X175083783Y-53557000D01*
X174962642Y-53789026D01*
X174965291Y-53804791D01*
X175219268Y-54332036D01*
X175626732Y-54696090D01*
X175337170Y-54889570D01*
X175005950Y-55385275D01*
X174889641Y-55970000D01*
X175005950Y-56554725D01*
X175337170Y-57050430D01*
X175620881Y-57240000D01*
X175337170Y-57429570D01*
X175280569Y-57514279D01*
X174874551Y-57108262D01*
X174822387Y-57030193D01*
X174513109Y-56823540D01*
X174240376Y-56769290D01*
X174148290Y-56750973D01*
X174056204Y-56769290D01*
X171487796Y-56769290D01*
X171395710Y-56750973D01*
X171303624Y-56769290D01*
X171155000Y-56798853D01*
X171155000Y-49680003D01*
X171300430Y-49582830D01*
X171493909Y-49293267D01*
X171857964Y-49700732D01*
X172385209Y-49954709D01*
X172400974Y-49957358D01*
X172633000Y-49836217D01*
X172633000Y-48477000D01*
X172887000Y-48477000D01*
X172887000Y-49836217D01*
X173119026Y-49957358D01*
X173134791Y-49954709D01*
X173662036Y-49700732D01*
X174030000Y-49288892D01*
X174397964Y-49700732D01*
X174925209Y-49954709D01*
X174940974Y-49957358D01*
X175172998Y-49836218D01*
X175172998Y-50001000D01*
X175209260Y-50001000D01*
X175005950Y-50305275D01*
X174889641Y-50890000D01*
X175005950Y-51474725D01*
X175337170Y-51970430D01*
X175626732Y-52163910D01*
X175219268Y-52527964D01*
X174965291Y-53055209D01*
X174962642Y-53070974D01*
X175083783Y-53303000D01*
X176443000Y-53303000D01*
X176443000Y-53283000D01*
X176697000Y-53283000D01*
X176697000Y-53303000D01*
X178056217Y-53303000D01*
X178177358Y-53070974D01*
X178174709Y-53055209D01*
X177920732Y-52527964D01*
X177513268Y-52163910D01*
X177802830Y-51970430D01*
X178134050Y-51474725D01*
X178250359Y-50890000D01*
X178134050Y-50305275D01*
X177802830Y-49809570D01*
X177307125Y-49478350D01*
X176869998Y-49391400D01*
X176478413Y-49391400D01*
X176591954Y-49264320D01*
X176785184Y-48711913D01*
X176640924Y-48477000D01*
X175427000Y-48477000D01*
X175427000Y-48497000D01*
X175173000Y-48497000D01*
X175173000Y-48477000D01*
X172887000Y-48477000D01*
X172633000Y-48477000D01*
X172613000Y-48477000D01*
X172613000Y-48223000D01*
X172633000Y-48223000D01*
X172633000Y-46863783D01*
X172887000Y-46863783D01*
X172887000Y-48223000D01*
X175173000Y-48223000D01*
X175173000Y-46863783D01*
X175427000Y-46863783D01*
X175427000Y-48223000D01*
X176640924Y-48223000D01*
X176785184Y-47988087D01*
X176591954Y-47435680D01*
X176202036Y-46999268D01*
X175674791Y-46745291D01*
X175659026Y-46742642D01*
X175427000Y-46863783D01*
X175173000Y-46863783D01*
X174940974Y-46742642D01*
X174925209Y-46745291D01*
X174397964Y-46999268D01*
X174030000Y-47411108D01*
X173662036Y-46999268D01*
X173134791Y-46745291D01*
X173119026Y-46742642D01*
X172887000Y-46863783D01*
X172633000Y-46863783D01*
X172400974Y-46742642D01*
X172385209Y-46745291D01*
X171857964Y-46999268D01*
X171493910Y-47406732D01*
X171300430Y-47117170D01*
X171155000Y-47019997D01*
X171155000Y-46826085D01*
X171173317Y-46733999D01*
X171100750Y-46369181D01*
X170946259Y-46137969D01*
X170894097Y-46059903D01*
X170816031Y-46007741D01*
X168393290Y-43585000D01*
X177381229Y-43585000D01*
X179215001Y-47165223D01*
X179215000Y-83731117D01*
X177399087Y-87190000D01*
X167469925Y-87190000D01*
X167400000Y-87176091D01*
X167330074Y-87190000D01*
X167122972Y-87231195D01*
X166888119Y-87388119D01*
X166731195Y-87622972D01*
X166676091Y-87900000D01*
X166690000Y-87969926D01*
X166690001Y-92215000D01*
X162467461Y-92215000D01*
X162400000Y-92201581D01*
X162332538Y-92215000D01*
X162132727Y-92254745D01*
X161906143Y-92406143D01*
X161754745Y-92632727D01*
X161701581Y-92900000D01*
X161715000Y-92967462D01*
X161715001Y-97215000D01*
X116085000Y-97215000D01*
X116085000Y-92967462D01*
X116098419Y-92900000D01*
X116045255Y-92632727D01*
X115893857Y-92406143D01*
X115667273Y-92254745D01*
X115467462Y-92215000D01*
X115467461Y-92215000D01*
X115400000Y-92201581D01*
X115332538Y-92215000D01*
X111085000Y-92215000D01*
X111085000Y-87967462D01*
X111098419Y-87900000D01*
X111045255Y-87632727D01*
X110947049Y-87485750D01*
X117890000Y-87485750D01*
X117890000Y-87951309D01*
X117986673Y-88184698D01*
X118165301Y-88363327D01*
X118398690Y-88460000D01*
X119114250Y-88460000D01*
X119273000Y-88301250D01*
X119273000Y-87327000D01*
X118048750Y-87327000D01*
X117890000Y-87485750D01*
X110947049Y-87485750D01*
X110893857Y-87406143D01*
X110667273Y-87254745D01*
X110467462Y-87215000D01*
X110467461Y-87215000D01*
X110400000Y-87201581D01*
X110332538Y-87215000D01*
X100328248Y-87215000D01*
X99954918Y-86448691D01*
X117890000Y-86448691D01*
X117890000Y-86914250D01*
X118048750Y-87073000D01*
X119273000Y-87073000D01*
X119273000Y-86098750D01*
X119527000Y-86098750D01*
X119527000Y-87073000D01*
X120751250Y-87073000D01*
X120910000Y-86914250D01*
X120910000Y-86448691D01*
X120813327Y-86215302D01*
X120634699Y-86036673D01*
X120401310Y-85940000D01*
X119685750Y-85940000D01*
X119527000Y-86098750D01*
X119273000Y-86098750D01*
X119114250Y-85940000D01*
X118398690Y-85940000D01*
X118165301Y-86036673D01*
X117986673Y-86215302D01*
X117890000Y-86448691D01*
X99954918Y-86448691D01*
X98685000Y-83842019D01*
X98685000Y-67534504D01*
X100315944Y-67534504D01*
X100663780Y-68334187D01*
X101291164Y-68939886D01*
X102025497Y-69244050D01*
X102373000Y-69132362D01*
X102373000Y-67187000D01*
X102627000Y-67187000D01*
X102627000Y-69132362D01*
X102974503Y-69244050D01*
X103708836Y-68939886D01*
X104336220Y-68334187D01*
X104684056Y-67534504D01*
X104572645Y-67187000D01*
X102627000Y-67187000D01*
X102373000Y-67187000D01*
X100427355Y-67187000D01*
X100315944Y-67534504D01*
X98685000Y-67534504D01*
X98685000Y-66585496D01*
X100315944Y-66585496D01*
X100427355Y-66933000D01*
X102373000Y-66933000D01*
X102373000Y-64987638D01*
X102627000Y-64987638D01*
X102627000Y-66933000D01*
X104572645Y-66933000D01*
X104684056Y-66585496D01*
X104336220Y-65785813D01*
X103708836Y-65180114D01*
X102974503Y-64875950D01*
X102627000Y-64987638D01*
X102373000Y-64987638D01*
X102025497Y-64875950D01*
X101291164Y-65180114D01*
X100663780Y-65785813D01*
X100315944Y-66585496D01*
X98685000Y-66585496D01*
X98685000Y-61685750D01*
X100165000Y-61685750D01*
X100165000Y-62376309D01*
X100261673Y-62609698D01*
X100440301Y-62788327D01*
X100673690Y-62885000D01*
X101514250Y-62885000D01*
X101673000Y-62726250D01*
X101673000Y-61527000D01*
X101927000Y-61527000D01*
X101927000Y-62726250D01*
X102085750Y-62885000D01*
X102926310Y-62885000D01*
X103159699Y-62788327D01*
X103338327Y-62609698D01*
X103435000Y-62376309D01*
X103435000Y-61685750D01*
X103276250Y-61527000D01*
X101927000Y-61527000D01*
X101673000Y-61527000D01*
X100323750Y-61527000D01*
X100165000Y-61685750D01*
X98685000Y-61685750D01*
X98685000Y-50600000D01*
X99246683Y-50600000D01*
X99265000Y-50692086D01*
X99265001Y-55757910D01*
X99246683Y-55850000D01*
X99319250Y-56214818D01*
X99469211Y-56439250D01*
X99525904Y-56524097D01*
X99603970Y-56576259D01*
X100745851Y-57718140D01*
X100579375Y-57829375D01*
X100251161Y-58320582D01*
X100135908Y-58900000D01*
X100251161Y-59479418D01*
X100570709Y-59957656D01*
X100440301Y-60011673D01*
X100261673Y-60190302D01*
X100165000Y-60423691D01*
X100165000Y-61114250D01*
X100323750Y-61273000D01*
X101673000Y-61273000D01*
X101673000Y-61253000D01*
X101927000Y-61253000D01*
X101927000Y-61273000D01*
X103276250Y-61273000D01*
X103435000Y-61114250D01*
X103435000Y-60423691D01*
X103338327Y-60190302D01*
X103159699Y-60011673D01*
X103029291Y-59957656D01*
X103348839Y-59479418D01*
X103464092Y-58900000D01*
X103348839Y-58320582D01*
X103020625Y-57829375D01*
X102735000Y-57638526D01*
X102735000Y-57542086D01*
X102753317Y-57450000D01*
X102707179Y-57218046D01*
X102680750Y-57085181D01*
X102474097Y-56775903D01*
X102396028Y-56723739D01*
X101757289Y-56085000D01*
X102214250Y-56085000D01*
X102373000Y-55926250D01*
X102373000Y-53827000D01*
X102627000Y-53827000D01*
X102627000Y-55926250D01*
X102785750Y-56085000D01*
X103426310Y-56085000D01*
X103659699Y-55988327D01*
X103838327Y-55809698D01*
X103935000Y-55576309D01*
X103935000Y-55485750D01*
X110815000Y-55485750D01*
X110815000Y-57326309D01*
X110911673Y-57559698D01*
X111090301Y-57738327D01*
X111323690Y-57835000D01*
X112414250Y-57835000D01*
X112573000Y-57676250D01*
X112573000Y-55327000D01*
X110973750Y-55327000D01*
X110815000Y-55485750D01*
X103935000Y-55485750D01*
X103935000Y-53985750D01*
X103776250Y-53827000D01*
X102627000Y-53827000D01*
X102373000Y-53827000D01*
X102353000Y-53827000D01*
X102353000Y-53573000D01*
X102373000Y-53573000D01*
X102373000Y-51473750D01*
X102627000Y-51473750D01*
X102627000Y-53573000D01*
X103776250Y-53573000D01*
X103935000Y-53414250D01*
X103935000Y-53073691D01*
X110815000Y-53073691D01*
X110815000Y-54914250D01*
X110973750Y-55073000D01*
X112573000Y-55073000D01*
X112573000Y-52723750D01*
X112414250Y-52565000D01*
X111323690Y-52565000D01*
X111090301Y-52661673D01*
X110911673Y-52840302D01*
X110815000Y-53073691D01*
X103935000Y-53073691D01*
X103935000Y-51823691D01*
X103838327Y-51590302D01*
X103659699Y-51411673D01*
X103426310Y-51315000D01*
X102785750Y-51315000D01*
X102627000Y-51473750D01*
X102373000Y-51473750D01*
X102214250Y-51315000D01*
X101573690Y-51315000D01*
X101340301Y-51411673D01*
X101161673Y-51590302D01*
X101135000Y-51654696D01*
X101135000Y-50987289D01*
X101538586Y-50583704D01*
X101606565Y-50629126D01*
X101950000Y-50697440D01*
X103050000Y-50697440D01*
X103393435Y-50629126D01*
X103684586Y-50434586D01*
X103879126Y-50143435D01*
X103947440Y-49800000D01*
X103947440Y-46800000D01*
X103879126Y-46456565D01*
X103684586Y-46165414D01*
X103393435Y-45970874D01*
X103050000Y-45902560D01*
X101950000Y-45902560D01*
X101606565Y-45970874D01*
X101315414Y-46165414D01*
X101120874Y-46456565D01*
X101052560Y-46800000D01*
X101052560Y-48425150D01*
X99603972Y-49873739D01*
X99525903Y-49925903D01*
X99473185Y-50004802D01*
X99319250Y-50235182D01*
X99246683Y-50600000D01*
X98685000Y-50600000D01*
X98685000Y-46869255D01*
X100413557Y-43585000D01*
X110332539Y-43585000D01*
X110400000Y-43598419D01*
X110667273Y-43545255D01*
X110893857Y-43393857D01*
X111045255Y-43167273D01*
X111085000Y-42967462D01*
X111085000Y-42967461D01*
X111098419Y-42900000D01*
X111085000Y-42832538D01*
X111085000Y-38585000D01*
X115332538Y-38585000D01*
X115400000Y-38598419D01*
X115467461Y-38585000D01*
X115467462Y-38585000D01*
X115667273Y-38545255D01*
X115893857Y-38393857D01*
X116045255Y-38167273D01*
X116066675Y-38059586D01*
X116085000Y-37967462D01*
X116085000Y-37967461D01*
X116098419Y-37900000D01*
X116085000Y-37832538D01*
X116085000Y-33585000D01*
X161715000Y-33585000D01*
X161715001Y-37832533D01*
X161715001Y-37832533D01*
G37*
X161715001Y-37832533D02*
X161701581Y-37900000D01*
X161754745Y-38167273D01*
X161809656Y-38249453D01*
X161775000Y-38242560D01*
X161374850Y-38242560D01*
X159572440Y-36440151D01*
X159572440Y-36175000D01*
X159504126Y-35831565D01*
X159309586Y-35540414D01*
X159018435Y-35345874D01*
X158675000Y-35277560D01*
X158099849Y-35277560D01*
X157551251Y-34728962D01*
X157499087Y-34650893D01*
X157189809Y-34444240D01*
X156917076Y-34389990D01*
X156824990Y-34371673D01*
X156732904Y-34389990D01*
X153017091Y-34389990D01*
X152925009Y-34371674D01*
X152832927Y-34389990D01*
X152832924Y-34389990D01*
X152560191Y-34444240D01*
X152250913Y-34650893D01*
X152198751Y-34728959D01*
X151250151Y-35677560D01*
X150675000Y-35677560D01*
X150331565Y-35745874D01*
X150040414Y-35940414D01*
X149949609Y-36076314D01*
X149921642Y-36095001D01*
X147837032Y-36095001D01*
X147891914Y-35979041D01*
X147770629Y-35757000D01*
X146627000Y-35757000D01*
X146627000Y-35777000D01*
X146373000Y-35777000D01*
X146373000Y-35757000D01*
X146353000Y-35757000D01*
X146353000Y-35503000D01*
X146373000Y-35503000D01*
X146373000Y-34360085D01*
X146627000Y-34360085D01*
X146627000Y-35503000D01*
X147770629Y-35503000D01*
X147891914Y-35280959D01*
X147652389Y-34774866D01*
X147237423Y-34398959D01*
X146849039Y-34238096D01*
X146627000Y-34360085D01*
X146373000Y-34360085D01*
X146150961Y-34238096D01*
X145762577Y-34398959D01*
X145347611Y-34774866D01*
X145250947Y-34979108D01*
X144994577Y-34595423D01*
X144519909Y-34278260D01*
X144101333Y-34195000D01*
X143818667Y-34195000D01*
X143400091Y-34278260D01*
X142925423Y-34595423D01*
X142690000Y-34947758D01*
X142454577Y-34595423D01*
X141979909Y-34278260D01*
X141561333Y-34195000D01*
X141278667Y-34195000D01*
X140860091Y-34278260D01*
X140385423Y-34595423D01*
X140129053Y-34979108D01*
X140032389Y-34774866D01*
X139617423Y-34398959D01*
X139229039Y-34238096D01*
X139007000Y-34360085D01*
X139007000Y-35503000D01*
X139027000Y-35503000D01*
X139027000Y-35757000D01*
X139007000Y-35757000D01*
X139007000Y-35777000D01*
X138753000Y-35777000D01*
X138753000Y-35757000D01*
X136467000Y-35757000D01*
X136467000Y-35777000D01*
X136213000Y-35777000D01*
X136213000Y-35757000D01*
X136193000Y-35757000D01*
X136193000Y-35503000D01*
X136213000Y-35503000D01*
X136213000Y-34360085D01*
X136467000Y-34360085D01*
X136467000Y-35503000D01*
X138753000Y-35503000D01*
X138753000Y-34360085D01*
X138530961Y-34238096D01*
X138142577Y-34398959D01*
X137727611Y-34774866D01*
X137610000Y-35023367D01*
X137492389Y-34774866D01*
X137077423Y-34398959D01*
X136689039Y-34238096D01*
X136467000Y-34360085D01*
X136213000Y-34360085D01*
X135990961Y-34238096D01*
X135602577Y-34398959D01*
X135187611Y-34774866D01*
X135090947Y-34979108D01*
X134834577Y-34595423D01*
X134359909Y-34278260D01*
X133941333Y-34195000D01*
X133658667Y-34195000D01*
X133240091Y-34278260D01*
X132765423Y-34595423D01*
X132530000Y-34947758D01*
X132294577Y-34595423D01*
X131819909Y-34278260D01*
X131401333Y-34195000D01*
X131118667Y-34195000D01*
X130700091Y-34278260D01*
X130225423Y-34595423D01*
X129990000Y-34947758D01*
X129754577Y-34595423D01*
X129279909Y-34278260D01*
X128861333Y-34195000D01*
X128578667Y-34195000D01*
X128160091Y-34278260D01*
X127685423Y-34595423D01*
X127618888Y-34695000D01*
X122561457Y-34695000D01*
X122469376Y-34676684D01*
X122377295Y-34695000D01*
X122377291Y-34695000D01*
X122104558Y-34749250D01*
X121795280Y-34955903D01*
X121743118Y-35033969D01*
X113424680Y-43352408D01*
X113346614Y-43404570D01*
X113294452Y-43482636D01*
X113294451Y-43482637D01*
X113139960Y-43713849D01*
X113067393Y-44078667D01*
X113085711Y-44170757D01*
X113085711Y-44552560D01*
X111700000Y-44552560D01*
X111356565Y-44620874D01*
X111065414Y-44815414D01*
X110870874Y-45106565D01*
X110802560Y-45450000D01*
X110802560Y-48950000D01*
X110870874Y-49293435D01*
X111065414Y-49584586D01*
X111356565Y-49779126D01*
X111700000Y-49847440D01*
X113700000Y-49847440D01*
X114043435Y-49779126D01*
X114334586Y-49584586D01*
X114415000Y-49464237D01*
X114415000Y-52766975D01*
X114309699Y-52661673D01*
X114076310Y-52565000D01*
X112985750Y-52565000D01*
X112827000Y-52723750D01*
X112827000Y-55073000D01*
X112847000Y-55073000D01*
X112847000Y-55327000D01*
X112827000Y-55327000D01*
X112827000Y-57676250D01*
X112985750Y-57835000D01*
X114076310Y-57835000D01*
X114309699Y-57738327D01*
X114415001Y-57633024D01*
X114415001Y-57737709D01*
X114075150Y-58077560D01*
X109650000Y-58077560D01*
X109402235Y-58126843D01*
X109192191Y-58267191D01*
X109051843Y-58477235D01*
X109002560Y-58725000D01*
X109002560Y-59174682D01*
X108925903Y-59225903D01*
X108873741Y-59303969D01*
X106955142Y-61222569D01*
X106713720Y-61322569D01*
X106422569Y-61613720D01*
X106265000Y-61994126D01*
X106265000Y-62405874D01*
X106365000Y-62647296D01*
X106365001Y-64372700D01*
X106265000Y-64614124D01*
X106265000Y-65025872D01*
X106422569Y-65406278D01*
X106713720Y-65697429D01*
X106955142Y-65797429D01*
X108072712Y-66915000D01*
X107723690Y-66915000D01*
X107490301Y-67011673D01*
X107311673Y-67190302D01*
X107215000Y-67423691D01*
X107215000Y-69564250D01*
X107373750Y-69723000D01*
X108273000Y-69723000D01*
X108273000Y-69703000D01*
X108527000Y-69703000D01*
X108527000Y-69723000D01*
X108547000Y-69723000D01*
X108547000Y-69977000D01*
X108527000Y-69977000D01*
X108527000Y-69997000D01*
X108273000Y-69997000D01*
X108273000Y-69977000D01*
X107373750Y-69977000D01*
X107215000Y-70135750D01*
X107215000Y-72276309D01*
X107311673Y-72509698D01*
X107490301Y-72688327D01*
X107675403Y-72764999D01*
X105042087Y-72764999D01*
X104950001Y-72746682D01*
X104857915Y-72764999D01*
X104585182Y-72819249D01*
X104275904Y-73025902D01*
X104223740Y-73103971D01*
X101903972Y-75423739D01*
X101825903Y-75475903D01*
X101672642Y-75705275D01*
X101619250Y-75785182D01*
X101546683Y-76150000D01*
X101565000Y-76242086D01*
X101565001Y-80052560D01*
X100900000Y-80052560D01*
X100652235Y-80101843D01*
X100442191Y-80242191D01*
X100301843Y-80452235D01*
X100252560Y-80700000D01*
X100252560Y-83900000D01*
X100301843Y-84147765D01*
X100442191Y-84357809D01*
X100652235Y-84498157D01*
X100900000Y-84547440D01*
X104100000Y-84547440D01*
X104347765Y-84498157D01*
X104557809Y-84357809D01*
X104698157Y-84147765D01*
X104747440Y-83900000D01*
X104747440Y-80700000D01*
X104698157Y-80452235D01*
X104557809Y-80242191D01*
X104347765Y-80101843D01*
X104100000Y-80052560D01*
X103435000Y-80052560D01*
X103435000Y-79285750D01*
X105765000Y-79285750D01*
X105765000Y-83826309D01*
X105861673Y-84059698D01*
X106040301Y-84238327D01*
X106273690Y-84335000D01*
X111514250Y-84335000D01*
X111673000Y-84176250D01*
X111673000Y-79127000D01*
X111927000Y-79127000D01*
X111927000Y-84176250D01*
X112085750Y-84335000D01*
X117326310Y-84335000D01*
X117559699Y-84238327D01*
X117738327Y-84059698D01*
X117835000Y-83826309D01*
X117835000Y-79285750D01*
X117676250Y-79127000D01*
X111927000Y-79127000D01*
X111673000Y-79127000D01*
X105923750Y-79127000D01*
X105765000Y-79285750D01*
X103435000Y-79285750D01*
X103435000Y-76537289D01*
X105337290Y-74634999D01*
X105765000Y-74634999D01*
X105765000Y-78714250D01*
X105923750Y-78873000D01*
X111673000Y-78873000D01*
X111673000Y-78853000D01*
X111927000Y-78853000D01*
X111927000Y-78873000D01*
X117676250Y-78873000D01*
X117835000Y-78714250D01*
X117835000Y-74173691D01*
X117738327Y-73940302D01*
X117559699Y-73761673D01*
X117326310Y-73665000D01*
X113907290Y-73665000D01*
X114096030Y-73476259D01*
X114174097Y-73424097D01*
X114380750Y-73114819D01*
X114435000Y-72842086D01*
X114435000Y-72842082D01*
X114451725Y-72758001D01*
X114650000Y-72797440D01*
X115750000Y-72797440D01*
X115997765Y-72748157D01*
X116207809Y-72607809D01*
X116348157Y-72397765D01*
X116397440Y-72150000D01*
X116397440Y-67550000D01*
X116348157Y-67302235D01*
X116276819Y-67195471D01*
X116846041Y-66626249D01*
X116924107Y-66574087D01*
X117130760Y-66264809D01*
X117185010Y-65992076D01*
X117185010Y-65992073D01*
X117203326Y-65899991D01*
X117185010Y-65807909D01*
X117185010Y-56137279D01*
X119644859Y-53677430D01*
X119886280Y-53577431D01*
X120177431Y-53286280D01*
X120335000Y-52905874D01*
X120335000Y-52494126D01*
X120235000Y-52252704D01*
X120235000Y-47587289D01*
X120562137Y-47260152D01*
X120365000Y-47736083D01*
X120365000Y-48863917D01*
X120796603Y-49905899D01*
X121594101Y-50703397D01*
X122636083Y-51135000D01*
X123763917Y-51135000D01*
X124805899Y-50703397D01*
X125603397Y-49905899D01*
X126035000Y-48863917D01*
X126035000Y-47736083D01*
X125603397Y-46694101D01*
X124805899Y-45896603D01*
X123763917Y-45465000D01*
X122636083Y-45465000D01*
X122160153Y-45662137D01*
X123937280Y-43885010D01*
X126247902Y-43885010D01*
X126339988Y-43903327D01*
X126432074Y-43885010D01*
X126704807Y-43830760D01*
X127014085Y-43624107D01*
X127066249Y-43546038D01*
X127272560Y-43339727D01*
X127272560Y-44050000D01*
X127321843Y-44297765D01*
X127462191Y-44507809D01*
X127672235Y-44648157D01*
X127920000Y-44697440D01*
X129520000Y-44697440D01*
X129767765Y-44648157D01*
X129977809Y-44507809D01*
X130118157Y-44297765D01*
X130144785Y-44163894D01*
X130225423Y-44284577D01*
X130700091Y-44601740D01*
X131118667Y-44685000D01*
X131401333Y-44685000D01*
X131819909Y-44601740D01*
X132294577Y-44284577D01*
X132530000Y-43932242D01*
X132765423Y-44284577D01*
X133240091Y-44601740D01*
X133658667Y-44685000D01*
X133941333Y-44685000D01*
X134359909Y-44601740D01*
X134834577Y-44284577D01*
X135090947Y-43900892D01*
X135187611Y-44105134D01*
X135602577Y-44481041D01*
X135990961Y-44641904D01*
X136213000Y-44519915D01*
X136213000Y-43377000D01*
X136467000Y-43377000D01*
X136467000Y-44519915D01*
X136689039Y-44641904D01*
X137077423Y-44481041D01*
X137492389Y-44105134D01*
X137610000Y-43856633D01*
X137727611Y-44105134D01*
X138142577Y-44481041D01*
X138530961Y-44641904D01*
X138753000Y-44519915D01*
X138753000Y-43377000D01*
X136467000Y-43377000D01*
X136213000Y-43377000D01*
X136193000Y-43377000D01*
X136193000Y-43123000D01*
X136213000Y-43123000D01*
X136213000Y-43103000D01*
X136467000Y-43103000D01*
X136467000Y-43123000D01*
X138753000Y-43123000D01*
X138753000Y-43103000D01*
X139007000Y-43103000D01*
X139007000Y-43123000D01*
X139027000Y-43123000D01*
X139027000Y-43377000D01*
X139007000Y-43377000D01*
X139007000Y-44519915D01*
X139229039Y-44641904D01*
X139617423Y-44481041D01*
X140032389Y-44105134D01*
X140129053Y-43900892D01*
X140385423Y-44284577D01*
X140860091Y-44601740D01*
X141278667Y-44685000D01*
X141561333Y-44685000D01*
X141979909Y-44601740D01*
X142454577Y-44284577D01*
X142690000Y-43932242D01*
X142925423Y-44284577D01*
X143400091Y-44601740D01*
X143818667Y-44685000D01*
X144101333Y-44685000D01*
X144254396Y-44654554D01*
X144600253Y-45000411D01*
X144644047Y-45065953D01*
X144709589Y-45109747D01*
X144709591Y-45109749D01*
X144903708Y-45239454D01*
X145132684Y-45285000D01*
X145132688Y-45285000D01*
X145210000Y-45300378D01*
X145287312Y-45285000D01*
X148174843Y-45285000D01*
X158015001Y-55125159D01*
X158015000Y-60695577D01*
X157764232Y-59704552D01*
X157170402Y-58018279D01*
X156426184Y-56392765D01*
X155537704Y-54841392D01*
X154512276Y-53376929D01*
X153358340Y-52011430D01*
X152085395Y-50756136D01*
X150703918Y-49621378D01*
X149225280Y-48616497D01*
X147661653Y-47749764D01*
X146025907Y-47028314D01*
X144331507Y-46458085D01*
X142592398Y-46043771D01*
X140822897Y-45788782D01*
X139037568Y-45695217D01*
X137251106Y-45763846D01*
X135478217Y-45994104D01*
X133733493Y-46384096D01*
X132031296Y-46930612D01*
X130385637Y-47629153D01*
X128810061Y-48473969D01*
X127317537Y-49458107D01*
X125920351Y-50573466D01*
X124630003Y-51810866D01*
X123457114Y-53160120D01*
X122411339Y-54610123D01*
X121501285Y-56148939D01*
X120734444Y-57763903D01*
X120117127Y-59441722D01*
X119654416Y-61168584D01*
X119350119Y-62930276D01*
X119206741Y-64712296D01*
X119225462Y-66499977D01*
X119406129Y-68278604D01*
X119747253Y-70033537D01*
X120246027Y-71750330D01*
X120898346Y-73414853D01*
X121698841Y-75013403D01*
X122640922Y-76532823D01*
X123716834Y-77960607D01*
X124917722Y-79285002D01*
X126233701Y-80495107D01*
X127653939Y-81580961D01*
X129166746Y-82533626D01*
X130759669Y-83345261D01*
X132419596Y-84009185D01*
X134132865Y-84519932D01*
X135885374Y-84873300D01*
X137662696Y-85066379D01*
X139450203Y-85097580D01*
X141233181Y-84966646D01*
X142996955Y-84674656D01*
X144727005Y-84224011D01*
X146409092Y-83618423D01*
X148029370Y-82862875D01*
X149574503Y-81963586D01*
X151031771Y-80927959D01*
X152389181Y-79764519D01*
X153635558Y-78482841D01*
X154760644Y-77093475D01*
X155755178Y-75607858D01*
X156610973Y-74038219D01*
X157320986Y-72397476D01*
X157879372Y-70699136D01*
X158281535Y-68957177D01*
X158524164Y-67185939D01*
X158605263Y-65400000D01*
X158600941Y-64987324D01*
X158482458Y-63203475D01*
X158259427Y-61795311D01*
X158299592Y-61822149D01*
X159718959Y-63241516D01*
X159649641Y-63590000D01*
X159765950Y-64174725D01*
X160097170Y-64670430D01*
X160380881Y-64860000D01*
X160097170Y-65049570D01*
X159765950Y-65545275D01*
X159649641Y-66130000D01*
X159765950Y-66714725D01*
X160097170Y-67210430D01*
X160380881Y-67400000D01*
X160097170Y-67589570D01*
X159765950Y-68085275D01*
X159649641Y-68670000D01*
X159765950Y-69254725D01*
X160097170Y-69750430D01*
X160380881Y-69940000D01*
X160097170Y-70129570D01*
X159765950Y-70625275D01*
X159649641Y-71210000D01*
X159765950Y-71794725D01*
X160097170Y-72290430D01*
X160380881Y-72480000D01*
X160097170Y-72669570D01*
X159765950Y-73165275D01*
X159649641Y-73750000D01*
X159718959Y-74098484D01*
X158799592Y-75017851D01*
X158734047Y-75061647D01*
X158560546Y-75321309D01*
X158515000Y-75550285D01*
X158515000Y-75550288D01*
X158499622Y-75627600D01*
X158515000Y-75704912D01*
X158515001Y-79922115D01*
X158503397Y-79894101D01*
X157705899Y-79096603D01*
X156663917Y-78665000D01*
X155536083Y-78665000D01*
X154494101Y-79096603D01*
X153696603Y-79894101D01*
X153265000Y-80936083D01*
X153265000Y-82063917D01*
X153696603Y-83105899D01*
X154494101Y-83903397D01*
X155536083Y-84335000D01*
X155821725Y-84335000D01*
X154741725Y-85415000D01*
X127768037Y-85415000D01*
X127652629Y-85299592D01*
X127608833Y-85234047D01*
X127349172Y-85060546D01*
X127120196Y-85015000D01*
X127120192Y-85015000D01*
X127042880Y-84999622D01*
X126965568Y-85015000D01*
X123798638Y-85015000D01*
X123728652Y-85001079D01*
X124205899Y-84803397D01*
X125003397Y-84005899D01*
X125435000Y-82963917D01*
X125435000Y-81836083D01*
X125003397Y-80794101D01*
X124205899Y-79996603D01*
X123163917Y-79565000D01*
X122036083Y-79565000D01*
X120994101Y-79996603D01*
X120196603Y-80794101D01*
X119765000Y-81836083D01*
X119765000Y-82963917D01*
X120196603Y-84005899D01*
X120994101Y-84803397D01*
X122036083Y-85235000D01*
X123033410Y-85235000D01*
X122990253Y-85299589D01*
X120857046Y-87432796D01*
X120751250Y-87327000D01*
X119527000Y-87327000D01*
X119527000Y-88301250D01*
X119685750Y-88460000D01*
X119829843Y-88460000D01*
X119562283Y-88727560D01*
X118775000Y-88727560D01*
X118431565Y-88795874D01*
X118140414Y-88990414D01*
X117945874Y-89281565D01*
X117877560Y-89625000D01*
X117877560Y-90375000D01*
X117945874Y-90718435D01*
X118140414Y-91009586D01*
X118431565Y-91204126D01*
X118615000Y-91240614D01*
X118615000Y-91914359D01*
X118456565Y-91945874D01*
X118165414Y-92140414D01*
X117970874Y-92431565D01*
X117902560Y-92775000D01*
X117902560Y-94225000D01*
X117970874Y-94568435D01*
X118165414Y-94859586D01*
X118456565Y-95054126D01*
X118800000Y-95122440D01*
X120000000Y-95122440D01*
X120343435Y-95054126D01*
X120634586Y-94859586D01*
X120786758Y-94631844D01*
X120829375Y-94695625D01*
X121320583Y-95023839D01*
X121900000Y-95139092D01*
X122479418Y-95023839D01*
X122970625Y-94695625D01*
X123150000Y-94427171D01*
X123329375Y-94695625D01*
X123820583Y-95023839D01*
X124400000Y-95139092D01*
X124979418Y-95023839D01*
X125470625Y-94695625D01*
X125650000Y-94427171D01*
X125829375Y-94695625D01*
X126320583Y-95023839D01*
X126900000Y-95139092D01*
X127479418Y-95023839D01*
X127970625Y-94695625D01*
X128298839Y-94204417D01*
X128382116Y-93785750D01*
X131815000Y-93785750D01*
X131815000Y-94601310D01*
X131911673Y-94834699D01*
X132090302Y-95013327D01*
X132323691Y-95110000D01*
X133014250Y-95110000D01*
X133173000Y-94951250D01*
X133173000Y-93627000D01*
X131973750Y-93627000D01*
X131815000Y-93785750D01*
X128382116Y-93785750D01*
X128385000Y-93771255D01*
X128385000Y-93228744D01*
X128298839Y-92795582D01*
X128033645Y-92398690D01*
X131815000Y-92398690D01*
X131815000Y-93214250D01*
X131973750Y-93373000D01*
X133173000Y-93373000D01*
X133173000Y-92048750D01*
X133014250Y-91890000D01*
X132323691Y-91890000D01*
X132090302Y-91986673D01*
X131911673Y-92165301D01*
X131815000Y-92398690D01*
X128033645Y-92398690D01*
X127970625Y-92304375D01*
X127479417Y-91976161D01*
X126900000Y-91860908D01*
X126320582Y-91976161D01*
X125829375Y-92304375D01*
X125650000Y-92572829D01*
X125470625Y-92304375D01*
X125185000Y-92113527D01*
X125185000Y-91190614D01*
X125368435Y-91154126D01*
X125659586Y-90959586D01*
X125854126Y-90668435D01*
X125922440Y-90325000D01*
X125922440Y-90039290D01*
X137698106Y-90039290D01*
X137560546Y-90245163D01*
X137515000Y-90474139D01*
X137515000Y-90474142D01*
X137499622Y-90551454D01*
X137515000Y-90628766D01*
X137515001Y-92113526D01*
X137229375Y-92304375D01*
X137050000Y-92572829D01*
X136870625Y-92304375D01*
X136379417Y-91976161D01*
X135800000Y-91860908D01*
X135220582Y-91976161D01*
X134742344Y-92295709D01*
X134688327Y-92165301D01*
X134509698Y-91986673D01*
X134276309Y-91890000D01*
X133585750Y-91890000D01*
X133427000Y-92048750D01*
X133427000Y-93373000D01*
X133447000Y-93373000D01*
X133447000Y-93627000D01*
X133427000Y-93627000D01*
X133427000Y-94951250D01*
X133585750Y-95110000D01*
X134276309Y-95110000D01*
X134509698Y-95013327D01*
X134688327Y-94834699D01*
X134742344Y-94704291D01*
X135220583Y-95023839D01*
X135800000Y-95139092D01*
X136379418Y-95023839D01*
X136870625Y-94695625D01*
X137050000Y-94427171D01*
X137229375Y-94695625D01*
X137720583Y-95023839D01*
X138300000Y-95139092D01*
X138879418Y-95023839D01*
X139370625Y-94695625D01*
X139550000Y-94427171D01*
X139729375Y-94695625D01*
X140220583Y-95023839D01*
X140800000Y-95139092D01*
X141379418Y-95023839D01*
X141870625Y-94695625D01*
X142198839Y-94204417D01*
X142282116Y-93785750D01*
X145615000Y-93785750D01*
X145615000Y-94626310D01*
X145711673Y-94859699D01*
X145890302Y-95038327D01*
X146123691Y-95135000D01*
X146814250Y-95135000D01*
X146973000Y-94976250D01*
X146973000Y-93627000D01*
X145773750Y-93627000D01*
X145615000Y-93785750D01*
X142282116Y-93785750D01*
X142285000Y-93771255D01*
X142285000Y-93228744D01*
X142198839Y-92795582D01*
X141916940Y-92373690D01*
X145615000Y-92373690D01*
X145615000Y-93214250D01*
X145773750Y-93373000D01*
X146973000Y-93373000D01*
X146973000Y-92023750D01*
X146814250Y-91865000D01*
X146123691Y-91865000D01*
X145890302Y-91961673D01*
X145711673Y-92140301D01*
X145615000Y-92373690D01*
X141916940Y-92373690D01*
X141870625Y-92304375D01*
X141485000Y-92046709D01*
X141485000Y-91409649D01*
X141709586Y-91259586D01*
X141904126Y-90968435D01*
X141972440Y-90625000D01*
X141972440Y-89375000D01*
X141904126Y-89031565D01*
X141709586Y-88740414D01*
X141418435Y-88545874D01*
X141416185Y-88545427D01*
X141832890Y-88128722D01*
X144661120Y-88128722D01*
X144233741Y-88556101D01*
X144218435Y-88545874D01*
X143875000Y-88477560D01*
X143125000Y-88477560D01*
X142781565Y-88545874D01*
X142490414Y-88740414D01*
X142295874Y-89031565D01*
X142227560Y-89375000D01*
X142227560Y-90625000D01*
X142295874Y-90968435D01*
X142490414Y-91259586D01*
X142781565Y-91454126D01*
X143125000Y-91522440D01*
X143875000Y-91522440D01*
X144218435Y-91454126D01*
X144509586Y-91259586D01*
X144704126Y-90968435D01*
X144772440Y-90625000D01*
X144772440Y-90237717D01*
X146225158Y-88785000D01*
X148560623Y-88785000D01*
X148395874Y-89031565D01*
X148327560Y-89375000D01*
X148327560Y-90625000D01*
X148395874Y-90968435D01*
X148590414Y-91259586D01*
X148815000Y-91409649D01*
X148815000Y-92088526D01*
X148542344Y-92270709D01*
X148488327Y-92140301D01*
X148309698Y-91961673D01*
X148076309Y-91865000D01*
X147385750Y-91865000D01*
X147227000Y-92023750D01*
X147227000Y-93373000D01*
X147247000Y-93373000D01*
X147247000Y-93627000D01*
X147227000Y-93627000D01*
X147227000Y-94976250D01*
X147385750Y-95135000D01*
X148076309Y-95135000D01*
X148309698Y-95038327D01*
X148488327Y-94859699D01*
X148542344Y-94729291D01*
X149020583Y-95048839D01*
X149600000Y-95164092D01*
X150179418Y-95048839D01*
X150670625Y-94720625D01*
X150998839Y-94229417D01*
X151085000Y-93796255D01*
X151085000Y-93785750D01*
X154415000Y-93785750D01*
X154415000Y-94626310D01*
X154511673Y-94859699D01*
X154690302Y-95038327D01*
X154923691Y-95135000D01*
X155614250Y-95135000D01*
X155773000Y-94976250D01*
X155773000Y-93627000D01*
X154573750Y-93627000D01*
X154415000Y-93785750D01*
X151085000Y-93785750D01*
X151085000Y-93203744D01*
X150998839Y-92770582D01*
X150733645Y-92373690D01*
X154415000Y-92373690D01*
X154415000Y-93214250D01*
X154573750Y-93373000D01*
X155773000Y-93373000D01*
X155773000Y-92023750D01*
X156027000Y-92023750D01*
X156027000Y-93373000D01*
X156047000Y-93373000D01*
X156047000Y-93627000D01*
X156027000Y-93627000D01*
X156027000Y-94976250D01*
X156185750Y-95135000D01*
X156876309Y-95135000D01*
X157109698Y-95038327D01*
X157288327Y-94859699D01*
X157342344Y-94729291D01*
X157820583Y-95048839D01*
X158400000Y-95164092D01*
X158979418Y-95048839D01*
X159470625Y-94720625D01*
X159798839Y-94229417D01*
X159885000Y-93796255D01*
X159885000Y-93203744D01*
X159798839Y-92770582D01*
X159470625Y-92279375D01*
X158979417Y-91951161D01*
X158400000Y-91835908D01*
X157820582Y-91951161D01*
X157342344Y-92270709D01*
X157288327Y-92140301D01*
X157109698Y-91961673D01*
X156876309Y-91865000D01*
X156185750Y-91865000D01*
X156027000Y-92023750D01*
X155773000Y-92023750D01*
X155614250Y-91865000D01*
X154923691Y-91865000D01*
X154690302Y-91961673D01*
X154511673Y-92140301D01*
X154415000Y-92373690D01*
X150733645Y-92373690D01*
X150670625Y-92279375D01*
X150385000Y-92088527D01*
X150385000Y-91409649D01*
X150609586Y-91259586D01*
X150804126Y-90968435D01*
X150872440Y-90625000D01*
X150872440Y-89375000D01*
X150804126Y-89031565D01*
X150639377Y-88785000D01*
X151360623Y-88785000D01*
X151195874Y-89031565D01*
X151127560Y-89375000D01*
X151127560Y-90625000D01*
X151195874Y-90968435D01*
X151390414Y-91259586D01*
X151681565Y-91454126D01*
X152025000Y-91522440D01*
X152775000Y-91522440D01*
X153118435Y-91454126D01*
X153409586Y-91259586D01*
X153604126Y-90968435D01*
X153672440Y-90625000D01*
X153672440Y-90237717D01*
X154425157Y-89485000D01*
X160173498Y-89485000D01*
X160250849Y-89500386D01*
X160328160Y-89485008D01*
X163064087Y-89485008D01*
X163141399Y-89500386D01*
X163218711Y-89485008D01*
X163218715Y-89485008D01*
X163447691Y-89439462D01*
X163707352Y-89265961D01*
X163751148Y-89200416D01*
X168865814Y-84085750D01*
X170115000Y-84085750D01*
X170115000Y-84776309D01*
X170211673Y-85009698D01*
X170390301Y-85188327D01*
X170623690Y-85285000D01*
X171314250Y-85285000D01*
X171473000Y-85126250D01*
X171473000Y-83927000D01*
X170273750Y-83927000D01*
X170115000Y-84085750D01*
X168865814Y-84085750D01*
X170115000Y-82836564D01*
X170115000Y-83514250D01*
X170273750Y-83673000D01*
X171473000Y-83673000D01*
X171473000Y-82473750D01*
X171314250Y-82315000D01*
X170636564Y-82315000D01*
X174712964Y-78238600D01*
X175010410Y-78238600D01*
X175005950Y-78245275D01*
X174889641Y-78830000D01*
X175005950Y-79414725D01*
X175337170Y-79910430D01*
X175785001Y-80209661D01*
X175785001Y-81044841D01*
X174476918Y-82352925D01*
X174286256Y-82315000D01*
X173993744Y-82315000D01*
X173560582Y-82401161D01*
X173069375Y-82729375D01*
X173054904Y-82751033D01*
X172988327Y-82590302D01*
X172809699Y-82411673D01*
X172576310Y-82315000D01*
X171885750Y-82315000D01*
X171727000Y-82473750D01*
X171727000Y-83673000D01*
X171747000Y-83673000D01*
X171747000Y-83927000D01*
X171727000Y-83927000D01*
X171727000Y-85126250D01*
X171885750Y-85285000D01*
X172576310Y-85285000D01*
X172809699Y-85188327D01*
X172988327Y-85009698D01*
X173054904Y-84848967D01*
X173069375Y-84870625D01*
X173560582Y-85198839D01*
X173993744Y-85285000D01*
X174286256Y-85285000D01*
X174719418Y-85198839D01*
X175210625Y-84870625D01*
X175410000Y-84572239D01*
X175609375Y-84870625D01*
X176100582Y-85198839D01*
X176533744Y-85285000D01*
X176826256Y-85285000D01*
X177259418Y-85198839D01*
X177750625Y-84870625D01*
X178078839Y-84379418D01*
X178194092Y-83800000D01*
X178162270Y-83640020D01*
X178256258Y-83546032D01*
X178256260Y-83546029D01*
X178782038Y-83020251D01*
X178860107Y-82968087D01*
X179066760Y-82658809D01*
X179121010Y-82386076D01*
X179139327Y-82293990D01*
X179121010Y-82201904D01*
X179121010Y-73235838D01*
X179139327Y-73143752D01*
X179121000Y-73051616D01*
X179121000Y-60065686D01*
X179139317Y-59973600D01*
X179105175Y-59801954D01*
X179066750Y-59608781D01*
X178860097Y-59299503D01*
X178782031Y-59247341D01*
X178216236Y-58681547D01*
X178250359Y-58510000D01*
X178134050Y-57925275D01*
X177802830Y-57429570D01*
X177519119Y-57240000D01*
X177802830Y-57050430D01*
X178134050Y-56554725D01*
X178250359Y-55970000D01*
X178134050Y-55385275D01*
X177802830Y-54889570D01*
X177513268Y-54696090D01*
X177920732Y-54332036D01*
X178174709Y-53804791D01*
X178177358Y-53789026D01*
X178056217Y-53557000D01*
X176697000Y-53557000D01*
X176697000Y-53577000D01*
X176443000Y-53577000D01*
X176443000Y-53557000D01*
X175083783Y-53557000D01*
X174962642Y-53789026D01*
X174965291Y-53804791D01*
X175219268Y-54332036D01*
X175626732Y-54696090D01*
X175337170Y-54889570D01*
X175005950Y-55385275D01*
X174889641Y-55970000D01*
X175005950Y-56554725D01*
X175337170Y-57050430D01*
X175620881Y-57240000D01*
X175337170Y-57429570D01*
X175280569Y-57514279D01*
X174874551Y-57108262D01*
X174822387Y-57030193D01*
X174513109Y-56823540D01*
X174240376Y-56769290D01*
X174148290Y-56750973D01*
X174056204Y-56769290D01*
X171487796Y-56769290D01*
X171395710Y-56750973D01*
X171303624Y-56769290D01*
X171155000Y-56798853D01*
X171155000Y-49680003D01*
X171300430Y-49582830D01*
X171493909Y-49293267D01*
X171857964Y-49700732D01*
X172385209Y-49954709D01*
X172400974Y-49957358D01*
X172633000Y-49836217D01*
X172633000Y-48477000D01*
X172887000Y-48477000D01*
X172887000Y-49836217D01*
X173119026Y-49957358D01*
X173134791Y-49954709D01*
X173662036Y-49700732D01*
X174030000Y-49288892D01*
X174397964Y-49700732D01*
X174925209Y-49954709D01*
X174940974Y-49957358D01*
X175172998Y-49836218D01*
X175172998Y-50001000D01*
X175209260Y-50001000D01*
X175005950Y-50305275D01*
X174889641Y-50890000D01*
X175005950Y-51474725D01*
X175337170Y-51970430D01*
X175626732Y-52163910D01*
X175219268Y-52527964D01*
X174965291Y-53055209D01*
X174962642Y-53070974D01*
X175083783Y-53303000D01*
X176443000Y-53303000D01*
X176443000Y-53283000D01*
X176697000Y-53283000D01*
X176697000Y-53303000D01*
X178056217Y-53303000D01*
X178177358Y-53070974D01*
X178174709Y-53055209D01*
X177920732Y-52527964D01*
X177513268Y-52163910D01*
X177802830Y-51970430D01*
X178134050Y-51474725D01*
X178250359Y-50890000D01*
X178134050Y-50305275D01*
X177802830Y-49809570D01*
X177307125Y-49478350D01*
X176869998Y-49391400D01*
X176478413Y-49391400D01*
X176591954Y-49264320D01*
X176785184Y-48711913D01*
X176640924Y-48477000D01*
X175427000Y-48477000D01*
X175427000Y-48497000D01*
X175173000Y-48497000D01*
X175173000Y-48477000D01*
X172887000Y-48477000D01*
X172633000Y-48477000D01*
X172613000Y-48477000D01*
X172613000Y-48223000D01*
X172633000Y-48223000D01*
X172633000Y-46863783D01*
X172887000Y-46863783D01*
X172887000Y-48223000D01*
X175173000Y-48223000D01*
X175173000Y-46863783D01*
X175427000Y-46863783D01*
X175427000Y-48223000D01*
X176640924Y-48223000D01*
X176785184Y-47988087D01*
X176591954Y-47435680D01*
X176202036Y-46999268D01*
X175674791Y-46745291D01*
X175659026Y-46742642D01*
X175427000Y-46863783D01*
X175173000Y-46863783D01*
X174940974Y-46742642D01*
X174925209Y-46745291D01*
X174397964Y-46999268D01*
X174030000Y-47411108D01*
X173662036Y-46999268D01*
X173134791Y-46745291D01*
X173119026Y-46742642D01*
X172887000Y-46863783D01*
X172633000Y-46863783D01*
X172400974Y-46742642D01*
X172385209Y-46745291D01*
X171857964Y-46999268D01*
X171493910Y-47406732D01*
X171300430Y-47117170D01*
X171155000Y-47019997D01*
X171155000Y-46826085D01*
X171173317Y-46733999D01*
X171100750Y-46369181D01*
X170946259Y-46137969D01*
X170894097Y-46059903D01*
X170816031Y-46007741D01*
X168393290Y-43585000D01*
X177381229Y-43585000D01*
X179215001Y-47165223D01*
X179215000Y-83731117D01*
X177399087Y-87190000D01*
X167469925Y-87190000D01*
X167400000Y-87176091D01*
X167330074Y-87190000D01*
X167122972Y-87231195D01*
X166888119Y-87388119D01*
X166731195Y-87622972D01*
X166676091Y-87900000D01*
X166690000Y-87969926D01*
X166690001Y-92215000D01*
X162467461Y-92215000D01*
X162400000Y-92201581D01*
X162332538Y-92215000D01*
X162132727Y-92254745D01*
X161906143Y-92406143D01*
X161754745Y-92632727D01*
X161701581Y-92900000D01*
X161715000Y-92967462D01*
X161715001Y-97215000D01*
X116085000Y-97215000D01*
X116085000Y-92967462D01*
X116098419Y-92900000D01*
X116045255Y-92632727D01*
X115893857Y-92406143D01*
X115667273Y-92254745D01*
X115467462Y-92215000D01*
X115467461Y-92215000D01*
X115400000Y-92201581D01*
X115332538Y-92215000D01*
X111085000Y-92215000D01*
X111085000Y-87967462D01*
X111098419Y-87900000D01*
X111045255Y-87632727D01*
X110947049Y-87485750D01*
X117890000Y-87485750D01*
X117890000Y-87951309D01*
X117986673Y-88184698D01*
X118165301Y-88363327D01*
X118398690Y-88460000D01*
X119114250Y-88460000D01*
X119273000Y-88301250D01*
X119273000Y-87327000D01*
X118048750Y-87327000D01*
X117890000Y-87485750D01*
X110947049Y-87485750D01*
X110893857Y-87406143D01*
X110667273Y-87254745D01*
X110467462Y-87215000D01*
X110467461Y-87215000D01*
X110400000Y-87201581D01*
X110332538Y-87215000D01*
X100328248Y-87215000D01*
X99954918Y-86448691D01*
X117890000Y-86448691D01*
X117890000Y-86914250D01*
X118048750Y-87073000D01*
X119273000Y-87073000D01*
X119273000Y-86098750D01*
X119527000Y-86098750D01*
X119527000Y-87073000D01*
X120751250Y-87073000D01*
X120910000Y-86914250D01*
X120910000Y-86448691D01*
X120813327Y-86215302D01*
X120634699Y-86036673D01*
X120401310Y-85940000D01*
X119685750Y-85940000D01*
X119527000Y-86098750D01*
X119273000Y-86098750D01*
X119114250Y-85940000D01*
X118398690Y-85940000D01*
X118165301Y-86036673D01*
X117986673Y-86215302D01*
X117890000Y-86448691D01*
X99954918Y-86448691D01*
X98685000Y-83842019D01*
X98685000Y-67534504D01*
X100315944Y-67534504D01*
X100663780Y-68334187D01*
X101291164Y-68939886D01*
X102025497Y-69244050D01*
X102373000Y-69132362D01*
X102373000Y-67187000D01*
X102627000Y-67187000D01*
X102627000Y-69132362D01*
X102974503Y-69244050D01*
X103708836Y-68939886D01*
X104336220Y-68334187D01*
X104684056Y-67534504D01*
X104572645Y-67187000D01*
X102627000Y-67187000D01*
X102373000Y-67187000D01*
X100427355Y-67187000D01*
X100315944Y-67534504D01*
X98685000Y-67534504D01*
X98685000Y-66585496D01*
X100315944Y-66585496D01*
X100427355Y-66933000D01*
X102373000Y-66933000D01*
X102373000Y-64987638D01*
X102627000Y-64987638D01*
X102627000Y-66933000D01*
X104572645Y-66933000D01*
X104684056Y-66585496D01*
X104336220Y-65785813D01*
X103708836Y-65180114D01*
X102974503Y-64875950D01*
X102627000Y-64987638D01*
X102373000Y-64987638D01*
X102025497Y-64875950D01*
X101291164Y-65180114D01*
X100663780Y-65785813D01*
X100315944Y-66585496D01*
X98685000Y-66585496D01*
X98685000Y-61685750D01*
X100165000Y-61685750D01*
X100165000Y-62376309D01*
X100261673Y-62609698D01*
X100440301Y-62788327D01*
X100673690Y-62885000D01*
X101514250Y-62885000D01*
X101673000Y-62726250D01*
X101673000Y-61527000D01*
X101927000Y-61527000D01*
X101927000Y-62726250D01*
X102085750Y-62885000D01*
X102926310Y-62885000D01*
X103159699Y-62788327D01*
X103338327Y-62609698D01*
X103435000Y-62376309D01*
X103435000Y-61685750D01*
X103276250Y-61527000D01*
X101927000Y-61527000D01*
X101673000Y-61527000D01*
X100323750Y-61527000D01*
X100165000Y-61685750D01*
X98685000Y-61685750D01*
X98685000Y-50600000D01*
X99246683Y-50600000D01*
X99265000Y-50692086D01*
X99265001Y-55757910D01*
X99246683Y-55850000D01*
X99319250Y-56214818D01*
X99469211Y-56439250D01*
X99525904Y-56524097D01*
X99603970Y-56576259D01*
X100745851Y-57718140D01*
X100579375Y-57829375D01*
X100251161Y-58320582D01*
X100135908Y-58900000D01*
X100251161Y-59479418D01*
X100570709Y-59957656D01*
X100440301Y-60011673D01*
X100261673Y-60190302D01*
X100165000Y-60423691D01*
X100165000Y-61114250D01*
X100323750Y-61273000D01*
X101673000Y-61273000D01*
X101673000Y-61253000D01*
X101927000Y-61253000D01*
X101927000Y-61273000D01*
X103276250Y-61273000D01*
X103435000Y-61114250D01*
X103435000Y-60423691D01*
X103338327Y-60190302D01*
X103159699Y-60011673D01*
X103029291Y-59957656D01*
X103348839Y-59479418D01*
X103464092Y-58900000D01*
X103348839Y-58320582D01*
X103020625Y-57829375D01*
X102735000Y-57638526D01*
X102735000Y-57542086D01*
X102753317Y-57450000D01*
X102707179Y-57218046D01*
X102680750Y-57085181D01*
X102474097Y-56775903D01*
X102396028Y-56723739D01*
X101757289Y-56085000D01*
X102214250Y-56085000D01*
X102373000Y-55926250D01*
X102373000Y-53827000D01*
X102627000Y-53827000D01*
X102627000Y-55926250D01*
X102785750Y-56085000D01*
X103426310Y-56085000D01*
X103659699Y-55988327D01*
X103838327Y-55809698D01*
X103935000Y-55576309D01*
X103935000Y-55485750D01*
X110815000Y-55485750D01*
X110815000Y-57326309D01*
X110911673Y-57559698D01*
X111090301Y-57738327D01*
X111323690Y-57835000D01*
X112414250Y-57835000D01*
X112573000Y-57676250D01*
X112573000Y-55327000D01*
X110973750Y-55327000D01*
X110815000Y-55485750D01*
X103935000Y-55485750D01*
X103935000Y-53985750D01*
X103776250Y-53827000D01*
X102627000Y-53827000D01*
X102373000Y-53827000D01*
X102353000Y-53827000D01*
X102353000Y-53573000D01*
X102373000Y-53573000D01*
X102373000Y-51473750D01*
X102627000Y-51473750D01*
X102627000Y-53573000D01*
X103776250Y-53573000D01*
X103935000Y-53414250D01*
X103935000Y-53073691D01*
X110815000Y-53073691D01*
X110815000Y-54914250D01*
X110973750Y-55073000D01*
X112573000Y-55073000D01*
X112573000Y-52723750D01*
X112414250Y-52565000D01*
X111323690Y-52565000D01*
X111090301Y-52661673D01*
X110911673Y-52840302D01*
X110815000Y-53073691D01*
X103935000Y-53073691D01*
X103935000Y-51823691D01*
X103838327Y-51590302D01*
X103659699Y-51411673D01*
X103426310Y-51315000D01*
X102785750Y-51315000D01*
X102627000Y-51473750D01*
X102373000Y-51473750D01*
X102214250Y-51315000D01*
X101573690Y-51315000D01*
X101340301Y-51411673D01*
X101161673Y-51590302D01*
X101135000Y-51654696D01*
X101135000Y-50987289D01*
X101538586Y-50583704D01*
X101606565Y-50629126D01*
X101950000Y-50697440D01*
X103050000Y-50697440D01*
X103393435Y-50629126D01*
X103684586Y-50434586D01*
X103879126Y-50143435D01*
X103947440Y-49800000D01*
X103947440Y-46800000D01*
X103879126Y-46456565D01*
X103684586Y-46165414D01*
X103393435Y-45970874D01*
X103050000Y-45902560D01*
X101950000Y-45902560D01*
X101606565Y-45970874D01*
X101315414Y-46165414D01*
X101120874Y-46456565D01*
X101052560Y-46800000D01*
X101052560Y-48425150D01*
X99603972Y-49873739D01*
X99525903Y-49925903D01*
X99473185Y-50004802D01*
X99319250Y-50235182D01*
X99246683Y-50600000D01*
X98685000Y-50600000D01*
X98685000Y-46869255D01*
X100413557Y-43585000D01*
X110332539Y-43585000D01*
X110400000Y-43598419D01*
X110667273Y-43545255D01*
X110893857Y-43393857D01*
X111045255Y-43167273D01*
X111085000Y-42967462D01*
X111085000Y-42967461D01*
X111098419Y-42900000D01*
X111085000Y-42832538D01*
X111085000Y-38585000D01*
X115332538Y-38585000D01*
X115400000Y-38598419D01*
X115467461Y-38585000D01*
X115467462Y-38585000D01*
X115667273Y-38545255D01*
X115893857Y-38393857D01*
X116045255Y-38167273D01*
X116066675Y-38059586D01*
X116085000Y-37967462D01*
X116085000Y-37967461D01*
X116098419Y-37900000D01*
X116085000Y-37832538D01*
X116085000Y-33585000D01*
X161715000Y-33585000D01*
X161715001Y-37832533D01*
G36*
X126833131Y-86700408D02*
X126876927Y-86765953D01*
X127136588Y-86939454D01*
X127365564Y-86985000D01*
X127365568Y-86985000D01*
X127442879Y-87000378D01*
X127520190Y-86985000D01*
X139004842Y-86985000D01*
X137520553Y-88469290D01*
X125173022Y-88469290D01*
X125095710Y-88453912D01*
X125018398Y-88469290D01*
X125018394Y-88469290D01*
X124789418Y-88514836D01*
X124545886Y-88677560D01*
X123775000Y-88677560D01*
X123431565Y-88745874D01*
X123140414Y-88940414D01*
X122945874Y-89231565D01*
X122877560Y-89575000D01*
X122877560Y-90325000D01*
X122945874Y-90668435D01*
X123140414Y-90959586D01*
X123431565Y-91154126D01*
X123615000Y-91190614D01*
X123615001Y-92113526D01*
X123329375Y-92304375D01*
X123150000Y-92572829D01*
X122970625Y-92304375D01*
X122479417Y-91976161D01*
X121900000Y-91860908D01*
X121320582Y-91976161D01*
X120829375Y-92304375D01*
X120786758Y-92368156D01*
X120634586Y-92140414D01*
X120343435Y-91945874D01*
X120185000Y-91914359D01*
X120185000Y-91240614D01*
X120368435Y-91204126D01*
X120659586Y-91009586D01*
X120854126Y-90718435D01*
X120922440Y-90375000D01*
X120922440Y-89625000D01*
X120916254Y-89593903D01*
X122890000Y-87620158D01*
X122890000Y-87901309D01*
X122986673Y-88134698D01*
X123165301Y-88313327D01*
X123398690Y-88410000D01*
X124114250Y-88410000D01*
X124273000Y-88251250D01*
X124273000Y-87277000D01*
X124527000Y-87277000D01*
X124527000Y-88251250D01*
X124685750Y-88410000D01*
X125401310Y-88410000D01*
X125634699Y-88313327D01*
X125813327Y-88134698D01*
X125910000Y-87901309D01*
X125910000Y-87435750D01*
X125751250Y-87277000D01*
X124527000Y-87277000D01*
X124273000Y-87277000D01*
X124253000Y-87277000D01*
X124253000Y-87023000D01*
X124273000Y-87023000D01*
X124273000Y-87003000D01*
X124527000Y-87003000D01*
X124527000Y-87023000D01*
X125751250Y-87023000D01*
X125910000Y-86864250D01*
X125910000Y-86585000D01*
X126717723Y-86585000D01*
X126833131Y-86700408D01*
X126833131Y-86700408D01*
G37*
X126833131Y-86700408D02*
X126876927Y-86765953D01*
X127136588Y-86939454D01*
X127365564Y-86985000D01*
X127365568Y-86985000D01*
X127442879Y-87000378D01*
X127520190Y-86985000D01*
X139004842Y-86985000D01*
X137520553Y-88469290D01*
X125173022Y-88469290D01*
X125095710Y-88453912D01*
X125018398Y-88469290D01*
X125018394Y-88469290D01*
X124789418Y-88514836D01*
X124545886Y-88677560D01*
X123775000Y-88677560D01*
X123431565Y-88745874D01*
X123140414Y-88940414D01*
X122945874Y-89231565D01*
X122877560Y-89575000D01*
X122877560Y-90325000D01*
X122945874Y-90668435D01*
X123140414Y-90959586D01*
X123431565Y-91154126D01*
X123615000Y-91190614D01*
X123615001Y-92113526D01*
X123329375Y-92304375D01*
X123150000Y-92572829D01*
X122970625Y-92304375D01*
X122479417Y-91976161D01*
X121900000Y-91860908D01*
X121320582Y-91976161D01*
X120829375Y-92304375D01*
X120786758Y-92368156D01*
X120634586Y-92140414D01*
X120343435Y-91945874D01*
X120185000Y-91914359D01*
X120185000Y-91240614D01*
X120368435Y-91204126D01*
X120659586Y-91009586D01*
X120854126Y-90718435D01*
X120922440Y-90375000D01*
X120922440Y-89625000D01*
X120916254Y-89593903D01*
X122890000Y-87620158D01*
X122890000Y-87901309D01*
X122986673Y-88134698D01*
X123165301Y-88313327D01*
X123398690Y-88410000D01*
X124114250Y-88410000D01*
X124273000Y-88251250D01*
X124273000Y-87277000D01*
X124527000Y-87277000D01*
X124527000Y-88251250D01*
X124685750Y-88410000D01*
X125401310Y-88410000D01*
X125634699Y-88313327D01*
X125813327Y-88134698D01*
X125910000Y-87901309D01*
X125910000Y-87435750D01*
X125751250Y-87277000D01*
X124527000Y-87277000D01*
X124273000Y-87277000D01*
X124253000Y-87277000D01*
X124253000Y-87023000D01*
X124273000Y-87023000D01*
X124273000Y-87003000D01*
X124527000Y-87003000D01*
X124527000Y-87023000D01*
X125751250Y-87023000D01*
X125910000Y-86864250D01*
X125910000Y-86585000D01*
X126717723Y-86585000D01*
X126833131Y-86700408D01*
G36*
X168121391Y-59329073D02*
X168106012Y-59406390D01*
X168166936Y-59712681D01*
X168296641Y-59906798D01*
X168296644Y-59906801D01*
X168340438Y-59972343D01*
X168405980Y-60016137D01*
X169183746Y-60793903D01*
X169177560Y-60825000D01*
X169177560Y-61575000D01*
X169245874Y-61918435D01*
X169440414Y-62209586D01*
X169731565Y-62404126D01*
X169907400Y-62439102D01*
X169960546Y-62706291D01*
X170090251Y-62900408D01*
X170090254Y-62900411D01*
X170134048Y-62965953D01*
X170199590Y-63009747D01*
X170365000Y-63175157D01*
X170365000Y-63185983D01*
X170507345Y-63529635D01*
X170770365Y-63792655D01*
X171114017Y-63935000D01*
X171485983Y-63935000D01*
X171829635Y-63792655D01*
X172092655Y-63529635D01*
X172235000Y-63185983D01*
X172235000Y-62814017D01*
X172092655Y-62470365D01*
X171883029Y-62260739D01*
X171959586Y-62209586D01*
X172154126Y-61918435D01*
X172222440Y-61575000D01*
X172222440Y-60825000D01*
X172154126Y-60481565D01*
X171959586Y-60190414D01*
X171668435Y-59995874D01*
X171325000Y-59927560D01*
X170537717Y-59927560D01*
X170282597Y-59672440D01*
X171325000Y-59672440D01*
X171668435Y-59604126D01*
X171959586Y-59409586D01*
X172154126Y-59118435D01*
X172222440Y-58775000D01*
X172222440Y-58639290D01*
X173015448Y-58639290D01*
X172738015Y-58916723D01*
X172506000Y-59476858D01*
X172506000Y-60083142D01*
X172738015Y-60643277D01*
X173144738Y-61050000D01*
X172738015Y-61456723D01*
X172506000Y-62016858D01*
X172506000Y-62623142D01*
X172738015Y-63183277D01*
X173166723Y-63611985D01*
X173726858Y-63844000D01*
X174333142Y-63844000D01*
X174893277Y-63611985D01*
X174893892Y-63611370D01*
X175005950Y-64174725D01*
X175337170Y-64670430D01*
X175620881Y-64860000D01*
X175337170Y-65049570D01*
X175005950Y-65545275D01*
X174889641Y-66130000D01*
X175005950Y-66714725D01*
X175337170Y-67210430D01*
X175620881Y-67400000D01*
X175337170Y-67589570D01*
X175005950Y-68085275D01*
X174893892Y-68648630D01*
X174893277Y-68648015D01*
X174333142Y-68416000D01*
X173726858Y-68416000D01*
X173166723Y-68648015D01*
X172738015Y-69076723D01*
X172506000Y-69636858D01*
X172506000Y-70243142D01*
X172738015Y-70803277D01*
X173144738Y-71210000D01*
X172738015Y-71616723D01*
X172506000Y-72176858D01*
X172506000Y-72783142D01*
X172738015Y-73343277D01*
X173166723Y-73771985D01*
X173375218Y-73858346D01*
X160674843Y-86558722D01*
X156580138Y-86558722D01*
X163196418Y-79942442D01*
X163261963Y-79898646D01*
X163435464Y-79638985D01*
X163481010Y-79410009D01*
X163481010Y-79410005D01*
X163496388Y-79332693D01*
X163481010Y-79255381D01*
X163481010Y-77580922D01*
X163496388Y-77503610D01*
X163481010Y-77426298D01*
X163481010Y-77426294D01*
X163435464Y-77197318D01*
X163261963Y-76937657D01*
X163196418Y-76893861D01*
X162941041Y-76638484D01*
X163010359Y-76290000D01*
X162894050Y-75705275D01*
X162562830Y-75209570D01*
X162279119Y-75020000D01*
X162562830Y-74830430D01*
X162894050Y-74334725D01*
X163010359Y-73750000D01*
X162894050Y-73165275D01*
X162562830Y-72669570D01*
X162279119Y-72480000D01*
X162562830Y-72290430D01*
X162894050Y-71794725D01*
X163010359Y-71210000D01*
X162894050Y-70625275D01*
X162562830Y-70129570D01*
X162279119Y-69940000D01*
X162562830Y-69750430D01*
X162894050Y-69254725D01*
X163010359Y-68670000D01*
X162894050Y-68085275D01*
X162562830Y-67589570D01*
X162279119Y-67400000D01*
X162562830Y-67210430D01*
X162894050Y-66714725D01*
X163010359Y-66130000D01*
X162894050Y-65545275D01*
X162562830Y-65049570D01*
X162279119Y-64860000D01*
X162562830Y-64670430D01*
X162894050Y-64174725D01*
X163010359Y-63590000D01*
X162894050Y-63005275D01*
X162562830Y-62509570D01*
X162279119Y-62320000D01*
X162562830Y-62130430D01*
X162894050Y-61634725D01*
X163010359Y-61050000D01*
X162894050Y-60465275D01*
X162562830Y-59969570D01*
X162273268Y-59776090D01*
X162680732Y-59412036D01*
X162934709Y-58884791D01*
X162937358Y-58869026D01*
X162816217Y-58637000D01*
X161457000Y-58637000D01*
X161457000Y-58657000D01*
X161203000Y-58657000D01*
X161203000Y-58637000D01*
X161183000Y-58637000D01*
X161183000Y-58383000D01*
X161203000Y-58383000D01*
X161203000Y-58363000D01*
X161457000Y-58363000D01*
X161457000Y-58383000D01*
X162816217Y-58383000D01*
X162937358Y-58150974D01*
X162934709Y-58135209D01*
X162680732Y-57607964D01*
X162273268Y-57243910D01*
X162562830Y-57050430D01*
X162740185Y-56785000D01*
X163562710Y-56785000D01*
X163570365Y-56792655D01*
X163914017Y-56935000D01*
X164285983Y-56935000D01*
X164629635Y-56792655D01*
X164892655Y-56529635D01*
X165035000Y-56185983D01*
X165035000Y-55814017D01*
X164892655Y-55470365D01*
X164629635Y-55207345D01*
X164285983Y-55065000D01*
X163914017Y-55065000D01*
X163570365Y-55207345D01*
X163562710Y-55215000D01*
X162780276Y-55215000D01*
X162562830Y-54889570D01*
X162279119Y-54700000D01*
X162562830Y-54510430D01*
X162750242Y-54229949D01*
X162752400Y-54230378D01*
X162829712Y-54215000D01*
X162829716Y-54215000D01*
X163058692Y-54169454D01*
X163318353Y-53995953D01*
X163362149Y-53930408D01*
X167331516Y-49961041D01*
X167680000Y-50030359D01*
X168121390Y-49942561D01*
X168121391Y-59329073D01*
X168121391Y-59329073D01*
G37*
X168121391Y-59329073D02*
X168106012Y-59406390D01*
X168166936Y-59712681D01*
X168296641Y-59906798D01*
X168296644Y-59906801D01*
X168340438Y-59972343D01*
X168405980Y-60016137D01*
X169183746Y-60793903D01*
X169177560Y-60825000D01*
X169177560Y-61575000D01*
X169245874Y-61918435D01*
X169440414Y-62209586D01*
X169731565Y-62404126D01*
X169907400Y-62439102D01*
X169960546Y-62706291D01*
X170090251Y-62900408D01*
X170090254Y-62900411D01*
X170134048Y-62965953D01*
X170199590Y-63009747D01*
X170365000Y-63175157D01*
X170365000Y-63185983D01*
X170507345Y-63529635D01*
X170770365Y-63792655D01*
X171114017Y-63935000D01*
X171485983Y-63935000D01*
X171829635Y-63792655D01*
X172092655Y-63529635D01*
X172235000Y-63185983D01*
X172235000Y-62814017D01*
X172092655Y-62470365D01*
X171883029Y-62260739D01*
X171959586Y-62209586D01*
X172154126Y-61918435D01*
X172222440Y-61575000D01*
X172222440Y-60825000D01*
X172154126Y-60481565D01*
X171959586Y-60190414D01*
X171668435Y-59995874D01*
X171325000Y-59927560D01*
X170537717Y-59927560D01*
X170282597Y-59672440D01*
X171325000Y-59672440D01*
X171668435Y-59604126D01*
X171959586Y-59409586D01*
X172154126Y-59118435D01*
X172222440Y-58775000D01*
X172222440Y-58639290D01*
X173015448Y-58639290D01*
X172738015Y-58916723D01*
X172506000Y-59476858D01*
X172506000Y-60083142D01*
X172738015Y-60643277D01*
X173144738Y-61050000D01*
X172738015Y-61456723D01*
X172506000Y-62016858D01*
X172506000Y-62623142D01*
X172738015Y-63183277D01*
X173166723Y-63611985D01*
X173726858Y-63844000D01*
X174333142Y-63844000D01*
X174893277Y-63611985D01*
X174893892Y-63611370D01*
X175005950Y-64174725D01*
X175337170Y-64670430D01*
X175620881Y-64860000D01*
X175337170Y-65049570D01*
X175005950Y-65545275D01*
X174889641Y-66130000D01*
X175005950Y-66714725D01*
X175337170Y-67210430D01*
X175620881Y-67400000D01*
X175337170Y-67589570D01*
X175005950Y-68085275D01*
X174893892Y-68648630D01*
X174893277Y-68648015D01*
X174333142Y-68416000D01*
X173726858Y-68416000D01*
X173166723Y-68648015D01*
X172738015Y-69076723D01*
X172506000Y-69636858D01*
X172506000Y-70243142D01*
X172738015Y-70803277D01*
X173144738Y-71210000D01*
X172738015Y-71616723D01*
X172506000Y-72176858D01*
X172506000Y-72783142D01*
X172738015Y-73343277D01*
X173166723Y-73771985D01*
X173375218Y-73858346D01*
X160674843Y-86558722D01*
X156580138Y-86558722D01*
X163196418Y-79942442D01*
X163261963Y-79898646D01*
X163435464Y-79638985D01*
X163481010Y-79410009D01*
X163481010Y-79410005D01*
X163496388Y-79332693D01*
X163481010Y-79255381D01*
X163481010Y-77580922D01*
X163496388Y-77503610D01*
X163481010Y-77426298D01*
X163481010Y-77426294D01*
X163435464Y-77197318D01*
X163261963Y-76937657D01*
X163196418Y-76893861D01*
X162941041Y-76638484D01*
X163010359Y-76290000D01*
X162894050Y-75705275D01*
X162562830Y-75209570D01*
X162279119Y-75020000D01*
X162562830Y-74830430D01*
X162894050Y-74334725D01*
X163010359Y-73750000D01*
X162894050Y-73165275D01*
X162562830Y-72669570D01*
X162279119Y-72480000D01*
X162562830Y-72290430D01*
X162894050Y-71794725D01*
X163010359Y-71210000D01*
X162894050Y-70625275D01*
X162562830Y-70129570D01*
X162279119Y-69940000D01*
X162562830Y-69750430D01*
X162894050Y-69254725D01*
X163010359Y-68670000D01*
X162894050Y-68085275D01*
X162562830Y-67589570D01*
X162279119Y-67400000D01*
X162562830Y-67210430D01*
X162894050Y-66714725D01*
X163010359Y-66130000D01*
X162894050Y-65545275D01*
X162562830Y-65049570D01*
X162279119Y-64860000D01*
X162562830Y-64670430D01*
X162894050Y-64174725D01*
X163010359Y-63590000D01*
X162894050Y-63005275D01*
X162562830Y-62509570D01*
X162279119Y-62320000D01*
X162562830Y-62130430D01*
X162894050Y-61634725D01*
X163010359Y-61050000D01*
X162894050Y-60465275D01*
X162562830Y-59969570D01*
X162273268Y-59776090D01*
X162680732Y-59412036D01*
X162934709Y-58884791D01*
X162937358Y-58869026D01*
X162816217Y-58637000D01*
X161457000Y-58637000D01*
X161457000Y-58657000D01*
X161203000Y-58657000D01*
X161203000Y-58637000D01*
X161183000Y-58637000D01*
X161183000Y-58383000D01*
X161203000Y-58383000D01*
X161203000Y-58363000D01*
X161457000Y-58363000D01*
X161457000Y-58383000D01*
X162816217Y-58383000D01*
X162937358Y-58150974D01*
X162934709Y-58135209D01*
X162680732Y-57607964D01*
X162273268Y-57243910D01*
X162562830Y-57050430D01*
X162740185Y-56785000D01*
X163562710Y-56785000D01*
X163570365Y-56792655D01*
X163914017Y-56935000D01*
X164285983Y-56935000D01*
X164629635Y-56792655D01*
X164892655Y-56529635D01*
X165035000Y-56185983D01*
X165035000Y-55814017D01*
X164892655Y-55470365D01*
X164629635Y-55207345D01*
X164285983Y-55065000D01*
X163914017Y-55065000D01*
X163570365Y-55207345D01*
X163562710Y-55215000D01*
X162780276Y-55215000D01*
X162562830Y-54889570D01*
X162279119Y-54700000D01*
X162562830Y-54510430D01*
X162750242Y-54229949D01*
X162752400Y-54230378D01*
X162829712Y-54215000D01*
X162829716Y-54215000D01*
X163058692Y-54169454D01*
X163318353Y-53995953D01*
X163362149Y-53930408D01*
X167331516Y-49961041D01*
X167680000Y-50030359D01*
X168121390Y-49942561D01*
X168121391Y-59329073D01*
G36*
X112065749Y-72764999D02*
X111927002Y-72764999D01*
X111927002Y-72626252D01*
X112065749Y-72764999D01*
X112065749Y-72764999D01*
G37*
X112065749Y-72764999D02*
X111927002Y-72764999D01*
X111927002Y-72626252D01*
X112065749Y-72764999D01*
G36*
X111672998Y-72764999D02*
X111534251Y-72764999D01*
X111672998Y-72626252D01*
X111672998Y-72764999D01*
X111672998Y-72764999D01*
G37*
X111672998Y-72764999D02*
X111534251Y-72764999D01*
X111672998Y-72626252D01*
X111672998Y-72764999D01*
G36*
X108272998Y-72764999D02*
X108134251Y-72764999D01*
X108272998Y-72626252D01*
X108272998Y-72764999D01*
X108272998Y-72764999D01*
G37*
X108272998Y-72764999D02*
X108134251Y-72764999D01*
X108272998Y-72626252D01*
X108272998Y-72764999D01*
G36*
X108665749Y-72764999D02*
X108527002Y-72764999D01*
X108527002Y-72626252D01*
X108665749Y-72764999D01*
X108665749Y-72764999D01*
G37*
X108665749Y-72764999D02*
X108527002Y-72764999D01*
X108527002Y-72626252D01*
X108665749Y-72764999D01*
G36*
X111319250Y-66189818D02*
X111428933Y-66353970D01*
X111525904Y-66499097D01*
X111603970Y-66551259D01*
X112026731Y-66974020D01*
X111927000Y-67073750D01*
X111927000Y-69723000D01*
X111947000Y-69723000D01*
X111947000Y-69977000D01*
X111927000Y-69977000D01*
X111927000Y-69997000D01*
X111673000Y-69997000D01*
X111673000Y-69977000D01*
X111653000Y-69977000D01*
X111653000Y-69723000D01*
X111673000Y-69723000D01*
X111673000Y-67073750D01*
X111514250Y-66915000D01*
X111123690Y-66915000D01*
X110950184Y-66986869D01*
X110897765Y-66951843D01*
X110734340Y-66919336D01*
X110696031Y-66893739D01*
X109674732Y-65872440D01*
X111256119Y-65872440D01*
X111319250Y-66189818D01*
X111319250Y-66189818D01*
G37*
X111319250Y-66189818D02*
X111428933Y-66353970D01*
X111525904Y-66499097D01*
X111603970Y-66551259D01*
X112026731Y-66974020D01*
X111927000Y-67073750D01*
X111927000Y-69723000D01*
X111947000Y-69723000D01*
X111947000Y-69977000D01*
X111927000Y-69977000D01*
X111927000Y-69997000D01*
X111673000Y-69997000D01*
X111673000Y-69977000D01*
X111653000Y-69977000D01*
X111653000Y-69723000D01*
X111673000Y-69723000D01*
X111673000Y-67073750D01*
X111514250Y-66915000D01*
X111123690Y-66915000D01*
X110950184Y-66986869D01*
X110897765Y-66951843D01*
X110734340Y-66919336D01*
X110696031Y-66893739D01*
X109674732Y-65872440D01*
X111256119Y-65872440D01*
X111319250Y-66189818D01*
G36*
X120451161Y-39579418D02*
X120779375Y-40070625D01*
X120843156Y-40113242D01*
X120615414Y-40265414D01*
X120420874Y-40556565D01*
X120352560Y-40900000D01*
X120352560Y-42100000D01*
X120420874Y-42443435D01*
X120615414Y-42734586D01*
X120906565Y-42929126D01*
X121250000Y-42997440D01*
X122180270Y-42997440D01*
X118703972Y-46473739D01*
X118625903Y-46525903D01*
X118469458Y-46760040D01*
X118419250Y-46835182D01*
X118346683Y-47200000D01*
X118365000Y-47292086D01*
X118365001Y-52252702D01*
X118322570Y-52355141D01*
X116285000Y-54392711D01*
X116285000Y-48592086D01*
X116303317Y-48500000D01*
X116230750Y-48135181D01*
X116169630Y-48043709D01*
X116024097Y-47825903D01*
X115946028Y-47773739D01*
X114776261Y-46603972D01*
X114724097Y-46525903D01*
X114716544Y-46520856D01*
X114901460Y-46244109D01*
X114955710Y-45971376D01*
X114955710Y-45971375D01*
X114974027Y-45879290D01*
X114955710Y-45787204D01*
X114955710Y-44465956D01*
X120350136Y-39071530D01*
X120451161Y-39579418D01*
X120451161Y-39579418D01*
G37*
X120451161Y-39579418D02*
X120779375Y-40070625D01*
X120843156Y-40113242D01*
X120615414Y-40265414D01*
X120420874Y-40556565D01*
X120352560Y-40900000D01*
X120352560Y-42100000D01*
X120420874Y-42443435D01*
X120615414Y-42734586D01*
X120906565Y-42929126D01*
X121250000Y-42997440D01*
X122180270Y-42997440D01*
X118703972Y-46473739D01*
X118625903Y-46525903D01*
X118469458Y-46760040D01*
X118419250Y-46835182D01*
X118346683Y-47200000D01*
X118365000Y-47292086D01*
X118365001Y-52252702D01*
X118322570Y-52355141D01*
X116285000Y-54392711D01*
X116285000Y-48592086D01*
X116303317Y-48500000D01*
X116230750Y-48135181D01*
X116169630Y-48043709D01*
X116024097Y-47825903D01*
X115946028Y-47773739D01*
X114776261Y-46603972D01*
X114724097Y-46525903D01*
X114716544Y-46520856D01*
X114901460Y-46244109D01*
X114955710Y-45971376D01*
X114955710Y-45971375D01*
X114974027Y-45879290D01*
X114955710Y-45787204D01*
X114955710Y-44465956D01*
X120350136Y-39071530D01*
X120451161Y-39579418D01*
G36*
X154227560Y-37425000D02*
X154295874Y-37768435D01*
X154490414Y-38059586D01*
X154715001Y-38209649D01*
X154715001Y-38264440D01*
X154577235Y-38291843D01*
X154392919Y-38415000D01*
X154237290Y-38415000D01*
X154229635Y-38407345D01*
X153885983Y-38265000D01*
X153514017Y-38265000D01*
X153170365Y-38407345D01*
X152907345Y-38670365D01*
X152765000Y-39014017D01*
X152765000Y-39086232D01*
X152754126Y-39031565D01*
X152559586Y-38740414D01*
X152268435Y-38545874D01*
X151925000Y-38477560D01*
X150675000Y-38477560D01*
X150331565Y-38545874D01*
X150040414Y-38740414D01*
X149845874Y-39031565D01*
X149777560Y-39375000D01*
X149777560Y-40125000D01*
X149845874Y-40468435D01*
X150040414Y-40759586D01*
X150043028Y-40761333D01*
X149895874Y-40981565D01*
X149827560Y-41325000D01*
X149827560Y-42075000D01*
X149895874Y-42418435D01*
X150090414Y-42709586D01*
X150381565Y-42904126D01*
X150725000Y-42972440D01*
X151975000Y-42972440D01*
X152318435Y-42904126D01*
X152609586Y-42709586D01*
X152804126Y-42418435D01*
X152825797Y-42309489D01*
X152890953Y-42265953D01*
X152934749Y-42200408D01*
X153890158Y-41245000D01*
X154214358Y-41245000D01*
X154177560Y-41430000D01*
X154177560Y-42030000D01*
X154226843Y-42277765D01*
X154279768Y-42356972D01*
X154190000Y-42573690D01*
X154190000Y-42714250D01*
X154348750Y-42873000D01*
X155473000Y-42873000D01*
X155473000Y-42853000D01*
X155727000Y-42853000D01*
X155727000Y-42873000D01*
X155747000Y-42873000D01*
X155747000Y-43127000D01*
X155727000Y-43127000D01*
X155727000Y-43776250D01*
X155885750Y-43935000D01*
X156501309Y-43935000D01*
X156734698Y-43838327D01*
X156913327Y-43659699D01*
X157010000Y-43426310D01*
X157010000Y-43285750D01*
X156851252Y-43127002D01*
X156961845Y-43127002D01*
X159885254Y-46050412D01*
X159929048Y-46115954D01*
X159994590Y-46159748D01*
X159994592Y-46159750D01*
X160069626Y-46209886D01*
X160188709Y-46289455D01*
X160417685Y-46335001D01*
X160417689Y-46335001D01*
X160495000Y-46350379D01*
X160572311Y-46335001D01*
X166423547Y-46335001D01*
X166962928Y-46874382D01*
X166599570Y-47117170D01*
X166410000Y-47400881D01*
X166220430Y-47117170D01*
X165724724Y-46785950D01*
X165140000Y-46669641D01*
X164555275Y-46785950D01*
X164059570Y-47117170D01*
X163870000Y-47400881D01*
X163680430Y-47117170D01*
X163184724Y-46785950D01*
X162600000Y-46669641D01*
X162015275Y-46785950D01*
X161519570Y-47117170D01*
X161188350Y-47612876D01*
X161101400Y-48050003D01*
X161101400Y-48649998D01*
X161188350Y-49087125D01*
X161391660Y-49391400D01*
X161030002Y-49391400D01*
X160592875Y-49478350D01*
X160097170Y-49809570D01*
X159765950Y-50305275D01*
X159649641Y-50890000D01*
X159765950Y-51474725D01*
X160097170Y-51970430D01*
X160380881Y-52160000D01*
X160097170Y-52349570D01*
X159765950Y-52845275D01*
X159649641Y-53430000D01*
X159726486Y-53816329D01*
X151670157Y-45760000D01*
X152351310Y-45760000D01*
X152584699Y-45663327D01*
X152763327Y-45484698D01*
X152860000Y-45251309D01*
X152860000Y-44785750D01*
X152701250Y-44627000D01*
X151477000Y-44627000D01*
X151477000Y-44647000D01*
X151223000Y-44647000D01*
X151223000Y-44627000D01*
X151203000Y-44627000D01*
X151203000Y-44373000D01*
X151223000Y-44373000D01*
X151223000Y-43398750D01*
X151477000Y-43398750D01*
X151477000Y-44373000D01*
X152701250Y-44373000D01*
X152860000Y-44214250D01*
X152860000Y-43748691D01*
X152763327Y-43515302D01*
X152584699Y-43336673D01*
X152461761Y-43285750D01*
X154190000Y-43285750D01*
X154190000Y-43426310D01*
X154286673Y-43659699D01*
X154465302Y-43838327D01*
X154698691Y-43935000D01*
X155314250Y-43935000D01*
X155473000Y-43776250D01*
X155473000Y-43127000D01*
X154348750Y-43127000D01*
X154190000Y-43285750D01*
X152461761Y-43285750D01*
X152351310Y-43240000D01*
X151635750Y-43240000D01*
X151477000Y-43398750D01*
X151223000Y-43398750D01*
X151064250Y-43240000D01*
X150348690Y-43240000D01*
X150115301Y-43336673D01*
X149936673Y-43515302D01*
X149840000Y-43748691D01*
X149840000Y-43929843D01*
X148572962Y-42662805D01*
X148560012Y-42597698D01*
X148560012Y-42597694D01*
X148514466Y-42368718D01*
X148340965Y-42109057D01*
X148275420Y-42065261D01*
X144175160Y-37965001D01*
X150048518Y-37965001D01*
X150331565Y-38154126D01*
X150675000Y-38222440D01*
X150794771Y-38222440D01*
X150950000Y-38253317D01*
X151105229Y-38222440D01*
X151925000Y-38222440D01*
X152268435Y-38154126D01*
X152559586Y-37959586D01*
X152754126Y-37668435D01*
X152822440Y-37325000D01*
X152822440Y-36749850D01*
X153312300Y-36259990D01*
X154227560Y-36259990D01*
X154227560Y-37425000D01*
X154227560Y-37425000D01*
G37*
X154227560Y-37425000D02*
X154295874Y-37768435D01*
X154490414Y-38059586D01*
X154715001Y-38209649D01*
X154715001Y-38264440D01*
X154577235Y-38291843D01*
X154392919Y-38415000D01*
X154237290Y-38415000D01*
X154229635Y-38407345D01*
X153885983Y-38265000D01*
X153514017Y-38265000D01*
X153170365Y-38407345D01*
X152907345Y-38670365D01*
X152765000Y-39014017D01*
X152765000Y-39086232D01*
X152754126Y-39031565D01*
X152559586Y-38740414D01*
X152268435Y-38545874D01*
X151925000Y-38477560D01*
X150675000Y-38477560D01*
X150331565Y-38545874D01*
X150040414Y-38740414D01*
X149845874Y-39031565D01*
X149777560Y-39375000D01*
X149777560Y-40125000D01*
X149845874Y-40468435D01*
X150040414Y-40759586D01*
X150043028Y-40761333D01*
X149895874Y-40981565D01*
X149827560Y-41325000D01*
X149827560Y-42075000D01*
X149895874Y-42418435D01*
X150090414Y-42709586D01*
X150381565Y-42904126D01*
X150725000Y-42972440D01*
X151975000Y-42972440D01*
X152318435Y-42904126D01*
X152609586Y-42709586D01*
X152804126Y-42418435D01*
X152825797Y-42309489D01*
X152890953Y-42265953D01*
X152934749Y-42200408D01*
X153890158Y-41245000D01*
X154214358Y-41245000D01*
X154177560Y-41430000D01*
X154177560Y-42030000D01*
X154226843Y-42277765D01*
X154279768Y-42356972D01*
X154190000Y-42573690D01*
X154190000Y-42714250D01*
X154348750Y-42873000D01*
X155473000Y-42873000D01*
X155473000Y-42853000D01*
X155727000Y-42853000D01*
X155727000Y-42873000D01*
X155747000Y-42873000D01*
X155747000Y-43127000D01*
X155727000Y-43127000D01*
X155727000Y-43776250D01*
X155885750Y-43935000D01*
X156501309Y-43935000D01*
X156734698Y-43838327D01*
X156913327Y-43659699D01*
X157010000Y-43426310D01*
X157010000Y-43285750D01*
X156851252Y-43127002D01*
X156961845Y-43127002D01*
X159885254Y-46050412D01*
X159929048Y-46115954D01*
X159994590Y-46159748D01*
X159994592Y-46159750D01*
X160069626Y-46209886D01*
X160188709Y-46289455D01*
X160417685Y-46335001D01*
X160417689Y-46335001D01*
X160495000Y-46350379D01*
X160572311Y-46335001D01*
X166423547Y-46335001D01*
X166962928Y-46874382D01*
X166599570Y-47117170D01*
X166410000Y-47400881D01*
X166220430Y-47117170D01*
X165724724Y-46785950D01*
X165140000Y-46669641D01*
X164555275Y-46785950D01*
X164059570Y-47117170D01*
X163870000Y-47400881D01*
X163680430Y-47117170D01*
X163184724Y-46785950D01*
X162600000Y-46669641D01*
X162015275Y-46785950D01*
X161519570Y-47117170D01*
X161188350Y-47612876D01*
X161101400Y-48050003D01*
X161101400Y-48649998D01*
X161188350Y-49087125D01*
X161391660Y-49391400D01*
X161030002Y-49391400D01*
X160592875Y-49478350D01*
X160097170Y-49809570D01*
X159765950Y-50305275D01*
X159649641Y-50890000D01*
X159765950Y-51474725D01*
X160097170Y-51970430D01*
X160380881Y-52160000D01*
X160097170Y-52349570D01*
X159765950Y-52845275D01*
X159649641Y-53430000D01*
X159726486Y-53816329D01*
X151670157Y-45760000D01*
X152351310Y-45760000D01*
X152584699Y-45663327D01*
X152763327Y-45484698D01*
X152860000Y-45251309D01*
X152860000Y-44785750D01*
X152701250Y-44627000D01*
X151477000Y-44627000D01*
X151477000Y-44647000D01*
X151223000Y-44647000D01*
X151223000Y-44627000D01*
X151203000Y-44627000D01*
X151203000Y-44373000D01*
X151223000Y-44373000D01*
X151223000Y-43398750D01*
X151477000Y-43398750D01*
X151477000Y-44373000D01*
X152701250Y-44373000D01*
X152860000Y-44214250D01*
X152860000Y-43748691D01*
X152763327Y-43515302D01*
X152584699Y-43336673D01*
X152461761Y-43285750D01*
X154190000Y-43285750D01*
X154190000Y-43426310D01*
X154286673Y-43659699D01*
X154465302Y-43838327D01*
X154698691Y-43935000D01*
X155314250Y-43935000D01*
X155473000Y-43776250D01*
X155473000Y-43127000D01*
X154348750Y-43127000D01*
X154190000Y-43285750D01*
X152461761Y-43285750D01*
X152351310Y-43240000D01*
X151635750Y-43240000D01*
X151477000Y-43398750D01*
X151223000Y-43398750D01*
X151064250Y-43240000D01*
X150348690Y-43240000D01*
X150115301Y-43336673D01*
X149936673Y-43515302D01*
X149840000Y-43748691D01*
X149840000Y-43929843D01*
X148572962Y-42662805D01*
X148560012Y-42597698D01*
X148560012Y-42597694D01*
X148514466Y-42368718D01*
X148340965Y-42109057D01*
X148275420Y-42065261D01*
X144175160Y-37965001D01*
X150048518Y-37965001D01*
X150331565Y-38154126D01*
X150675000Y-38222440D01*
X150794771Y-38222440D01*
X150950000Y-38253317D01*
X151105229Y-38222440D01*
X151925000Y-38222440D01*
X152268435Y-38154126D01*
X152559586Y-37959586D01*
X152754126Y-37668435D01*
X152822440Y-37325000D01*
X152822440Y-36749850D01*
X153312300Y-36259990D01*
X154227560Y-36259990D01*
X154227560Y-37425000D01*
G36*
X157027560Y-36849849D02*
X157027560Y-37425000D01*
X157095874Y-37768435D01*
X157290414Y-38059586D01*
X157581565Y-38254126D01*
X157925000Y-38322440D01*
X158675000Y-38322440D01*
X158709885Y-38315501D01*
X158826385Y-38338674D01*
X159577560Y-39089850D01*
X159577560Y-39490000D01*
X159626843Y-39737765D01*
X159685132Y-39825000D01*
X159626843Y-39912235D01*
X159577560Y-40160000D01*
X159577560Y-40760000D01*
X159626843Y-41007765D01*
X159679768Y-41086972D01*
X159590000Y-41303690D01*
X159590000Y-41444250D01*
X159748750Y-41603000D01*
X160873000Y-41603000D01*
X160873000Y-41583000D01*
X161127000Y-41583000D01*
X161127000Y-41603000D01*
X162251250Y-41603000D01*
X162410000Y-41444250D01*
X162410000Y-41303690D01*
X162320232Y-41086972D01*
X162373157Y-41007765D01*
X162422440Y-40760000D01*
X162422440Y-40258729D01*
X166954210Y-44790499D01*
X166826020Y-44765001D01*
X166826016Y-44765001D01*
X166748704Y-44749623D01*
X166671392Y-44765001D01*
X160820159Y-44765001D01*
X159913413Y-43858255D01*
X160098691Y-43935000D01*
X160714250Y-43935000D01*
X160873000Y-43776250D01*
X160873000Y-43127000D01*
X161127000Y-43127000D01*
X161127000Y-43776250D01*
X161285750Y-43935000D01*
X161901309Y-43935000D01*
X162134698Y-43838327D01*
X162313327Y-43659699D01*
X162410000Y-43426310D01*
X162410000Y-43285750D01*
X162251250Y-43127000D01*
X161127000Y-43127000D01*
X160873000Y-43127000D01*
X159748750Y-43127000D01*
X159590000Y-43285750D01*
X159590000Y-43426310D01*
X159666744Y-43611586D01*
X158070908Y-42015750D01*
X159590000Y-42015750D01*
X159590000Y-42156310D01*
X159676442Y-42365000D01*
X159590000Y-42573690D01*
X159590000Y-42714250D01*
X159748750Y-42873000D01*
X160873000Y-42873000D01*
X160873000Y-41857000D01*
X161127000Y-41857000D01*
X161127000Y-42873000D01*
X162251250Y-42873000D01*
X162410000Y-42714250D01*
X162410000Y-42573690D01*
X162323558Y-42365000D01*
X162410000Y-42156310D01*
X162410000Y-42015750D01*
X162251250Y-41857000D01*
X161127000Y-41857000D01*
X160873000Y-41857000D01*
X159748750Y-41857000D01*
X159590000Y-42015750D01*
X158070908Y-42015750D01*
X157284749Y-41229592D01*
X157240953Y-41164047D01*
X156981292Y-40990546D01*
X156976761Y-40989645D01*
X157022440Y-40760000D01*
X157022440Y-40160000D01*
X156973157Y-39912235D01*
X156914868Y-39825000D01*
X156973157Y-39737765D01*
X157022440Y-39490000D01*
X157022440Y-38890000D01*
X156973157Y-38642235D01*
X156832809Y-38432191D01*
X156622765Y-38291843D01*
X156375000Y-38242560D01*
X156285000Y-38242560D01*
X156285000Y-38209649D01*
X156509586Y-38059586D01*
X156704126Y-37768435D01*
X156772440Y-37425000D01*
X156772440Y-36594729D01*
X157027560Y-36849849D01*
X157027560Y-36849849D01*
G37*
X157027560Y-36849849D02*
X157027560Y-37425000D01*
X157095874Y-37768435D01*
X157290414Y-38059586D01*
X157581565Y-38254126D01*
X157925000Y-38322440D01*
X158675000Y-38322440D01*
X158709885Y-38315501D01*
X158826385Y-38338674D01*
X159577560Y-39089850D01*
X159577560Y-39490000D01*
X159626843Y-39737765D01*
X159685132Y-39825000D01*
X159626843Y-39912235D01*
X159577560Y-40160000D01*
X159577560Y-40760000D01*
X159626843Y-41007765D01*
X159679768Y-41086972D01*
X159590000Y-41303690D01*
X159590000Y-41444250D01*
X159748750Y-41603000D01*
X160873000Y-41603000D01*
X160873000Y-41583000D01*
X161127000Y-41583000D01*
X161127000Y-41603000D01*
X162251250Y-41603000D01*
X162410000Y-41444250D01*
X162410000Y-41303690D01*
X162320232Y-41086972D01*
X162373157Y-41007765D01*
X162422440Y-40760000D01*
X162422440Y-40258729D01*
X166954210Y-44790499D01*
X166826020Y-44765001D01*
X166826016Y-44765001D01*
X166748704Y-44749623D01*
X166671392Y-44765001D01*
X160820159Y-44765001D01*
X159913413Y-43858255D01*
X160098691Y-43935000D01*
X160714250Y-43935000D01*
X160873000Y-43776250D01*
X160873000Y-43127000D01*
X161127000Y-43127000D01*
X161127000Y-43776250D01*
X161285750Y-43935000D01*
X161901309Y-43935000D01*
X162134698Y-43838327D01*
X162313327Y-43659699D01*
X162410000Y-43426310D01*
X162410000Y-43285750D01*
X162251250Y-43127000D01*
X161127000Y-43127000D01*
X160873000Y-43127000D01*
X159748750Y-43127000D01*
X159590000Y-43285750D01*
X159590000Y-43426310D01*
X159666744Y-43611586D01*
X158070908Y-42015750D01*
X159590000Y-42015750D01*
X159590000Y-42156310D01*
X159676442Y-42365000D01*
X159590000Y-42573690D01*
X159590000Y-42714250D01*
X159748750Y-42873000D01*
X160873000Y-42873000D01*
X160873000Y-41857000D01*
X161127000Y-41857000D01*
X161127000Y-42873000D01*
X162251250Y-42873000D01*
X162410000Y-42714250D01*
X162410000Y-42573690D01*
X162323558Y-42365000D01*
X162410000Y-42156310D01*
X162410000Y-42015750D01*
X162251250Y-41857000D01*
X161127000Y-41857000D01*
X160873000Y-41857000D01*
X159748750Y-41857000D01*
X159590000Y-42015750D01*
X158070908Y-42015750D01*
X157284749Y-41229592D01*
X157240953Y-41164047D01*
X156981292Y-40990546D01*
X156976761Y-40989645D01*
X157022440Y-40760000D01*
X157022440Y-40160000D01*
X156973157Y-39912235D01*
X156914868Y-39825000D01*
X156973157Y-39737765D01*
X157022440Y-39490000D01*
X157022440Y-38890000D01*
X156973157Y-38642235D01*
X156832809Y-38432191D01*
X156622765Y-38291843D01*
X156375000Y-38242560D01*
X156285000Y-38242560D01*
X156285000Y-38209649D01*
X156509586Y-38059586D01*
X156704126Y-37768435D01*
X156772440Y-37425000D01*
X156772440Y-36594729D01*
X157027560Y-36849849D01*
G36*
X166715001Y-41732534D02*
X166715000Y-41732539D01*
X166715000Y-41906711D01*
X163402261Y-38593972D01*
X163396266Y-38585000D01*
X166715000Y-38585000D01*
X166715001Y-41732534D01*
X166715001Y-41732534D01*
G37*
X166715001Y-41732534D02*
X166715000Y-41732539D01*
X166715000Y-41906711D01*
X163402261Y-38593972D01*
X163396266Y-38585000D01*
X166715000Y-38585000D01*
X166715001Y-41732534D01*
G36*
X144904844Y-40914999D02*
X134722981Y-40914999D01*
X134735000Y-40885983D01*
X134735000Y-40514017D01*
X134592655Y-40170365D01*
X134329635Y-39907345D01*
X134034267Y-39785000D01*
X140862710Y-39785000D01*
X140870365Y-39792655D01*
X141214017Y-39935000D01*
X141585983Y-39935000D01*
X141929635Y-39792655D01*
X142192655Y-39529635D01*
X142335000Y-39185983D01*
X142335000Y-38814017D01*
X142322981Y-38785000D01*
X142774845Y-38785000D01*
X144904844Y-40914999D01*
X144904844Y-40914999D01*
G37*
X144904844Y-40914999D02*
X134722981Y-40914999D01*
X134735000Y-40885983D01*
X134735000Y-40514017D01*
X134592655Y-40170365D01*
X134329635Y-39907345D01*
X134034267Y-39785000D01*
X140862710Y-39785000D01*
X140870365Y-39792655D01*
X141214017Y-39935000D01*
X141585983Y-39935000D01*
X141929635Y-39792655D01*
X142192655Y-39529635D01*
X142335000Y-39185983D01*
X142335000Y-38814017D01*
X142322981Y-38785000D01*
X142774845Y-38785000D01*
X144904844Y-40914999D01*
G36*
X127685423Y-36664577D02*
X128160091Y-36981740D01*
X128578667Y-37065000D01*
X128832710Y-37065000D01*
X129393742Y-37626032D01*
X129445904Y-37704098D01*
X129755182Y-37910751D01*
X130027915Y-37965001D01*
X130027918Y-37965001D01*
X130120000Y-37983317D01*
X130212082Y-37965001D01*
X136165000Y-37965001D01*
X136165000Y-38185983D01*
X136177019Y-38215000D01*
X123411474Y-38215000D01*
X123220625Y-37929375D01*
X122729418Y-37601161D01*
X122296256Y-37515000D01*
X121906667Y-37515000D01*
X122856667Y-36565000D01*
X127618888Y-36565000D01*
X127685423Y-36664577D01*
X127685423Y-36664577D01*
G37*
X127685423Y-36664577D02*
X128160091Y-36981740D01*
X128578667Y-37065000D01*
X128832710Y-37065000D01*
X129393742Y-37626032D01*
X129445904Y-37704098D01*
X129755182Y-37910751D01*
X130027915Y-37965001D01*
X130027918Y-37965001D01*
X130120000Y-37983317D01*
X130212082Y-37965001D01*
X136165000Y-37965001D01*
X136165000Y-38185983D01*
X136177019Y-38215000D01*
X123411474Y-38215000D01*
X123220625Y-37929375D01*
X122729418Y-37601161D01*
X122296256Y-37515000D01*
X121906667Y-37515000D01*
X122856667Y-36565000D01*
X127618888Y-36565000D01*
X127685423Y-36664577D01*
G04 #@! TD*
M02*
