G04 #@! TF.GenerationSoftware,KiCad,Pcbnew,5.0.2-bee76a0~70~ubuntu18.04.1*
G04 #@! TF.CreationDate,2020-07-16T16:32:00+05:30*
G04 #@! TF.ProjectId,plug_with_power_1A_v1.1,706c7567-5f77-4697-9468-5f706f776572,rev?*
G04 #@! TF.SameCoordinates,Original*
G04 #@! TF.FileFunction,Soldermask,Bot*
G04 #@! TF.FilePolarity,Negative*
%FSLAX46Y46*%
G04 Gerber Fmt 4.6, Leading zero omitted, Abs format (unit mm)*
G04 Created by KiCad (PCBNEW 5.0.2-bee76a0~70~ubuntu18.04.1) date Thu Jul 16 16:32:00 2020*
%MOMM*%
%LPD*%
G01*
G04 APERTURE LIST*
%ADD10C,0.100000*%
G04 APERTURE END LIST*
D10*
G36*
X126252851Y-77147530D02*
X126281414Y-77156194D01*
X126307735Y-77170263D01*
X126330804Y-77189196D01*
X126349737Y-77212265D01*
X126363806Y-77238586D01*
X126372470Y-77267149D01*
X126376000Y-77302989D01*
X126376000Y-80247011D01*
X126372470Y-80282851D01*
X126363806Y-80311414D01*
X126349737Y-80337735D01*
X126330804Y-80360804D01*
X126307735Y-80379737D01*
X126281414Y-80393806D01*
X126252851Y-80402470D01*
X126217011Y-80406000D01*
X122332989Y-80406000D01*
X122297149Y-80402470D01*
X122268586Y-80393806D01*
X122242265Y-80379737D01*
X122219196Y-80360804D01*
X122200263Y-80337735D01*
X122186194Y-80311414D01*
X122177530Y-80282851D01*
X122174000Y-80247011D01*
X122174000Y-77302989D01*
X122177530Y-77267149D01*
X122186194Y-77238586D01*
X122200263Y-77212265D01*
X122219196Y-77189196D01*
X122242265Y-77170263D01*
X122268586Y-77156194D01*
X122297149Y-77147530D01*
X122332989Y-77144000D01*
X126217011Y-77144000D01*
X126252851Y-77147530D01*
X126252851Y-77147530D01*
G37*
G36*
X95376000Y-78991000D02*
X93574000Y-78991000D01*
X93574000Y-77189000D01*
X95376000Y-77189000D01*
X95376000Y-78991000D01*
X95376000Y-78991000D01*
G37*
G36*
X94585443Y-74655519D02*
X94651627Y-74662037D01*
X94764853Y-74696384D01*
X94821467Y-74713557D01*
X94960087Y-74787652D01*
X94977991Y-74797222D01*
X94999653Y-74815000D01*
X95115186Y-74909814D01*
X95198448Y-75011271D01*
X95227778Y-75047009D01*
X95227779Y-75047011D01*
X95311443Y-75203533D01*
X95311443Y-75203534D01*
X95362963Y-75373373D01*
X95380359Y-75550000D01*
X95362963Y-75726627D01*
X95328616Y-75839853D01*
X95311443Y-75896467D01*
X95270069Y-75973871D01*
X95227778Y-76052991D01*
X95198448Y-76088729D01*
X95115186Y-76190186D01*
X95013729Y-76273448D01*
X94977991Y-76302778D01*
X94977989Y-76302779D01*
X94821467Y-76386443D01*
X94764853Y-76403616D01*
X94651627Y-76437963D01*
X94585442Y-76444482D01*
X94519260Y-76451000D01*
X94430740Y-76451000D01*
X94364558Y-76444482D01*
X94298373Y-76437963D01*
X94185147Y-76403616D01*
X94128533Y-76386443D01*
X93972011Y-76302779D01*
X93972009Y-76302778D01*
X93936271Y-76273448D01*
X93834814Y-76190186D01*
X93751552Y-76088729D01*
X93722222Y-76052991D01*
X93679931Y-75973871D01*
X93638557Y-75896467D01*
X93621384Y-75839853D01*
X93587037Y-75726627D01*
X93569641Y-75550000D01*
X93587037Y-75373373D01*
X93638557Y-75203534D01*
X93638557Y-75203533D01*
X93722221Y-75047011D01*
X93722222Y-75047009D01*
X93751552Y-75011271D01*
X93834814Y-74909814D01*
X93950347Y-74815000D01*
X93972009Y-74797222D01*
X93989913Y-74787652D01*
X94128533Y-74713557D01*
X94185147Y-74696384D01*
X94298373Y-74662037D01*
X94364557Y-74655519D01*
X94430740Y-74649000D01*
X94519260Y-74649000D01*
X94585443Y-74655519D01*
X94585443Y-74655519D01*
G37*
G36*
X125064728Y-73207599D02*
X125064731Y-73207600D01*
X125064732Y-73207600D01*
X125372176Y-73300862D01*
X125655519Y-73452312D01*
X125655521Y-73452313D01*
X125655520Y-73452313D01*
X125903871Y-73656129D01*
X126107687Y-73904480D01*
X126259137Y-74187822D01*
X126352401Y-74495272D01*
X126383891Y-74815000D01*
X126352401Y-75134728D01*
X126352400Y-75134731D01*
X126352400Y-75134732D01*
X126259138Y-75442176D01*
X126107688Y-75725519D01*
X125903871Y-75973871D01*
X125655519Y-76177688D01*
X125372176Y-76329138D01*
X125064732Y-76422400D01*
X125064731Y-76422400D01*
X125064728Y-76422401D01*
X124825122Y-76446000D01*
X123724878Y-76446000D01*
X123485272Y-76422401D01*
X123485269Y-76422400D01*
X123485268Y-76422400D01*
X123177824Y-76329138D01*
X122894481Y-76177688D01*
X122646129Y-75973871D01*
X122442312Y-75725519D01*
X122290862Y-75442176D01*
X122197600Y-75134732D01*
X122197600Y-75134731D01*
X122197599Y-75134728D01*
X122166109Y-74815000D01*
X122197599Y-74495272D01*
X122290863Y-74187822D01*
X122442313Y-73904480D01*
X122646129Y-73656129D01*
X122894480Y-73452313D01*
X122894479Y-73452313D01*
X122894481Y-73452312D01*
X123177824Y-73300862D01*
X123485268Y-73207600D01*
X123485269Y-73207600D01*
X123485272Y-73207599D01*
X123724878Y-73184000D01*
X124825122Y-73184000D01*
X125064728Y-73207599D01*
X125064728Y-73207599D01*
G37*
M02*
