G04 #@! TF.GenerationSoftware,KiCad,Pcbnew,5.0.2-bee76a0~70~ubuntu18.04.1*
G04 #@! TF.CreationDate,2020-07-16T16:32:00+05:30*
G04 #@! TF.ProjectId,plug_with_power_1A_v1.1,706c7567-5f77-4697-9468-5f706f776572,rev?*
G04 #@! TF.SameCoordinates,Original*
G04 #@! TF.FileFunction,Soldermask,Top*
G04 #@! TF.FilePolarity,Negative*
%FSLAX46Y46*%
G04 Gerber Fmt 4.6, Leading zero omitted, Abs format (unit mm)*
G04 Created by KiCad (PCBNEW 5.0.2-bee76a0~70~ubuntu18.04.1) date Thu Jul 16 16:32:00 2020*
%MOMM*%
%LPD*%
G01*
G04 APERTURE LIST*
%ADD10C,0.100000*%
G04 APERTURE END LIST*
D10*
G36*
X104667091Y-81903085D02*
X104701069Y-81913393D01*
X104732387Y-81930133D01*
X104759839Y-81952661D01*
X104782367Y-81980113D01*
X104799107Y-82011431D01*
X104809415Y-82045409D01*
X104813500Y-82086890D01*
X104813500Y-82763110D01*
X104809415Y-82804591D01*
X104799107Y-82838569D01*
X104782367Y-82869887D01*
X104759839Y-82897339D01*
X104732387Y-82919867D01*
X104701069Y-82936607D01*
X104667091Y-82946915D01*
X104625610Y-82951000D01*
X104024390Y-82951000D01*
X103982909Y-82946915D01*
X103948931Y-82936607D01*
X103917613Y-82919867D01*
X103890161Y-82897339D01*
X103867633Y-82869887D01*
X103850893Y-82838569D01*
X103840585Y-82804591D01*
X103836500Y-82763110D01*
X103836500Y-82086890D01*
X103840585Y-82045409D01*
X103850893Y-82011431D01*
X103867633Y-81980113D01*
X103890161Y-81952661D01*
X103917613Y-81930133D01*
X103948931Y-81913393D01*
X103982909Y-81903085D01*
X104024390Y-81899000D01*
X104625610Y-81899000D01*
X104667091Y-81903085D01*
X104667091Y-81903085D01*
G37*
G36*
X103092091Y-81903085D02*
X103126069Y-81913393D01*
X103157387Y-81930133D01*
X103184839Y-81952661D01*
X103207367Y-81980113D01*
X103224107Y-82011431D01*
X103234415Y-82045409D01*
X103238500Y-82086890D01*
X103238500Y-82763110D01*
X103234415Y-82804591D01*
X103224107Y-82838569D01*
X103207367Y-82869887D01*
X103184839Y-82897339D01*
X103157387Y-82919867D01*
X103126069Y-82936607D01*
X103092091Y-82946915D01*
X103050610Y-82951000D01*
X102449390Y-82951000D01*
X102407909Y-82946915D01*
X102373931Y-82936607D01*
X102342613Y-82919867D01*
X102315161Y-82897339D01*
X102292633Y-82869887D01*
X102275893Y-82838569D01*
X102265585Y-82804591D01*
X102261500Y-82763110D01*
X102261500Y-82086890D01*
X102265585Y-82045409D01*
X102275893Y-82011431D01*
X102292633Y-81980113D01*
X102315161Y-81952661D01*
X102342613Y-81930133D01*
X102373931Y-81913393D01*
X102407909Y-81903085D01*
X102449390Y-81899000D01*
X103050610Y-81899000D01*
X103092091Y-81903085D01*
X103092091Y-81903085D01*
G37*
G36*
X113242091Y-81453085D02*
X113276069Y-81463393D01*
X113307387Y-81480133D01*
X113334839Y-81502661D01*
X113357367Y-81530113D01*
X113374107Y-81561431D01*
X113384415Y-81595409D01*
X113388500Y-81636890D01*
X113388500Y-82313110D01*
X113384415Y-82354591D01*
X113374107Y-82388569D01*
X113357367Y-82419887D01*
X113334839Y-82447339D01*
X113307387Y-82469867D01*
X113276069Y-82486607D01*
X113242091Y-82496915D01*
X113200610Y-82501000D01*
X112599390Y-82501000D01*
X112557909Y-82496915D01*
X112523931Y-82486607D01*
X112492613Y-82469867D01*
X112465161Y-82447339D01*
X112442633Y-82419887D01*
X112425893Y-82388569D01*
X112415585Y-82354591D01*
X112411500Y-82313110D01*
X112411500Y-81636890D01*
X112415585Y-81595409D01*
X112425893Y-81561431D01*
X112442633Y-81530113D01*
X112465161Y-81502661D01*
X112492613Y-81480133D01*
X112523931Y-81463393D01*
X112557909Y-81453085D01*
X112599390Y-81449000D01*
X113200610Y-81449000D01*
X113242091Y-81453085D01*
X113242091Y-81453085D01*
G37*
G36*
X114817091Y-81453085D02*
X114851069Y-81463393D01*
X114882387Y-81480133D01*
X114909839Y-81502661D01*
X114932367Y-81530113D01*
X114949107Y-81561431D01*
X114959415Y-81595409D01*
X114963500Y-81636890D01*
X114963500Y-82313110D01*
X114959415Y-82354591D01*
X114949107Y-82388569D01*
X114932367Y-82419887D01*
X114909839Y-82447339D01*
X114882387Y-82469867D01*
X114851069Y-82486607D01*
X114817091Y-82496915D01*
X114775610Y-82501000D01*
X114174390Y-82501000D01*
X114132909Y-82496915D01*
X114098931Y-82486607D01*
X114067613Y-82469867D01*
X114040161Y-82447339D01*
X114017633Y-82419887D01*
X114000893Y-82388569D01*
X113990585Y-82354591D01*
X113986500Y-82313110D01*
X113986500Y-81636890D01*
X113990585Y-81595409D01*
X114000893Y-81561431D01*
X114017633Y-81530113D01*
X114040161Y-81502661D01*
X114067613Y-81480133D01*
X114098931Y-81463393D01*
X114132909Y-81453085D01*
X114174390Y-81449000D01*
X114775610Y-81449000D01*
X114817091Y-81453085D01*
X114817091Y-81453085D01*
G37*
G36*
X98481000Y-80606000D02*
X96879000Y-80606000D01*
X96879000Y-78724000D01*
X98481000Y-78724000D01*
X98481000Y-80606000D01*
X98481000Y-80606000D01*
G37*
G36*
X108011000Y-80606000D02*
X106409000Y-80606000D01*
X106409000Y-78724000D01*
X108011000Y-78724000D01*
X108011000Y-80606000D01*
X108011000Y-80606000D01*
G37*
G36*
X126252851Y-77147530D02*
X126281414Y-77156194D01*
X126307735Y-77170263D01*
X126330804Y-77189196D01*
X126349737Y-77212265D01*
X126363806Y-77238586D01*
X126372470Y-77267149D01*
X126376000Y-77302989D01*
X126376000Y-80247011D01*
X126372470Y-80282851D01*
X126363806Y-80311414D01*
X126349737Y-80337735D01*
X126330804Y-80360804D01*
X126307735Y-80379737D01*
X126281414Y-80393806D01*
X126252851Y-80402470D01*
X126217011Y-80406000D01*
X122332989Y-80406000D01*
X122297149Y-80402470D01*
X122268586Y-80393806D01*
X122242265Y-80379737D01*
X122219196Y-80360804D01*
X122200263Y-80337735D01*
X122186194Y-80311414D01*
X122177530Y-80282851D01*
X122174000Y-80247011D01*
X122174000Y-77302989D01*
X122177530Y-77267149D01*
X122186194Y-77238586D01*
X122200263Y-77212265D01*
X122219196Y-77189196D01*
X122242265Y-77170263D01*
X122268586Y-77156194D01*
X122297149Y-77147530D01*
X122332989Y-77144000D01*
X126217011Y-77144000D01*
X126252851Y-77147530D01*
X126252851Y-77147530D01*
G37*
G36*
X111851000Y-80176000D02*
X109749000Y-80176000D01*
X109749000Y-78574000D01*
X111851000Y-78574000D01*
X111851000Y-80176000D01*
X111851000Y-80176000D01*
G37*
G36*
X118151000Y-79026000D02*
X116049000Y-79026000D01*
X116049000Y-75124000D01*
X118151000Y-75124000D01*
X118151000Y-79026000D01*
X118151000Y-79026000D01*
G37*
G36*
X95376000Y-78991000D02*
X93574000Y-78991000D01*
X93574000Y-77189000D01*
X95376000Y-77189000D01*
X95376000Y-78991000D01*
X95376000Y-78991000D01*
G37*
G36*
X98481000Y-78066000D02*
X96879000Y-78066000D01*
X96879000Y-76184000D01*
X98481000Y-76184000D01*
X98481000Y-78066000D01*
X98481000Y-78066000D01*
G37*
G36*
X108011000Y-78066000D02*
X106409000Y-78066000D01*
X106409000Y-76184000D01*
X108011000Y-76184000D01*
X108011000Y-78066000D01*
X108011000Y-78066000D01*
G37*
G36*
X111851000Y-77876000D02*
X109749000Y-77876000D01*
X109749000Y-76274000D01*
X111851000Y-76274000D01*
X111851000Y-77876000D01*
X111851000Y-77876000D01*
G37*
G36*
X94585443Y-74655519D02*
X94651627Y-74662037D01*
X94764853Y-74696384D01*
X94821467Y-74713557D01*
X94960087Y-74787652D01*
X94977991Y-74797222D01*
X94999653Y-74815000D01*
X95115186Y-74909814D01*
X95198448Y-75011271D01*
X95227778Y-75047009D01*
X95227779Y-75047011D01*
X95311443Y-75203533D01*
X95311443Y-75203534D01*
X95362963Y-75373373D01*
X95380359Y-75550000D01*
X95362963Y-75726627D01*
X95328616Y-75839853D01*
X95311443Y-75896467D01*
X95270069Y-75973871D01*
X95227778Y-76052991D01*
X95198448Y-76088729D01*
X95115186Y-76190186D01*
X95013729Y-76273448D01*
X94977991Y-76302778D01*
X94977989Y-76302779D01*
X94821467Y-76386443D01*
X94764853Y-76403616D01*
X94651627Y-76437963D01*
X94585442Y-76444482D01*
X94519260Y-76451000D01*
X94430740Y-76451000D01*
X94364558Y-76444482D01*
X94298373Y-76437963D01*
X94185147Y-76403616D01*
X94128533Y-76386443D01*
X93972011Y-76302779D01*
X93972009Y-76302778D01*
X93936271Y-76273448D01*
X93834814Y-76190186D01*
X93751552Y-76088729D01*
X93722222Y-76052991D01*
X93679931Y-75973871D01*
X93638557Y-75896467D01*
X93621384Y-75839853D01*
X93587037Y-75726627D01*
X93569641Y-75550000D01*
X93587037Y-75373373D01*
X93638557Y-75203534D01*
X93638557Y-75203533D01*
X93722221Y-75047011D01*
X93722222Y-75047009D01*
X93751552Y-75011271D01*
X93834814Y-74909814D01*
X93950347Y-74815000D01*
X93972009Y-74797222D01*
X93989913Y-74787652D01*
X94128533Y-74713557D01*
X94185147Y-74696384D01*
X94298373Y-74662037D01*
X94364557Y-74655519D01*
X94430740Y-74649000D01*
X94519260Y-74649000D01*
X94585443Y-74655519D01*
X94585443Y-74655519D01*
G37*
G36*
X125064728Y-73207599D02*
X125064731Y-73207600D01*
X125064732Y-73207600D01*
X125372176Y-73300862D01*
X125655519Y-73452312D01*
X125903871Y-73656129D01*
X126107688Y-73904481D01*
X126239580Y-74151234D01*
X126259137Y-74187822D01*
X126352401Y-74495272D01*
X126383891Y-74815000D01*
X126352401Y-75134728D01*
X126352400Y-75134731D01*
X126352400Y-75134732D01*
X126259138Y-75442176D01*
X126107688Y-75725519D01*
X125903871Y-75973871D01*
X125655519Y-76177688D01*
X125372176Y-76329138D01*
X125064732Y-76422400D01*
X125064731Y-76422400D01*
X125064728Y-76422401D01*
X124825122Y-76446000D01*
X123724878Y-76446000D01*
X123485272Y-76422401D01*
X123485269Y-76422400D01*
X123485268Y-76422400D01*
X123177824Y-76329138D01*
X122894481Y-76177688D01*
X122646129Y-75973871D01*
X122442312Y-75725519D01*
X122290862Y-75442176D01*
X122197600Y-75134732D01*
X122197600Y-75134731D01*
X122197599Y-75134728D01*
X122166109Y-74815000D01*
X122197599Y-74495272D01*
X122290863Y-74187822D01*
X122310420Y-74151234D01*
X122442312Y-73904481D01*
X122646129Y-73656129D01*
X122894481Y-73452312D01*
X123177824Y-73300862D01*
X123485268Y-73207600D01*
X123485269Y-73207600D01*
X123485272Y-73207599D01*
X123724878Y-73184000D01*
X124825122Y-73184000D01*
X125064728Y-73207599D01*
X125064728Y-73207599D01*
G37*
G36*
X111851000Y-75576000D02*
X109749000Y-75576000D01*
X109749000Y-73974000D01*
X111851000Y-73974000D01*
X111851000Y-75576000D01*
X111851000Y-75576000D01*
G37*
G36*
X98481000Y-75526000D02*
X96879000Y-75526000D01*
X96879000Y-73644000D01*
X98481000Y-73644000D01*
X98481000Y-75526000D01*
X98481000Y-75526000D01*
G37*
G36*
X108011000Y-75526000D02*
X106409000Y-75526000D01*
X106409000Y-73644000D01*
X108011000Y-73644000D01*
X108011000Y-75526000D01*
X108011000Y-75526000D01*
G37*
G36*
X99254591Y-71453085D02*
X99288569Y-71463393D01*
X99319887Y-71480133D01*
X99347339Y-71502661D01*
X99369867Y-71530113D01*
X99386607Y-71561431D01*
X99396915Y-71595409D01*
X99401000Y-71636890D01*
X99401000Y-72313110D01*
X99396915Y-72354591D01*
X99386607Y-72388569D01*
X99369867Y-72419887D01*
X99347339Y-72447339D01*
X99319887Y-72469867D01*
X99288569Y-72486607D01*
X99254591Y-72496915D01*
X99213110Y-72501000D01*
X98611890Y-72501000D01*
X98570409Y-72496915D01*
X98536431Y-72486607D01*
X98505113Y-72469867D01*
X98477661Y-72447339D01*
X98455133Y-72419887D01*
X98438393Y-72388569D01*
X98428085Y-72354591D01*
X98424000Y-72313110D01*
X98424000Y-71636890D01*
X98428085Y-71595409D01*
X98438393Y-71561431D01*
X98455133Y-71530113D01*
X98477661Y-71502661D01*
X98505113Y-71480133D01*
X98536431Y-71463393D01*
X98570409Y-71453085D01*
X98611890Y-71449000D01*
X99213110Y-71449000D01*
X99254591Y-71453085D01*
X99254591Y-71453085D01*
G37*
G36*
X103092091Y-71453085D02*
X103126069Y-71463393D01*
X103157387Y-71480133D01*
X103184839Y-71502661D01*
X103207367Y-71530113D01*
X103224107Y-71561431D01*
X103234415Y-71595409D01*
X103238500Y-71636890D01*
X103238500Y-72313110D01*
X103234415Y-72354591D01*
X103224107Y-72388569D01*
X103207367Y-72419887D01*
X103184839Y-72447339D01*
X103157387Y-72469867D01*
X103126069Y-72486607D01*
X103092091Y-72496915D01*
X103050610Y-72501000D01*
X102449390Y-72501000D01*
X102407909Y-72496915D01*
X102373931Y-72486607D01*
X102342613Y-72469867D01*
X102315161Y-72447339D01*
X102292633Y-72419887D01*
X102275893Y-72388569D01*
X102265585Y-72354591D01*
X102261500Y-72313110D01*
X102261500Y-71636890D01*
X102265585Y-71595409D01*
X102275893Y-71561431D01*
X102292633Y-71530113D01*
X102315161Y-71502661D01*
X102342613Y-71480133D01*
X102373931Y-71463393D01*
X102407909Y-71453085D01*
X102449390Y-71449000D01*
X103050610Y-71449000D01*
X103092091Y-71453085D01*
X103092091Y-71453085D01*
G37*
G36*
X104667091Y-71453085D02*
X104701069Y-71463393D01*
X104732387Y-71480133D01*
X104759839Y-71502661D01*
X104782367Y-71530113D01*
X104799107Y-71561431D01*
X104809415Y-71595409D01*
X104813500Y-71636890D01*
X104813500Y-72313110D01*
X104809415Y-72354591D01*
X104799107Y-72388569D01*
X104782367Y-72419887D01*
X104759839Y-72447339D01*
X104732387Y-72469867D01*
X104701069Y-72486607D01*
X104667091Y-72496915D01*
X104625610Y-72501000D01*
X104024390Y-72501000D01*
X103982909Y-72496915D01*
X103948931Y-72486607D01*
X103917613Y-72469867D01*
X103890161Y-72447339D01*
X103867633Y-72419887D01*
X103850893Y-72388569D01*
X103840585Y-72354591D01*
X103836500Y-72313110D01*
X103836500Y-71636890D01*
X103840585Y-71595409D01*
X103850893Y-71561431D01*
X103867633Y-71530113D01*
X103890161Y-71502661D01*
X103917613Y-71480133D01*
X103948931Y-71463393D01*
X103982909Y-71453085D01*
X104024390Y-71449000D01*
X104625610Y-71449000D01*
X104667091Y-71453085D01*
X104667091Y-71453085D01*
G37*
G36*
X97679591Y-71453085D02*
X97713569Y-71463393D01*
X97744887Y-71480133D01*
X97772339Y-71502661D01*
X97794867Y-71530113D01*
X97811607Y-71561431D01*
X97821915Y-71595409D01*
X97826000Y-71636890D01*
X97826000Y-72313110D01*
X97821915Y-72354591D01*
X97811607Y-72388569D01*
X97794867Y-72419887D01*
X97772339Y-72447339D01*
X97744887Y-72469867D01*
X97713569Y-72486607D01*
X97679591Y-72496915D01*
X97638110Y-72501000D01*
X97036890Y-72501000D01*
X96995409Y-72496915D01*
X96961431Y-72486607D01*
X96930113Y-72469867D01*
X96902661Y-72447339D01*
X96880133Y-72419887D01*
X96863393Y-72388569D01*
X96853085Y-72354591D01*
X96849000Y-72313110D01*
X96849000Y-71636890D01*
X96853085Y-71595409D01*
X96863393Y-71561431D01*
X96880133Y-71530113D01*
X96902661Y-71502661D01*
X96930113Y-71480133D01*
X96961431Y-71463393D01*
X96995409Y-71453085D01*
X97036890Y-71449000D01*
X97638110Y-71449000D01*
X97679591Y-71453085D01*
X97679591Y-71453085D01*
G37*
G36*
X110259591Y-71453085D02*
X110293569Y-71463393D01*
X110324887Y-71480133D01*
X110352339Y-71502661D01*
X110374867Y-71530113D01*
X110391607Y-71561431D01*
X110401915Y-71595409D01*
X110406000Y-71636890D01*
X110406000Y-72313110D01*
X110401915Y-72354591D01*
X110391607Y-72388569D01*
X110374867Y-72419887D01*
X110352339Y-72447339D01*
X110324887Y-72469867D01*
X110293569Y-72486607D01*
X110259591Y-72496915D01*
X110218110Y-72501000D01*
X109616890Y-72501000D01*
X109575409Y-72496915D01*
X109541431Y-72486607D01*
X109510113Y-72469867D01*
X109482661Y-72447339D01*
X109460133Y-72419887D01*
X109443393Y-72388569D01*
X109433085Y-72354591D01*
X109429000Y-72313110D01*
X109429000Y-71636890D01*
X109433085Y-71595409D01*
X109443393Y-71561431D01*
X109460133Y-71530113D01*
X109482661Y-71502661D01*
X109510113Y-71480133D01*
X109541431Y-71463393D01*
X109575409Y-71453085D01*
X109616890Y-71449000D01*
X110218110Y-71449000D01*
X110259591Y-71453085D01*
X110259591Y-71453085D01*
G37*
G36*
X111834591Y-71453085D02*
X111868569Y-71463393D01*
X111899887Y-71480133D01*
X111927339Y-71502661D01*
X111949867Y-71530113D01*
X111966607Y-71561431D01*
X111976915Y-71595409D01*
X111981000Y-71636890D01*
X111981000Y-72313110D01*
X111976915Y-72354591D01*
X111966607Y-72388569D01*
X111949867Y-72419887D01*
X111927339Y-72447339D01*
X111899887Y-72469867D01*
X111868569Y-72486607D01*
X111834591Y-72496915D01*
X111793110Y-72501000D01*
X111191890Y-72501000D01*
X111150409Y-72496915D01*
X111116431Y-72486607D01*
X111085113Y-72469867D01*
X111057661Y-72447339D01*
X111035133Y-72419887D01*
X111018393Y-72388569D01*
X111008085Y-72354591D01*
X111004000Y-72313110D01*
X111004000Y-71636890D01*
X111008085Y-71595409D01*
X111018393Y-71561431D01*
X111035133Y-71530113D01*
X111057661Y-71502661D01*
X111085113Y-71480133D01*
X111116431Y-71463393D01*
X111150409Y-71453085D01*
X111191890Y-71449000D01*
X111793110Y-71449000D01*
X111834591Y-71453085D01*
X111834591Y-71453085D01*
G37*
M02*
