G04 #@! TF.GenerationSoftware,KiCad,Pcbnew,5.0.2-bee76a0~70~ubuntu18.04.1*
G04 #@! TF.CreationDate,2020-07-16T16:32:00+05:30*
G04 #@! TF.ProjectId,plug_with_power_1A_v1.1,706c7567-5f77-4697-9468-5f706f776572,rev?*
G04 #@! TF.SameCoordinates,Original*
G04 #@! TF.FileFunction,Paste,Top*
G04 #@! TF.FilePolarity,Positive*
%FSLAX46Y46*%
G04 Gerber Fmt 4.6, Leading zero omitted, Abs format (unit mm)*
G04 Created by KiCad (PCBNEW 5.0.2-bee76a0~70~ubuntu18.04.1) date Thu Jul 16 16:32:00 2020*
%MOMM*%
%LPD*%
G01*
G04 APERTURE LIST*
%ADD10C,0.100000*%
%ADD11C,0.875000*%
%ADD12R,1.500000X1.780000*%
%ADD13R,2.000000X1.500000*%
%ADD14R,2.000000X3.800000*%
G04 APERTURE END LIST*
D10*
G04 #@! TO.C,R1*
G36*
X99152691Y-71501053D02*
X99173926Y-71504203D01*
X99194750Y-71509419D01*
X99214962Y-71516651D01*
X99234368Y-71525830D01*
X99252781Y-71536866D01*
X99270024Y-71549654D01*
X99285930Y-71564070D01*
X99300346Y-71579976D01*
X99313134Y-71597219D01*
X99324170Y-71615632D01*
X99333349Y-71635038D01*
X99340581Y-71655250D01*
X99345797Y-71676074D01*
X99348947Y-71697309D01*
X99350000Y-71718750D01*
X99350000Y-72231250D01*
X99348947Y-72252691D01*
X99345797Y-72273926D01*
X99340581Y-72294750D01*
X99333349Y-72314962D01*
X99324170Y-72334368D01*
X99313134Y-72352781D01*
X99300346Y-72370024D01*
X99285930Y-72385930D01*
X99270024Y-72400346D01*
X99252781Y-72413134D01*
X99234368Y-72424170D01*
X99214962Y-72433349D01*
X99194750Y-72440581D01*
X99173926Y-72445797D01*
X99152691Y-72448947D01*
X99131250Y-72450000D01*
X98693750Y-72450000D01*
X98672309Y-72448947D01*
X98651074Y-72445797D01*
X98630250Y-72440581D01*
X98610038Y-72433349D01*
X98590632Y-72424170D01*
X98572219Y-72413134D01*
X98554976Y-72400346D01*
X98539070Y-72385930D01*
X98524654Y-72370024D01*
X98511866Y-72352781D01*
X98500830Y-72334368D01*
X98491651Y-72314962D01*
X98484419Y-72294750D01*
X98479203Y-72273926D01*
X98476053Y-72252691D01*
X98475000Y-72231250D01*
X98475000Y-71718750D01*
X98476053Y-71697309D01*
X98479203Y-71676074D01*
X98484419Y-71655250D01*
X98491651Y-71635038D01*
X98500830Y-71615632D01*
X98511866Y-71597219D01*
X98524654Y-71579976D01*
X98539070Y-71564070D01*
X98554976Y-71549654D01*
X98572219Y-71536866D01*
X98590632Y-71525830D01*
X98610038Y-71516651D01*
X98630250Y-71509419D01*
X98651074Y-71504203D01*
X98672309Y-71501053D01*
X98693750Y-71500000D01*
X99131250Y-71500000D01*
X99152691Y-71501053D01*
X99152691Y-71501053D01*
G37*
D11*
X98912500Y-71975000D03*
D10*
G36*
X97577691Y-71501053D02*
X97598926Y-71504203D01*
X97619750Y-71509419D01*
X97639962Y-71516651D01*
X97659368Y-71525830D01*
X97677781Y-71536866D01*
X97695024Y-71549654D01*
X97710930Y-71564070D01*
X97725346Y-71579976D01*
X97738134Y-71597219D01*
X97749170Y-71615632D01*
X97758349Y-71635038D01*
X97765581Y-71655250D01*
X97770797Y-71676074D01*
X97773947Y-71697309D01*
X97775000Y-71718750D01*
X97775000Y-72231250D01*
X97773947Y-72252691D01*
X97770797Y-72273926D01*
X97765581Y-72294750D01*
X97758349Y-72314962D01*
X97749170Y-72334368D01*
X97738134Y-72352781D01*
X97725346Y-72370024D01*
X97710930Y-72385930D01*
X97695024Y-72400346D01*
X97677781Y-72413134D01*
X97659368Y-72424170D01*
X97639962Y-72433349D01*
X97619750Y-72440581D01*
X97598926Y-72445797D01*
X97577691Y-72448947D01*
X97556250Y-72450000D01*
X97118750Y-72450000D01*
X97097309Y-72448947D01*
X97076074Y-72445797D01*
X97055250Y-72440581D01*
X97035038Y-72433349D01*
X97015632Y-72424170D01*
X96997219Y-72413134D01*
X96979976Y-72400346D01*
X96964070Y-72385930D01*
X96949654Y-72370024D01*
X96936866Y-72352781D01*
X96925830Y-72334368D01*
X96916651Y-72314962D01*
X96909419Y-72294750D01*
X96904203Y-72273926D01*
X96901053Y-72252691D01*
X96900000Y-72231250D01*
X96900000Y-71718750D01*
X96901053Y-71697309D01*
X96904203Y-71676074D01*
X96909419Y-71655250D01*
X96916651Y-71635038D01*
X96925830Y-71615632D01*
X96936866Y-71597219D01*
X96949654Y-71579976D01*
X96964070Y-71564070D01*
X96979976Y-71549654D01*
X96997219Y-71536866D01*
X97015632Y-71525830D01*
X97035038Y-71516651D01*
X97055250Y-71509419D01*
X97076074Y-71504203D01*
X97097309Y-71501053D01*
X97118750Y-71500000D01*
X97556250Y-71500000D01*
X97577691Y-71501053D01*
X97577691Y-71501053D01*
G37*
D11*
X97337500Y-71975000D03*
G04 #@! TD*
D10*
G04 #@! TO.C,R3*
G36*
X114715191Y-81501053D02*
X114736426Y-81504203D01*
X114757250Y-81509419D01*
X114777462Y-81516651D01*
X114796868Y-81525830D01*
X114815281Y-81536866D01*
X114832524Y-81549654D01*
X114848430Y-81564070D01*
X114862846Y-81579976D01*
X114875634Y-81597219D01*
X114886670Y-81615632D01*
X114895849Y-81635038D01*
X114903081Y-81655250D01*
X114908297Y-81676074D01*
X114911447Y-81697309D01*
X114912500Y-81718750D01*
X114912500Y-82231250D01*
X114911447Y-82252691D01*
X114908297Y-82273926D01*
X114903081Y-82294750D01*
X114895849Y-82314962D01*
X114886670Y-82334368D01*
X114875634Y-82352781D01*
X114862846Y-82370024D01*
X114848430Y-82385930D01*
X114832524Y-82400346D01*
X114815281Y-82413134D01*
X114796868Y-82424170D01*
X114777462Y-82433349D01*
X114757250Y-82440581D01*
X114736426Y-82445797D01*
X114715191Y-82448947D01*
X114693750Y-82450000D01*
X114256250Y-82450000D01*
X114234809Y-82448947D01*
X114213574Y-82445797D01*
X114192750Y-82440581D01*
X114172538Y-82433349D01*
X114153132Y-82424170D01*
X114134719Y-82413134D01*
X114117476Y-82400346D01*
X114101570Y-82385930D01*
X114087154Y-82370024D01*
X114074366Y-82352781D01*
X114063330Y-82334368D01*
X114054151Y-82314962D01*
X114046919Y-82294750D01*
X114041703Y-82273926D01*
X114038553Y-82252691D01*
X114037500Y-82231250D01*
X114037500Y-81718750D01*
X114038553Y-81697309D01*
X114041703Y-81676074D01*
X114046919Y-81655250D01*
X114054151Y-81635038D01*
X114063330Y-81615632D01*
X114074366Y-81597219D01*
X114087154Y-81579976D01*
X114101570Y-81564070D01*
X114117476Y-81549654D01*
X114134719Y-81536866D01*
X114153132Y-81525830D01*
X114172538Y-81516651D01*
X114192750Y-81509419D01*
X114213574Y-81504203D01*
X114234809Y-81501053D01*
X114256250Y-81500000D01*
X114693750Y-81500000D01*
X114715191Y-81501053D01*
X114715191Y-81501053D01*
G37*
D11*
X114475000Y-81975000D03*
D10*
G36*
X113140191Y-81501053D02*
X113161426Y-81504203D01*
X113182250Y-81509419D01*
X113202462Y-81516651D01*
X113221868Y-81525830D01*
X113240281Y-81536866D01*
X113257524Y-81549654D01*
X113273430Y-81564070D01*
X113287846Y-81579976D01*
X113300634Y-81597219D01*
X113311670Y-81615632D01*
X113320849Y-81635038D01*
X113328081Y-81655250D01*
X113333297Y-81676074D01*
X113336447Y-81697309D01*
X113337500Y-81718750D01*
X113337500Y-82231250D01*
X113336447Y-82252691D01*
X113333297Y-82273926D01*
X113328081Y-82294750D01*
X113320849Y-82314962D01*
X113311670Y-82334368D01*
X113300634Y-82352781D01*
X113287846Y-82370024D01*
X113273430Y-82385930D01*
X113257524Y-82400346D01*
X113240281Y-82413134D01*
X113221868Y-82424170D01*
X113202462Y-82433349D01*
X113182250Y-82440581D01*
X113161426Y-82445797D01*
X113140191Y-82448947D01*
X113118750Y-82450000D01*
X112681250Y-82450000D01*
X112659809Y-82448947D01*
X112638574Y-82445797D01*
X112617750Y-82440581D01*
X112597538Y-82433349D01*
X112578132Y-82424170D01*
X112559719Y-82413134D01*
X112542476Y-82400346D01*
X112526570Y-82385930D01*
X112512154Y-82370024D01*
X112499366Y-82352781D01*
X112488330Y-82334368D01*
X112479151Y-82314962D01*
X112471919Y-82294750D01*
X112466703Y-82273926D01*
X112463553Y-82252691D01*
X112462500Y-82231250D01*
X112462500Y-81718750D01*
X112463553Y-81697309D01*
X112466703Y-81676074D01*
X112471919Y-81655250D01*
X112479151Y-81635038D01*
X112488330Y-81615632D01*
X112499366Y-81597219D01*
X112512154Y-81579976D01*
X112526570Y-81564070D01*
X112542476Y-81549654D01*
X112559719Y-81536866D01*
X112578132Y-81525830D01*
X112597538Y-81516651D01*
X112617750Y-81509419D01*
X112638574Y-81504203D01*
X112659809Y-81501053D01*
X112681250Y-81500000D01*
X113118750Y-81500000D01*
X113140191Y-81501053D01*
X113140191Y-81501053D01*
G37*
D11*
X112900000Y-81975000D03*
G04 #@! TD*
D10*
G04 #@! TO.C,R4*
G36*
X110157691Y-71501053D02*
X110178926Y-71504203D01*
X110199750Y-71509419D01*
X110219962Y-71516651D01*
X110239368Y-71525830D01*
X110257781Y-71536866D01*
X110275024Y-71549654D01*
X110290930Y-71564070D01*
X110305346Y-71579976D01*
X110318134Y-71597219D01*
X110329170Y-71615632D01*
X110338349Y-71635038D01*
X110345581Y-71655250D01*
X110350797Y-71676074D01*
X110353947Y-71697309D01*
X110355000Y-71718750D01*
X110355000Y-72231250D01*
X110353947Y-72252691D01*
X110350797Y-72273926D01*
X110345581Y-72294750D01*
X110338349Y-72314962D01*
X110329170Y-72334368D01*
X110318134Y-72352781D01*
X110305346Y-72370024D01*
X110290930Y-72385930D01*
X110275024Y-72400346D01*
X110257781Y-72413134D01*
X110239368Y-72424170D01*
X110219962Y-72433349D01*
X110199750Y-72440581D01*
X110178926Y-72445797D01*
X110157691Y-72448947D01*
X110136250Y-72450000D01*
X109698750Y-72450000D01*
X109677309Y-72448947D01*
X109656074Y-72445797D01*
X109635250Y-72440581D01*
X109615038Y-72433349D01*
X109595632Y-72424170D01*
X109577219Y-72413134D01*
X109559976Y-72400346D01*
X109544070Y-72385930D01*
X109529654Y-72370024D01*
X109516866Y-72352781D01*
X109505830Y-72334368D01*
X109496651Y-72314962D01*
X109489419Y-72294750D01*
X109484203Y-72273926D01*
X109481053Y-72252691D01*
X109480000Y-72231250D01*
X109480000Y-71718750D01*
X109481053Y-71697309D01*
X109484203Y-71676074D01*
X109489419Y-71655250D01*
X109496651Y-71635038D01*
X109505830Y-71615632D01*
X109516866Y-71597219D01*
X109529654Y-71579976D01*
X109544070Y-71564070D01*
X109559976Y-71549654D01*
X109577219Y-71536866D01*
X109595632Y-71525830D01*
X109615038Y-71516651D01*
X109635250Y-71509419D01*
X109656074Y-71504203D01*
X109677309Y-71501053D01*
X109698750Y-71500000D01*
X110136250Y-71500000D01*
X110157691Y-71501053D01*
X110157691Y-71501053D01*
G37*
D11*
X109917500Y-71975000D03*
D10*
G36*
X111732691Y-71501053D02*
X111753926Y-71504203D01*
X111774750Y-71509419D01*
X111794962Y-71516651D01*
X111814368Y-71525830D01*
X111832781Y-71536866D01*
X111850024Y-71549654D01*
X111865930Y-71564070D01*
X111880346Y-71579976D01*
X111893134Y-71597219D01*
X111904170Y-71615632D01*
X111913349Y-71635038D01*
X111920581Y-71655250D01*
X111925797Y-71676074D01*
X111928947Y-71697309D01*
X111930000Y-71718750D01*
X111930000Y-72231250D01*
X111928947Y-72252691D01*
X111925797Y-72273926D01*
X111920581Y-72294750D01*
X111913349Y-72314962D01*
X111904170Y-72334368D01*
X111893134Y-72352781D01*
X111880346Y-72370024D01*
X111865930Y-72385930D01*
X111850024Y-72400346D01*
X111832781Y-72413134D01*
X111814368Y-72424170D01*
X111794962Y-72433349D01*
X111774750Y-72440581D01*
X111753926Y-72445797D01*
X111732691Y-72448947D01*
X111711250Y-72450000D01*
X111273750Y-72450000D01*
X111252309Y-72448947D01*
X111231074Y-72445797D01*
X111210250Y-72440581D01*
X111190038Y-72433349D01*
X111170632Y-72424170D01*
X111152219Y-72413134D01*
X111134976Y-72400346D01*
X111119070Y-72385930D01*
X111104654Y-72370024D01*
X111091866Y-72352781D01*
X111080830Y-72334368D01*
X111071651Y-72314962D01*
X111064419Y-72294750D01*
X111059203Y-72273926D01*
X111056053Y-72252691D01*
X111055000Y-72231250D01*
X111055000Y-71718750D01*
X111056053Y-71697309D01*
X111059203Y-71676074D01*
X111064419Y-71655250D01*
X111071651Y-71635038D01*
X111080830Y-71615632D01*
X111091866Y-71597219D01*
X111104654Y-71579976D01*
X111119070Y-71564070D01*
X111134976Y-71549654D01*
X111152219Y-71536866D01*
X111170632Y-71525830D01*
X111190038Y-71516651D01*
X111210250Y-71509419D01*
X111231074Y-71504203D01*
X111252309Y-71501053D01*
X111273750Y-71500000D01*
X111711250Y-71500000D01*
X111732691Y-71501053D01*
X111732691Y-71501053D01*
G37*
D11*
X111492500Y-71975000D03*
G04 #@! TD*
D12*
G04 #@! TO.C,U1*
X97680000Y-74585000D03*
X107210000Y-79665000D03*
X97680000Y-77125000D03*
X107210000Y-77125000D03*
X97680000Y-79665000D03*
X107210000Y-74585000D03*
G04 #@! TD*
D10*
G04 #@! TO.C,D1*
G36*
X102990191Y-81951053D02*
X103011426Y-81954203D01*
X103032250Y-81959419D01*
X103052462Y-81966651D01*
X103071868Y-81975830D01*
X103090281Y-81986866D01*
X103107524Y-81999654D01*
X103123430Y-82014070D01*
X103137846Y-82029976D01*
X103150634Y-82047219D01*
X103161670Y-82065632D01*
X103170849Y-82085038D01*
X103178081Y-82105250D01*
X103183297Y-82126074D01*
X103186447Y-82147309D01*
X103187500Y-82168750D01*
X103187500Y-82681250D01*
X103186447Y-82702691D01*
X103183297Y-82723926D01*
X103178081Y-82744750D01*
X103170849Y-82764962D01*
X103161670Y-82784368D01*
X103150634Y-82802781D01*
X103137846Y-82820024D01*
X103123430Y-82835930D01*
X103107524Y-82850346D01*
X103090281Y-82863134D01*
X103071868Y-82874170D01*
X103052462Y-82883349D01*
X103032250Y-82890581D01*
X103011426Y-82895797D01*
X102990191Y-82898947D01*
X102968750Y-82900000D01*
X102531250Y-82900000D01*
X102509809Y-82898947D01*
X102488574Y-82895797D01*
X102467750Y-82890581D01*
X102447538Y-82883349D01*
X102428132Y-82874170D01*
X102409719Y-82863134D01*
X102392476Y-82850346D01*
X102376570Y-82835930D01*
X102362154Y-82820024D01*
X102349366Y-82802781D01*
X102338330Y-82784368D01*
X102329151Y-82764962D01*
X102321919Y-82744750D01*
X102316703Y-82723926D01*
X102313553Y-82702691D01*
X102312500Y-82681250D01*
X102312500Y-82168750D01*
X102313553Y-82147309D01*
X102316703Y-82126074D01*
X102321919Y-82105250D01*
X102329151Y-82085038D01*
X102338330Y-82065632D01*
X102349366Y-82047219D01*
X102362154Y-82029976D01*
X102376570Y-82014070D01*
X102392476Y-81999654D01*
X102409719Y-81986866D01*
X102428132Y-81975830D01*
X102447538Y-81966651D01*
X102467750Y-81959419D01*
X102488574Y-81954203D01*
X102509809Y-81951053D01*
X102531250Y-81950000D01*
X102968750Y-81950000D01*
X102990191Y-81951053D01*
X102990191Y-81951053D01*
G37*
D11*
X102750000Y-82425000D03*
D10*
G36*
X104565191Y-81951053D02*
X104586426Y-81954203D01*
X104607250Y-81959419D01*
X104627462Y-81966651D01*
X104646868Y-81975830D01*
X104665281Y-81986866D01*
X104682524Y-81999654D01*
X104698430Y-82014070D01*
X104712846Y-82029976D01*
X104725634Y-82047219D01*
X104736670Y-82065632D01*
X104745849Y-82085038D01*
X104753081Y-82105250D01*
X104758297Y-82126074D01*
X104761447Y-82147309D01*
X104762500Y-82168750D01*
X104762500Y-82681250D01*
X104761447Y-82702691D01*
X104758297Y-82723926D01*
X104753081Y-82744750D01*
X104745849Y-82764962D01*
X104736670Y-82784368D01*
X104725634Y-82802781D01*
X104712846Y-82820024D01*
X104698430Y-82835930D01*
X104682524Y-82850346D01*
X104665281Y-82863134D01*
X104646868Y-82874170D01*
X104627462Y-82883349D01*
X104607250Y-82890581D01*
X104586426Y-82895797D01*
X104565191Y-82898947D01*
X104543750Y-82900000D01*
X104106250Y-82900000D01*
X104084809Y-82898947D01*
X104063574Y-82895797D01*
X104042750Y-82890581D01*
X104022538Y-82883349D01*
X104003132Y-82874170D01*
X103984719Y-82863134D01*
X103967476Y-82850346D01*
X103951570Y-82835930D01*
X103937154Y-82820024D01*
X103924366Y-82802781D01*
X103913330Y-82784368D01*
X103904151Y-82764962D01*
X103896919Y-82744750D01*
X103891703Y-82723926D01*
X103888553Y-82702691D01*
X103887500Y-82681250D01*
X103887500Y-82168750D01*
X103888553Y-82147309D01*
X103891703Y-82126074D01*
X103896919Y-82105250D01*
X103904151Y-82085038D01*
X103913330Y-82065632D01*
X103924366Y-82047219D01*
X103937154Y-82029976D01*
X103951570Y-82014070D01*
X103967476Y-81999654D01*
X103984719Y-81986866D01*
X104003132Y-81975830D01*
X104022538Y-81966651D01*
X104042750Y-81959419D01*
X104063574Y-81954203D01*
X104084809Y-81951053D01*
X104106250Y-81950000D01*
X104543750Y-81950000D01*
X104565191Y-81951053D01*
X104565191Y-81951053D01*
G37*
D11*
X104325000Y-82425000D03*
G04 #@! TD*
D10*
G04 #@! TO.C,R2*
G36*
X102990191Y-71501053D02*
X103011426Y-71504203D01*
X103032250Y-71509419D01*
X103052462Y-71516651D01*
X103071868Y-71525830D01*
X103090281Y-71536866D01*
X103107524Y-71549654D01*
X103123430Y-71564070D01*
X103137846Y-71579976D01*
X103150634Y-71597219D01*
X103161670Y-71615632D01*
X103170849Y-71635038D01*
X103178081Y-71655250D01*
X103183297Y-71676074D01*
X103186447Y-71697309D01*
X103187500Y-71718750D01*
X103187500Y-72231250D01*
X103186447Y-72252691D01*
X103183297Y-72273926D01*
X103178081Y-72294750D01*
X103170849Y-72314962D01*
X103161670Y-72334368D01*
X103150634Y-72352781D01*
X103137846Y-72370024D01*
X103123430Y-72385930D01*
X103107524Y-72400346D01*
X103090281Y-72413134D01*
X103071868Y-72424170D01*
X103052462Y-72433349D01*
X103032250Y-72440581D01*
X103011426Y-72445797D01*
X102990191Y-72448947D01*
X102968750Y-72450000D01*
X102531250Y-72450000D01*
X102509809Y-72448947D01*
X102488574Y-72445797D01*
X102467750Y-72440581D01*
X102447538Y-72433349D01*
X102428132Y-72424170D01*
X102409719Y-72413134D01*
X102392476Y-72400346D01*
X102376570Y-72385930D01*
X102362154Y-72370024D01*
X102349366Y-72352781D01*
X102338330Y-72334368D01*
X102329151Y-72314962D01*
X102321919Y-72294750D01*
X102316703Y-72273926D01*
X102313553Y-72252691D01*
X102312500Y-72231250D01*
X102312500Y-71718750D01*
X102313553Y-71697309D01*
X102316703Y-71676074D01*
X102321919Y-71655250D01*
X102329151Y-71635038D01*
X102338330Y-71615632D01*
X102349366Y-71597219D01*
X102362154Y-71579976D01*
X102376570Y-71564070D01*
X102392476Y-71549654D01*
X102409719Y-71536866D01*
X102428132Y-71525830D01*
X102447538Y-71516651D01*
X102467750Y-71509419D01*
X102488574Y-71504203D01*
X102509809Y-71501053D01*
X102531250Y-71500000D01*
X102968750Y-71500000D01*
X102990191Y-71501053D01*
X102990191Y-71501053D01*
G37*
D11*
X102750000Y-71975000D03*
D10*
G36*
X104565191Y-71501053D02*
X104586426Y-71504203D01*
X104607250Y-71509419D01*
X104627462Y-71516651D01*
X104646868Y-71525830D01*
X104665281Y-71536866D01*
X104682524Y-71549654D01*
X104698430Y-71564070D01*
X104712846Y-71579976D01*
X104725634Y-71597219D01*
X104736670Y-71615632D01*
X104745849Y-71635038D01*
X104753081Y-71655250D01*
X104758297Y-71676074D01*
X104761447Y-71697309D01*
X104762500Y-71718750D01*
X104762500Y-72231250D01*
X104761447Y-72252691D01*
X104758297Y-72273926D01*
X104753081Y-72294750D01*
X104745849Y-72314962D01*
X104736670Y-72334368D01*
X104725634Y-72352781D01*
X104712846Y-72370024D01*
X104698430Y-72385930D01*
X104682524Y-72400346D01*
X104665281Y-72413134D01*
X104646868Y-72424170D01*
X104627462Y-72433349D01*
X104607250Y-72440581D01*
X104586426Y-72445797D01*
X104565191Y-72448947D01*
X104543750Y-72450000D01*
X104106250Y-72450000D01*
X104084809Y-72448947D01*
X104063574Y-72445797D01*
X104042750Y-72440581D01*
X104022538Y-72433349D01*
X104003132Y-72424170D01*
X103984719Y-72413134D01*
X103967476Y-72400346D01*
X103951570Y-72385930D01*
X103937154Y-72370024D01*
X103924366Y-72352781D01*
X103913330Y-72334368D01*
X103904151Y-72314962D01*
X103896919Y-72294750D01*
X103891703Y-72273926D01*
X103888553Y-72252691D01*
X103887500Y-72231250D01*
X103887500Y-71718750D01*
X103888553Y-71697309D01*
X103891703Y-71676074D01*
X103896919Y-71655250D01*
X103904151Y-71635038D01*
X103913330Y-71615632D01*
X103924366Y-71597219D01*
X103937154Y-71579976D01*
X103951570Y-71564070D01*
X103967476Y-71549654D01*
X103984719Y-71536866D01*
X104003132Y-71525830D01*
X104022538Y-71516651D01*
X104042750Y-71509419D01*
X104063574Y-71504203D01*
X104084809Y-71501053D01*
X104106250Y-71500000D01*
X104543750Y-71500000D01*
X104565191Y-71501053D01*
X104565191Y-71501053D01*
G37*
D11*
X104325000Y-71975000D03*
G04 #@! TD*
D13*
G04 #@! TO.C,D2*
X110800000Y-74775000D03*
X110800000Y-79375000D03*
X110800000Y-77075000D03*
D14*
X117100000Y-77075000D03*
G04 #@! TD*
M02*
